M48
; DRILL file KiCad 10.0.1 date 2026-08-10T21:35:35
; FORMAT={-:-/ absolute / inch / decimal}
; #@! TF.CreationDate,2026-08-10T21:35:35+01:00
; #@! TF.GenerationSoftware,Kicad,Pcbnew,10.0.1
; #@! TF.FileFunction,Plated,1,4,PTH
FMAT,2
INCH
; #@! TA.AperFunction,Plated,PTH,ViaDrill
T1C0.0118
; #@! TA.AperFunction,Plated,PTH,ViaDrill
T2C0.0157
%
G90
G05
T1
X2.9567Y-5.1969
X2.9715Y-5.4921
X2.9715Y-5.5906
X2.9716Y-5.3382
X2.9724Y-5.3937
X3.0039Y-5.0492
X3.0315Y-5.6201
X3.0648Y-5.5173
X3.0709Y-5.2756
X3.0749Y-5.1779
X3.0813Y-5.6392
X3.0906Y-5.5512
X3.0939Y-5.3862
X3.0966Y-5.2244
X3.0975Y-5.5224
X3.1291Y-5.6333
X3.1294Y-5.4329
X3.138Y-5.075
X3.1417Y-5.1378
X3.1417Y-5.2047
X3.1649Y-5.5604
X3.1663Y-5.5117
X3.1692Y-5.2693
X3.1692Y-5.6614
X3.1749Y-5.435
X3.1988Y-5.6614
X3.2407Y-5.4347
X3.2451Y-5.5709
X3.2482Y-5.5098
X3.2874Y-5.0787
X3.2972Y-5.6831
X3.3333Y-5.6014
X3.434Y-5.1364
X3.44Y-5.5413
X3.4547Y-5.6073
X3.4601Y-5.1886
X3.4784Y-5.159
X3.4839Y-5.5217
X3.559Y-5.2906
X3.5603Y-5.1548
X3.5842Y-5.1932
X3.6319Y-5.6693
X3.6652Y-5.2867
X3.6909Y-5.0801
X3.75Y-5.4724
X3.7579Y-5.5411
X3.7579Y-5.5903
X3.8681Y-5.4035
X3.8681Y-5.5906
T2
X2.9528Y-5.4429
X2.9528Y-5.5413
X3.1862Y-5.0555
X3.2677Y-5.3549
X3.2776Y-5.1703
X3.2807Y-5.2075
X3.2823Y-4.9955
X3.2823Y-5.0335
X3.2936Y-5.3819
X3.3711Y-5.2589
X3.4252Y-4.9705
X3.4611Y-5.2545
X3.5531Y-5.6693
X3.563Y-5.3642
X3.5796Y-5.2264
X3.5796Y-5.2642
X3.584Y-5.0503
X3.5925Y-5.6693
X3.6024Y-5.4921
X3.6811Y-5.6004
X3.6909Y-5.4331
X3.7005Y-5.1343
X3.7006Y-5.1926
X3.7205Y-5.5118
X3.8681Y-5.4429
M30
