%TF.GenerationSoftware,KiCad,Pcbnew,10.0.1*%
%TF.CreationDate,2026-08-10T21:35:21+01:00*%
%TF.ProjectId,reward_port,72657761-7264-45f7-906f-72742e6b6963,rev?*%
%TF.SameCoordinates,Original*%
%TF.FileFunction,Legend,Top*%
%TF.FilePolarity,Positive*%
%FSLAX46Y46*%
G04 Gerber Fmt 4.6, Leading zero omitted, Abs format (unit mm)*
G04 Created by KiCad (PCBNEW 10.0.1) date 2026-08-10 21:35:21*
%MOMM*%
%LPD*%
G01*
G04 APERTURE LIST*
G04 Aperture macros list*
%AMRoundRect*
0 Rectangle with rounded corners*
0 $1 Rounding radius*
0 $2 $3 $4 $5 $6 $7 $8 $9 X,Y pos of 4 corners*
0 Add a 4 corners polygon primitive as box body*
4,1,4,$2,$3,$4,$5,$6,$7,$8,$9,$2,$3,0*
0 Add four circle primitives for the rounded corners*
1,1,$1+$1,$2,$3*
1,1,$1+$1,$4,$5*
1,1,$1+$1,$6,$7*
1,1,$1+$1,$8,$9*
0 Add four rect primitives between the rounded corners*
20,1,$1+$1,$2,$3,$4,$5,0*
20,1,$1+$1,$4,$5,$6,$7,0*
20,1,$1+$1,$6,$7,$8,$9,0*
20,1,$1+$1,$8,$9,$2,$3,0*%
%AMFreePoly0*
4,1,14,0.230680,0.111820,0.364320,-0.021820,0.377500,-0.053640,0.377500,-0.080000,0.364320,-0.111820,0.332500,-0.125000,-0.332500,-0.125000,-0.364320,-0.111820,-0.377500,-0.080000,-0.377500,0.080000,-0.364320,0.111820,-0.332500,0.125000,0.198860,0.125000,0.230680,0.111820,0.230680,0.111820,$1*%
%AMFreePoly1*
4,1,14,0.364320,0.111820,0.377500,0.080000,0.377500,0.053640,0.364320,0.021820,0.230680,-0.111820,0.198860,-0.125000,-0.332500,-0.125000,-0.364320,-0.111820,-0.377500,-0.080000,-0.377500,0.080000,-0.364320,0.111820,-0.332500,0.125000,0.332500,0.125000,0.364320,0.111820,0.364320,0.111820,$1*%
%AMFreePoly2*
4,1,14,0.111820,0.364320,0.125000,0.332500,0.125000,-0.332500,0.111820,-0.364320,0.080000,-0.377500,-0.080000,-0.377500,-0.111820,-0.364320,-0.125000,-0.332500,-0.125000,0.198860,-0.111820,0.230680,0.021820,0.364320,0.053640,0.377500,0.080000,0.377500,0.111820,0.364320,0.111820,0.364320,$1*%
%AMFreePoly3*
4,1,14,-0.021820,0.364320,0.111820,0.230680,0.125000,0.198860,0.125000,-0.332500,0.111820,-0.364320,0.080000,-0.377500,-0.080000,-0.377500,-0.111820,-0.364320,-0.125000,-0.332500,-0.125000,0.332500,-0.111820,0.364320,-0.080000,0.377500,-0.053640,0.377500,-0.021820,0.364320,-0.021820,0.364320,$1*%
%AMFreePoly4*
4,1,14,0.364320,0.111820,0.377500,0.080000,0.377500,-0.080000,0.364320,-0.111820,0.332500,-0.125000,-0.198860,-0.125000,-0.230680,-0.111820,-0.364320,0.021820,-0.377500,0.053640,-0.377500,0.080000,-0.364320,0.111820,-0.332500,0.125000,0.332500,0.125000,0.364320,0.111820,0.364320,0.111820,$1*%
%AMFreePoly5*
4,1,14,0.364320,0.111820,0.377500,0.080000,0.377500,-0.080000,0.364320,-0.111820,0.332500,-0.125000,-0.332500,-0.125000,-0.364320,-0.111820,-0.377500,-0.080000,-0.377500,-0.053640,-0.364320,-0.021820,-0.230680,0.111820,-0.198860,0.125000,0.332500,0.125000,0.364320,0.111820,0.364320,0.111820,$1*%
%AMFreePoly6*
4,1,14,0.111820,0.364320,0.125000,0.332500,0.125000,-0.198860,0.111820,-0.230680,-0.021820,-0.364320,-0.053640,-0.377500,-0.080000,-0.377500,-0.111820,-0.364320,-0.125000,-0.332500,-0.125000,0.332500,-0.111820,0.364320,-0.080000,0.377500,0.080000,0.377500,0.111820,0.364320,0.111820,0.364320,$1*%
%AMFreePoly7*
4,1,14,0.111820,0.364320,0.125000,0.332500,0.125000,-0.332500,0.111820,-0.364320,0.080000,-0.377500,0.053640,-0.377500,0.021820,-0.364320,-0.111820,-0.230680,-0.125000,-0.198860,-0.125000,0.332500,-0.111820,0.364320,-0.080000,0.377500,0.080000,0.377500,0.111820,0.364320,0.111820,0.364320,$1*%
G04 Aperture macros list end*
%ADD10C,0.300000*%
%ADD11C,0.150000*%
%ADD12C,0.120000*%
%ADD13RoundRect,0.140000X-0.170000X0.140000X-0.170000X-0.140000X0.170000X-0.140000X0.170000X0.140000X0*%
%ADD14RoundRect,0.140000X0.170000X-0.140000X0.170000X0.140000X-0.170000X0.140000X-0.170000X-0.140000X0*%
%ADD15RoundRect,0.135000X0.135000X0.185000X-0.135000X0.185000X-0.135000X-0.185000X0.135000X-0.185000X0*%
%ADD16RoundRect,0.140000X-0.140000X-0.170000X0.140000X-0.170000X0.140000X0.170000X-0.140000X0.170000X0*%
%ADD17RoundRect,0.125000X-0.687500X-0.125000X0.687500X-0.125000X0.687500X0.125000X-0.687500X0.125000X0*%
%ADD18FreePoly0,0.000000*%
%ADD19RoundRect,0.062500X-0.375000X-0.062500X0.375000X-0.062500X0.375000X0.062500X-0.375000X0.062500X0*%
%ADD20FreePoly1,0.000000*%
%ADD21FreePoly2,0.000000*%
%ADD22RoundRect,0.062500X-0.062500X-0.375000X0.062500X-0.375000X0.062500X0.375000X-0.062500X0.375000X0*%
%ADD23FreePoly3,0.000000*%
%ADD24FreePoly4,0.000000*%
%ADD25FreePoly5,0.000000*%
%ADD26FreePoly6,0.000000*%
%ADD27FreePoly7,0.000000*%
%ADD28RoundRect,0.135000X-0.135000X-0.185000X0.135000X-0.185000X0.135000X0.185000X-0.135000X0.185000X0*%
%ADD29RoundRect,0.250000X-0.475000X0.250000X-0.475000X-0.250000X0.475000X-0.250000X0.475000X0.250000X0*%
%ADD30RoundRect,0.150000X-0.700000X0.150000X-0.700000X-0.150000X0.700000X-0.150000X0.700000X0.150000X0*%
%ADD31RoundRect,0.250000X-1.100000X0.250000X-1.100000X-0.250000X1.100000X-0.250000X1.100000X0.250000X0*%
%ADD32RoundRect,0.150000X0.700000X-0.150000X0.700000X0.150000X-0.700000X0.150000X-0.700000X-0.150000X0*%
%ADD33RoundRect,0.250000X1.100000X-0.250000X1.100000X0.250000X-1.100000X0.250000X-1.100000X-0.250000X0*%
%ADD34RoundRect,0.135000X-0.185000X0.135000X-0.185000X-0.135000X0.185000X-0.135000X0.185000X0.135000X0*%
%ADD35RoundRect,0.112500X-0.112500X0.350000X-0.112500X-0.350000X0.112500X-0.350000X0.112500X0.350000X0*%
%ADD36RoundRect,0.225000X-0.250000X0.225000X-0.250000X-0.225000X0.250000X-0.225000X0.250000X0.225000X0*%
%ADD37RoundRect,0.250000X0.785000X1.045000X-0.785000X1.045000X-0.785000X-1.045000X0.785000X-1.045000X0*%
%ADD38RoundRect,0.112500X0.112500X-0.350000X0.112500X0.350000X-0.112500X0.350000X-0.112500X-0.350000X0*%
%ADD39RoundRect,0.140000X0.140000X0.170000X-0.140000X0.170000X-0.140000X-0.170000X0.140000X-0.170000X0*%
%ADD40RoundRect,0.112500X-0.350000X-0.112500X0.350000X-0.112500X0.350000X0.112500X-0.350000X0.112500X0*%
%ADD41RoundRect,0.135000X0.185000X-0.135000X0.185000X0.135000X-0.185000X0.135000X-0.185000X-0.135000X0*%
%ADD42C,0.990600*%
%ADD43C,0.787400*%
G04 APERTURE END LIST*
D10*
X87304510Y-127229400D02*
X88447368Y-127229400D01*
X87875939Y-127800828D02*
X87875939Y-126657971D01*
D11*
G36*
X100637590Y-126979077D02*
G01*
X100667997Y-127009484D01*
X100702255Y-127078000D01*
X100702255Y-127185447D01*
X100667997Y-127253963D01*
X100637590Y-127284370D01*
X100569074Y-127318628D01*
X100280827Y-127318628D01*
X100280827Y-126944819D01*
X100569074Y-126944819D01*
X100637590Y-126979077D01*
G37*
G36*
X97768436Y-127509104D02*
G01*
X97500360Y-127509104D01*
X97634398Y-127106989D01*
X97768436Y-127509104D01*
G37*
G36*
X95970923Y-126979077D02*
G01*
X96001330Y-127009484D01*
X96035588Y-127078000D01*
X96035588Y-127185447D01*
X96001330Y-127253963D01*
X95970923Y-127284370D01*
X95902407Y-127318628D01*
X95614160Y-127318628D01*
X95614160Y-126944819D01*
X95902407Y-126944819D01*
X95970923Y-126979077D01*
G37*
G36*
X100963366Y-128055930D02*
G01*
X94353049Y-128055930D01*
X94353049Y-127060295D01*
X94464160Y-127060295D01*
X94464160Y-127155533D01*
X94465601Y-127170165D01*
X94466632Y-127172654D01*
X94466823Y-127175342D01*
X94472078Y-127189074D01*
X94519697Y-127284312D01*
X94523661Y-127290611D01*
X94524419Y-127292439D01*
X94526107Y-127294495D01*
X94527529Y-127296755D01*
X94529027Y-127298054D01*
X94533746Y-127303804D01*
X94581365Y-127351423D01*
X94587114Y-127356141D01*
X94588414Y-127357640D01*
X94590673Y-127359061D01*
X94592730Y-127360750D01*
X94594557Y-127361507D01*
X94600857Y-127365472D01*
X94696095Y-127413091D01*
X94697164Y-127413500D01*
X94697600Y-127413823D01*
X94703736Y-127416015D01*
X94709826Y-127418346D01*
X94710366Y-127418384D01*
X94711446Y-127418770D01*
X94893936Y-127464392D01*
X94970923Y-127502886D01*
X95001330Y-127533293D01*
X95035588Y-127601809D01*
X95035588Y-127661637D01*
X95001329Y-127730153D01*
X94970922Y-127760561D01*
X94902407Y-127794819D01*
X94694187Y-127794819D01*
X94562877Y-127751049D01*
X94548540Y-127747789D01*
X94519350Y-127749864D01*
X94493177Y-127762950D01*
X94474003Y-127785057D01*
X94464749Y-127812820D01*
X94466824Y-127842010D01*
X94479910Y-127868183D01*
X94502017Y-127887357D01*
X94515443Y-127893351D01*
X94658299Y-127940970D01*
X94665554Y-127942619D01*
X94667385Y-127943378D01*
X94670038Y-127943639D01*
X94672636Y-127944230D01*
X94674610Y-127944089D01*
X94682017Y-127944819D01*
X94920112Y-127944819D01*
X94934744Y-127943378D01*
X94937233Y-127942346D01*
X94939921Y-127942156D01*
X94953653Y-127936901D01*
X95048891Y-127889282D01*
X95055190Y-127885317D01*
X95057018Y-127884560D01*
X95059074Y-127882872D01*
X95061334Y-127881450D01*
X95062634Y-127879950D01*
X95068384Y-127875232D01*
X95116002Y-127827613D01*
X95120720Y-127821863D01*
X95122219Y-127820564D01*
X95123640Y-127818305D01*
X95125330Y-127816247D01*
X95126087Y-127814417D01*
X95130051Y-127808121D01*
X95177670Y-127712883D01*
X95182925Y-127699152D01*
X95183116Y-127696462D01*
X95184147Y-127693974D01*
X95185588Y-127679342D01*
X95185588Y-127584104D01*
X95184147Y-127569472D01*
X95183116Y-127566983D01*
X95182925Y-127564294D01*
X95177670Y-127550563D01*
X95130051Y-127455325D01*
X95126086Y-127449025D01*
X95125329Y-127447198D01*
X95123640Y-127445141D01*
X95122219Y-127442882D01*
X95120720Y-127441582D01*
X95116002Y-127435833D01*
X95068383Y-127388214D01*
X95062633Y-127383495D01*
X95061334Y-127381997D01*
X95059074Y-127380575D01*
X95057018Y-127378887D01*
X95055190Y-127378129D01*
X95048891Y-127374165D01*
X94953653Y-127326546D01*
X94952583Y-127326136D01*
X94952148Y-127325814D01*
X94946002Y-127323618D01*
X94939921Y-127321291D01*
X94939381Y-127321252D01*
X94938302Y-127320867D01*
X94755812Y-127275244D01*
X94678825Y-127236751D01*
X94648418Y-127206344D01*
X94614160Y-127137828D01*
X94614160Y-127078000D01*
X94648418Y-127009484D01*
X94678825Y-126979077D01*
X94747341Y-126944819D01*
X94955561Y-126944819D01*
X95086870Y-126988589D01*
X95101207Y-126991849D01*
X95130397Y-126989774D01*
X95156571Y-126976688D01*
X95175745Y-126954580D01*
X95184999Y-126926818D01*
X95182924Y-126897628D01*
X95169837Y-126871455D01*
X95167951Y-126869819D01*
X95464160Y-126869819D01*
X95464160Y-127869819D01*
X95465601Y-127884451D01*
X95476800Y-127911487D01*
X95497492Y-127932179D01*
X95524528Y-127943378D01*
X95553792Y-127943378D01*
X95580828Y-127932179D01*
X95601520Y-127911487D01*
X95612719Y-127884451D01*
X95614160Y-127869819D01*
X95614160Y-127468628D01*
X95920112Y-127468628D01*
X95934744Y-127467187D01*
X95937233Y-127466155D01*
X95939921Y-127465965D01*
X95953653Y-127460710D01*
X96048891Y-127413091D01*
X96055190Y-127409126D01*
X96057018Y-127408369D01*
X96059074Y-127406680D01*
X96061334Y-127405259D01*
X96062633Y-127403760D01*
X96068383Y-127399042D01*
X96116002Y-127351423D01*
X96120720Y-127345673D01*
X96122219Y-127344374D01*
X96123640Y-127342114D01*
X96125329Y-127340058D01*
X96126086Y-127338230D01*
X96130051Y-127331931D01*
X96177670Y-127236693D01*
X96182925Y-127222962D01*
X96183116Y-127220272D01*
X96184147Y-127217784D01*
X96185588Y-127203152D01*
X96185588Y-127060295D01*
X96184147Y-127045663D01*
X96183116Y-127043174D01*
X96182925Y-127040485D01*
X96177670Y-127026754D01*
X96130051Y-126931516D01*
X96126086Y-126925216D01*
X96125329Y-126923389D01*
X96123640Y-126921332D01*
X96122219Y-126919073D01*
X96120720Y-126917773D01*
X96116002Y-126912024D01*
X96073797Y-126869819D01*
X96464160Y-126869819D01*
X96464160Y-127869819D01*
X96465601Y-127884451D01*
X96476800Y-127911487D01*
X96497492Y-127932179D01*
X96524528Y-127943378D01*
X96539160Y-127944819D01*
X97015350Y-127944819D01*
X97029982Y-127943378D01*
X97057018Y-127932179D01*
X97077710Y-127911487D01*
X97088909Y-127884451D01*
X97088909Y-127860439D01*
X97226654Y-127860439D01*
X97228729Y-127889629D01*
X97241815Y-127915802D01*
X97263922Y-127934976D01*
X97291685Y-127944230D01*
X97320875Y-127942155D01*
X97347048Y-127929069D01*
X97366222Y-127906962D01*
X97372216Y-127893536D01*
X97450360Y-127659104D01*
X97818436Y-127659104D01*
X97896580Y-127893536D01*
X97902574Y-127906961D01*
X97921748Y-127929068D01*
X97947921Y-127942155D01*
X97977111Y-127944230D01*
X98004873Y-127934976D01*
X98026981Y-127915802D01*
X98040067Y-127889628D01*
X98042142Y-127860438D01*
X98038882Y-127846102D01*
X97713455Y-126869819D01*
X98226065Y-126869819D01*
X98226065Y-127869819D01*
X98227506Y-127884451D01*
X98238705Y-127911487D01*
X98259397Y-127932179D01*
X98286433Y-127943378D01*
X98315697Y-127943378D01*
X98342733Y-127932179D01*
X98363425Y-127911487D01*
X98374624Y-127884451D01*
X98376065Y-127869819D01*
X98376065Y-127472313D01*
X98435807Y-127412570D01*
X98812493Y-127914819D01*
X98822425Y-127925660D01*
X98847606Y-127940570D01*
X98876575Y-127944708D01*
X98904923Y-127937446D01*
X98928334Y-127919887D01*
X98943243Y-127894706D01*
X98947382Y-127865738D01*
X98940120Y-127837389D01*
X98932493Y-127824819D01*
X98542950Y-127305427D01*
X98925526Y-126922852D01*
X98934853Y-126911487D01*
X98946052Y-126884451D01*
X98946052Y-126869819D01*
X99226065Y-126869819D01*
X99226065Y-127869819D01*
X99227506Y-127884451D01*
X99238705Y-127911487D01*
X99259397Y-127932179D01*
X99286433Y-127943378D01*
X99301065Y-127944819D01*
X99777255Y-127944819D01*
X99791887Y-127943378D01*
X99818923Y-127932179D01*
X99839615Y-127911487D01*
X99850814Y-127884451D01*
X99850814Y-127855187D01*
X99839615Y-127828151D01*
X99818923Y-127807459D01*
X99791887Y-127796260D01*
X99777255Y-127794819D01*
X99376065Y-127794819D01*
X99376065Y-127421009D01*
X99634398Y-127421009D01*
X99649030Y-127419568D01*
X99676066Y-127408369D01*
X99696758Y-127387677D01*
X99707957Y-127360641D01*
X99707957Y-127331377D01*
X99696758Y-127304341D01*
X99676066Y-127283649D01*
X99649030Y-127272450D01*
X99634398Y-127271009D01*
X99376065Y-127271009D01*
X99376065Y-126944819D01*
X99777255Y-126944819D01*
X99791887Y-126943378D01*
X99818923Y-126932179D01*
X99839615Y-126911487D01*
X99850814Y-126884451D01*
X99850814Y-126869819D01*
X100130827Y-126869819D01*
X100130827Y-127869819D01*
X100132268Y-127884451D01*
X100143467Y-127911487D01*
X100164159Y-127932179D01*
X100191195Y-127943378D01*
X100220459Y-127943378D01*
X100247495Y-127932179D01*
X100268187Y-127911487D01*
X100279386Y-127884451D01*
X100280827Y-127869819D01*
X100280827Y-127468628D01*
X100404873Y-127468628D01*
X100715813Y-127912829D01*
X100725384Y-127923989D01*
X100750063Y-127939716D01*
X100778880Y-127944802D01*
X100807451Y-127938472D01*
X100831425Y-127921690D01*
X100847152Y-127897012D01*
X100852237Y-127868194D01*
X100845908Y-127839623D01*
X100838698Y-127826810D01*
X100587894Y-127468518D01*
X100601411Y-127467187D01*
X100603900Y-127466155D01*
X100606588Y-127465965D01*
X100620320Y-127460710D01*
X100715558Y-127413091D01*
X100721857Y-127409126D01*
X100723685Y-127408369D01*
X100725741Y-127406680D01*
X100728001Y-127405259D01*
X100729300Y-127403760D01*
X100735050Y-127399042D01*
X100782669Y-127351423D01*
X100787387Y-127345673D01*
X100788886Y-127344374D01*
X100790307Y-127342114D01*
X100791996Y-127340058D01*
X100792753Y-127338230D01*
X100796718Y-127331931D01*
X100844337Y-127236693D01*
X100849592Y-127222962D01*
X100849783Y-127220272D01*
X100850814Y-127217784D01*
X100852255Y-127203152D01*
X100852255Y-127060295D01*
X100850814Y-127045663D01*
X100849783Y-127043174D01*
X100849592Y-127040485D01*
X100844337Y-127026754D01*
X100796718Y-126931516D01*
X100792753Y-126925216D01*
X100791996Y-126923389D01*
X100790307Y-126921332D01*
X100788886Y-126919073D01*
X100787387Y-126917773D01*
X100782669Y-126912024D01*
X100735050Y-126864405D01*
X100729300Y-126859686D01*
X100728001Y-126858188D01*
X100725741Y-126856766D01*
X100723685Y-126855078D01*
X100721857Y-126854320D01*
X100715558Y-126850356D01*
X100620320Y-126802737D01*
X100606588Y-126797482D01*
X100603900Y-126797291D01*
X100601411Y-126796260D01*
X100586779Y-126794819D01*
X100205827Y-126794819D01*
X100191195Y-126796260D01*
X100164159Y-126807459D01*
X100143467Y-126828151D01*
X100132268Y-126855187D01*
X100130827Y-126869819D01*
X99850814Y-126869819D01*
X99850814Y-126855187D01*
X99839615Y-126828151D01*
X99818923Y-126807459D01*
X99791887Y-126796260D01*
X99777255Y-126794819D01*
X99301065Y-126794819D01*
X99286433Y-126796260D01*
X99259397Y-126807459D01*
X99238705Y-126828151D01*
X99227506Y-126855187D01*
X99226065Y-126869819D01*
X98946052Y-126869819D01*
X98946052Y-126855188D01*
X98934853Y-126828151D01*
X98914161Y-126807459D01*
X98887124Y-126796260D01*
X98857861Y-126796260D01*
X98830825Y-126807459D01*
X98819460Y-126816786D01*
X98376065Y-127260181D01*
X98376065Y-126869819D01*
X98374624Y-126855187D01*
X98363425Y-126828151D01*
X98342733Y-126807459D01*
X98315697Y-126796260D01*
X98286433Y-126796260D01*
X98259397Y-126807459D01*
X98238705Y-126828151D01*
X98227506Y-126855187D01*
X98226065Y-126869819D01*
X97713455Y-126869819D01*
X97705549Y-126846102D01*
X97699555Y-126832676D01*
X97696043Y-126828627D01*
X97693648Y-126823836D01*
X97686544Y-126817674D01*
X97680381Y-126810569D01*
X97675587Y-126808172D01*
X97671540Y-126804662D01*
X97662618Y-126801688D01*
X97654208Y-126797483D01*
X97648863Y-126797103D01*
X97643778Y-126795408D01*
X97634398Y-126796074D01*
X97625018Y-126795408D01*
X97619932Y-126797103D01*
X97614588Y-126797483D01*
X97606180Y-126801687D01*
X97597255Y-126804662D01*
X97593204Y-126808175D01*
X97588415Y-126810570D01*
X97582256Y-126817670D01*
X97575148Y-126823836D01*
X97572751Y-126828629D01*
X97569241Y-126832677D01*
X97563247Y-126846102D01*
X97229914Y-127846102D01*
X97226654Y-127860439D01*
X97088909Y-127860439D01*
X97088909Y-127855187D01*
X97077710Y-127828151D01*
X97057018Y-127807459D01*
X97029982Y-127796260D01*
X97015350Y-127794819D01*
X96614160Y-127794819D01*
X96614160Y-127421009D01*
X96872493Y-127421009D01*
X96887125Y-127419568D01*
X96914161Y-127408369D01*
X96934853Y-127387677D01*
X96946052Y-127360641D01*
X96946052Y-127331377D01*
X96934853Y-127304341D01*
X96914161Y-127283649D01*
X96887125Y-127272450D01*
X96872493Y-127271009D01*
X96614160Y-127271009D01*
X96614160Y-126944819D01*
X97015350Y-126944819D01*
X97029982Y-126943378D01*
X97057018Y-126932179D01*
X97077710Y-126911487D01*
X97088909Y-126884451D01*
X97088909Y-126855187D01*
X97077710Y-126828151D01*
X97057018Y-126807459D01*
X97029982Y-126796260D01*
X97015350Y-126794819D01*
X96539160Y-126794819D01*
X96524528Y-126796260D01*
X96497492Y-126807459D01*
X96476800Y-126828151D01*
X96465601Y-126855187D01*
X96464160Y-126869819D01*
X96073797Y-126869819D01*
X96068383Y-126864405D01*
X96062633Y-126859686D01*
X96061334Y-126858188D01*
X96059074Y-126856766D01*
X96057018Y-126855078D01*
X96055190Y-126854320D01*
X96048891Y-126850356D01*
X95953653Y-126802737D01*
X95939921Y-126797482D01*
X95937233Y-126797291D01*
X95934744Y-126796260D01*
X95920112Y-126794819D01*
X95539160Y-126794819D01*
X95524528Y-126796260D01*
X95497492Y-126807459D01*
X95476800Y-126828151D01*
X95465601Y-126855187D01*
X95464160Y-126869819D01*
X95167951Y-126869819D01*
X95147730Y-126852281D01*
X95134305Y-126846287D01*
X94991448Y-126798668D01*
X94984194Y-126797018D01*
X94982363Y-126796260D01*
X94979708Y-126795998D01*
X94977111Y-126795408D01*
X94975136Y-126795548D01*
X94967731Y-126794819D01*
X94729636Y-126794819D01*
X94715004Y-126796260D01*
X94712515Y-126797290D01*
X94709826Y-126797482D01*
X94696095Y-126802737D01*
X94600857Y-126850356D01*
X94594557Y-126854320D01*
X94592730Y-126855078D01*
X94590673Y-126856766D01*
X94588414Y-126858188D01*
X94587114Y-126859686D01*
X94581365Y-126864405D01*
X94533746Y-126912024D01*
X94529027Y-126917773D01*
X94527529Y-126919073D01*
X94526107Y-126921332D01*
X94524419Y-126923389D01*
X94523661Y-126925216D01*
X94519697Y-126931516D01*
X94472078Y-127026754D01*
X94466823Y-127040486D01*
X94466632Y-127043173D01*
X94465601Y-127045663D01*
X94464160Y-127060295D01*
X94353049Y-127060295D01*
X94353049Y-126683708D01*
X100963366Y-126683708D01*
X100963366Y-128055930D01*
G37*
G36*
X99641503Y-134732990D02*
G01*
X99715616Y-134807103D01*
X99754109Y-134884090D01*
X99797493Y-135057624D01*
X99797493Y-135182013D01*
X99754109Y-135355547D01*
X99715615Y-135432534D01*
X99641503Y-135506647D01*
X99526990Y-135544819D01*
X99376065Y-135544819D01*
X99376065Y-134694819D01*
X99526990Y-134694819D01*
X99641503Y-134732990D01*
G37*
G36*
X100058604Y-135805930D02*
G01*
X97400668Y-135805930D01*
X97400668Y-134619819D01*
X97511779Y-134619819D01*
X97511779Y-135619819D01*
X97513220Y-135634451D01*
X97524419Y-135661487D01*
X97545111Y-135682179D01*
X97572147Y-135693378D01*
X97586779Y-135694819D01*
X98062969Y-135694819D01*
X98077601Y-135693378D01*
X98104637Y-135682179D01*
X98125329Y-135661487D01*
X98136528Y-135634451D01*
X98136528Y-135605187D01*
X98125329Y-135578151D01*
X98104637Y-135557459D01*
X98077601Y-135546260D01*
X98062969Y-135544819D01*
X97661779Y-135544819D01*
X97661779Y-134619819D01*
X98321303Y-134619819D01*
X98321303Y-135619819D01*
X98322744Y-135634451D01*
X98333943Y-135661487D01*
X98354635Y-135682179D01*
X98381671Y-135693378D01*
X98396303Y-135694819D01*
X98872493Y-135694819D01*
X98887125Y-135693378D01*
X98914161Y-135682179D01*
X98934853Y-135661487D01*
X98946052Y-135634451D01*
X98946052Y-135605187D01*
X98934853Y-135578151D01*
X98914161Y-135557459D01*
X98887125Y-135546260D01*
X98872493Y-135544819D01*
X98471303Y-135544819D01*
X98471303Y-135171009D01*
X98729636Y-135171009D01*
X98744268Y-135169568D01*
X98771304Y-135158369D01*
X98791996Y-135137677D01*
X98803195Y-135110641D01*
X98803195Y-135081377D01*
X98791996Y-135054341D01*
X98771304Y-135033649D01*
X98744268Y-135022450D01*
X98729636Y-135021009D01*
X98471303Y-135021009D01*
X98471303Y-134694819D01*
X98872493Y-134694819D01*
X98887125Y-134693378D01*
X98914161Y-134682179D01*
X98934853Y-134661487D01*
X98946052Y-134634451D01*
X98946052Y-134619819D01*
X99226065Y-134619819D01*
X99226065Y-135619819D01*
X99227506Y-135634451D01*
X99238705Y-135661487D01*
X99259397Y-135682179D01*
X99286433Y-135693378D01*
X99301065Y-135694819D01*
X99539160Y-135694819D01*
X99546565Y-135694089D01*
X99548540Y-135694230D01*
X99551137Y-135693639D01*
X99553792Y-135693378D01*
X99555623Y-135692619D01*
X99562877Y-135690970D01*
X99705734Y-135643351D01*
X99719159Y-135637357D01*
X99721194Y-135635591D01*
X99723685Y-135634560D01*
X99735050Y-135625233D01*
X99830289Y-135529993D01*
X99835006Y-135524244D01*
X99836505Y-135522945D01*
X99837926Y-135520686D01*
X99839616Y-135518628D01*
X99840373Y-135516798D01*
X99844337Y-135510502D01*
X99891956Y-135415264D01*
X99892365Y-135414194D01*
X99892688Y-135413759D01*
X99894880Y-135407622D01*
X99897211Y-135401533D01*
X99897249Y-135400992D01*
X99897635Y-135399913D01*
X99945254Y-135209437D01*
X99945629Y-135206900D01*
X99946052Y-135205879D01*
X99946594Y-135200366D01*
X99947404Y-135194893D01*
X99947241Y-135193800D01*
X99947493Y-135191247D01*
X99947493Y-135048390D01*
X99947241Y-135045836D01*
X99947404Y-135044744D01*
X99946594Y-135039270D01*
X99946052Y-135033758D01*
X99945629Y-135032736D01*
X99945254Y-135030200D01*
X99897635Y-134839724D01*
X99897249Y-134838644D01*
X99897211Y-134838104D01*
X99894880Y-134832014D01*
X99892688Y-134825878D01*
X99892365Y-134825442D01*
X99891956Y-134824373D01*
X99844337Y-134729135D01*
X99840374Y-134722840D01*
X99839616Y-134721008D01*
X99837924Y-134718946D01*
X99836505Y-134716692D01*
X99835008Y-134715393D01*
X99830288Y-134709643D01*
X99735050Y-134614405D01*
X99723685Y-134605078D01*
X99721194Y-134604046D01*
X99719159Y-134602281D01*
X99705734Y-134596287D01*
X99562877Y-134548668D01*
X99555623Y-134547018D01*
X99553792Y-134546260D01*
X99551137Y-134545998D01*
X99548540Y-134545408D01*
X99546565Y-134545548D01*
X99539160Y-134544819D01*
X99301065Y-134544819D01*
X99286433Y-134546260D01*
X99259397Y-134557459D01*
X99238705Y-134578151D01*
X99227506Y-134605187D01*
X99226065Y-134619819D01*
X98946052Y-134619819D01*
X98946052Y-134605187D01*
X98934853Y-134578151D01*
X98914161Y-134557459D01*
X98887125Y-134546260D01*
X98872493Y-134544819D01*
X98396303Y-134544819D01*
X98381671Y-134546260D01*
X98354635Y-134557459D01*
X98333943Y-134578151D01*
X98322744Y-134605187D01*
X98321303Y-134619819D01*
X97661779Y-134619819D01*
X97660338Y-134605187D01*
X97649139Y-134578151D01*
X97628447Y-134557459D01*
X97601411Y-134546260D01*
X97572147Y-134546260D01*
X97545111Y-134557459D01*
X97524419Y-134578151D01*
X97513220Y-134605187D01*
X97511779Y-134619819D01*
X97400668Y-134619819D01*
X97400668Y-134433708D01*
X100058604Y-134433708D01*
X100058604Y-135805930D01*
G37*
X87083333Y-130609580D02*
X87035714Y-130657200D01*
X87035714Y-130657200D02*
X86892857Y-130704819D01*
X86892857Y-130704819D02*
X86797619Y-130704819D01*
X86797619Y-130704819D02*
X86654762Y-130657200D01*
X86654762Y-130657200D02*
X86559524Y-130561961D01*
X86559524Y-130561961D02*
X86511905Y-130466723D01*
X86511905Y-130466723D02*
X86464286Y-130276247D01*
X86464286Y-130276247D02*
X86464286Y-130133390D01*
X86464286Y-130133390D02*
X86511905Y-129942914D01*
X86511905Y-129942914D02*
X86559524Y-129847676D01*
X86559524Y-129847676D02*
X86654762Y-129752438D01*
X86654762Y-129752438D02*
X86797619Y-129704819D01*
X86797619Y-129704819D02*
X86892857Y-129704819D01*
X86892857Y-129704819D02*
X87035714Y-129752438D01*
X87035714Y-129752438D02*
X87083333Y-129800057D01*
X87416667Y-129704819D02*
X88035714Y-129704819D01*
X88035714Y-129704819D02*
X87702381Y-130085771D01*
X87702381Y-130085771D02*
X87845238Y-130085771D01*
X87845238Y-130085771D02*
X87940476Y-130133390D01*
X87940476Y-130133390D02*
X87988095Y-130181009D01*
X87988095Y-130181009D02*
X88035714Y-130276247D01*
X88035714Y-130276247D02*
X88035714Y-130514342D01*
X88035714Y-130514342D02*
X87988095Y-130609580D01*
X87988095Y-130609580D02*
X87940476Y-130657200D01*
X87940476Y-130657200D02*
X87845238Y-130704819D01*
X87845238Y-130704819D02*
X87559524Y-130704819D01*
X87559524Y-130704819D02*
X87464286Y-130657200D01*
X87464286Y-130657200D02*
X87416667Y-130609580D01*
X87857142Y-137859580D02*
X87809523Y-137907200D01*
X87809523Y-137907200D02*
X87666666Y-137954819D01*
X87666666Y-137954819D02*
X87571428Y-137954819D01*
X87571428Y-137954819D02*
X87428571Y-137907200D01*
X87428571Y-137907200D02*
X87333333Y-137811961D01*
X87333333Y-137811961D02*
X87285714Y-137716723D01*
X87285714Y-137716723D02*
X87238095Y-137526247D01*
X87238095Y-137526247D02*
X87238095Y-137383390D01*
X87238095Y-137383390D02*
X87285714Y-137192914D01*
X87285714Y-137192914D02*
X87333333Y-137097676D01*
X87333333Y-137097676D02*
X87428571Y-137002438D01*
X87428571Y-137002438D02*
X87571428Y-136954819D01*
X87571428Y-136954819D02*
X87666666Y-136954819D01*
X87666666Y-136954819D02*
X87809523Y-137002438D01*
X87809523Y-137002438D02*
X87857142Y-137050057D01*
X88809523Y-137954819D02*
X88238095Y-137954819D01*
X88523809Y-137954819D02*
X88523809Y-136954819D01*
X88523809Y-136954819D02*
X88428571Y-137097676D01*
X88428571Y-137097676D02*
X88333333Y-137192914D01*
X88333333Y-137192914D02*
X88238095Y-137240533D01*
X89428571Y-136954819D02*
X89523809Y-136954819D01*
X89523809Y-136954819D02*
X89619047Y-137002438D01*
X89619047Y-137002438D02*
X89666666Y-137050057D01*
X89666666Y-137050057D02*
X89714285Y-137145295D01*
X89714285Y-137145295D02*
X89761904Y-137335771D01*
X89761904Y-137335771D02*
X89761904Y-137573866D01*
X89761904Y-137573866D02*
X89714285Y-137764342D01*
X89714285Y-137764342D02*
X89666666Y-137859580D01*
X89666666Y-137859580D02*
X89619047Y-137907200D01*
X89619047Y-137907200D02*
X89523809Y-137954819D01*
X89523809Y-137954819D02*
X89428571Y-137954819D01*
X89428571Y-137954819D02*
X89333333Y-137907200D01*
X89333333Y-137907200D02*
X89285714Y-137859580D01*
X89285714Y-137859580D02*
X89238095Y-137764342D01*
X89238095Y-137764342D02*
X89190476Y-137573866D01*
X89190476Y-137573866D02*
X89190476Y-137335771D01*
X89190476Y-137335771D02*
X89238095Y-137145295D01*
X89238095Y-137145295D02*
X89285714Y-137050057D01*
X89285714Y-137050057D02*
X89333333Y-137002438D01*
X89333333Y-137002438D02*
X89428571Y-136954819D01*
X92333333Y-144609580D02*
X92285714Y-144657200D01*
X92285714Y-144657200D02*
X92142857Y-144704819D01*
X92142857Y-144704819D02*
X92047619Y-144704819D01*
X92047619Y-144704819D02*
X91904762Y-144657200D01*
X91904762Y-144657200D02*
X91809524Y-144561961D01*
X91809524Y-144561961D02*
X91761905Y-144466723D01*
X91761905Y-144466723D02*
X91714286Y-144276247D01*
X91714286Y-144276247D02*
X91714286Y-144133390D01*
X91714286Y-144133390D02*
X91761905Y-143942914D01*
X91761905Y-143942914D02*
X91809524Y-143847676D01*
X91809524Y-143847676D02*
X91904762Y-143752438D01*
X91904762Y-143752438D02*
X92047619Y-143704819D01*
X92047619Y-143704819D02*
X92142857Y-143704819D01*
X92142857Y-143704819D02*
X92285714Y-143752438D01*
X92285714Y-143752438D02*
X92333333Y-143800057D01*
X92904762Y-144133390D02*
X92809524Y-144085771D01*
X92809524Y-144085771D02*
X92761905Y-144038152D01*
X92761905Y-144038152D02*
X92714286Y-143942914D01*
X92714286Y-143942914D02*
X92714286Y-143895295D01*
X92714286Y-143895295D02*
X92761905Y-143800057D01*
X92761905Y-143800057D02*
X92809524Y-143752438D01*
X92809524Y-143752438D02*
X92904762Y-143704819D01*
X92904762Y-143704819D02*
X93095238Y-143704819D01*
X93095238Y-143704819D02*
X93190476Y-143752438D01*
X93190476Y-143752438D02*
X93238095Y-143800057D01*
X93238095Y-143800057D02*
X93285714Y-143895295D01*
X93285714Y-143895295D02*
X93285714Y-143942914D01*
X93285714Y-143942914D02*
X93238095Y-144038152D01*
X93238095Y-144038152D02*
X93190476Y-144085771D01*
X93190476Y-144085771D02*
X93095238Y-144133390D01*
X93095238Y-144133390D02*
X92904762Y-144133390D01*
X92904762Y-144133390D02*
X92809524Y-144181009D01*
X92809524Y-144181009D02*
X92761905Y-144228628D01*
X92761905Y-144228628D02*
X92714286Y-144323866D01*
X92714286Y-144323866D02*
X92714286Y-144514342D01*
X92714286Y-144514342D02*
X92761905Y-144609580D01*
X92761905Y-144609580D02*
X92809524Y-144657200D01*
X92809524Y-144657200D02*
X92904762Y-144704819D01*
X92904762Y-144704819D02*
X93095238Y-144704819D01*
X93095238Y-144704819D02*
X93190476Y-144657200D01*
X93190476Y-144657200D02*
X93238095Y-144609580D01*
X93238095Y-144609580D02*
X93285714Y-144514342D01*
X93285714Y-144514342D02*
X93285714Y-144323866D01*
X93285714Y-144323866D02*
X93238095Y-144228628D01*
X93238095Y-144228628D02*
X93190476Y-144181009D01*
X93190476Y-144181009D02*
X93095238Y-144133390D01*
X79583333Y-144609580D02*
X79535714Y-144657200D01*
X79535714Y-144657200D02*
X79392857Y-144704819D01*
X79392857Y-144704819D02*
X79297619Y-144704819D01*
X79297619Y-144704819D02*
X79154762Y-144657200D01*
X79154762Y-144657200D02*
X79059524Y-144561961D01*
X79059524Y-144561961D02*
X79011905Y-144466723D01*
X79011905Y-144466723D02*
X78964286Y-144276247D01*
X78964286Y-144276247D02*
X78964286Y-144133390D01*
X78964286Y-144133390D02*
X79011905Y-143942914D01*
X79011905Y-143942914D02*
X79059524Y-143847676D01*
X79059524Y-143847676D02*
X79154762Y-143752438D01*
X79154762Y-143752438D02*
X79297619Y-143704819D01*
X79297619Y-143704819D02*
X79392857Y-143704819D01*
X79392857Y-143704819D02*
X79535714Y-143752438D01*
X79535714Y-143752438D02*
X79583333Y-143800057D01*
X80488095Y-143704819D02*
X80011905Y-143704819D01*
X80011905Y-143704819D02*
X79964286Y-144181009D01*
X79964286Y-144181009D02*
X80011905Y-144133390D01*
X80011905Y-144133390D02*
X80107143Y-144085771D01*
X80107143Y-144085771D02*
X80345238Y-144085771D01*
X80345238Y-144085771D02*
X80440476Y-144133390D01*
X80440476Y-144133390D02*
X80488095Y-144181009D01*
X80488095Y-144181009D02*
X80535714Y-144276247D01*
X80535714Y-144276247D02*
X80535714Y-144514342D01*
X80535714Y-144514342D02*
X80488095Y-144609580D01*
X80488095Y-144609580D02*
X80440476Y-144657200D01*
X80440476Y-144657200D02*
X80345238Y-144704819D01*
X80345238Y-144704819D02*
X80107143Y-144704819D01*
X80107143Y-144704819D02*
X80011905Y-144657200D01*
X80011905Y-144657200D02*
X79964286Y-144609580D01*
X82488095Y-130954819D02*
X82488095Y-131764342D01*
X82488095Y-131764342D02*
X82535714Y-131859580D01*
X82535714Y-131859580D02*
X82583333Y-131907200D01*
X82583333Y-131907200D02*
X82678571Y-131954819D01*
X82678571Y-131954819D02*
X82869047Y-131954819D01*
X82869047Y-131954819D02*
X82964285Y-131907200D01*
X82964285Y-131907200D02*
X83011904Y-131859580D01*
X83011904Y-131859580D02*
X83059523Y-131764342D01*
X83059523Y-131764342D02*
X83059523Y-130954819D01*
X84059523Y-131954819D02*
X83488095Y-131954819D01*
X83773809Y-131954819D02*
X83773809Y-130954819D01*
X83773809Y-130954819D02*
X83678571Y-131097676D01*
X83678571Y-131097676D02*
X83583333Y-131192914D01*
X83583333Y-131192914D02*
X83488095Y-131240533D01*
X80738095Y-140454819D02*
X80738095Y-141264342D01*
X80738095Y-141264342D02*
X80785714Y-141359580D01*
X80785714Y-141359580D02*
X80833333Y-141407200D01*
X80833333Y-141407200D02*
X80928571Y-141454819D01*
X80928571Y-141454819D02*
X81119047Y-141454819D01*
X81119047Y-141454819D02*
X81214285Y-141407200D01*
X81214285Y-141407200D02*
X81261904Y-141359580D01*
X81261904Y-141359580D02*
X81309523Y-141264342D01*
X81309523Y-141264342D02*
X81309523Y-140454819D01*
X82214285Y-140788152D02*
X82214285Y-141454819D01*
X81976190Y-140407200D02*
X81738095Y-141121485D01*
X81738095Y-141121485D02*
X82357142Y-141121485D01*
X94954819Y-133642857D02*
X94478628Y-133976190D01*
X94954819Y-134214285D02*
X93954819Y-134214285D01*
X93954819Y-134214285D02*
X93954819Y-133833333D01*
X93954819Y-133833333D02*
X94002438Y-133738095D01*
X94002438Y-133738095D02*
X94050057Y-133690476D01*
X94050057Y-133690476D02*
X94145295Y-133642857D01*
X94145295Y-133642857D02*
X94288152Y-133642857D01*
X94288152Y-133642857D02*
X94383390Y-133690476D01*
X94383390Y-133690476D02*
X94431009Y-133738095D01*
X94431009Y-133738095D02*
X94478628Y-133833333D01*
X94478628Y-133833333D02*
X94478628Y-134214285D01*
X94954819Y-132690476D02*
X94954819Y-133261904D01*
X94954819Y-132976190D02*
X93954819Y-132976190D01*
X93954819Y-132976190D02*
X94097676Y-133071428D01*
X94097676Y-133071428D02*
X94192914Y-133166666D01*
X94192914Y-133166666D02*
X94240533Y-133261904D01*
X94050057Y-132309523D02*
X94002438Y-132261904D01*
X94002438Y-132261904D02*
X93954819Y-132166666D01*
X93954819Y-132166666D02*
X93954819Y-131928571D01*
X93954819Y-131928571D02*
X94002438Y-131833333D01*
X94002438Y-131833333D02*
X94050057Y-131785714D01*
X94050057Y-131785714D02*
X94145295Y-131738095D01*
X94145295Y-131738095D02*
X94240533Y-131738095D01*
X94240533Y-131738095D02*
X94383390Y-131785714D01*
X94383390Y-131785714D02*
X94954819Y-132357142D01*
X94954819Y-132357142D02*
X94954819Y-131738095D01*
X93857142Y-137109580D02*
X93809523Y-137157200D01*
X93809523Y-137157200D02*
X93666666Y-137204819D01*
X93666666Y-137204819D02*
X93571428Y-137204819D01*
X93571428Y-137204819D02*
X93428571Y-137157200D01*
X93428571Y-137157200D02*
X93333333Y-137061961D01*
X93333333Y-137061961D02*
X93285714Y-136966723D01*
X93285714Y-136966723D02*
X93238095Y-136776247D01*
X93238095Y-136776247D02*
X93238095Y-136633390D01*
X93238095Y-136633390D02*
X93285714Y-136442914D01*
X93285714Y-136442914D02*
X93333333Y-136347676D01*
X93333333Y-136347676D02*
X93428571Y-136252438D01*
X93428571Y-136252438D02*
X93571428Y-136204819D01*
X93571428Y-136204819D02*
X93666666Y-136204819D01*
X93666666Y-136204819D02*
X93809523Y-136252438D01*
X93809523Y-136252438D02*
X93857142Y-136300057D01*
X94809523Y-137204819D02*
X94238095Y-137204819D01*
X94523809Y-137204819D02*
X94523809Y-136204819D01*
X94523809Y-136204819D02*
X94428571Y-136347676D01*
X94428571Y-136347676D02*
X94333333Y-136442914D01*
X94333333Y-136442914D02*
X94238095Y-136490533D01*
X95142857Y-136204819D02*
X95761904Y-136204819D01*
X95761904Y-136204819D02*
X95428571Y-136585771D01*
X95428571Y-136585771D02*
X95571428Y-136585771D01*
X95571428Y-136585771D02*
X95666666Y-136633390D01*
X95666666Y-136633390D02*
X95714285Y-136681009D01*
X95714285Y-136681009D02*
X95761904Y-136776247D01*
X95761904Y-136776247D02*
X95761904Y-137014342D01*
X95761904Y-137014342D02*
X95714285Y-137109580D01*
X95714285Y-137109580D02*
X95666666Y-137157200D01*
X95666666Y-137157200D02*
X95571428Y-137204819D01*
X95571428Y-137204819D02*
X95285714Y-137204819D01*
X95285714Y-137204819D02*
X95190476Y-137157200D01*
X95190476Y-137157200D02*
X95142857Y-137109580D01*
X73454819Y-137083333D02*
X74169104Y-137083333D01*
X74169104Y-137083333D02*
X74311961Y-137130952D01*
X74311961Y-137130952D02*
X74407200Y-137226190D01*
X74407200Y-137226190D02*
X74454819Y-137369047D01*
X74454819Y-137369047D02*
X74454819Y-137464285D01*
X73454819Y-136702380D02*
X73454819Y-136083333D01*
X73454819Y-136083333D02*
X73835771Y-136416666D01*
X73835771Y-136416666D02*
X73835771Y-136273809D01*
X73835771Y-136273809D02*
X73883390Y-136178571D01*
X73883390Y-136178571D02*
X73931009Y-136130952D01*
X73931009Y-136130952D02*
X74026247Y-136083333D01*
X74026247Y-136083333D02*
X74264342Y-136083333D01*
X74264342Y-136083333D02*
X74359580Y-136130952D01*
X74359580Y-136130952D02*
X74407200Y-136178571D01*
X74407200Y-136178571D02*
X74454819Y-136273809D01*
X74454819Y-136273809D02*
X74454819Y-136559523D01*
X74454819Y-136559523D02*
X74407200Y-136654761D01*
X74407200Y-136654761D02*
X74359580Y-136702380D01*
X98454819Y-131833333D02*
X99169104Y-131833333D01*
X99169104Y-131833333D02*
X99311961Y-131880952D01*
X99311961Y-131880952D02*
X99407200Y-131976190D01*
X99407200Y-131976190D02*
X99454819Y-132119047D01*
X99454819Y-132119047D02*
X99454819Y-132214285D01*
X98454819Y-130928571D02*
X98454819Y-131119047D01*
X98454819Y-131119047D02*
X98502438Y-131214285D01*
X98502438Y-131214285D02*
X98550057Y-131261904D01*
X98550057Y-131261904D02*
X98692914Y-131357142D01*
X98692914Y-131357142D02*
X98883390Y-131404761D01*
X98883390Y-131404761D02*
X99264342Y-131404761D01*
X99264342Y-131404761D02*
X99359580Y-131357142D01*
X99359580Y-131357142D02*
X99407200Y-131309523D01*
X99407200Y-131309523D02*
X99454819Y-131214285D01*
X99454819Y-131214285D02*
X99454819Y-131023809D01*
X99454819Y-131023809D02*
X99407200Y-130928571D01*
X99407200Y-130928571D02*
X99359580Y-130880952D01*
X99359580Y-130880952D02*
X99264342Y-130833333D01*
X99264342Y-130833333D02*
X99026247Y-130833333D01*
X99026247Y-130833333D02*
X98931009Y-130880952D01*
X98931009Y-130880952D02*
X98883390Y-130928571D01*
X98883390Y-130928571D02*
X98835771Y-131023809D01*
X98835771Y-131023809D02*
X98835771Y-131214285D01*
X98835771Y-131214285D02*
X98883390Y-131309523D01*
X98883390Y-131309523D02*
X98931009Y-131357142D01*
X98931009Y-131357142D02*
X99026247Y-131404761D01*
X94357142Y-144704819D02*
X94023809Y-144228628D01*
X93785714Y-144704819D02*
X93785714Y-143704819D01*
X93785714Y-143704819D02*
X94166666Y-143704819D01*
X94166666Y-143704819D02*
X94261904Y-143752438D01*
X94261904Y-143752438D02*
X94309523Y-143800057D01*
X94309523Y-143800057D02*
X94357142Y-143895295D01*
X94357142Y-143895295D02*
X94357142Y-144038152D01*
X94357142Y-144038152D02*
X94309523Y-144133390D01*
X94309523Y-144133390D02*
X94261904Y-144181009D01*
X94261904Y-144181009D02*
X94166666Y-144228628D01*
X94166666Y-144228628D02*
X93785714Y-144228628D01*
X95309523Y-144704819D02*
X94738095Y-144704819D01*
X95023809Y-144704819D02*
X95023809Y-143704819D01*
X95023809Y-143704819D02*
X94928571Y-143847676D01*
X94928571Y-143847676D02*
X94833333Y-143942914D01*
X94833333Y-143942914D02*
X94738095Y-143990533D01*
X95642857Y-143704819D02*
X96309523Y-143704819D01*
X96309523Y-143704819D02*
X95880952Y-144704819D01*
X93857142Y-142704819D02*
X93523809Y-142228628D01*
X93285714Y-142704819D02*
X93285714Y-141704819D01*
X93285714Y-141704819D02*
X93666666Y-141704819D01*
X93666666Y-141704819D02*
X93761904Y-141752438D01*
X93761904Y-141752438D02*
X93809523Y-141800057D01*
X93809523Y-141800057D02*
X93857142Y-141895295D01*
X93857142Y-141895295D02*
X93857142Y-142038152D01*
X93857142Y-142038152D02*
X93809523Y-142133390D01*
X93809523Y-142133390D02*
X93761904Y-142181009D01*
X93761904Y-142181009D02*
X93666666Y-142228628D01*
X93666666Y-142228628D02*
X93285714Y-142228628D01*
X94238095Y-141800057D02*
X94285714Y-141752438D01*
X94285714Y-141752438D02*
X94380952Y-141704819D01*
X94380952Y-141704819D02*
X94619047Y-141704819D01*
X94619047Y-141704819D02*
X94714285Y-141752438D01*
X94714285Y-141752438D02*
X94761904Y-141800057D01*
X94761904Y-141800057D02*
X94809523Y-141895295D01*
X94809523Y-141895295D02*
X94809523Y-141990533D01*
X94809523Y-141990533D02*
X94761904Y-142133390D01*
X94761904Y-142133390D02*
X94190476Y-142704819D01*
X94190476Y-142704819D02*
X94809523Y-142704819D01*
X95428571Y-141704819D02*
X95523809Y-141704819D01*
X95523809Y-141704819D02*
X95619047Y-141752438D01*
X95619047Y-141752438D02*
X95666666Y-141800057D01*
X95666666Y-141800057D02*
X95714285Y-141895295D01*
X95714285Y-141895295D02*
X95761904Y-142085771D01*
X95761904Y-142085771D02*
X95761904Y-142323866D01*
X95761904Y-142323866D02*
X95714285Y-142514342D01*
X95714285Y-142514342D02*
X95666666Y-142609580D01*
X95666666Y-142609580D02*
X95619047Y-142657200D01*
X95619047Y-142657200D02*
X95523809Y-142704819D01*
X95523809Y-142704819D02*
X95428571Y-142704819D01*
X95428571Y-142704819D02*
X95333333Y-142657200D01*
X95333333Y-142657200D02*
X95285714Y-142609580D01*
X95285714Y-142609580D02*
X95238095Y-142514342D01*
X95238095Y-142514342D02*
X95190476Y-142323866D01*
X95190476Y-142323866D02*
X95190476Y-142085771D01*
X95190476Y-142085771D02*
X95238095Y-141895295D01*
X95238095Y-141895295D02*
X95285714Y-141800057D01*
X95285714Y-141800057D02*
X95333333Y-141752438D01*
X95333333Y-141752438D02*
X95428571Y-141704819D01*
X98204819Y-140474035D02*
X98919104Y-140474035D01*
X98919104Y-140474035D02*
X99061961Y-140521654D01*
X99061961Y-140521654D02*
X99157200Y-140616892D01*
X99157200Y-140616892D02*
X99204819Y-140759749D01*
X99204819Y-140759749D02*
X99204819Y-140854987D01*
X99204819Y-139474035D02*
X99204819Y-140045463D01*
X99204819Y-139759749D02*
X98204819Y-139759749D01*
X98204819Y-139759749D02*
X98347676Y-139854987D01*
X98347676Y-139854987D02*
X98442914Y-139950225D01*
X98442914Y-139950225D02*
X98490533Y-140045463D01*
X91859580Y-139666666D02*
X91907200Y-139714285D01*
X91907200Y-139714285D02*
X91954819Y-139857142D01*
X91954819Y-139857142D02*
X91954819Y-139952380D01*
X91954819Y-139952380D02*
X91907200Y-140095237D01*
X91907200Y-140095237D02*
X91811961Y-140190475D01*
X91811961Y-140190475D02*
X91716723Y-140238094D01*
X91716723Y-140238094D02*
X91526247Y-140285713D01*
X91526247Y-140285713D02*
X91383390Y-140285713D01*
X91383390Y-140285713D02*
X91192914Y-140238094D01*
X91192914Y-140238094D02*
X91097676Y-140190475D01*
X91097676Y-140190475D02*
X91002438Y-140095237D01*
X91002438Y-140095237D02*
X90954819Y-139952380D01*
X90954819Y-139952380D02*
X90954819Y-139857142D01*
X90954819Y-139857142D02*
X91002438Y-139714285D01*
X91002438Y-139714285D02*
X91050057Y-139666666D01*
X91954819Y-139190475D02*
X91954819Y-138999999D01*
X91954819Y-138999999D02*
X91907200Y-138904761D01*
X91907200Y-138904761D02*
X91859580Y-138857142D01*
X91859580Y-138857142D02*
X91716723Y-138761904D01*
X91716723Y-138761904D02*
X91526247Y-138714285D01*
X91526247Y-138714285D02*
X91145295Y-138714285D01*
X91145295Y-138714285D02*
X91050057Y-138761904D01*
X91050057Y-138761904D02*
X91002438Y-138809523D01*
X91002438Y-138809523D02*
X90954819Y-138904761D01*
X90954819Y-138904761D02*
X90954819Y-139095237D01*
X90954819Y-139095237D02*
X91002438Y-139190475D01*
X91002438Y-139190475D02*
X91050057Y-139238094D01*
X91050057Y-139238094D02*
X91145295Y-139285713D01*
X91145295Y-139285713D02*
X91383390Y-139285713D01*
X91383390Y-139285713D02*
X91478628Y-139238094D01*
X91478628Y-139238094D02*
X91526247Y-139190475D01*
X91526247Y-139190475D02*
X91573866Y-139095237D01*
X91573866Y-139095237D02*
X91573866Y-138904761D01*
X91573866Y-138904761D02*
X91526247Y-138809523D01*
X91526247Y-138809523D02*
X91478628Y-138761904D01*
X91478628Y-138761904D02*
X91383390Y-138714285D01*
X92404761Y-134050057D02*
X92309523Y-134002438D01*
X92309523Y-134002438D02*
X92214285Y-133907200D01*
X92214285Y-133907200D02*
X92071428Y-133764342D01*
X92071428Y-133764342D02*
X91976190Y-133716723D01*
X91976190Y-133716723D02*
X91880952Y-133716723D01*
X91928571Y-133954819D02*
X91833333Y-133907200D01*
X91833333Y-133907200D02*
X91738095Y-133811961D01*
X91738095Y-133811961D02*
X91690476Y-133621485D01*
X91690476Y-133621485D02*
X91690476Y-133288152D01*
X91690476Y-133288152D02*
X91738095Y-133097676D01*
X91738095Y-133097676D02*
X91833333Y-133002438D01*
X91833333Y-133002438D02*
X91928571Y-132954819D01*
X91928571Y-132954819D02*
X92119047Y-132954819D01*
X92119047Y-132954819D02*
X92214285Y-133002438D01*
X92214285Y-133002438D02*
X92309523Y-133097676D01*
X92309523Y-133097676D02*
X92357142Y-133288152D01*
X92357142Y-133288152D02*
X92357142Y-133621485D01*
X92357142Y-133621485D02*
X92309523Y-133811961D01*
X92309523Y-133811961D02*
X92214285Y-133907200D01*
X92214285Y-133907200D02*
X92119047Y-133954819D01*
X92119047Y-133954819D02*
X91928571Y-133954819D01*
X92690476Y-132954819D02*
X93309523Y-132954819D01*
X93309523Y-132954819D02*
X92976190Y-133335771D01*
X92976190Y-133335771D02*
X93119047Y-133335771D01*
X93119047Y-133335771D02*
X93214285Y-133383390D01*
X93214285Y-133383390D02*
X93261904Y-133431009D01*
X93261904Y-133431009D02*
X93309523Y-133526247D01*
X93309523Y-133526247D02*
X93309523Y-133764342D01*
X93309523Y-133764342D02*
X93261904Y-133859580D01*
X93261904Y-133859580D02*
X93214285Y-133907200D01*
X93214285Y-133907200D02*
X93119047Y-133954819D01*
X93119047Y-133954819D02*
X92833333Y-133954819D01*
X92833333Y-133954819D02*
X92738095Y-133907200D01*
X92738095Y-133907200D02*
X92690476Y-133859580D01*
X78833333Y-137359580D02*
X78785714Y-137407200D01*
X78785714Y-137407200D02*
X78642857Y-137454819D01*
X78642857Y-137454819D02*
X78547619Y-137454819D01*
X78547619Y-137454819D02*
X78404762Y-137407200D01*
X78404762Y-137407200D02*
X78309524Y-137311961D01*
X78309524Y-137311961D02*
X78261905Y-137216723D01*
X78261905Y-137216723D02*
X78214286Y-137026247D01*
X78214286Y-137026247D02*
X78214286Y-136883390D01*
X78214286Y-136883390D02*
X78261905Y-136692914D01*
X78261905Y-136692914D02*
X78309524Y-136597676D01*
X78309524Y-136597676D02*
X78404762Y-136502438D01*
X78404762Y-136502438D02*
X78547619Y-136454819D01*
X78547619Y-136454819D02*
X78642857Y-136454819D01*
X78642857Y-136454819D02*
X78785714Y-136502438D01*
X78785714Y-136502438D02*
X78833333Y-136550057D01*
X79785714Y-137454819D02*
X79214286Y-137454819D01*
X79500000Y-137454819D02*
X79500000Y-136454819D01*
X79500000Y-136454819D02*
X79404762Y-136597676D01*
X79404762Y-136597676D02*
X79309524Y-136692914D01*
X79309524Y-136692914D02*
X79214286Y-136740533D01*
X95109580Y-140642857D02*
X95157200Y-140690476D01*
X95157200Y-140690476D02*
X95204819Y-140833333D01*
X95204819Y-140833333D02*
X95204819Y-140928571D01*
X95204819Y-140928571D02*
X95157200Y-141071428D01*
X95157200Y-141071428D02*
X95061961Y-141166666D01*
X95061961Y-141166666D02*
X94966723Y-141214285D01*
X94966723Y-141214285D02*
X94776247Y-141261904D01*
X94776247Y-141261904D02*
X94633390Y-141261904D01*
X94633390Y-141261904D02*
X94442914Y-141214285D01*
X94442914Y-141214285D02*
X94347676Y-141166666D01*
X94347676Y-141166666D02*
X94252438Y-141071428D01*
X94252438Y-141071428D02*
X94204819Y-140928571D01*
X94204819Y-140928571D02*
X94204819Y-140833333D01*
X94204819Y-140833333D02*
X94252438Y-140690476D01*
X94252438Y-140690476D02*
X94300057Y-140642857D01*
X95204819Y-139690476D02*
X95204819Y-140261904D01*
X95204819Y-139976190D02*
X94204819Y-139976190D01*
X94204819Y-139976190D02*
X94347676Y-140071428D01*
X94347676Y-140071428D02*
X94442914Y-140166666D01*
X94442914Y-140166666D02*
X94490533Y-140261904D01*
X94300057Y-139309523D02*
X94252438Y-139261904D01*
X94252438Y-139261904D02*
X94204819Y-139166666D01*
X94204819Y-139166666D02*
X94204819Y-138928571D01*
X94204819Y-138928571D02*
X94252438Y-138833333D01*
X94252438Y-138833333D02*
X94300057Y-138785714D01*
X94300057Y-138785714D02*
X94395295Y-138738095D01*
X94395295Y-138738095D02*
X94490533Y-138738095D01*
X94490533Y-138738095D02*
X94633390Y-138785714D01*
X94633390Y-138785714D02*
X95204819Y-139357142D01*
X95204819Y-139357142D02*
X95204819Y-138738095D01*
X94107142Y-138359580D02*
X94059523Y-138407200D01*
X94059523Y-138407200D02*
X93916666Y-138454819D01*
X93916666Y-138454819D02*
X93821428Y-138454819D01*
X93821428Y-138454819D02*
X93678571Y-138407200D01*
X93678571Y-138407200D02*
X93583333Y-138311961D01*
X93583333Y-138311961D02*
X93535714Y-138216723D01*
X93535714Y-138216723D02*
X93488095Y-138026247D01*
X93488095Y-138026247D02*
X93488095Y-137883390D01*
X93488095Y-137883390D02*
X93535714Y-137692914D01*
X93535714Y-137692914D02*
X93583333Y-137597676D01*
X93583333Y-137597676D02*
X93678571Y-137502438D01*
X93678571Y-137502438D02*
X93821428Y-137454819D01*
X93821428Y-137454819D02*
X93916666Y-137454819D01*
X93916666Y-137454819D02*
X94059523Y-137502438D01*
X94059523Y-137502438D02*
X94107142Y-137550057D01*
X95059523Y-138454819D02*
X94488095Y-138454819D01*
X94773809Y-138454819D02*
X94773809Y-137454819D01*
X94773809Y-137454819D02*
X94678571Y-137597676D01*
X94678571Y-137597676D02*
X94583333Y-137692914D01*
X94583333Y-137692914D02*
X94488095Y-137740533D01*
X96011904Y-138454819D02*
X95440476Y-138454819D01*
X95726190Y-138454819D02*
X95726190Y-137454819D01*
X95726190Y-137454819D02*
X95630952Y-137597676D01*
X95630952Y-137597676D02*
X95535714Y-137692914D01*
X95535714Y-137692914D02*
X95440476Y-137740533D01*
X89954819Y-129892857D02*
X89478628Y-130226190D01*
X89954819Y-130464285D02*
X88954819Y-130464285D01*
X88954819Y-130464285D02*
X88954819Y-130083333D01*
X88954819Y-130083333D02*
X89002438Y-129988095D01*
X89002438Y-129988095D02*
X89050057Y-129940476D01*
X89050057Y-129940476D02*
X89145295Y-129892857D01*
X89145295Y-129892857D02*
X89288152Y-129892857D01*
X89288152Y-129892857D02*
X89383390Y-129940476D01*
X89383390Y-129940476D02*
X89431009Y-129988095D01*
X89431009Y-129988095D02*
X89478628Y-130083333D01*
X89478628Y-130083333D02*
X89478628Y-130464285D01*
X89954819Y-128940476D02*
X89954819Y-129511904D01*
X89954819Y-129226190D02*
X88954819Y-129226190D01*
X88954819Y-129226190D02*
X89097676Y-129321428D01*
X89097676Y-129321428D02*
X89192914Y-129416666D01*
X89192914Y-129416666D02*
X89240533Y-129511904D01*
X89954819Y-127988095D02*
X89954819Y-128559523D01*
X89954819Y-128273809D02*
X88954819Y-128273809D01*
X88954819Y-128273809D02*
X89097676Y-128369047D01*
X89097676Y-128369047D02*
X89192914Y-128464285D01*
X89192914Y-128464285D02*
X89240533Y-128559523D01*
X81357142Y-127609580D02*
X81309523Y-127657200D01*
X81309523Y-127657200D02*
X81166666Y-127704819D01*
X81166666Y-127704819D02*
X81071428Y-127704819D01*
X81071428Y-127704819D02*
X80928571Y-127657200D01*
X80928571Y-127657200D02*
X80833333Y-127561961D01*
X80833333Y-127561961D02*
X80785714Y-127466723D01*
X80785714Y-127466723D02*
X80738095Y-127276247D01*
X80738095Y-127276247D02*
X80738095Y-127133390D01*
X80738095Y-127133390D02*
X80785714Y-126942914D01*
X80785714Y-126942914D02*
X80833333Y-126847676D01*
X80833333Y-126847676D02*
X80928571Y-126752438D01*
X80928571Y-126752438D02*
X81071428Y-126704819D01*
X81071428Y-126704819D02*
X81166666Y-126704819D01*
X81166666Y-126704819D02*
X81309523Y-126752438D01*
X81309523Y-126752438D02*
X81357142Y-126800057D01*
X82309523Y-127704819D02*
X81738095Y-127704819D01*
X82023809Y-127704819D02*
X82023809Y-126704819D01*
X82023809Y-126704819D02*
X81928571Y-126847676D01*
X81928571Y-126847676D02*
X81833333Y-126942914D01*
X81833333Y-126942914D02*
X81738095Y-126990533D01*
X82880952Y-127133390D02*
X82785714Y-127085771D01*
X82785714Y-127085771D02*
X82738095Y-127038152D01*
X82738095Y-127038152D02*
X82690476Y-126942914D01*
X82690476Y-126942914D02*
X82690476Y-126895295D01*
X82690476Y-126895295D02*
X82738095Y-126800057D01*
X82738095Y-126800057D02*
X82785714Y-126752438D01*
X82785714Y-126752438D02*
X82880952Y-126704819D01*
X82880952Y-126704819D02*
X83071428Y-126704819D01*
X83071428Y-126704819D02*
X83166666Y-126752438D01*
X83166666Y-126752438D02*
X83214285Y-126800057D01*
X83214285Y-126800057D02*
X83261904Y-126895295D01*
X83261904Y-126895295D02*
X83261904Y-126942914D01*
X83261904Y-126942914D02*
X83214285Y-127038152D01*
X83214285Y-127038152D02*
X83166666Y-127085771D01*
X83166666Y-127085771D02*
X83071428Y-127133390D01*
X83071428Y-127133390D02*
X82880952Y-127133390D01*
X82880952Y-127133390D02*
X82785714Y-127181009D01*
X82785714Y-127181009D02*
X82738095Y-127228628D01*
X82738095Y-127228628D02*
X82690476Y-127323866D01*
X82690476Y-127323866D02*
X82690476Y-127514342D01*
X82690476Y-127514342D02*
X82738095Y-127609580D01*
X82738095Y-127609580D02*
X82785714Y-127657200D01*
X82785714Y-127657200D02*
X82880952Y-127704819D01*
X82880952Y-127704819D02*
X83071428Y-127704819D01*
X83071428Y-127704819D02*
X83166666Y-127657200D01*
X83166666Y-127657200D02*
X83214285Y-127609580D01*
X83214285Y-127609580D02*
X83261904Y-127514342D01*
X83261904Y-127514342D02*
X83261904Y-127323866D01*
X83261904Y-127323866D02*
X83214285Y-127228628D01*
X83214285Y-127228628D02*
X83166666Y-127181009D01*
X83166666Y-127181009D02*
X83071428Y-127133390D01*
X88768137Y-135704819D02*
X88434804Y-135228628D01*
X88196709Y-135704819D02*
X88196709Y-134704819D01*
X88196709Y-134704819D02*
X88577661Y-134704819D01*
X88577661Y-134704819D02*
X88672899Y-134752438D01*
X88672899Y-134752438D02*
X88720518Y-134800057D01*
X88720518Y-134800057D02*
X88768137Y-134895295D01*
X88768137Y-134895295D02*
X88768137Y-135038152D01*
X88768137Y-135038152D02*
X88720518Y-135133390D01*
X88720518Y-135133390D02*
X88672899Y-135181009D01*
X88672899Y-135181009D02*
X88577661Y-135228628D01*
X88577661Y-135228628D02*
X88196709Y-135228628D01*
X89720518Y-135704819D02*
X89149090Y-135704819D01*
X89434804Y-135704819D02*
X89434804Y-134704819D01*
X89434804Y-134704819D02*
X89339566Y-134847676D01*
X89339566Y-134847676D02*
X89244328Y-134942914D01*
X89244328Y-134942914D02*
X89149090Y-134990533D01*
X90339566Y-134704819D02*
X90434804Y-134704819D01*
X90434804Y-134704819D02*
X90530042Y-134752438D01*
X90530042Y-134752438D02*
X90577661Y-134800057D01*
X90577661Y-134800057D02*
X90625280Y-134895295D01*
X90625280Y-134895295D02*
X90672899Y-135085771D01*
X90672899Y-135085771D02*
X90672899Y-135323866D01*
X90672899Y-135323866D02*
X90625280Y-135514342D01*
X90625280Y-135514342D02*
X90577661Y-135609580D01*
X90577661Y-135609580D02*
X90530042Y-135657200D01*
X90530042Y-135657200D02*
X90434804Y-135704819D01*
X90434804Y-135704819D02*
X90339566Y-135704819D01*
X90339566Y-135704819D02*
X90244328Y-135657200D01*
X90244328Y-135657200D02*
X90196709Y-135609580D01*
X90196709Y-135609580D02*
X90149090Y-135514342D01*
X90149090Y-135514342D02*
X90101471Y-135323866D01*
X90101471Y-135323866D02*
X90101471Y-135085771D01*
X90101471Y-135085771D02*
X90149090Y-134895295D01*
X90149090Y-134895295D02*
X90196709Y-134800057D01*
X90196709Y-134800057D02*
X90244328Y-134752438D01*
X90244328Y-134752438D02*
X90339566Y-134704819D01*
X85583333Y-134359580D02*
X85535714Y-134407200D01*
X85535714Y-134407200D02*
X85392857Y-134454819D01*
X85392857Y-134454819D02*
X85297619Y-134454819D01*
X85297619Y-134454819D02*
X85154762Y-134407200D01*
X85154762Y-134407200D02*
X85059524Y-134311961D01*
X85059524Y-134311961D02*
X85011905Y-134216723D01*
X85011905Y-134216723D02*
X84964286Y-134026247D01*
X84964286Y-134026247D02*
X84964286Y-133883390D01*
X84964286Y-133883390D02*
X85011905Y-133692914D01*
X85011905Y-133692914D02*
X85059524Y-133597676D01*
X85059524Y-133597676D02*
X85154762Y-133502438D01*
X85154762Y-133502438D02*
X85297619Y-133454819D01*
X85297619Y-133454819D02*
X85392857Y-133454819D01*
X85392857Y-133454819D02*
X85535714Y-133502438D01*
X85535714Y-133502438D02*
X85583333Y-133550057D01*
X86440476Y-133788152D02*
X86440476Y-134454819D01*
X86202381Y-133407200D02*
X85964286Y-134121485D01*
X85964286Y-134121485D02*
X86583333Y-134121485D01*
X89404761Y-132550057D02*
X89309523Y-132502438D01*
X89309523Y-132502438D02*
X89214285Y-132407200D01*
X89214285Y-132407200D02*
X89071428Y-132264342D01*
X89071428Y-132264342D02*
X88976190Y-132216723D01*
X88976190Y-132216723D02*
X88880952Y-132216723D01*
X88928571Y-132454819D02*
X88833333Y-132407200D01*
X88833333Y-132407200D02*
X88738095Y-132311961D01*
X88738095Y-132311961D02*
X88690476Y-132121485D01*
X88690476Y-132121485D02*
X88690476Y-131788152D01*
X88690476Y-131788152D02*
X88738095Y-131597676D01*
X88738095Y-131597676D02*
X88833333Y-131502438D01*
X88833333Y-131502438D02*
X88928571Y-131454819D01*
X88928571Y-131454819D02*
X89119047Y-131454819D01*
X89119047Y-131454819D02*
X89214285Y-131502438D01*
X89214285Y-131502438D02*
X89309523Y-131597676D01*
X89309523Y-131597676D02*
X89357142Y-131788152D01*
X89357142Y-131788152D02*
X89357142Y-132121485D01*
X89357142Y-132121485D02*
X89309523Y-132311961D01*
X89309523Y-132311961D02*
X89214285Y-132407200D01*
X89214285Y-132407200D02*
X89119047Y-132454819D01*
X89119047Y-132454819D02*
X88928571Y-132454819D01*
X90309523Y-132454819D02*
X89738095Y-132454819D01*
X90023809Y-132454819D02*
X90023809Y-131454819D01*
X90023809Y-131454819D02*
X89928571Y-131597676D01*
X89928571Y-131597676D02*
X89833333Y-131692914D01*
X89833333Y-131692914D02*
X89738095Y-131740533D01*
X88083333Y-140609580D02*
X88035714Y-140657200D01*
X88035714Y-140657200D02*
X87892857Y-140704819D01*
X87892857Y-140704819D02*
X87797619Y-140704819D01*
X87797619Y-140704819D02*
X87654762Y-140657200D01*
X87654762Y-140657200D02*
X87559524Y-140561961D01*
X87559524Y-140561961D02*
X87511905Y-140466723D01*
X87511905Y-140466723D02*
X87464286Y-140276247D01*
X87464286Y-140276247D02*
X87464286Y-140133390D01*
X87464286Y-140133390D02*
X87511905Y-139942914D01*
X87511905Y-139942914D02*
X87559524Y-139847676D01*
X87559524Y-139847676D02*
X87654762Y-139752438D01*
X87654762Y-139752438D02*
X87797619Y-139704819D01*
X87797619Y-139704819D02*
X87892857Y-139704819D01*
X87892857Y-139704819D02*
X88035714Y-139752438D01*
X88035714Y-139752438D02*
X88083333Y-139800057D01*
X88416667Y-139704819D02*
X89083333Y-139704819D01*
X89083333Y-139704819D02*
X88654762Y-140704819D01*
X93221052Y-129845238D02*
X93173433Y-129940476D01*
X93173433Y-129940476D02*
X93078195Y-130035714D01*
X93078195Y-130035714D02*
X92935337Y-130178571D01*
X92935337Y-130178571D02*
X92887718Y-130273809D01*
X92887718Y-130273809D02*
X92887718Y-130369047D01*
X93125814Y-130321428D02*
X93078195Y-130416666D01*
X93078195Y-130416666D02*
X92982956Y-130511904D01*
X92982956Y-130511904D02*
X92792480Y-130559523D01*
X92792480Y-130559523D02*
X92459147Y-130559523D01*
X92459147Y-130559523D02*
X92268671Y-130511904D01*
X92268671Y-130511904D02*
X92173433Y-130416666D01*
X92173433Y-130416666D02*
X92125814Y-130321428D01*
X92125814Y-130321428D02*
X92125814Y-130130952D01*
X92125814Y-130130952D02*
X92173433Y-130035714D01*
X92173433Y-130035714D02*
X92268671Y-129940476D01*
X92268671Y-129940476D02*
X92459147Y-129892857D01*
X92459147Y-129892857D02*
X92792480Y-129892857D01*
X92792480Y-129892857D02*
X92982956Y-129940476D01*
X92982956Y-129940476D02*
X93078195Y-130035714D01*
X93078195Y-130035714D02*
X93125814Y-130130952D01*
X93125814Y-130130952D02*
X93125814Y-130321428D01*
X92221052Y-129511904D02*
X92173433Y-129464285D01*
X92173433Y-129464285D02*
X92125814Y-129369047D01*
X92125814Y-129369047D02*
X92125814Y-129130952D01*
X92125814Y-129130952D02*
X92173433Y-129035714D01*
X92173433Y-129035714D02*
X92221052Y-128988095D01*
X92221052Y-128988095D02*
X92316290Y-128940476D01*
X92316290Y-128940476D02*
X92411528Y-128940476D01*
X92411528Y-128940476D02*
X92554385Y-128988095D01*
X92554385Y-128988095D02*
X93125814Y-129559523D01*
X93125814Y-129559523D02*
X93125814Y-128940476D01*
X88704819Y-142892857D02*
X88228628Y-143226190D01*
X88704819Y-143464285D02*
X87704819Y-143464285D01*
X87704819Y-143464285D02*
X87704819Y-143083333D01*
X87704819Y-143083333D02*
X87752438Y-142988095D01*
X87752438Y-142988095D02*
X87800057Y-142940476D01*
X87800057Y-142940476D02*
X87895295Y-142892857D01*
X87895295Y-142892857D02*
X88038152Y-142892857D01*
X88038152Y-142892857D02*
X88133390Y-142940476D01*
X88133390Y-142940476D02*
X88181009Y-142988095D01*
X88181009Y-142988095D02*
X88228628Y-143083333D01*
X88228628Y-143083333D02*
X88228628Y-143464285D01*
X87800057Y-142511904D02*
X87752438Y-142464285D01*
X87752438Y-142464285D02*
X87704819Y-142369047D01*
X87704819Y-142369047D02*
X87704819Y-142130952D01*
X87704819Y-142130952D02*
X87752438Y-142035714D01*
X87752438Y-142035714D02*
X87800057Y-141988095D01*
X87800057Y-141988095D02*
X87895295Y-141940476D01*
X87895295Y-141940476D02*
X87990533Y-141940476D01*
X87990533Y-141940476D02*
X88133390Y-141988095D01*
X88133390Y-141988095D02*
X88704819Y-142559523D01*
X88704819Y-142559523D02*
X88704819Y-141940476D01*
X88704819Y-140988095D02*
X88704819Y-141559523D01*
X88704819Y-141273809D02*
X87704819Y-141273809D01*
X87704819Y-141273809D02*
X87847676Y-141369047D01*
X87847676Y-141369047D02*
X87942914Y-141464285D01*
X87942914Y-141464285D02*
X87990533Y-141559523D01*
X82488095Y-135454819D02*
X82488095Y-136264342D01*
X82488095Y-136264342D02*
X82535714Y-136359580D01*
X82535714Y-136359580D02*
X82583333Y-136407200D01*
X82583333Y-136407200D02*
X82678571Y-136454819D01*
X82678571Y-136454819D02*
X82869047Y-136454819D01*
X82869047Y-136454819D02*
X82964285Y-136407200D01*
X82964285Y-136407200D02*
X83011904Y-136359580D01*
X83011904Y-136359580D02*
X83059523Y-136264342D01*
X83059523Y-136264342D02*
X83059523Y-135454819D01*
X83488095Y-135550057D02*
X83535714Y-135502438D01*
X83535714Y-135502438D02*
X83630952Y-135454819D01*
X83630952Y-135454819D02*
X83869047Y-135454819D01*
X83869047Y-135454819D02*
X83964285Y-135502438D01*
X83964285Y-135502438D02*
X84011904Y-135550057D01*
X84011904Y-135550057D02*
X84059523Y-135645295D01*
X84059523Y-135645295D02*
X84059523Y-135740533D01*
X84059523Y-135740533D02*
X84011904Y-135883390D01*
X84011904Y-135883390D02*
X83440476Y-136454819D01*
X83440476Y-136454819D02*
X84059523Y-136454819D01*
X83954819Y-141563333D02*
X84669104Y-141563333D01*
X84669104Y-141563333D02*
X84811961Y-141610952D01*
X84811961Y-141610952D02*
X84907200Y-141706190D01*
X84907200Y-141706190D02*
X84954819Y-141849047D01*
X84954819Y-141849047D02*
X84954819Y-141944285D01*
X83954819Y-140610952D02*
X83954819Y-141087142D01*
X83954819Y-141087142D02*
X84431009Y-141134761D01*
X84431009Y-141134761D02*
X84383390Y-141087142D01*
X84383390Y-141087142D02*
X84335771Y-140991904D01*
X84335771Y-140991904D02*
X84335771Y-140753809D01*
X84335771Y-140753809D02*
X84383390Y-140658571D01*
X84383390Y-140658571D02*
X84431009Y-140610952D01*
X84431009Y-140610952D02*
X84526247Y-140563333D01*
X84526247Y-140563333D02*
X84764342Y-140563333D01*
X84764342Y-140563333D02*
X84859580Y-140610952D01*
X84859580Y-140610952D02*
X84907200Y-140658571D01*
X84907200Y-140658571D02*
X84954819Y-140753809D01*
X84954819Y-140753809D02*
X84954819Y-140991904D01*
X84954819Y-140991904D02*
X84907200Y-141087142D01*
X84907200Y-141087142D02*
X84859580Y-141134761D01*
X89357142Y-144704819D02*
X89023809Y-144228628D01*
X88785714Y-144704819D02*
X88785714Y-143704819D01*
X88785714Y-143704819D02*
X89166666Y-143704819D01*
X89166666Y-143704819D02*
X89261904Y-143752438D01*
X89261904Y-143752438D02*
X89309523Y-143800057D01*
X89309523Y-143800057D02*
X89357142Y-143895295D01*
X89357142Y-143895295D02*
X89357142Y-144038152D01*
X89357142Y-144038152D02*
X89309523Y-144133390D01*
X89309523Y-144133390D02*
X89261904Y-144181009D01*
X89261904Y-144181009D02*
X89166666Y-144228628D01*
X89166666Y-144228628D02*
X88785714Y-144228628D01*
X90309523Y-144704819D02*
X89738095Y-144704819D01*
X90023809Y-144704819D02*
X90023809Y-143704819D01*
X90023809Y-143704819D02*
X89928571Y-143847676D01*
X89928571Y-143847676D02*
X89833333Y-143942914D01*
X89833333Y-143942914D02*
X89738095Y-143990533D01*
X90880952Y-144133390D02*
X90785714Y-144085771D01*
X90785714Y-144085771D02*
X90738095Y-144038152D01*
X90738095Y-144038152D02*
X90690476Y-143942914D01*
X90690476Y-143942914D02*
X90690476Y-143895295D01*
X90690476Y-143895295D02*
X90738095Y-143800057D01*
X90738095Y-143800057D02*
X90785714Y-143752438D01*
X90785714Y-143752438D02*
X90880952Y-143704819D01*
X90880952Y-143704819D02*
X91071428Y-143704819D01*
X91071428Y-143704819D02*
X91166666Y-143752438D01*
X91166666Y-143752438D02*
X91214285Y-143800057D01*
X91214285Y-143800057D02*
X91261904Y-143895295D01*
X91261904Y-143895295D02*
X91261904Y-143942914D01*
X91261904Y-143942914D02*
X91214285Y-144038152D01*
X91214285Y-144038152D02*
X91166666Y-144085771D01*
X91166666Y-144085771D02*
X91071428Y-144133390D01*
X91071428Y-144133390D02*
X90880952Y-144133390D01*
X90880952Y-144133390D02*
X90785714Y-144181009D01*
X90785714Y-144181009D02*
X90738095Y-144228628D01*
X90738095Y-144228628D02*
X90690476Y-144323866D01*
X90690476Y-144323866D02*
X90690476Y-144514342D01*
X90690476Y-144514342D02*
X90738095Y-144609580D01*
X90738095Y-144609580D02*
X90785714Y-144657200D01*
X90785714Y-144657200D02*
X90880952Y-144704819D01*
X90880952Y-144704819D02*
X91071428Y-144704819D01*
X91071428Y-144704819D02*
X91166666Y-144657200D01*
X91166666Y-144657200D02*
X91214285Y-144609580D01*
X91214285Y-144609580D02*
X91261904Y-144514342D01*
X91261904Y-144514342D02*
X91261904Y-144323866D01*
X91261904Y-144323866D02*
X91214285Y-144228628D01*
X91214285Y-144228628D02*
X91166666Y-144181009D01*
X91166666Y-144181009D02*
X91071428Y-144133390D01*
%TO.C,C3*%
D12*
X86515000Y-131717164D02*
X86515000Y-131932836D01*
X87235000Y-131717164D02*
X87235000Y-131932836D01*
%TO.C,C10*%
X90140000Y-137642164D02*
X90140000Y-137857836D01*
X90860000Y-137642164D02*
X90860000Y-137857836D01*
%TO.C,C8*%
X91140000Y-142607836D02*
X91140000Y-142392164D01*
X91860000Y-142607836D02*
X91860000Y-142392164D01*
%TO.C,R13*%
X81973173Y-133257362D02*
X81665891Y-133257362D01*
X81973173Y-134017362D02*
X81665891Y-134017362D01*
%TO.C,C5*%
X77892164Y-143890000D02*
X78107836Y-143890000D01*
X77892164Y-144610000D02*
X78107836Y-144610000D01*
%TO.C,U1*%
X81515000Y-129715000D02*
X84735000Y-129715000D01*
X81515000Y-129840000D02*
X81515000Y-129715000D01*
X81515000Y-132935000D02*
X81515000Y-132810000D01*
X84735000Y-129715000D02*
X84735000Y-129840000D01*
X84735000Y-132810000D02*
X84735000Y-132935000D01*
X84735000Y-132935000D02*
X81515000Y-132935000D01*
X80965000Y-129835000D02*
X80725000Y-129505000D01*
X81205000Y-129505000D01*
X80965000Y-129835000D01*
G36*
X80965000Y-129835000D02*
G01*
X80725000Y-129505000D01*
X81205000Y-129505000D01*
X80965000Y-129835000D01*
G37*
%TO.C,U4*%
X79365000Y-138890000D02*
X79590000Y-138890000D01*
X79365000Y-139115000D02*
X79365000Y-138890000D01*
X79365000Y-143110000D02*
X79365000Y-142885000D01*
X79590000Y-143110000D02*
X79365000Y-143110000D01*
X83360000Y-138890000D02*
X83585000Y-138890000D01*
X83585000Y-138890000D02*
X83585000Y-139115000D01*
X83585000Y-142885000D02*
X83585000Y-143110000D01*
X83585000Y-143110000D02*
X83360000Y-143110000D01*
X78835000Y-139500000D02*
X78505000Y-139740000D01*
X78505000Y-139260000D01*
X78835000Y-139500000D01*
G36*
X78835000Y-139500000D02*
G01*
X78505000Y-139740000D01*
X78505000Y-139260000D01*
X78835000Y-139500000D01*
G37*
%TO.C,R12*%
X92585546Y-131058621D02*
X92278264Y-131058621D01*
X92585546Y-131818621D02*
X92278264Y-131818621D01*
%TO.C,R3*%
X83712277Y-133247337D02*
X84019559Y-133247337D01*
X83712277Y-134007337D02*
X84019559Y-134007337D01*
%TO.C,C13*%
X91265000Y-136488748D02*
X91265000Y-137011252D01*
X92735000Y-136488748D02*
X92735000Y-137011252D01*
%TO.C,J3*%
X72340000Y-129660000D02*
X72340000Y-143090000D01*
X75160000Y-128390000D02*
X76610000Y-128390000D01*
X75160000Y-144360000D02*
X76610000Y-144360000D01*
X76610000Y-128390000D02*
X76610000Y-130190000D01*
X76610000Y-130190000D02*
X77600000Y-130190000D01*
X76610000Y-144360000D02*
X76610000Y-142560000D01*
%TO.C,J6*%
X96891584Y-128388277D02*
X96891584Y-130188277D01*
X96891584Y-132558277D02*
X95901584Y-132558277D01*
X96891584Y-134358277D02*
X96891584Y-132558277D01*
X98341584Y-128388277D02*
X96891584Y-128388277D01*
X98341584Y-134358277D02*
X96891584Y-134358277D01*
X101161584Y-133088277D02*
X101161584Y-129658277D01*
%TO.C,R17*%
X92120000Y-142336359D02*
X92120000Y-142643641D01*
X92880000Y-142336359D02*
X92880000Y-142643641D01*
%TO.C,R20*%
X93096359Y-140620000D02*
X93403641Y-140620000D01*
X93096359Y-141380000D02*
X93403641Y-141380000D01*
%TO.C,J1*%
X96897541Y-135905702D02*
X96897541Y-137705702D01*
X96897541Y-142575702D02*
X95907541Y-142575702D01*
X96897541Y-144375702D02*
X96897541Y-142575702D01*
X98347541Y-135905702D02*
X96897541Y-135905702D01*
X98347541Y-144375702D02*
X96897541Y-144375702D01*
X101167541Y-143105702D02*
X101167541Y-137175702D01*
%TO.C,C9*%
X89892164Y-138890000D02*
X90107836Y-138890000D01*
X89892164Y-139610000D02*
X90107836Y-139610000D01*
%TO.C,Q3*%
X91285995Y-134194577D02*
X91285995Y-132724577D01*
X91935995Y-134194577D02*
X91285995Y-134194577D01*
X92255995Y-132724577D02*
X92585995Y-132724577D01*
X93555995Y-132724577D02*
X93555995Y-134194577D01*
X93555995Y-134194577D02*
X92905995Y-134194577D01*
X92580995Y-132279577D02*
X92390995Y-132419577D01*
X92390995Y-132139577D01*
X92580995Y-132279577D01*
G36*
X92580995Y-132279577D02*
G01*
X92390995Y-132419577D01*
X92390995Y-132139577D01*
X92580995Y-132279577D01*
G37*
%TO.C,C1*%
X78490000Y-134609420D02*
X78490000Y-134890580D01*
X79510000Y-134609420D02*
X79510000Y-134890580D01*
%TO.C,C12*%
X93142164Y-139640000D02*
X93357836Y-139640000D01*
X93142164Y-140360000D02*
X93357836Y-140360000D01*
%TO.C,C11*%
X93142164Y-138640000D02*
X93357836Y-138640000D01*
X93142164Y-139360000D02*
X93357836Y-139360000D01*
%TO.C,R11*%
X90302415Y-129556726D02*
X90302415Y-129864008D01*
X91062415Y-129556726D02*
X91062415Y-129864008D01*
%TO.C,C18*%
X78410342Y-129420000D02*
X86475342Y-129420000D01*
X86475342Y-124900000D02*
X78410342Y-124900000D01*
X86475342Y-129420000D02*
X86475342Y-124900000D01*
%TO.C,R10*%
X89257354Y-133584577D02*
X89564636Y-133584577D01*
X89257354Y-134344577D02*
X89564636Y-134344577D01*
%TO.C,C4*%
X86527975Y-135082836D02*
X86527975Y-134867164D01*
X87247975Y-135082836D02*
X87247975Y-134867164D01*
%TO.C,Q1*%
X88275995Y-131229577D02*
X88925995Y-131229577D01*
X88275995Y-132699577D02*
X88275995Y-131229577D01*
X89575995Y-132699577D02*
X89245995Y-132699577D01*
X89895995Y-131229577D02*
X90545995Y-131229577D01*
X90545995Y-131229577D02*
X90545995Y-132699577D01*
X89440995Y-133284577D02*
X89250995Y-133144577D01*
X89440995Y-133004577D01*
X89440995Y-133284577D01*
G36*
X89440995Y-133284577D02*
G01*
X89250995Y-133144577D01*
X89440995Y-133004577D01*
X89440995Y-133284577D01*
G37*
%TO.C,C7*%
X90107836Y-140390000D02*
X89892164Y-140390000D01*
X90107836Y-141110000D02*
X89892164Y-141110000D01*
%TO.C,Q2*%
X91935995Y-128574577D02*
X93405995Y-128574577D01*
X91935995Y-129874577D02*
X91935995Y-129544577D01*
X93405995Y-128574577D02*
X93405995Y-129224577D01*
X93405995Y-130194577D02*
X93405995Y-130844577D01*
X93405995Y-130844577D02*
X91935995Y-130844577D01*
X91630995Y-129739577D02*
X91350995Y-129739577D01*
X91490995Y-129549577D01*
X91630995Y-129739577D01*
G36*
X91630995Y-129739577D02*
G01*
X91350995Y-129739577D01*
X91490995Y-129549577D01*
X91630995Y-129739577D01*
G37*
%TO.C,R21*%
X89120000Y-142653641D02*
X89120000Y-142346359D01*
X89880000Y-142653641D02*
X89880000Y-142346359D01*
%TO.C,U2*%
X81527500Y-134365000D02*
X84747500Y-134365000D01*
X81527500Y-134490000D02*
X81527500Y-134365000D01*
X81527500Y-137585000D02*
X81527500Y-137460000D01*
X84747500Y-134365000D02*
X84747500Y-134490000D01*
X84747500Y-137460000D02*
X84747500Y-137585000D01*
X84747500Y-137585000D02*
X81527500Y-137585000D01*
X80977500Y-134485000D02*
X80737500Y-134155000D01*
X81217500Y-134155000D01*
X80977500Y-134485000D01*
G36*
X80977500Y-134485000D02*
G01*
X80737500Y-134155000D01*
X81217500Y-134155000D01*
X80977500Y-134485000D01*
G37*
%TO.C,J5*%
X87385000Y-142500000D02*
X87385000Y-143135000D01*
X87385000Y-143135000D02*
X86750000Y-143135000D01*
%TO.C,R18*%
X90120000Y-142643641D02*
X90120000Y-142336359D01*
X90880000Y-142643641D02*
X90880000Y-142336359D01*
%TD*%
%LPC*%
D13*
%TO.C,C3*%
X86875000Y-131345000D03*
X86875000Y-132305000D03*
%TD*%
%TO.C,C10*%
X90500000Y-137270000D03*
X90500000Y-138230000D03*
%TD*%
D14*
%TO.C,C8*%
X91500000Y-142980000D03*
X91500000Y-142020000D03*
%TD*%
D15*
%TO.C,R13*%
X82329532Y-133637362D03*
X81309532Y-133637362D03*
%TD*%
D16*
%TO.C,C5*%
X77520000Y-144250000D03*
X78480000Y-144250000D03*
%TD*%
D17*
%TO.C,U1*%
X81012500Y-130350000D03*
X81012500Y-131000000D03*
X81012500Y-131650000D03*
X81012500Y-132300000D03*
X85237500Y-132300000D03*
X85237500Y-131650000D03*
X85237500Y-131000000D03*
X85237500Y-130350000D03*
%TD*%
D18*
%TO.C,U4*%
X79477500Y-139500000D03*
D19*
X79537500Y-140000000D03*
X79537500Y-140500000D03*
X79537500Y-141000000D03*
X79537500Y-141500000D03*
X79537500Y-142000000D03*
D20*
X79477500Y-142500000D03*
D21*
X79975000Y-142997500D03*
D22*
X80475000Y-142937500D03*
X80975000Y-142937500D03*
X81475000Y-142937500D03*
X81975000Y-142937500D03*
X82475000Y-142937500D03*
D23*
X82975000Y-142997500D03*
D24*
X83472500Y-142500000D03*
D19*
X83412500Y-142000000D03*
X83412500Y-141500000D03*
X83412500Y-141000000D03*
X83412500Y-140500000D03*
X83412500Y-140000000D03*
D25*
X83472500Y-139500000D03*
D26*
X82975000Y-139002500D03*
D22*
X82475000Y-139062500D03*
X81975000Y-139062500D03*
X81475000Y-139062500D03*
X80975000Y-139062500D03*
X80475000Y-139062500D03*
D27*
X79975000Y-139002500D03*
%TD*%
D15*
%TO.C,R12*%
X92941905Y-131438621D03*
X91921905Y-131438621D03*
%TD*%
D28*
%TO.C,R3*%
X83355918Y-133627337D03*
X84375918Y-133627337D03*
%TD*%
D29*
%TO.C,C13*%
X92000000Y-135800000D03*
X92000000Y-137700000D03*
%TD*%
D30*
%TO.C,J3*%
X76750000Y-130750000D03*
X76750000Y-132000000D03*
X76750000Y-133250000D03*
X76750000Y-134500000D03*
X76750000Y-135750000D03*
X76750000Y-137000000D03*
X76750000Y-138250000D03*
X76750000Y-139500000D03*
X76750000Y-140750000D03*
X76750000Y-142000000D03*
D31*
X73550000Y-128900000D03*
X73550000Y-143850000D03*
%TD*%
D32*
%TO.C,J6*%
X96751584Y-131998277D03*
X96751584Y-130748277D03*
D33*
X99951584Y-133848277D03*
X99951584Y-128898277D03*
%TD*%
D34*
%TO.C,R17*%
X92500000Y-141980000D03*
X92500000Y-143000000D03*
%TD*%
D28*
%TO.C,R20*%
X92740000Y-141000000D03*
X93760000Y-141000000D03*
%TD*%
D32*
%TO.C,J1*%
X96757541Y-142015702D03*
X96757541Y-140765702D03*
X96757541Y-139515702D03*
X96757541Y-138265702D03*
D33*
X99957541Y-143865702D03*
X99957541Y-136415702D03*
%TD*%
D16*
%TO.C,C9*%
X89520000Y-139250000D03*
X90480000Y-139250000D03*
%TD*%
D35*
%TO.C,Q3*%
X93070995Y-132572077D03*
X91770995Y-132572077D03*
X92420995Y-134347077D03*
%TD*%
D36*
%TO.C,C1*%
X79000000Y-133975000D03*
X79000000Y-135525000D03*
%TD*%
D16*
%TO.C,C12*%
X92770000Y-140000000D03*
X93730000Y-140000000D03*
%TD*%
%TO.C,C11*%
X92770000Y-139000000D03*
X93730000Y-139000000D03*
%TD*%
D34*
%TO.C,R11*%
X90682415Y-129200367D03*
X90682415Y-130220367D03*
%TD*%
D37*
%TO.C,C18*%
X85180342Y-127160000D03*
X78940342Y-127160000D03*
%TD*%
D28*
%TO.C,R10*%
X88900995Y-133964577D03*
X89920995Y-133964577D03*
%TD*%
D14*
%TO.C,C4*%
X86887975Y-135455000D03*
X86887975Y-134495000D03*
%TD*%
D38*
%TO.C,Q1*%
X88760995Y-132852077D03*
X90060995Y-132852077D03*
X89410995Y-131077077D03*
%TD*%
D39*
%TO.C,C7*%
X90480000Y-140750000D03*
X89520000Y-140750000D03*
%TD*%
D40*
%TO.C,Q2*%
X91783495Y-129059577D03*
X91783495Y-130359577D03*
X93558495Y-129709577D03*
%TD*%
D41*
%TO.C,R21*%
X89500000Y-143010000D03*
X89500000Y-141990000D03*
%TD*%
D17*
%TO.C,U2*%
X81025000Y-135000000D03*
X81025000Y-135650000D03*
X81025000Y-136300000D03*
X81025000Y-136950000D03*
X85250000Y-136950000D03*
X85250000Y-136300000D03*
X85250000Y-135650000D03*
X85250000Y-135000000D03*
%TD*%
D42*
%TO.C,J5*%
X86115000Y-143770000D03*
X85099000Y-138690000D03*
X87131000Y-138690000D03*
D43*
X86750000Y-142500000D03*
X85480000Y-142500000D03*
X86750000Y-141230000D03*
X85480000Y-141230000D03*
X86750000Y-139960000D03*
X85480000Y-139960000D03*
%TD*%
D41*
%TO.C,R18*%
X90500000Y-143000000D03*
X90500000Y-141980000D03*
%TD*%
%LPD*%
M02*
