%TF.GenerationSoftware,KiCad,Pcbnew,10.0.1*%
%TF.CreationDate,2026-08-10T21:35:27+01:00*%
%TF.ProjectId,reward_port,72657761-7264-45f7-906f-72742e6b6963,rev?*%
%TF.SameCoordinates,Original*%
%TF.FileFunction,Copper,L3,Inr*%
%TF.FilePolarity,Positive*%
%FSLAX46Y46*%
G04 Gerber Fmt 4.6, Leading zero omitted, Abs format (unit mm)*
G04 Created by KiCad (PCBNEW 10.0.1) date 2026-08-10 21:35:27*
%MOMM*%
%LPD*%
G01*
G04 APERTURE LIST*
%TA.AperFunction,ViaPad*%
%ADD10C,0.600000*%
%TD*%
%TA.AperFunction,ViaPad*%
%ADD11C,0.800000*%
%TD*%
G04 APERTURE END LIST*
D10*
%TO.N,/3V3*%
X75478412Y-135590249D03*
X87750000Y-142424700D03*
X80424998Y-139997021D03*
%TO.N,GND*%
X98250000Y-142000000D03*
X87223526Y-130464988D03*
D11*
X91500000Y-139500000D03*
D10*
X75476329Y-142000000D03*
D11*
X80930342Y-128410000D03*
D10*
X75500000Y-137000000D03*
X83750000Y-144350000D03*
X80389156Y-141234771D03*
X76300000Y-128250000D03*
D11*
X90920995Y-132750000D03*
X85625000Y-133575000D03*
D10*
X75476329Y-139500000D03*
X98250000Y-137250000D03*
D11*
%TO.N,/VLOAD*%
X98250000Y-138250000D03*
X75000000Y-140750000D03*
X75000000Y-138250000D03*
X90500000Y-136250000D03*
X87000000Y-126250000D03*
D10*
%TO.N,/TIM2_CH1*%
X77845082Y-140140082D03*
X80496944Y-133839148D03*
%TO.N,/ADC_IN6*%
X77000000Y-142750000D03*
%TO.N,/USART1_RX*%
X79800000Y-130500000D03*
X79487017Y-137994555D03*
%TO.N,/USART1_TX*%
X80643613Y-138049999D03*
X79800000Y-132200000D03*
%TO.N,/RS485_P*%
X78102914Y-131518433D03*
D11*
X83330470Y-132271586D03*
D10*
%TO.N,/RS485_N*%
X78652914Y-132700000D03*
D11*
X83250000Y-131325000D03*
D10*
%TO.N,/NRST*%
X87376300Y-140750000D03*
X78500000Y-141000000D03*
%TO.N,/TIM2_CH2*%
X78263909Y-143236091D03*
%TO.N,/AMPL_SD*%
X79479622Y-143085000D03*
D11*
X93500000Y-142250000D03*
D10*
%TO.N,/IR_E*%
X80498687Y-143800000D03*
%TO.N,/DAC_OUT1*%
X92250000Y-144000000D03*
X81250000Y-143800000D03*
%TO.N,/TIM3_CH3*%
X84666448Y-142276467D03*
X91037750Y-131908055D03*
%TO.N,/TIM1_CH1*%
X82425000Y-141500000D03*
X83500000Y-129000000D03*
%TO.N,/TIM3_CH1*%
X90398629Y-134380127D03*
X82505186Y-139950000D03*
%TO.N,/TIM3_CH2*%
X82314833Y-138041552D03*
X90432627Y-130932627D03*
D11*
%TO.N,Net-(Q3-G)*%
X93995641Y-131891137D03*
%TO.N,/SYNC_P*%
X83657772Y-136700000D03*
D10*
X78000000Y-134000000D03*
D11*
%TO.N,/SYNC_N*%
X83000000Y-136014555D03*
D10*
X78586186Y-136808368D03*
D11*
%TO.N,Net-(U3-VO+)*%
X94500000Y-140000000D03*
%TO.N,Net-(U3-VO-)*%
X93750000Y-138000000D03*
D10*
%TO.N,Net-(J1-Pad1)*%
X93095995Y-134281421D03*
X95450000Y-141993376D03*
%TO.N,Net-(J1-Pad2)*%
X95450000Y-140743376D03*
X93750000Y-129034577D03*
%TO.N,Net-(J1-Pad3)*%
X87887281Y-131791234D03*
X95250000Y-139000000D03*
D11*
%TO.N,Net-(Q3-D)*%
X90920995Y-133709577D03*
%TO.N,Net-(Q2-G)*%
X91033495Y-128278063D03*
%TO.N,Net-(Q1-G)*%
X87910995Y-133464577D03*
D10*
%TO.N,Net-(Q1-D)*%
X88350173Y-131039257D03*
D11*
%TO.N,Net-(Q2-D)*%
X93991816Y-130411055D03*
%TO.N,Net-(U3-IN-)*%
X90250000Y-144000000D03*
%TO.N,Net-(U3-IN+)*%
X91250000Y-144000000D03*
D10*
%TO.N,/VALVE_OUT1*%
X75100000Y-132000000D03*
D11*
X83370629Y-126884893D03*
D10*
%TO.N,/VALVE_OUT2*%
X79706331Y-128905000D03*
D11*
X83370836Y-127850000D03*
D10*
%TO.N,Net-(Q4-D)*%
X78677073Y-140269754D03*
X88490000Y-140250000D03*
%TD*%
%TA.AperFunction,Conductor*%
%TO.N,GND*%
G36*
X101392539Y-125070185D02*
G01*
X101438294Y-125122989D01*
X101449500Y-125174500D01*
X101449500Y-145325500D01*
X101429815Y-145392539D01*
X101377011Y-145438294D01*
X101325500Y-145449500D01*
X72174500Y-145449500D01*
X72107461Y-145429815D01*
X72061706Y-145377011D01*
X72050500Y-145325500D01*
X72050500Y-142671153D01*
X76199500Y-142671153D01*
X76199500Y-142828846D01*
X76230261Y-142983489D01*
X76230264Y-142983501D01*
X76290602Y-143129172D01*
X76290609Y-143129185D01*
X76378210Y-143260288D01*
X76378213Y-143260292D01*
X76489707Y-143371786D01*
X76489711Y-143371789D01*
X76620814Y-143459390D01*
X76620827Y-143459397D01*
X76766498Y-143519735D01*
X76766503Y-143519737D01*
X76921153Y-143550499D01*
X76921156Y-143550500D01*
X76921158Y-143550500D01*
X77078844Y-143550500D01*
X77078845Y-143550499D01*
X77233497Y-143519737D01*
X77359167Y-143467682D01*
X77428636Y-143460214D01*
X77491115Y-143491489D01*
X77521180Y-143534792D01*
X77554511Y-143615263D01*
X77554518Y-143615276D01*
X77642119Y-143746379D01*
X77642122Y-143746383D01*
X77753616Y-143857877D01*
X77753620Y-143857880D01*
X77884723Y-143945481D01*
X77884736Y-143945488D01*
X78030407Y-144005826D01*
X78030412Y-144005828D01*
X78169513Y-144033497D01*
X78185062Y-144036590D01*
X78185065Y-144036591D01*
X78185067Y-144036591D01*
X78342753Y-144036591D01*
X78342754Y-144036590D01*
X78497406Y-144005828D01*
X78643088Y-143945485D01*
X78774198Y-143857880D01*
X78870973Y-143761104D01*
X78932294Y-143727621D01*
X79001986Y-143732605D01*
X79027544Y-143745685D01*
X79100436Y-143794390D01*
X79100449Y-143794397D01*
X79207007Y-143838534D01*
X79246125Y-143854737D01*
X79386724Y-143882704D01*
X79400775Y-143885499D01*
X79400778Y-143885500D01*
X79400780Y-143885500D01*
X79558466Y-143885500D01*
X79572520Y-143882704D01*
X79642112Y-143888928D01*
X79697291Y-143931789D01*
X79718333Y-143980127D01*
X79728948Y-144033492D01*
X79728951Y-144033501D01*
X79789289Y-144179172D01*
X79789296Y-144179185D01*
X79876897Y-144310288D01*
X79876900Y-144310292D01*
X79988394Y-144421786D01*
X79988398Y-144421789D01*
X80119501Y-144509390D01*
X80119514Y-144509397D01*
X80265185Y-144569735D01*
X80265190Y-144569737D01*
X80419840Y-144600499D01*
X80419843Y-144600500D01*
X80419845Y-144600500D01*
X80577531Y-144600500D01*
X80577532Y-144600499D01*
X80732184Y-144569737D01*
X80826892Y-144530507D01*
X80896359Y-144523039D01*
X80921794Y-144530507D01*
X81016503Y-144569737D01*
X81016506Y-144569737D01*
X81016511Y-144569739D01*
X81171153Y-144600499D01*
X81171156Y-144600500D01*
X81171158Y-144600500D01*
X81328844Y-144600500D01*
X81328845Y-144600499D01*
X81483497Y-144569737D01*
X81629179Y-144509394D01*
X81760289Y-144421789D01*
X81871789Y-144310289D01*
X81959394Y-144179179D01*
X82019737Y-144033497D01*
X82050500Y-143878842D01*
X82050500Y-143721158D01*
X82050183Y-143719563D01*
X82050183Y-143719560D01*
X82046584Y-143701465D01*
X85419200Y-143701465D01*
X85419200Y-143838534D01*
X85445937Y-143972949D01*
X85445940Y-143972961D01*
X85498386Y-144099578D01*
X85498393Y-144099591D01*
X85574536Y-144213546D01*
X85574539Y-144213550D01*
X85671449Y-144310460D01*
X85671453Y-144310463D01*
X85785408Y-144386606D01*
X85785421Y-144386613D01*
X85881846Y-144426553D01*
X85912043Y-144439061D01*
X86046465Y-144465799D01*
X86046469Y-144465800D01*
X86046470Y-144465800D01*
X86183531Y-144465800D01*
X86183532Y-144465799D01*
X86317957Y-144439061D01*
X86444585Y-144386610D01*
X86558547Y-144310463D01*
X86655463Y-144213547D01*
X86731610Y-144099585D01*
X86736123Y-144088691D01*
X86758983Y-144033501D01*
X86784061Y-143972957D01*
X86794365Y-143921153D01*
X86796324Y-143911304D01*
X89349500Y-143911304D01*
X89349500Y-144088695D01*
X89384103Y-144262658D01*
X89384106Y-144262667D01*
X89451983Y-144426540D01*
X89451990Y-144426553D01*
X89550535Y-144574034D01*
X89550538Y-144574038D01*
X89675961Y-144699461D01*
X89675965Y-144699464D01*
X89823446Y-144798009D01*
X89823459Y-144798016D01*
X89946363Y-144848923D01*
X89987334Y-144865894D01*
X89987336Y-144865894D01*
X89987341Y-144865896D01*
X90161304Y-144900499D01*
X90161307Y-144900500D01*
X90161309Y-144900500D01*
X90338693Y-144900500D01*
X90338694Y-144900499D01*
X90396682Y-144888964D01*
X90512658Y-144865896D01*
X90512661Y-144865894D01*
X90512666Y-144865894D01*
X90676547Y-144798013D01*
X90681107Y-144794965D01*
X90747783Y-144774086D01*
X90815163Y-144792569D01*
X90818867Y-144794948D01*
X90823453Y-144798013D01*
X90823455Y-144798014D01*
X90823457Y-144798015D01*
X90932707Y-144843267D01*
X90987334Y-144865894D01*
X90987336Y-144865894D01*
X90987341Y-144865896D01*
X91161304Y-144900499D01*
X91161307Y-144900500D01*
X91161309Y-144900500D01*
X91338693Y-144900500D01*
X91338694Y-144900499D01*
X91396682Y-144888964D01*
X91512658Y-144865896D01*
X91512661Y-144865894D01*
X91512666Y-144865894D01*
X91676547Y-144798013D01*
X91777656Y-144730453D01*
X91844332Y-144709576D01*
X91893998Y-144718995D01*
X92016498Y-144769735D01*
X92016503Y-144769737D01*
X92143337Y-144794966D01*
X92171153Y-144800499D01*
X92171156Y-144800500D01*
X92171158Y-144800500D01*
X92328844Y-144800500D01*
X92328845Y-144800499D01*
X92483497Y-144769737D01*
X92629179Y-144709394D01*
X92760289Y-144621789D01*
X92871789Y-144510289D01*
X92959394Y-144379179D01*
X93019737Y-144233497D01*
X93050500Y-144078842D01*
X93050500Y-143921158D01*
X93050500Y-143921155D01*
X93050499Y-143921153D01*
X93042851Y-143882704D01*
X93019737Y-143766503D01*
X93011402Y-143746380D01*
X92959397Y-143620827D01*
X92959390Y-143620814D01*
X92871789Y-143489711D01*
X92871786Y-143489707D01*
X92760292Y-143378213D01*
X92760288Y-143378210D01*
X92629185Y-143290609D01*
X92629172Y-143290602D01*
X92483501Y-143230264D01*
X92483489Y-143230261D01*
X92328845Y-143199500D01*
X92328842Y-143199500D01*
X92171158Y-143199500D01*
X92171155Y-143199500D01*
X92016510Y-143230261D01*
X92016498Y-143230264D01*
X91893999Y-143281005D01*
X91824530Y-143288474D01*
X91777656Y-143269546D01*
X91676552Y-143201990D01*
X91676540Y-143201983D01*
X91512667Y-143134106D01*
X91512658Y-143134103D01*
X91338694Y-143099500D01*
X91338691Y-143099500D01*
X91161309Y-143099500D01*
X91161306Y-143099500D01*
X90987341Y-143134103D01*
X90987332Y-143134106D01*
X90823459Y-143201983D01*
X90823446Y-143201990D01*
X90818887Y-143205037D01*
X90752208Y-143225912D01*
X90684829Y-143207425D01*
X90681113Y-143205037D01*
X90676553Y-143201990D01*
X90676540Y-143201983D01*
X90512667Y-143134106D01*
X90512658Y-143134103D01*
X90338694Y-143099500D01*
X90338691Y-143099500D01*
X90161309Y-143099500D01*
X90161306Y-143099500D01*
X89987341Y-143134103D01*
X89987332Y-143134106D01*
X89823459Y-143201983D01*
X89823446Y-143201990D01*
X89675965Y-143300535D01*
X89675961Y-143300538D01*
X89550538Y-143425961D01*
X89550535Y-143425965D01*
X89451990Y-143573446D01*
X89451983Y-143573459D01*
X89384106Y-143737332D01*
X89384103Y-143737341D01*
X89349500Y-143911304D01*
X86796324Y-143911304D01*
X86802343Y-143881048D01*
X86802347Y-143881027D01*
X86807576Y-143854737D01*
X86810800Y-143838530D01*
X86810800Y-143701470D01*
X86784061Y-143567043D01*
X86764466Y-143519736D01*
X86731613Y-143440421D01*
X86731606Y-143440408D01*
X86655463Y-143326453D01*
X86655460Y-143326449D01*
X86558550Y-143229539D01*
X86558546Y-143229536D01*
X86444591Y-143153393D01*
X86444578Y-143153386D01*
X86317961Y-143100940D01*
X86317949Y-143100937D01*
X86183534Y-143074200D01*
X86183530Y-143074200D01*
X86046470Y-143074200D01*
X86046465Y-143074200D01*
X85912050Y-143100937D01*
X85912038Y-143100940D01*
X85785421Y-143153386D01*
X85785408Y-143153393D01*
X85671453Y-143229536D01*
X85671449Y-143229539D01*
X85574539Y-143326449D01*
X85574536Y-143326453D01*
X85498393Y-143440408D01*
X85498386Y-143440421D01*
X85445940Y-143567038D01*
X85445937Y-143567050D01*
X85419200Y-143701465D01*
X82046584Y-143701465D01*
X82019738Y-143566508D01*
X82019737Y-143566507D01*
X82019737Y-143566503D01*
X82019735Y-143566498D01*
X81959397Y-143420827D01*
X81959390Y-143420814D01*
X81871789Y-143289711D01*
X81871786Y-143289707D01*
X81760292Y-143178213D01*
X81760288Y-143178210D01*
X81629185Y-143090609D01*
X81629172Y-143090602D01*
X81483501Y-143030264D01*
X81483489Y-143030261D01*
X81328845Y-142999500D01*
X81328842Y-142999500D01*
X81171158Y-142999500D01*
X81171155Y-142999500D01*
X81016505Y-143030261D01*
X81016498Y-143030264D01*
X80921791Y-143069491D01*
X80852322Y-143076958D01*
X80826892Y-143069491D01*
X80732184Y-143030263D01*
X80732180Y-143030262D01*
X80732175Y-143030260D01*
X80577532Y-142999500D01*
X80577529Y-142999500D01*
X80419845Y-142999500D01*
X80419844Y-142999500D01*
X80405780Y-143002297D01*
X80336188Y-142996067D01*
X80281012Y-142953203D01*
X80259975Y-142904870D01*
X80249360Y-142851510D01*
X80249359Y-142851503D01*
X80237983Y-142824038D01*
X80189019Y-142705827D01*
X80189012Y-142705814D01*
X80101411Y-142574711D01*
X80101408Y-142574707D01*
X79989914Y-142463213D01*
X79989910Y-142463210D01*
X79858807Y-142375609D01*
X79858794Y-142375602D01*
X79713123Y-142315264D01*
X79713111Y-142315261D01*
X79558467Y-142284500D01*
X79558464Y-142284500D01*
X79400780Y-142284500D01*
X79400777Y-142284500D01*
X79246132Y-142315261D01*
X79246120Y-142315264D01*
X79100449Y-142375602D01*
X79100436Y-142375609D01*
X78969333Y-142463210D01*
X78872558Y-142559985D01*
X78811234Y-142593469D01*
X78741543Y-142588485D01*
X78715986Y-142575405D01*
X78643094Y-142526700D01*
X78643081Y-142526693D01*
X78497410Y-142466355D01*
X78497398Y-142466352D01*
X78342754Y-142435591D01*
X78342751Y-142435591D01*
X78185067Y-142435591D01*
X78185064Y-142435591D01*
X78030419Y-142466352D01*
X78030407Y-142466355D01*
X77904741Y-142518407D01*
X77835271Y-142525876D01*
X77772792Y-142494600D01*
X77742729Y-142451300D01*
X77709394Y-142370821D01*
X77709390Y-142370814D01*
X77621789Y-142239711D01*
X77621786Y-142239707D01*
X77510292Y-142128213D01*
X77510288Y-142128210D01*
X77379185Y-142040609D01*
X77379172Y-142040602D01*
X77233501Y-141980264D01*
X77233489Y-141980261D01*
X77078845Y-141949500D01*
X77078842Y-141949500D01*
X76921158Y-141949500D01*
X76921155Y-141949500D01*
X76766510Y-141980261D01*
X76766498Y-141980264D01*
X76620827Y-142040602D01*
X76620814Y-142040609D01*
X76489711Y-142128210D01*
X76489707Y-142128213D01*
X76378213Y-142239707D01*
X76378210Y-142239711D01*
X76290609Y-142370814D01*
X76290602Y-142370827D01*
X76230264Y-142516498D01*
X76230261Y-142516510D01*
X76199500Y-142671153D01*
X72050500Y-142671153D01*
X72050500Y-140661304D01*
X74099500Y-140661304D01*
X74099500Y-140838695D01*
X74134103Y-141012658D01*
X74134106Y-141012667D01*
X74201983Y-141176540D01*
X74201990Y-141176553D01*
X74300535Y-141324034D01*
X74300538Y-141324038D01*
X74425961Y-141449461D01*
X74425965Y-141449464D01*
X74573446Y-141548009D01*
X74573459Y-141548016D01*
X74647886Y-141578844D01*
X74737334Y-141615894D01*
X74737336Y-141615894D01*
X74737341Y-141615896D01*
X74911304Y-141650499D01*
X74911307Y-141650500D01*
X74911309Y-141650500D01*
X75088693Y-141650500D01*
X75088694Y-141650499D01*
X75173904Y-141633550D01*
X75262658Y-141615896D01*
X75262661Y-141615894D01*
X75262666Y-141615894D01*
X75426547Y-141548013D01*
X75574035Y-141449464D01*
X75699464Y-141324035D01*
X75798013Y-141176547D01*
X75865894Y-141012666D01*
X75871696Y-140983501D01*
X75891112Y-140885885D01*
X75900500Y-140838691D01*
X75900500Y-140661309D01*
X75900500Y-140661306D01*
X75900499Y-140661304D01*
X75865896Y-140487341D01*
X75865893Y-140487332D01*
X75798016Y-140323459D01*
X75798009Y-140323446D01*
X75699464Y-140175965D01*
X75699461Y-140175961D01*
X75584735Y-140061235D01*
X77044582Y-140061235D01*
X77044582Y-140218928D01*
X77075343Y-140373571D01*
X77075346Y-140373583D01*
X77135684Y-140519254D01*
X77135691Y-140519267D01*
X77223292Y-140650370D01*
X77223295Y-140650374D01*
X77334789Y-140761868D01*
X77334793Y-140761871D01*
X77465896Y-140849472D01*
X77465909Y-140849479D01*
X77617213Y-140912150D01*
X77616760Y-140913241D01*
X77669935Y-140948090D01*
X77698391Y-141011903D01*
X77699500Y-141028452D01*
X77699500Y-141078846D01*
X77730261Y-141233489D01*
X77730264Y-141233501D01*
X77790602Y-141379172D01*
X77790609Y-141379185D01*
X77878210Y-141510288D01*
X77878213Y-141510292D01*
X77989707Y-141621786D01*
X77989711Y-141621789D01*
X78120814Y-141709390D01*
X78120827Y-141709397D01*
X78242720Y-141759886D01*
X78266503Y-141769737D01*
X78421153Y-141800499D01*
X78421156Y-141800500D01*
X78421158Y-141800500D01*
X78578844Y-141800500D01*
X78578845Y-141800499D01*
X78733497Y-141769737D01*
X78879179Y-141709394D01*
X79010289Y-141621789D01*
X79121789Y-141510289D01*
X79181348Y-141421153D01*
X81624500Y-141421153D01*
X81624500Y-141578846D01*
X81655261Y-141733489D01*
X81655264Y-141733501D01*
X81715602Y-141879172D01*
X81715609Y-141879185D01*
X81803210Y-142010288D01*
X81803213Y-142010292D01*
X81914707Y-142121786D01*
X81914711Y-142121789D01*
X82045814Y-142209390D01*
X82045827Y-142209397D01*
X82119013Y-142239711D01*
X82191503Y-142269737D01*
X82346153Y-142300499D01*
X82346156Y-142300500D01*
X82346158Y-142300500D01*
X82503844Y-142300500D01*
X82503845Y-142300499D01*
X82658497Y-142269737D01*
X82804179Y-142209394D01*
X82821800Y-142197620D01*
X83865948Y-142197620D01*
X83865948Y-142355313D01*
X83896709Y-142509956D01*
X83896712Y-142509968D01*
X83957050Y-142655639D01*
X83957057Y-142655652D01*
X84044658Y-142786755D01*
X84044661Y-142786759D01*
X84156155Y-142898253D01*
X84156159Y-142898256D01*
X84287262Y-142985857D01*
X84287275Y-142985864D01*
X84394468Y-143030264D01*
X84432951Y-143046204D01*
X84587561Y-143076958D01*
X84587601Y-143076966D01*
X84587604Y-143076967D01*
X84587606Y-143076967D01*
X84745292Y-143076967D01*
X84745293Y-143076966D01*
X84899945Y-143046204D01*
X85045627Y-142985861D01*
X85176737Y-142898256D01*
X85288237Y-142786756D01*
X85375842Y-142655646D01*
X85436185Y-142509964D01*
X85466948Y-142355309D01*
X85466948Y-142197625D01*
X85466948Y-142197622D01*
X85466947Y-142197620D01*
X85453141Y-142128213D01*
X85436185Y-142042970D01*
X85435204Y-142040602D01*
X85375845Y-141897294D01*
X85375838Y-141897281D01*
X85288237Y-141766178D01*
X85288234Y-141766174D01*
X85176740Y-141654680D01*
X85176736Y-141654677D01*
X85045633Y-141567076D01*
X85045620Y-141567069D01*
X84899949Y-141506731D01*
X84899937Y-141506728D01*
X84745293Y-141475967D01*
X84745290Y-141475967D01*
X84587606Y-141475967D01*
X84587603Y-141475967D01*
X84432958Y-141506728D01*
X84432946Y-141506731D01*
X84287275Y-141567069D01*
X84287262Y-141567076D01*
X84156159Y-141654677D01*
X84156155Y-141654680D01*
X84044661Y-141766174D01*
X84044658Y-141766178D01*
X83957057Y-141897281D01*
X83957050Y-141897294D01*
X83896712Y-142042965D01*
X83896709Y-142042977D01*
X83865948Y-142197620D01*
X82821800Y-142197620D01*
X82935289Y-142121789D01*
X82935292Y-142121786D01*
X82953227Y-142103852D01*
X83046786Y-142010292D01*
X83046789Y-142010289D01*
X83134394Y-141879179D01*
X83194737Y-141733497D01*
X83225500Y-141578842D01*
X83225500Y-141421158D01*
X83225500Y-141421155D01*
X83225499Y-141421153D01*
X83206381Y-141325042D01*
X83194737Y-141266503D01*
X83157479Y-141176553D01*
X83134397Y-141120827D01*
X83134390Y-141120814D01*
X83046789Y-140989711D01*
X83046786Y-140989707D01*
X82935292Y-140878213D01*
X82935288Y-140878210D01*
X82900389Y-140854891D01*
X82879588Y-140830002D01*
X82857770Y-140806024D01*
X82857320Y-140803356D01*
X82855584Y-140801279D01*
X82851541Y-140769089D01*
X82846150Y-140737127D01*
X82847214Y-140734638D01*
X82846877Y-140731954D01*
X82860869Y-140702706D01*
X82873623Y-140672886D01*
X82875539Y-140671153D01*
X86575800Y-140671153D01*
X86575800Y-140828846D01*
X86606561Y-140983489D01*
X86606564Y-140983501D01*
X86666902Y-141129172D01*
X86666909Y-141129185D01*
X86754510Y-141260288D01*
X86754513Y-141260292D01*
X86866007Y-141371786D01*
X86866011Y-141371789D01*
X86997114Y-141459390D01*
X86997127Y-141459397D01*
X87142798Y-141519735D01*
X87142803Y-141519737D01*
X87223279Y-141535744D01*
X87250447Y-141541149D01*
X87312358Y-141573534D01*
X87346932Y-141634249D01*
X87343193Y-141704019D01*
X87302327Y-141760691D01*
X87295149Y-141765867D01*
X87239709Y-141802911D01*
X87128213Y-141914407D01*
X87128210Y-141914411D01*
X87040609Y-142045514D01*
X87040602Y-142045527D01*
X86980264Y-142191198D01*
X86980261Y-142191210D01*
X86949500Y-142345853D01*
X86949500Y-142503546D01*
X86980261Y-142658189D01*
X86980264Y-142658201D01*
X87040602Y-142803872D01*
X87040609Y-142803885D01*
X87128210Y-142934988D01*
X87128213Y-142934992D01*
X87239707Y-143046486D01*
X87239711Y-143046489D01*
X87370814Y-143134090D01*
X87370827Y-143134097D01*
X87516498Y-143194435D01*
X87516503Y-143194437D01*
X87671153Y-143225199D01*
X87671156Y-143225200D01*
X87671158Y-143225200D01*
X87828844Y-143225200D01*
X87828845Y-143225199D01*
X87983497Y-143194437D01*
X88129150Y-143134106D01*
X88129172Y-143134097D01*
X88129172Y-143134096D01*
X88129179Y-143134094D01*
X88260289Y-143046489D01*
X88371789Y-142934989D01*
X88459394Y-142803879D01*
X88519737Y-142658197D01*
X88550500Y-142503542D01*
X88550500Y-142345858D01*
X88550500Y-142345855D01*
X88550499Y-142345853D01*
X88519739Y-142191210D01*
X88519738Y-142191208D01*
X88519737Y-142191207D01*
X88519737Y-142191203D01*
X88507353Y-142161304D01*
X92599500Y-142161304D01*
X92599500Y-142338695D01*
X92634103Y-142512658D01*
X92634106Y-142512667D01*
X92701983Y-142676540D01*
X92701990Y-142676553D01*
X92800535Y-142824034D01*
X92800538Y-142824038D01*
X92925961Y-142949461D01*
X92925965Y-142949464D01*
X93073446Y-143048009D01*
X93073459Y-143048016D01*
X93172758Y-143089146D01*
X93237334Y-143115894D01*
X93237336Y-143115894D01*
X93237341Y-143115896D01*
X93411304Y-143150499D01*
X93411307Y-143150500D01*
X93411309Y-143150500D01*
X93588693Y-143150500D01*
X93588694Y-143150499D01*
X93671169Y-143134094D01*
X93762658Y-143115896D01*
X93762661Y-143115894D01*
X93762666Y-143115894D01*
X93926547Y-143048013D01*
X94074035Y-142949464D01*
X94199464Y-142824035D01*
X94298013Y-142676547D01*
X94365894Y-142512666D01*
X94366432Y-142509964D01*
X94388964Y-142396682D01*
X94400500Y-142338691D01*
X94400500Y-142161309D01*
X94400500Y-142161306D01*
X94400499Y-142161304D01*
X94365896Y-141987341D01*
X94365893Y-141987332D01*
X94362965Y-141980264D01*
X94321095Y-141879179D01*
X94298016Y-141823459D01*
X94298009Y-141823446D01*
X94199464Y-141675965D01*
X94199461Y-141675961D01*
X94074038Y-141550538D01*
X94074034Y-141550535D01*
X93926553Y-141451990D01*
X93926540Y-141451983D01*
X93762667Y-141384106D01*
X93762658Y-141384103D01*
X93588694Y-141349500D01*
X93588691Y-141349500D01*
X93411309Y-141349500D01*
X93411306Y-141349500D01*
X93237341Y-141384103D01*
X93237332Y-141384106D01*
X93073459Y-141451983D01*
X93073446Y-141451990D01*
X92925965Y-141550535D01*
X92925961Y-141550538D01*
X92800538Y-141675961D01*
X92800535Y-141675965D01*
X92701990Y-141823446D01*
X92701983Y-141823459D01*
X92634106Y-141987332D01*
X92634103Y-141987341D01*
X92599500Y-142161304D01*
X88507353Y-142161304D01*
X88490984Y-142121786D01*
X88459397Y-142045527D01*
X88459390Y-142045514D01*
X88371789Y-141914411D01*
X88371786Y-141914407D01*
X88260292Y-141802913D01*
X88260288Y-141802910D01*
X88129185Y-141715309D01*
X88129172Y-141715302D01*
X87983501Y-141654964D01*
X87983491Y-141654961D01*
X87875851Y-141633550D01*
X87813940Y-141601165D01*
X87779366Y-141540449D01*
X87783106Y-141470680D01*
X87823973Y-141414008D01*
X87831152Y-141408831D01*
X87886589Y-141371789D01*
X87998086Y-141260292D01*
X87998089Y-141260289D01*
X88085694Y-141129179D01*
X88102024Y-141089752D01*
X88145864Y-141035352D01*
X88212158Y-141013286D01*
X88252589Y-141018549D01*
X88256499Y-141019735D01*
X88256503Y-141019737D01*
X88256507Y-141019737D01*
X88256511Y-141019739D01*
X88411153Y-141050499D01*
X88411156Y-141050500D01*
X88411158Y-141050500D01*
X88568844Y-141050500D01*
X88568845Y-141050499D01*
X88723497Y-141019737D01*
X88869179Y-140959394D01*
X89000289Y-140871789D01*
X89111789Y-140760289D01*
X89199394Y-140629179D01*
X89259737Y-140483497D01*
X89290500Y-140328842D01*
X89290500Y-140171158D01*
X89290500Y-140171155D01*
X89290499Y-140171153D01*
X89271545Y-140075865D01*
X89259737Y-140016503D01*
X89245219Y-139981452D01*
X89199397Y-139870827D01*
X89199390Y-139870814D01*
X89111789Y-139739711D01*
X89111786Y-139739707D01*
X89000292Y-139628213D01*
X89000288Y-139628210D01*
X88869185Y-139540609D01*
X88869172Y-139540602D01*
X88723501Y-139480264D01*
X88723489Y-139480261D01*
X88568845Y-139449500D01*
X88568842Y-139449500D01*
X88411158Y-139449500D01*
X88411155Y-139449500D01*
X88256510Y-139480261D01*
X88256498Y-139480264D01*
X88110827Y-139540602D01*
X88110814Y-139540609D01*
X87979711Y-139628210D01*
X87979707Y-139628213D01*
X87868213Y-139739707D01*
X87868210Y-139739711D01*
X87780609Y-139870814D01*
X87780603Y-139870826D01*
X87764274Y-139910247D01*
X87720432Y-139964649D01*
X87654138Y-139986713D01*
X87613718Y-139981452D01*
X87609796Y-139980262D01*
X87455145Y-139949500D01*
X87455142Y-139949500D01*
X87297458Y-139949500D01*
X87297455Y-139949500D01*
X87142810Y-139980261D01*
X87142798Y-139980264D01*
X86997127Y-140040602D01*
X86997114Y-140040609D01*
X86866011Y-140128210D01*
X86866007Y-140128213D01*
X86754513Y-140239707D01*
X86754510Y-140239711D01*
X86666909Y-140370814D01*
X86666902Y-140370827D01*
X86606564Y-140516498D01*
X86606561Y-140516510D01*
X86575800Y-140671153D01*
X82875539Y-140671153D01*
X82876291Y-140670473D01*
X82877032Y-140668926D01*
X82899728Y-140649132D01*
X82900074Y-140648897D01*
X83015475Y-140571789D01*
X83126975Y-140460289D01*
X83214580Y-140329179D01*
X83274923Y-140183497D01*
X83305686Y-140028842D01*
X83305686Y-139871158D01*
X83305686Y-139871155D01*
X83305685Y-139871153D01*
X83291032Y-139797488D01*
X83274923Y-139716503D01*
X83246534Y-139647965D01*
X83214583Y-139570827D01*
X83214576Y-139570814D01*
X83126975Y-139439711D01*
X83126972Y-139439707D01*
X83015478Y-139328213D01*
X83015474Y-139328210D01*
X82884371Y-139240609D01*
X82884358Y-139240602D01*
X82738687Y-139180264D01*
X82738675Y-139180261D01*
X82584031Y-139149500D01*
X82584028Y-139149500D01*
X82426344Y-139149500D01*
X82426341Y-139149500D01*
X82271696Y-139180261D01*
X82271684Y-139180264D01*
X82126013Y-139240602D01*
X82126000Y-139240609D01*
X81994897Y-139328210D01*
X81994893Y-139328213D01*
X81883399Y-139439707D01*
X81883396Y-139439711D01*
X81795795Y-139570814D01*
X81795788Y-139570827D01*
X81735450Y-139716498D01*
X81735447Y-139716510D01*
X81704686Y-139871153D01*
X81704686Y-140028846D01*
X81735447Y-140183489D01*
X81735450Y-140183501D01*
X81795788Y-140329172D01*
X81795795Y-140329185D01*
X81883396Y-140460288D01*
X81883399Y-140460292D01*
X81994896Y-140571789D01*
X82029796Y-140595108D01*
X82074601Y-140648720D01*
X82083308Y-140718045D01*
X82053154Y-140781072D01*
X82029797Y-140801312D01*
X81914707Y-140878213D01*
X81803213Y-140989707D01*
X81803210Y-140989711D01*
X81715609Y-141120814D01*
X81715602Y-141120827D01*
X81655264Y-141266498D01*
X81655261Y-141266510D01*
X81624500Y-141421153D01*
X79181348Y-141421153D01*
X79209394Y-141379179D01*
X79269737Y-141233497D01*
X79300500Y-141078842D01*
X79300500Y-140921158D01*
X79300306Y-140920185D01*
X79288514Y-140860903D01*
X79294741Y-140791311D01*
X79307023Y-140767828D01*
X79386467Y-140648933D01*
X79446810Y-140503251D01*
X79471339Y-140379938D01*
X79503724Y-140318027D01*
X79564439Y-140283453D01*
X79634209Y-140287192D01*
X79690881Y-140328059D01*
X79707515Y-140356673D01*
X79714520Y-140373583D01*
X79715605Y-140376202D01*
X79715607Y-140376206D01*
X79803208Y-140507309D01*
X79803211Y-140507313D01*
X79914705Y-140618807D01*
X79914709Y-140618810D01*
X80045812Y-140706411D01*
X80045825Y-140706418D01*
X80191496Y-140766756D01*
X80191501Y-140766758D01*
X80346151Y-140797520D01*
X80346154Y-140797521D01*
X80346156Y-140797521D01*
X80503842Y-140797521D01*
X80503843Y-140797520D01*
X80658495Y-140766758D01*
X80772015Y-140719737D01*
X80804170Y-140706418D01*
X80804170Y-140706417D01*
X80804177Y-140706415D01*
X80935287Y-140618810D01*
X81046787Y-140507310D01*
X81134392Y-140376200D01*
X81194735Y-140230518D01*
X81225498Y-140075863D01*
X81225498Y-139918179D01*
X81225498Y-139918176D01*
X81225497Y-139918174D01*
X81201491Y-139797488D01*
X81194735Y-139763524D01*
X81193649Y-139760903D01*
X81134395Y-139617848D01*
X81134388Y-139617835D01*
X81046787Y-139486732D01*
X81046784Y-139486728D01*
X80935290Y-139375234D01*
X80935286Y-139375231D01*
X80804183Y-139287630D01*
X80804170Y-139287623D01*
X80658499Y-139227285D01*
X80658487Y-139227282D01*
X80503843Y-139196521D01*
X80503840Y-139196521D01*
X80346156Y-139196521D01*
X80346153Y-139196521D01*
X80191508Y-139227282D01*
X80191496Y-139227285D01*
X80045825Y-139287623D01*
X80045812Y-139287630D01*
X79914709Y-139375231D01*
X79914705Y-139375234D01*
X79803211Y-139486728D01*
X79803208Y-139486732D01*
X79715607Y-139617835D01*
X79715600Y-139617848D01*
X79655262Y-139763519D01*
X79655259Y-139763529D01*
X79630731Y-139886837D01*
X79598346Y-139948748D01*
X79537630Y-139983322D01*
X79467860Y-139979581D01*
X79411188Y-139938715D01*
X79394552Y-139910094D01*
X79386470Y-139890581D01*
X79386463Y-139890568D01*
X79298862Y-139759465D01*
X79298859Y-139759461D01*
X79187365Y-139647967D01*
X79187361Y-139647964D01*
X79056258Y-139560363D01*
X79056245Y-139560356D01*
X78910574Y-139500018D01*
X78910562Y-139500015D01*
X78755918Y-139469254D01*
X78755915Y-139469254D01*
X78598231Y-139469254D01*
X78598228Y-139469254D01*
X78443578Y-139500015D01*
X78443575Y-139500016D01*
X78433471Y-139504202D01*
X78364002Y-139511668D01*
X78317131Y-139492741D01*
X78224267Y-139430691D01*
X78224254Y-139430684D01*
X78078583Y-139370346D01*
X78078571Y-139370343D01*
X77923927Y-139339582D01*
X77923924Y-139339582D01*
X77766240Y-139339582D01*
X77766237Y-139339582D01*
X77611592Y-139370343D01*
X77611580Y-139370346D01*
X77465909Y-139430684D01*
X77465896Y-139430691D01*
X77334793Y-139518292D01*
X77334789Y-139518295D01*
X77223295Y-139629789D01*
X77223292Y-139629793D01*
X77135691Y-139760896D01*
X77135684Y-139760909D01*
X77075346Y-139906580D01*
X77075343Y-139906592D01*
X77044582Y-140061235D01*
X75584735Y-140061235D01*
X75574038Y-140050538D01*
X75574034Y-140050535D01*
X75426553Y-139951990D01*
X75426540Y-139951983D01*
X75262667Y-139884106D01*
X75262658Y-139884103D01*
X75088694Y-139849500D01*
X75088691Y-139849500D01*
X74911309Y-139849500D01*
X74911306Y-139849500D01*
X74737341Y-139884103D01*
X74737332Y-139884106D01*
X74573459Y-139951983D01*
X74573446Y-139951990D01*
X74425965Y-140050535D01*
X74425961Y-140050538D01*
X74300538Y-140175961D01*
X74300535Y-140175965D01*
X74201990Y-140323446D01*
X74201983Y-140323459D01*
X74134106Y-140487332D01*
X74134103Y-140487341D01*
X74099500Y-140661304D01*
X72050500Y-140661304D01*
X72050500Y-138161304D01*
X74099500Y-138161304D01*
X74099500Y-138338695D01*
X74134103Y-138512658D01*
X74134106Y-138512667D01*
X74201983Y-138676540D01*
X74201990Y-138676553D01*
X74300535Y-138824034D01*
X74300538Y-138824038D01*
X74425961Y-138949461D01*
X74425965Y-138949464D01*
X74573446Y-139048009D01*
X74573459Y-139048016D01*
X74647886Y-139078844D01*
X74737334Y-139115894D01*
X74737336Y-139115894D01*
X74737341Y-139115896D01*
X74911304Y-139150499D01*
X74911307Y-139150500D01*
X74911309Y-139150500D01*
X75088693Y-139150500D01*
X75088694Y-139150499D01*
X75173924Y-139133546D01*
X75262658Y-139115896D01*
X75262661Y-139115894D01*
X75262666Y-139115894D01*
X75402535Y-139057958D01*
X75426540Y-139048016D01*
X75426540Y-139048015D01*
X75426547Y-139048013D01*
X75574035Y-138949464D01*
X75699464Y-138824035D01*
X75798013Y-138676547D01*
X75799986Y-138671785D01*
X75821547Y-138619730D01*
X75865894Y-138512666D01*
X75867450Y-138504847D01*
X75890540Y-138388762D01*
X75900500Y-138338691D01*
X75900500Y-138161309D01*
X75900500Y-138161306D01*
X75900499Y-138161304D01*
X75865896Y-137987341D01*
X75865893Y-137987332D01*
X75855694Y-137962710D01*
X75834402Y-137911304D01*
X75798016Y-137823459D01*
X75798009Y-137823446D01*
X75699464Y-137675965D01*
X75699461Y-137675961D01*
X75574038Y-137550538D01*
X75574034Y-137550535D01*
X75426553Y-137451990D01*
X75426540Y-137451983D01*
X75262667Y-137384106D01*
X75262658Y-137384103D01*
X75088694Y-137349500D01*
X75088691Y-137349500D01*
X74911309Y-137349500D01*
X74911306Y-137349500D01*
X74737341Y-137384103D01*
X74737332Y-137384106D01*
X74573459Y-137451983D01*
X74573446Y-137451990D01*
X74425965Y-137550535D01*
X74425961Y-137550538D01*
X74300538Y-137675961D01*
X74300535Y-137675965D01*
X74201990Y-137823446D01*
X74201983Y-137823459D01*
X74134106Y-137987332D01*
X74134103Y-137987341D01*
X74099500Y-138161304D01*
X72050500Y-138161304D01*
X72050500Y-136729521D01*
X77785686Y-136729521D01*
X77785686Y-136887214D01*
X77816447Y-137041857D01*
X77816450Y-137041869D01*
X77876788Y-137187540D01*
X77876795Y-137187553D01*
X77964396Y-137318656D01*
X77964399Y-137318660D01*
X78075893Y-137430154D01*
X78075897Y-137430157D01*
X78207000Y-137517758D01*
X78207013Y-137517765D01*
X78326434Y-137567230D01*
X78352689Y-137578105D01*
X78465276Y-137600500D01*
X78507339Y-137608867D01*
X78507342Y-137608868D01*
X78596458Y-137608868D01*
X78663497Y-137628553D01*
X78709252Y-137681357D01*
X78719196Y-137750515D01*
X78718075Y-137757060D01*
X78686517Y-137915710D01*
X78686517Y-138073401D01*
X78717278Y-138228044D01*
X78717281Y-138228056D01*
X78777619Y-138373727D01*
X78777626Y-138373740D01*
X78865227Y-138504843D01*
X78865230Y-138504847D01*
X78976724Y-138616341D01*
X78976728Y-138616344D01*
X79107831Y-138703945D01*
X79107844Y-138703952D01*
X79241700Y-138759396D01*
X79253520Y-138764292D01*
X79408170Y-138795054D01*
X79408173Y-138795055D01*
X79408175Y-138795055D01*
X79565861Y-138795055D01*
X79565862Y-138795054D01*
X79720514Y-138764292D01*
X79866196Y-138703949D01*
X79960992Y-138640607D01*
X80027669Y-138619730D01*
X80095049Y-138638214D01*
X80117564Y-138656029D01*
X80133320Y-138671785D01*
X80133324Y-138671788D01*
X80264427Y-138759389D01*
X80264440Y-138759396D01*
X80389718Y-138811287D01*
X80410116Y-138819736D01*
X80560518Y-138849653D01*
X80564766Y-138850498D01*
X80564769Y-138850499D01*
X80564771Y-138850499D01*
X80722457Y-138850499D01*
X80722458Y-138850498D01*
X80877110Y-138819736D01*
X81022792Y-138759393D01*
X81153902Y-138671788D01*
X81265402Y-138560288D01*
X81353007Y-138429178D01*
X81366410Y-138396817D01*
X81410250Y-138342414D01*
X81476543Y-138320348D01*
X81544243Y-138337626D01*
X81591855Y-138388762D01*
X81595533Y-138396817D01*
X81605435Y-138420724D01*
X81605442Y-138420737D01*
X81693043Y-138551840D01*
X81693046Y-138551844D01*
X81804540Y-138663338D01*
X81804544Y-138663341D01*
X81935647Y-138750942D01*
X81935660Y-138750949D01*
X82056764Y-138801111D01*
X82081336Y-138811289D01*
X82223061Y-138839480D01*
X82235986Y-138842051D01*
X82235989Y-138842052D01*
X82235991Y-138842052D01*
X82393677Y-138842052D01*
X82393678Y-138842051D01*
X82548330Y-138811289D01*
X82675700Y-138758531D01*
X82694005Y-138750949D01*
X82694005Y-138750948D01*
X82694012Y-138750946D01*
X82825122Y-138663341D01*
X82866998Y-138621465D01*
X84403200Y-138621465D01*
X84403200Y-138758534D01*
X84429937Y-138892949D01*
X84429940Y-138892961D01*
X84482386Y-139019578D01*
X84482393Y-139019591D01*
X84558536Y-139133546D01*
X84558539Y-139133550D01*
X84655449Y-139230460D01*
X84655453Y-139230463D01*
X84769408Y-139306606D01*
X84769421Y-139306613D01*
X84896038Y-139359059D01*
X84896043Y-139359061D01*
X84997149Y-139379172D01*
X85030465Y-139385799D01*
X85030469Y-139385800D01*
X85030470Y-139385800D01*
X85167531Y-139385800D01*
X85167532Y-139385799D01*
X85301957Y-139359061D01*
X85428585Y-139306610D01*
X85542547Y-139230463D01*
X85639463Y-139133547D01*
X85715610Y-139019585D01*
X85768061Y-138892957D01*
X85794800Y-138758530D01*
X85794800Y-138621470D01*
X85794799Y-138621465D01*
X86435200Y-138621465D01*
X86435200Y-138758534D01*
X86461937Y-138892949D01*
X86461940Y-138892961D01*
X86514386Y-139019578D01*
X86514393Y-139019591D01*
X86590536Y-139133546D01*
X86590539Y-139133550D01*
X86687449Y-139230460D01*
X86687453Y-139230463D01*
X86801408Y-139306606D01*
X86801421Y-139306613D01*
X86928038Y-139359059D01*
X86928043Y-139359061D01*
X87029149Y-139379172D01*
X87062465Y-139385799D01*
X87062469Y-139385800D01*
X87062470Y-139385800D01*
X87199531Y-139385800D01*
X87199532Y-139385799D01*
X87333957Y-139359061D01*
X87460585Y-139306610D01*
X87574547Y-139230463D01*
X87671463Y-139133547D01*
X87747610Y-139019585D01*
X87800061Y-138892957D01*
X87826800Y-138758530D01*
X87826800Y-138621470D01*
X87800061Y-138487043D01*
X87776091Y-138429174D01*
X87747613Y-138360421D01*
X87747606Y-138360408D01*
X87671463Y-138246453D01*
X87671460Y-138246449D01*
X87574550Y-138149539D01*
X87574546Y-138149536D01*
X87460591Y-138073393D01*
X87460582Y-138073388D01*
X87333959Y-138020939D01*
X87333949Y-138020937D01*
X87199534Y-137994200D01*
X87199530Y-137994200D01*
X87062470Y-137994200D01*
X87062465Y-137994200D01*
X86928050Y-138020937D01*
X86928038Y-138020940D01*
X86801421Y-138073386D01*
X86801408Y-138073393D01*
X86687453Y-138149536D01*
X86687449Y-138149539D01*
X86590539Y-138246449D01*
X86590536Y-138246453D01*
X86514393Y-138360408D01*
X86514386Y-138360421D01*
X86461940Y-138487038D01*
X86461937Y-138487050D01*
X86435200Y-138621465D01*
X85794799Y-138621465D01*
X85768061Y-138487043D01*
X85744091Y-138429174D01*
X85715613Y-138360421D01*
X85715606Y-138360408D01*
X85639463Y-138246453D01*
X85639460Y-138246449D01*
X85542550Y-138149539D01*
X85542546Y-138149536D01*
X85428591Y-138073393D01*
X85428578Y-138073386D01*
X85301961Y-138020940D01*
X85301949Y-138020937D01*
X85167534Y-137994200D01*
X85167530Y-137994200D01*
X85030470Y-137994200D01*
X85030465Y-137994200D01*
X84896050Y-138020937D01*
X84896038Y-138020940D01*
X84769421Y-138073386D01*
X84769408Y-138073393D01*
X84655453Y-138149536D01*
X84655449Y-138149539D01*
X84558539Y-138246449D01*
X84558536Y-138246453D01*
X84482393Y-138360408D01*
X84482386Y-138360421D01*
X84429940Y-138487038D01*
X84429937Y-138487050D01*
X84403200Y-138621465D01*
X82866998Y-138621465D01*
X82936622Y-138551841D01*
X82936641Y-138551811D01*
X82940201Y-138546486D01*
X83024223Y-138420737D01*
X83024223Y-138420736D01*
X83024227Y-138420731D01*
X83084570Y-138275049D01*
X83115333Y-138120394D01*
X83115333Y-137962710D01*
X83115333Y-137962707D01*
X83115332Y-137962705D01*
X83105108Y-137911304D01*
X92849500Y-137911304D01*
X92849500Y-138088695D01*
X92884103Y-138262658D01*
X92884106Y-138262667D01*
X92951983Y-138426540D01*
X92951990Y-138426553D01*
X93050535Y-138574034D01*
X93050538Y-138574038D01*
X93175961Y-138699461D01*
X93175965Y-138699464D01*
X93323446Y-138798009D01*
X93323459Y-138798016D01*
X93423564Y-138839480D01*
X93487334Y-138865894D01*
X93487336Y-138865894D01*
X93487341Y-138865896D01*
X93661304Y-138900499D01*
X93661307Y-138900500D01*
X93661309Y-138900500D01*
X93838693Y-138900500D01*
X93838694Y-138900499D01*
X93896682Y-138888964D01*
X94012658Y-138865896D01*
X94012661Y-138865894D01*
X94012666Y-138865894D01*
X94176547Y-138798013D01*
X94270677Y-138735117D01*
X94285795Y-138730383D01*
X94298676Y-138721155D01*
X94318457Y-138720156D01*
X94337354Y-138714239D01*
X94352632Y-138718430D01*
X94368457Y-138717631D01*
X94385636Y-138727483D01*
X94404734Y-138732723D01*
X94415322Y-138744510D01*
X94429066Y-138752393D01*
X94438191Y-138769969D01*
X94451425Y-138784702D01*
X94454359Y-138801111D01*
X94461260Y-138814403D01*
X94461220Y-138839480D01*
X94463040Y-138849653D01*
X94462444Y-138856080D01*
X94449500Y-138921158D01*
X94449500Y-138995871D01*
X94448972Y-139001573D01*
X94438106Y-139028939D01*
X94429815Y-139057178D01*
X94425364Y-139061034D01*
X94423190Y-139066511D01*
X94399252Y-139083660D01*
X94377011Y-139102933D01*
X94368528Y-139105672D01*
X94366392Y-139107203D01*
X94363306Y-139107358D01*
X94349691Y-139111756D01*
X94237342Y-139134103D01*
X94237332Y-139134106D01*
X94073459Y-139201983D01*
X94073446Y-139201990D01*
X93925965Y-139300535D01*
X93925961Y-139300538D01*
X93800538Y-139425961D01*
X93800535Y-139425965D01*
X93701990Y-139573446D01*
X93701983Y-139573459D01*
X93634106Y-139737332D01*
X93634103Y-139737341D01*
X93599500Y-139911304D01*
X93599500Y-140088695D01*
X93634103Y-140262658D01*
X93634106Y-140262667D01*
X93701983Y-140426540D01*
X93701990Y-140426553D01*
X93800535Y-140574034D01*
X93800538Y-140574038D01*
X93925961Y-140699461D01*
X93925965Y-140699464D01*
X94073446Y-140798009D01*
X94073459Y-140798016D01*
X94147891Y-140828846D01*
X94237334Y-140865894D01*
X94237336Y-140865894D01*
X94237341Y-140865896D01*
X94411304Y-140900499D01*
X94411307Y-140900500D01*
X94565774Y-140900500D01*
X94632813Y-140920185D01*
X94678568Y-140972989D01*
X94680335Y-140977048D01*
X94740602Y-141122548D01*
X94740609Y-141122561D01*
X94828210Y-141253664D01*
X94828213Y-141253668D01*
X94855240Y-141280695D01*
X94888725Y-141342018D01*
X94883741Y-141411710D01*
X94855240Y-141456057D01*
X94828213Y-141483083D01*
X94828210Y-141483087D01*
X94740609Y-141614190D01*
X94740602Y-141614203D01*
X94680264Y-141759874D01*
X94680261Y-141759886D01*
X94649500Y-141914529D01*
X94649500Y-142072222D01*
X94680261Y-142226865D01*
X94680264Y-142226877D01*
X94740602Y-142372548D01*
X94740609Y-142372561D01*
X94828210Y-142503664D01*
X94828213Y-142503668D01*
X94939707Y-142615162D01*
X94939711Y-142615165D01*
X95070814Y-142702766D01*
X95070827Y-142702773D01*
X95216498Y-142763111D01*
X95216503Y-142763113D01*
X95335359Y-142786755D01*
X95371153Y-142793875D01*
X95371156Y-142793876D01*
X95371158Y-142793876D01*
X95528844Y-142793876D01*
X95528845Y-142793875D01*
X95683497Y-142763113D01*
X95829179Y-142702770D01*
X95960289Y-142615165D01*
X96071789Y-142503665D01*
X96159394Y-142372555D01*
X96166538Y-142355309D01*
X96173421Y-142338691D01*
X96219737Y-142226873D01*
X96250500Y-142072218D01*
X96250500Y-141914534D01*
X96250500Y-141914531D01*
X96250499Y-141914529D01*
X96247071Y-141897294D01*
X96219737Y-141759879D01*
X96201276Y-141715309D01*
X96159397Y-141614203D01*
X96159390Y-141614190D01*
X96071789Y-141483087D01*
X96071786Y-141483083D01*
X96044760Y-141456057D01*
X96011275Y-141394734D01*
X96016259Y-141325042D01*
X96044760Y-141280695D01*
X96071786Y-141253668D01*
X96071789Y-141253665D01*
X96159394Y-141122555D01*
X96219737Y-140976873D01*
X96250500Y-140822218D01*
X96250500Y-140664534D01*
X96250500Y-140664531D01*
X96250499Y-140664529D01*
X96219737Y-140509879D01*
X96218673Y-140507310D01*
X96159397Y-140364203D01*
X96159390Y-140364190D01*
X96071789Y-140233087D01*
X96071786Y-140233083D01*
X95960292Y-140121589D01*
X95960288Y-140121586D01*
X95829185Y-140033985D01*
X95829172Y-140033978D01*
X95683501Y-139973640D01*
X95683491Y-139973637D01*
X95616739Y-139960359D01*
X95554828Y-139927973D01*
X95520254Y-139867257D01*
X95523995Y-139797488D01*
X95564862Y-139740816D01*
X95593478Y-139724181D01*
X95629179Y-139709394D01*
X95760289Y-139621789D01*
X95871789Y-139510289D01*
X95959394Y-139379179D01*
X96019737Y-139233497D01*
X96050500Y-139078842D01*
X96050500Y-138921158D01*
X96050500Y-138921155D01*
X96050499Y-138921153D01*
X96044889Y-138892949D01*
X96019737Y-138766503D01*
X96016435Y-138758530D01*
X95959397Y-138620827D01*
X95959390Y-138620814D01*
X95871789Y-138489711D01*
X95871786Y-138489707D01*
X95760292Y-138378213D01*
X95760288Y-138378210D01*
X95629185Y-138290609D01*
X95629173Y-138290602D01*
X95578896Y-138269778D01*
X95483501Y-138230264D01*
X95483489Y-138230261D01*
X95328845Y-138199500D01*
X95328842Y-138199500D01*
X95171158Y-138199500D01*
X95171155Y-138199500D01*
X95016510Y-138230261D01*
X95016498Y-138230264D01*
X94870827Y-138290602D01*
X94870809Y-138290612D01*
X94819319Y-138325017D01*
X94752642Y-138345895D01*
X94685262Y-138327410D01*
X94638572Y-138275431D01*
X94627396Y-138206461D01*
X94628812Y-138197723D01*
X94636056Y-138161304D01*
X97349500Y-138161304D01*
X97349500Y-138338695D01*
X97384103Y-138512658D01*
X97384106Y-138512667D01*
X97451983Y-138676540D01*
X97451990Y-138676553D01*
X97550535Y-138824034D01*
X97550538Y-138824038D01*
X97675961Y-138949461D01*
X97675965Y-138949464D01*
X97823446Y-139048009D01*
X97823459Y-139048016D01*
X97897886Y-139078844D01*
X97987334Y-139115894D01*
X97987336Y-139115894D01*
X97987341Y-139115896D01*
X98161304Y-139150499D01*
X98161307Y-139150500D01*
X98161309Y-139150500D01*
X98338693Y-139150500D01*
X98338694Y-139150499D01*
X98423924Y-139133546D01*
X98512658Y-139115896D01*
X98512661Y-139115894D01*
X98512666Y-139115894D01*
X98652535Y-139057958D01*
X98676540Y-139048016D01*
X98676540Y-139048015D01*
X98676547Y-139048013D01*
X98824035Y-138949464D01*
X98949464Y-138824035D01*
X99048013Y-138676547D01*
X99049986Y-138671785D01*
X99071547Y-138619730D01*
X99115894Y-138512666D01*
X99117450Y-138504847D01*
X99140540Y-138388762D01*
X99150500Y-138338691D01*
X99150500Y-138161309D01*
X99150500Y-138161306D01*
X99150499Y-138161304D01*
X99115896Y-137987341D01*
X99115893Y-137987332D01*
X99105694Y-137962710D01*
X99084402Y-137911304D01*
X99048016Y-137823459D01*
X99048009Y-137823446D01*
X98949464Y-137675965D01*
X98949461Y-137675961D01*
X98824038Y-137550538D01*
X98824034Y-137550535D01*
X98676553Y-137451990D01*
X98676540Y-137451983D01*
X98512667Y-137384106D01*
X98512658Y-137384103D01*
X98338694Y-137349500D01*
X98338691Y-137349500D01*
X98161309Y-137349500D01*
X98161306Y-137349500D01*
X97987341Y-137384103D01*
X97987332Y-137384106D01*
X97823459Y-137451983D01*
X97823446Y-137451990D01*
X97675965Y-137550535D01*
X97675961Y-137550538D01*
X97550538Y-137675961D01*
X97550535Y-137675965D01*
X97451990Y-137823446D01*
X97451983Y-137823459D01*
X97384106Y-137987332D01*
X97384103Y-137987341D01*
X97349500Y-138161304D01*
X94636056Y-138161304D01*
X94650500Y-138088693D01*
X94650500Y-137911306D01*
X94650499Y-137911304D01*
X94615896Y-137737341D01*
X94615893Y-137737332D01*
X94548016Y-137573459D01*
X94548009Y-137573446D01*
X94449464Y-137425965D01*
X94449461Y-137425961D01*
X94324038Y-137300538D01*
X94324034Y-137300535D01*
X94176553Y-137201990D01*
X94176540Y-137201983D01*
X94012667Y-137134106D01*
X94012658Y-137134103D01*
X93838694Y-137099500D01*
X93838691Y-137099500D01*
X93661309Y-137099500D01*
X93661306Y-137099500D01*
X93487341Y-137134103D01*
X93487332Y-137134106D01*
X93323459Y-137201983D01*
X93323446Y-137201990D01*
X93175965Y-137300535D01*
X93175961Y-137300538D01*
X93050538Y-137425961D01*
X93050535Y-137425965D01*
X92951990Y-137573446D01*
X92951983Y-137573459D01*
X92884106Y-137737332D01*
X92884103Y-137737341D01*
X92849500Y-137911304D01*
X83105108Y-137911304D01*
X83084571Y-137808062D01*
X83084570Y-137808055D01*
X83069305Y-137771202D01*
X83024230Y-137662379D01*
X83024223Y-137662366D01*
X83005208Y-137633908D01*
X82984330Y-137567230D01*
X83002815Y-137499850D01*
X83054794Y-137453160D01*
X83123764Y-137441984D01*
X83177202Y-137461916D01*
X83231216Y-137498008D01*
X83231231Y-137498016D01*
X83354135Y-137548923D01*
X83395106Y-137565894D01*
X83395108Y-137565894D01*
X83395113Y-137565896D01*
X83569076Y-137600499D01*
X83569079Y-137600500D01*
X83569081Y-137600500D01*
X83746465Y-137600500D01*
X83746466Y-137600499D01*
X83804454Y-137588964D01*
X83920430Y-137565896D01*
X83920433Y-137565894D01*
X83920438Y-137565894D01*
X84084319Y-137498013D01*
X84231807Y-137399464D01*
X84357236Y-137274035D01*
X84455785Y-137126547D01*
X84523666Y-136962666D01*
X84524789Y-136957023D01*
X84551242Y-136824034D01*
X84558272Y-136788691D01*
X84558272Y-136611309D01*
X84558272Y-136611306D01*
X84558271Y-136611304D01*
X84523668Y-136437341D01*
X84523665Y-136437332D01*
X84455788Y-136273459D01*
X84455781Y-136273446D01*
X84357236Y-136125965D01*
X84357233Y-136125961D01*
X84231810Y-136000538D01*
X84231806Y-136000535D01*
X84084325Y-135901990D01*
X84084312Y-135901983D01*
X83940053Y-135842230D01*
X83885649Y-135798389D01*
X83868297Y-135757529D01*
X83867663Y-135757722D01*
X83865895Y-135751896D01*
X83865894Y-135751889D01*
X83831598Y-135669091D01*
X83798016Y-135588014D01*
X83798009Y-135588001D01*
X83699464Y-135440520D01*
X83699461Y-135440516D01*
X83574038Y-135315093D01*
X83574034Y-135315090D01*
X83426553Y-135216545D01*
X83426540Y-135216538D01*
X83262667Y-135148661D01*
X83262658Y-135148658D01*
X83088694Y-135114055D01*
X83088691Y-135114055D01*
X82911309Y-135114055D01*
X82911306Y-135114055D01*
X82737341Y-135148658D01*
X82737332Y-135148661D01*
X82573459Y-135216538D01*
X82573446Y-135216545D01*
X82425965Y-135315090D01*
X82425961Y-135315093D01*
X82300538Y-135440516D01*
X82300535Y-135440520D01*
X82201990Y-135588001D01*
X82201983Y-135588014D01*
X82134106Y-135751887D01*
X82134103Y-135751896D01*
X82099500Y-135925859D01*
X82099500Y-136103250D01*
X82134103Y-136277213D01*
X82134106Y-136277222D01*
X82201983Y-136441095D01*
X82201990Y-136441108D01*
X82300535Y-136588589D01*
X82300538Y-136588593D01*
X82425961Y-136714016D01*
X82425965Y-136714019D01*
X82573446Y-136812564D01*
X82573453Y-136812568D01*
X82717720Y-136872325D01*
X82772121Y-136916163D01*
X82789475Y-136957023D01*
X82790108Y-136956831D01*
X82791878Y-136962667D01*
X82859755Y-137126540D01*
X82859762Y-137126553D01*
X82895300Y-137179739D01*
X82916178Y-137246417D01*
X82897693Y-137313797D01*
X82845714Y-137360487D01*
X82776744Y-137371663D01*
X82723307Y-137351732D01*
X82694012Y-137332158D01*
X82694005Y-137332154D01*
X82548334Y-137271816D01*
X82548322Y-137271813D01*
X82393678Y-137241052D01*
X82393675Y-137241052D01*
X82235991Y-137241052D01*
X82235988Y-137241052D01*
X82081343Y-137271813D01*
X82081331Y-137271816D01*
X81935660Y-137332154D01*
X81935647Y-137332161D01*
X81804544Y-137419762D01*
X81804540Y-137419765D01*
X81693046Y-137531259D01*
X81693043Y-137531263D01*
X81605442Y-137662366D01*
X81605439Y-137662373D01*
X81592034Y-137694735D01*
X81548192Y-137749138D01*
X81481898Y-137771202D01*
X81414198Y-137753922D01*
X81366589Y-137702784D01*
X81362911Y-137694731D01*
X81353007Y-137670820D01*
X81353005Y-137670817D01*
X81353003Y-137670813D01*
X81265402Y-137539710D01*
X81265399Y-137539706D01*
X81153905Y-137428212D01*
X81153901Y-137428209D01*
X81022798Y-137340608D01*
X81022785Y-137340601D01*
X80877114Y-137280263D01*
X80877102Y-137280260D01*
X80722458Y-137249499D01*
X80722455Y-137249499D01*
X80564771Y-137249499D01*
X80564768Y-137249499D01*
X80410123Y-137280260D01*
X80410111Y-137280263D01*
X80264440Y-137340601D01*
X80264429Y-137340607D01*
X80169636Y-137403946D01*
X80102959Y-137424823D01*
X80035579Y-137406338D01*
X80013065Y-137388524D01*
X79997309Y-137372768D01*
X79997305Y-137372765D01*
X79866202Y-137285164D01*
X79866189Y-137285157D01*
X79720518Y-137224819D01*
X79720506Y-137224816D01*
X79565862Y-137194055D01*
X79565859Y-137194055D01*
X79476745Y-137194055D01*
X79409706Y-137174370D01*
X79363951Y-137121566D01*
X79354007Y-137052408D01*
X79355128Y-137045863D01*
X79386686Y-136887212D01*
X79386686Y-136729523D01*
X79386685Y-136729521D01*
X79358652Y-136588590D01*
X79355923Y-136574871D01*
X79355921Y-136574866D01*
X79295583Y-136429195D01*
X79295576Y-136429182D01*
X79207975Y-136298079D01*
X79207972Y-136298075D01*
X79096478Y-136186581D01*
X79096474Y-136186578D01*
X78965371Y-136098977D01*
X78965358Y-136098970D01*
X78819687Y-136038632D01*
X78819675Y-136038629D01*
X78665031Y-136007868D01*
X78665028Y-136007868D01*
X78507344Y-136007868D01*
X78507341Y-136007868D01*
X78352696Y-136038629D01*
X78352684Y-136038632D01*
X78207013Y-136098970D01*
X78207000Y-136098977D01*
X78075897Y-136186578D01*
X78075893Y-136186581D01*
X77964399Y-136298075D01*
X77964396Y-136298079D01*
X77876795Y-136429182D01*
X77876788Y-136429195D01*
X77816450Y-136574866D01*
X77816447Y-136574878D01*
X77785686Y-136729521D01*
X72050500Y-136729521D01*
X72050500Y-135511402D01*
X74677912Y-135511402D01*
X74677912Y-135669095D01*
X74708673Y-135823738D01*
X74708676Y-135823750D01*
X74769014Y-135969421D01*
X74769021Y-135969434D01*
X74856622Y-136100537D01*
X74856625Y-136100541D01*
X74968119Y-136212035D01*
X74968123Y-136212038D01*
X75099226Y-136299639D01*
X75099239Y-136299646D01*
X75244910Y-136359984D01*
X75244915Y-136359986D01*
X75399565Y-136390748D01*
X75399568Y-136390749D01*
X75399570Y-136390749D01*
X75557256Y-136390749D01*
X75557257Y-136390748D01*
X75711909Y-136359986D01*
X75857591Y-136299643D01*
X75988701Y-136212038D01*
X76100201Y-136100538D01*
X76187806Y-135969428D01*
X76248149Y-135823746D01*
X76278912Y-135669091D01*
X76278912Y-135511407D01*
X76278912Y-135511404D01*
X76278911Y-135511402D01*
X76267093Y-135451990D01*
X76248149Y-135356752D01*
X76232381Y-135318684D01*
X76187809Y-135211076D01*
X76187802Y-135211063D01*
X76100201Y-135079960D01*
X76100198Y-135079956D01*
X75988704Y-134968462D01*
X75988700Y-134968459D01*
X75857597Y-134880858D01*
X75857584Y-134880851D01*
X75711913Y-134820513D01*
X75711901Y-134820510D01*
X75557257Y-134789749D01*
X75557254Y-134789749D01*
X75399570Y-134789749D01*
X75399567Y-134789749D01*
X75244922Y-134820510D01*
X75244910Y-134820513D01*
X75099239Y-134880851D01*
X75099226Y-134880858D01*
X74968123Y-134968459D01*
X74968119Y-134968462D01*
X74856625Y-135079956D01*
X74856622Y-135079960D01*
X74769021Y-135211063D01*
X74769014Y-135211076D01*
X74708676Y-135356747D01*
X74708673Y-135356759D01*
X74677912Y-135511402D01*
X72050500Y-135511402D01*
X72050500Y-133921153D01*
X77199500Y-133921153D01*
X77199500Y-134078846D01*
X77230261Y-134233489D01*
X77230264Y-134233501D01*
X77290602Y-134379172D01*
X77290609Y-134379185D01*
X77378210Y-134510288D01*
X77378213Y-134510292D01*
X77489707Y-134621786D01*
X77489711Y-134621789D01*
X77620814Y-134709390D01*
X77620827Y-134709397D01*
X77766498Y-134769735D01*
X77766503Y-134769737D01*
X77921153Y-134800499D01*
X77921156Y-134800500D01*
X77921158Y-134800500D01*
X78078844Y-134800500D01*
X78078845Y-134800499D01*
X78233497Y-134769737D01*
X78379179Y-134709394D01*
X78510289Y-134621789D01*
X78621789Y-134510289D01*
X78709394Y-134379179D01*
X78769737Y-134233497D01*
X78800500Y-134078842D01*
X78800500Y-133921158D01*
X78800500Y-133921155D01*
X78800499Y-133921153D01*
X78799870Y-133917990D01*
X78769737Y-133766503D01*
X78722871Y-133653359D01*
X78715403Y-133583891D01*
X78746678Y-133521412D01*
X78806767Y-133485760D01*
X78813203Y-133484299D01*
X78886411Y-133469737D01*
X79032093Y-133409394D01*
X79163203Y-133321789D01*
X79274703Y-133210289D01*
X79362308Y-133079179D01*
X79383452Y-133028130D01*
X79427292Y-132973729D01*
X79493585Y-132951663D01*
X79545464Y-132961022D01*
X79566503Y-132969737D01*
X79715603Y-132999395D01*
X79721153Y-133000499D01*
X79721156Y-133000500D01*
X79721158Y-133000500D01*
X79878843Y-133000500D01*
X79884398Y-132999395D01*
X79953990Y-133005622D01*
X80009168Y-133048484D01*
X80032413Y-133114374D01*
X80016346Y-133182371D01*
X79990696Y-133212785D01*
X79990962Y-133213051D01*
X79987844Y-133216168D01*
X79987258Y-133216864D01*
X79986650Y-133217362D01*
X79875157Y-133328855D01*
X79875154Y-133328859D01*
X79787553Y-133459962D01*
X79787546Y-133459975D01*
X79727208Y-133605646D01*
X79727205Y-133605658D01*
X79696444Y-133760301D01*
X79696444Y-133917994D01*
X79727205Y-134072637D01*
X79727208Y-134072649D01*
X79787546Y-134218320D01*
X79787553Y-134218333D01*
X79875154Y-134349436D01*
X79875157Y-134349440D01*
X79986651Y-134460934D01*
X79986655Y-134460937D01*
X80117758Y-134548538D01*
X80117771Y-134548545D01*
X80263442Y-134608883D01*
X80263447Y-134608885D01*
X80418097Y-134639647D01*
X80418100Y-134639648D01*
X80418102Y-134639648D01*
X80575788Y-134639648D01*
X80575789Y-134639647D01*
X80730441Y-134608885D01*
X80876123Y-134548542D01*
X81007233Y-134460937D01*
X81118733Y-134349437D01*
X81206338Y-134218327D01*
X81266681Y-134072645D01*
X81297444Y-133917990D01*
X81297444Y-133760306D01*
X81297444Y-133760303D01*
X81297443Y-133760301D01*
X81297053Y-133758338D01*
X81266681Y-133605651D01*
X81244984Y-133553270D01*
X81206341Y-133459975D01*
X81206334Y-133459962D01*
X81192117Y-133438685D01*
X81150152Y-133375881D01*
X87010495Y-133375881D01*
X87010495Y-133553272D01*
X87045098Y-133727235D01*
X87045101Y-133727244D01*
X87112978Y-133891117D01*
X87112985Y-133891130D01*
X87211530Y-134038611D01*
X87211533Y-134038615D01*
X87336956Y-134164038D01*
X87336960Y-134164041D01*
X87484441Y-134262586D01*
X87484454Y-134262593D01*
X87535207Y-134283615D01*
X87648329Y-134330471D01*
X87648331Y-134330471D01*
X87648336Y-134330473D01*
X87822299Y-134365076D01*
X87822302Y-134365077D01*
X87822304Y-134365077D01*
X87999688Y-134365077D01*
X87999689Y-134365076D01*
X88078318Y-134349436D01*
X88173653Y-134330473D01*
X88173656Y-134330471D01*
X88173661Y-134330471D01*
X88244135Y-134301280D01*
X89598129Y-134301280D01*
X89598129Y-134458973D01*
X89628890Y-134613616D01*
X89628893Y-134613628D01*
X89689231Y-134759299D01*
X89689238Y-134759312D01*
X89776839Y-134890415D01*
X89776842Y-134890419D01*
X89888336Y-135001913D01*
X89888340Y-135001916D01*
X90019443Y-135089517D01*
X90019456Y-135089524D01*
X90165127Y-135149862D01*
X90165132Y-135149864D01*
X90165136Y-135149864D01*
X90165137Y-135149865D01*
X90195037Y-135155813D01*
X90256948Y-135188198D01*
X90291522Y-135248914D01*
X90287781Y-135318684D01*
X90246915Y-135375355D01*
X90218297Y-135391991D01*
X90073459Y-135451983D01*
X90073446Y-135451990D01*
X89925965Y-135550535D01*
X89925961Y-135550538D01*
X89800538Y-135675961D01*
X89800535Y-135675965D01*
X89701990Y-135823446D01*
X89701983Y-135823459D01*
X89634106Y-135987332D01*
X89634103Y-135987341D01*
X89599500Y-136161304D01*
X89599500Y-136338695D01*
X89634103Y-136512658D01*
X89634106Y-136512667D01*
X89701983Y-136676540D01*
X89701990Y-136676553D01*
X89800535Y-136824034D01*
X89800538Y-136824038D01*
X89925961Y-136949461D01*
X89925965Y-136949464D01*
X90073446Y-137048009D01*
X90073459Y-137048016D01*
X90196363Y-137098923D01*
X90237334Y-137115894D01*
X90237336Y-137115894D01*
X90237341Y-137115896D01*
X90411304Y-137150499D01*
X90411307Y-137150500D01*
X90411309Y-137150500D01*
X90588693Y-137150500D01*
X90588694Y-137150499D01*
X90671124Y-137134103D01*
X90762658Y-137115896D01*
X90762661Y-137115894D01*
X90762666Y-137115894D01*
X90902535Y-137057958D01*
X90926540Y-137048016D01*
X90926540Y-137048015D01*
X90926547Y-137048013D01*
X91074035Y-136949464D01*
X91199464Y-136824035D01*
X91298013Y-136676547D01*
X91365894Y-136512666D01*
X91380131Y-136441095D01*
X91396264Y-136359986D01*
X91400500Y-136338691D01*
X91400500Y-136161309D01*
X91400500Y-136161306D01*
X91400499Y-136161304D01*
X91365896Y-135987341D01*
X91365893Y-135987332D01*
X91298016Y-135823459D01*
X91298009Y-135823446D01*
X91199464Y-135675965D01*
X91199461Y-135675961D01*
X91074038Y-135550538D01*
X91074034Y-135550535D01*
X90926553Y-135451990D01*
X90926540Y-135451983D01*
X90762667Y-135384106D01*
X90762659Y-135384104D01*
X90693349Y-135370317D01*
X90631438Y-135337932D01*
X90596864Y-135277216D01*
X90600605Y-135207446D01*
X90641471Y-135150774D01*
X90670081Y-135134142D01*
X90777808Y-135089521D01*
X90908918Y-135001916D01*
X91020418Y-134890416D01*
X91108023Y-134759306D01*
X91164619Y-134622669D01*
X91208459Y-134568266D01*
X91231718Y-134555565D01*
X91347542Y-134507590D01*
X91495030Y-134409041D01*
X91620459Y-134283612D01*
X91674607Y-134202574D01*
X92295495Y-134202574D01*
X92295495Y-134360267D01*
X92326256Y-134514910D01*
X92326259Y-134514922D01*
X92386597Y-134660593D01*
X92386604Y-134660606D01*
X92474205Y-134791709D01*
X92474208Y-134791713D01*
X92585702Y-134903207D01*
X92585706Y-134903210D01*
X92716809Y-134990811D01*
X92716822Y-134990818D01*
X92862493Y-135051156D01*
X92862498Y-135051158D01*
X93017148Y-135081920D01*
X93017151Y-135081921D01*
X93017153Y-135081921D01*
X93174839Y-135081921D01*
X93174840Y-135081920D01*
X93329492Y-135051158D01*
X93475174Y-134990815D01*
X93606284Y-134903210D01*
X93717784Y-134791710D01*
X93805389Y-134660600D01*
X93865732Y-134514918D01*
X93896495Y-134360263D01*
X93896495Y-134202579D01*
X93896495Y-134202576D01*
X93896494Y-134202574D01*
X93883276Y-134136122D01*
X93865732Y-134047924D01*
X93861875Y-134038612D01*
X93805392Y-133902248D01*
X93805385Y-133902235D01*
X93717784Y-133771132D01*
X93717781Y-133771128D01*
X93606287Y-133659634D01*
X93606283Y-133659631D01*
X93475180Y-133572030D01*
X93475167Y-133572023D01*
X93329496Y-133511685D01*
X93329484Y-133511682D01*
X93174840Y-133480921D01*
X93174837Y-133480921D01*
X93017153Y-133480921D01*
X93017150Y-133480921D01*
X92862505Y-133511682D01*
X92862493Y-133511685D01*
X92716822Y-133572023D01*
X92716809Y-133572030D01*
X92585706Y-133659631D01*
X92585702Y-133659634D01*
X92474208Y-133771128D01*
X92474205Y-133771132D01*
X92386604Y-133902235D01*
X92386597Y-133902248D01*
X92326259Y-134047919D01*
X92326256Y-134047931D01*
X92295495Y-134202574D01*
X91674607Y-134202574D01*
X91719008Y-134136124D01*
X91786889Y-133972243D01*
X91797052Y-133921153D01*
X91821494Y-133798272D01*
X91821495Y-133798270D01*
X91821495Y-133620883D01*
X91821494Y-133620881D01*
X91786891Y-133446918D01*
X91786888Y-133446909D01*
X91719011Y-133283036D01*
X91719004Y-133283023D01*
X91620459Y-133135542D01*
X91620456Y-133135538D01*
X91495033Y-133010115D01*
X91495029Y-133010112D01*
X91347548Y-132911567D01*
X91347542Y-132911564D01*
X91303780Y-132893437D01*
X91249377Y-132849595D01*
X91227313Y-132783301D01*
X91244593Y-132715602D01*
X91295730Y-132667992D01*
X91303753Y-132664327D01*
X91416929Y-132617449D01*
X91548039Y-132529844D01*
X91659539Y-132418344D01*
X91747144Y-132287234D01*
X91807487Y-132141552D01*
X91838250Y-131986897D01*
X91838250Y-131829213D01*
X91838250Y-131829211D01*
X91838250Y-131829210D01*
X91838249Y-131829208D01*
X91832001Y-131797799D01*
X91807487Y-131674558D01*
X91807124Y-131673681D01*
X91747147Y-131528882D01*
X91747140Y-131528869D01*
X91659539Y-131397766D01*
X91659536Y-131397762D01*
X91548042Y-131286268D01*
X91548038Y-131286265D01*
X91416935Y-131198664D01*
X91416926Y-131198659D01*
X91306735Y-131153017D01*
X91252332Y-131109176D01*
X91230267Y-131042882D01*
X91232572Y-131014258D01*
X91233127Y-131011468D01*
X91233127Y-130853782D01*
X91233126Y-130853780D01*
X91224226Y-130809039D01*
X91202364Y-130699130D01*
X91186188Y-130660078D01*
X91142024Y-130553454D01*
X91142017Y-130553441D01*
X91054416Y-130422338D01*
X91054413Y-130422334D01*
X90942919Y-130310840D01*
X90942915Y-130310837D01*
X90811812Y-130223236D01*
X90811799Y-130223229D01*
X90666128Y-130162891D01*
X90666116Y-130162888D01*
X90511472Y-130132127D01*
X90511469Y-130132127D01*
X90353785Y-130132127D01*
X90353782Y-130132127D01*
X90199137Y-130162888D01*
X90199125Y-130162891D01*
X90053454Y-130223229D01*
X90053441Y-130223236D01*
X89922338Y-130310837D01*
X89922334Y-130310840D01*
X89810840Y-130422334D01*
X89810837Y-130422338D01*
X89723236Y-130553441D01*
X89723229Y-130553454D01*
X89662891Y-130699125D01*
X89662888Y-130699137D01*
X89632127Y-130853780D01*
X89632127Y-131011473D01*
X89662888Y-131166116D01*
X89662891Y-131166128D01*
X89723229Y-131311799D01*
X89723236Y-131311812D01*
X89810837Y-131442915D01*
X89810840Y-131442919D01*
X89922334Y-131554413D01*
X89922338Y-131554416D01*
X90053441Y-131642017D01*
X90053454Y-131642024D01*
X90163640Y-131687664D01*
X90218044Y-131731505D01*
X90240109Y-131797799D01*
X90237808Y-131826405D01*
X90237250Y-131829211D01*
X90237250Y-131986901D01*
X90268011Y-132141544D01*
X90268014Y-132141556D01*
X90328352Y-132287227D01*
X90328359Y-132287240D01*
X90415960Y-132418343D01*
X90415963Y-132418347D01*
X90527457Y-132529841D01*
X90527461Y-132529844D01*
X90658564Y-132617445D01*
X90663941Y-132620319D01*
X90662868Y-132622326D01*
X90709363Y-132659791D01*
X90731432Y-132726084D01*
X90714156Y-132793784D01*
X90663021Y-132841397D01*
X90654963Y-132845077D01*
X90494454Y-132911560D01*
X90494441Y-132911567D01*
X90346960Y-133010112D01*
X90346956Y-133010115D01*
X90221533Y-133135538D01*
X90221530Y-133135542D01*
X90122985Y-133283023D01*
X90122978Y-133283036D01*
X90055101Y-133446909D01*
X90055098Y-133446918D01*
X90019306Y-133626860D01*
X90016595Y-133626320D01*
X89994735Y-133680126D01*
X89966550Y-133706079D01*
X89888336Y-133758340D01*
X89776842Y-133869834D01*
X89776839Y-133869838D01*
X89689238Y-134000941D01*
X89689231Y-134000954D01*
X89628893Y-134146625D01*
X89628890Y-134146637D01*
X89598129Y-134301280D01*
X88244135Y-134301280D01*
X88337542Y-134262590D01*
X88427362Y-134202574D01*
X88443051Y-134192091D01*
X88457167Y-134182658D01*
X88485030Y-134164041D01*
X88610459Y-134038612D01*
X88709008Y-133891124D01*
X88776889Y-133727243D01*
X88790338Y-133659634D01*
X88807763Y-133572030D01*
X88811495Y-133553268D01*
X88811495Y-133375886D01*
X88811495Y-133375883D01*
X88811494Y-133375881D01*
X88776891Y-133201918D01*
X88776888Y-133201909D01*
X88709011Y-133038036D01*
X88709004Y-133038023D01*
X88610459Y-132890542D01*
X88610456Y-132890538D01*
X88485033Y-132765115D01*
X88485029Y-132765112D01*
X88332477Y-132663179D01*
X88334011Y-132660882D01*
X88292646Y-132620191D01*
X88277234Y-132552042D01*
X88301113Y-132486380D01*
X88332094Y-132456772D01*
X88397570Y-132413023D01*
X88509070Y-132301523D01*
X88596675Y-132170413D01*
X88657018Y-132024731D01*
X88687781Y-131870076D01*
X88687781Y-131842707D01*
X88707466Y-131775668D01*
X88742891Y-131739605D01*
X88841552Y-131673681D01*
X88860462Y-131661046D01*
X88971962Y-131549546D01*
X89059567Y-131418436D01*
X89061533Y-131413691D01*
X89097633Y-131326536D01*
X89119910Y-131272754D01*
X89150673Y-131118099D01*
X89150673Y-130960415D01*
X89150673Y-130960412D01*
X89150672Y-130960410D01*
X89138348Y-130898453D01*
X89119910Y-130805760D01*
X89119908Y-130805755D01*
X89059570Y-130660084D01*
X89059563Y-130660071D01*
X88971962Y-130528968D01*
X88971959Y-130528964D01*
X88860465Y-130417470D01*
X88860461Y-130417467D01*
X88729358Y-130329866D01*
X88729345Y-130329859D01*
X88583674Y-130269521D01*
X88583662Y-130269518D01*
X88429018Y-130238757D01*
X88429015Y-130238757D01*
X88271331Y-130238757D01*
X88271328Y-130238757D01*
X88116683Y-130269518D01*
X88116671Y-130269521D01*
X87971000Y-130329859D01*
X87970987Y-130329866D01*
X87839884Y-130417467D01*
X87839880Y-130417470D01*
X87728386Y-130528964D01*
X87728383Y-130528968D01*
X87640782Y-130660071D01*
X87640775Y-130660084D01*
X87580437Y-130805755D01*
X87580434Y-130805767D01*
X87549673Y-130960410D01*
X87549673Y-130987784D01*
X87529988Y-131054823D01*
X87494563Y-131090886D01*
X87376996Y-131169441D01*
X87376988Y-131169447D01*
X87265494Y-131280941D01*
X87265491Y-131280945D01*
X87177890Y-131412048D01*
X87177883Y-131412061D01*
X87117545Y-131557732D01*
X87117542Y-131557744D01*
X87086781Y-131712387D01*
X87086781Y-131870080D01*
X87117542Y-132024723D01*
X87117545Y-132024735D01*
X87177883Y-132170406D01*
X87177890Y-132170419D01*
X87265491Y-132301522D01*
X87265494Y-132301526D01*
X87376988Y-132413020D01*
X87376992Y-132413023D01*
X87466141Y-132472591D01*
X87510946Y-132526203D01*
X87519653Y-132595528D01*
X87489498Y-132658556D01*
X87466142Y-132678795D01*
X87336956Y-132765115D01*
X87211533Y-132890538D01*
X87211530Y-132890542D01*
X87112985Y-133038023D01*
X87112978Y-133038036D01*
X87045101Y-133201909D01*
X87045098Y-133201918D01*
X87010495Y-133375881D01*
X81150152Y-133375881D01*
X81118733Y-133328859D01*
X81118730Y-133328855D01*
X81007236Y-133217361D01*
X81007232Y-133217358D01*
X80876129Y-133129757D01*
X80876116Y-133129750D01*
X80730445Y-133069412D01*
X80730433Y-133069409D01*
X80575789Y-133038648D01*
X80575786Y-133038648D01*
X80418102Y-133038648D01*
X80418100Y-133038648D01*
X80412532Y-133039755D01*
X80342941Y-133033521D01*
X80287768Y-132990653D01*
X80264529Y-132924761D01*
X80280603Y-132856766D01*
X80306248Y-132826363D01*
X80305982Y-132826097D01*
X80309128Y-132822950D01*
X80309705Y-132822267D01*
X80310276Y-132821797D01*
X80310289Y-132821789D01*
X80421789Y-132710289D01*
X80509394Y-132579179D01*
X80569737Y-132433497D01*
X80600500Y-132278842D01*
X80600500Y-132121158D01*
X80600500Y-132121155D01*
X80600499Y-132121153D01*
X80569737Y-131966503D01*
X80550955Y-131921158D01*
X80509397Y-131820827D01*
X80509390Y-131820814D01*
X80421789Y-131689711D01*
X80421786Y-131689707D01*
X80310292Y-131578213D01*
X80310288Y-131578210D01*
X80179185Y-131490609D01*
X80179172Y-131490602D01*
X80116301Y-131464561D01*
X80105245Y-131455652D01*
X80091829Y-131451009D01*
X80078584Y-131434168D01*
X80061897Y-131420721D01*
X80057412Y-131407247D01*
X80048637Y-131396089D01*
X80046599Y-131374760D01*
X80039832Y-131354427D01*
X80043343Y-131340670D01*
X80041993Y-131326536D01*
X80051811Y-131307489D01*
X80057111Y-131286727D01*
X80068126Y-131275841D01*
X80074008Y-131264433D01*
X80092500Y-131251755D01*
X80101750Y-131242615D01*
X80108791Y-131238549D01*
X80114211Y-131236304D01*
X82349500Y-131236304D01*
X82349500Y-131413695D01*
X82384103Y-131587658D01*
X82384106Y-131587667D01*
X82451983Y-131751539D01*
X82451989Y-131751550D01*
X82488746Y-131806561D01*
X82509623Y-131873238D01*
X82500204Y-131922902D01*
X82473697Y-131986901D01*
X82464575Y-132008923D01*
X82464573Y-132008927D01*
X82429970Y-132182890D01*
X82429970Y-132360281D01*
X82464573Y-132534244D01*
X82464576Y-132534253D01*
X82532453Y-132698126D01*
X82532460Y-132698139D01*
X82631005Y-132845620D01*
X82631008Y-132845624D01*
X82756431Y-132971047D01*
X82756435Y-132971050D01*
X82903916Y-133069595D01*
X82903929Y-133069602D01*
X83016207Y-133116108D01*
X83067804Y-133137480D01*
X83067806Y-133137480D01*
X83067811Y-133137482D01*
X83241774Y-133172085D01*
X83241777Y-133172086D01*
X83241779Y-133172086D01*
X83419163Y-133172086D01*
X83419164Y-133172085D01*
X83477152Y-133160550D01*
X83593128Y-133137482D01*
X83593131Y-133137480D01*
X83593136Y-133137480D01*
X83757017Y-133069599D01*
X83904505Y-132971050D01*
X84029934Y-132845621D01*
X84128483Y-132698133D01*
X84132206Y-132689146D01*
X84160105Y-132621789D01*
X84196364Y-132534252D01*
X84197242Y-132529841D01*
X84227210Y-132379179D01*
X84230970Y-132360277D01*
X84230970Y-132182895D01*
X84230970Y-132182892D01*
X84230969Y-132182890D01*
X84196366Y-132008927D01*
X84196363Y-132008918D01*
X84187728Y-131988070D01*
X84128483Y-131845039D01*
X84091724Y-131790025D01*
X84070846Y-131723348D01*
X84080265Y-131673681D01*
X84115894Y-131587666D01*
X84150500Y-131413691D01*
X84150500Y-131236309D01*
X84150500Y-131236306D01*
X84150499Y-131236304D01*
X84115896Y-131062341D01*
X84115893Y-131062332D01*
X84048016Y-130898459D01*
X84048009Y-130898446D01*
X83949464Y-130750965D01*
X83949461Y-130750961D01*
X83824038Y-130625538D01*
X83824034Y-130625535D01*
X83676553Y-130526990D01*
X83676540Y-130526983D01*
X83512667Y-130459106D01*
X83512658Y-130459103D01*
X83338694Y-130424500D01*
X83338691Y-130424500D01*
X83161309Y-130424500D01*
X83161306Y-130424500D01*
X82987341Y-130459103D01*
X82987332Y-130459106D01*
X82823459Y-130526983D01*
X82823446Y-130526990D01*
X82675965Y-130625535D01*
X82675961Y-130625538D01*
X82550538Y-130750961D01*
X82550535Y-130750965D01*
X82451990Y-130898446D01*
X82451983Y-130898459D01*
X82384106Y-131062332D01*
X82384103Y-131062341D01*
X82349500Y-131236304D01*
X80114211Y-131236304D01*
X80179179Y-131209394D01*
X80310289Y-131121789D01*
X80421789Y-131010289D01*
X80509394Y-130879179D01*
X80569737Y-130733497D01*
X80600500Y-130578842D01*
X80600500Y-130421158D01*
X80600500Y-130421155D01*
X80600499Y-130421153D01*
X80582339Y-130329859D01*
X80569737Y-130266503D01*
X80558244Y-130238757D01*
X80509397Y-130120827D01*
X80509390Y-130120814D01*
X80421789Y-129989711D01*
X80421786Y-129989707D01*
X80310292Y-129878213D01*
X80310288Y-129878210D01*
X80179185Y-129790609D01*
X80179178Y-129790605D01*
X80174557Y-129788691D01*
X80172886Y-129787999D01*
X80118483Y-129744160D01*
X80096417Y-129677866D01*
X80113695Y-129610166D01*
X80151446Y-129570336D01*
X80216620Y-129526789D01*
X80328120Y-129415289D01*
X80415725Y-129284179D01*
X80476068Y-129138497D01*
X80506831Y-128983842D01*
X80506831Y-128826158D01*
X80506831Y-128826155D01*
X80506830Y-128826153D01*
X80494964Y-128766498D01*
X80476068Y-128671503D01*
X80464067Y-128642530D01*
X80415728Y-128525827D01*
X80415721Y-128525814D01*
X80328120Y-128394711D01*
X80328117Y-128394707D01*
X80216623Y-128283213D01*
X80216619Y-128283210D01*
X80085516Y-128195609D01*
X80085503Y-128195602D01*
X79939832Y-128135264D01*
X79939820Y-128135261D01*
X79785176Y-128104500D01*
X79785173Y-128104500D01*
X79627489Y-128104500D01*
X79627486Y-128104500D01*
X79472841Y-128135261D01*
X79472829Y-128135264D01*
X79327158Y-128195602D01*
X79327145Y-128195609D01*
X79196042Y-128283210D01*
X79196038Y-128283213D01*
X79084544Y-128394707D01*
X79084541Y-128394711D01*
X78996940Y-128525814D01*
X78996933Y-128525827D01*
X78936595Y-128671498D01*
X78936592Y-128671510D01*
X78905831Y-128826153D01*
X78905831Y-128983846D01*
X78936592Y-129138489D01*
X78936595Y-129138501D01*
X78996933Y-129284172D01*
X78996940Y-129284185D01*
X79084541Y-129415288D01*
X79084544Y-129415292D01*
X79196038Y-129526786D01*
X79196042Y-129526789D01*
X79327145Y-129614390D01*
X79327150Y-129614393D01*
X79327151Y-129614393D01*
X79327152Y-129614394D01*
X79333439Y-129616998D01*
X79387844Y-129660835D01*
X79409913Y-129727128D01*
X79392638Y-129794828D01*
X79354884Y-129834662D01*
X79289713Y-129878208D01*
X79289707Y-129878213D01*
X79178213Y-129989707D01*
X79178210Y-129989711D01*
X79090609Y-130120814D01*
X79090602Y-130120827D01*
X79030264Y-130266498D01*
X79030261Y-130266510D01*
X78999500Y-130421153D01*
X78999500Y-130578846D01*
X79030261Y-130733489D01*
X79030264Y-130733501D01*
X79090602Y-130879172D01*
X79090609Y-130879185D01*
X79178210Y-131010288D01*
X79178213Y-131010292D01*
X79289707Y-131121786D01*
X79289711Y-131121789D01*
X79420814Y-131209390D01*
X79420823Y-131209395D01*
X79483699Y-131235439D01*
X79538102Y-131279280D01*
X79560167Y-131345574D01*
X79542888Y-131413273D01*
X79491751Y-131460884D01*
X79483699Y-131464561D01*
X79420823Y-131490604D01*
X79420814Y-131490609D01*
X79289711Y-131578210D01*
X79289707Y-131578213D01*
X79178213Y-131689707D01*
X79107089Y-131796151D01*
X79053476Y-131840955D01*
X78984151Y-131849662D01*
X78921124Y-131819507D01*
X78884405Y-131760064D01*
X78882370Y-131703069D01*
X78898729Y-131620827D01*
X78903414Y-131597277D01*
X78903414Y-131439588D01*
X78903413Y-131439586D01*
X78898263Y-131413695D01*
X78872651Y-131284936D01*
X78867602Y-131272746D01*
X78812311Y-131139260D01*
X78812304Y-131139247D01*
X78724703Y-131008144D01*
X78724700Y-131008140D01*
X78613206Y-130896646D01*
X78613202Y-130896643D01*
X78482099Y-130809042D01*
X78482086Y-130809035D01*
X78336415Y-130748697D01*
X78336403Y-130748694D01*
X78181759Y-130717933D01*
X78181756Y-130717933D01*
X78024072Y-130717933D01*
X78024069Y-130717933D01*
X77869424Y-130748694D01*
X77869412Y-130748697D01*
X77723741Y-130809035D01*
X77723728Y-130809042D01*
X77592625Y-130896643D01*
X77592621Y-130896646D01*
X77481127Y-131008140D01*
X77481124Y-131008144D01*
X77393523Y-131139247D01*
X77393516Y-131139260D01*
X77333178Y-131284931D01*
X77333175Y-131284943D01*
X77302414Y-131439586D01*
X77302414Y-131597279D01*
X77333175Y-131751922D01*
X77333178Y-131751934D01*
X77393516Y-131897605D01*
X77393523Y-131897618D01*
X77481124Y-132028721D01*
X77481127Y-132028725D01*
X77592621Y-132140219D01*
X77592625Y-132140222D01*
X77723728Y-132227823D01*
X77723740Y-132227830D01*
X77829650Y-132271698D01*
X77884054Y-132315538D01*
X77906119Y-132381832D01*
X77896760Y-132433710D01*
X77883177Y-132466503D01*
X77883175Y-132466510D01*
X77852414Y-132621153D01*
X77852414Y-132778846D01*
X77883175Y-132933489D01*
X77883178Y-132933501D01*
X77930041Y-133046639D01*
X77937510Y-133116108D01*
X77906234Y-133178587D01*
X77846145Y-133214239D01*
X77839672Y-133215708D01*
X77766508Y-133230261D01*
X77766498Y-133230264D01*
X77620827Y-133290602D01*
X77620814Y-133290609D01*
X77489711Y-133378210D01*
X77489707Y-133378213D01*
X77378213Y-133489707D01*
X77378210Y-133489711D01*
X77290609Y-133620814D01*
X77290602Y-133620827D01*
X77230264Y-133766498D01*
X77230261Y-133766510D01*
X77199500Y-133921153D01*
X72050500Y-133921153D01*
X72050500Y-131921153D01*
X74299500Y-131921153D01*
X74299500Y-132078846D01*
X74330261Y-132233489D01*
X74330264Y-132233501D01*
X74390602Y-132379172D01*
X74390609Y-132379185D01*
X74478210Y-132510288D01*
X74478213Y-132510292D01*
X74589707Y-132621786D01*
X74589711Y-132621789D01*
X74720814Y-132709390D01*
X74720827Y-132709397D01*
X74855344Y-132765115D01*
X74866503Y-132769737D01*
X74987395Y-132793784D01*
X75021153Y-132800499D01*
X75021156Y-132800500D01*
X75021158Y-132800500D01*
X75178844Y-132800500D01*
X75178845Y-132800499D01*
X75333497Y-132769737D01*
X75446166Y-132723067D01*
X75479172Y-132709397D01*
X75479172Y-132709396D01*
X75479179Y-132709394D01*
X75610289Y-132621789D01*
X75721789Y-132510289D01*
X75809394Y-132379179D01*
X75869737Y-132233497D01*
X75900500Y-132078842D01*
X75900500Y-131921158D01*
X75900500Y-131921155D01*
X75900499Y-131921153D01*
X75885359Y-131845039D01*
X75869737Y-131766503D01*
X75863701Y-131751930D01*
X75809397Y-131620827D01*
X75809390Y-131620814D01*
X75721789Y-131489711D01*
X75721786Y-131489707D01*
X75610292Y-131378213D01*
X75610288Y-131378210D01*
X75479185Y-131290609D01*
X75479172Y-131290602D01*
X75333501Y-131230264D01*
X75333489Y-131230261D01*
X75178845Y-131199500D01*
X75178842Y-131199500D01*
X75021158Y-131199500D01*
X75021155Y-131199500D01*
X74866510Y-131230261D01*
X74866498Y-131230264D01*
X74720827Y-131290602D01*
X74720814Y-131290609D01*
X74589711Y-131378210D01*
X74589707Y-131378213D01*
X74478213Y-131489707D01*
X74478210Y-131489711D01*
X74390609Y-131620814D01*
X74390602Y-131620827D01*
X74330264Y-131766498D01*
X74330261Y-131766510D01*
X74299500Y-131921153D01*
X72050500Y-131921153D01*
X72050500Y-126796197D01*
X82470129Y-126796197D01*
X82470129Y-126973588D01*
X82504732Y-127147551D01*
X82504735Y-127147560D01*
X82574947Y-127317069D01*
X82573203Y-127317791D01*
X82585653Y-127377594D01*
X82573986Y-127417341D01*
X82575154Y-127417825D01*
X82504942Y-127587332D01*
X82504939Y-127587341D01*
X82470336Y-127761304D01*
X82470336Y-127938695D01*
X82504939Y-128112658D01*
X82504942Y-128112667D01*
X82572819Y-128276540D01*
X82572826Y-128276553D01*
X82671371Y-128424034D01*
X82671374Y-128424038D01*
X82754733Y-128507397D01*
X82788218Y-128568720D01*
X82783234Y-128638412D01*
X82781613Y-128642530D01*
X82730264Y-128766498D01*
X82730261Y-128766510D01*
X82699500Y-128921153D01*
X82699500Y-129078846D01*
X82730261Y-129233489D01*
X82730264Y-129233501D01*
X82790602Y-129379172D01*
X82790609Y-129379185D01*
X82878210Y-129510288D01*
X82878213Y-129510292D01*
X82989707Y-129621786D01*
X82989711Y-129621789D01*
X83120814Y-129709390D01*
X83120827Y-129709397D01*
X83266498Y-129769735D01*
X83266503Y-129769737D01*
X83421153Y-129800499D01*
X83421156Y-129800500D01*
X83421158Y-129800500D01*
X83578844Y-129800500D01*
X83578845Y-129800499D01*
X83733497Y-129769737D01*
X83873875Y-129711591D01*
X83879172Y-129709397D01*
X83879172Y-129709396D01*
X83879179Y-129709394D01*
X84010289Y-129621789D01*
X84121789Y-129510289D01*
X84209394Y-129379179D01*
X84269737Y-129233497D01*
X84300500Y-129078842D01*
X84300500Y-128921158D01*
X84300500Y-128921155D01*
X84300499Y-128921153D01*
X84288725Y-128861962D01*
X84269737Y-128766503D01*
X84244103Y-128704616D01*
X84209397Y-128620827D01*
X84209390Y-128620814D01*
X84120134Y-128487234D01*
X84099256Y-128420557D01*
X84117740Y-128353177D01*
X84120098Y-128349506D01*
X84168849Y-128276547D01*
X84168850Y-128276543D01*
X84168852Y-128276541D01*
X84204960Y-128189367D01*
X90132995Y-128189367D01*
X90132995Y-128366758D01*
X90167598Y-128540721D01*
X90167601Y-128540730D01*
X90235478Y-128704603D01*
X90235485Y-128704616D01*
X90334030Y-128852097D01*
X90334033Y-128852101D01*
X90459456Y-128977524D01*
X90459460Y-128977527D01*
X90606941Y-129076072D01*
X90606954Y-129076079D01*
X90729858Y-129126986D01*
X90770829Y-129143957D01*
X90770831Y-129143957D01*
X90770836Y-129143959D01*
X90944799Y-129178562D01*
X90944802Y-129178563D01*
X90944804Y-129178563D01*
X91122188Y-129178563D01*
X91122189Y-129178562D01*
X91180177Y-129167027D01*
X91296153Y-129143959D01*
X91296156Y-129143957D01*
X91296161Y-129143957D01*
X91453355Y-129078846D01*
X91460035Y-129076079D01*
X91460035Y-129076078D01*
X91460042Y-129076076D01*
X91607530Y-128977527D01*
X91629327Y-128955730D01*
X92949500Y-128955730D01*
X92949500Y-129113423D01*
X92980261Y-129268066D01*
X92980264Y-129268078D01*
X93040602Y-129413749D01*
X93040609Y-129413762D01*
X93128210Y-129544865D01*
X93128213Y-129544869D01*
X93239708Y-129656364D01*
X93239711Y-129656366D01*
X93246399Y-129660835D01*
X93256451Y-129667551D01*
X93301256Y-129721163D01*
X93309965Y-129790488D01*
X93290663Y-129839544D01*
X93193809Y-129984496D01*
X93193799Y-129984514D01*
X93125922Y-130148387D01*
X93125919Y-130148396D01*
X93091316Y-130322359D01*
X93091316Y-130499750D01*
X93125919Y-130673713D01*
X93125922Y-130673722D01*
X93193799Y-130837595D01*
X93193806Y-130837608D01*
X93292351Y-130985089D01*
X93292354Y-130985093D01*
X93372588Y-131065327D01*
X93406073Y-131126650D01*
X93401089Y-131196342D01*
X93372589Y-131240689D01*
X93296176Y-131317102D01*
X93197631Y-131464583D01*
X93197624Y-131464596D01*
X93129747Y-131628469D01*
X93129744Y-131628478D01*
X93095141Y-131802441D01*
X93095141Y-131979832D01*
X93129744Y-132153795D01*
X93129747Y-132153804D01*
X93197624Y-132317677D01*
X93197631Y-132317690D01*
X93296176Y-132465171D01*
X93296179Y-132465175D01*
X93421602Y-132590598D01*
X93421606Y-132590601D01*
X93569087Y-132689146D01*
X93569100Y-132689153D01*
X93692004Y-132740060D01*
X93732975Y-132757031D01*
X93732977Y-132757031D01*
X93732982Y-132757033D01*
X93906945Y-132791636D01*
X93906948Y-132791637D01*
X93906950Y-132791637D01*
X94084334Y-132791637D01*
X94084335Y-132791636D01*
X94148636Y-132778846D01*
X94258299Y-132757033D01*
X94258302Y-132757031D01*
X94258307Y-132757031D01*
X94422188Y-132689150D01*
X94569676Y-132590601D01*
X94695105Y-132465172D01*
X94793654Y-132317684D01*
X94861535Y-132153803D01*
X94863974Y-132141544D01*
X94886415Y-132028722D01*
X94896141Y-131979828D01*
X94896141Y-131802446D01*
X94896141Y-131802443D01*
X94896140Y-131802441D01*
X94861537Y-131628478D01*
X94861534Y-131628469D01*
X94793657Y-131464596D01*
X94793650Y-131464583D01*
X94695105Y-131317102D01*
X94695102Y-131317098D01*
X94614868Y-131236864D01*
X94581383Y-131175541D01*
X94586367Y-131105849D01*
X94614866Y-131061503D01*
X94691280Y-130985090D01*
X94789829Y-130837602D01*
X94857710Y-130673721D01*
X94860426Y-130660071D01*
X94892315Y-130499750D01*
X94892316Y-130499748D01*
X94892316Y-130322361D01*
X94892315Y-130322359D01*
X94857712Y-130148396D01*
X94857709Y-130148387D01*
X94789832Y-129984514D01*
X94789825Y-129984501D01*
X94691280Y-129837020D01*
X94691277Y-129837016D01*
X94565854Y-129711593D01*
X94565850Y-129711590D01*
X94457773Y-129639375D01*
X94412968Y-129585763D01*
X94404261Y-129516438D01*
X94423563Y-129467381D01*
X94459389Y-129413764D01*
X94459390Y-129413761D01*
X94459394Y-129413756D01*
X94519737Y-129268074D01*
X94550500Y-129113419D01*
X94550500Y-128955735D01*
X94550500Y-128955732D01*
X94550499Y-128955730D01*
X94543622Y-128921158D01*
X94519737Y-128801080D01*
X94479778Y-128704610D01*
X94459397Y-128655404D01*
X94459390Y-128655391D01*
X94371789Y-128524288D01*
X94371786Y-128524284D01*
X94260292Y-128412790D01*
X94260288Y-128412787D01*
X94129185Y-128325186D01*
X94129172Y-128325179D01*
X93983501Y-128264841D01*
X93983489Y-128264838D01*
X93828845Y-128234077D01*
X93828842Y-128234077D01*
X93671158Y-128234077D01*
X93671155Y-128234077D01*
X93516510Y-128264838D01*
X93516498Y-128264841D01*
X93370827Y-128325179D01*
X93370814Y-128325186D01*
X93239711Y-128412787D01*
X93239707Y-128412790D01*
X93128213Y-128524284D01*
X93128210Y-128524288D01*
X93040609Y-128655391D01*
X93040602Y-128655404D01*
X92980264Y-128801075D01*
X92980261Y-128801087D01*
X92949500Y-128955730D01*
X91629327Y-128955730D01*
X91663904Y-128921153D01*
X91723096Y-128861962D01*
X91732956Y-128852101D01*
X91732959Y-128852098D01*
X91831508Y-128704610D01*
X91899389Y-128540729D01*
X91902354Y-128525827D01*
X91933994Y-128366758D01*
X91933995Y-128366756D01*
X91933995Y-128189369D01*
X91933994Y-128189367D01*
X91899391Y-128015404D01*
X91899388Y-128015395D01*
X91831511Y-127851522D01*
X91831504Y-127851509D01*
X91732959Y-127704028D01*
X91732956Y-127704024D01*
X91607533Y-127578601D01*
X91607529Y-127578598D01*
X91460048Y-127480053D01*
X91460035Y-127480046D01*
X91296162Y-127412169D01*
X91296153Y-127412166D01*
X91122189Y-127377563D01*
X91122186Y-127377563D01*
X90944804Y-127377563D01*
X90944801Y-127377563D01*
X90770836Y-127412166D01*
X90770827Y-127412169D01*
X90606954Y-127480046D01*
X90606941Y-127480053D01*
X90459460Y-127578598D01*
X90459456Y-127578601D01*
X90334033Y-127704024D01*
X90334030Y-127704028D01*
X90235485Y-127851509D01*
X90235478Y-127851522D01*
X90167601Y-128015395D01*
X90167598Y-128015404D01*
X90132995Y-128189367D01*
X84204960Y-128189367D01*
X84227136Y-128135828D01*
X84227371Y-128135261D01*
X84236730Y-128112666D01*
X84238355Y-128104500D01*
X84271335Y-127938695D01*
X84271336Y-127938693D01*
X84271336Y-127761306D01*
X84271335Y-127761304D01*
X84236732Y-127587341D01*
X84236729Y-127587332D01*
X84166518Y-127417824D01*
X84168266Y-127417099D01*
X84155809Y-127357330D01*
X84167487Y-127317556D01*
X84166311Y-127317069D01*
X84201331Y-127232518D01*
X84236523Y-127147559D01*
X84256324Y-127048016D01*
X84271128Y-126973588D01*
X84271129Y-126973586D01*
X84271129Y-126796199D01*
X84271128Y-126796197D01*
X84236525Y-126622234D01*
X84236522Y-126622225D01*
X84168645Y-126458352D01*
X84168638Y-126458339D01*
X84070093Y-126310858D01*
X84070090Y-126310854D01*
X83944667Y-126185431D01*
X83944663Y-126185428D01*
X83908559Y-126161304D01*
X86099500Y-126161304D01*
X86099500Y-126338695D01*
X86134103Y-126512658D01*
X86134106Y-126512667D01*
X86201983Y-126676540D01*
X86201990Y-126676553D01*
X86300535Y-126824034D01*
X86300538Y-126824038D01*
X86425961Y-126949461D01*
X86425965Y-126949464D01*
X86573446Y-127048009D01*
X86573459Y-127048016D01*
X86696363Y-127098923D01*
X86737334Y-127115894D01*
X86737336Y-127115894D01*
X86737341Y-127115896D01*
X86911304Y-127150499D01*
X86911307Y-127150500D01*
X86911309Y-127150500D01*
X87088693Y-127150500D01*
X87088694Y-127150499D01*
X87146682Y-127138964D01*
X87262658Y-127115896D01*
X87262661Y-127115894D01*
X87262666Y-127115894D01*
X87426547Y-127048013D01*
X87574035Y-126949464D01*
X87699464Y-126824035D01*
X87798013Y-126676547D01*
X87865894Y-126512666D01*
X87876701Y-126458339D01*
X87900499Y-126338695D01*
X87900500Y-126338693D01*
X87900500Y-126161306D01*
X87900499Y-126161304D01*
X87865896Y-125987341D01*
X87865893Y-125987332D01*
X87798016Y-125823459D01*
X87798009Y-125823446D01*
X87699464Y-125675965D01*
X87699461Y-125675961D01*
X87574038Y-125550538D01*
X87574034Y-125550535D01*
X87426553Y-125451990D01*
X87426540Y-125451983D01*
X87262667Y-125384106D01*
X87262658Y-125384103D01*
X87088694Y-125349500D01*
X87088691Y-125349500D01*
X86911309Y-125349500D01*
X86911306Y-125349500D01*
X86737341Y-125384103D01*
X86737332Y-125384106D01*
X86573459Y-125451983D01*
X86573446Y-125451990D01*
X86425965Y-125550535D01*
X86425961Y-125550538D01*
X86300538Y-125675961D01*
X86300535Y-125675965D01*
X86201990Y-125823446D01*
X86201983Y-125823459D01*
X86134106Y-125987332D01*
X86134103Y-125987341D01*
X86099500Y-126161304D01*
X83908559Y-126161304D01*
X83797182Y-126086883D01*
X83797169Y-126086876D01*
X83633296Y-126018999D01*
X83633287Y-126018996D01*
X83459323Y-125984393D01*
X83459320Y-125984393D01*
X83281938Y-125984393D01*
X83281935Y-125984393D01*
X83107970Y-126018996D01*
X83107961Y-126018999D01*
X82944088Y-126086876D01*
X82944075Y-126086883D01*
X82796594Y-126185428D01*
X82796590Y-126185431D01*
X82671167Y-126310854D01*
X82671164Y-126310858D01*
X82572619Y-126458339D01*
X82572612Y-126458352D01*
X82504735Y-126622225D01*
X82504732Y-126622234D01*
X82470129Y-126796197D01*
X72050500Y-126796197D01*
X72050500Y-125174500D01*
X72070185Y-125107461D01*
X72122989Y-125061706D01*
X72174500Y-125050500D01*
X101325500Y-125050500D01*
X101392539Y-125070185D01*
G37*
%TD.AperFunction*%
%TD*%
M02*
