%TF.GenerationSoftware,KiCad,Pcbnew,10.0.1*%
%TF.CreationDate,2026-08-10T21:35:34+01:00*%
%TF.ProjectId,reward_port,72657761-7264-45f7-906f-72742e6b6963,rev?*%
%TF.SameCoordinates,Original*%
%TF.FileFunction,Paste,Bot*%
%TF.FilePolarity,Positive*%
%FSLAX46Y46*%
G04 Gerber Fmt 4.6, Leading zero omitted, Abs format (unit mm)*
G04 Created by KiCad (PCBNEW 10.0.1) date 2026-08-10 21:35:34*
%MOMM*%
%LPD*%
G01*
G04 APERTURE LIST*
G04 Aperture macros list*
%AMRoundRect*
0 Rectangle with rounded corners*
0 $1 Rounding radius*
0 $2 $3 $4 $5 $6 $7 $8 $9 X,Y pos of 4 corners*
0 Add a 4 corners polygon primitive as box body*
4,1,4,$2,$3,$4,$5,$6,$7,$8,$9,$2,$3,0*
0 Add four circle primitives for the rounded corners*
1,1,$1+$1,$2,$3*
1,1,$1+$1,$4,$5*
1,1,$1+$1,$6,$7*
1,1,$1+$1,$8,$9*
0 Add four rect primitives between the rounded corners*
20,1,$1+$1,$2,$3,$4,$5,0*
20,1,$1+$1,$4,$5,$6,$7,0*
20,1,$1+$1,$6,$7,$8,$9,0*
20,1,$1+$1,$8,$9,$2,$3,0*%
G04 Aperture macros list end*
%ADD10RoundRect,0.150000X-0.700000X0.150000X-0.700000X-0.150000X0.700000X-0.150000X0.700000X0.150000X0*%
%ADD11RoundRect,0.250000X-1.100000X0.250000X-1.100000X-0.250000X1.100000X-0.250000X1.100000X0.250000X0*%
%ADD12RoundRect,0.135000X0.135000X0.185000X-0.135000X0.185000X-0.135000X-0.185000X0.135000X-0.185000X0*%
%ADD13RoundRect,0.225000X-0.250000X0.225000X-0.250000X-0.225000X0.250000X-0.225000X0.250000X0.225000X0*%
%ADD14RoundRect,0.140000X0.170000X-0.140000X0.170000X0.140000X-0.170000X0.140000X-0.170000X-0.140000X0*%
%ADD15RoundRect,0.140000X-0.170000X0.140000X-0.170000X-0.140000X0.170000X-0.140000X0.170000X0.140000X0*%
%ADD16R,0.431800X1.432400*%
%ADD17RoundRect,0.135000X-0.135000X-0.185000X0.135000X-0.185000X0.135000X0.185000X-0.135000X0.185000X0*%
%ADD18RoundRect,0.140000X-0.140000X-0.170000X0.140000X-0.170000X0.140000X0.170000X-0.140000X0.170000X0*%
%ADD19RoundRect,0.135000X0.185000X-0.135000X0.185000X0.135000X-0.185000X0.135000X-0.185000X-0.135000X0*%
%ADD20R,0.750000X0.650000*%
%ADD21RoundRect,0.062500X0.187500X0.062500X-0.187500X0.062500X-0.187500X-0.062500X0.187500X-0.062500X0*%
%ADD22RoundRect,0.200000X-0.200000X-0.275000X0.200000X-0.275000X0.200000X0.275000X-0.200000X0.275000X0*%
%ADD23RoundRect,0.135000X-0.185000X0.135000X-0.185000X-0.135000X0.185000X-0.135000X0.185000X0.135000X0*%
%ADD24RoundRect,0.150000X0.700000X-0.150000X0.700000X0.150000X-0.700000X0.150000X-0.700000X-0.150000X0*%
%ADD25RoundRect,0.250000X1.100000X-0.250000X1.100000X0.250000X-1.100000X0.250000X-1.100000X-0.250000X0*%
%ADD26RoundRect,0.112500X-0.350000X-0.112500X0.350000X-0.112500X0.350000X0.112500X-0.350000X0.112500X0*%
%ADD27RoundRect,0.200000X0.275000X-0.200000X0.275000X0.200000X-0.275000X0.200000X-0.275000X-0.200000X0*%
G04 APERTURE END LIST*
D10*
%TO.C,J2*%
X96750000Y-130750000D03*
X96750000Y-132000000D03*
X96750000Y-133250000D03*
X96750000Y-134500000D03*
X96750000Y-135750000D03*
X96750000Y-137000000D03*
X96750000Y-138250000D03*
X96750000Y-139500000D03*
X96750000Y-140750000D03*
X96750000Y-142000000D03*
D11*
X99950000Y-128900000D03*
X99950000Y-143850000D03*
%TD*%
D12*
%TO.C,R6*%
X89920995Y-131714577D03*
X88900995Y-131714577D03*
%TD*%
D13*
%TO.C,C19*%
X84395493Y-126625473D03*
X84395493Y-128175473D03*
%TD*%
D14*
%TO.C,C15*%
X79500000Y-141230000D03*
X79500000Y-140270000D03*
%TD*%
D15*
%TO.C,C14*%
X87000000Y-127520000D03*
X87000000Y-128480000D03*
%TD*%
D16*
%TO.C,U3*%
X92474999Y-142189401D03*
X91825001Y-142189401D03*
X91174999Y-142189401D03*
X90525001Y-142189401D03*
X90525001Y-137810599D03*
X91174999Y-137810599D03*
X91825001Y-137810599D03*
X92474999Y-137810599D03*
%TD*%
D17*
%TO.C,R4*%
X91915214Y-133500000D03*
X92935214Y-133500000D03*
%TD*%
D13*
%TO.C,C17*%
X81500000Y-139975000D03*
X81500000Y-141525000D03*
%TD*%
D18*
%TO.C,C20*%
X79270000Y-142250000D03*
X80230000Y-142250000D03*
%TD*%
D17*
%TO.C,R22*%
X81990000Y-144250000D03*
X83010000Y-144250000D03*
%TD*%
D19*
%TO.C,R5*%
X92920512Y-130239376D03*
X92920512Y-129219376D03*
%TD*%
D17*
%TO.C,R9*%
X91915214Y-132500000D03*
X92935214Y-132500000D03*
%TD*%
D15*
%TO.C,C16*%
X77000000Y-126270000D03*
X77000000Y-127230000D03*
%TD*%
D20*
%TO.C,U5*%
X81230342Y-127410000D03*
X81230342Y-126610000D03*
D21*
X82180342Y-126260000D03*
X82180342Y-126760000D03*
X82180342Y-127260000D03*
X82180342Y-127760000D03*
X80280342Y-127760000D03*
X80280342Y-127260000D03*
X80280342Y-126760000D03*
X80280342Y-126260000D03*
%TD*%
D12*
%TO.C,R16*%
X78510000Y-144250000D03*
X77490000Y-144250000D03*
%TD*%
D19*
%TO.C,R8*%
X91905470Y-130240417D03*
X91905470Y-129220417D03*
%TD*%
D22*
%TO.C,R14*%
X93675000Y-144000000D03*
X95325000Y-144000000D03*
%TD*%
D23*
%TO.C,R19*%
X84750000Y-143240000D03*
X84750000Y-144260000D03*
%TD*%
D12*
%TO.C,R7*%
X89920995Y-132714577D03*
X88900995Y-132714577D03*
%TD*%
D24*
%TO.C,J7*%
X76802914Y-131934049D03*
X76802914Y-130684049D03*
D25*
X73602914Y-133784049D03*
X73602914Y-128834049D03*
%TD*%
D17*
%TO.C,R15*%
X87490000Y-144000000D03*
X88510000Y-144000000D03*
%TD*%
D26*
%TO.C,Q4*%
X83612500Y-141150000D03*
X83612500Y-139850000D03*
X85387500Y-140500000D03*
%TD*%
D27*
%TO.C,R1*%
X85015082Y-132259917D03*
X85015082Y-130609917D03*
%TD*%
%TO.C,R2*%
X84997576Y-136909565D03*
X84997576Y-135259565D03*
%TD*%
D24*
%TO.C,J4*%
X76776329Y-142015082D03*
X76776329Y-140765082D03*
X76776329Y-139515082D03*
X76776329Y-138265082D03*
D25*
X73576329Y-143865082D03*
X73576329Y-136415082D03*
%TD*%
D12*
%TO.C,R23*%
X82685023Y-128935797D03*
X81665023Y-128935797D03*
%TD*%
M02*
