%TF.GenerationSoftware,KiCad,Pcbnew,10.0.1*%
%TF.CreationDate,2026-08-10T21:35:24+01:00*%
%TF.ProjectId,reward_port,72657761-7264-45f7-906f-72742e6b6963,rev?*%
%TF.SameCoordinates,Original*%
%TF.FileFunction,Paste,Top*%
%TF.FilePolarity,Positive*%
%FSLAX46Y46*%
G04 Gerber Fmt 4.6, Leading zero omitted, Abs format (unit mm)*
G04 Created by KiCad (PCBNEW 10.0.1) date 2026-08-10 21:35:24*
%MOMM*%
%LPD*%
G01*
G04 APERTURE LIST*
G04 Aperture macros list*
%AMRoundRect*
0 Rectangle with rounded corners*
0 $1 Rounding radius*
0 $2 $3 $4 $5 $6 $7 $8 $9 X,Y pos of 4 corners*
0 Add a 4 corners polygon primitive as box body*
4,1,4,$2,$3,$4,$5,$6,$7,$8,$9,$2,$3,0*
0 Add four circle primitives for the rounded corners*
1,1,$1+$1,$2,$3*
1,1,$1+$1,$4,$5*
1,1,$1+$1,$6,$7*
1,1,$1+$1,$8,$9*
0 Add four rect primitives between the rounded corners*
20,1,$1+$1,$2,$3,$4,$5,0*
20,1,$1+$1,$4,$5,$6,$7,0*
20,1,$1+$1,$6,$7,$8,$9,0*
20,1,$1+$1,$8,$9,$2,$3,0*%
%AMFreePoly0*
4,1,14,0.230680,0.111820,0.364320,-0.021820,0.377500,-0.053640,0.377500,-0.080000,0.364320,-0.111820,0.332500,-0.125000,-0.332500,-0.125000,-0.364320,-0.111820,-0.377500,-0.080000,-0.377500,0.080000,-0.364320,0.111820,-0.332500,0.125000,0.198860,0.125000,0.230680,0.111820,0.230680,0.111820,$1*%
%AMFreePoly1*
4,1,14,0.364320,0.111820,0.377500,0.080000,0.377500,0.053640,0.364320,0.021820,0.230680,-0.111820,0.198860,-0.125000,-0.332500,-0.125000,-0.364320,-0.111820,-0.377500,-0.080000,-0.377500,0.080000,-0.364320,0.111820,-0.332500,0.125000,0.332500,0.125000,0.364320,0.111820,0.364320,0.111820,$1*%
%AMFreePoly2*
4,1,14,0.111820,0.364320,0.125000,0.332500,0.125000,-0.332500,0.111820,-0.364320,0.080000,-0.377500,-0.080000,-0.377500,-0.111820,-0.364320,-0.125000,-0.332500,-0.125000,0.198860,-0.111820,0.230680,0.021820,0.364320,0.053640,0.377500,0.080000,0.377500,0.111820,0.364320,0.111820,0.364320,$1*%
%AMFreePoly3*
4,1,14,-0.021820,0.364320,0.111820,0.230680,0.125000,0.198860,0.125000,-0.332500,0.111820,-0.364320,0.080000,-0.377500,-0.080000,-0.377500,-0.111820,-0.364320,-0.125000,-0.332500,-0.125000,0.332500,-0.111820,0.364320,-0.080000,0.377500,-0.053640,0.377500,-0.021820,0.364320,-0.021820,0.364320,$1*%
%AMFreePoly4*
4,1,14,0.364320,0.111820,0.377500,0.080000,0.377500,-0.080000,0.364320,-0.111820,0.332500,-0.125000,-0.198860,-0.125000,-0.230680,-0.111820,-0.364320,0.021820,-0.377500,0.053640,-0.377500,0.080000,-0.364320,0.111820,-0.332500,0.125000,0.332500,0.125000,0.364320,0.111820,0.364320,0.111820,$1*%
%AMFreePoly5*
4,1,14,0.364320,0.111820,0.377500,0.080000,0.377500,-0.080000,0.364320,-0.111820,0.332500,-0.125000,-0.332500,-0.125000,-0.364320,-0.111820,-0.377500,-0.080000,-0.377500,-0.053640,-0.364320,-0.021820,-0.230680,0.111820,-0.198860,0.125000,0.332500,0.125000,0.364320,0.111820,0.364320,0.111820,$1*%
%AMFreePoly6*
4,1,14,0.111820,0.364320,0.125000,0.332500,0.125000,-0.198860,0.111820,-0.230680,-0.021820,-0.364320,-0.053640,-0.377500,-0.080000,-0.377500,-0.111820,-0.364320,-0.125000,-0.332500,-0.125000,0.332500,-0.111820,0.364320,-0.080000,0.377500,0.080000,0.377500,0.111820,0.364320,0.111820,0.364320,$1*%
%AMFreePoly7*
4,1,14,0.111820,0.364320,0.125000,0.332500,0.125000,-0.332500,0.111820,-0.364320,0.080000,-0.377500,0.053640,-0.377500,0.021820,-0.364320,-0.111820,-0.230680,-0.125000,-0.198860,-0.125000,0.332500,-0.111820,0.364320,-0.080000,0.377500,0.080000,0.377500,0.111820,0.364320,0.111820,0.364320,$1*%
G04 Aperture macros list end*
%ADD10RoundRect,0.140000X-0.170000X0.140000X-0.170000X-0.140000X0.170000X-0.140000X0.170000X0.140000X0*%
%ADD11RoundRect,0.140000X0.170000X-0.140000X0.170000X0.140000X-0.170000X0.140000X-0.170000X-0.140000X0*%
%ADD12RoundRect,0.135000X0.135000X0.185000X-0.135000X0.185000X-0.135000X-0.185000X0.135000X-0.185000X0*%
%ADD13RoundRect,0.140000X-0.140000X-0.170000X0.140000X-0.170000X0.140000X0.170000X-0.140000X0.170000X0*%
%ADD14RoundRect,0.125000X-0.687500X-0.125000X0.687500X-0.125000X0.687500X0.125000X-0.687500X0.125000X0*%
%ADD15FreePoly0,0.000000*%
%ADD16RoundRect,0.062500X-0.375000X-0.062500X0.375000X-0.062500X0.375000X0.062500X-0.375000X0.062500X0*%
%ADD17FreePoly1,0.000000*%
%ADD18FreePoly2,0.000000*%
%ADD19RoundRect,0.062500X-0.062500X-0.375000X0.062500X-0.375000X0.062500X0.375000X-0.062500X0.375000X0*%
%ADD20FreePoly3,0.000000*%
%ADD21FreePoly4,0.000000*%
%ADD22FreePoly5,0.000000*%
%ADD23FreePoly6,0.000000*%
%ADD24FreePoly7,0.000000*%
%ADD25RoundRect,0.135000X-0.135000X-0.185000X0.135000X-0.185000X0.135000X0.185000X-0.135000X0.185000X0*%
%ADD26RoundRect,0.250000X-0.475000X0.250000X-0.475000X-0.250000X0.475000X-0.250000X0.475000X0.250000X0*%
%ADD27RoundRect,0.150000X-0.700000X0.150000X-0.700000X-0.150000X0.700000X-0.150000X0.700000X0.150000X0*%
%ADD28RoundRect,0.250000X-1.100000X0.250000X-1.100000X-0.250000X1.100000X-0.250000X1.100000X0.250000X0*%
%ADD29RoundRect,0.150000X0.700000X-0.150000X0.700000X0.150000X-0.700000X0.150000X-0.700000X-0.150000X0*%
%ADD30RoundRect,0.250000X1.100000X-0.250000X1.100000X0.250000X-1.100000X0.250000X-1.100000X-0.250000X0*%
%ADD31RoundRect,0.135000X-0.185000X0.135000X-0.185000X-0.135000X0.185000X-0.135000X0.185000X0.135000X0*%
%ADD32RoundRect,0.112500X-0.112500X0.350000X-0.112500X-0.350000X0.112500X-0.350000X0.112500X0.350000X0*%
%ADD33RoundRect,0.225000X-0.250000X0.225000X-0.250000X-0.225000X0.250000X-0.225000X0.250000X0.225000X0*%
%ADD34RoundRect,0.250000X0.785000X1.045000X-0.785000X1.045000X-0.785000X-1.045000X0.785000X-1.045000X0*%
%ADD35RoundRect,0.112500X0.112500X-0.350000X0.112500X0.350000X-0.112500X0.350000X-0.112500X-0.350000X0*%
%ADD36RoundRect,0.140000X0.140000X0.170000X-0.140000X0.170000X-0.140000X-0.170000X0.140000X-0.170000X0*%
%ADD37RoundRect,0.112500X-0.350000X-0.112500X0.350000X-0.112500X0.350000X0.112500X-0.350000X0.112500X0*%
%ADD38RoundRect,0.135000X0.185000X-0.135000X0.185000X0.135000X-0.185000X0.135000X-0.185000X-0.135000X0*%
G04 APERTURE END LIST*
D10*
%TO.C,C3*%
X86875000Y-131345000D03*
X86875000Y-132305000D03*
%TD*%
%TO.C,C10*%
X90500000Y-137270000D03*
X90500000Y-138230000D03*
%TD*%
D11*
%TO.C,C8*%
X91500000Y-142980000D03*
X91500000Y-142020000D03*
%TD*%
D12*
%TO.C,R13*%
X82329532Y-133637362D03*
X81309532Y-133637362D03*
%TD*%
D13*
%TO.C,C5*%
X77520000Y-144250000D03*
X78480000Y-144250000D03*
%TD*%
D14*
%TO.C,U1*%
X81012500Y-130350000D03*
X81012500Y-131000000D03*
X81012500Y-131650000D03*
X81012500Y-132300000D03*
X85237500Y-132300000D03*
X85237500Y-131650000D03*
X85237500Y-131000000D03*
X85237500Y-130350000D03*
%TD*%
D15*
%TO.C,U4*%
X79477500Y-139500000D03*
D16*
X79537500Y-140000000D03*
X79537500Y-140500000D03*
X79537500Y-141000000D03*
X79537500Y-141500000D03*
X79537500Y-142000000D03*
D17*
X79477500Y-142500000D03*
D18*
X79975000Y-142997500D03*
D19*
X80475000Y-142937500D03*
X80975000Y-142937500D03*
X81475000Y-142937500D03*
X81975000Y-142937500D03*
X82475000Y-142937500D03*
D20*
X82975000Y-142997500D03*
D21*
X83472500Y-142500000D03*
D16*
X83412500Y-142000000D03*
X83412500Y-141500000D03*
X83412500Y-141000000D03*
X83412500Y-140500000D03*
X83412500Y-140000000D03*
D22*
X83472500Y-139500000D03*
D23*
X82975000Y-139002500D03*
D19*
X82475000Y-139062500D03*
X81975000Y-139062500D03*
X81475000Y-139062500D03*
X80975000Y-139062500D03*
X80475000Y-139062500D03*
D24*
X79975000Y-139002500D03*
%TD*%
D12*
%TO.C,R12*%
X92941905Y-131438621D03*
X91921905Y-131438621D03*
%TD*%
D25*
%TO.C,R3*%
X83355918Y-133627337D03*
X84375918Y-133627337D03*
%TD*%
D26*
%TO.C,C13*%
X92000000Y-135800000D03*
X92000000Y-137700000D03*
%TD*%
D27*
%TO.C,J3*%
X76750000Y-130750000D03*
X76750000Y-132000000D03*
X76750000Y-133250000D03*
X76750000Y-134500000D03*
X76750000Y-135750000D03*
X76750000Y-137000000D03*
X76750000Y-138250000D03*
X76750000Y-139500000D03*
X76750000Y-140750000D03*
X76750000Y-142000000D03*
D28*
X73550000Y-128900000D03*
X73550000Y-143850000D03*
%TD*%
D29*
%TO.C,J6*%
X96751584Y-131998277D03*
X96751584Y-130748277D03*
D30*
X99951584Y-133848277D03*
X99951584Y-128898277D03*
%TD*%
D31*
%TO.C,R17*%
X92500000Y-141980000D03*
X92500000Y-143000000D03*
%TD*%
D25*
%TO.C,R20*%
X92740000Y-141000000D03*
X93760000Y-141000000D03*
%TD*%
D29*
%TO.C,J1*%
X96757541Y-142015702D03*
X96757541Y-140765702D03*
X96757541Y-139515702D03*
X96757541Y-138265702D03*
D30*
X99957541Y-143865702D03*
X99957541Y-136415702D03*
%TD*%
D13*
%TO.C,C9*%
X89520000Y-139250000D03*
X90480000Y-139250000D03*
%TD*%
D32*
%TO.C,Q3*%
X93070995Y-132572077D03*
X91770995Y-132572077D03*
X92420995Y-134347077D03*
%TD*%
D33*
%TO.C,C1*%
X79000000Y-133975000D03*
X79000000Y-135525000D03*
%TD*%
D13*
%TO.C,C12*%
X92770000Y-140000000D03*
X93730000Y-140000000D03*
%TD*%
%TO.C,C11*%
X92770000Y-139000000D03*
X93730000Y-139000000D03*
%TD*%
D31*
%TO.C,R11*%
X90682415Y-129200367D03*
X90682415Y-130220367D03*
%TD*%
D34*
%TO.C,C18*%
X85180342Y-127160000D03*
X78940342Y-127160000D03*
%TD*%
D25*
%TO.C,R10*%
X88900995Y-133964577D03*
X89920995Y-133964577D03*
%TD*%
D11*
%TO.C,C4*%
X86887975Y-135455000D03*
X86887975Y-134495000D03*
%TD*%
D35*
%TO.C,Q1*%
X88760995Y-132852077D03*
X90060995Y-132852077D03*
X89410995Y-131077077D03*
%TD*%
D36*
%TO.C,C7*%
X90480000Y-140750000D03*
X89520000Y-140750000D03*
%TD*%
D37*
%TO.C,Q2*%
X91783495Y-129059577D03*
X91783495Y-130359577D03*
X93558495Y-129709577D03*
%TD*%
D38*
%TO.C,R21*%
X89500000Y-143010000D03*
X89500000Y-141990000D03*
%TD*%
D14*
%TO.C,U2*%
X81025000Y-135000000D03*
X81025000Y-135650000D03*
X81025000Y-136300000D03*
X81025000Y-136950000D03*
X85250000Y-136950000D03*
X85250000Y-136300000D03*
X85250000Y-135650000D03*
X85250000Y-135000000D03*
%TD*%
D38*
%TO.C,R18*%
X90500000Y-143000000D03*
X90500000Y-141980000D03*
%TD*%
M02*
