M48
; DRILL file KiCad 10.0.4 date 2026-08-11T10:40:12
; FORMAT={-:-/ absolute / metric / decimal}
; #@! TF.CreationDate,2026-08-11T10:40:12+01:00
; #@! TF.GenerationSoftware,Kicad,Pcbnew,10.0.4
; #@! TF.FileFunction,Plated,1,6,PTH
FMAT,2
METRIC
; #@! TA.AperFunction,Plated,PTH,ViaDrill
T1C0.200
; #@! TA.AperFunction,Plated,PTH,ViaDrill
T2C0.300
%
G90
G05
T1
X143.95Y-104.35
X148.35Y-104.65
X148.7Y-94.6
X151.8Y-95.1
X152.2Y-95.85
X152.3Y-98.0
X152.35Y-96.85
X153.7Y-82.3
X153.9Y-102.4
X154.4Y-92.4
X155.05Y-102.5
X155.1Y-92.8
X155.4Y-80.4
X155.45Y-82.2
X155.8Y-85.97
X156.143Y-82.296
X156.181Y-83.441
X156.411Y-85.911
X156.624Y-83.919
X156.631Y-83.43
X156.661Y-82.981
X156.805Y-81.525
X157.06Y-83.88
X157.06Y-83.88
X157.459Y-84.975
X157.5Y-83.919
X157.9Y-82.99
X157.917Y-83.44
X158.1Y-86.42
X158.192Y-87.148
X158.431Y-84.348
X158.535Y-83.44
X158.78Y-86.326
X159.1Y-91.525
X160.018Y-88.318
X160.2Y-91.525
X160.649Y-86.449
X161.6Y-93.8
X162.8Y-89.9
X162.825Y-99.8
X164.9Y-101.3
X166.0Y-92.0
X167.1Y-99.13
X167.3Y-99.7
X168.863Y-95.684
X169.2Y-96.5
X169.265Y-100.465
X169.7Y-99.2
X170.1Y-91.4
X170.2Y-96.5
X170.3Y-100.85
X170.6Y-85.3
X170.8Y-99.2
X171.0Y-102.3
X171.808Y-95.458
X171.816Y-92.1
X171.919Y-89.32
X172.25Y-89.979
X172.25Y-91.1
X172.45Y-95.3
X172.712Y-92.1
X172.725Y-88.762
X173.2Y-86.0
X173.6Y-92.5
T2
X152.5Y-94.2
X153.7Y-88.9
X155.8Y-97.2
X159.191Y-99.35
X160.5Y-97.3
X160.5Y-99.9
X161.7Y-102.9
X162.6Y-100.7
X163.6Y-102.8
X164.3Y-93.35
M30
