%TF.GenerationSoftware,KiCad,Pcbnew,10.0.4*%
%TF.CreationDate,2026-08-11T10:40:16+01:00*%
%TF.ProjectId,floating_hub,666c6f61-7469-46e6-975f-6875622e6b69,rev?*%
%TF.SameCoordinates,Original*%
%TF.FileFunction,Copper,L6,Bot*%
%TF.FilePolarity,Positive*%
%FSLAX46Y46*%
G04 Gerber Fmt 4.6, Leading zero omitted, Abs format (unit mm)*
G04 Created by KiCad (PCBNEW 10.0.4) date 2026-08-11 10:40:16*
%MOMM*%
%LPD*%
G01*
G04 APERTURE LIST*
%TA.AperFunction,ViaPad*%
%ADD10C,0.300000*%
%TD*%
%TA.AperFunction,ViaPad*%
%ADD11C,0.600000*%
%TD*%
%TA.AperFunction,ViaPad*%
%ADD12C,0.450000*%
%TD*%
%TA.AperFunction,Conductor*%
%ADD13C,0.300000*%
%TD*%
%TA.AperFunction,Conductor*%
%ADD14C,0.150000*%
%TD*%
%TA.AperFunction,Conductor*%
%ADD15C,0.500000*%
%TD*%
%TA.AperFunction,Conductor*%
%ADD16C,0.200000*%
%TD*%
G04 APERTURE END LIST*
D10*
%TO.N,GND*%
X158430936Y-84347557D03*
D11*
X153700000Y-88900000D03*
X152500000Y-94200000D03*
X162600000Y-100700000D03*
D10*
X171000000Y-102300000D03*
D12*
X170800000Y-99200000D03*
%TO.N,/SYNC_DIR*%
X170100000Y-91400000D03*
X155100000Y-92800000D03*
D10*
%TO.N,Net-(U3-A)*%
X153900000Y-102400000D03*
D11*
X159191275Y-99350001D03*
%TO.N,Net-(U3-B)*%
X160500000Y-99900000D03*
D10*
X155050000Y-102500000D03*
D12*
%TO.N,+3V3*%
X160648959Y-86448958D03*
D11*
X155800000Y-97200000D03*
X160500000Y-97300000D03*
D10*
X157917398Y-83439663D03*
D11*
X164300000Y-93350000D03*
D10*
X158100000Y-86420000D03*
%TO.N,/VLOAD*%
X158535000Y-83440000D03*
X157900000Y-82989997D03*
X156181107Y-83441037D03*
D11*
X161700000Y-102900000D03*
X163600000Y-102800000D03*
D10*
%TO.N,/IMU_INT1*%
X164900000Y-101300000D03*
X162800000Y-89900000D03*
%TO.N,/HOST_SCL*%
X156411091Y-85911091D03*
X169265166Y-100465166D03*
X162825000Y-99800000D03*
D12*
X171816312Y-92099999D03*
D10*
X167300000Y-99700000D03*
%TO.N,/HOST_SDA*%
X157459315Y-84974999D03*
X170300000Y-100850002D03*
X173600000Y-92500000D03*
X167100000Y-99130300D03*
%TO.N,/PMIC_INT*%
X160017678Y-88317678D03*
X158780192Y-86326133D03*
D12*
%TO.N,/RS485_DIR*%
X160200000Y-91525000D03*
X172250000Y-91100000D03*
%TO.N,/RS485_RX*%
X161600000Y-93800000D03*
X172250000Y-89979002D03*
%TO.N,/RS485_TX*%
X159100000Y-91525000D03*
X171919215Y-89319666D03*
D10*
%TO.N,Net-(J2-~{RESET})*%
X172711952Y-92100000D03*
D12*
X169700000Y-99200000D03*
X172725000Y-88761975D03*
%TO.N,Net-(J2-SWCLK)*%
X173200000Y-86000000D03*
X170200000Y-96500000D03*
%TO.N,Net-(J2-SWDIO)*%
X169200000Y-96500000D03*
X170600000Y-85300000D03*
%TO.N,/SYNC_TX*%
X154400000Y-92400000D03*
X166000000Y-92000000D03*
D10*
%TO.N,/USB_D-*%
X171807843Y-95457843D03*
X152200000Y-95850000D03*
%TO.N,/USB_D+*%
X152350000Y-96850000D03*
X172450000Y-95300000D03*
%TO.N,Net-(D3-K)*%
X155450000Y-82200000D03*
X148350000Y-104650000D03*
%TO.N,Net-(D2-K)*%
X156143431Y-82295980D03*
%TO.N,Net-(D1-K)*%
X143950000Y-104350000D03*
X156804696Y-81525029D03*
%TO.N,Net-(C1-Pad1)*%
X153700000Y-82300000D03*
X148700000Y-94600000D03*
%TO.N,/USB_CC2*%
X156660840Y-82981148D03*
X152300000Y-98000000D03*
%TO.N,/VBUS_OUT*%
X168863091Y-95684378D03*
X155400000Y-80400000D03*
X156630978Y-83430158D03*
%TO.N,Net-(U2-NTC)*%
X156623718Y-83918861D03*
X155800000Y-85970000D03*
%TO.N,/SHPHLD*%
X158191541Y-87147938D03*
X157060000Y-83880000D03*
X157060000Y-83880000D03*
%TO.N,/USB_CC1*%
X151800000Y-95100000D03*
X157500282Y-83918861D03*
%TD*%
%TO.N,+3V3*%
D13*
X160648959Y-86448958D02*
X164300000Y-90099999D01*
X164300000Y-90099999D02*
X164300000Y-93350000D01*
%TO.N,/VLOAD*%
D14*
X157900000Y-83000000D02*
X157400000Y-82500000D01*
D15*
X156800000Y-86300000D02*
X156800000Y-101200000D01*
D16*
X158830936Y-84030936D02*
X158830936Y-84513243D01*
D15*
X161700000Y-102900000D02*
X163500000Y-102900000D01*
D16*
X158244000Y-84756000D02*
X156950071Y-86049929D01*
X158535000Y-83440000D02*
X158800000Y-83705000D01*
X156950071Y-86049929D02*
X156950071Y-86149929D01*
D15*
X156800000Y-101200000D02*
X160000000Y-101200000D01*
D16*
X158800000Y-83705000D02*
X158800000Y-84000000D01*
D14*
X156200000Y-83422144D02*
X156181107Y-83441037D01*
D16*
X158235557Y-84747557D02*
X158244000Y-84756000D01*
D14*
X156200000Y-82800000D02*
X156200000Y-83422144D01*
X157400000Y-82500000D02*
X156500000Y-82500000D01*
D16*
X156950071Y-86149929D02*
X156800000Y-86300000D01*
X158535000Y-83440000D02*
X158095000Y-83000000D01*
X158596622Y-84747557D02*
X158235557Y-84747557D01*
X158830936Y-84513243D02*
X158596622Y-84747557D01*
D14*
X156500000Y-82500000D02*
X156200000Y-82800000D01*
D16*
X158095000Y-83000000D02*
X157900000Y-83000000D01*
D15*
X163500000Y-102900000D02*
X163600000Y-102800000D01*
X160000000Y-101200000D02*
X161700000Y-102900000D01*
D16*
X158800000Y-84000000D02*
X158830936Y-84030936D01*
%TO.N,/IMU_INT1*%
X162750000Y-89950000D02*
X162800000Y-89900000D01*
%TO.N,/HOST_SCL*%
D14*
X167300000Y-99700000D02*
X167200000Y-99800000D01*
D16*
X162800000Y-99800000D02*
X165100000Y-99800000D01*
D14*
X167200000Y-99800000D02*
X166700000Y-99800000D01*
D16*
X165100000Y-99800000D02*
X166700000Y-99800000D01*
%TO.N,/PMIC_INT*%
X158795333Y-87095333D02*
X158795333Y-86306183D01*
X160000000Y-88300000D02*
X158795333Y-87095333D01*
%TO.N,Net-(J2-SWCLK)*%
X173200000Y-93500000D02*
X173200000Y-86000000D01*
X170200000Y-96500000D02*
X173200000Y-93500000D01*
%TO.N,Net-(J2-SWDIO)*%
X169200000Y-95900000D02*
X170600000Y-94500000D01*
X170600000Y-94500000D02*
X170600000Y-85300000D01*
X169200000Y-96500000D02*
X169200000Y-95900000D01*
%TO.N,Net-(C1-Pad1)*%
D13*
X148700000Y-87300000D02*
X148700000Y-94600000D01*
X153700000Y-82300000D02*
X148700000Y-87300000D01*
%TO.N,/VBUS_OUT*%
D16*
X155400000Y-81347524D02*
X155998456Y-81945980D01*
X168863091Y-93273116D02*
X168863091Y-95684378D01*
X155400000Y-80400000D02*
X155400000Y-81347524D01*
X157535955Y-81945980D02*
X168863091Y-93273116D01*
X155998456Y-81945980D02*
X157535955Y-81945980D01*
%TO.N,Net-(U2-NTC)*%
X156500000Y-85245000D02*
X155800000Y-85945000D01*
X156623718Y-83918861D02*
X156623718Y-83900726D01*
X156500000Y-84042579D02*
X156623718Y-83918861D01*
X156623718Y-83900726D02*
X156622996Y-83900004D01*
X156500000Y-85245000D02*
X156500000Y-84042579D01*
%TD*%
M02*
