%TF.GenerationSoftware,KiCad,Pcbnew,10.0.4*%
%TF.CreationDate,2026-08-11T10:40:16+01:00*%
%TF.ProjectId,floating_hub,666c6f61-7469-46e6-975f-6875622e6b69,rev?*%
%TF.SameCoordinates,Original*%
%TF.FileFunction,Copper,L2,Inr*%
%TF.FilePolarity,Positive*%
%FSLAX46Y46*%
G04 Gerber Fmt 4.6, Leading zero omitted, Abs format (unit mm)*
G04 Created by KiCad (PCBNEW 10.0.4) date 2026-08-11 10:40:16*
%MOMM*%
%LPD*%
G01*
G04 APERTURE LIST*
%TA.AperFunction,ViaPad*%
%ADD10C,0.300000*%
%TD*%
%TA.AperFunction,ViaPad*%
%ADD11C,0.600000*%
%TD*%
%TA.AperFunction,ViaPad*%
%ADD12C,0.450000*%
%TD*%
G04 APERTURE END LIST*
D10*
%TO.N,GND*%
X158430936Y-84347557D03*
D11*
X153700000Y-88900000D03*
X152500000Y-94200000D03*
X162600000Y-100700000D03*
D10*
X171000000Y-102300000D03*
D12*
X170800000Y-99200000D03*
%TO.N,/SYNC_DIR*%
X170100000Y-91400000D03*
X155100000Y-92800000D03*
D10*
%TO.N,Net-(U3-A)*%
X153900000Y-102400000D03*
D11*
X159191275Y-99350001D03*
%TO.N,Net-(U3-B)*%
X160500000Y-99900000D03*
D10*
X155050000Y-102500000D03*
D12*
%TO.N,+3V3*%
X160648959Y-86448958D03*
D11*
X155800000Y-97200000D03*
X160500000Y-97300000D03*
D10*
X157917398Y-83439663D03*
D11*
X164300000Y-93350000D03*
D10*
X158100000Y-86420000D03*
%TO.N,/VLOAD*%
X158535000Y-83440000D03*
X157900000Y-82989997D03*
X156181107Y-83441037D03*
D11*
X161700000Y-102900000D03*
X163600000Y-102800000D03*
D10*
%TO.N,/IMU_INT1*%
X164900000Y-101300000D03*
X162800000Y-89900000D03*
%TO.N,/HOST_SCL*%
X156411091Y-85911091D03*
X169265166Y-100465166D03*
X162825000Y-99800000D03*
D12*
X171816312Y-92099999D03*
D10*
X167300000Y-99700000D03*
%TO.N,/HOST_SDA*%
X157459315Y-84974999D03*
X170300000Y-100850002D03*
X173600000Y-92500000D03*
X167100000Y-99130300D03*
%TO.N,/PMIC_INT*%
X160017678Y-88317678D03*
X158780192Y-86326133D03*
D12*
%TO.N,/RS485_DIR*%
X160200000Y-91525000D03*
X172250000Y-91100000D03*
%TO.N,/RS485_RX*%
X161600000Y-93800000D03*
X172250000Y-89979002D03*
%TO.N,/RS485_TX*%
X159100000Y-91525000D03*
X171919215Y-89319666D03*
D10*
%TO.N,Net-(J2-~{RESET})*%
X172711952Y-92100000D03*
D12*
X169700000Y-99200000D03*
X172725000Y-88761975D03*
%TO.N,Net-(J2-SWCLK)*%
X173200000Y-86000000D03*
X170200000Y-96500000D03*
%TO.N,Net-(J2-SWDIO)*%
X169200000Y-96500000D03*
X170600000Y-85300000D03*
%TO.N,/SYNC_TX*%
X154400000Y-92400000D03*
X166000000Y-92000000D03*
D10*
%TO.N,/USB_D-*%
X171807843Y-95457843D03*
X152200000Y-95850000D03*
%TO.N,/USB_D+*%
X152350000Y-96850000D03*
X172450000Y-95300000D03*
%TO.N,Net-(D3-K)*%
X155450000Y-82200000D03*
X148350000Y-104650000D03*
%TO.N,Net-(D2-K)*%
X156143431Y-82295980D03*
%TO.N,Net-(D1-K)*%
X143950000Y-104350000D03*
X156804696Y-81525029D03*
%TO.N,Net-(C1-Pad1)*%
X153700000Y-82300000D03*
X148700000Y-94600000D03*
%TO.N,/USB_CC2*%
X156660840Y-82981148D03*
X152300000Y-98000000D03*
%TO.N,/VBUS_OUT*%
X168863091Y-95684378D03*
X155400000Y-80400000D03*
X156630978Y-83430158D03*
%TO.N,Net-(U2-NTC)*%
X156623718Y-83918861D03*
X155800000Y-85970000D03*
%TO.N,/SHPHLD*%
X158191541Y-87147938D03*
X157060000Y-83880000D03*
X157060000Y-83880000D03*
%TO.N,/USB_CC1*%
X151800000Y-95100000D03*
X157500282Y-83918861D03*
%TD*%
%TA.AperFunction,Conductor*%
%TO.N,GND*%
G36*
X162443039Y-79520185D02*
G01*
X162488794Y-79572989D01*
X162500000Y-79624500D01*
X162500000Y-84500000D01*
X173675500Y-84500000D01*
X173742539Y-84519685D01*
X173788294Y-84572489D01*
X173799500Y-84624000D01*
X173799500Y-92128177D01*
X173779815Y-92195216D01*
X173727011Y-92240971D01*
X173657853Y-92250915D01*
X173651310Y-92249795D01*
X173649828Y-92249500D01*
X173550172Y-92249500D01*
X173550170Y-92249500D01*
X173458102Y-92287636D01*
X173387636Y-92358102D01*
X173349500Y-92450170D01*
X173349500Y-92549829D01*
X173370225Y-92599863D01*
X173387636Y-92641897D01*
X173458103Y-92712364D01*
X173550172Y-92750500D01*
X173550174Y-92750500D01*
X173649824Y-92750500D01*
X173649828Y-92750500D01*
X173649831Y-92750498D01*
X173651302Y-92750206D01*
X173654590Y-92750500D01*
X173662041Y-92750500D01*
X173662041Y-92751166D01*
X173720893Y-92756429D01*
X173776073Y-92799289D01*
X173799322Y-92865178D01*
X173799500Y-92871822D01*
X173799500Y-108975500D01*
X173779815Y-109042539D01*
X173727011Y-109088294D01*
X173675500Y-109099500D01*
X143224500Y-109099500D01*
X143157461Y-109079815D01*
X143111706Y-109027011D01*
X143100500Y-108975500D01*
X143100500Y-104300170D01*
X143699500Y-104300170D01*
X143699500Y-104300172D01*
X143699500Y-104399828D01*
X143737636Y-104491897D01*
X143808103Y-104562364D01*
X143900172Y-104600500D01*
X143900174Y-104600500D01*
X143999826Y-104600500D01*
X143999828Y-104600500D01*
X144000625Y-104600170D01*
X148099500Y-104600170D01*
X148099500Y-104600172D01*
X148099500Y-104699828D01*
X148137636Y-104791897D01*
X148208103Y-104862364D01*
X148300172Y-104900500D01*
X148300174Y-104900500D01*
X148399826Y-104900500D01*
X148399828Y-104900500D01*
X148491897Y-104862364D01*
X148562364Y-104791897D01*
X148600500Y-104699828D01*
X148600500Y-104600172D01*
X148562364Y-104508103D01*
X148491897Y-104437636D01*
X148399829Y-104399500D01*
X148399828Y-104399500D01*
X148300172Y-104399500D01*
X148300170Y-104399500D01*
X148208102Y-104437636D01*
X148137636Y-104508102D01*
X148099500Y-104600170D01*
X144000625Y-104600170D01*
X144091897Y-104562364D01*
X144162364Y-104491897D01*
X144200500Y-104399828D01*
X144200500Y-104300172D01*
X144162364Y-104208103D01*
X144091897Y-104137636D01*
X143999829Y-104099500D01*
X143999828Y-104099500D01*
X143900172Y-104099500D01*
X143900170Y-104099500D01*
X143808102Y-104137636D01*
X143737636Y-104208102D01*
X143699500Y-104300170D01*
X143100500Y-104300170D01*
X143100500Y-102847273D01*
X161299500Y-102847273D01*
X161299500Y-102952727D01*
X161326793Y-103054587D01*
X161379520Y-103145913D01*
X161454087Y-103220480D01*
X161545413Y-103273207D01*
X161647273Y-103300500D01*
X161647275Y-103300500D01*
X161752725Y-103300500D01*
X161752727Y-103300500D01*
X161854587Y-103273207D01*
X161945913Y-103220480D01*
X162020480Y-103145913D01*
X162073207Y-103054587D01*
X162100500Y-102952727D01*
X162100500Y-102847273D01*
X162073705Y-102747273D01*
X163199500Y-102747273D01*
X163199500Y-102852727D01*
X163226793Y-102954587D01*
X163279520Y-103045913D01*
X163354087Y-103120480D01*
X163445413Y-103173207D01*
X163547273Y-103200500D01*
X163547275Y-103200500D01*
X163652725Y-103200500D01*
X163652727Y-103200500D01*
X163754587Y-103173207D01*
X163845913Y-103120480D01*
X163920480Y-103045913D01*
X163973207Y-102954587D01*
X164000500Y-102852727D01*
X164000500Y-102747273D01*
X163973207Y-102645413D01*
X163920480Y-102554087D01*
X163845913Y-102479520D01*
X163754587Y-102426793D01*
X163652727Y-102399500D01*
X163547273Y-102399500D01*
X163445413Y-102426793D01*
X163445410Y-102426794D01*
X163354085Y-102479521D01*
X163279521Y-102554085D01*
X163226794Y-102645410D01*
X163226793Y-102645413D01*
X163199500Y-102747273D01*
X162073705Y-102747273D01*
X162073207Y-102745413D01*
X162020480Y-102654087D01*
X161945913Y-102579520D01*
X161854587Y-102526793D01*
X161752727Y-102499500D01*
X161647273Y-102499500D01*
X161545413Y-102526793D01*
X161545410Y-102526794D01*
X161454085Y-102579521D01*
X161379521Y-102654085D01*
X161326794Y-102745410D01*
X161326794Y-102745411D01*
X161326793Y-102745413D01*
X161299500Y-102847273D01*
X143100500Y-102847273D01*
X143100500Y-102350170D01*
X153649500Y-102350170D01*
X153649500Y-102449829D01*
X153661799Y-102479521D01*
X153687636Y-102541897D01*
X153758103Y-102612364D01*
X153850172Y-102650500D01*
X153850174Y-102650500D01*
X153949826Y-102650500D01*
X153949828Y-102650500D01*
X154041897Y-102612364D01*
X154112364Y-102541897D01*
X154150358Y-102450170D01*
X154799500Y-102450170D01*
X154799500Y-102549829D01*
X154811799Y-102579521D01*
X154837636Y-102641897D01*
X154908103Y-102712364D01*
X155000172Y-102750500D01*
X155000174Y-102750500D01*
X155099826Y-102750500D01*
X155099828Y-102750500D01*
X155191897Y-102712364D01*
X155262364Y-102641897D01*
X155300500Y-102549828D01*
X155300500Y-102450172D01*
X155262364Y-102358103D01*
X155191897Y-102287636D01*
X155120598Y-102258103D01*
X155099829Y-102249500D01*
X155099828Y-102249500D01*
X155000172Y-102249500D01*
X155000170Y-102249500D01*
X154908102Y-102287636D01*
X154837636Y-102358102D01*
X154799500Y-102450170D01*
X154150358Y-102450170D01*
X154150500Y-102449828D01*
X154150500Y-102350172D01*
X154112364Y-102258103D01*
X154041897Y-102187636D01*
X153949829Y-102149500D01*
X153949828Y-102149500D01*
X153850172Y-102149500D01*
X153850170Y-102149500D01*
X153758102Y-102187636D01*
X153687636Y-102258102D01*
X153649500Y-102350170D01*
X143100500Y-102350170D01*
X143100500Y-101250170D01*
X164649500Y-101250170D01*
X164649500Y-101250172D01*
X164649500Y-101349828D01*
X164687636Y-101441897D01*
X164758103Y-101512364D01*
X164850172Y-101550500D01*
X164850174Y-101550500D01*
X164949826Y-101550500D01*
X164949828Y-101550500D01*
X165041897Y-101512364D01*
X165112364Y-101441897D01*
X165150500Y-101349828D01*
X165150500Y-101250172D01*
X165112364Y-101158103D01*
X165041897Y-101087636D01*
X164949829Y-101049500D01*
X164949828Y-101049500D01*
X164850172Y-101049500D01*
X164850170Y-101049500D01*
X164758102Y-101087636D01*
X164687636Y-101158102D01*
X164649500Y-101250170D01*
X143100500Y-101250170D01*
X143100500Y-100800172D01*
X170049500Y-100800172D01*
X170049500Y-100800174D01*
X170049500Y-100899830D01*
X170087636Y-100991899D01*
X170158103Y-101062366D01*
X170250172Y-101100502D01*
X170250174Y-101100502D01*
X170349826Y-101100502D01*
X170349828Y-101100502D01*
X170441897Y-101062366D01*
X170512364Y-100991899D01*
X170550500Y-100899830D01*
X170550500Y-100800174D01*
X170512364Y-100708105D01*
X170441897Y-100637638D01*
X170349829Y-100599502D01*
X170349828Y-100599502D01*
X170250172Y-100599502D01*
X170250170Y-100599502D01*
X170158102Y-100637638D01*
X170087636Y-100708104D01*
X170049500Y-100800172D01*
X143100500Y-100800172D01*
X143100500Y-100415336D01*
X169014666Y-100415336D01*
X169014666Y-100415338D01*
X169014666Y-100514994D01*
X169052802Y-100607063D01*
X169123269Y-100677530D01*
X169215338Y-100715666D01*
X169215340Y-100715666D01*
X169314992Y-100715666D01*
X169314994Y-100715666D01*
X169407063Y-100677530D01*
X169477530Y-100607063D01*
X169515666Y-100514994D01*
X169515666Y-100415338D01*
X169477530Y-100323269D01*
X169407063Y-100252802D01*
X169314995Y-100214666D01*
X169314994Y-100214666D01*
X169215338Y-100214666D01*
X169215336Y-100214666D01*
X169123268Y-100252802D01*
X169052802Y-100323268D01*
X169014666Y-100415336D01*
X143100500Y-100415336D01*
X143100500Y-99847273D01*
X160099500Y-99847273D01*
X160099500Y-99952727D01*
X160126793Y-100054587D01*
X160179520Y-100145913D01*
X160254087Y-100220480D01*
X160345413Y-100273207D01*
X160447273Y-100300500D01*
X160447275Y-100300500D01*
X160552725Y-100300500D01*
X160552727Y-100300500D01*
X160654587Y-100273207D01*
X160745913Y-100220480D01*
X160820480Y-100145913D01*
X160873207Y-100054587D01*
X160900500Y-99952727D01*
X160900500Y-99847273D01*
X160879809Y-99770052D01*
X160879809Y-99770050D01*
X160874482Y-99750170D01*
X162574500Y-99750170D01*
X162574500Y-99750172D01*
X162574500Y-99849828D01*
X162612636Y-99941897D01*
X162683103Y-100012364D01*
X162775172Y-100050500D01*
X162775174Y-100050500D01*
X162874826Y-100050500D01*
X162874828Y-100050500D01*
X162966897Y-100012364D01*
X163037364Y-99941897D01*
X163075500Y-99849828D01*
X163075500Y-99750172D01*
X163037364Y-99658103D01*
X162966897Y-99587636D01*
X162895598Y-99558103D01*
X162874829Y-99549500D01*
X162874828Y-99549500D01*
X162775172Y-99549500D01*
X162775170Y-99549500D01*
X162683102Y-99587636D01*
X162612636Y-99658102D01*
X162574500Y-99750170D01*
X160874482Y-99750170D01*
X160873208Y-99745417D01*
X160873207Y-99745413D01*
X160820480Y-99654087D01*
X160745913Y-99579520D01*
X160654587Y-99526793D01*
X160552727Y-99499500D01*
X160447273Y-99499500D01*
X160345413Y-99526793D01*
X160345410Y-99526794D01*
X160254085Y-99579521D01*
X160179521Y-99654085D01*
X160126794Y-99745410D01*
X160126793Y-99745413D01*
X160099500Y-99847273D01*
X143100500Y-99847273D01*
X143100500Y-99093982D01*
X149369500Y-99093982D01*
X149369500Y-99206018D01*
X149398497Y-99314237D01*
X149454515Y-99411263D01*
X149533737Y-99490485D01*
X149630763Y-99546503D01*
X149738982Y-99575500D01*
X149738984Y-99575500D01*
X149851016Y-99575500D01*
X149851018Y-99575500D01*
X149959237Y-99546503D01*
X150056263Y-99490485D01*
X150135485Y-99411263D01*
X150191503Y-99314237D01*
X150196048Y-99297274D01*
X158790775Y-99297274D01*
X158790775Y-99402728D01*
X158818068Y-99504588D01*
X158870795Y-99595914D01*
X158945362Y-99670481D01*
X159036688Y-99723208D01*
X159138548Y-99750501D01*
X159138550Y-99750501D01*
X159244000Y-99750501D01*
X159244002Y-99750501D01*
X159345862Y-99723208D01*
X159437188Y-99670481D01*
X159511755Y-99595914D01*
X159564482Y-99504588D01*
X159591775Y-99402728D01*
X159591775Y-99297274D01*
X159564482Y-99195414D01*
X159511755Y-99104088D01*
X159488137Y-99080470D01*
X166849500Y-99080470D01*
X166849500Y-99180129D01*
X166875481Y-99242852D01*
X166887636Y-99272197D01*
X166958103Y-99342664D01*
X167032710Y-99373567D01*
X167087114Y-99417408D01*
X167109179Y-99483702D01*
X167091900Y-99551401D01*
X167088363Y-99557015D01*
X167087636Y-99558101D01*
X167049500Y-99650170D01*
X167049500Y-99749829D01*
X167057876Y-99770050D01*
X167087636Y-99841897D01*
X167158103Y-99912364D01*
X167250172Y-99950500D01*
X167250174Y-99950500D01*
X167349826Y-99950500D01*
X167349828Y-99950500D01*
X167441897Y-99912364D01*
X167512364Y-99841897D01*
X167550500Y-99749828D01*
X167550500Y-99650172D01*
X167512364Y-99558103D01*
X167441897Y-99487636D01*
X167367288Y-99456732D01*
X167312885Y-99412891D01*
X167290820Y-99346596D01*
X167296281Y-99305521D01*
X167304004Y-99280556D01*
X167312364Y-99272197D01*
X167350500Y-99180128D01*
X167350500Y-99157147D01*
X169374500Y-99157147D01*
X169374500Y-99242853D01*
X169393628Y-99314238D01*
X169396682Y-99325637D01*
X169396685Y-99325644D01*
X169439530Y-99399855D01*
X169439534Y-99399860D01*
X169439535Y-99399862D01*
X169500138Y-99460465D01*
X169500140Y-99460466D01*
X169500144Y-99460469D01*
X169552129Y-99490482D01*
X169574362Y-99503318D01*
X169657147Y-99525500D01*
X169657149Y-99525500D01*
X169742851Y-99525500D01*
X169742853Y-99525500D01*
X169825638Y-99503318D01*
X169899862Y-99460465D01*
X169960465Y-99399862D01*
X170003318Y-99325638D01*
X170025500Y-99242853D01*
X170025500Y-99157147D01*
X170003318Y-99074362D01*
X169977430Y-99029522D01*
X169960469Y-99000144D01*
X169960463Y-99000136D01*
X169899863Y-98939536D01*
X169899855Y-98939530D01*
X169825644Y-98896685D01*
X169825640Y-98896683D01*
X169825638Y-98896682D01*
X169742853Y-98874500D01*
X169657147Y-98874500D01*
X169574362Y-98896682D01*
X169574355Y-98896685D01*
X169500144Y-98939530D01*
X169500136Y-98939536D01*
X169439536Y-99000136D01*
X169439530Y-99000144D01*
X169396685Y-99074355D01*
X169396682Y-99074362D01*
X169374500Y-99157147D01*
X167350500Y-99157147D01*
X167350500Y-99080472D01*
X167312364Y-98988403D01*
X167241897Y-98917936D01*
X167149829Y-98879800D01*
X167149828Y-98879800D01*
X167050172Y-98879800D01*
X167050170Y-98879800D01*
X166958102Y-98917936D01*
X166887636Y-98988402D01*
X166849500Y-99080470D01*
X159488137Y-99080470D01*
X159437188Y-99029521D01*
X159345862Y-98976794D01*
X159244002Y-98949501D01*
X159138548Y-98949501D01*
X159036688Y-98976794D01*
X159036685Y-98976795D01*
X158945360Y-99029522D01*
X158870796Y-99104086D01*
X158818069Y-99195411D01*
X158818068Y-99195414D01*
X158790775Y-99297274D01*
X150196048Y-99297274D01*
X150220500Y-99206018D01*
X150220500Y-99093982D01*
X150191503Y-98985763D01*
X150135485Y-98888737D01*
X150056263Y-98809515D01*
X149992257Y-98772561D01*
X171574200Y-98772561D01*
X171574200Y-98929439D01*
X171614803Y-99080970D01*
X171693241Y-99216830D01*
X171804170Y-99327759D01*
X171940030Y-99406197D01*
X172091561Y-99446800D01*
X172091564Y-99446800D01*
X172248436Y-99446800D01*
X172248439Y-99446800D01*
X172399970Y-99406197D01*
X172535830Y-99327759D01*
X172646759Y-99216830D01*
X172725197Y-99080970D01*
X172765800Y-98929439D01*
X172765800Y-98772561D01*
X172725197Y-98621030D01*
X172646759Y-98485170D01*
X172535830Y-98374241D01*
X172399970Y-98295803D01*
X172399971Y-98295803D01*
X172362087Y-98285652D01*
X172248439Y-98255200D01*
X172091561Y-98255200D01*
X171977912Y-98285652D01*
X171940029Y-98295803D01*
X171804171Y-98374240D01*
X171804168Y-98374242D01*
X171693242Y-98485168D01*
X171693240Y-98485171D01*
X171614803Y-98621029D01*
X171614803Y-98621030D01*
X171574200Y-98772561D01*
X149992257Y-98772561D01*
X149959237Y-98753497D01*
X149851018Y-98724500D01*
X149738982Y-98724500D01*
X149630763Y-98753497D01*
X149630760Y-98753498D01*
X149533740Y-98809513D01*
X149533734Y-98809517D01*
X149454517Y-98888734D01*
X149454513Y-98888740D01*
X149398498Y-98985760D01*
X149398497Y-98985763D01*
X149369500Y-99093982D01*
X143100500Y-99093982D01*
X143100500Y-97950170D01*
X152049500Y-97950170D01*
X152049500Y-97950172D01*
X152049500Y-98049828D01*
X152087636Y-98141897D01*
X152158103Y-98212364D01*
X152250172Y-98250500D01*
X152250174Y-98250500D01*
X152349826Y-98250500D01*
X152349828Y-98250500D01*
X152441897Y-98212364D01*
X152512364Y-98141897D01*
X152550500Y-98049828D01*
X152550500Y-97950172D01*
X152512364Y-97858103D01*
X152441897Y-97787636D01*
X152366876Y-97756561D01*
X166494200Y-97756561D01*
X166494200Y-97913439D01*
X166534803Y-98064970D01*
X166613241Y-98200830D01*
X166724170Y-98311759D01*
X166860030Y-98390197D01*
X167011561Y-98430800D01*
X167011564Y-98430800D01*
X167168436Y-98430800D01*
X167168439Y-98430800D01*
X167319970Y-98390197D01*
X167455830Y-98311759D01*
X167566759Y-98200830D01*
X167645197Y-98064970D01*
X167685800Y-97913439D01*
X167685800Y-97756561D01*
X167645197Y-97605030D01*
X167566759Y-97469170D01*
X167455830Y-97358241D01*
X167319970Y-97279803D01*
X167319971Y-97279803D01*
X167282087Y-97269652D01*
X167168439Y-97239200D01*
X167011561Y-97239200D01*
X166897912Y-97269652D01*
X166860029Y-97279803D01*
X166724171Y-97358240D01*
X166724168Y-97358242D01*
X166613242Y-97469168D01*
X166613240Y-97469171D01*
X166534803Y-97605029D01*
X166530663Y-97620480D01*
X166494200Y-97756561D01*
X152366876Y-97756561D01*
X152349829Y-97749500D01*
X152349828Y-97749500D01*
X152250172Y-97749500D01*
X152250170Y-97749500D01*
X152158102Y-97787636D01*
X152087636Y-97858102D01*
X152049500Y-97950170D01*
X143100500Y-97950170D01*
X143100500Y-97147273D01*
X155399500Y-97147273D01*
X155399500Y-97252727D01*
X155426793Y-97354587D01*
X155479520Y-97445913D01*
X155554087Y-97520480D01*
X155645413Y-97573207D01*
X155747273Y-97600500D01*
X155747275Y-97600500D01*
X155852725Y-97600500D01*
X155852727Y-97600500D01*
X155954587Y-97573207D01*
X156045913Y-97520480D01*
X156120480Y-97445913D01*
X156173207Y-97354587D01*
X156200500Y-97252727D01*
X156200500Y-97247273D01*
X160099500Y-97247273D01*
X160099500Y-97352727D01*
X160126793Y-97454587D01*
X160179520Y-97545913D01*
X160254087Y-97620480D01*
X160345413Y-97673207D01*
X160447273Y-97700500D01*
X160447275Y-97700500D01*
X160552725Y-97700500D01*
X160552727Y-97700500D01*
X160654587Y-97673207D01*
X160745913Y-97620480D01*
X160820480Y-97545913D01*
X160873207Y-97454587D01*
X160900500Y-97352727D01*
X160900500Y-97247273D01*
X160873207Y-97145413D01*
X160820480Y-97054087D01*
X160745913Y-96979520D01*
X160654587Y-96926793D01*
X160552727Y-96899500D01*
X160447273Y-96899500D01*
X160345413Y-96926793D01*
X160345410Y-96926794D01*
X160254085Y-96979521D01*
X160179521Y-97054085D01*
X160126794Y-97145410D01*
X160126793Y-97145413D01*
X160099500Y-97247273D01*
X156200500Y-97247273D01*
X156200500Y-97147273D01*
X156173207Y-97045413D01*
X156120480Y-96954087D01*
X156045913Y-96879520D01*
X155954587Y-96826793D01*
X155852727Y-96799500D01*
X155747273Y-96799500D01*
X155645413Y-96826793D01*
X155645410Y-96826794D01*
X155554085Y-96879521D01*
X155479521Y-96954085D01*
X155426794Y-97045410D01*
X155426793Y-97045413D01*
X155399500Y-97147273D01*
X143100500Y-97147273D01*
X143100500Y-96800170D01*
X152099500Y-96800170D01*
X152099500Y-96899829D01*
X152121974Y-96954085D01*
X152137636Y-96991897D01*
X152208103Y-97062364D01*
X152300172Y-97100500D01*
X152300174Y-97100500D01*
X152399826Y-97100500D01*
X152399828Y-97100500D01*
X152491897Y-97062364D01*
X152562364Y-96991897D01*
X152600500Y-96899828D01*
X152600500Y-96800172D01*
X152562364Y-96708103D01*
X152491897Y-96637636D01*
X152462929Y-96625637D01*
X152399829Y-96599500D01*
X152399828Y-96599500D01*
X152300172Y-96599500D01*
X152300170Y-96599500D01*
X152208102Y-96637636D01*
X152137636Y-96708102D01*
X152099500Y-96800170D01*
X143100500Y-96800170D01*
X143100500Y-96457147D01*
X168874500Y-96457147D01*
X168874500Y-96542853D01*
X168889679Y-96599500D01*
X168896682Y-96625637D01*
X168896685Y-96625644D01*
X168939530Y-96699855D01*
X168939534Y-96699860D01*
X168939535Y-96699862D01*
X169000138Y-96760465D01*
X169000140Y-96760466D01*
X169000144Y-96760469D01*
X169067749Y-96799500D01*
X169074362Y-96803318D01*
X169157147Y-96825500D01*
X169157149Y-96825500D01*
X169242851Y-96825500D01*
X169242853Y-96825500D01*
X169325638Y-96803318D01*
X169399862Y-96760465D01*
X169460465Y-96699862D01*
X169503318Y-96625638D01*
X169525500Y-96542853D01*
X169525500Y-96457147D01*
X169874500Y-96457147D01*
X169874500Y-96542853D01*
X169889679Y-96599500D01*
X169896682Y-96625637D01*
X169896685Y-96625644D01*
X169939530Y-96699855D01*
X169939534Y-96699860D01*
X169939535Y-96699862D01*
X170000138Y-96760465D01*
X170000140Y-96760466D01*
X170000144Y-96760469D01*
X170067749Y-96799500D01*
X170074362Y-96803318D01*
X170157147Y-96825500D01*
X170157149Y-96825500D01*
X170242851Y-96825500D01*
X170242853Y-96825500D01*
X170325638Y-96803318D01*
X170399862Y-96760465D01*
X170419766Y-96740561D01*
X171574200Y-96740561D01*
X171574200Y-96897439D01*
X171614803Y-97048970D01*
X171693241Y-97184830D01*
X171804170Y-97295759D01*
X171940030Y-97374197D01*
X172091561Y-97414800D01*
X172091564Y-97414800D01*
X172248436Y-97414800D01*
X172248439Y-97414800D01*
X172399970Y-97374197D01*
X172535830Y-97295759D01*
X172646759Y-97184830D01*
X172725197Y-97048970D01*
X172765800Y-96897439D01*
X172765800Y-96740561D01*
X172725197Y-96589030D01*
X172646759Y-96453170D01*
X172535830Y-96342241D01*
X172399970Y-96263803D01*
X172399971Y-96263803D01*
X172362087Y-96253652D01*
X172248439Y-96223200D01*
X172091561Y-96223200D01*
X171977912Y-96253652D01*
X171940029Y-96263803D01*
X171804171Y-96342240D01*
X171804168Y-96342242D01*
X171693242Y-96453168D01*
X171693240Y-96453171D01*
X171614803Y-96589029D01*
X171604994Y-96625637D01*
X171574200Y-96740561D01*
X170419766Y-96740561D01*
X170460465Y-96699862D01*
X170503318Y-96625638D01*
X170525500Y-96542853D01*
X170525500Y-96457147D01*
X170503318Y-96374362D01*
X170484773Y-96342241D01*
X170460469Y-96300144D01*
X170460463Y-96300136D01*
X170399863Y-96239536D01*
X170399855Y-96239530D01*
X170325644Y-96196685D01*
X170325640Y-96196683D01*
X170325638Y-96196682D01*
X170242853Y-96174500D01*
X170157147Y-96174500D01*
X170074362Y-96196682D01*
X170074355Y-96196685D01*
X170000144Y-96239530D01*
X170000136Y-96239536D01*
X169939536Y-96300136D01*
X169939530Y-96300144D01*
X169896685Y-96374355D01*
X169896682Y-96374362D01*
X169874500Y-96457147D01*
X169525500Y-96457147D01*
X169503318Y-96374362D01*
X169484773Y-96342241D01*
X169460469Y-96300144D01*
X169460463Y-96300136D01*
X169399863Y-96239536D01*
X169399855Y-96239530D01*
X169325644Y-96196685D01*
X169325640Y-96196683D01*
X169325638Y-96196682D01*
X169242853Y-96174500D01*
X169157147Y-96174500D01*
X169074362Y-96196682D01*
X169074355Y-96196685D01*
X169000144Y-96239530D01*
X169000136Y-96239536D01*
X168939536Y-96300136D01*
X168939530Y-96300144D01*
X168896685Y-96374355D01*
X168896682Y-96374362D01*
X168874500Y-96457147D01*
X143100500Y-96457147D01*
X143100500Y-95800170D01*
X151949500Y-95800170D01*
X151949500Y-95899829D01*
X151964018Y-95934878D01*
X151987636Y-95991897D01*
X152058103Y-96062364D01*
X152150172Y-96100500D01*
X152150174Y-96100500D01*
X152249826Y-96100500D01*
X152249828Y-96100500D01*
X152341897Y-96062364D01*
X152412364Y-95991897D01*
X152450500Y-95899828D01*
X152450500Y-95800172D01*
X152412364Y-95708103D01*
X152341897Y-95637636D01*
X152334442Y-95634548D01*
X168612591Y-95634548D01*
X168612591Y-95634550D01*
X168612591Y-95734206D01*
X168650727Y-95826275D01*
X168721194Y-95896742D01*
X168813263Y-95934878D01*
X168813265Y-95934878D01*
X168912917Y-95934878D01*
X168912919Y-95934878D01*
X169004988Y-95896742D01*
X169075455Y-95826275D01*
X169113591Y-95734206D01*
X169113591Y-95634550D01*
X169075455Y-95542481D01*
X169004988Y-95472014D01*
X168955296Y-95451431D01*
X168912920Y-95433878D01*
X168912919Y-95433878D01*
X168813263Y-95433878D01*
X168813261Y-95433878D01*
X168721193Y-95472014D01*
X168650727Y-95542480D01*
X168612591Y-95634548D01*
X152334442Y-95634548D01*
X152249829Y-95599500D01*
X152249828Y-95599500D01*
X152150172Y-95599500D01*
X152150170Y-95599500D01*
X152058102Y-95637636D01*
X151987636Y-95708102D01*
X151949500Y-95800170D01*
X143100500Y-95800170D01*
X143100500Y-95408013D01*
X171557343Y-95408013D01*
X171557343Y-95507672D01*
X171575083Y-95550499D01*
X171595479Y-95599740D01*
X171665946Y-95670207D01*
X171758015Y-95708343D01*
X171758017Y-95708343D01*
X171857669Y-95708343D01*
X171857671Y-95708343D01*
X171949740Y-95670207D01*
X172020207Y-95599740D01*
X172058343Y-95507671D01*
X172058343Y-95507669D01*
X172059103Y-95505835D01*
X172102943Y-95451431D01*
X172169237Y-95429366D01*
X172236937Y-95446645D01*
X172261345Y-95465606D01*
X172308103Y-95512364D01*
X172400172Y-95550500D01*
X172400174Y-95550500D01*
X172499826Y-95550500D01*
X172499828Y-95550500D01*
X172591897Y-95512364D01*
X172662364Y-95441897D01*
X172700500Y-95349828D01*
X172700500Y-95250172D01*
X172662364Y-95158103D01*
X172591897Y-95087636D01*
X172499829Y-95049500D01*
X172499828Y-95049500D01*
X172400172Y-95049500D01*
X172400170Y-95049500D01*
X172308102Y-95087636D01*
X172237636Y-95158102D01*
X172198739Y-95252008D01*
X172154897Y-95306412D01*
X172088603Y-95328476D01*
X172020904Y-95311196D01*
X171996497Y-95292236D01*
X171949740Y-95245479D01*
X171857672Y-95207343D01*
X171857671Y-95207343D01*
X171758015Y-95207343D01*
X171758013Y-95207343D01*
X171665945Y-95245479D01*
X171595479Y-95315945D01*
X171557343Y-95408013D01*
X143100500Y-95408013D01*
X143100500Y-95050170D01*
X151549500Y-95050170D01*
X151549500Y-95149829D01*
X151573323Y-95207343D01*
X151587636Y-95241897D01*
X151658103Y-95312364D01*
X151750172Y-95350500D01*
X151750174Y-95350500D01*
X151849826Y-95350500D01*
X151849828Y-95350500D01*
X151941897Y-95312364D01*
X152012364Y-95241897D01*
X152050500Y-95149828D01*
X152050500Y-95050172D01*
X152012364Y-94958103D01*
X151941897Y-94887636D01*
X151849829Y-94849500D01*
X151849828Y-94849500D01*
X151750172Y-94849500D01*
X151750170Y-94849500D01*
X151658102Y-94887636D01*
X151587636Y-94958102D01*
X151549500Y-95050170D01*
X143100500Y-95050170D01*
X143100500Y-94550170D01*
X148449500Y-94550170D01*
X148449500Y-94550172D01*
X148449500Y-94649828D01*
X148487636Y-94741897D01*
X148558103Y-94812364D01*
X148650172Y-94850500D01*
X148650174Y-94850500D01*
X148749826Y-94850500D01*
X148749828Y-94850500D01*
X148841897Y-94812364D01*
X148912364Y-94741897D01*
X148950500Y-94649828D01*
X148950500Y-94550172D01*
X148912364Y-94458103D01*
X148841897Y-94387636D01*
X148749829Y-94349500D01*
X148749828Y-94349500D01*
X148650172Y-94349500D01*
X148650170Y-94349500D01*
X148558102Y-94387636D01*
X148487636Y-94458102D01*
X148449500Y-94550170D01*
X143100500Y-94550170D01*
X143100500Y-93313982D01*
X149369500Y-93313982D01*
X149369500Y-93426018D01*
X149398497Y-93534237D01*
X149454515Y-93631263D01*
X149533737Y-93710485D01*
X149630763Y-93766503D01*
X149738982Y-93795500D01*
X149738984Y-93795500D01*
X149851016Y-93795500D01*
X149851018Y-93795500D01*
X149959237Y-93766503D01*
X149975442Y-93757147D01*
X161274500Y-93757147D01*
X161274500Y-93842852D01*
X161296682Y-93925637D01*
X161296685Y-93925644D01*
X161339530Y-93999855D01*
X161339534Y-93999860D01*
X161339535Y-93999862D01*
X161400138Y-94060465D01*
X161400140Y-94060466D01*
X161400144Y-94060469D01*
X161474355Y-94103314D01*
X161474362Y-94103318D01*
X161557147Y-94125500D01*
X161557149Y-94125500D01*
X161642851Y-94125500D01*
X161642853Y-94125500D01*
X161725638Y-94103318D01*
X161799862Y-94060465D01*
X161860465Y-93999862D01*
X161903318Y-93925638D01*
X161925500Y-93842853D01*
X161925500Y-93757147D01*
X161903318Y-93674362D01*
X161878433Y-93631259D01*
X161860469Y-93600144D01*
X161860463Y-93600136D01*
X161799863Y-93539536D01*
X161799855Y-93539530D01*
X161725644Y-93496685D01*
X161725640Y-93496683D01*
X161725638Y-93496682D01*
X161642853Y-93474500D01*
X161557147Y-93474500D01*
X161474362Y-93496682D01*
X161474355Y-93496685D01*
X161400144Y-93539530D01*
X161400136Y-93539536D01*
X161339536Y-93600136D01*
X161339530Y-93600144D01*
X161296685Y-93674355D01*
X161296682Y-93674362D01*
X161274500Y-93757147D01*
X149975442Y-93757147D01*
X150056263Y-93710485D01*
X150135485Y-93631263D01*
X150191503Y-93534237D01*
X150220500Y-93426018D01*
X150220500Y-93313982D01*
X150216023Y-93297273D01*
X163899500Y-93297273D01*
X163899500Y-93402727D01*
X163926793Y-93504587D01*
X163979520Y-93595913D01*
X164054087Y-93670480D01*
X164145413Y-93723207D01*
X164247273Y-93750500D01*
X164247275Y-93750500D01*
X164352725Y-93750500D01*
X164352727Y-93750500D01*
X164454587Y-93723207D01*
X164545913Y-93670480D01*
X164620480Y-93595913D01*
X164673207Y-93504587D01*
X164700500Y-93402727D01*
X164700500Y-93297273D01*
X164673207Y-93195413D01*
X164620480Y-93104087D01*
X164545913Y-93029520D01*
X164454587Y-92976793D01*
X164352727Y-92949500D01*
X164247273Y-92949500D01*
X164145413Y-92976793D01*
X164145410Y-92976794D01*
X164054085Y-93029521D01*
X163979521Y-93104085D01*
X163926794Y-93195410D01*
X163926793Y-93195413D01*
X163899500Y-93297273D01*
X150216023Y-93297273D01*
X150191503Y-93205763D01*
X150135485Y-93108737D01*
X150056263Y-93029515D01*
X149959237Y-92973497D01*
X149851018Y-92944500D01*
X149738982Y-92944500D01*
X149630763Y-92973497D01*
X149630760Y-92973498D01*
X149533740Y-93029513D01*
X149533734Y-93029517D01*
X149454517Y-93108734D01*
X149454513Y-93108740D01*
X149398498Y-93205760D01*
X149398497Y-93205763D01*
X149369500Y-93313982D01*
X143100500Y-93313982D01*
X143100500Y-92357147D01*
X154074500Y-92357147D01*
X154074500Y-92442853D01*
X154088924Y-92496682D01*
X154096682Y-92525637D01*
X154096685Y-92525644D01*
X154139530Y-92599855D01*
X154139534Y-92599860D01*
X154139535Y-92599862D01*
X154200138Y-92660465D01*
X154200140Y-92660466D01*
X154200144Y-92660469D01*
X154224196Y-92674355D01*
X154274362Y-92703318D01*
X154357147Y-92725500D01*
X154357149Y-92725500D01*
X154442851Y-92725500D01*
X154442853Y-92725500D01*
X154525638Y-92703318D01*
X154588500Y-92667025D01*
X154656401Y-92650552D01*
X154722427Y-92673405D01*
X154765618Y-92728326D01*
X154774500Y-92774412D01*
X154774500Y-92842852D01*
X154796682Y-92925637D01*
X154796685Y-92925644D01*
X154839530Y-92999855D01*
X154839534Y-92999860D01*
X154839535Y-92999862D01*
X154900138Y-93060465D01*
X154900140Y-93060466D01*
X154900144Y-93060469D01*
X154974355Y-93103314D01*
X154974362Y-93103318D01*
X155057147Y-93125500D01*
X155057149Y-93125500D01*
X155142851Y-93125500D01*
X155142853Y-93125500D01*
X155225638Y-93103318D01*
X155299862Y-93060465D01*
X155360465Y-92999862D01*
X155403318Y-92925638D01*
X155425500Y-92842853D01*
X155425500Y-92757147D01*
X155403318Y-92674362D01*
X155403314Y-92674355D01*
X155360469Y-92600144D01*
X155360463Y-92600136D01*
X155299863Y-92539536D01*
X155299855Y-92539530D01*
X155225644Y-92496685D01*
X155225640Y-92496683D01*
X155225638Y-92496682D01*
X155142853Y-92474500D01*
X155057147Y-92474500D01*
X154974362Y-92496682D01*
X154974357Y-92496684D01*
X154911498Y-92532975D01*
X154843598Y-92549446D01*
X154777571Y-92526593D01*
X154734382Y-92471671D01*
X154725500Y-92425587D01*
X154725500Y-92357149D01*
X154725500Y-92357147D01*
X154703318Y-92274362D01*
X154695295Y-92260465D01*
X154660469Y-92200144D01*
X154660463Y-92200136D01*
X154599863Y-92139536D01*
X154599855Y-92139530D01*
X154525644Y-92096685D01*
X154525640Y-92096683D01*
X154525638Y-92096682D01*
X154442853Y-92074500D01*
X154357147Y-92074500D01*
X154274362Y-92096682D01*
X154274355Y-92096685D01*
X154200144Y-92139530D01*
X154200136Y-92139536D01*
X154139536Y-92200136D01*
X154139530Y-92200144D01*
X154096685Y-92274355D01*
X154096682Y-92274362D01*
X154074500Y-92357147D01*
X143100500Y-92357147D01*
X143100500Y-91957147D01*
X165674500Y-91957147D01*
X165674500Y-92042853D01*
X165688924Y-92096682D01*
X165696682Y-92125637D01*
X165696685Y-92125644D01*
X165739530Y-92199855D01*
X165739534Y-92199860D01*
X165739535Y-92199862D01*
X165800138Y-92260465D01*
X165800140Y-92260466D01*
X165800144Y-92260469D01*
X165868362Y-92299854D01*
X165874362Y-92303318D01*
X165957147Y-92325500D01*
X165957149Y-92325500D01*
X166042851Y-92325500D01*
X166042853Y-92325500D01*
X166125638Y-92303318D01*
X166199862Y-92260465D01*
X166260465Y-92199862D01*
X166303318Y-92125638D01*
X166321670Y-92057146D01*
X171490812Y-92057146D01*
X171490812Y-92142852D01*
X171492682Y-92149829D01*
X171512994Y-92225636D01*
X171512997Y-92225643D01*
X171555842Y-92299854D01*
X171555846Y-92299859D01*
X171555847Y-92299861D01*
X171616450Y-92360464D01*
X171616452Y-92360465D01*
X171616456Y-92360468D01*
X171690667Y-92403313D01*
X171690674Y-92403317D01*
X171773459Y-92425499D01*
X171773461Y-92425499D01*
X171859163Y-92425499D01*
X171859165Y-92425499D01*
X171941950Y-92403317D01*
X172016174Y-92360464D01*
X172076777Y-92299861D01*
X172119630Y-92225637D01*
X172141812Y-92142852D01*
X172141812Y-92057146D01*
X172139943Y-92050170D01*
X172461452Y-92050170D01*
X172461452Y-92149829D01*
X172492853Y-92225637D01*
X172499588Y-92241897D01*
X172570055Y-92312364D01*
X172662124Y-92350500D01*
X172662126Y-92350500D01*
X172761778Y-92350500D01*
X172761780Y-92350500D01*
X172853849Y-92312364D01*
X172924316Y-92241897D01*
X172962452Y-92149828D01*
X172962452Y-92050172D01*
X172924316Y-91958103D01*
X172853849Y-91887636D01*
X172821786Y-91874355D01*
X172761781Y-91849500D01*
X172761780Y-91849500D01*
X172662124Y-91849500D01*
X172662122Y-91849500D01*
X172570054Y-91887636D01*
X172499588Y-91958102D01*
X172461452Y-92050170D01*
X172139943Y-92050170D01*
X172119630Y-91974361D01*
X172119626Y-91974354D01*
X172076781Y-91900143D01*
X172076775Y-91900135D01*
X172016175Y-91839535D01*
X172016167Y-91839529D01*
X171941956Y-91796684D01*
X171941952Y-91796682D01*
X171941950Y-91796681D01*
X171859165Y-91774499D01*
X171773459Y-91774499D01*
X171690674Y-91796681D01*
X171690667Y-91796684D01*
X171616456Y-91839529D01*
X171616448Y-91839535D01*
X171555848Y-91900135D01*
X171555842Y-91900143D01*
X171512997Y-91974354D01*
X171512994Y-91974361D01*
X171490812Y-92057146D01*
X166321670Y-92057146D01*
X166325500Y-92042853D01*
X166325500Y-91957147D01*
X166303318Y-91874362D01*
X166303314Y-91874355D01*
X166260469Y-91800144D01*
X166260463Y-91800136D01*
X166199863Y-91739536D01*
X166199855Y-91739530D01*
X166125644Y-91696685D01*
X166125640Y-91696683D01*
X166125638Y-91696682D01*
X166042853Y-91674500D01*
X165957147Y-91674500D01*
X165874362Y-91696682D01*
X165874355Y-91696685D01*
X165800144Y-91739530D01*
X165800136Y-91739536D01*
X165739536Y-91800136D01*
X165739530Y-91800144D01*
X165696685Y-91874355D01*
X165696682Y-91874362D01*
X165674500Y-91957147D01*
X143100500Y-91957147D01*
X143100500Y-91482147D01*
X158774500Y-91482147D01*
X158774500Y-91567852D01*
X158796682Y-91650637D01*
X158796685Y-91650644D01*
X158839530Y-91724855D01*
X158839534Y-91724860D01*
X158839535Y-91724862D01*
X158900138Y-91785465D01*
X158900140Y-91785466D01*
X158900144Y-91785469D01*
X158974355Y-91828314D01*
X158974362Y-91828318D01*
X159057147Y-91850500D01*
X159057149Y-91850500D01*
X159142851Y-91850500D01*
X159142853Y-91850500D01*
X159225638Y-91828318D01*
X159299862Y-91785465D01*
X159360465Y-91724862D01*
X159403318Y-91650638D01*
X159425500Y-91567853D01*
X159425500Y-91482147D01*
X159874500Y-91482147D01*
X159874500Y-91567852D01*
X159896682Y-91650637D01*
X159896685Y-91650644D01*
X159939530Y-91724855D01*
X159939534Y-91724860D01*
X159939535Y-91724862D01*
X160000138Y-91785465D01*
X160000140Y-91785466D01*
X160000144Y-91785469D01*
X160074355Y-91828314D01*
X160074362Y-91828318D01*
X160157147Y-91850500D01*
X160157149Y-91850500D01*
X160242851Y-91850500D01*
X160242853Y-91850500D01*
X160325638Y-91828318D01*
X160399862Y-91785465D01*
X160460465Y-91724862D01*
X160503318Y-91650638D01*
X160525500Y-91567853D01*
X160525500Y-91482147D01*
X160503318Y-91399362D01*
X160503316Y-91399359D01*
X160503315Y-91399355D01*
X160478946Y-91357147D01*
X169774500Y-91357147D01*
X169774500Y-91442853D01*
X169785030Y-91482149D01*
X169796682Y-91525637D01*
X169796685Y-91525644D01*
X169839530Y-91599855D01*
X169839534Y-91599860D01*
X169839535Y-91599862D01*
X169900138Y-91660465D01*
X169900140Y-91660466D01*
X169900144Y-91660469D01*
X169924447Y-91674500D01*
X169974362Y-91703318D01*
X170057147Y-91725500D01*
X170057149Y-91725500D01*
X170142851Y-91725500D01*
X170142853Y-91725500D01*
X170225638Y-91703318D01*
X170299862Y-91660465D01*
X170360465Y-91599862D01*
X170403318Y-91525638D01*
X170425500Y-91442853D01*
X170425500Y-91357147D01*
X170403318Y-91274362D01*
X170397645Y-91264536D01*
X170360469Y-91200144D01*
X170360463Y-91200136D01*
X170299863Y-91139536D01*
X170299855Y-91139530D01*
X170225644Y-91096685D01*
X170225640Y-91096683D01*
X170225638Y-91096682D01*
X170142853Y-91074500D01*
X170057147Y-91074500D01*
X169974362Y-91096682D01*
X169974355Y-91096685D01*
X169900144Y-91139530D01*
X169900136Y-91139536D01*
X169839536Y-91200136D01*
X169839530Y-91200144D01*
X169796685Y-91274355D01*
X169796682Y-91274362D01*
X169774500Y-91357147D01*
X160478946Y-91357147D01*
X160460469Y-91325144D01*
X160460463Y-91325136D01*
X160399863Y-91264536D01*
X160399855Y-91264530D01*
X160325644Y-91221685D01*
X160325640Y-91221683D01*
X160325638Y-91221682D01*
X160242853Y-91199500D01*
X160157147Y-91199500D01*
X160074362Y-91221682D01*
X160074355Y-91221685D01*
X160000144Y-91264530D01*
X160000136Y-91264536D01*
X159939536Y-91325136D01*
X159939530Y-91325144D01*
X159896685Y-91399355D01*
X159896682Y-91399362D01*
X159874500Y-91482147D01*
X159425500Y-91482147D01*
X159403318Y-91399362D01*
X159403314Y-91399355D01*
X159360469Y-91325144D01*
X159360463Y-91325136D01*
X159299863Y-91264536D01*
X159299855Y-91264530D01*
X159225644Y-91221685D01*
X159225640Y-91221683D01*
X159225638Y-91221682D01*
X159142853Y-91199500D01*
X159057147Y-91199500D01*
X158974362Y-91221682D01*
X158974355Y-91221685D01*
X158900144Y-91264530D01*
X158900136Y-91264536D01*
X158839536Y-91325136D01*
X158839530Y-91325144D01*
X158796685Y-91399355D01*
X158796682Y-91399362D01*
X158774500Y-91482147D01*
X143100500Y-91482147D01*
X143100500Y-91057147D01*
X171924500Y-91057147D01*
X171924500Y-91142853D01*
X171939850Y-91200138D01*
X171946682Y-91225637D01*
X171946685Y-91225644D01*
X171989530Y-91299855D01*
X171989534Y-91299860D01*
X171989535Y-91299862D01*
X172050138Y-91360465D01*
X172050140Y-91360466D01*
X172050144Y-91360469D01*
X172117498Y-91399355D01*
X172124362Y-91403318D01*
X172207147Y-91425500D01*
X172207149Y-91425500D01*
X172292851Y-91425500D01*
X172292853Y-91425500D01*
X172375638Y-91403318D01*
X172449862Y-91360465D01*
X172510465Y-91299862D01*
X172553318Y-91225638D01*
X172575500Y-91142853D01*
X172575500Y-91057147D01*
X172553318Y-90974362D01*
X172553314Y-90974355D01*
X172510469Y-90900144D01*
X172510463Y-90900136D01*
X172449863Y-90839536D01*
X172449855Y-90839530D01*
X172375644Y-90796685D01*
X172375640Y-90796683D01*
X172375638Y-90796682D01*
X172292853Y-90774500D01*
X172207147Y-90774500D01*
X172124362Y-90796682D01*
X172124355Y-90796685D01*
X172050144Y-90839530D01*
X172050136Y-90839536D01*
X171989536Y-90900136D01*
X171989530Y-90900144D01*
X171946685Y-90974355D01*
X171946682Y-90974362D01*
X171924500Y-91057147D01*
X143100500Y-91057147D01*
X143100500Y-89850170D01*
X162549500Y-89850170D01*
X162549500Y-89949829D01*
X162579334Y-90021854D01*
X162587636Y-90041897D01*
X162658103Y-90112364D01*
X162750172Y-90150500D01*
X162750174Y-90150500D01*
X162849826Y-90150500D01*
X162849828Y-90150500D01*
X162941897Y-90112364D01*
X163012364Y-90041897D01*
X163050500Y-89949828D01*
X163050500Y-89850172D01*
X163012364Y-89758103D01*
X162941897Y-89687636D01*
X162849829Y-89649500D01*
X162849828Y-89649500D01*
X162750172Y-89649500D01*
X162750170Y-89649500D01*
X162658102Y-89687636D01*
X162587636Y-89758102D01*
X162549500Y-89850170D01*
X143100500Y-89850170D01*
X143100500Y-89276813D01*
X171593715Y-89276813D01*
X171593715Y-89362518D01*
X171615897Y-89445303D01*
X171615900Y-89445310D01*
X171658745Y-89519521D01*
X171658749Y-89519526D01*
X171658750Y-89519528D01*
X171719353Y-89580131D01*
X171719355Y-89580132D01*
X171719359Y-89580135D01*
X171793570Y-89622980D01*
X171793577Y-89622984D01*
X171876362Y-89645166D01*
X171876364Y-89645166D01*
X171884212Y-89647269D01*
X171883365Y-89650429D01*
X171933268Y-89672466D01*
X171971778Y-89730765D01*
X171972656Y-89800629D01*
X171960639Y-89829188D01*
X171946682Y-89853363D01*
X171946682Y-89853364D01*
X171924500Y-89936149D01*
X171924500Y-90021854D01*
X171946682Y-90104639D01*
X171946685Y-90104646D01*
X171989530Y-90178857D01*
X171989534Y-90178862D01*
X171989535Y-90178864D01*
X172050138Y-90239467D01*
X172050140Y-90239468D01*
X172050144Y-90239471D01*
X172124355Y-90282316D01*
X172124362Y-90282320D01*
X172207147Y-90304502D01*
X172207149Y-90304502D01*
X172292851Y-90304502D01*
X172292853Y-90304502D01*
X172375638Y-90282320D01*
X172449862Y-90239467D01*
X172510465Y-90178864D01*
X172553318Y-90104640D01*
X172575500Y-90021855D01*
X172575500Y-89936149D01*
X172553318Y-89853364D01*
X172522872Y-89800629D01*
X172510469Y-89779146D01*
X172510463Y-89779138D01*
X172449863Y-89718538D01*
X172449855Y-89718532D01*
X172375644Y-89675687D01*
X172375640Y-89675685D01*
X172375638Y-89675684D01*
X172292853Y-89653502D01*
X172292852Y-89653502D01*
X172285003Y-89651399D01*
X172285846Y-89648252D01*
X172235875Y-89626141D01*
X172197409Y-89567813D01*
X172196584Y-89497948D01*
X172208578Y-89469475D01*
X172209403Y-89468045D01*
X172222533Y-89445304D01*
X172244715Y-89362519D01*
X172244715Y-89276813D01*
X172222533Y-89194028D01*
X172222529Y-89194021D01*
X172179684Y-89119810D01*
X172179678Y-89119802D01*
X172119078Y-89059202D01*
X172119070Y-89059196D01*
X172044859Y-89016351D01*
X172044855Y-89016349D01*
X172044853Y-89016348D01*
X171962068Y-88994166D01*
X171876362Y-88994166D01*
X171793577Y-89016348D01*
X171793570Y-89016351D01*
X171719359Y-89059196D01*
X171719351Y-89059202D01*
X171658751Y-89119802D01*
X171658745Y-89119810D01*
X171615900Y-89194021D01*
X171615897Y-89194028D01*
X171593715Y-89276813D01*
X143100500Y-89276813D01*
X143100500Y-88719122D01*
X172399500Y-88719122D01*
X172399500Y-88804827D01*
X172421682Y-88887612D01*
X172421685Y-88887619D01*
X172464530Y-88961830D01*
X172464534Y-88961835D01*
X172464535Y-88961837D01*
X172525138Y-89022440D01*
X172525140Y-89022441D01*
X172525144Y-89022444D01*
X172588810Y-89059201D01*
X172599362Y-89065293D01*
X172682147Y-89087475D01*
X172682149Y-89087475D01*
X172767851Y-89087475D01*
X172767853Y-89087475D01*
X172850638Y-89065293D01*
X172924862Y-89022440D01*
X172985465Y-88961837D01*
X173028318Y-88887613D01*
X173050500Y-88804828D01*
X173050500Y-88719122D01*
X173028318Y-88636337D01*
X172988967Y-88568178D01*
X172985469Y-88562119D01*
X172985463Y-88562111D01*
X172924863Y-88501511D01*
X172924855Y-88501505D01*
X172850644Y-88458660D01*
X172850640Y-88458658D01*
X172850638Y-88458657D01*
X172767853Y-88436475D01*
X172682147Y-88436475D01*
X172599362Y-88458657D01*
X172599355Y-88458660D01*
X172525144Y-88501505D01*
X172525136Y-88501511D01*
X172464536Y-88562111D01*
X172464530Y-88562119D01*
X172421685Y-88636330D01*
X172421682Y-88636337D01*
X172399500Y-88719122D01*
X143100500Y-88719122D01*
X143100500Y-88267848D01*
X159767178Y-88267848D01*
X159767178Y-88267850D01*
X159767178Y-88367506D01*
X159805314Y-88459575D01*
X159875781Y-88530042D01*
X159967850Y-88568178D01*
X159967852Y-88568178D01*
X160067504Y-88568178D01*
X160067506Y-88568178D01*
X160159575Y-88530042D01*
X160230042Y-88459575D01*
X160268178Y-88367506D01*
X160268178Y-88267850D01*
X160230042Y-88175781D01*
X160159575Y-88105314D01*
X160067507Y-88067178D01*
X160067506Y-88067178D01*
X159967850Y-88067178D01*
X159967848Y-88067178D01*
X159875780Y-88105314D01*
X159805314Y-88175780D01*
X159767178Y-88267848D01*
X143100500Y-88267848D01*
X143100500Y-87098108D01*
X157941041Y-87098108D01*
X157941041Y-87098110D01*
X157941041Y-87197766D01*
X157979177Y-87289835D01*
X158049644Y-87360302D01*
X158141713Y-87398438D01*
X158141715Y-87398438D01*
X158241367Y-87398438D01*
X158241369Y-87398438D01*
X158333438Y-87360302D01*
X158403905Y-87289835D01*
X158442041Y-87197766D01*
X158442041Y-87098110D01*
X158403905Y-87006041D01*
X158333438Y-86935574D01*
X158241370Y-86897438D01*
X158241369Y-86897438D01*
X158141713Y-86897438D01*
X158098612Y-86915290D01*
X158098610Y-86915291D01*
X158049643Y-86935574D01*
X157979177Y-87006040D01*
X157941041Y-87098108D01*
X143100500Y-87098108D01*
X143100500Y-86370170D01*
X157849500Y-86370170D01*
X157849500Y-86469829D01*
X157877943Y-86538496D01*
X157887636Y-86561897D01*
X157958103Y-86632364D01*
X158050172Y-86670500D01*
X158050174Y-86670500D01*
X158058031Y-86670500D01*
X158149828Y-86670500D01*
X158241897Y-86632364D01*
X158312364Y-86561897D01*
X158345350Y-86482260D01*
X158389189Y-86427858D01*
X158455483Y-86405793D01*
X158523183Y-86423072D01*
X158563010Y-86460820D01*
X158567827Y-86468029D01*
X158567828Y-86468030D01*
X158638295Y-86538497D01*
X158730364Y-86576633D01*
X158730366Y-86576633D01*
X158830018Y-86576633D01*
X158830020Y-86576633D01*
X158922089Y-86538497D01*
X158992556Y-86468030D01*
X159018206Y-86406105D01*
X160323459Y-86406105D01*
X160323459Y-86491811D01*
X160342239Y-86561897D01*
X160345641Y-86574595D01*
X160345644Y-86574602D01*
X160388489Y-86648813D01*
X160388493Y-86648818D01*
X160388494Y-86648820D01*
X160449097Y-86709423D01*
X160449099Y-86709424D01*
X160449103Y-86709427D01*
X160523314Y-86752272D01*
X160523321Y-86752276D01*
X160606106Y-86774458D01*
X160606108Y-86774458D01*
X160691810Y-86774458D01*
X160691812Y-86774458D01*
X160774597Y-86752276D01*
X160848821Y-86709423D01*
X160909424Y-86648820D01*
X160952277Y-86574596D01*
X160974459Y-86491811D01*
X160974459Y-86406105D01*
X160952277Y-86323320D01*
X160940729Y-86303318D01*
X160909428Y-86249102D01*
X160909422Y-86249094D01*
X160848822Y-86188494D01*
X160848814Y-86188488D01*
X160774603Y-86145643D01*
X160774599Y-86145641D01*
X160774597Y-86145640D01*
X160691812Y-86123458D01*
X160606106Y-86123458D01*
X160523321Y-86145640D01*
X160523314Y-86145643D01*
X160449103Y-86188488D01*
X160449095Y-86188494D01*
X160388495Y-86249094D01*
X160388489Y-86249102D01*
X160345644Y-86323313D01*
X160345641Y-86323320D01*
X160323459Y-86406105D01*
X159018206Y-86406105D01*
X159030692Y-86375961D01*
X159030692Y-86276305D01*
X158992556Y-86184236D01*
X158922089Y-86113769D01*
X158893053Y-86101742D01*
X158830021Y-86075633D01*
X158830020Y-86075633D01*
X158730364Y-86075633D01*
X158730362Y-86075633D01*
X158638294Y-86113769D01*
X158567828Y-86184235D01*
X158534842Y-86263871D01*
X158491000Y-86318275D01*
X158424706Y-86340339D01*
X158357007Y-86323059D01*
X158317180Y-86285310D01*
X158312364Y-86278103D01*
X158241897Y-86207636D01*
X158149829Y-86169500D01*
X158149828Y-86169500D01*
X158050172Y-86169500D01*
X158050170Y-86169500D01*
X157958102Y-86207636D01*
X157887636Y-86278102D01*
X157849500Y-86370170D01*
X143100500Y-86370170D01*
X143100500Y-85920170D01*
X155549500Y-85920170D01*
X155549500Y-86019829D01*
X155586817Y-86109919D01*
X155587636Y-86111897D01*
X155658103Y-86182364D01*
X155750172Y-86220500D01*
X155750174Y-86220500D01*
X155849826Y-86220500D01*
X155849828Y-86220500D01*
X155941897Y-86182364D01*
X156012364Y-86111897D01*
X156013184Y-86109915D01*
X156016129Y-86106261D01*
X156019149Y-86101742D01*
X156019553Y-86102012D01*
X156057021Y-86055514D01*
X156123315Y-86033447D01*
X156191015Y-86050724D01*
X156215426Y-86069687D01*
X156269194Y-86123455D01*
X156361263Y-86161591D01*
X156361265Y-86161591D01*
X156460917Y-86161591D01*
X156460919Y-86161591D01*
X156552988Y-86123455D01*
X156623455Y-86052988D01*
X156661591Y-85960919D01*
X156661591Y-85957147D01*
X172874500Y-85957147D01*
X172874500Y-86042853D01*
X172890352Y-86102012D01*
X172896682Y-86125637D01*
X172896685Y-86125644D01*
X172939530Y-86199855D01*
X172939534Y-86199860D01*
X172939535Y-86199862D01*
X173000138Y-86260465D01*
X173000140Y-86260466D01*
X173000144Y-86260469D01*
X173030686Y-86278102D01*
X173074362Y-86303318D01*
X173157147Y-86325500D01*
X173157149Y-86325500D01*
X173242851Y-86325500D01*
X173242853Y-86325500D01*
X173325638Y-86303318D01*
X173399862Y-86260465D01*
X173460465Y-86199862D01*
X173503318Y-86125638D01*
X173525500Y-86042853D01*
X173525500Y-85957147D01*
X173503318Y-85874362D01*
X173466969Y-85811403D01*
X173460469Y-85800144D01*
X173460463Y-85800136D01*
X173399863Y-85739536D01*
X173399855Y-85739530D01*
X173325644Y-85696685D01*
X173325640Y-85696683D01*
X173325638Y-85696682D01*
X173242853Y-85674500D01*
X173157147Y-85674500D01*
X173074362Y-85696682D01*
X173074355Y-85696685D01*
X173000144Y-85739530D01*
X173000136Y-85739536D01*
X172939536Y-85800136D01*
X172939530Y-85800144D01*
X172896685Y-85874355D01*
X172896682Y-85874362D01*
X172874500Y-85957147D01*
X156661591Y-85957147D01*
X156661591Y-85861263D01*
X156623455Y-85769194D01*
X156552988Y-85698727D01*
X156548051Y-85696682D01*
X156460920Y-85660591D01*
X156460919Y-85660591D01*
X156361263Y-85660591D01*
X156361261Y-85660591D01*
X156269193Y-85698727D01*
X156198728Y-85769192D01*
X156198724Y-85769198D01*
X156197903Y-85771181D01*
X156194958Y-85774834D01*
X156191942Y-85779349D01*
X156191537Y-85779078D01*
X156154059Y-85825582D01*
X156087764Y-85847643D01*
X156020066Y-85830360D01*
X155995664Y-85811403D01*
X155941897Y-85757636D01*
X155849829Y-85719500D01*
X155849828Y-85719500D01*
X155750172Y-85719500D01*
X155750170Y-85719500D01*
X155658102Y-85757636D01*
X155587636Y-85828102D01*
X155549500Y-85920170D01*
X143100500Y-85920170D01*
X143100500Y-85257147D01*
X170274500Y-85257147D01*
X170274500Y-85342852D01*
X170296682Y-85425637D01*
X170296685Y-85425644D01*
X170339530Y-85499855D01*
X170339534Y-85499860D01*
X170339535Y-85499862D01*
X170400138Y-85560465D01*
X170400140Y-85560466D01*
X170400144Y-85560469D01*
X170474355Y-85603314D01*
X170474362Y-85603318D01*
X170557147Y-85625500D01*
X170557149Y-85625500D01*
X170642851Y-85625500D01*
X170642853Y-85625500D01*
X170725638Y-85603318D01*
X170799862Y-85560465D01*
X170860465Y-85499862D01*
X170903318Y-85425638D01*
X170925500Y-85342853D01*
X170925500Y-85257147D01*
X170903318Y-85174362D01*
X170870141Y-85116897D01*
X170860469Y-85100144D01*
X170860463Y-85100136D01*
X170799863Y-85039536D01*
X170799855Y-85039530D01*
X170725644Y-84996685D01*
X170725640Y-84996683D01*
X170725638Y-84996682D01*
X170642853Y-84974500D01*
X170557147Y-84974500D01*
X170474362Y-84996682D01*
X170474355Y-84996685D01*
X170400144Y-85039530D01*
X170400136Y-85039536D01*
X170339536Y-85100136D01*
X170339530Y-85100144D01*
X170296685Y-85174355D01*
X170296682Y-85174362D01*
X170274500Y-85257147D01*
X143100500Y-85257147D01*
X143100500Y-84925169D01*
X157208815Y-84925169D01*
X157208815Y-85024828D01*
X157240009Y-85100136D01*
X157246951Y-85116896D01*
X157317418Y-85187363D01*
X157409487Y-85225499D01*
X157409489Y-85225499D01*
X157509141Y-85225499D01*
X157509143Y-85225499D01*
X157601212Y-85187363D01*
X157671679Y-85116896D01*
X157709815Y-85024827D01*
X157709815Y-84925171D01*
X157671679Y-84833102D01*
X157601212Y-84762635D01*
X157509144Y-84724499D01*
X157509143Y-84724499D01*
X157409487Y-84724499D01*
X157409485Y-84724499D01*
X157317417Y-84762635D01*
X157246951Y-84833101D01*
X157208815Y-84925169D01*
X143100500Y-84925169D01*
X143100500Y-83391207D01*
X155930607Y-83391207D01*
X155930607Y-83391209D01*
X155930607Y-83490865D01*
X155968743Y-83582934D01*
X156039210Y-83653401D01*
X156131279Y-83691537D01*
X156131281Y-83691537D01*
X156230932Y-83691537D01*
X156230935Y-83691537D01*
X156230937Y-83691535D01*
X156238583Y-83690015D01*
X156308174Y-83696241D01*
X156363353Y-83739103D01*
X156386599Y-83804992D01*
X156377339Y-83859082D01*
X156373219Y-83869028D01*
X156373218Y-83869032D01*
X156373218Y-83869033D01*
X156373218Y-83968689D01*
X156411354Y-84060758D01*
X156481821Y-84131225D01*
X156573890Y-84169361D01*
X156573892Y-84169361D01*
X156673544Y-84169361D01*
X156673546Y-84169361D01*
X156765615Y-84131225D01*
X156779170Y-84117669D01*
X156840490Y-84084184D01*
X156910182Y-84089167D01*
X156914305Y-84090789D01*
X156918099Y-84092360D01*
X156918103Y-84092364D01*
X157010172Y-84130500D01*
X157010174Y-84130500D01*
X157109826Y-84130500D01*
X157109828Y-84130500D01*
X157201897Y-84092364D01*
X157201898Y-84092362D01*
X157208524Y-84089618D01*
X157277993Y-84082149D01*
X157340472Y-84113424D01*
X157343658Y-84116498D01*
X157358385Y-84131225D01*
X157450454Y-84169361D01*
X157450456Y-84169361D01*
X157550108Y-84169361D01*
X157550110Y-84169361D01*
X157642179Y-84131225D01*
X157712646Y-84060758D01*
X157750782Y-83968689D01*
X157750782Y-83869033D01*
X157747708Y-83861613D01*
X157740241Y-83792145D01*
X157771517Y-83729666D01*
X157831606Y-83694014D01*
X157862271Y-83690163D01*
X157967224Y-83690163D01*
X157967226Y-83690163D01*
X158059295Y-83652027D01*
X158129762Y-83581560D01*
X158129762Y-83581559D01*
X158138398Y-83572924D01*
X158141912Y-83576438D01*
X158169760Y-83550124D01*
X158238425Y-83537208D01*
X158303173Y-83563466D01*
X158313059Y-83574201D01*
X158314000Y-83573261D01*
X158322636Y-83581897D01*
X158393103Y-83652364D01*
X158485172Y-83690500D01*
X158485174Y-83690500D01*
X158584826Y-83690500D01*
X158584828Y-83690500D01*
X158676897Y-83652364D01*
X158747364Y-83581897D01*
X158785500Y-83489828D01*
X158785500Y-83390172D01*
X158747364Y-83298103D01*
X158676897Y-83227636D01*
X158676083Y-83227299D01*
X158584829Y-83189500D01*
X158584828Y-83189500D01*
X158485172Y-83189500D01*
X158485170Y-83189500D01*
X158393102Y-83227636D01*
X158393101Y-83227637D01*
X158314000Y-83306739D01*
X158311155Y-83303894D01*
X158271244Y-83334642D01*
X158201628Y-83340587D01*
X158139848Y-83307952D01*
X158138263Y-83306382D01*
X158129792Y-83297840D01*
X158129762Y-83297766D01*
X158124602Y-83292606D01*
X158124484Y-83292487D01*
X158107936Y-83261878D01*
X158091366Y-83231532D01*
X158091385Y-83231263D01*
X158091256Y-83231024D01*
X158093877Y-83196415D01*
X158096350Y-83161840D01*
X158096521Y-83161504D01*
X158096533Y-83161354D01*
X158096737Y-83161083D01*
X158109433Y-83136278D01*
X158112358Y-83131899D01*
X158112364Y-83131894D01*
X158150500Y-83039825D01*
X158150500Y-82940169D01*
X158112364Y-82848100D01*
X158041897Y-82777633D01*
X157949829Y-82739497D01*
X157949828Y-82739497D01*
X157850172Y-82739497D01*
X157850170Y-82739497D01*
X157758102Y-82777633D01*
X157687636Y-82848099D01*
X157649500Y-82940167D01*
X157649500Y-83039826D01*
X157687636Y-83131894D01*
X157692546Y-83136804D01*
X157726031Y-83198127D01*
X157721047Y-83267819D01*
X157707969Y-83293372D01*
X157705036Y-83297761D01*
X157666898Y-83389833D01*
X157666898Y-83389835D01*
X157666898Y-83489491D01*
X157667468Y-83490866D01*
X157669971Y-83496909D01*
X157677439Y-83566379D01*
X157646163Y-83628858D01*
X157586074Y-83664510D01*
X157555409Y-83668361D01*
X157450452Y-83668361D01*
X157351754Y-83709242D01*
X157282284Y-83716709D01*
X157219806Y-83685434D01*
X157216622Y-83682361D01*
X157201897Y-83667636D01*
X157109829Y-83629500D01*
X157109828Y-83629500D01*
X157010172Y-83629500D01*
X157002832Y-83629500D01*
X156935793Y-83609815D01*
X156890038Y-83557011D01*
X156880094Y-83487853D01*
X156881215Y-83481306D01*
X156881476Y-83479988D01*
X156881478Y-83479986D01*
X156881478Y-83380330D01*
X156843342Y-83288261D01*
X156843341Y-83288260D01*
X156838668Y-83276978D01*
X156840770Y-83276107D01*
X156824785Y-83225066D01*
X156843266Y-83157684D01*
X156861082Y-83135166D01*
X156873204Y-83123045D01*
X156911340Y-83030976D01*
X156911340Y-82931320D01*
X156873204Y-82839251D01*
X156802737Y-82768784D01*
X156732032Y-82739497D01*
X156710669Y-82730648D01*
X156710668Y-82730648D01*
X156611012Y-82730648D01*
X156611010Y-82730648D01*
X156518942Y-82768784D01*
X156448476Y-82839250D01*
X156410340Y-82931318D01*
X156410340Y-82931320D01*
X156410340Y-83030976D01*
X156410340Y-83030977D01*
X156410341Y-83030979D01*
X156412715Y-83036711D01*
X156420184Y-83106180D01*
X156388909Y-83168659D01*
X156328819Y-83204311D01*
X156258994Y-83201817D01*
X156250702Y-83198724D01*
X156230938Y-83190538D01*
X156230936Y-83190537D01*
X156230935Y-83190537D01*
X156131279Y-83190537D01*
X156131277Y-83190537D01*
X156039209Y-83228673D01*
X155968743Y-83299139D01*
X155930607Y-83391207D01*
X143100500Y-83391207D01*
X143100500Y-82250170D01*
X153449500Y-82250170D01*
X153449500Y-82250172D01*
X153449500Y-82349828D01*
X153487636Y-82441897D01*
X153558103Y-82512364D01*
X153650172Y-82550500D01*
X153650174Y-82550500D01*
X153749826Y-82550500D01*
X153749828Y-82550500D01*
X153841897Y-82512364D01*
X153912364Y-82441897D01*
X153950500Y-82349828D01*
X153950500Y-82250172D01*
X153912364Y-82158103D01*
X153904431Y-82150170D01*
X155199500Y-82150170D01*
X155199500Y-82249829D01*
X155206049Y-82265639D01*
X155237636Y-82341897D01*
X155308103Y-82412364D01*
X155400172Y-82450500D01*
X155400174Y-82450500D01*
X155499826Y-82450500D01*
X155499828Y-82450500D01*
X155591897Y-82412364D01*
X155662364Y-82341897D01*
X155662366Y-82341891D01*
X155669149Y-82331742D01*
X155670111Y-82332385D01*
X155706112Y-82287707D01*
X155772406Y-82265639D01*
X155840106Y-82282915D01*
X155887718Y-82334050D01*
X155891398Y-82342107D01*
X155892931Y-82345808D01*
X155931067Y-82437877D01*
X156001534Y-82508344D01*
X156093603Y-82546480D01*
X156093605Y-82546480D01*
X156193257Y-82546480D01*
X156193259Y-82546480D01*
X156285328Y-82508344D01*
X156355795Y-82437877D01*
X156393931Y-82345808D01*
X156393931Y-82246152D01*
X156355795Y-82154083D01*
X156285328Y-82083616D01*
X156193260Y-82045480D01*
X156193259Y-82045480D01*
X156093603Y-82045480D01*
X156093601Y-82045480D01*
X156001533Y-82083616D01*
X155931068Y-82154081D01*
X155924282Y-82164238D01*
X155923320Y-82163595D01*
X155887307Y-82208280D01*
X155821011Y-82230340D01*
X155753313Y-82213057D01*
X155705706Y-82161916D01*
X155702032Y-82153871D01*
X155674597Y-82087636D01*
X155662364Y-82058103D01*
X155591897Y-81987636D01*
X155499829Y-81949500D01*
X155499828Y-81949500D01*
X155400172Y-81949500D01*
X155400170Y-81949500D01*
X155308102Y-81987636D01*
X155237636Y-82058102D01*
X155199500Y-82150170D01*
X153904431Y-82150170D01*
X153841897Y-82087636D01*
X153832192Y-82083616D01*
X153749829Y-82049500D01*
X153749828Y-82049500D01*
X153650172Y-82049500D01*
X153650170Y-82049500D01*
X153558102Y-82087636D01*
X153487636Y-82158102D01*
X153449500Y-82250170D01*
X143100500Y-82250170D01*
X143100500Y-81475199D01*
X156554196Y-81475199D01*
X156554196Y-81475201D01*
X156554196Y-81574857D01*
X156592332Y-81666926D01*
X156662799Y-81737393D01*
X156754868Y-81775529D01*
X156754870Y-81775529D01*
X156854522Y-81775529D01*
X156854524Y-81775529D01*
X156946593Y-81737393D01*
X157017060Y-81666926D01*
X157055196Y-81574857D01*
X157055196Y-81475201D01*
X157017060Y-81383132D01*
X156946593Y-81312665D01*
X156854525Y-81274529D01*
X156854524Y-81274529D01*
X156754868Y-81274529D01*
X156754866Y-81274529D01*
X156662798Y-81312665D01*
X156592332Y-81383131D01*
X156554196Y-81475199D01*
X143100500Y-81475199D01*
X143100500Y-80350170D01*
X155149500Y-80350170D01*
X155149500Y-80350172D01*
X155149500Y-80449828D01*
X155187636Y-80541897D01*
X155258103Y-80612364D01*
X155350172Y-80650500D01*
X155350174Y-80650500D01*
X155449826Y-80650500D01*
X155449828Y-80650500D01*
X155541897Y-80612364D01*
X155612364Y-80541897D01*
X155650500Y-80449828D01*
X155650500Y-80350172D01*
X155612364Y-80258103D01*
X155541897Y-80187636D01*
X155449829Y-80149500D01*
X155449828Y-80149500D01*
X155350172Y-80149500D01*
X155350170Y-80149500D01*
X155258102Y-80187636D01*
X155187636Y-80258102D01*
X155149500Y-80350170D01*
X143100500Y-80350170D01*
X143100500Y-79624500D01*
X143120185Y-79557461D01*
X143172989Y-79511706D01*
X143224500Y-79500500D01*
X162376000Y-79500500D01*
X162443039Y-79520185D01*
G37*
%TD.AperFunction*%
%TD*%
M02*
