%TF.GenerationSoftware,KiCad,Pcbnew,10.0.4*%
%TF.CreationDate,2026-08-11T10:40:16+01:00*%
%TF.ProjectId,floating_hub,666c6f61-7469-46e6-975f-6875622e6b69,rev?*%
%TF.SameCoordinates,Original*%
%TF.FileFunction,Paste,Top*%
%TF.FilePolarity,Positive*%
%FSLAX46Y46*%
G04 Gerber Fmt 4.6, Leading zero omitted, Abs format (unit mm)*
G04 Created by KiCad (PCBNEW 10.0.4) date 2026-08-11 10:40:16*
%MOMM*%
%LPD*%
G01*
G04 APERTURE LIST*
G04 Aperture macros list*
%AMRoundRect*
0 Rectangle with rounded corners*
0 $1 Rounding radius*
0 $2 $3 $4 $5 $6 $7 $8 $9 X,Y pos of 4 corners*
0 Add a 4 corners polygon primitive as box body*
4,1,4,$2,$3,$4,$5,$6,$7,$8,$9,$2,$3,0*
0 Add four circle primitives for the rounded corners*
1,1,$1+$1,$2,$3*
1,1,$1+$1,$4,$5*
1,1,$1+$1,$6,$7*
1,1,$1+$1,$8,$9*
0 Add four rect primitives between the rounded corners*
20,1,$1+$1,$2,$3,$4,$5,0*
20,1,$1+$1,$4,$5,$6,$7,0*
20,1,$1+$1,$6,$7,$8,$9,0*
20,1,$1+$1,$8,$9,$2,$3,0*%
G04 Aperture macros list end*
%ADD10RoundRect,0.135000X-0.185000X0.135000X-0.185000X-0.135000X0.185000X-0.135000X0.185000X0.135000X0*%
%ADD11RoundRect,0.150000X-0.425000X0.150000X-0.425000X-0.150000X0.425000X-0.150000X0.425000X0.150000X0*%
%ADD12RoundRect,0.075000X-0.500000X0.075000X-0.500000X-0.075000X0.500000X-0.075000X0.500000X0.075000X0*%
%ADD13RoundRect,0.250000X-0.750000X0.840000X-0.750000X-0.840000X0.750000X-0.840000X0.750000X0.840000X0*%
%ADD14RoundRect,0.150000X-0.150000X-0.700000X0.150000X-0.700000X0.150000X0.700000X-0.150000X0.700000X0*%
%ADD15RoundRect,0.250000X-0.250000X-1.100000X0.250000X-1.100000X0.250000X1.100000X-0.250000X1.100000X0*%
%ADD16RoundRect,0.087500X-0.225000X-0.087500X0.225000X-0.087500X0.225000X0.087500X-0.225000X0.087500X0*%
%ADD17RoundRect,0.087500X-0.087500X-0.225000X0.087500X-0.225000X0.087500X0.225000X-0.087500X0.225000X0*%
%ADD18RoundRect,0.225000X-0.250000X0.225000X-0.250000X-0.225000X0.250000X-0.225000X0.250000X0.225000X0*%
%ADD19RoundRect,0.140000X-0.140000X-0.170000X0.140000X-0.170000X0.140000X0.170000X-0.140000X0.170000X0*%
%ADD20RoundRect,0.135000X0.135000X0.185000X-0.135000X0.185000X-0.135000X-0.185000X0.135000X-0.185000X0*%
%ADD21RoundRect,0.140000X0.170000X-0.140000X0.170000X0.140000X-0.170000X0.140000X-0.170000X-0.140000X0*%
%ADD22RoundRect,0.218750X-0.218750X-0.381250X0.218750X-0.381250X0.218750X0.381250X-0.218750X0.381250X0*%
%ADD23R,0.508000X0.508000*%
%ADD24RoundRect,0.135000X0.185000X-0.135000X0.185000X0.135000X-0.185000X0.135000X-0.185000X-0.135000X0*%
%ADD25C,0.203200*%
%ADD26RoundRect,0.147500X-0.172500X0.147500X-0.172500X-0.147500X0.172500X-0.147500X0.172500X0.147500X0*%
%ADD27RoundRect,0.225000X0.225000X0.250000X-0.225000X0.250000X-0.225000X-0.250000X0.225000X-0.250000X0*%
%ADD28RoundRect,0.225000X0.250000X-0.225000X0.250000X0.225000X-0.250000X0.225000X-0.250000X-0.225000X0*%
%ADD29RoundRect,0.140000X-0.170000X0.140000X-0.170000X-0.140000X0.170000X-0.140000X0.170000X0.140000X0*%
%ADD30RoundRect,0.135000X-0.135000X-0.185000X0.135000X-0.185000X0.135000X0.185000X-0.135000X0.185000X0*%
%ADD31R,0.450000X0.300000*%
%ADD32R,0.300000X0.450000*%
%ADD33R,0.431800X1.333500*%
%ADD34R,0.900000X1.000000*%
%ADD35RoundRect,0.250000X-1.500000X0.250000X-1.500000X-0.250000X1.500000X-0.250000X1.500000X0.250000X0*%
%ADD36RoundRect,0.250001X-1.449999X0.499999X-1.449999X-0.499999X1.449999X-0.499999X1.449999X0.499999X0*%
%ADD37RoundRect,0.225000X-0.225000X-0.250000X0.225000X-0.250000X0.225000X0.250000X-0.225000X0.250000X0*%
G04 APERTURE END LIST*
D10*
%TO.C,R5*%
X153300000Y-91690000D03*
X153300000Y-92710000D03*
%TD*%
D11*
%TO.C,J3*%
X150870000Y-93060000D03*
X150870000Y-93860000D03*
D12*
X150870000Y-95010000D03*
X150870000Y-96010000D03*
X150870000Y-96510000D03*
X150870000Y-97510000D03*
D11*
X150870000Y-98660000D03*
X150870000Y-99460000D03*
X150870000Y-99460000D03*
X150870000Y-98660000D03*
D12*
X150870000Y-98010000D03*
X150870000Y-97010000D03*
X150870000Y-95510000D03*
X150870000Y-94510000D03*
D11*
X150870000Y-93860000D03*
X150870000Y-93060000D03*
D13*
X150295000Y-91150000D03*
X146365000Y-91150000D03*
X150295000Y-101370000D03*
X146365000Y-101370000D03*
%TD*%
D14*
%TO.C,J1*%
X153800000Y-104250000D03*
X155050000Y-104250000D03*
X156300000Y-104250000D03*
X157550000Y-104250000D03*
X158800000Y-104250000D03*
X160050000Y-104250000D03*
X161300000Y-104250000D03*
X162550000Y-104250000D03*
X163800000Y-104250000D03*
X165050000Y-104250000D03*
D15*
X151950000Y-107450000D03*
X166900000Y-107450000D03*
%TD*%
D16*
%TO.C,U5*%
X165937500Y-100637500D03*
X165937500Y-101137500D03*
X165937500Y-101637500D03*
X165937500Y-102137500D03*
D17*
X166600000Y-102300000D03*
X167100000Y-102300000D03*
X167600000Y-102300000D03*
D16*
X168262500Y-102137500D03*
X168262500Y-101637500D03*
X168262500Y-101137500D03*
X168262500Y-100637500D03*
D17*
X167600000Y-100475000D03*
X167100000Y-100475000D03*
X166600000Y-100475000D03*
%TD*%
D18*
%TO.C,C5*%
X159300000Y-85650000D03*
X159300000Y-87200000D03*
%TD*%
D19*
%TO.C,C11*%
X166420000Y-103400000D03*
X167380000Y-103400000D03*
%TD*%
D20*
%TO.C,R7*%
X153865000Y-101085000D03*
X152845000Y-101085000D03*
%TD*%
D21*
%TO.C,C7*%
X157100000Y-86680000D03*
X157100000Y-85720000D03*
%TD*%
D18*
%TO.C,C4*%
X161200000Y-80725000D03*
X161200000Y-82275000D03*
%TD*%
%TO.C,C10*%
X173100000Y-100625000D03*
X173100000Y-102175000D03*
%TD*%
D22*
%TO.C,L1*%
X159637500Y-84000000D03*
X161762500Y-84000000D03*
%TD*%
D23*
%TO.C,U1*%
X163499450Y-84950000D03*
X164399450Y-85500000D03*
X163499450Y-86050000D03*
X164399450Y-86600000D03*
X163499450Y-87150000D03*
X164399450Y-87700000D03*
X163499450Y-88250000D03*
X164399450Y-88800000D03*
X163499450Y-89350000D03*
X164399450Y-89900000D03*
X163499450Y-90450000D03*
X164399450Y-91000000D03*
X163499450Y-91550000D03*
X164399450Y-92100000D03*
X163499450Y-92650000D03*
X163499450Y-93750000D03*
X164599450Y-93750000D03*
X165149450Y-92850000D03*
X165699450Y-93750000D03*
X166249450Y-92850000D03*
X166799450Y-93750000D03*
X167349450Y-92850000D03*
X167900000Y-93750000D03*
X168449450Y-92850000D03*
X168999450Y-93750000D03*
X169549450Y-92850000D03*
X170099450Y-93750000D03*
X170649450Y-92850000D03*
X171199450Y-93750000D03*
X172299450Y-93750000D03*
X172300550Y-92650000D03*
X171400550Y-92100000D03*
X172300550Y-91550000D03*
X171400550Y-91000000D03*
X172300550Y-90450000D03*
X171400550Y-89900000D03*
X172300550Y-89350000D03*
X171400550Y-88800000D03*
X172300550Y-88250000D03*
X171400550Y-87700000D03*
X172300550Y-87150000D03*
X171400550Y-86600000D03*
X172300550Y-86050000D03*
X171400550Y-85500000D03*
X172300550Y-84950000D03*
X169550000Y-84950000D03*
X166250000Y-84950000D03*
X165299450Y-86050000D03*
X165299450Y-87150000D03*
X165299450Y-88250000D03*
X165299450Y-89350000D03*
X165299450Y-90450000D03*
X166799450Y-91950000D03*
X167900000Y-91950000D03*
X168999450Y-91950000D03*
X170500550Y-90450000D03*
X170500550Y-89350000D03*
X170500550Y-88250000D03*
X170500550Y-87150000D03*
X170500550Y-86050000D03*
X164049450Y-94650000D03*
X165149450Y-94650000D03*
X166249450Y-94650000D03*
X167349450Y-94650000D03*
X168449450Y-94650000D03*
X169549450Y-94650000D03*
X170649450Y-94650000D03*
X171749450Y-94650000D03*
%TD*%
D24*
%TO.C,R1*%
X158100000Y-86420000D03*
X158100000Y-85400000D03*
%TD*%
D25*
%TO.C,U2*%
X155805000Y-82560000D03*
X156224000Y-82560000D03*
X156643000Y-82560000D03*
X157062000Y-82560000D03*
X157481000Y-82560000D03*
X157900000Y-82560000D03*
X158319000Y-82560000D03*
X155805000Y-83000000D03*
X156224000Y-83000000D03*
X156643000Y-83000000D03*
X157062000Y-83000000D03*
X157481000Y-83000000D03*
X157900000Y-83000000D03*
X158319000Y-83000000D03*
X155805000Y-83440000D03*
X156224000Y-83440000D03*
X156643000Y-83440000D03*
X157062000Y-83440000D03*
X157481000Y-83440000D03*
X157900000Y-83440000D03*
X158319000Y-83440000D03*
X155805000Y-83880000D03*
X156224000Y-83880000D03*
X156643000Y-83880000D03*
X157062000Y-83880000D03*
X157481000Y-83880000D03*
X157900000Y-83880000D03*
X158319000Y-83880000D03*
X155805000Y-84320000D03*
X156224000Y-84320000D03*
X156643000Y-84320000D03*
X157062000Y-84320000D03*
X157481000Y-84320000D03*
X157900000Y-84320000D03*
X158319000Y-84320000D03*
%TD*%
D26*
%TO.C,D3*%
X148200000Y-105532500D03*
X148200000Y-106502500D03*
%TD*%
%TO.C,D1*%
X143800000Y-105565000D03*
X143800000Y-106535000D03*
%TD*%
D10*
%TO.C,R6*%
X162400000Y-97590000D03*
X162400000Y-98610000D03*
%TD*%
D21*
%TO.C,C9*%
X161400000Y-99580000D03*
X161400000Y-98620000D03*
%TD*%
D27*
%TO.C,C13*%
X171675000Y-104100000D03*
X170125000Y-104100000D03*
%TD*%
D28*
%TO.C,C2*%
X152480000Y-81665000D03*
X152480000Y-80115000D03*
%TD*%
D24*
%TO.C,R3*%
X155800000Y-86420000D03*
X155800000Y-85400000D03*
%TD*%
D20*
%TO.C,R8*%
X157410000Y-102400000D03*
X156390000Y-102400000D03*
%TD*%
D28*
%TO.C,C1*%
X154500000Y-82975000D03*
X154500000Y-81425000D03*
%TD*%
D29*
%TO.C,C12*%
X168300000Y-103320000D03*
X168300000Y-104280000D03*
%TD*%
D30*
%TO.C,R4*%
X160390000Y-92600000D03*
X161410000Y-92600000D03*
%TD*%
D31*
%TO.C,U6*%
X169325000Y-100850000D03*
X169325000Y-101350000D03*
X169325000Y-101850000D03*
X169325000Y-102350000D03*
D32*
X169850000Y-102875000D03*
X170350000Y-102875000D03*
X170850000Y-102875000D03*
X171350000Y-102875000D03*
D31*
X171875000Y-102350000D03*
X171875000Y-101850000D03*
X171875000Y-101350000D03*
X171875000Y-100850000D03*
D32*
X171350000Y-100325000D03*
X170850000Y-100325000D03*
X170350000Y-100325000D03*
X169850000Y-100325000D03*
%TD*%
D10*
%TO.C,R9*%
X163400000Y-97590000D03*
X163400000Y-98610000D03*
%TD*%
D18*
%TO.C,C3*%
X159700000Y-80725000D03*
X159700000Y-82275000D03*
%TD*%
D33*
%TO.C,U4*%
X155715799Y-94083850D03*
X155065801Y-94083850D03*
X154415799Y-94083850D03*
X153765801Y-94083850D03*
X153765801Y-98516150D03*
X154415799Y-98516150D03*
X155065801Y-98516150D03*
X155715799Y-98516150D03*
%TD*%
%TO.C,U3*%
X160474999Y-94083850D03*
X159825001Y-94083850D03*
X159174999Y-94083850D03*
X158525001Y-94083850D03*
X158525001Y-98516150D03*
X159174999Y-98516150D03*
X159825001Y-98516150D03*
X160474999Y-98516150D03*
%TD*%
D34*
%TO.C,SW1*%
X154750000Y-89000000D03*
X158850000Y-89000000D03*
X154750000Y-90600000D03*
X158850000Y-90600000D03*
%TD*%
D35*
%TO.C,P1*%
X150900000Y-83410000D03*
X150900000Y-85410000D03*
D36*
X145150000Y-81060000D03*
X145150000Y-87760000D03*
%TD*%
D10*
%TO.C,R2*%
X154800000Y-84690000D03*
X154800000Y-85710000D03*
%TD*%
D37*
%TO.C,C6*%
X156000000Y-81200000D03*
X157550000Y-81200000D03*
%TD*%
D26*
%TO.C,D2*%
X146000000Y-105532500D03*
X146000000Y-106502500D03*
%TD*%
D29*
%TO.C,C8*%
X157000000Y-97700000D03*
X157000000Y-98660000D03*
%TD*%
M02*
