%TF.GenerationSoftware,KiCad,Pcbnew,10.0.4*%
%TF.CreationDate,2026-08-11T10:40:16+01:00*%
%TF.ProjectId,floating_hub,666c6f61-7469-46e6-975f-6875622e6b69,rev?*%
%TF.SameCoordinates,Original*%
%TF.FileFunction,Copper,L1,Top*%
%TF.FilePolarity,Positive*%
%FSLAX46Y46*%
G04 Gerber Fmt 4.6, Leading zero omitted, Abs format (unit mm)*
G04 Created by KiCad (PCBNEW 10.0.4) date 2026-08-11 10:40:16*
%MOMM*%
%LPD*%
G01*
G04 APERTURE LIST*
G04 Aperture macros list*
%AMRoundRect*
0 Rectangle with rounded corners*
0 $1 Rounding radius*
0 $2 $3 $4 $5 $6 $7 $8 $9 X,Y pos of 4 corners*
0 Add a 4 corners polygon primitive as box body*
4,1,4,$2,$3,$4,$5,$6,$7,$8,$9,$2,$3,0*
0 Add four circle primitives for the rounded corners*
1,1,$1+$1,$2,$3*
1,1,$1+$1,$4,$5*
1,1,$1+$1,$6,$7*
1,1,$1+$1,$8,$9*
0 Add four rect primitives between the rounded corners*
20,1,$1+$1,$2,$3,$4,$5,0*
20,1,$1+$1,$4,$5,$6,$7,0*
20,1,$1+$1,$6,$7,$8,$9,0*
20,1,$1+$1,$8,$9,$2,$3,0*%
G04 Aperture macros list end*
%TA.AperFunction,SMDPad,CuDef*%
%ADD10RoundRect,0.135000X-0.185000X0.135000X-0.185000X-0.135000X0.185000X-0.135000X0.185000X0.135000X0*%
%TD*%
%TA.AperFunction,SMDPad,CuDef*%
%ADD11RoundRect,0.150000X-0.425000X0.150000X-0.425000X-0.150000X0.425000X-0.150000X0.425000X0.150000X0*%
%TD*%
%TA.AperFunction,SMDPad,CuDef*%
%ADD12RoundRect,0.075000X-0.500000X0.075000X-0.500000X-0.075000X0.500000X-0.075000X0.500000X0.075000X0*%
%TD*%
%TA.AperFunction,SMDPad,CuDef*%
%ADD13RoundRect,0.250000X-0.750000X0.840000X-0.750000X-0.840000X0.750000X-0.840000X0.750000X0.840000X0*%
%TD*%
%TA.AperFunction,SMDPad,CuDef*%
%ADD14RoundRect,0.150000X-0.150000X-0.700000X0.150000X-0.700000X0.150000X0.700000X-0.150000X0.700000X0*%
%TD*%
%TA.AperFunction,SMDPad,CuDef*%
%ADD15RoundRect,0.250000X-0.250000X-1.100000X0.250000X-1.100000X0.250000X1.100000X-0.250000X1.100000X0*%
%TD*%
%TA.AperFunction,SMDPad,CuDef*%
%ADD16RoundRect,0.087500X-0.225000X-0.087500X0.225000X-0.087500X0.225000X0.087500X-0.225000X0.087500X0*%
%TD*%
%TA.AperFunction,SMDPad,CuDef*%
%ADD17RoundRect,0.087500X-0.087500X-0.225000X0.087500X-0.225000X0.087500X0.225000X-0.087500X0.225000X0*%
%TD*%
%TA.AperFunction,SMDPad,CuDef*%
%ADD18RoundRect,0.225000X-0.250000X0.225000X-0.250000X-0.225000X0.250000X-0.225000X0.250000X0.225000X0*%
%TD*%
%TA.AperFunction,SMDPad,CuDef*%
%ADD19RoundRect,0.140000X-0.140000X-0.170000X0.140000X-0.170000X0.140000X0.170000X-0.140000X0.170000X0*%
%TD*%
%TA.AperFunction,SMDPad,CuDef*%
%ADD20RoundRect,0.135000X0.135000X0.185000X-0.135000X0.185000X-0.135000X-0.185000X0.135000X-0.185000X0*%
%TD*%
%TA.AperFunction,SMDPad,CuDef*%
%ADD21RoundRect,0.140000X0.170000X-0.140000X0.170000X0.140000X-0.170000X0.140000X-0.170000X-0.140000X0*%
%TD*%
%TA.AperFunction,SMDPad,CuDef*%
%ADD22RoundRect,0.218750X-0.218750X-0.381250X0.218750X-0.381250X0.218750X0.381250X-0.218750X0.381250X0*%
%TD*%
%TA.AperFunction,SMDPad,CuDef*%
%ADD23R,0.508000X0.508000*%
%TD*%
%TA.AperFunction,SMDPad,CuDef*%
%ADD24RoundRect,0.135000X0.185000X-0.135000X0.185000X0.135000X-0.185000X0.135000X-0.185000X-0.135000X0*%
%TD*%
%TA.AperFunction,SMDPad,CuDef*%
%ADD25C,0.203200*%
%TD*%
%TA.AperFunction,SMDPad,CuDef*%
%ADD26RoundRect,0.147500X-0.172500X0.147500X-0.172500X-0.147500X0.172500X-0.147500X0.172500X0.147500X0*%
%TD*%
%TA.AperFunction,SMDPad,CuDef*%
%ADD27RoundRect,0.225000X0.225000X0.250000X-0.225000X0.250000X-0.225000X-0.250000X0.225000X-0.250000X0*%
%TD*%
%TA.AperFunction,SMDPad,CuDef*%
%ADD28RoundRect,0.225000X0.250000X-0.225000X0.250000X0.225000X-0.250000X0.225000X-0.250000X-0.225000X0*%
%TD*%
%TA.AperFunction,SMDPad,CuDef*%
%ADD29RoundRect,0.140000X-0.170000X0.140000X-0.170000X-0.140000X0.170000X-0.140000X0.170000X0.140000X0*%
%TD*%
%TA.AperFunction,SMDPad,CuDef*%
%ADD30RoundRect,0.135000X-0.135000X-0.185000X0.135000X-0.185000X0.135000X0.185000X-0.135000X0.185000X0*%
%TD*%
%TA.AperFunction,SMDPad,CuDef*%
%ADD31R,0.450000X0.300000*%
%TD*%
%TA.AperFunction,SMDPad,CuDef*%
%ADD32R,0.300000X0.450000*%
%TD*%
%TA.AperFunction,SMDPad,CuDef*%
%ADD33R,0.431800X1.333500*%
%TD*%
%TA.AperFunction,SMDPad,CuDef*%
%ADD34R,0.900000X1.000000*%
%TD*%
%TA.AperFunction,SMDPad,CuDef*%
%ADD35RoundRect,0.250000X-1.500000X0.250000X-1.500000X-0.250000X1.500000X-0.250000X1.500000X0.250000X0*%
%TD*%
%TA.AperFunction,SMDPad,CuDef*%
%ADD36RoundRect,0.250001X-1.449999X0.499999X-1.449999X-0.499999X1.449999X-0.499999X1.449999X0.499999X0*%
%TD*%
%TA.AperFunction,SMDPad,CuDef*%
%ADD37RoundRect,0.225000X-0.225000X-0.250000X0.225000X-0.250000X0.225000X0.250000X-0.225000X0.250000X0*%
%TD*%
%TA.AperFunction,ConnectorPad*%
%ADD38C,0.787400*%
%TD*%
%TA.AperFunction,ViaPad*%
%ADD39C,0.300000*%
%TD*%
%TA.AperFunction,ViaPad*%
%ADD40C,0.600000*%
%TD*%
%TA.AperFunction,ViaPad*%
%ADD41C,0.450000*%
%TD*%
%TA.AperFunction,Conductor*%
%ADD42C,0.500000*%
%TD*%
%TA.AperFunction,Conductor*%
%ADD43C,0.150000*%
%TD*%
%TA.AperFunction,Conductor*%
%ADD44C,0.200000*%
%TD*%
%TA.AperFunction,Conductor*%
%ADD45C,0.300000*%
%TD*%
%TA.AperFunction,Conductor*%
%ADD46C,0.100000*%
%TD*%
G04 APERTURE END LIST*
D10*
%TO.P,R5,1*%
%TO.N,GND*%
X153300000Y-91690000D03*
%TO.P,R5,2*%
%TO.N,/SYNC_DIR*%
X153300000Y-92710000D03*
%TD*%
D11*
%TO.P,J3,A1,GND_A1*%
%TO.N,GND*%
X150870000Y-93060000D03*
%TO.P,J3,A4,VBUS_A4*%
%TO.N,Net-(C1-Pad1)*%
X150870000Y-93860000D03*
D12*
%TO.P,J3,A5,CC1_A5*%
%TO.N,/USB_CC1*%
X150870000Y-95010000D03*
%TO.P,J3,A6,D+_A6*%
%TO.N,/USB_D+*%
X150870000Y-96010000D03*
%TO.P,J3,A7,D-_A7*%
%TO.N,/USB_D-*%
X150870000Y-96510000D03*
%TO.P,J3,A8,SBU1_A8*%
%TO.N,unconnected-(J3-SBU1-PadA8)*%
X150870000Y-97510000D03*
D11*
%TO.P,J3,A9,VBUS_A9*%
%TO.N,Net-(C1-Pad1)*%
X150870000Y-98660000D03*
%TO.P,J3,A12,GND_A12*%
%TO.N,GND*%
X150870000Y-99460000D03*
%TO.P,J3,B1,GND_B1*%
X150870000Y-99460000D03*
%TO.P,J3,B4,VBUS_B4*%
%TO.N,Net-(C1-Pad1)*%
X150870000Y-98660000D03*
D12*
%TO.P,J3,B5,CC2_B5*%
%TO.N,/USB_CC2*%
X150870000Y-98010000D03*
%TO.P,J3,B6,D+_B6*%
%TO.N,/USB_D+*%
X150870000Y-97010000D03*
%TO.P,J3,B7,D-_B7*%
%TO.N,/USB_D-*%
X150870000Y-95510000D03*
%TO.P,J3,B8,SBU2_B8*%
%TO.N,unconnected-(J3-SBU2-PadB8)*%
X150870000Y-94510000D03*
D11*
%TO.P,J3,B9,VBUS_B9*%
%TO.N,Net-(C1-Pad1)*%
X150870000Y-93860000D03*
%TO.P,J3,B12,GND_B12*%
%TO.N,GND*%
X150870000Y-93060000D03*
D13*
%TO.P,J3,SH,SHIELD_SH*%
X150295000Y-91150000D03*
X146365000Y-91150000D03*
X150295000Y-101370000D03*
X146365000Y-101370000D03*
%TD*%
D14*
%TO.P,J1,1,1_1*%
%TO.N,Net-(U3-A)*%
X153800000Y-104250000D03*
%TO.P,J1,2,2_2*%
%TO.N,Net-(U3-B)*%
X155050000Y-104250000D03*
%TO.P,J1,3,3_3*%
%TO.N,Net-(U4-A)*%
X156300000Y-104250000D03*
%TO.P,J1,4,4_4*%
%TO.N,Net-(U4-B)*%
X157550000Y-104250000D03*
%TO.P,J1,5,5_5*%
%TO.N,+3V3*%
X158800000Y-104250000D03*
%TO.P,J1,6,6_6*%
%TO.N,GND*%
X160050000Y-104250000D03*
%TO.P,J1,7,7_7*%
%TO.N,/VLOAD*%
X161300000Y-104250000D03*
%TO.P,J1,8,8_8*%
%TO.N,GND*%
X162550000Y-104250000D03*
%TO.P,J1,9,9_9*%
%TO.N,/VLOAD*%
X163800000Y-104250000D03*
%TO.P,J1,10,10_10*%
%TO.N,GND*%
X165050000Y-104250000D03*
D15*
%TO.P,J1,MP*%
%TO.N,N/C*%
X151950000Y-107450000D03*
X166900000Y-107450000D03*
%TD*%
D16*
%TO.P,U5,1,SDO/SA0_1*%
%TO.N,GND*%
X165937500Y-100637500D03*
%TO.P,U5,2,SDX/AH1/QVAR1_2*%
X165937500Y-101137500D03*
%TO.P,U5,3,SCX/AH2/QVAR2_3*%
X165937500Y-101637500D03*
%TO.P,U5,4,INT1_4*%
%TO.N,/IMU_INT1*%
X165937500Y-102137500D03*
D17*
%TO.P,U5,5,VDD_IO_5*%
%TO.N,+3V3*%
X166600000Y-102300000D03*
%TO.P,U5,6,GND_6*%
%TO.N,GND*%
X167100000Y-102300000D03*
%TO.P,U5,7,GND_7*%
X167600000Y-102300000D03*
D16*
%TO.P,U5,8,VDD_8*%
%TO.N,+3V3*%
X168262500Y-102137500D03*
%TO.P,U5,9,INT2_9*%
%TO.N,unconnected-(U5-INT2-Pad9)*%
X168262500Y-101637500D03*
%TO.P,U5,10,OCS_AUX_10*%
%TO.N,unconnected-(U5-OCS_AUX-Pad10)*%
X168262500Y-101137500D03*
%TO.P,U5,11,SDO_AUX_11*%
%TO.N,unconnected-(U5-SDO_AUX-Pad11)*%
X168262500Y-100637500D03*
D17*
%TO.P,U5,12,CS_12*%
%TO.N,+3V3*%
X167600000Y-100475000D03*
%TO.P,U5,13,SCL_13*%
%TO.N,/HOST_SCL*%
X167100000Y-100475000D03*
%TO.P,U5,14,SDA_14*%
%TO.N,/HOST_SDA*%
X166600000Y-100475000D03*
%TD*%
D18*
%TO.P,C5,1*%
%TO.N,GND*%
X159300000Y-85650000D03*
%TO.P,C5,2*%
%TO.N,+3V3*%
X159300000Y-87200000D03*
%TD*%
D19*
%TO.P,C11,1*%
%TO.N,+3V3*%
X166420000Y-103400000D03*
%TO.P,C11,2*%
%TO.N,GND*%
X167380000Y-103400000D03*
%TD*%
D20*
%TO.P,R7,1*%
%TO.N,Net-(U3-B)*%
X153865000Y-101085000D03*
%TO.P,R7,2*%
%TO.N,Net-(U3-A)*%
X152845000Y-101085000D03*
%TD*%
D21*
%TO.P,C7,1*%
%TO.N,GND*%
X157100000Y-86680000D03*
%TO.P,C7,2*%
%TO.N,+3V3*%
X157100000Y-85720000D03*
%TD*%
D18*
%TO.P,C4,1*%
%TO.N,GND*%
X161200000Y-80725000D03*
%TO.P,C4,2*%
%TO.N,/VLOAD*%
X161200000Y-82275000D03*
%TD*%
%TO.P,C10,1*%
%TO.N,Net-(U6-CAP)*%
X173100000Y-100625000D03*
%TO.P,C10,2*%
%TO.N,GND*%
X173100000Y-102175000D03*
%TD*%
D22*
%TO.P,L1,1,1_1*%
%TO.N,Net-(U2-SW2)*%
X159637500Y-84000000D03*
%TO.P,L1,2,2_2*%
%TO.N,+3V3*%
X161762500Y-84000000D03*
%TD*%
D23*
%TO.P,U1,1,GND_1*%
%TO.N,GND*%
X163499450Y-84950000D03*
%TO.P,U1,2,GND_2*%
X164399450Y-85500000D03*
%TO.P,U1,3,GND_3*%
X163499450Y-86050000D03*
%TO.P,U1,4,GND_4*%
X164399450Y-86600000D03*
%TO.P,U1,5,GND_5*%
X163499450Y-87150000D03*
%TO.P,U1,6,P0.25_6*%
%TO.N,unconnected-(U1-P0.25-Pad6)*%
X164399450Y-87700000D03*
%TO.P,U1,7,P0.26_7*%
%TO.N,unconnected-(U1-P0.26-Pad7)*%
X163499450Y-88250000D03*
%TO.P,U1,8,P0.27_8*%
%TO.N,unconnected-(U1-P0.27-Pad8)*%
X164399450Y-88800000D03*
%TO.P,U1,9,P0.28_9*%
%TO.N,/IMU_INT1*%
X163499450Y-89350000D03*
%TO.P,U1,10,P0.29_10*%
%TO.N,unconnected-(U1-P0.29-Pad10)*%
X164399450Y-89900000D03*
%TO.P,U1,11,P0.30_11*%
%TO.N,/PMIC_INT*%
X163499450Y-90450000D03*
%TO.P,U1,12,P0.31_12*%
%TO.N,unconnected-(U1-P0.31-Pad12)*%
X164399450Y-91000000D03*
%TO.P,U1,13,P0.00_13*%
%TO.N,unconnected-(U1-P0.00-Pad13)*%
X163499450Y-91550000D03*
%TO.P,U1,14,P0.01_14*%
%TO.N,unconnected-(U1-P0.01-Pad14)*%
X164399450Y-92100000D03*
%TO.P,U1,15,P0.02_15*%
%TO.N,unconnected-(U1-P0.02-Pad15)*%
X163499450Y-92650000D03*
%TO.P,U1,16,GND_16*%
%TO.N,GND*%
X163499450Y-93750000D03*
%TO.P,U1,17,VCC_17*%
%TO.N,+3V3*%
X164599450Y-93750000D03*
%TO.P,U1,18,GND_18*%
%TO.N,GND*%
X165149450Y-92850000D03*
%TO.P,U1,19,P0.03_19*%
%TO.N,unconnected-(U1-P0.03-Pad19)*%
X165699450Y-93750000D03*
%TO.P,U1,20,P0.04_20*%
%TO.N,unconnected-(U1-P0.04-Pad20)*%
X166249450Y-92850000D03*
%TO.P,U1,21,P0.05_21*%
%TO.N,unconnected-(U1-P0.05-Pad21)*%
X166799450Y-93750000D03*
%TO.P,U1,22,P0.06_22*%
%TO.N,unconnected-(U1-P0.06-Pad22)*%
X167349450Y-92850000D03*
%TO.P,U1,23,P0.07_23*%
%TO.N,unconnected-(U1-P0.07-Pad23)*%
X167900000Y-93750000D03*
%TO.P,U1,24,P0.08_24*%
%TO.N,unconnected-(U1-P0.08-Pad24)*%
X168449450Y-92850000D03*
%TO.P,U1,25,P0.09_25*%
%TO.N,unconnected-(U1-P0.09-Pad25)*%
X168999450Y-93750000D03*
%TO.P,U1,26,P0.10_26*%
%TO.N,unconnected-(U1-P0.10-Pad26)*%
X169549450Y-92850000D03*
%TO.P,U1,27,P0.11_27*%
%TO.N,unconnected-(U1-P0.11-Pad27)*%
X170099450Y-93750000D03*
%TO.P,U1,28,P0.12_28*%
%TO.N,unconnected-(U1-P0.12-Pad28)*%
X170649450Y-92850000D03*
%TO.P,U1,29,GND_29*%
%TO.N,GND*%
X171199450Y-93750000D03*
%TO.P,U1,30,GND_30*%
X172299450Y-93750000D03*
%TO.P,U1,31,P0.13_31*%
%TO.N,/HOST_SDA*%
X172300550Y-92650000D03*
%TO.P,U1,32,P0.14_32*%
%TO.N,/HOST_SCL*%
X171400550Y-92100000D03*
%TO.P,U1,33,P0.15_33*%
%TO.N,/RS485_DIR*%
X172300550Y-91550000D03*
%TO.P,U1,34,P0.16_34*%
%TO.N,/SYNC_DIR*%
X171400550Y-91000000D03*
%TO.P,U1,35,P0.17_35*%
%TO.N,/RS485_RX*%
X172300550Y-90450000D03*
%TO.P,U1,36,P0.21_36*%
%TO.N,unconnected-(U1-P0.21-Pad36)*%
X171400550Y-89900000D03*
%TO.P,U1,37,P0.19_37*%
%TO.N,/RS485_TX*%
X172300550Y-89350000D03*
%TO.P,U1,38,P0.20_38*%
%TO.N,unconnected-(U1-P0.20-Pad38)*%
X171400550Y-88800000D03*
%TO.P,U1,39,P0.18_39*%
%TO.N,Net-(J2-~{RESET})*%
X172300550Y-88250000D03*
%TO.P,U1,40,P0.22_40*%
%TO.N,unconnected-(U1-P0.22-Pad40)*%
X171400550Y-87700000D03*
%TO.P,U1,41,P0.23_41*%
%TO.N,unconnected-(U1-P0.23-Pad41)*%
X172300550Y-87150000D03*
%TO.P,U1,42,P0.24_42*%
%TO.N,unconnected-(U1-P0.24-Pad42)*%
X171400550Y-86600000D03*
%TO.P,U1,43,SWCLK_43*%
%TO.N,Net-(J2-SWCLK)*%
X172300550Y-86050000D03*
%TO.P,U1,44,SWDIO_44*%
%TO.N,Net-(J2-SWDIO)*%
X171400550Y-85500000D03*
%TO.P,U1,45,GND_45*%
%TO.N,GND*%
X172300550Y-84950000D03*
%TO.P,U1,46,GND_46*%
X169550000Y-84950000D03*
%TO.P,U1,47,GND_47*%
X166250000Y-84950000D03*
%TO.P,U1,48,P1.05_48*%
%TO.N,unconnected-(U1-P1.05-Pad48)*%
X165299450Y-86050000D03*
%TO.P,U1,49,P1.06_49*%
%TO.N,unconnected-(U1-P1.06-Pad49)*%
X165299450Y-87150000D03*
%TO.P,U1,50,P1.07_50*%
%TO.N,unconnected-(U1-P1.07-Pad50)*%
X165299450Y-88250000D03*
%TO.P,U1,51,P1.08_51*%
%TO.N,unconnected-(U1-P1.08-Pad51)*%
X165299450Y-89350000D03*
%TO.P,U1,52,P1.09_52*%
%TO.N,unconnected-(U1-P1.09-Pad52)*%
X165299450Y-90450000D03*
%TO.P,U1,53,P1.10_53*%
%TO.N,/SYNC_TX*%
X166799450Y-91950000D03*
%TO.P,U1,54,P1.11_54*%
%TO.N,unconnected-(U1-P1.11-Pad54)*%
X167900000Y-91950000D03*
%TO.P,U1,55,GND_55*%
%TO.N,GND*%
X168999450Y-91950000D03*
%TO.P,U1,56,P1.00_56*%
%TO.N,unconnected-(U1-P1.00-Pad56)*%
X170500550Y-90450000D03*
%TO.P,U1,57,P1.01_57*%
%TO.N,unconnected-(U1-P1.01-Pad57)*%
X170500550Y-89350000D03*
%TO.P,U1,58,P1.02_58*%
%TO.N,unconnected-(U1-P1.02-Pad58)*%
X170500550Y-88250000D03*
%TO.P,U1,59,P1.03_59*%
%TO.N,unconnected-(U1-P1.03-Pad59)*%
X170500550Y-87150000D03*
%TO.P,U1,60,P1.04_60*%
%TO.N,unconnected-(U1-P1.04-Pad60)*%
X170500550Y-86050000D03*
%TO.P,U1,61,P1.12_61*%
%TO.N,unconnected-(U1-P1.12-Pad61)*%
X164049450Y-94650000D03*
%TO.P,U1,62,P1.13_62*%
%TO.N,unconnected-(U1-P1.13-Pad62)*%
X165149450Y-94650000D03*
%TO.P,U1,63,P1.14_63*%
%TO.N,unconnected-(U1-P1.14-Pad63)*%
X166249450Y-94650000D03*
%TO.P,U1,64,P1.15_64*%
%TO.N,unconnected-(U1-P1.15-Pad64)*%
X167349450Y-94650000D03*
%TO.P,U1,65,VCCH_65*%
%TO.N,+3V3*%
X168449450Y-94650000D03*
%TO.P,U1,66,VBUS_66*%
%TO.N,/VBUS_OUT*%
X169549450Y-94650000D03*
%TO.P,U1,67,USB-D-_67*%
%TO.N,/USB_D-*%
X170649450Y-94650000D03*
%TO.P,U1,68,USB-D+_68*%
%TO.N,/USB_D+*%
X171749450Y-94650000D03*
%TD*%
D24*
%TO.P,R1,1*%
%TO.N,+3V3*%
X158100000Y-86420000D03*
%TO.P,R1,2*%
%TO.N,/PMIC_INT*%
X158100000Y-85400000D03*
%TD*%
D25*
%TO.P,U2,A1,LED0_A1*%
%TO.N,Net-(D3-K)*%
X155805000Y-82560000D03*
%TO.P,U2,A2,LED1_A2*%
%TO.N,Net-(D2-K)*%
X156224000Y-82560000D03*
%TO.P,U2,A3,LED2_A3*%
%TO.N,Net-(D1-K)*%
X156643000Y-82560000D03*
%TO.P,U2,A4,LSOUT1/VOUTLDO1_A4*%
%TO.N,GND*%
X157062000Y-82560000D03*
%TO.P,U2,A5,LSOUT2/VOUTLDO2_A5*%
X157481000Y-82560000D03*
%TO.P,U2,A6,AVSS_A6*%
X157900000Y-82560000D03*
%TO.P,U2,A7,PVSS1_A7*%
X158319000Y-82560000D03*
%TO.P,U2,B1,VBUS_B1*%
%TO.N,Net-(C1-Pad1)*%
X155805000Y-83000000D03*
%TO.P,U2,B2,VBUS_B2*%
X156224000Y-83000000D03*
%TO.P,U2,B3,CC2_B3*%
%TO.N,/USB_CC2*%
X156643000Y-83000000D03*
%TO.P,U2,B4,LSIN1/VINLDO1_B4*%
%TO.N,GND*%
X157062000Y-83000000D03*
%TO.P,U2,B5,LSIN2/VINLDO2_B5*%
X157481000Y-83000000D03*
%TO.P,U2,B6,VOUT1_B6*%
%TO.N,/VLOAD*%
X157900000Y-83000000D03*
%TO.P,U2,B7,SW1_B7*%
%TO.N,unconnected-(U2-SW1-PadB7)*%
X158319000Y-83000000D03*
%TO.P,U2,C1,VSYS_C1*%
%TO.N,/VLOAD*%
X155805000Y-83440000D03*
%TO.P,U2,C2,VSYS_C2*%
X156224000Y-83440000D03*
%TO.P,U2,C3,VBUSOUT_C3*%
%TO.N,/VBUS_OUT*%
X156643000Y-83440000D03*
%TO.P,U2,C4,GPIO3_C4*%
%TO.N,unconnected-(U2-GPIO3-PadC4)*%
X157062000Y-83440000D03*
%TO.P,U2,C5,GPIO2_C5*%
%TO.N,unconnected-(U2-GPIO2-PadC5)*%
X157481000Y-83440000D03*
%TO.P,U2,C6,VOUT2_C6*%
%TO.N,+3V3*%
X157900000Y-83440000D03*
%TO.P,U2,C7,PVDD_C7*%
%TO.N,/VLOAD*%
X158319000Y-83440000D03*
%TO.P,U2,D1,VBAT_D1*%
%TO.N,/LiPo+*%
X155805000Y-83880000D03*
%TO.P,U2,D2,VBAT_D2*%
X156224000Y-83880000D03*
%TO.P,U2,D3,NTC_D3*%
%TO.N,Net-(U2-NTC)*%
X156643000Y-83880000D03*
%TO.P,U2,D4,SHPHLD_D4*%
%TO.N,/SHPHLD*%
X157062000Y-83880000D03*
%TO.P,U2,D5,CC1_D5*%
%TO.N,/USB_CC1*%
X157481000Y-83880000D03*
%TO.P,U2,D6,GPIO0_D6*%
%TO.N,unconnected-(U2-GPIO0-PadD6)*%
X157900000Y-83880000D03*
%TO.P,U2,D7,SW2_D7*%
%TO.N,Net-(U2-SW2)*%
X158319000Y-83880000D03*
%TO.P,U2,E1,VSET2_E1*%
%TO.N,Net-(U2-VSET2)*%
X155805000Y-84320000D03*
%TO.P,U2,E2,VSET1_E2*%
%TO.N,GND*%
X156224000Y-84320000D03*
%TO.P,U2,E3,SCL_E3*%
%TO.N,/HOST_SCL*%
X156643000Y-84320000D03*
%TO.P,U2,E4,VDDIO_E4*%
%TO.N,+3V3*%
X157062000Y-84320000D03*
%TO.P,U2,E5,SDA_E5*%
%TO.N,/HOST_SDA*%
X157481000Y-84320000D03*
%TO.P,U2,E6,GPIO1_E6*%
%TO.N,/PMIC_INT*%
X157900000Y-84320000D03*
%TO.P,U2,E7,PVSS2_E7*%
%TO.N,GND*%
X158319000Y-84320000D03*
%TD*%
D26*
%TO.P,D3,1,K_1*%
%TO.N,Net-(D3-K)*%
X148200000Y-105532500D03*
%TO.P,D3,2,A_2*%
%TO.N,+3V3*%
X148200000Y-106502500D03*
%TD*%
%TO.P,D1,1,K_1*%
%TO.N,Net-(D1-K)*%
X143800000Y-105565000D03*
%TO.P,D1,2,A_2*%
%TO.N,+3V3*%
X143800000Y-106535000D03*
%TD*%
D10*
%TO.P,R6,1*%
%TO.N,+3V3*%
X162400000Y-97590000D03*
%TO.P,R6,2*%
%TO.N,/HOST_SCL*%
X162400000Y-98610000D03*
%TD*%
D21*
%TO.P,C9,1*%
%TO.N,GND*%
X161400000Y-99580000D03*
%TO.P,C9,2*%
%TO.N,+3V3*%
X161400000Y-98620000D03*
%TD*%
D27*
%TO.P,C13,1*%
%TO.N,GND*%
X171675000Y-104100000D03*
%TO.P,C13,2*%
%TO.N,+3V3*%
X170125000Y-104100000D03*
%TD*%
D28*
%TO.P,C2,1*%
%TO.N,/LiPo+*%
X152480000Y-81665000D03*
%TO.P,C2,2*%
%TO.N,GND*%
X152480000Y-80115000D03*
%TD*%
D24*
%TO.P,R3,1*%
%TO.N,Net-(U2-NTC)*%
X155800000Y-86420000D03*
%TO.P,R3,2*%
%TO.N,GND*%
X155800000Y-85400000D03*
%TD*%
D20*
%TO.P,R8,1*%
%TO.N,Net-(U4-B)*%
X157410000Y-102400000D03*
%TO.P,R8,2*%
%TO.N,Net-(U4-A)*%
X156390000Y-102400000D03*
%TD*%
D28*
%TO.P,C1,1*%
%TO.N,Net-(C1-Pad1)*%
X154500000Y-82975000D03*
%TO.P,C1,2*%
%TO.N,GND*%
X154500000Y-81425000D03*
%TD*%
D29*
%TO.P,C12,1*%
%TO.N,+3V3*%
X168300000Y-103320000D03*
%TO.P,C12,2*%
%TO.N,GND*%
X168300000Y-104280000D03*
%TD*%
D30*
%TO.P,R4,1*%
%TO.N,/RS485_DIR*%
X160390000Y-92600000D03*
%TO.P,R4,2*%
%TO.N,GND*%
X161410000Y-92600000D03*
%TD*%
D31*
%TO.P,U6,1,SCL/SPI_SCK_1*%
%TO.N,/HOST_SCL*%
X169325000Y-100850000D03*
%TO.P,U6,2,VDD_2*%
%TO.N,+3V3*%
X169325000Y-101350000D03*
%TO.P,U6,3,NC_3*%
%TO.N,unconnected-(U6-NC-Pad3)*%
X169325000Y-101850000D03*
%TO.P,U6,4,SPI_CS_4*%
%TO.N,+3V3*%
X169325000Y-102350000D03*
D32*
%TO.P,U6,5,SPI_SDO_5*%
%TO.N,unconnected-(U6-SPI_SDO-Pad5)*%
X169850000Y-102875000D03*
%TO.P,U6,6,NC_6*%
%TO.N,unconnected-(U6-NC-Pad6)*%
X170350000Y-102875000D03*
%TO.P,U6,7,NC_7*%
%TO.N,unconnected-(U6-NC-Pad7)*%
X170850000Y-102875000D03*
%TO.P,U6,8,NC_8*%
%TO.N,unconnected-(U6-NC-Pad8)*%
X171350000Y-102875000D03*
D31*
%TO.P,U6,9,GND_9*%
%TO.N,GND*%
X171875000Y-102350000D03*
%TO.P,U6,10,CAP_10*%
%TO.N,Net-(U6-CAP)*%
X171875000Y-101850000D03*
%TO.P,U6,11,GND_11*%
%TO.N,GND*%
X171875000Y-101350000D03*
%TO.P,U6,12,NC_12*%
%TO.N,unconnected-(U6-NC-Pad12)*%
X171875000Y-100850000D03*
D32*
%TO.P,U6,13,VDDIO_13*%
%TO.N,+3V3*%
X171350000Y-100325000D03*
%TO.P,U6,14,NC_14*%
%TO.N,unconnected-(U6-NC-Pad14)*%
X170850000Y-100325000D03*
%TO.P,U6,15,INT_15*%
%TO.N,unconnected-(U6-INT-Pad15)*%
X170350000Y-100325000D03*
%TO.P,U6,16,SDA/SPI_SDI_16*%
%TO.N,/HOST_SDA*%
X169850000Y-100325000D03*
%TD*%
D10*
%TO.P,R9,1*%
%TO.N,+3V3*%
X163400000Y-97590000D03*
%TO.P,R9,2*%
%TO.N,/HOST_SDA*%
X163400000Y-98610000D03*
%TD*%
D18*
%TO.P,C3,1*%
%TO.N,GND*%
X159700000Y-80725000D03*
%TO.P,C3,2*%
%TO.N,/VLOAD*%
X159700000Y-82275000D03*
%TD*%
D33*
%TO.P,U4,1,R_1*%
%TO.N,unconnected-(U4-R-Pad1)*%
X155715799Y-94083850D03*
%TO.P,U4,2,\u002ARE_2*%
%TO.N,/SYNC_DIR*%
X155065801Y-94083850D03*
%TO.P,U4,3,DE_3*%
X154415799Y-94083850D03*
%TO.P,U4,4,D_4*%
%TO.N,/SYNC_TX*%
X153765801Y-94083850D03*
%TO.P,U4,5,GND_5*%
%TO.N,GND*%
X153765801Y-98516150D03*
%TO.P,U4,6,A_6*%
%TO.N,Net-(U4-A)*%
X154415799Y-98516150D03*
%TO.P,U4,7,B_7*%
%TO.N,Net-(U4-B)*%
X155065801Y-98516150D03*
%TO.P,U4,8,VCC_8*%
%TO.N,+3V3*%
X155715799Y-98516150D03*
%TD*%
%TO.P,U3,1,R_1*%
%TO.N,/RS485_RX*%
X160474999Y-94083850D03*
%TO.P,U3,2,\u002ARE_2*%
%TO.N,/RS485_DIR*%
X159825001Y-94083850D03*
%TO.P,U3,3,DE_3*%
X159174999Y-94083850D03*
%TO.P,U3,4,D_4*%
%TO.N,/RS485_TX*%
X158525001Y-94083850D03*
%TO.P,U3,5,GND_5*%
%TO.N,GND*%
X158525001Y-98516150D03*
%TO.P,U3,6,A_6*%
%TO.N,Net-(U3-A)*%
X159174999Y-98516150D03*
%TO.P,U3,7,B_7*%
%TO.N,Net-(U3-B)*%
X159825001Y-98516150D03*
%TO.P,U3,8,VCC_8*%
%TO.N,+3V3*%
X160474999Y-98516150D03*
%TD*%
D34*
%TO.P,SW1,1,1_1*%
%TO.N,/SHPHLD*%
X154750000Y-89000000D03*
X158850000Y-89000000D03*
%TO.P,SW1,2,2_2*%
%TO.N,GND*%
X154750000Y-90600000D03*
X158850000Y-90600000D03*
%TD*%
D35*
%TO.P,P1,1,1_1*%
%TO.N,GND*%
X150900000Y-83410000D03*
%TO.P,P1,2,2_2*%
%TO.N,/LiPo+*%
X150900000Y-85410000D03*
D36*
%TO.P,P1,MP*%
%TO.N,N/C*%
X145150000Y-81060000D03*
X145150000Y-87760000D03*
%TD*%
D10*
%TO.P,R2,1*%
%TO.N,Net-(U2-VSET2)*%
X154800000Y-84690000D03*
%TO.P,R2,2*%
%TO.N,GND*%
X154800000Y-85710000D03*
%TD*%
D37*
%TO.P,C6,1*%
%TO.N,/VBUS_OUT*%
X156000000Y-81200000D03*
%TO.P,C6,2*%
%TO.N,GND*%
X157550000Y-81200000D03*
%TD*%
D26*
%TO.P,D2,1,K_1*%
%TO.N,Net-(D2-K)*%
X146000000Y-105532500D03*
%TO.P,D2,2,A_2*%
%TO.N,+3V3*%
X146000000Y-106502500D03*
%TD*%
D29*
%TO.P,C8,1*%
%TO.N,GND*%
X157000000Y-97700000D03*
%TO.P,C8,2*%
%TO.N,+3V3*%
X157000000Y-98660000D03*
%TD*%
D38*
%TO.P,J2,1,VCC_1*%
%TO.N,+3V3*%
X168360000Y-98470000D03*
%TO.P,J2,2,SWDIO_2*%
%TO.N,Net-(J2-SWDIO)*%
X168360000Y-97200000D03*
%TO.P,J2,3,~{RESET}_3*%
%TO.N,Net-(J2-~{RESET})*%
X169630000Y-98470000D03*
%TO.P,J2,4,SWCLK_4*%
%TO.N,Net-(J2-SWCLK)*%
X169630000Y-97200000D03*
%TO.P,J2,5,GND_5*%
%TO.N,GND*%
X170900000Y-98470000D03*
%TO.P,J2,6,SWO_6*%
%TO.N,unconnected-(J2-SWO-Pad6)*%
X170900000Y-97200000D03*
%TD*%
D39*
%TO.N,GND*%
X158430936Y-84347557D03*
D40*
X153700000Y-88900000D03*
X152500000Y-94200000D03*
X162600000Y-100700000D03*
D39*
X171000000Y-102300000D03*
D41*
X170800000Y-99200000D03*
%TO.N,/SYNC_DIR*%
X170100000Y-91400000D03*
X155100000Y-92800000D03*
D39*
%TO.N,Net-(U3-A)*%
X153900000Y-102400000D03*
D40*
X159191275Y-99350001D03*
%TO.N,Net-(U3-B)*%
X160500000Y-99900000D03*
D39*
X155050000Y-102500000D03*
D41*
%TO.N,+3V3*%
X160648959Y-86448958D03*
D40*
X155800000Y-97200000D03*
X160500000Y-97300000D03*
D39*
X157917398Y-83439663D03*
D40*
X164300000Y-93350000D03*
D39*
X158100000Y-86420000D03*
%TO.N,/VLOAD*%
X158535000Y-83440000D03*
X157900000Y-82989997D03*
X156181107Y-83441037D03*
D40*
X161700000Y-102900000D03*
X163600000Y-102800000D03*
D39*
%TO.N,/IMU_INT1*%
X164900000Y-101300000D03*
X162800000Y-89900000D03*
%TO.N,/HOST_SCL*%
X156411091Y-85911091D03*
X169265166Y-100465166D03*
X162825000Y-99800000D03*
D41*
X171816312Y-92099999D03*
D39*
X167300000Y-99700000D03*
%TO.N,/HOST_SDA*%
X157459315Y-84974999D03*
X170300000Y-100850002D03*
X173600000Y-92500000D03*
X167100000Y-99130300D03*
%TO.N,/PMIC_INT*%
X160017678Y-88317678D03*
X158780192Y-86326133D03*
D41*
%TO.N,/RS485_DIR*%
X160200000Y-91525000D03*
X172250000Y-91100000D03*
%TO.N,/RS485_RX*%
X161600000Y-93800000D03*
X172250000Y-89979002D03*
%TO.N,/RS485_TX*%
X159100000Y-91525000D03*
X171919215Y-89319666D03*
D39*
%TO.N,Net-(J2-~{RESET})*%
X172711952Y-92100000D03*
D41*
X169700000Y-99200000D03*
X172725000Y-88761975D03*
%TO.N,Net-(J2-SWCLK)*%
X173200000Y-86000000D03*
X170200000Y-96500000D03*
%TO.N,Net-(J2-SWDIO)*%
X169200000Y-96500000D03*
X170600000Y-85300000D03*
%TO.N,/SYNC_TX*%
X154400000Y-92400000D03*
X166000000Y-92000000D03*
D39*
%TO.N,/USB_D-*%
X171807843Y-95457843D03*
X152200000Y-95850000D03*
%TO.N,/USB_D+*%
X152350000Y-96850000D03*
X172450000Y-95300000D03*
%TO.N,Net-(D3-K)*%
X155450000Y-82200000D03*
X148350000Y-104650000D03*
%TO.N,Net-(D2-K)*%
X156143431Y-82295980D03*
%TO.N,Net-(D1-K)*%
X143950000Y-104350000D03*
X156804696Y-81525029D03*
%TO.N,Net-(C1-Pad1)*%
X153700000Y-82300000D03*
X148700000Y-94600000D03*
%TO.N,/USB_CC2*%
X156660840Y-82981148D03*
X152300000Y-98000000D03*
%TO.N,/VBUS_OUT*%
X168863091Y-95684378D03*
X155400000Y-80400000D03*
X156630978Y-83430158D03*
%TO.N,Net-(U2-NTC)*%
X156623718Y-83918861D03*
X155800000Y-85970000D03*
%TO.N,/SHPHLD*%
X158191541Y-87147938D03*
X157060000Y-83880000D03*
X157060000Y-83880000D03*
%TO.N,/USB_CC1*%
X151800000Y-95100000D03*
X157500282Y-83918861D03*
%TD*%
%TO.N,GND*%
D42*
X150900000Y-83410000D02*
X150223834Y-83410000D01*
X150223834Y-83410000D02*
X148750000Y-84883834D01*
X148750000Y-84883834D02*
X148750000Y-89605000D01*
X148750000Y-89605000D02*
X150295000Y-91150000D01*
%TO.N,/LiPo+*%
X150800000Y-85400000D02*
X152800000Y-85400000D01*
X152800000Y-85400000D02*
X154200000Y-84000000D01*
%TO.N,GND*%
D43*
X171425000Y-101425000D02*
X171500000Y-101350000D01*
D44*
X171000000Y-102300000D02*
X171825000Y-102300000D01*
D42*
X154500000Y-80522182D02*
X154500000Y-81425000D01*
D43*
X173100000Y-102175000D02*
X172925000Y-102350000D01*
D44*
X154365000Y-85710000D02*
X153600000Y-86475000D01*
D42*
X156200000Y-79850000D02*
X155172182Y-79850000D01*
D45*
X163499450Y-84950000D02*
X163849450Y-84950000D01*
D43*
X167100000Y-101987501D02*
X166749999Y-101637500D01*
X166749999Y-101637500D02*
X165937500Y-101637500D01*
X165937500Y-101637500D02*
X165000000Y-100700000D01*
D45*
X159825001Y-103600001D02*
X159975000Y-103750000D01*
D44*
X154800000Y-85710000D02*
X154365000Y-85710000D01*
D42*
X153700000Y-88900000D02*
X153700000Y-89550000D01*
D44*
X156224000Y-84376071D02*
X156200071Y-84400000D01*
D43*
X157062000Y-83000000D02*
X157062000Y-82560000D01*
X171875000Y-102350000D02*
X171875000Y-103900000D01*
D45*
X164399450Y-86600000D02*
X164049450Y-86600000D01*
D44*
X157000000Y-97700000D02*
X157708851Y-97700000D01*
D43*
X167600000Y-103620000D02*
X167600000Y-102300000D01*
D42*
X153700000Y-89550000D02*
X154750000Y-90600000D01*
D45*
X169725000Y-84775000D02*
X169550000Y-84950000D01*
X172125550Y-84775000D02*
X166425000Y-84775000D01*
D43*
X165937500Y-101637500D02*
X165937500Y-100637500D01*
D45*
X166250000Y-84950000D02*
X163499450Y-84950000D01*
D42*
X152575000Y-94125000D02*
X152500000Y-94200000D01*
X150300000Y-100065000D02*
X150875000Y-99490000D01*
D44*
X161400000Y-99900000D02*
X161400000Y-99580000D01*
D45*
X163499450Y-93750000D02*
X163450000Y-93750000D01*
D42*
X160050000Y-103550000D02*
X160050000Y-104250000D01*
D45*
X173015300Y-97169135D02*
X172178735Y-98005700D01*
X160300000Y-90600000D02*
X158850000Y-90600000D01*
D44*
X159550000Y-88219669D02*
X159550000Y-89900000D01*
D43*
X156465000Y-86915000D02*
X154040000Y-86915000D01*
X171875000Y-102350000D02*
X171550000Y-102350000D01*
D44*
X159300000Y-85301000D02*
X158319000Y-84320000D01*
X162819669Y-84950000D02*
X159550000Y-88219669D01*
D45*
X163499450Y-86050000D02*
X163849450Y-86050000D01*
D44*
X157550000Y-81200000D02*
X157550000Y-82491000D01*
D42*
X159700000Y-80725000D02*
X158025000Y-80725000D01*
D44*
X160325000Y-84625000D02*
X160325000Y-83975000D01*
D42*
X162750000Y-100850000D02*
X165050000Y-103150000D01*
D44*
X159300000Y-85650000D02*
X160325000Y-84625000D01*
D45*
X173015300Y-94465850D02*
X173015300Y-97169135D01*
D44*
X152740000Y-91690000D02*
X152575000Y-91525000D01*
D42*
X162750000Y-100850000D02*
X160050000Y-103550000D01*
D43*
X171875000Y-103900000D02*
X171675000Y-104100000D01*
D44*
X170775000Y-99225000D02*
X170800000Y-99200000D01*
D45*
X169550000Y-90291450D02*
X169550000Y-84950000D01*
D42*
X154750000Y-90600000D02*
X158850000Y-90600000D01*
D44*
X170900000Y-99100000D02*
X170800000Y-99200000D01*
X156224000Y-84320000D02*
X156224000Y-84376071D01*
D43*
X167640000Y-103660000D02*
X167380000Y-103400000D01*
D42*
X152791951Y-99490000D02*
X153765801Y-98516150D01*
D45*
X166425000Y-84775000D02*
X166250000Y-84950000D01*
D44*
X153300000Y-91690000D02*
X152740000Y-91690000D01*
D42*
X150300000Y-91180000D02*
X150300000Y-92515000D01*
D44*
X170900000Y-98470000D02*
X170900000Y-99100000D01*
D45*
X163849450Y-84950000D02*
X164399450Y-85500000D01*
D42*
X152400000Y-80125000D02*
X153200000Y-80125000D01*
X150300000Y-101400000D02*
X146370000Y-101400000D01*
D43*
X171500000Y-101350000D02*
X171875000Y-101350000D01*
D44*
X160325000Y-83975000D02*
X161325000Y-82975000D01*
D43*
X157062000Y-82560000D02*
X158319000Y-82560000D01*
D45*
X163849450Y-86050000D02*
X164399450Y-86600000D01*
X171364300Y-98005700D02*
X170900000Y-98470000D01*
X164399450Y-85500000D02*
X164049450Y-85500000D01*
D42*
X153700000Y-86475000D02*
X153700000Y-88900000D01*
X162600000Y-100700000D02*
X162750000Y-100850000D01*
D43*
X157062000Y-83000000D02*
X157062000Y-83025000D01*
D44*
X156181699Y-92031699D02*
X156181699Y-95241048D01*
X159300000Y-85650000D02*
X159300000Y-85301000D01*
X171825000Y-102300000D02*
X171875000Y-102350000D01*
D42*
X165050000Y-103150000D02*
X165050000Y-104250000D01*
D45*
X172299450Y-93750000D02*
X171199450Y-93750000D01*
D43*
X157062000Y-83000000D02*
X157481000Y-83000000D01*
D44*
X158403379Y-84320000D02*
X158430936Y-84347557D01*
D43*
X157481000Y-83000000D02*
X157481000Y-82560000D01*
D44*
X157550000Y-82491000D02*
X157481000Y-82560000D01*
D42*
X158025000Y-80725000D02*
X157550000Y-81200000D01*
D45*
X168999450Y-91950000D02*
X168445450Y-91396000D01*
D42*
X152230000Y-91180000D02*
X152575000Y-91525000D01*
D44*
X154457099Y-96965648D02*
X155715799Y-95706948D01*
D42*
X152575000Y-91525000D02*
X152575000Y-94125000D01*
D45*
X172300550Y-84950000D02*
X172125550Y-84775000D01*
D43*
X156700000Y-86680000D02*
X156465000Y-86915000D01*
D45*
X165861537Y-91396000D02*
X165149450Y-92108087D01*
D42*
X161200000Y-80725000D02*
X159700000Y-80725000D01*
X153200000Y-80125000D02*
X154500000Y-81425000D01*
D43*
X168260000Y-104280000D02*
X167640000Y-103660000D01*
D44*
X154750000Y-90600000D02*
X156181699Y-92031699D01*
D45*
X168445450Y-91396000D02*
X165861537Y-91396000D01*
D44*
X161410000Y-92600000D02*
X162349450Y-92600000D01*
X155715799Y-95706948D02*
X158525001Y-98516150D01*
X161925000Y-82702986D02*
X161925000Y-81450000D01*
D43*
X167640000Y-103660000D02*
X167600000Y-103620000D01*
D44*
X159550000Y-89900000D02*
X158850000Y-90600000D01*
X153765801Y-97634199D02*
X154434352Y-96965648D01*
D43*
X165000000Y-100700000D02*
X162600000Y-100700000D01*
D45*
X164049450Y-85500000D02*
X163499450Y-86050000D01*
D44*
X156181699Y-95241048D02*
X155715799Y-95706948D01*
X153765801Y-98516150D02*
X153765801Y-97634199D01*
D42*
X162600000Y-100700000D02*
X162520000Y-100700000D01*
D43*
X167100000Y-102300000D02*
X167100000Y-101987501D01*
D44*
X155800000Y-85400000D02*
X155110000Y-85400000D01*
X161652986Y-82975000D02*
X161925000Y-82702986D01*
D42*
X162600000Y-104200000D02*
X162550000Y-104250000D01*
X162520000Y-100700000D02*
X161400000Y-99580000D01*
D43*
X171550000Y-102350000D02*
X171425000Y-102225000D01*
D44*
X157708851Y-97700000D02*
X158525001Y-98516150D01*
D43*
X171425000Y-102225000D02*
X171425000Y-101425000D01*
D44*
X155800000Y-85400000D02*
X156224000Y-84976000D01*
X162349450Y-92600000D02*
X163499450Y-93750000D01*
D45*
X165149450Y-92108087D02*
X165149450Y-92850000D01*
D44*
X163499450Y-84950000D02*
X162819669Y-84950000D01*
D45*
X172299450Y-93750000D02*
X173015300Y-94465850D01*
D43*
X154040000Y-86915000D02*
X153600000Y-86475000D01*
X167600000Y-102300000D02*
X167100000Y-102300000D01*
D44*
X158319000Y-84320000D02*
X158403379Y-84320000D01*
D42*
X157550000Y-81200000D02*
X156200000Y-79850000D01*
D45*
X163450000Y-93750000D02*
X160300000Y-90600000D01*
D42*
X162600000Y-100700000D02*
X162600000Y-104200000D01*
D45*
X172125550Y-84775000D02*
X169725000Y-84775000D01*
D42*
X150300000Y-91180000D02*
X146370000Y-91180000D01*
D44*
X161925000Y-81450000D02*
X161200000Y-80725000D01*
D43*
X157100000Y-86680000D02*
X156700000Y-86680000D01*
D44*
X156224000Y-84976000D02*
X156224000Y-84320000D01*
X155110000Y-85400000D02*
X154800000Y-85710000D01*
D42*
X150875000Y-99490000D02*
X152791951Y-99490000D01*
D44*
X161325000Y-82975000D02*
X161652986Y-82975000D01*
D43*
X168300000Y-104280000D02*
X168260000Y-104280000D01*
X172925000Y-102350000D02*
X171875000Y-102350000D01*
D42*
X155172182Y-79850000D02*
X154500000Y-80522182D01*
D45*
X172178735Y-98005700D02*
X171364300Y-98005700D01*
D44*
X149975000Y-101825000D02*
X150200000Y-101600000D01*
D45*
X164049450Y-86600000D02*
X163499450Y-87150000D01*
D42*
X160000000Y-103825000D02*
X159975000Y-103850000D01*
X150300000Y-91180000D02*
X152230000Y-91180000D01*
D45*
X168445450Y-91396000D02*
X169550000Y-90291450D01*
D42*
X150300000Y-92515000D02*
X150875000Y-93090000D01*
X150300000Y-101400000D02*
X150300000Y-100065000D01*
D44*
X154434352Y-96965648D02*
X154457099Y-96965648D01*
%TO.N,/SYNC_DIR*%
X155065801Y-94083850D02*
X154415799Y-94083850D01*
X155100000Y-92428248D02*
X154596752Y-91925000D01*
X171000550Y-91400000D02*
X171400550Y-91000000D01*
X154085000Y-91925000D02*
X153300000Y-92710000D01*
X155065801Y-94083850D02*
X155065801Y-92834199D01*
X155065801Y-92834199D02*
X155100000Y-92800000D01*
X154596752Y-91925000D02*
X154085000Y-91925000D01*
X155100000Y-92800000D02*
X155100000Y-92428248D01*
X170100000Y-91400000D02*
X171000550Y-91400000D01*
%TO.N,Net-(U3-A)*%
X153800000Y-104080158D02*
X153800000Y-104250000D01*
X153900000Y-104150000D02*
X153800000Y-104250000D01*
X159174999Y-98516150D02*
X159174999Y-99333725D01*
X159174999Y-99333725D02*
X159191275Y-99350001D01*
X152845000Y-101345000D02*
X153900000Y-102400000D01*
D42*
X153700000Y-103725000D02*
X153725000Y-103750000D01*
D44*
X152845000Y-101085000D02*
X152845000Y-101345000D01*
X153900000Y-102400000D02*
X153900000Y-104150000D01*
X153725000Y-103680158D02*
X153725000Y-103850000D01*
X159191275Y-99350001D02*
X158991276Y-99550000D01*
%TO.N,Net-(U3-B)*%
X159825001Y-98516150D02*
X159825001Y-99225001D01*
X155050000Y-102500000D02*
X155050000Y-104250000D01*
X153865000Y-101315000D02*
X155050000Y-102500000D01*
X159825001Y-99225001D02*
X160500000Y-99900000D01*
X153865000Y-101085000D02*
X153865000Y-101315000D01*
%TO.N,Net-(U4-A)*%
X156390000Y-102400000D02*
X154415799Y-100425799D01*
X154415799Y-100425799D02*
X154415799Y-98516150D01*
X156300000Y-104250000D02*
X156300000Y-102490000D01*
X156300000Y-102490000D02*
X156390000Y-102400000D01*
%TO.N,Net-(U4-B)*%
X155065801Y-100055801D02*
X157410000Y-102400000D01*
X155065801Y-98516150D02*
X155065801Y-100055801D01*
D45*
X157400000Y-103675000D02*
X157475000Y-103750000D01*
D44*
X157550000Y-104250000D02*
X157550000Y-102540000D01*
X157550000Y-102540000D02*
X157410000Y-102400000D01*
%TO.N,+3V3*%
D43*
X169325000Y-102350000D02*
X169650000Y-102350000D01*
X168835000Y-104575068D02*
X168835000Y-103855000D01*
D45*
X164300000Y-93450550D02*
X164599450Y-93750000D01*
X164300000Y-93350000D02*
X164300000Y-93450550D01*
X161762500Y-84737500D02*
X159300000Y-87200000D01*
D44*
X158800000Y-100460000D02*
X157000000Y-98660000D01*
D45*
X159300000Y-87200000D02*
X158880000Y-87200000D01*
D43*
X168800000Y-100400000D02*
X169550000Y-99650000D01*
X169650000Y-102350000D02*
X169800000Y-102200000D01*
D44*
X158100000Y-86420000D02*
X158100000Y-86320000D01*
D45*
X159897917Y-87200000D02*
X160648959Y-86448958D01*
X158600000Y-103625000D02*
X158725000Y-103750000D01*
D43*
X171000000Y-99650000D02*
X169550000Y-99650000D01*
D45*
X158880000Y-87200000D02*
X158100000Y-86420000D01*
X155715799Y-97284201D02*
X155800000Y-97200000D01*
X166244700Y-96854750D02*
X166244700Y-98185135D01*
D43*
X169325000Y-103300000D02*
X169325000Y-102350000D01*
D45*
X155715799Y-98516150D02*
X156856150Y-98516150D01*
D43*
X168835000Y-103855000D02*
X168300000Y-103320000D01*
D44*
X143800000Y-106535000D02*
X148167500Y-106535000D01*
D45*
X166244700Y-96854750D02*
X160945250Y-96854750D01*
D43*
X168262500Y-102137500D02*
X168262500Y-103282500D01*
X168519366Y-102137500D02*
X168800000Y-101856866D01*
D45*
X160500000Y-97300000D02*
X160500000Y-98491149D01*
D43*
X169550000Y-99650000D02*
X169513603Y-99650000D01*
X166600000Y-102300000D02*
X166600000Y-103220000D01*
X168625068Y-104785000D02*
X168835000Y-104575068D01*
X168800000Y-100418134D02*
X168619366Y-100237500D01*
D45*
X166244700Y-98185135D02*
X166739865Y-98680300D01*
X162400000Y-97590000D02*
X163400000Y-97590000D01*
D43*
X169513603Y-99650000D02*
X168360000Y-98496397D01*
D45*
X156856150Y-98516150D02*
X157000000Y-98660000D01*
D43*
X168262500Y-103282500D02*
X168300000Y-103320000D01*
D45*
X161296150Y-98516150D02*
X161400000Y-98620000D01*
X160945250Y-96854750D02*
X160500000Y-97300000D01*
D44*
X158049999Y-105850000D02*
X158800000Y-105099999D01*
D45*
X168449450Y-94650000D02*
X166244700Y-96854750D01*
D43*
X166420000Y-103400000D02*
X167805000Y-104785000D01*
X156849000Y-84681948D02*
X156849000Y-85469000D01*
D45*
X160500000Y-98491149D02*
X160474999Y-98516150D01*
D43*
X167805000Y-104785000D02*
X168625068Y-104785000D01*
X168800000Y-100418134D02*
X168800000Y-100400000D01*
X169650000Y-101350000D02*
X170700000Y-101350000D01*
D45*
X161400000Y-98590000D02*
X162400000Y-97590000D01*
X159300000Y-87200000D02*
X159897917Y-87200000D01*
X166739865Y-98680300D02*
X168149700Y-98680300D01*
D44*
X157500000Y-85720000D02*
X157100000Y-85720000D01*
D43*
X168262500Y-102137500D02*
X168519366Y-102137500D01*
X166600000Y-103220000D02*
X166420000Y-103400000D01*
D44*
X148200000Y-106502500D02*
X148852500Y-105850000D01*
D43*
X168619366Y-100237500D02*
X167837500Y-100237500D01*
D45*
X168149700Y-98680300D02*
X168360000Y-98470000D01*
D43*
X171350000Y-100000000D02*
X171000000Y-99650000D01*
X157062000Y-84320000D02*
X157080000Y-84320000D01*
X170700000Y-101350000D02*
X171350000Y-100700000D01*
D44*
X158800000Y-105099999D02*
X158800000Y-104250000D01*
D43*
X156849000Y-85469000D02*
X157100000Y-85720000D01*
X169800000Y-102200000D02*
X169800000Y-101500000D01*
X169800000Y-101500000D02*
X169650000Y-101350000D01*
X169650000Y-101350000D02*
X169325000Y-101350000D01*
X156849000Y-84681948D02*
X157062000Y-84468948D01*
X171350000Y-100700000D02*
X171350000Y-100325000D01*
D44*
X158800000Y-104250000D02*
X158800000Y-100460000D01*
D43*
X168360000Y-98496397D02*
X168360000Y-98470000D01*
X167837500Y-100237500D02*
X167600000Y-100475000D01*
X168800000Y-101856866D02*
X168800000Y-100418134D01*
D45*
X161400000Y-98620000D02*
X161400000Y-98590000D01*
D43*
X171350000Y-100325000D02*
X171350000Y-100000000D01*
D44*
X158100000Y-86320000D02*
X157500000Y-85720000D01*
X148852500Y-105850000D02*
X158049999Y-105850000D01*
D45*
X161762500Y-84000000D02*
X161762500Y-84737500D01*
D43*
X157062000Y-84468948D02*
X157062000Y-84320000D01*
X170125000Y-104100000D02*
X169325000Y-103300000D01*
D44*
X148167500Y-106535000D02*
X148200000Y-106502500D01*
D45*
X160474999Y-98516150D02*
X161296150Y-98516150D01*
X155715799Y-98516150D02*
X155715799Y-97284201D01*
%TO.N,/VLOAD*%
D43*
X158319000Y-83440000D02*
X158535000Y-83440000D01*
X158319000Y-83419000D02*
X158300000Y-83400000D01*
D45*
X161200000Y-103725000D02*
X161225000Y-103750000D01*
D43*
X158535000Y-83440000D02*
X159700000Y-82275000D01*
D42*
X163600000Y-102800000D02*
X163600000Y-104050000D01*
D43*
X157900000Y-83000000D02*
X157900000Y-82989997D01*
D42*
X161200000Y-82275000D02*
X159700000Y-82275000D01*
D43*
X156224000Y-83440000D02*
X155805000Y-83440000D01*
X158319000Y-83440000D02*
X158319000Y-83419000D01*
D42*
X163600000Y-104050000D02*
X163800000Y-104250000D01*
X161700000Y-102900000D02*
X161700000Y-103850000D01*
X161700000Y-103850000D02*
X161300000Y-104250000D01*
%TO.N,/IMU_INT1*%
D43*
X164900000Y-101412499D02*
X164900000Y-101300000D01*
D44*
X162949450Y-89900000D02*
X163499450Y-89350000D01*
D43*
X165937500Y-102137500D02*
X165625001Y-102137500D01*
D44*
X162800000Y-89900000D02*
X162949450Y-89900000D01*
D43*
X165625001Y-102137500D02*
X164900000Y-101412499D01*
%TO.N,/HOST_SCL*%
D44*
X162400000Y-98610000D02*
X162400000Y-99400000D01*
D43*
X156643000Y-84463684D02*
X156549000Y-84557684D01*
X171816312Y-92099999D02*
X171400550Y-92100000D01*
X167100000Y-99900000D02*
X167100000Y-100475000D01*
X156549000Y-84557684D02*
X156549000Y-85808536D01*
X169265166Y-100465166D02*
X169265166Y-100790166D01*
X156643000Y-84320000D02*
X156643000Y-84463684D01*
X169265166Y-100790166D02*
X169325000Y-100850000D01*
D44*
X162400000Y-99400000D02*
X162800000Y-99800000D01*
X162800000Y-99800000D02*
X162825000Y-99800000D01*
D43*
X156549000Y-85808536D02*
X156428768Y-85928768D01*
X167300000Y-99700000D02*
X167100000Y-99900000D01*
%TO.N,/HOST_SDA*%
X157514976Y-84320000D02*
X157517488Y-84317488D01*
D44*
X172450550Y-92500000D02*
X173600000Y-92500000D01*
X170300000Y-100850002D02*
X170000002Y-100850002D01*
X167100000Y-99105300D02*
X166794700Y-99105300D01*
D43*
X157481000Y-84953314D02*
X157459315Y-84974999D01*
X157481000Y-84320000D02*
X157481000Y-84953314D01*
D44*
X163400000Y-98610000D02*
X163400000Y-99375000D01*
D43*
X166600000Y-100475000D02*
X166600000Y-99500000D01*
D44*
X169850000Y-100700000D02*
X169850000Y-100325000D01*
X167100000Y-99105300D02*
X167100000Y-99130300D01*
X170000002Y-100850002D02*
X169850000Y-100700000D01*
X166794700Y-99105300D02*
X166500000Y-99400000D01*
X172300550Y-92650000D02*
X172450550Y-92500000D01*
X163400000Y-99375000D02*
X163425000Y-99400000D01*
X163425000Y-99400000D02*
X166500000Y-99400000D01*
D43*
X157481000Y-84320000D02*
X157514976Y-84320000D01*
X166600000Y-99500000D02*
X166500000Y-99400000D01*
%TO.N,Net-(U6-CAP)*%
X172150000Y-101850000D02*
X173100000Y-100900000D01*
X173100000Y-100900000D02*
X173100000Y-100625000D01*
X171875000Y-101850000D02*
X172150000Y-101850000D01*
%TO.N,Net-(U2-SW2)*%
X159637500Y-84000000D02*
X159517500Y-83880000D01*
X159517500Y-83880000D02*
X158319000Y-83880000D01*
%TO.N,/PMIC_INT*%
D44*
X163499450Y-90450000D02*
X162150000Y-90450000D01*
D43*
X158795333Y-86262963D02*
X158795333Y-86310992D01*
X158795333Y-86310992D02*
X158780192Y-86326133D01*
D44*
X157900000Y-85200000D02*
X158100000Y-85400000D01*
X162150000Y-90450000D02*
X160017678Y-88317678D01*
D43*
X158100000Y-85567630D02*
X158795333Y-86262963D01*
D44*
X157900000Y-84320000D02*
X157900000Y-85200000D01*
D43*
X158100000Y-85400000D02*
X158100000Y-85567630D01*
%TO.N,/RS485_DIR*%
D45*
X159825001Y-93164999D02*
X160390000Y-92600000D01*
X159825001Y-94083850D02*
X159825001Y-93164999D01*
D44*
X172250000Y-91100000D02*
X172250000Y-91499450D01*
D45*
X159174999Y-94083850D02*
X159825001Y-94083850D01*
D44*
X172250000Y-91499450D02*
X172300550Y-91550000D01*
D45*
X159825001Y-91899999D02*
X160200000Y-91525000D01*
X159825001Y-94083850D02*
X159825001Y-91899999D01*
%TO.N,/RS485_RX*%
D44*
X160474999Y-94083850D02*
X161316150Y-94083850D01*
X172250000Y-90399450D02*
X172300550Y-90450000D01*
X172250000Y-89979002D02*
X172250000Y-90399450D01*
X161316150Y-94083850D02*
X161600000Y-93800000D01*
%TO.N,/RS485_TX*%
X172270216Y-89319666D02*
X172300550Y-89350000D01*
X171919215Y-89319666D02*
X172270216Y-89319666D01*
X158525001Y-92099999D02*
X159100000Y-91525000D01*
X158525001Y-94083850D02*
X158525001Y-92099999D01*
%TO.N,Net-(J2-~{RESET})*%
X169630000Y-99130000D02*
X169700000Y-99200000D01*
X169630000Y-98470000D02*
X169630000Y-99130000D01*
X172725000Y-88674450D02*
X172300550Y-88250000D01*
X172725000Y-88761975D02*
X172725000Y-88674450D01*
%TO.N,Net-(J2-SWCLK)*%
X169630000Y-97200000D02*
X169630000Y-97070000D01*
X169630000Y-97070000D02*
X170200000Y-96500000D01*
X172350550Y-86000000D02*
X172300550Y-86050000D01*
X173200000Y-86000000D02*
X172350550Y-86000000D01*
%TO.N,Net-(J2-SWDIO)*%
X170600000Y-85300000D02*
X171200550Y-85300000D01*
X171200550Y-85300000D02*
X171400550Y-85500000D01*
X169060000Y-96500000D02*
X169200000Y-96500000D01*
X168360000Y-97200000D02*
X169060000Y-96500000D01*
%TO.N,/SYNC_TX*%
X153765801Y-93334199D02*
X154400000Y-92700000D01*
X166000000Y-92000000D02*
X166749450Y-92000000D01*
X154400000Y-92700000D02*
X154400000Y-92400000D01*
X166749450Y-92000000D02*
X166799450Y-91950000D01*
X153765801Y-94083850D02*
X153765801Y-93334199D01*
%TO.N,/USB_D-*%
X152200000Y-95850000D02*
X151890000Y-95540000D01*
X171457293Y-95457843D02*
X170649450Y-94650000D01*
X150045000Y-95795001D02*
X150045000Y-96221698D01*
X150338302Y-96540000D02*
X150875000Y-96540000D01*
X150333302Y-96510000D02*
X150870000Y-96510000D01*
X150045000Y-96221698D02*
X150333302Y-96510000D01*
X171807843Y-95457843D02*
X171457293Y-95457843D01*
X151890000Y-95540000D02*
X150300001Y-95540000D01*
X150300001Y-95540000D02*
X150045000Y-95795001D01*
%TO.N,/USB_D+*%
X151449999Y-97040000D02*
X150875000Y-97040000D01*
X152289999Y-96789999D02*
X152350000Y-96850000D01*
X151700000Y-96220000D02*
X151700000Y-96789999D01*
X172450000Y-95300000D02*
X172399450Y-95300000D01*
X172399450Y-95300000D02*
X171749450Y-94650000D01*
X151520000Y-96040000D02*
X151700000Y-96220000D01*
X150875000Y-96040000D02*
X151520000Y-96040000D01*
X151700000Y-96789999D02*
X152289999Y-96789999D01*
X151700000Y-96789999D02*
X151449999Y-97040000D01*
%TO.N,Net-(D3-K)*%
X148350000Y-104650000D02*
X148350000Y-105382500D01*
X148350000Y-105382500D02*
X148200000Y-105532500D01*
D46*
X155805000Y-82560000D02*
X155805000Y-82555000D01*
X155805000Y-82555000D02*
X155450000Y-82200000D01*
%TO.N,Net-(D2-K)*%
X153900000Y-81950000D02*
X153700000Y-81950000D01*
D44*
X145120000Y-89920000D02*
X145485966Y-89554034D01*
D46*
X154025000Y-82075000D02*
X153900000Y-81950000D01*
X156040955Y-82295980D02*
X155594975Y-81850000D01*
D44*
X147620000Y-83480000D02*
X150300000Y-80800000D01*
X145120000Y-90090966D02*
X145120000Y-89920000D01*
X145115000Y-92204034D02*
X145115000Y-90095966D01*
D46*
X156224000Y-82560000D02*
X156224000Y-82376549D01*
D44*
X145115000Y-102424034D02*
X145115000Y-100315966D01*
X146000000Y-105532500D02*
X145120000Y-104652500D01*
X153450000Y-81482014D02*
X152782986Y-80815000D01*
D46*
X156143431Y-82295980D02*
X156040955Y-82295980D01*
D44*
X145120000Y-100310966D02*
X145120000Y-92209034D01*
X153450000Y-81700000D02*
X153450000Y-81482014D01*
X147620000Y-89554034D02*
X147620000Y-83480000D01*
X145120000Y-102429034D02*
X145115000Y-102424034D01*
X145115000Y-90095966D02*
X145120000Y-90090966D01*
X145120000Y-92209034D02*
X145115000Y-92204034D01*
X145115000Y-100315966D02*
X145120000Y-100310966D01*
X152012014Y-80800000D02*
X152027014Y-80815000D01*
D46*
X155157276Y-81850000D02*
X154932276Y-82075000D01*
X156224000Y-82376549D02*
X156143431Y-82295980D01*
X154932276Y-82075000D02*
X154025000Y-82075000D01*
D44*
X152782986Y-80815000D02*
X151885000Y-80815000D01*
D46*
X155594975Y-81850000D02*
X155157276Y-81850000D01*
D44*
X145120000Y-104652500D02*
X145120000Y-102429034D01*
D46*
X153700000Y-81950000D02*
X153450000Y-81700000D01*
D44*
X150300000Y-80800000D02*
X151870000Y-80800000D01*
X151870000Y-80800000D02*
X152012014Y-80800000D01*
X151885000Y-80815000D02*
X151870000Y-80800000D01*
X145485966Y-89554034D02*
X147620000Y-89554034D01*
%TO.N,Net-(D1-K)*%
X143950000Y-105415000D02*
X143800000Y-105565000D01*
D46*
X156643000Y-81686725D02*
X156804696Y-81525029D01*
X156643000Y-82560000D02*
X156643000Y-81686725D01*
D44*
X143950000Y-104350000D02*
X143950000Y-105415000D01*
%TO.N,Net-(C1-Pad1)*%
D45*
X154500000Y-82975000D02*
X154375000Y-82975000D01*
D44*
X150090000Y-93890000D02*
X150875000Y-93890000D01*
D45*
X148700000Y-94600000D02*
X149380000Y-94600000D01*
D43*
X156224000Y-83000000D02*
X155805000Y-83000000D01*
D45*
X154375000Y-82975000D02*
X153700000Y-82300000D01*
D44*
X149700000Y-94280000D02*
X150090000Y-93890000D01*
X150488302Y-98690000D02*
X149350000Y-97551698D01*
D45*
X154500000Y-82975000D02*
X155780000Y-82975000D01*
D44*
X150875000Y-98690000D02*
X150488302Y-98690000D01*
X149350000Y-97551698D02*
X149350000Y-94630000D01*
D45*
X155780000Y-82975000D02*
X155805000Y-83000000D01*
X149380000Y-94600000D02*
X149700000Y-94280000D01*
D44*
X149350000Y-94630000D02*
X149700000Y-94280000D01*
%TO.N,/USB_CC2*%
X150915000Y-98000000D02*
X150875000Y-98040000D01*
X152300000Y-98000000D02*
X150915000Y-98000000D01*
D43*
X156643000Y-83000000D02*
X156643000Y-82998988D01*
X156643000Y-82998988D02*
X156660840Y-82981148D01*
%TO.N,/VBUS_OUT*%
D44*
X155400000Y-80600000D02*
X156000000Y-81200000D01*
X168863091Y-95336359D02*
X169549450Y-94650000D01*
X168863091Y-95684378D02*
X168863091Y-95336359D01*
X155400000Y-80400000D02*
X155400000Y-80600000D01*
X156643000Y-83440000D02*
X156640000Y-83440000D01*
X156640000Y-83440000D02*
X156631000Y-83431000D01*
%TO.N,/LiPo+*%
X154200000Y-84000000D02*
X154320000Y-83880000D01*
D43*
X156224000Y-83880000D02*
X155805000Y-83880000D01*
%TO.N,GND*%
D42*
X150800000Y-83400000D02*
X150800000Y-83275000D01*
%TO.N,/LiPo+*%
X154200000Y-84000000D02*
X154159882Y-84000000D01*
X154159882Y-84000000D02*
X152400000Y-82240118D01*
D44*
X154320000Y-83880000D02*
X155805000Y-83880000D01*
D42*
X152400000Y-82240118D02*
X152400000Y-81675000D01*
%TO.N,Net-(U2-NTC)*%
D44*
X156613969Y-83909031D02*
X156613885Y-83909031D01*
X156623718Y-83918861D02*
X156623718Y-83918780D01*
X156623718Y-83918780D02*
X156613969Y-83909031D01*
X156613885Y-83909031D02*
X156606186Y-83901332D01*
X156601399Y-83901332D02*
X156600071Y-83900004D01*
X156606186Y-83901332D02*
X156601399Y-83901332D01*
X155800000Y-86000000D02*
X155800000Y-86420000D01*
X155800000Y-86000000D02*
X155800000Y-85970000D01*
X155800000Y-85945000D02*
X155800000Y-86000000D01*
%TO.N,/SHPHLD*%
D42*
X158850000Y-89000000D02*
X154750000Y-89000000D01*
D46*
X157062000Y-83880000D02*
X157060000Y-83880000D01*
D43*
X158850000Y-89000000D02*
X158239479Y-88389479D01*
X158239479Y-88389479D02*
X158239479Y-87160521D01*
%TO.N,/USB_CC1*%
D44*
X150875000Y-95040000D02*
X151740000Y-95040000D01*
D43*
X157500000Y-83918579D02*
X157500000Y-83900000D01*
X157500282Y-83918861D02*
X157500000Y-83918579D01*
D44*
X151740000Y-95040000D02*
X151800000Y-95100000D01*
%TO.N,Net-(U2-VSET2)*%
X155170000Y-84320000D02*
X154800000Y-84690000D01*
X155805000Y-84320000D02*
X155170000Y-84320000D01*
%TD*%
M02*
