%TF.GenerationSoftware,KiCad,Pcbnew,10.0.1*%
%TF.CreationDate,2026-08-10T20:24:11+01:00*%
%TF.ProjectId,reward_port,72657761-7264-45f7-906f-72742e6b6963,rev?*%
%TF.SameCoordinates,Original*%
%TF.FileFunction,Legend,Bot*%
%TF.FilePolarity,Positive*%
%FSLAX46Y46*%
G04 Gerber Fmt 4.6, Leading zero omitted, Abs format (unit mm)*
G04 Created by KiCad (PCBNEW 10.0.1) date 2026-08-10 20:24:11*
%MOMM*%
%LPD*%
G01*
G04 APERTURE LIST*
G04 Aperture macros list*
%AMRoundRect*
0 Rectangle with rounded corners*
0 $1 Rounding radius*
0 $2 $3 $4 $5 $6 $7 $8 $9 X,Y pos of 4 corners*
0 Add a 4 corners polygon primitive as box body*
4,1,4,$2,$3,$4,$5,$6,$7,$8,$9,$2,$3,0*
0 Add four circle primitives for the rounded corners*
1,1,$1+$1,$2,$3*
1,1,$1+$1,$4,$5*
1,1,$1+$1,$6,$7*
1,1,$1+$1,$8,$9*
0 Add four rect primitives between the rounded corners*
20,1,$1+$1,$2,$3,$4,$5,0*
20,1,$1+$1,$4,$5,$6,$7,0*
20,1,$1+$1,$6,$7,$8,$9,0*
20,1,$1+$1,$8,$9,$2,$3,0*%
%AMFreePoly0*
4,1,23,0.000000,0.745722,0.065263,0.745722,0.191342,0.711940,0.304381,0.646677,0.396677,0.554381,0.461940,0.441342,0.495722,0.315263,0.495722,0.250000,0.500000,0.250000,0.500000,-0.250000,0.495722,-0.250000,0.495722,-0.315263,0.461940,-0.441342,0.396677,-0.554381,0.304381,-0.646677,0.191342,-0.711940,0.065263,-0.745722,0.000000,-0.745722,0.000000,-0.750000,-0.500000,-0.750000,
-0.500000,0.750000,0.000000,0.750000,0.000000,0.745722,0.000000,0.745722,$1*%
%AMFreePoly1*
4,1,23,0.500000,-0.750000,0.000000,-0.750000,0.000000,-0.745722,-0.065263,-0.745722,-0.191342,-0.711940,-0.304381,-0.646677,-0.396677,-0.554381,-0.461940,-0.441342,-0.495722,-0.315263,-0.495722,-0.250000,-0.500000,-0.250000,-0.500000,0.250000,-0.495722,0.250000,-0.495722,0.315263,-0.461940,0.441342,-0.396677,0.554381,-0.304381,0.646677,-0.191342,0.711940,-0.065263,0.745722,0.000000,0.745722,
0.000000,0.750000,0.500000,0.750000,0.500000,-0.750000,0.500000,-0.750000,$1*%
G04 Aperture macros list end*
%ADD10C,0.150000*%
%ADD11C,0.200000*%
%ADD12C,0.120000*%
%ADD13C,0.152400*%
%ADD14RoundRect,0.225000X-0.250000X0.225000X-0.250000X-0.225000X0.250000X-0.225000X0.250000X0.225000X0*%
%ADD15RoundRect,0.140000X-0.170000X0.140000X-0.170000X-0.140000X0.170000X-0.140000X0.170000X0.140000X0*%
%ADD16R,0.900000X1.600000*%
%ADD17RoundRect,0.062500X0.187500X0.062500X-0.187500X0.062500X-0.187500X-0.062500X0.187500X-0.062500X0*%
%ADD18RoundRect,0.135000X0.135000X0.185000X-0.135000X0.185000X-0.135000X-0.185000X0.135000X-0.185000X0*%
%ADD19FreePoly0,270.000000*%
%ADD20FreePoly1,270.000000*%
%ADD21RoundRect,0.140000X0.170000X-0.140000X0.170000X0.140000X-0.170000X0.140000X-0.170000X-0.140000X0*%
%ADD22RoundRect,0.140000X-0.140000X-0.170000X0.140000X-0.170000X0.140000X0.170000X-0.140000X0.170000X0*%
%ADD23C,0.990600*%
%ADD24RoundRect,0.150000X-0.700000X0.150000X-0.700000X-0.150000X0.700000X-0.150000X0.700000X0.150000X0*%
%ADD25RoundRect,0.250000X-1.100000X0.250000X-1.100000X-0.250000X1.100000X-0.250000X1.100000X0.250000X0*%
%ADD26R,0.431800X1.432400*%
%ADD27RoundRect,0.135000X-0.135000X-0.185000X0.135000X-0.185000X0.135000X0.185000X-0.135000X0.185000X0*%
%ADD28RoundRect,0.135000X0.185000X-0.135000X0.185000X0.135000X-0.185000X0.135000X-0.185000X-0.135000X0*%
%ADD29RoundRect,0.200000X-0.200000X-0.275000X0.200000X-0.275000X0.200000X0.275000X-0.200000X0.275000X0*%
%ADD30RoundRect,0.135000X-0.185000X0.135000X-0.185000X-0.135000X0.185000X-0.135000X0.185000X0.135000X0*%
%ADD31RoundRect,0.150000X0.700000X-0.150000X0.700000X0.150000X-0.700000X0.150000X-0.700000X-0.150000X0*%
%ADD32RoundRect,0.250000X1.100000X-0.250000X1.100000X0.250000X-1.100000X0.250000X-1.100000X-0.250000X0*%
%ADD33RoundRect,0.112500X-0.350000X-0.112500X0.350000X-0.112500X0.350000X0.112500X-0.350000X0.112500X0*%
%ADD34RoundRect,0.200000X0.275000X-0.200000X0.275000X0.200000X-0.275000X0.200000X-0.275000X-0.200000X0*%
G04 APERTURE END LIST*
D10*
G36*
X73916412Y-134729077D02*
G01*
X73988354Y-134801019D01*
X74028696Y-134962386D01*
X74028696Y-135277251D01*
X73988354Y-135438617D01*
X73916411Y-135510561D01*
X73847896Y-135544819D01*
X73692830Y-135544819D01*
X73624314Y-135510561D01*
X73552371Y-135438617D01*
X73512030Y-135277251D01*
X73512030Y-134962386D01*
X73552371Y-134801019D01*
X73624314Y-134729077D01*
X73692830Y-134694819D01*
X73847896Y-134694819D01*
X73916412Y-134729077D01*
G37*
G36*
X72933458Y-135068628D02*
G01*
X72645211Y-135068628D01*
X72576695Y-135034370D01*
X72546288Y-135003963D01*
X72512030Y-134935447D01*
X72512030Y-134828000D01*
X72546288Y-134759484D01*
X72576695Y-134729077D01*
X72645211Y-134694819D01*
X72933458Y-134694819D01*
X72933458Y-135068628D01*
G37*
G36*
X78146950Y-135805930D02*
G01*
X72250919Y-135805930D01*
X72250919Y-134810295D01*
X72362030Y-134810295D01*
X72362030Y-134953152D01*
X72363471Y-134967784D01*
X72364502Y-134970273D01*
X72364693Y-134972961D01*
X72369948Y-134986693D01*
X72417567Y-135081931D01*
X72421531Y-135088230D01*
X72422289Y-135090058D01*
X72423977Y-135092114D01*
X72425399Y-135094374D01*
X72426897Y-135095673D01*
X72431616Y-135101423D01*
X72479235Y-135149042D01*
X72484984Y-135153760D01*
X72486284Y-135155259D01*
X72488543Y-135156680D01*
X72490600Y-135158369D01*
X72492427Y-135159126D01*
X72498727Y-135163091D01*
X72593965Y-135210710D01*
X72607696Y-135215965D01*
X72610385Y-135216156D01*
X72612874Y-135217187D01*
X72626391Y-135218518D01*
X72375588Y-135576809D01*
X72368377Y-135589623D01*
X72362048Y-135618194D01*
X72367133Y-135647011D01*
X72382860Y-135671690D01*
X72406834Y-135688472D01*
X72435405Y-135694801D01*
X72464222Y-135689716D01*
X72488901Y-135673989D01*
X72498472Y-135662829D01*
X72809412Y-135218628D01*
X72933458Y-135218628D01*
X72933458Y-135619819D01*
X72934899Y-135634451D01*
X72946098Y-135661487D01*
X72966790Y-135682179D01*
X72993826Y-135693378D01*
X73023090Y-135693378D01*
X73050126Y-135682179D01*
X73070818Y-135661487D01*
X73082017Y-135634451D01*
X73083458Y-135619819D01*
X73083458Y-134953152D01*
X73362030Y-134953152D01*
X73362030Y-135286485D01*
X73362281Y-135289038D01*
X73362119Y-135290131D01*
X73362928Y-135295604D01*
X73363471Y-135301117D01*
X73363893Y-135302138D01*
X73364269Y-135304675D01*
X73411888Y-135495151D01*
X73416835Y-135508997D01*
X73420154Y-135513476D01*
X73422288Y-135518628D01*
X73431616Y-135529994D01*
X73526854Y-135625233D01*
X73532604Y-135629953D01*
X73533903Y-135631450D01*
X73536157Y-135632869D01*
X73538219Y-135634561D01*
X73540051Y-135635319D01*
X73546346Y-135639282D01*
X73641584Y-135686901D01*
X73655315Y-135692156D01*
X73658004Y-135692347D01*
X73660493Y-135693378D01*
X73675125Y-135694819D01*
X73865601Y-135694819D01*
X73880233Y-135693378D01*
X73882722Y-135692346D01*
X73885410Y-135692156D01*
X73899142Y-135686901D01*
X73994380Y-135639282D01*
X74000679Y-135635317D01*
X74002507Y-135634560D01*
X74004563Y-135632871D01*
X74006823Y-135631450D01*
X74008122Y-135629951D01*
X74013872Y-135625233D01*
X74109111Y-135529993D01*
X74118438Y-135518628D01*
X74120571Y-135513476D01*
X74123891Y-135508997D01*
X74128838Y-135495151D01*
X74169100Y-135334104D01*
X74409649Y-135334104D01*
X74409649Y-135429342D01*
X74411090Y-135443974D01*
X74412121Y-135446463D01*
X74412312Y-135449151D01*
X74417567Y-135462883D01*
X74465186Y-135558121D01*
X74469149Y-135564417D01*
X74469907Y-135566247D01*
X74471596Y-135568305D01*
X74473018Y-135570564D01*
X74474516Y-135571863D01*
X74479234Y-135577612D01*
X74526853Y-135625232D01*
X74532602Y-135629950D01*
X74533903Y-135631450D01*
X74536162Y-135632872D01*
X74538219Y-135634560D01*
X74540046Y-135635317D01*
X74546346Y-135639282D01*
X74641584Y-135686901D01*
X74655315Y-135692156D01*
X74658004Y-135692347D01*
X74660493Y-135693378D01*
X74675125Y-135694819D01*
X74913220Y-135694819D01*
X74920625Y-135694089D01*
X74922600Y-135694230D01*
X74925197Y-135693639D01*
X74927852Y-135693378D01*
X74929683Y-135692619D01*
X74936937Y-135690970D01*
X75079794Y-135643351D01*
X75093219Y-135637357D01*
X75115326Y-135618183D01*
X75128413Y-135592010D01*
X75130488Y-135562820D01*
X75121234Y-135535058D01*
X75102060Y-135512950D01*
X75075886Y-135499864D01*
X75046696Y-135497789D01*
X75032359Y-135501049D01*
X74901050Y-135544819D01*
X74692830Y-135544819D01*
X74624314Y-135510561D01*
X74593907Y-135480153D01*
X74559649Y-135411637D01*
X74559649Y-135351809D01*
X74593907Y-135283293D01*
X74624314Y-135252886D01*
X74701301Y-135214392D01*
X74883791Y-135168770D01*
X74884870Y-135168384D01*
X74885410Y-135168346D01*
X74891491Y-135166018D01*
X74897637Y-135163823D01*
X74898072Y-135163500D01*
X74899142Y-135163091D01*
X74994380Y-135115472D01*
X75000679Y-135111507D01*
X75002507Y-135110750D01*
X75004563Y-135109061D01*
X75006823Y-135107640D01*
X75008122Y-135106141D01*
X75013872Y-135101423D01*
X75061491Y-135053804D01*
X75066209Y-135048054D01*
X75067708Y-135046755D01*
X75069129Y-135044495D01*
X75070818Y-135042439D01*
X75071575Y-135040611D01*
X75075540Y-135034312D01*
X75123159Y-134939074D01*
X75128414Y-134925343D01*
X75128605Y-134922653D01*
X75129636Y-134920165D01*
X75131077Y-134905533D01*
X75131077Y-134810295D01*
X75129636Y-134795663D01*
X75128605Y-134793174D01*
X75128414Y-134790485D01*
X75123159Y-134776754D01*
X75075540Y-134681516D01*
X75071575Y-134675216D01*
X75070818Y-134673389D01*
X75069129Y-134671332D01*
X75067708Y-134669073D01*
X75066209Y-134667773D01*
X75061491Y-134662024D01*
X75019286Y-134619819D01*
X75409649Y-134619819D01*
X75409649Y-135619819D01*
X75410019Y-135623582D01*
X75409832Y-135625058D01*
X75410353Y-135626968D01*
X75411090Y-135634451D01*
X75414907Y-135643666D01*
X75417532Y-135653290D01*
X75420459Y-135657070D01*
X75422289Y-135661487D01*
X75429339Y-135668537D01*
X75435449Y-135676427D01*
X75439602Y-135678800D01*
X75442981Y-135682179D01*
X75452193Y-135685995D01*
X75460858Y-135690946D01*
X75465601Y-135691548D01*
X75470017Y-135693378D01*
X75479991Y-135693378D01*
X75489888Y-135694636D01*
X75494500Y-135693378D01*
X75499281Y-135693378D01*
X75508496Y-135689560D01*
X75518120Y-135686936D01*
X75521900Y-135684008D01*
X75526317Y-135682179D01*
X75533367Y-135675128D01*
X75541257Y-135669019D01*
X75545609Y-135662886D01*
X75547009Y-135661487D01*
X75547578Y-135660112D01*
X75549767Y-135657029D01*
X75981077Y-134902235D01*
X75981077Y-135619819D01*
X75982518Y-135634451D01*
X75993717Y-135661487D01*
X76014409Y-135682179D01*
X76041445Y-135693378D01*
X76070709Y-135693378D01*
X76097745Y-135682179D01*
X76118437Y-135661487D01*
X76129636Y-135634451D01*
X76131077Y-135619819D01*
X76131077Y-134619819D01*
X76130706Y-134616055D01*
X76130894Y-134614580D01*
X76130372Y-134612669D01*
X76129636Y-134605187D01*
X76411090Y-134605187D01*
X76411090Y-134634451D01*
X76422289Y-134661487D01*
X76442981Y-134682179D01*
X76470017Y-134693378D01*
X76484649Y-134694819D01*
X76885839Y-134694819D01*
X76885839Y-135021009D01*
X76627506Y-135021009D01*
X76612874Y-135022450D01*
X76585838Y-135033649D01*
X76565146Y-135054341D01*
X76553947Y-135081377D01*
X76553947Y-135110641D01*
X76565146Y-135137677D01*
X76585838Y-135158369D01*
X76612874Y-135169568D01*
X76627506Y-135171009D01*
X76885839Y-135171009D01*
X76885839Y-135544819D01*
X76484649Y-135544819D01*
X76470017Y-135546260D01*
X76442981Y-135557459D01*
X76422289Y-135578151D01*
X76411090Y-135605187D01*
X76411090Y-135634451D01*
X76422289Y-135661487D01*
X76442981Y-135682179D01*
X76470017Y-135693378D01*
X76484649Y-135694819D01*
X76960839Y-135694819D01*
X76975471Y-135693378D01*
X77002507Y-135682179D01*
X77023199Y-135661487D01*
X77034398Y-135634451D01*
X77035839Y-135619819D01*
X77035839Y-135334104D01*
X77314411Y-135334104D01*
X77314411Y-135429342D01*
X77315852Y-135443974D01*
X77316883Y-135446463D01*
X77317074Y-135449151D01*
X77322329Y-135462883D01*
X77369948Y-135558121D01*
X77373911Y-135564417D01*
X77374669Y-135566247D01*
X77376358Y-135568305D01*
X77377780Y-135570564D01*
X77379278Y-135571863D01*
X77383996Y-135577612D01*
X77431615Y-135625232D01*
X77437364Y-135629950D01*
X77438665Y-135631450D01*
X77440924Y-135632872D01*
X77442981Y-135634560D01*
X77444808Y-135635317D01*
X77451108Y-135639282D01*
X77546346Y-135686901D01*
X77560077Y-135692156D01*
X77562766Y-135692347D01*
X77565255Y-135693378D01*
X77579887Y-135694819D01*
X77817982Y-135694819D01*
X77825387Y-135694089D01*
X77827362Y-135694230D01*
X77829959Y-135693639D01*
X77832614Y-135693378D01*
X77834445Y-135692619D01*
X77841699Y-135690970D01*
X77984556Y-135643351D01*
X77997981Y-135637357D01*
X78020088Y-135618183D01*
X78033175Y-135592010D01*
X78035250Y-135562820D01*
X78025996Y-135535058D01*
X78006822Y-135512950D01*
X77980648Y-135499864D01*
X77951458Y-135497789D01*
X77937121Y-135501049D01*
X77805812Y-135544819D01*
X77597592Y-135544819D01*
X77529076Y-135510561D01*
X77498669Y-135480153D01*
X77464411Y-135411637D01*
X77464411Y-135351809D01*
X77498669Y-135283293D01*
X77529076Y-135252886D01*
X77606063Y-135214392D01*
X77788553Y-135168770D01*
X77789632Y-135168384D01*
X77790172Y-135168346D01*
X77796253Y-135166018D01*
X77802399Y-135163823D01*
X77802834Y-135163500D01*
X77803904Y-135163091D01*
X77899142Y-135115472D01*
X77905441Y-135111507D01*
X77907269Y-135110750D01*
X77909325Y-135109061D01*
X77911585Y-135107640D01*
X77912884Y-135106141D01*
X77918634Y-135101423D01*
X77966253Y-135053804D01*
X77970971Y-135048054D01*
X77972470Y-135046755D01*
X77973891Y-135044495D01*
X77975580Y-135042439D01*
X77976337Y-135040611D01*
X77980302Y-135034312D01*
X78027921Y-134939074D01*
X78033176Y-134925343D01*
X78033367Y-134922653D01*
X78034398Y-134920165D01*
X78035839Y-134905533D01*
X78035839Y-134810295D01*
X78034398Y-134795663D01*
X78033367Y-134793174D01*
X78033176Y-134790485D01*
X78027921Y-134776754D01*
X77980302Y-134681516D01*
X77976337Y-134675216D01*
X77975580Y-134673389D01*
X77973891Y-134671332D01*
X77972470Y-134669073D01*
X77970971Y-134667773D01*
X77966253Y-134662024D01*
X77918634Y-134614405D01*
X77912884Y-134609686D01*
X77911585Y-134608188D01*
X77909325Y-134606766D01*
X77907269Y-134605078D01*
X77905441Y-134604320D01*
X77899142Y-134600356D01*
X77803904Y-134552737D01*
X77790172Y-134547482D01*
X77787484Y-134547291D01*
X77784995Y-134546260D01*
X77770363Y-134544819D01*
X77532268Y-134544819D01*
X77524861Y-134545548D01*
X77522887Y-134545408D01*
X77520289Y-134545998D01*
X77517636Y-134546260D01*
X77515805Y-134547018D01*
X77508550Y-134548668D01*
X77365694Y-134596287D01*
X77352268Y-134602281D01*
X77330161Y-134621455D01*
X77317075Y-134647628D01*
X77315000Y-134676818D01*
X77324254Y-134704581D01*
X77343428Y-134726688D01*
X77369601Y-134739774D01*
X77398791Y-134741849D01*
X77413128Y-134738589D01*
X77544438Y-134694819D01*
X77752658Y-134694819D01*
X77821174Y-134729077D01*
X77851581Y-134759484D01*
X77885839Y-134828000D01*
X77885839Y-134887828D01*
X77851581Y-134956344D01*
X77821174Y-134986751D01*
X77744187Y-135025244D01*
X77561697Y-135070867D01*
X77560617Y-135071252D01*
X77560077Y-135071291D01*
X77553987Y-135073621D01*
X77547851Y-135075814D01*
X77547415Y-135076136D01*
X77546346Y-135076546D01*
X77451108Y-135124165D01*
X77444808Y-135128129D01*
X77442981Y-135128887D01*
X77440924Y-135130575D01*
X77438665Y-135131997D01*
X77437365Y-135133495D01*
X77431616Y-135138214D01*
X77383997Y-135185833D01*
X77379278Y-135191582D01*
X77377780Y-135192882D01*
X77376358Y-135195141D01*
X77374670Y-135197198D01*
X77373912Y-135199025D01*
X77369948Y-135205325D01*
X77322329Y-135300563D01*
X77317074Y-135314295D01*
X77316883Y-135316982D01*
X77315852Y-135319472D01*
X77314411Y-135334104D01*
X77035839Y-135334104D01*
X77035839Y-134619819D01*
X77034398Y-134605187D01*
X77023199Y-134578151D01*
X77002507Y-134557459D01*
X76975471Y-134546260D01*
X76960839Y-134544819D01*
X76484649Y-134544819D01*
X76470017Y-134546260D01*
X76442981Y-134557459D01*
X76422289Y-134578151D01*
X76411090Y-134605187D01*
X76129636Y-134605187D01*
X76125818Y-134595971D01*
X76123194Y-134586348D01*
X76120266Y-134582567D01*
X76118437Y-134578151D01*
X76111386Y-134571100D01*
X76105277Y-134563211D01*
X76101123Y-134560837D01*
X76097745Y-134557459D01*
X76088532Y-134553642D01*
X76079868Y-134548692D01*
X76075124Y-134548089D01*
X76070709Y-134546260D01*
X76060735Y-134546260D01*
X76050838Y-134545002D01*
X76046226Y-134546260D01*
X76041445Y-134546260D01*
X76032228Y-134550077D01*
X76022607Y-134552702D01*
X76018827Y-134555628D01*
X76014409Y-134557459D01*
X76007357Y-134564510D01*
X75999469Y-134570619D01*
X75995114Y-134576753D01*
X75993717Y-134578151D01*
X75993148Y-134579523D01*
X75990959Y-134582608D01*
X75559649Y-135337402D01*
X75559649Y-134619819D01*
X75558208Y-134605187D01*
X75547009Y-134578151D01*
X75526317Y-134557459D01*
X75499281Y-134546260D01*
X75470017Y-134546260D01*
X75442981Y-134557459D01*
X75422289Y-134578151D01*
X75411090Y-134605187D01*
X75409649Y-134619819D01*
X75019286Y-134619819D01*
X75013872Y-134614405D01*
X75008122Y-134609686D01*
X75006823Y-134608188D01*
X75004563Y-134606766D01*
X75002507Y-134605078D01*
X75000679Y-134604320D01*
X74994380Y-134600356D01*
X74899142Y-134552737D01*
X74885410Y-134547482D01*
X74882722Y-134547291D01*
X74880233Y-134546260D01*
X74865601Y-134544819D01*
X74627506Y-134544819D01*
X74620099Y-134545548D01*
X74618125Y-134545408D01*
X74615527Y-134545998D01*
X74612874Y-134546260D01*
X74611043Y-134547018D01*
X74603788Y-134548668D01*
X74460932Y-134596287D01*
X74447506Y-134602281D01*
X74425399Y-134621455D01*
X74412313Y-134647628D01*
X74410238Y-134676818D01*
X74419492Y-134704581D01*
X74438666Y-134726688D01*
X74464839Y-134739774D01*
X74494029Y-134741849D01*
X74508366Y-134738589D01*
X74639676Y-134694819D01*
X74847896Y-134694819D01*
X74916412Y-134729077D01*
X74946819Y-134759484D01*
X74981077Y-134828000D01*
X74981077Y-134887828D01*
X74946819Y-134956344D01*
X74916412Y-134986751D01*
X74839425Y-135025244D01*
X74656935Y-135070867D01*
X74655855Y-135071252D01*
X74655315Y-135071291D01*
X74649225Y-135073621D01*
X74643089Y-135075814D01*
X74642653Y-135076136D01*
X74641584Y-135076546D01*
X74546346Y-135124165D01*
X74540046Y-135128129D01*
X74538219Y-135128887D01*
X74536162Y-135130575D01*
X74533903Y-135131997D01*
X74532603Y-135133495D01*
X74526854Y-135138214D01*
X74479235Y-135185833D01*
X74474516Y-135191582D01*
X74473018Y-135192882D01*
X74471596Y-135195141D01*
X74469908Y-135197198D01*
X74469150Y-135199025D01*
X74465186Y-135205325D01*
X74417567Y-135300563D01*
X74412312Y-135314295D01*
X74412121Y-135316982D01*
X74411090Y-135319472D01*
X74409649Y-135334104D01*
X74169100Y-135334104D01*
X74176457Y-135304675D01*
X74176832Y-135302138D01*
X74177255Y-135301117D01*
X74177797Y-135295604D01*
X74178607Y-135290131D01*
X74178444Y-135289038D01*
X74178696Y-135286485D01*
X74178696Y-134953152D01*
X74178444Y-134950598D01*
X74178607Y-134949506D01*
X74177797Y-134944032D01*
X74177255Y-134938520D01*
X74176832Y-134937498D01*
X74176457Y-134934962D01*
X74128838Y-134744486D01*
X74123891Y-134730640D01*
X74120572Y-134726161D01*
X74118438Y-134721008D01*
X74109110Y-134709643D01*
X74013872Y-134614405D01*
X74008122Y-134609686D01*
X74006823Y-134608188D01*
X74004563Y-134606766D01*
X74002507Y-134605078D01*
X74000679Y-134604320D01*
X73994380Y-134600356D01*
X73899142Y-134552737D01*
X73885410Y-134547482D01*
X73882722Y-134547291D01*
X73880233Y-134546260D01*
X73865601Y-134544819D01*
X73675125Y-134544819D01*
X73660493Y-134546260D01*
X73658004Y-134547290D01*
X73655315Y-134547482D01*
X73641584Y-134552737D01*
X73546346Y-134600356D01*
X73540051Y-134604318D01*
X73538219Y-134605077D01*
X73536157Y-134606768D01*
X73533903Y-134608188D01*
X73532604Y-134609684D01*
X73526854Y-134614405D01*
X73431616Y-134709643D01*
X73422289Y-134721008D01*
X73420155Y-134726158D01*
X73416835Y-134730640D01*
X73411888Y-134744486D01*
X73364269Y-134934962D01*
X73363893Y-134937498D01*
X73363471Y-134938520D01*
X73362928Y-134944032D01*
X73362119Y-134949506D01*
X73362281Y-134950598D01*
X73362030Y-134953152D01*
X73083458Y-134953152D01*
X73083458Y-134619819D01*
X73082017Y-134605187D01*
X73070818Y-134578151D01*
X73050126Y-134557459D01*
X73023090Y-134546260D01*
X73008458Y-134544819D01*
X72627506Y-134544819D01*
X72612874Y-134546260D01*
X72610385Y-134547290D01*
X72607696Y-134547482D01*
X72593965Y-134552737D01*
X72498727Y-134600356D01*
X72492427Y-134604320D01*
X72490600Y-134605078D01*
X72488543Y-134606766D01*
X72486284Y-134608188D01*
X72484984Y-134609686D01*
X72479235Y-134614405D01*
X72431616Y-134662024D01*
X72426897Y-134667773D01*
X72425399Y-134669073D01*
X72423977Y-134671332D01*
X72422289Y-134673389D01*
X72421531Y-134675216D01*
X72417567Y-134681516D01*
X72369948Y-134776754D01*
X72364693Y-134790486D01*
X72364502Y-134793173D01*
X72363471Y-134795663D01*
X72362030Y-134810295D01*
X72250919Y-134810295D01*
X72250919Y-134433708D01*
X78146950Y-134433708D01*
X78146950Y-135805930D01*
G37*
G36*
X75209975Y-127351169D02*
G01*
X74941899Y-127351169D01*
X75075937Y-126949054D01*
X75209975Y-127351169D01*
G37*
G36*
X76451935Y-127897995D02*
G01*
X72081743Y-127897995D01*
X72081743Y-126697252D01*
X72192854Y-126697252D01*
X72192854Y-126726516D01*
X72204053Y-126753552D01*
X72224745Y-126774244D01*
X72251781Y-126785443D01*
X72266413Y-126786884D01*
X72667603Y-126786884D01*
X72667603Y-127113074D01*
X72409270Y-127113074D01*
X72394638Y-127114515D01*
X72367602Y-127125714D01*
X72346910Y-127146406D01*
X72335711Y-127173442D01*
X72335711Y-127202706D01*
X72346910Y-127229742D01*
X72367602Y-127250434D01*
X72394638Y-127261633D01*
X72409270Y-127263074D01*
X72667603Y-127263074D01*
X72667603Y-127636884D01*
X72266413Y-127636884D01*
X72251781Y-127638325D01*
X72224745Y-127649524D01*
X72204053Y-127670216D01*
X72192854Y-127697252D01*
X72192854Y-127726516D01*
X72204053Y-127753552D01*
X72224745Y-127774244D01*
X72251781Y-127785443D01*
X72266413Y-127786884D01*
X72742603Y-127786884D01*
X72757235Y-127785443D01*
X72784271Y-127774244D01*
X72804963Y-127753552D01*
X72816162Y-127726516D01*
X72817603Y-127711884D01*
X72817603Y-126721264D01*
X73001526Y-126721264D01*
X73004786Y-126735601D01*
X73338119Y-127735601D01*
X73344113Y-127749026D01*
X73347623Y-127753073D01*
X73350020Y-127757867D01*
X73357128Y-127764032D01*
X73363287Y-127771133D01*
X73368076Y-127773527D01*
X73372127Y-127777041D01*
X73381052Y-127780015D01*
X73389460Y-127784220D01*
X73394804Y-127784599D01*
X73399890Y-127786295D01*
X73409270Y-127785628D01*
X73418650Y-127786295D01*
X73423735Y-127784599D01*
X73429080Y-127784220D01*
X73437490Y-127780014D01*
X73446412Y-127777041D01*
X73450459Y-127773530D01*
X73455253Y-127771134D01*
X73461416Y-127764028D01*
X73468520Y-127757867D01*
X73470915Y-127753075D01*
X73474427Y-127749027D01*
X73480421Y-127735601D01*
X73493204Y-127697252D01*
X73859521Y-127697252D01*
X73859521Y-127726516D01*
X73870720Y-127753552D01*
X73891412Y-127774244D01*
X73918448Y-127785443D01*
X73933080Y-127786884D01*
X74409270Y-127786884D01*
X74423902Y-127785443D01*
X74450938Y-127774244D01*
X74471630Y-127753552D01*
X74482829Y-127726516D01*
X74484270Y-127711884D01*
X74484270Y-127702504D01*
X74668193Y-127702504D01*
X74670268Y-127731694D01*
X74683354Y-127757867D01*
X74705461Y-127777041D01*
X74733224Y-127786295D01*
X74762414Y-127784220D01*
X74788587Y-127771134D01*
X74807761Y-127749027D01*
X74813755Y-127735601D01*
X74891899Y-127501169D01*
X75259975Y-127501169D01*
X75338119Y-127735601D01*
X75344113Y-127749026D01*
X75363287Y-127771133D01*
X75389460Y-127784220D01*
X75418650Y-127786295D01*
X75446412Y-127777041D01*
X75468520Y-127757867D01*
X75481606Y-127731693D01*
X75483681Y-127702503D01*
X75480421Y-127688167D01*
X75158120Y-126721264D01*
X75525336Y-126721264D01*
X75528596Y-126735601D01*
X75861929Y-127735601D01*
X75867923Y-127749026D01*
X75871433Y-127753073D01*
X75873830Y-127757867D01*
X75880938Y-127764032D01*
X75887097Y-127771133D01*
X75891886Y-127773527D01*
X75895937Y-127777041D01*
X75904862Y-127780015D01*
X75913270Y-127784220D01*
X75918614Y-127784599D01*
X75923700Y-127786295D01*
X75933080Y-127785628D01*
X75942460Y-127786295D01*
X75947545Y-127784599D01*
X75952890Y-127784220D01*
X75961300Y-127780014D01*
X75970222Y-127777041D01*
X75974269Y-127773530D01*
X75979063Y-127771134D01*
X75985226Y-127764028D01*
X75992330Y-127757867D01*
X75994725Y-127753075D01*
X75998237Y-127749027D01*
X76004231Y-127735601D01*
X76337564Y-126735601D01*
X76340824Y-126721265D01*
X76338749Y-126692075D01*
X76325663Y-126665901D01*
X76303555Y-126646727D01*
X76275793Y-126637473D01*
X76246603Y-126639548D01*
X76220430Y-126652635D01*
X76201256Y-126674742D01*
X76195262Y-126688167D01*
X75933080Y-127474713D01*
X75670898Y-126688167D01*
X75664904Y-126674741D01*
X75645730Y-126652634D01*
X75619557Y-126639548D01*
X75590367Y-126637473D01*
X75562604Y-126646727D01*
X75540497Y-126665901D01*
X75527411Y-126692074D01*
X75525336Y-126721264D01*
X75158120Y-126721264D01*
X75147088Y-126688167D01*
X75141094Y-126674741D01*
X75137582Y-126670692D01*
X75135187Y-126665901D01*
X75128083Y-126659739D01*
X75121920Y-126652634D01*
X75117126Y-126650237D01*
X75113079Y-126646727D01*
X75104157Y-126643753D01*
X75095747Y-126639548D01*
X75090402Y-126639168D01*
X75085317Y-126637473D01*
X75075937Y-126638139D01*
X75066557Y-126637473D01*
X75061471Y-126639168D01*
X75056127Y-126639548D01*
X75047719Y-126643752D01*
X75038794Y-126646727D01*
X75034743Y-126650240D01*
X75029954Y-126652635D01*
X75023795Y-126659735D01*
X75016687Y-126665901D01*
X75014290Y-126670694D01*
X75010780Y-126674742D01*
X75004786Y-126688167D01*
X74671453Y-127688167D01*
X74668193Y-127702504D01*
X74484270Y-127702504D01*
X74484270Y-126711884D01*
X74482829Y-126697252D01*
X74471630Y-126670216D01*
X74450938Y-126649524D01*
X74423902Y-126638325D01*
X74394638Y-126638325D01*
X74367602Y-126649524D01*
X74346910Y-126670216D01*
X74335711Y-126697252D01*
X74334270Y-126711884D01*
X74334270Y-127636884D01*
X73933080Y-127636884D01*
X73918448Y-127638325D01*
X73891412Y-127649524D01*
X73870720Y-127670216D01*
X73859521Y-127697252D01*
X73493204Y-127697252D01*
X73813754Y-126735601D01*
X73817014Y-126721265D01*
X73814939Y-126692075D01*
X73801853Y-126665901D01*
X73779745Y-126646727D01*
X73751983Y-126637473D01*
X73722793Y-126639548D01*
X73696620Y-126652635D01*
X73677446Y-126674742D01*
X73671452Y-126688167D01*
X73409270Y-127474713D01*
X73147088Y-126688167D01*
X73141094Y-126674741D01*
X73121920Y-126652634D01*
X73095747Y-126639548D01*
X73066557Y-126637473D01*
X73038794Y-126646727D01*
X73016687Y-126665901D01*
X73003601Y-126692074D01*
X73001526Y-126721264D01*
X72817603Y-126721264D01*
X72817603Y-126711884D01*
X72816162Y-126697252D01*
X72804963Y-126670216D01*
X72784271Y-126649524D01*
X72757235Y-126638325D01*
X72742603Y-126636884D01*
X72266413Y-126636884D01*
X72251781Y-126638325D01*
X72224745Y-126649524D01*
X72204053Y-126670216D01*
X72192854Y-126697252D01*
X72081743Y-126697252D01*
X72081743Y-126525773D01*
X76451935Y-126525773D01*
X76451935Y-127897995D01*
G37*
D11*
G36*
X91339520Y-127941111D02*
G01*
X89840091Y-127941111D01*
X89840091Y-126720160D01*
X89951202Y-126720160D01*
X90181951Y-127830000D01*
X90455808Y-127830000D01*
X90331855Y-127233803D01*
X90309737Y-127117332D01*
X90305782Y-127080113D01*
X90312034Y-127058027D01*
X90329962Y-127041828D01*
X90362156Y-127033218D01*
X90446588Y-127028883D01*
X90475714Y-127028883D01*
X90448420Y-126897297D01*
X90347875Y-126869143D01*
X90259485Y-126830137D01*
X90181726Y-126780560D01*
X90113441Y-126720160D01*
X90423629Y-126720160D01*
X90797931Y-127830000D01*
X91228409Y-127830000D01*
X91160510Y-126720160D01*
X90859908Y-126720160D01*
X90906280Y-127161278D01*
X90949972Y-127498623D01*
X90863071Y-127185192D01*
X90787062Y-126927339D01*
X90724536Y-126720160D01*
X90423629Y-126720160D01*
X90113441Y-126720160D01*
X89951202Y-126720160D01*
X89840091Y-126720160D01*
X89840091Y-126609049D01*
X91339520Y-126609049D01*
X91339520Y-127941111D01*
G37*
G36*
X94327999Y-126892359D02*
G01*
X94344617Y-126905113D01*
X94357420Y-126930826D01*
X94377101Y-127006840D01*
X94484446Y-127522986D01*
X94500061Y-127610322D01*
X94501543Y-127640467D01*
X94493192Y-127656254D01*
X94472234Y-127661960D01*
X94448406Y-127655698D01*
X94431628Y-127636681D01*
X94419210Y-127602196D01*
X94398289Y-127513949D01*
X94292654Y-127005985D01*
X94280819Y-126935747D01*
X94280503Y-126908715D01*
X94289008Y-126893577D01*
X94308530Y-126888199D01*
X94327999Y-126892359D01*
G37*
G36*
X93634664Y-127153935D02*
G01*
X93593457Y-127150175D01*
X93568962Y-127140990D01*
X93557955Y-127129624D01*
X93545745Y-127104044D01*
X93532692Y-127055628D01*
X93519992Y-126994750D01*
X93515876Y-126947983D01*
X93523594Y-126927400D01*
X93542765Y-126916470D01*
X93584289Y-126911646D01*
X93634664Y-127153935D01*
G37*
G36*
X95110074Y-127192465D02*
G01*
X95091817Y-127193014D01*
X95057420Y-127187766D01*
X95035274Y-127173841D01*
X95019870Y-127148456D01*
X95003828Y-127092997D01*
X94984716Y-127001161D01*
X94979457Y-126949910D01*
X94986243Y-126928194D01*
X95005282Y-126916876D01*
X95051700Y-126911646D01*
X95110074Y-127192465D01*
G37*
G36*
X95976586Y-127638513D02*
G01*
X95939019Y-127635089D01*
X95914977Y-127626455D01*
X95900322Y-127614028D01*
X95883813Y-127578368D01*
X95858434Y-127478778D01*
X95768736Y-127047201D01*
X95753409Y-126951336D01*
X95757274Y-126933025D01*
X95767576Y-126921172D01*
X95785460Y-126914670D01*
X95825461Y-126911646D01*
X95976586Y-127638513D01*
G37*
G36*
X96629081Y-127153935D02*
G01*
X96587874Y-127150175D01*
X96563380Y-127140990D01*
X96552372Y-127129624D01*
X96540162Y-127104044D01*
X96527110Y-127055628D01*
X96514409Y-126994750D01*
X96510293Y-126947983D01*
X96518012Y-126927400D01*
X96537183Y-126916470D01*
X96578706Y-126911646D01*
X96629081Y-127153935D01*
G37*
G36*
X97387491Y-127265384D02*
G01*
X97437647Y-127431395D01*
X97345751Y-127431395D01*
X97324308Y-127233331D01*
X97289453Y-126965502D01*
X97387491Y-127265384D01*
G37*
G36*
X99800330Y-127153935D02*
G01*
X99759123Y-127150175D01*
X99734629Y-127140990D01*
X99723621Y-127129624D01*
X99711411Y-127104044D01*
X99698359Y-127055628D01*
X99685658Y-126994750D01*
X99681542Y-126947983D01*
X99689261Y-126927400D01*
X99708432Y-126916470D01*
X99749955Y-126911646D01*
X99800330Y-127153935D01*
G37*
G36*
X94966826Y-125958452D02*
G01*
X94915413Y-125951695D01*
X94890622Y-125939645D01*
X94874765Y-125915545D01*
X94857222Y-125855809D01*
X94835606Y-125751639D01*
X94827162Y-125687533D01*
X94831881Y-125666277D01*
X94849698Y-125656338D01*
X94902712Y-125649851D01*
X94966826Y-125958452D01*
G37*
G36*
X94866075Y-125473874D02*
G01*
X94840308Y-125473264D01*
X94804374Y-125467527D01*
X94784559Y-125452991D01*
X94770998Y-125422704D01*
X94748900Y-125334595D01*
X94741794Y-125286694D01*
X94743038Y-125262909D01*
X94750439Y-125245858D01*
X94761112Y-125237569D01*
X94777867Y-125233880D01*
X94815761Y-125231646D01*
X94866075Y-125473874D01*
G37*
G36*
X95624546Y-125585384D02*
G01*
X95674702Y-125751395D01*
X95582806Y-125751395D01*
X95561363Y-125553331D01*
X95526508Y-125285502D01*
X95624546Y-125585384D01*
G37*
G36*
X97298795Y-125473935D02*
G01*
X97257588Y-125470175D01*
X97233094Y-125460990D01*
X97222086Y-125449624D01*
X97209876Y-125424044D01*
X97196824Y-125375628D01*
X97184123Y-125314750D01*
X97180007Y-125267983D01*
X97187726Y-125247400D01*
X97206897Y-125236470D01*
X97248420Y-125231646D01*
X97298795Y-125473935D01*
G37*
G36*
X101002108Y-127964558D02*
G01*
X91769950Y-127964558D01*
X91769950Y-127092447D01*
X91881061Y-127092447D01*
X91922094Y-127289918D01*
X91989538Y-127333811D01*
X92045767Y-127361431D01*
X92092745Y-127376140D01*
X92132326Y-127380593D01*
X92170017Y-127375680D01*
X92221892Y-127358229D01*
X92292427Y-127323196D01*
X92347522Y-127297198D01*
X92379561Y-127290711D01*
X92412091Y-127295625D01*
X92455866Y-127313016D01*
X92514639Y-127348040D01*
X92592602Y-127407154D01*
X92551508Y-127209501D01*
X92488579Y-127166625D01*
X92432852Y-127138859D01*
X92383074Y-127123559D01*
X92337979Y-127118764D01*
X92300719Y-127123255D01*
X92253070Y-127138640D01*
X92192166Y-127168529D01*
X92125041Y-127200855D01*
X92088729Y-127208646D01*
X92057902Y-127204418D01*
X92020096Y-127190144D01*
X91975164Y-127162718D01*
X91881061Y-127092447D01*
X91769950Y-127092447D01*
X91769950Y-126720160D01*
X92505895Y-126720160D01*
X92553034Y-126946817D01*
X92720096Y-126946817D01*
X92903706Y-127830000D01*
X93188982Y-127830000D01*
X93005372Y-126946817D01*
X93171763Y-126946817D01*
X93167829Y-126927899D01*
X93247224Y-126927899D01*
X93250070Y-126947983D01*
X93260789Y-127023632D01*
X93283228Y-127109681D01*
X93306170Y-127164802D01*
X93328689Y-127197655D01*
X93358941Y-127222259D01*
X93399650Y-127240084D01*
X93453741Y-127250289D01*
X93409207Y-127266330D01*
X93380195Y-127284762D01*
X93362638Y-127305122D01*
X93345705Y-127341210D01*
X93340168Y-127371434D01*
X93344324Y-127413778D01*
X93367279Y-127536053D01*
X93428401Y-127830000D01*
X93693648Y-127830000D01*
X93616529Y-127458995D01*
X93604346Y-127378388D01*
X93607064Y-127350184D01*
X93615688Y-127340364D01*
X93634798Y-127332976D01*
X93671239Y-127329790D01*
X93775226Y-127830000D01*
X94060501Y-127830000D01*
X93866341Y-126896141D01*
X94001897Y-126896141D01*
X94001910Y-126908715D01*
X94001944Y-126941261D01*
X94013265Y-127022386D01*
X94043771Y-127180863D01*
X94083094Y-127370151D01*
X94117537Y-127524493D01*
X94140002Y-127606578D01*
X94157964Y-127651261D01*
X94182740Y-127693605D01*
X94214802Y-127733951D01*
X94252222Y-127769262D01*
X94294777Y-127798734D01*
X94343029Y-127822550D01*
X94394265Y-127839465D01*
X94449889Y-127849869D01*
X94510580Y-127853447D01*
X94568182Y-127849939D01*
X94618100Y-127839984D01*
X94661461Y-127824199D01*
X94700630Y-127801041D01*
X94731611Y-127771904D01*
X94755372Y-127736271D01*
X94771463Y-127696216D01*
X94779512Y-127654041D01*
X94779491Y-127608960D01*
X94768168Y-127527781D01*
X94737665Y-127369296D01*
X94698341Y-127180008D01*
X94663916Y-127025664D01*
X94641494Y-126943581D01*
X94623495Y-126898899D01*
X94611252Y-126878002D01*
X94731009Y-126878002D01*
X94734938Y-126934268D01*
X94737663Y-126949910D01*
X94751953Y-127031936D01*
X94771981Y-127128229D01*
X94789629Y-127198989D01*
X94807748Y-127249165D01*
X94825775Y-127283323D01*
X94849772Y-127312764D01*
X94880967Y-127337743D01*
X94920541Y-127358367D01*
X94963311Y-127372280D01*
X95014642Y-127381271D01*
X95076063Y-127384501D01*
X95150007Y-127384501D01*
X95242637Y-127830000D01*
X95527912Y-127830000D01*
X95334818Y-126901266D01*
X95462516Y-126901266D01*
X95468110Y-126951336D01*
X95469941Y-126967722D01*
X95497077Y-127112597D01*
X95577555Y-127499905D01*
X95610233Y-127636257D01*
X95632876Y-127699574D01*
X95661693Y-127745216D01*
X95697539Y-127778709D01*
X95740454Y-127802811D01*
X95790595Y-127818703D01*
X95849383Y-127826708D01*
X95944407Y-127830000D01*
X96301674Y-127830000D01*
X96114116Y-126927899D01*
X96241642Y-126927899D01*
X96244488Y-126947983D01*
X96255206Y-127023632D01*
X96277645Y-127109681D01*
X96300587Y-127164802D01*
X96323106Y-127197655D01*
X96353358Y-127222259D01*
X96394067Y-127240084D01*
X96448158Y-127250289D01*
X96403625Y-127266330D01*
X96374613Y-127284762D01*
X96357056Y-127305122D01*
X96340122Y-127341210D01*
X96334585Y-127371434D01*
X96338741Y-127413778D01*
X96361696Y-127536053D01*
X96422818Y-127830000D01*
X96688066Y-127830000D01*
X96610946Y-127458995D01*
X96598763Y-127378388D01*
X96601482Y-127350184D01*
X96610105Y-127340364D01*
X96629215Y-127332976D01*
X96665656Y-127329790D01*
X96769643Y-127830000D01*
X97054919Y-127830000D01*
X96824170Y-126720160D01*
X97044966Y-126720160D01*
X97060259Y-126965502D01*
X97114147Y-127830000D01*
X97406262Y-127830000D01*
X97378785Y-127630697D01*
X97475993Y-127630697D01*
X97534123Y-127830000D01*
X97829657Y-127830000D01*
X97455355Y-126720160D01*
X97598176Y-126720160D01*
X97954343Y-127830000D01*
X98309289Y-127830000D01*
X98297749Y-127564197D01*
X98270882Y-127244855D01*
X98329476Y-127423713D01*
X98468901Y-127830000D01*
X98821893Y-127830000D01*
X98717174Y-126720160D01*
X98769137Y-126720160D01*
X98816276Y-126946817D01*
X99004038Y-126946817D01*
X99046292Y-127150027D01*
X98870559Y-127150027D01*
X98915255Y-127364961D01*
X99090988Y-127364961D01*
X99140569Y-127603342D01*
X98934062Y-127603342D01*
X98981140Y-127830000D01*
X99472923Y-127830000D01*
X99285365Y-126927899D01*
X99412891Y-126927899D01*
X99415737Y-126947983D01*
X99426456Y-127023632D01*
X99448895Y-127109681D01*
X99471837Y-127164802D01*
X99494355Y-127197655D01*
X99524607Y-127222259D01*
X99565316Y-127240084D01*
X99619407Y-127250289D01*
X99574874Y-127266330D01*
X99545862Y-127284762D01*
X99528305Y-127305122D01*
X99511371Y-127341210D01*
X99505834Y-127371434D01*
X99509990Y-127413778D01*
X99532945Y-127536053D01*
X99594067Y-127830000D01*
X99859315Y-127830000D01*
X99782195Y-127458995D01*
X99770012Y-127378388D01*
X99772731Y-127350184D01*
X99781354Y-127340364D01*
X99800464Y-127332976D01*
X99836906Y-127329790D01*
X99940892Y-127830000D01*
X100226168Y-127830000D01*
X100072822Y-127092447D01*
X100179456Y-127092447D01*
X100220489Y-127289918D01*
X100287933Y-127333811D01*
X100344162Y-127361431D01*
X100391140Y-127376140D01*
X100430721Y-127380593D01*
X100468412Y-127375680D01*
X100520287Y-127358229D01*
X100590822Y-127323196D01*
X100645917Y-127297198D01*
X100677956Y-127290711D01*
X100710486Y-127295625D01*
X100754261Y-127313016D01*
X100813034Y-127348040D01*
X100890997Y-127407154D01*
X100849903Y-127209501D01*
X100786974Y-127166625D01*
X100731247Y-127138859D01*
X100681469Y-127123559D01*
X100636374Y-127118764D01*
X100599114Y-127123255D01*
X100551465Y-127138640D01*
X100490561Y-127168529D01*
X100423436Y-127200855D01*
X100387124Y-127208646D01*
X100356297Y-127204418D01*
X100318491Y-127190144D01*
X100273559Y-127162718D01*
X100179456Y-127092447D01*
X100072822Y-127092447D01*
X99995419Y-126720160D01*
X99794652Y-126720160D01*
X99611595Y-126725194D01*
X99527572Y-126735975D01*
X99486401Y-126751983D01*
X99453793Y-126778470D01*
X99428409Y-126816880D01*
X99415204Y-126861659D01*
X99412891Y-126927899D01*
X99285365Y-126927899D01*
X99242174Y-126720160D01*
X98769137Y-126720160D01*
X98717174Y-126720160D01*
X98439837Y-126720160D01*
X98491677Y-127108201D01*
X98542296Y-127483541D01*
X98453710Y-127169638D01*
X98307884Y-126720160D01*
X98011679Y-126720160D01*
X98056986Y-127087318D01*
X98116337Y-127510896D01*
X98042318Y-127241795D01*
X97962047Y-126978267D01*
X97875574Y-126720160D01*
X97598176Y-126720160D01*
X97455355Y-126720160D01*
X97044966Y-126720160D01*
X96824170Y-126720160D01*
X96623402Y-126720160D01*
X96440346Y-126725194D01*
X96356323Y-126735975D01*
X96315152Y-126751983D01*
X96282544Y-126778470D01*
X96257160Y-126816880D01*
X96243955Y-126861659D01*
X96241642Y-126927899D01*
X96114116Y-126927899D01*
X96070925Y-126720160D01*
X95858861Y-126720160D01*
X95719949Y-126723105D01*
X95634465Y-126730250D01*
X95586469Y-126739394D01*
X95543265Y-126756051D01*
X95511695Y-126777310D01*
X95489444Y-126802958D01*
X95473677Y-126833538D01*
X95464735Y-126866077D01*
X95462516Y-126901266D01*
X95334818Y-126901266D01*
X95297164Y-126720160D01*
X95012255Y-126720160D01*
X94904137Y-126725615D01*
X94838598Y-126738784D01*
X94801409Y-126754103D01*
X94774574Y-126772151D01*
X94755983Y-126792700D01*
X94737861Y-126830883D01*
X94731009Y-126878002D01*
X94611252Y-126878002D01*
X94598698Y-126856575D01*
X94566633Y-126816270D01*
X94529209Y-126780921D01*
X94486654Y-126751430D01*
X94438406Y-126727609D01*
X94387170Y-126710693D01*
X94331566Y-126700290D01*
X94270916Y-126696713D01*
X94213318Y-126700227D01*
X94163399Y-126710203D01*
X94120035Y-126726022D01*
X94080798Y-126749157D01*
X94049801Y-126778293D01*
X94026063Y-126813949D01*
X94009948Y-126853969D01*
X94001897Y-126896141D01*
X93866341Y-126896141D01*
X93829753Y-126720160D01*
X93628985Y-126720160D01*
X93445929Y-126725194D01*
X93361906Y-126735975D01*
X93320735Y-126751983D01*
X93288127Y-126778470D01*
X93262743Y-126816880D01*
X93249537Y-126861659D01*
X93247224Y-126927899D01*
X93167829Y-126927899D01*
X93124624Y-126720160D01*
X92505895Y-126720160D01*
X91769950Y-126720160D01*
X91769950Y-125412447D01*
X92268431Y-125412447D01*
X92309463Y-125609918D01*
X92376907Y-125653811D01*
X92433137Y-125681431D01*
X92480114Y-125696140D01*
X92519695Y-125700593D01*
X92557386Y-125695680D01*
X92609261Y-125678229D01*
X92679797Y-125643196D01*
X92734891Y-125617198D01*
X92766930Y-125610711D01*
X92799460Y-125615625D01*
X92843235Y-125633016D01*
X92902008Y-125668040D01*
X92979971Y-125727154D01*
X92938877Y-125529501D01*
X92875948Y-125486625D01*
X92820221Y-125458859D01*
X92770443Y-125443559D01*
X92725348Y-125438764D01*
X92688088Y-125443255D01*
X92640439Y-125458640D01*
X92579535Y-125488529D01*
X92512410Y-125520855D01*
X92476098Y-125528646D01*
X92445271Y-125524418D01*
X92407466Y-125510144D01*
X92362533Y-125482718D01*
X92268431Y-125412447D01*
X93003113Y-125412447D01*
X93044146Y-125609918D01*
X93111590Y-125653811D01*
X93167819Y-125681431D01*
X93214796Y-125696140D01*
X93254378Y-125700593D01*
X93292069Y-125695680D01*
X93343944Y-125678229D01*
X93414479Y-125643196D01*
X93469574Y-125617198D01*
X93501613Y-125610711D01*
X93534143Y-125615625D01*
X93577918Y-125633016D01*
X93636691Y-125668040D01*
X93714653Y-125727154D01*
X93673560Y-125529501D01*
X93610631Y-125486625D01*
X93554904Y-125458859D01*
X93505125Y-125443559D01*
X93460030Y-125438764D01*
X93422771Y-125443255D01*
X93375122Y-125458640D01*
X93314217Y-125488529D01*
X93247092Y-125520855D01*
X93210781Y-125528646D01*
X93179953Y-125524418D01*
X93142148Y-125510144D01*
X93097215Y-125482718D01*
X93003113Y-125412447D01*
X93737796Y-125412447D01*
X93778828Y-125609918D01*
X93846272Y-125653811D01*
X93902502Y-125681431D01*
X93949479Y-125696140D01*
X93989060Y-125700593D01*
X94026751Y-125695680D01*
X94078626Y-125678229D01*
X94149162Y-125643196D01*
X94204256Y-125617198D01*
X94236295Y-125610711D01*
X94268825Y-125615625D01*
X94312600Y-125633016D01*
X94371373Y-125668040D01*
X94449336Y-125727154D01*
X94408242Y-125529501D01*
X94345313Y-125486625D01*
X94289586Y-125458859D01*
X94239808Y-125443559D01*
X94194713Y-125438764D01*
X94157453Y-125443255D01*
X94109804Y-125458640D01*
X94048900Y-125488529D01*
X93981775Y-125520855D01*
X93945463Y-125528646D01*
X93914636Y-125524418D01*
X93876831Y-125510144D01*
X93831898Y-125482718D01*
X93737796Y-125412447D01*
X93003113Y-125412447D01*
X92268431Y-125412447D01*
X91769950Y-125412447D01*
X91769950Y-125258633D01*
X94473998Y-125258633D01*
X94478077Y-125286694D01*
X94488110Y-125355722D01*
X94505486Y-125419513D01*
X94525180Y-125462969D01*
X94546300Y-125491154D01*
X94574004Y-125512879D01*
X94613627Y-125532142D01*
X94668483Y-125548246D01*
X94614725Y-125567554D01*
X94579709Y-125592408D01*
X94558696Y-125622435D01*
X94548485Y-125658850D01*
X94547565Y-125687533D01*
X94546809Y-125711098D01*
X94557230Y-125784734D01*
X94578602Y-125887683D01*
X94597582Y-125962685D01*
X94617840Y-126017090D01*
X94638685Y-126055233D01*
X94665959Y-126088162D01*
X94697762Y-126112820D01*
X94734734Y-126129972D01*
X94776318Y-126139559D01*
X94848595Y-126146966D01*
X94964200Y-126150000D01*
X95291974Y-126150000D01*
X95061225Y-125040160D01*
X95282021Y-125040160D01*
X95297314Y-125285502D01*
X95351203Y-126150000D01*
X95643317Y-126150000D01*
X95615840Y-125950697D01*
X95713048Y-125950697D01*
X95771178Y-126150000D01*
X96066712Y-126150000D01*
X95692410Y-125040160D01*
X96052851Y-125040160D01*
X96236522Y-125923342D01*
X96065430Y-125923342D01*
X96112508Y-126150000D01*
X96568875Y-126150000D01*
X96338127Y-125040160D01*
X96455364Y-125040160D01*
X96686112Y-126150000D01*
X96971388Y-126150000D01*
X96783830Y-125247899D01*
X96911356Y-125247899D01*
X96914202Y-125267983D01*
X96924920Y-125343632D01*
X96947360Y-125429681D01*
X96970302Y-125484802D01*
X96992820Y-125517655D01*
X97023072Y-125542259D01*
X97063781Y-125560084D01*
X97117872Y-125570289D01*
X97073339Y-125586330D01*
X97044327Y-125604762D01*
X97026770Y-125625122D01*
X97009836Y-125661210D01*
X97004299Y-125691434D01*
X97008455Y-125733778D01*
X97031410Y-125856053D01*
X97092532Y-126150000D01*
X97357780Y-126150000D01*
X97280660Y-125778995D01*
X97268477Y-125698388D01*
X97271196Y-125670184D01*
X97279819Y-125660364D01*
X97298929Y-125652976D01*
X97335371Y-125649790D01*
X97439357Y-126150000D01*
X97724633Y-126150000D01*
X97493884Y-125040160D01*
X97568073Y-125040160D01*
X97615212Y-125266817D01*
X97782274Y-125266817D01*
X97965883Y-126150000D01*
X98251159Y-126150000D01*
X98097826Y-125412447D01*
X98322722Y-125412447D01*
X98363755Y-125609918D01*
X98431199Y-125653811D01*
X98487428Y-125681431D01*
X98534406Y-125696140D01*
X98573987Y-125700593D01*
X98611678Y-125695680D01*
X98663553Y-125678229D01*
X98734088Y-125643196D01*
X98789183Y-125617198D01*
X98821222Y-125610711D01*
X98853752Y-125615625D01*
X98897527Y-125633016D01*
X98956300Y-125668040D01*
X99034263Y-125727154D01*
X98993169Y-125529501D01*
X98930240Y-125486625D01*
X98874513Y-125458859D01*
X98824735Y-125443559D01*
X98779640Y-125438764D01*
X98742380Y-125443255D01*
X98694731Y-125458640D01*
X98633827Y-125488529D01*
X98566702Y-125520855D01*
X98530390Y-125528646D01*
X98499563Y-125524418D01*
X98461757Y-125510144D01*
X98416825Y-125482718D01*
X98322722Y-125412447D01*
X99057405Y-125412447D01*
X99098438Y-125609918D01*
X99165881Y-125653811D01*
X99222111Y-125681431D01*
X99269088Y-125696140D01*
X99308670Y-125700593D01*
X99346361Y-125695680D01*
X99398235Y-125678229D01*
X99468771Y-125643196D01*
X99523865Y-125617198D01*
X99555904Y-125610711D01*
X99588434Y-125615625D01*
X99632209Y-125633016D01*
X99690982Y-125668040D01*
X99768945Y-125727154D01*
X99727851Y-125529501D01*
X99664922Y-125486625D01*
X99609195Y-125458859D01*
X99559417Y-125443559D01*
X99514322Y-125438764D01*
X99477063Y-125443255D01*
X99429413Y-125458640D01*
X99368509Y-125488529D01*
X99301384Y-125520855D01*
X99265072Y-125528646D01*
X99234245Y-125524418D01*
X99196440Y-125510144D01*
X99151507Y-125482718D01*
X99057405Y-125412447D01*
X99792087Y-125412447D01*
X99833120Y-125609918D01*
X99900564Y-125653811D01*
X99956793Y-125681431D01*
X100003771Y-125696140D01*
X100043352Y-125700593D01*
X100081043Y-125695680D01*
X100132918Y-125678229D01*
X100203453Y-125643196D01*
X100258548Y-125617198D01*
X100290587Y-125610711D01*
X100323117Y-125615625D01*
X100366892Y-125633016D01*
X100425665Y-125668040D01*
X100503628Y-125727154D01*
X100462534Y-125529501D01*
X100399605Y-125486625D01*
X100343878Y-125458859D01*
X100294100Y-125443559D01*
X100249005Y-125438764D01*
X100211745Y-125443255D01*
X100164096Y-125458640D01*
X100103192Y-125488529D01*
X100036067Y-125520855D01*
X99999755Y-125528646D01*
X99968928Y-125524418D01*
X99931122Y-125510144D01*
X99886190Y-125482718D01*
X99792087Y-125412447D01*
X99057405Y-125412447D01*
X98322722Y-125412447D01*
X98097826Y-125412447D01*
X98067550Y-125266817D01*
X98233940Y-125266817D01*
X98186801Y-125040160D01*
X97568073Y-125040160D01*
X97493884Y-125040160D01*
X97293117Y-125040160D01*
X97110060Y-125045194D01*
X97026037Y-125055975D01*
X96984866Y-125071983D01*
X96952258Y-125098470D01*
X96926874Y-125136880D01*
X96913669Y-125181659D01*
X96911356Y-125247899D01*
X96783830Y-125247899D01*
X96740639Y-125040160D01*
X96455364Y-125040160D01*
X96338127Y-125040160D01*
X96052851Y-125040160D01*
X95692410Y-125040160D01*
X95282021Y-125040160D01*
X95061225Y-125040160D01*
X94778942Y-125040160D01*
X94689208Y-125043108D01*
X94625157Y-125050728D01*
X94581105Y-125061409D01*
X94541986Y-125080396D01*
X94511090Y-125108651D01*
X94487377Y-125147505D01*
X94475432Y-125191996D01*
X94473998Y-125258633D01*
X91769950Y-125258633D01*
X91769950Y-124929049D01*
X101002108Y-124929049D01*
X101002108Y-127964558D01*
G37*
D10*
X86109580Y-127357142D02*
X86157200Y-127309523D01*
X86157200Y-127309523D02*
X86204819Y-127166666D01*
X86204819Y-127166666D02*
X86204819Y-127071428D01*
X86204819Y-127071428D02*
X86157200Y-126928571D01*
X86157200Y-126928571D02*
X86061961Y-126833333D01*
X86061961Y-126833333D02*
X85966723Y-126785714D01*
X85966723Y-126785714D02*
X85776247Y-126738095D01*
X85776247Y-126738095D02*
X85633390Y-126738095D01*
X85633390Y-126738095D02*
X85442914Y-126785714D01*
X85442914Y-126785714D02*
X85347676Y-126833333D01*
X85347676Y-126833333D02*
X85252438Y-126928571D01*
X85252438Y-126928571D02*
X85204819Y-127071428D01*
X85204819Y-127071428D02*
X85204819Y-127166666D01*
X85204819Y-127166666D02*
X85252438Y-127309523D01*
X85252438Y-127309523D02*
X85300057Y-127357142D01*
X86204819Y-128309523D02*
X86204819Y-127738095D01*
X86204819Y-128023809D02*
X85204819Y-128023809D01*
X85204819Y-128023809D02*
X85347676Y-127928571D01*
X85347676Y-127928571D02*
X85442914Y-127833333D01*
X85442914Y-127833333D02*
X85490533Y-127738095D01*
X86204819Y-128785714D02*
X86204819Y-128976190D01*
X86204819Y-128976190D02*
X86157200Y-129071428D01*
X86157200Y-129071428D02*
X86109580Y-129119047D01*
X86109580Y-129119047D02*
X85966723Y-129214285D01*
X85966723Y-129214285D02*
X85776247Y-129261904D01*
X85776247Y-129261904D02*
X85395295Y-129261904D01*
X85395295Y-129261904D02*
X85300057Y-129214285D01*
X85300057Y-129214285D02*
X85252438Y-129166666D01*
X85252438Y-129166666D02*
X85204819Y-129071428D01*
X85204819Y-129071428D02*
X85204819Y-128880952D01*
X85204819Y-128880952D02*
X85252438Y-128785714D01*
X85252438Y-128785714D02*
X85300057Y-128738095D01*
X85300057Y-128738095D02*
X85395295Y-128690476D01*
X85395295Y-128690476D02*
X85633390Y-128690476D01*
X85633390Y-128690476D02*
X85728628Y-128738095D01*
X85728628Y-128738095D02*
X85776247Y-128785714D01*
X85776247Y-128785714D02*
X85823866Y-128880952D01*
X85823866Y-128880952D02*
X85823866Y-129071428D01*
X85823866Y-129071428D02*
X85776247Y-129166666D01*
X85776247Y-129166666D02*
X85728628Y-129214285D01*
X85728628Y-129214285D02*
X85633390Y-129261904D01*
X88609580Y-127357142D02*
X88657200Y-127309523D01*
X88657200Y-127309523D02*
X88704819Y-127166666D01*
X88704819Y-127166666D02*
X88704819Y-127071428D01*
X88704819Y-127071428D02*
X88657200Y-126928571D01*
X88657200Y-126928571D02*
X88561961Y-126833333D01*
X88561961Y-126833333D02*
X88466723Y-126785714D01*
X88466723Y-126785714D02*
X88276247Y-126738095D01*
X88276247Y-126738095D02*
X88133390Y-126738095D01*
X88133390Y-126738095D02*
X87942914Y-126785714D01*
X87942914Y-126785714D02*
X87847676Y-126833333D01*
X87847676Y-126833333D02*
X87752438Y-126928571D01*
X87752438Y-126928571D02*
X87704819Y-127071428D01*
X87704819Y-127071428D02*
X87704819Y-127166666D01*
X87704819Y-127166666D02*
X87752438Y-127309523D01*
X87752438Y-127309523D02*
X87800057Y-127357142D01*
X88704819Y-128309523D02*
X88704819Y-127738095D01*
X88704819Y-128023809D02*
X87704819Y-128023809D01*
X87704819Y-128023809D02*
X87847676Y-127928571D01*
X87847676Y-127928571D02*
X87942914Y-127833333D01*
X87942914Y-127833333D02*
X87990533Y-127738095D01*
X88038152Y-129166666D02*
X88704819Y-129166666D01*
X87657200Y-128928571D02*
X88371485Y-128690476D01*
X88371485Y-128690476D02*
X88371485Y-129309523D01*
X78609580Y-126107142D02*
X78657200Y-126059523D01*
X78657200Y-126059523D02*
X78704819Y-125916666D01*
X78704819Y-125916666D02*
X78704819Y-125821428D01*
X78704819Y-125821428D02*
X78657200Y-125678571D01*
X78657200Y-125678571D02*
X78561961Y-125583333D01*
X78561961Y-125583333D02*
X78466723Y-125535714D01*
X78466723Y-125535714D02*
X78276247Y-125488095D01*
X78276247Y-125488095D02*
X78133390Y-125488095D01*
X78133390Y-125488095D02*
X77942914Y-125535714D01*
X77942914Y-125535714D02*
X77847676Y-125583333D01*
X77847676Y-125583333D02*
X77752438Y-125678571D01*
X77752438Y-125678571D02*
X77704819Y-125821428D01*
X77704819Y-125821428D02*
X77704819Y-125916666D01*
X77704819Y-125916666D02*
X77752438Y-126059523D01*
X77752438Y-126059523D02*
X77800057Y-126107142D01*
X78704819Y-127059523D02*
X78704819Y-126488095D01*
X78704819Y-126773809D02*
X77704819Y-126773809D01*
X77704819Y-126773809D02*
X77847676Y-126678571D01*
X77847676Y-126678571D02*
X77942914Y-126583333D01*
X77942914Y-126583333D02*
X77990533Y-126488095D01*
X77704819Y-127916666D02*
X77704819Y-127726190D01*
X77704819Y-127726190D02*
X77752438Y-127630952D01*
X77752438Y-127630952D02*
X77800057Y-127583333D01*
X77800057Y-127583333D02*
X77942914Y-127488095D01*
X77942914Y-127488095D02*
X78133390Y-127440476D01*
X78133390Y-127440476D02*
X78514342Y-127440476D01*
X78514342Y-127440476D02*
X78609580Y-127488095D01*
X78609580Y-127488095D02*
X78657200Y-127535714D01*
X78657200Y-127535714D02*
X78704819Y-127630952D01*
X78704819Y-127630952D02*
X78704819Y-127821428D01*
X78704819Y-127821428D02*
X78657200Y-127916666D01*
X78657200Y-127916666D02*
X78609580Y-127964285D01*
X78609580Y-127964285D02*
X78514342Y-128011904D01*
X78514342Y-128011904D02*
X78276247Y-128011904D01*
X78276247Y-128011904D02*
X78181009Y-127964285D01*
X78181009Y-127964285D02*
X78133390Y-127916666D01*
X78133390Y-127916666D02*
X78085771Y-127821428D01*
X78085771Y-127821428D02*
X78085771Y-127630952D01*
X78085771Y-127630952D02*
X78133390Y-127535714D01*
X78133390Y-127535714D02*
X78181009Y-127488095D01*
X78181009Y-127488095D02*
X78276247Y-127440476D01*
X82011904Y-126454819D02*
X82011904Y-127264342D01*
X82011904Y-127264342D02*
X81964285Y-127359580D01*
X81964285Y-127359580D02*
X81916666Y-127407200D01*
X81916666Y-127407200D02*
X81821428Y-127454819D01*
X81821428Y-127454819D02*
X81630952Y-127454819D01*
X81630952Y-127454819D02*
X81535714Y-127407200D01*
X81535714Y-127407200D02*
X81488095Y-127359580D01*
X81488095Y-127359580D02*
X81440476Y-127264342D01*
X81440476Y-127264342D02*
X81440476Y-126454819D01*
X80488095Y-126454819D02*
X80964285Y-126454819D01*
X80964285Y-126454819D02*
X81011904Y-126931009D01*
X81011904Y-126931009D02*
X80964285Y-126883390D01*
X80964285Y-126883390D02*
X80869047Y-126835771D01*
X80869047Y-126835771D02*
X80630952Y-126835771D01*
X80630952Y-126835771D02*
X80535714Y-126883390D01*
X80535714Y-126883390D02*
X80488095Y-126931009D01*
X80488095Y-126931009D02*
X80440476Y-127026247D01*
X80440476Y-127026247D02*
X80440476Y-127264342D01*
X80440476Y-127264342D02*
X80488095Y-127359580D01*
X80488095Y-127359580D02*
X80535714Y-127407200D01*
X80535714Y-127407200D02*
X80630952Y-127454819D01*
X80630952Y-127454819D02*
X80869047Y-127454819D01*
X80869047Y-127454819D02*
X80964285Y-127407200D01*
X80964285Y-127407200D02*
X81011904Y-127359580D01*
X80392857Y-129454819D02*
X80726190Y-128978628D01*
X80964285Y-129454819D02*
X80964285Y-128454819D01*
X80964285Y-128454819D02*
X80583333Y-128454819D01*
X80583333Y-128454819D02*
X80488095Y-128502438D01*
X80488095Y-128502438D02*
X80440476Y-128550057D01*
X80440476Y-128550057D02*
X80392857Y-128645295D01*
X80392857Y-128645295D02*
X80392857Y-128788152D01*
X80392857Y-128788152D02*
X80440476Y-128883390D01*
X80440476Y-128883390D02*
X80488095Y-128931009D01*
X80488095Y-128931009D02*
X80583333Y-128978628D01*
X80583333Y-128978628D02*
X80964285Y-128978628D01*
X80011904Y-128550057D02*
X79964285Y-128502438D01*
X79964285Y-128502438D02*
X79869047Y-128454819D01*
X79869047Y-128454819D02*
X79630952Y-128454819D01*
X79630952Y-128454819D02*
X79535714Y-128502438D01*
X79535714Y-128502438D02*
X79488095Y-128550057D01*
X79488095Y-128550057D02*
X79440476Y-128645295D01*
X79440476Y-128645295D02*
X79440476Y-128740533D01*
X79440476Y-128740533D02*
X79488095Y-128883390D01*
X79488095Y-128883390D02*
X80059523Y-129454819D01*
X80059523Y-129454819D02*
X79440476Y-129454819D01*
X79107142Y-128454819D02*
X78488095Y-128454819D01*
X78488095Y-128454819D02*
X78821428Y-128835771D01*
X78821428Y-128835771D02*
X78678571Y-128835771D01*
X78678571Y-128835771D02*
X78583333Y-128883390D01*
X78583333Y-128883390D02*
X78535714Y-128931009D01*
X78535714Y-128931009D02*
X78488095Y-129026247D01*
X78488095Y-129026247D02*
X78488095Y-129264342D01*
X78488095Y-129264342D02*
X78535714Y-129359580D01*
X78535714Y-129359580D02*
X78583333Y-129407200D01*
X78583333Y-129407200D02*
X78678571Y-129454819D01*
X78678571Y-129454819D02*
X78964285Y-129454819D01*
X78964285Y-129454819D02*
X79059523Y-129407200D01*
X79059523Y-129407200D02*
X79107142Y-129359580D01*
G36*
X83403628Y-133756104D02*
G01*
X83369370Y-133824620D01*
X83338963Y-133855027D01*
X83270447Y-133889285D01*
X83163000Y-133889285D01*
X83094484Y-133855027D01*
X83064077Y-133824620D01*
X83029819Y-133756104D01*
X83029819Y-133467857D01*
X83403628Y-133467857D01*
X83403628Y-133756104D01*
G37*
G36*
X84140930Y-135102777D02*
G01*
X82768708Y-135102777D01*
X82768708Y-134488095D01*
X82879819Y-134488095D01*
X82879819Y-134726190D01*
X82881260Y-134740822D01*
X82882291Y-134743311D01*
X82882482Y-134745999D01*
X82887737Y-134759731D01*
X82935356Y-134854969D01*
X82939320Y-134861268D01*
X82940078Y-134863096D01*
X82941766Y-134865152D01*
X82943188Y-134867412D01*
X82944686Y-134868711D01*
X82949405Y-134874461D01*
X82997024Y-134922080D01*
X83002773Y-134926798D01*
X83004073Y-134928297D01*
X83006332Y-134929718D01*
X83008389Y-134931407D01*
X83010216Y-134932164D01*
X83016516Y-134936129D01*
X83111754Y-134983748D01*
X83125485Y-134989003D01*
X83128174Y-134989194D01*
X83130663Y-134990225D01*
X83145295Y-134991666D01*
X83240533Y-134991666D01*
X83247938Y-134990936D01*
X83249913Y-134991077D01*
X83252510Y-134990486D01*
X83255165Y-134990225D01*
X83256996Y-134989466D01*
X83264250Y-134987817D01*
X83407107Y-134940198D01*
X83420532Y-134934204D01*
X83422567Y-134932438D01*
X83425058Y-134931407D01*
X83436423Y-134922080D01*
X83879819Y-134478684D01*
X83879819Y-134916666D01*
X83881260Y-134931298D01*
X83892459Y-134958334D01*
X83913151Y-134979026D01*
X83940187Y-134990225D01*
X83969451Y-134990225D01*
X83996487Y-134979026D01*
X84017179Y-134958334D01*
X84028378Y-134931298D01*
X84029819Y-134916666D01*
X84029819Y-134297619D01*
X84028378Y-134282987D01*
X84023694Y-134271679D01*
X84017180Y-134255951D01*
X83996487Y-134235259D01*
X83969451Y-134224060D01*
X83940187Y-134224060D01*
X83932268Y-134227339D01*
X83913151Y-134235258D01*
X83901786Y-134244586D01*
X83342876Y-134803494D01*
X83228363Y-134841666D01*
X83163000Y-134841666D01*
X83094484Y-134807408D01*
X83064077Y-134777001D01*
X83029819Y-134708485D01*
X83029819Y-134505800D01*
X83064077Y-134437284D01*
X83103090Y-134398271D01*
X83112417Y-134386906D01*
X83123616Y-134359870D01*
X83123616Y-134330607D01*
X83112417Y-134303571D01*
X83091724Y-134282878D01*
X83064688Y-134271679D01*
X83035425Y-134271679D01*
X83008389Y-134282878D01*
X82997024Y-134292205D01*
X82949405Y-134339824D01*
X82944686Y-134345573D01*
X82943188Y-134346873D01*
X82941766Y-134349132D01*
X82940078Y-134351189D01*
X82939320Y-134353016D01*
X82935356Y-134359316D01*
X82887737Y-134454554D01*
X82882482Y-134468286D01*
X82882291Y-134470973D01*
X82881260Y-134473463D01*
X82879819Y-134488095D01*
X82768708Y-134488095D01*
X82768708Y-133392857D01*
X82879819Y-133392857D01*
X82879819Y-133773809D01*
X82881260Y-133788441D01*
X82882291Y-133790930D01*
X82882482Y-133793618D01*
X82887737Y-133807350D01*
X82935356Y-133902588D01*
X82939320Y-133908887D01*
X82940078Y-133910715D01*
X82941766Y-133912771D01*
X82943188Y-133915031D01*
X82944686Y-133916330D01*
X82949405Y-133922080D01*
X82997024Y-133969699D01*
X83002773Y-133974417D01*
X83004073Y-133975916D01*
X83006332Y-133977337D01*
X83008389Y-133979026D01*
X83010216Y-133979783D01*
X83016516Y-133983748D01*
X83111754Y-134031367D01*
X83125485Y-134036622D01*
X83128174Y-134036813D01*
X83130663Y-134037844D01*
X83145295Y-134039285D01*
X83288152Y-134039285D01*
X83302784Y-134037844D01*
X83305273Y-134036812D01*
X83307961Y-134036622D01*
X83321693Y-134031367D01*
X83416931Y-133983748D01*
X83423230Y-133979783D01*
X83425058Y-133979026D01*
X83427114Y-133977337D01*
X83429374Y-133975916D01*
X83430673Y-133974417D01*
X83436423Y-133969699D01*
X83484042Y-133922080D01*
X83488760Y-133916330D01*
X83490259Y-133915031D01*
X83491680Y-133912771D01*
X83493369Y-133910715D01*
X83494126Y-133908887D01*
X83498091Y-133902588D01*
X83545710Y-133807350D01*
X83550965Y-133793619D01*
X83551156Y-133790929D01*
X83552187Y-133788441D01*
X83553628Y-133773809D01*
X83553628Y-133467857D01*
X83954819Y-133467857D01*
X83969451Y-133466416D01*
X83996487Y-133455217D01*
X84017179Y-133434525D01*
X84028378Y-133407489D01*
X84028378Y-133378225D01*
X84017179Y-133351189D01*
X83996487Y-133330497D01*
X83969451Y-133319298D01*
X83954819Y-133317857D01*
X82954819Y-133317857D01*
X82940187Y-133319298D01*
X82913151Y-133330497D01*
X82892459Y-133351189D01*
X82881260Y-133378225D01*
X82879819Y-133392857D01*
X82768708Y-133392857D01*
X82768708Y-132902034D01*
X82881260Y-132902034D01*
X82881260Y-132931298D01*
X82892459Y-132958334D01*
X82913151Y-132979026D01*
X82940187Y-132990225D01*
X82954819Y-132991666D01*
X83669104Y-132991666D01*
X83676509Y-132990936D01*
X83678484Y-132991077D01*
X83681081Y-132990486D01*
X83683736Y-132990225D01*
X83685567Y-132989466D01*
X83692821Y-132987817D01*
X83835678Y-132940198D01*
X83849103Y-132934204D01*
X83851137Y-132932439D01*
X83853628Y-132931408D01*
X83864994Y-132922080D01*
X83960233Y-132826842D01*
X83969561Y-132815477D01*
X83970592Y-132812986D01*
X83972357Y-132810952D01*
X83978351Y-132797526D01*
X84025970Y-132654670D01*
X84027619Y-132647414D01*
X84028378Y-132645584D01*
X84028639Y-132642930D01*
X84029230Y-132640333D01*
X84029089Y-132638358D01*
X84029819Y-132630952D01*
X84029819Y-132535714D01*
X84028378Y-132521082D01*
X84017179Y-132494046D01*
X83996487Y-132473354D01*
X83969451Y-132462155D01*
X83940187Y-132462155D01*
X83913151Y-132473354D01*
X83892459Y-132494046D01*
X83881260Y-132521082D01*
X83879819Y-132535714D01*
X83879819Y-132618782D01*
X83841648Y-132733294D01*
X83771447Y-132803494D01*
X83656934Y-132841666D01*
X82954819Y-132841666D01*
X82940187Y-132843107D01*
X82913151Y-132854306D01*
X82892459Y-132874998D01*
X82881260Y-132902034D01*
X82768708Y-132902034D01*
X82768708Y-132351044D01*
X84140930Y-132351044D01*
X84140930Y-135102777D01*
G37*
G36*
X79653628Y-133756104D02*
G01*
X79619370Y-133824620D01*
X79588963Y-133855027D01*
X79520447Y-133889285D01*
X79413000Y-133889285D01*
X79344484Y-133855027D01*
X79314077Y-133824620D01*
X79279819Y-133756104D01*
X79279819Y-133467857D01*
X79653628Y-133467857D01*
X79653628Y-133756104D01*
G37*
G36*
X80390930Y-135101336D02*
G01*
X79018708Y-135101336D01*
X79018708Y-134630873D01*
X79129819Y-134630873D01*
X79131260Y-134638157D01*
X79131260Y-134645584D01*
X79134072Y-134652372D01*
X79135498Y-134659581D01*
X79139617Y-134665759D01*
X79142459Y-134672620D01*
X79147654Y-134677815D01*
X79151731Y-134683930D01*
X79157900Y-134688061D01*
X79163151Y-134693312D01*
X79169940Y-134696124D01*
X79176046Y-134700213D01*
X79183326Y-134701669D01*
X79190187Y-134704511D01*
X79204663Y-134705936D01*
X79204740Y-134705952D01*
X79204766Y-134705946D01*
X79204819Y-134705952D01*
X80129819Y-134705952D01*
X80129819Y-134916666D01*
X80131260Y-134931298D01*
X80142459Y-134958334D01*
X80163151Y-134979026D01*
X80190187Y-134990225D01*
X80219451Y-134990225D01*
X80246487Y-134979026D01*
X80267179Y-134958334D01*
X80278378Y-134931298D01*
X80279819Y-134916666D01*
X80279819Y-134345238D01*
X80278378Y-134330606D01*
X80267179Y-134303570D01*
X80246487Y-134282878D01*
X80219451Y-134271679D01*
X80190187Y-134271679D01*
X80163151Y-134282878D01*
X80142459Y-134303570D01*
X80131260Y-134330606D01*
X80129819Y-134345238D01*
X80129819Y-134555952D01*
X79433504Y-134555952D01*
X79495947Y-134493509D01*
X79500667Y-134487758D01*
X79502164Y-134486460D01*
X79503583Y-134484205D01*
X79505275Y-134482144D01*
X79506033Y-134480311D01*
X79509996Y-134474017D01*
X79557615Y-134378779D01*
X79562870Y-134365048D01*
X79564944Y-134335858D01*
X79555690Y-134308096D01*
X79536517Y-134285989D01*
X79510342Y-134272901D01*
X79481152Y-134270827D01*
X79453391Y-134280081D01*
X79431283Y-134299254D01*
X79423451Y-134311697D01*
X79381275Y-134396049D01*
X79299894Y-134477429D01*
X79163216Y-134568548D01*
X79163173Y-134568582D01*
X79163151Y-134568592D01*
X79163099Y-134568643D01*
X79151841Y-134577864D01*
X79147709Y-134584033D01*
X79142459Y-134589284D01*
X79139646Y-134596073D01*
X79135558Y-134602179D01*
X79134101Y-134609459D01*
X79131260Y-134616320D01*
X79131260Y-134623668D01*
X79129819Y-134630873D01*
X79018708Y-134630873D01*
X79018708Y-133392857D01*
X79129819Y-133392857D01*
X79129819Y-133773809D01*
X79131260Y-133788441D01*
X79132291Y-133790930D01*
X79132482Y-133793618D01*
X79137737Y-133807350D01*
X79185356Y-133902588D01*
X79189320Y-133908887D01*
X79190078Y-133910715D01*
X79191766Y-133912771D01*
X79193188Y-133915031D01*
X79194686Y-133916330D01*
X79199405Y-133922080D01*
X79247024Y-133969699D01*
X79252773Y-133974417D01*
X79254073Y-133975916D01*
X79256332Y-133977337D01*
X79258389Y-133979026D01*
X79260216Y-133979783D01*
X79266516Y-133983748D01*
X79361754Y-134031367D01*
X79375485Y-134036622D01*
X79378174Y-134036813D01*
X79380663Y-134037844D01*
X79395295Y-134039285D01*
X79538152Y-134039285D01*
X79552784Y-134037844D01*
X79555273Y-134036812D01*
X79557961Y-134036622D01*
X79571693Y-134031367D01*
X79666931Y-133983748D01*
X79673230Y-133979783D01*
X79675058Y-133979026D01*
X79677114Y-133977337D01*
X79679374Y-133975916D01*
X79680673Y-133974417D01*
X79686423Y-133969699D01*
X79734042Y-133922080D01*
X79738760Y-133916330D01*
X79740259Y-133915031D01*
X79741680Y-133912771D01*
X79743369Y-133910715D01*
X79744126Y-133908887D01*
X79748091Y-133902588D01*
X79795710Y-133807350D01*
X79800965Y-133793619D01*
X79801156Y-133790929D01*
X79802187Y-133788441D01*
X79803628Y-133773809D01*
X79803628Y-133467857D01*
X80204819Y-133467857D01*
X80219451Y-133466416D01*
X80246487Y-133455217D01*
X80267179Y-133434525D01*
X80278378Y-133407489D01*
X80278378Y-133378225D01*
X80267179Y-133351189D01*
X80246487Y-133330497D01*
X80219451Y-133319298D01*
X80204819Y-133317857D01*
X79204819Y-133317857D01*
X79190187Y-133319298D01*
X79163151Y-133330497D01*
X79142459Y-133351189D01*
X79131260Y-133378225D01*
X79129819Y-133392857D01*
X79018708Y-133392857D01*
X79018708Y-132902034D01*
X79131260Y-132902034D01*
X79131260Y-132931298D01*
X79142459Y-132958334D01*
X79163151Y-132979026D01*
X79190187Y-132990225D01*
X79204819Y-132991666D01*
X79919104Y-132991666D01*
X79926509Y-132990936D01*
X79928484Y-132991077D01*
X79931081Y-132990486D01*
X79933736Y-132990225D01*
X79935567Y-132989466D01*
X79942821Y-132987817D01*
X80085678Y-132940198D01*
X80099103Y-132934204D01*
X80101137Y-132932439D01*
X80103628Y-132931408D01*
X80114994Y-132922080D01*
X80210233Y-132826842D01*
X80219561Y-132815477D01*
X80220592Y-132812986D01*
X80222357Y-132810952D01*
X80228351Y-132797526D01*
X80275970Y-132654670D01*
X80277619Y-132647414D01*
X80278378Y-132645584D01*
X80278639Y-132642930D01*
X80279230Y-132640333D01*
X80279089Y-132638358D01*
X80279819Y-132630952D01*
X80279819Y-132535714D01*
X80278378Y-132521082D01*
X80267179Y-132494046D01*
X80246487Y-132473354D01*
X80219451Y-132462155D01*
X80190187Y-132462155D01*
X80163151Y-132473354D01*
X80142459Y-132494046D01*
X80131260Y-132521082D01*
X80129819Y-132535714D01*
X80129819Y-132618782D01*
X80091648Y-132733294D01*
X80021447Y-132803494D01*
X79906934Y-132841666D01*
X79204819Y-132841666D01*
X79190187Y-132843107D01*
X79163151Y-132854306D01*
X79142459Y-132874998D01*
X79131260Y-132902034D01*
X79018708Y-132902034D01*
X79018708Y-132351044D01*
X80390930Y-132351044D01*
X80390930Y-135101336D01*
G37*
X82642857Y-139109580D02*
X82690476Y-139157200D01*
X82690476Y-139157200D02*
X82833333Y-139204819D01*
X82833333Y-139204819D02*
X82928571Y-139204819D01*
X82928571Y-139204819D02*
X83071428Y-139157200D01*
X83071428Y-139157200D02*
X83166666Y-139061961D01*
X83166666Y-139061961D02*
X83214285Y-138966723D01*
X83214285Y-138966723D02*
X83261904Y-138776247D01*
X83261904Y-138776247D02*
X83261904Y-138633390D01*
X83261904Y-138633390D02*
X83214285Y-138442914D01*
X83214285Y-138442914D02*
X83166666Y-138347676D01*
X83166666Y-138347676D02*
X83071428Y-138252438D01*
X83071428Y-138252438D02*
X82928571Y-138204819D01*
X82928571Y-138204819D02*
X82833333Y-138204819D01*
X82833333Y-138204819D02*
X82690476Y-138252438D01*
X82690476Y-138252438D02*
X82642857Y-138300057D01*
X81690476Y-139204819D02*
X82261904Y-139204819D01*
X81976190Y-139204819D02*
X81976190Y-138204819D01*
X81976190Y-138204819D02*
X82071428Y-138347676D01*
X82071428Y-138347676D02*
X82166666Y-138442914D01*
X82166666Y-138442914D02*
X82261904Y-138490533D01*
X81357142Y-138204819D02*
X80690476Y-138204819D01*
X80690476Y-138204819D02*
X81119047Y-139204819D01*
X79642857Y-139609580D02*
X79690476Y-139657200D01*
X79690476Y-139657200D02*
X79833333Y-139704819D01*
X79833333Y-139704819D02*
X79928571Y-139704819D01*
X79928571Y-139704819D02*
X80071428Y-139657200D01*
X80071428Y-139657200D02*
X80166666Y-139561961D01*
X80166666Y-139561961D02*
X80214285Y-139466723D01*
X80214285Y-139466723D02*
X80261904Y-139276247D01*
X80261904Y-139276247D02*
X80261904Y-139133390D01*
X80261904Y-139133390D02*
X80214285Y-138942914D01*
X80214285Y-138942914D02*
X80166666Y-138847676D01*
X80166666Y-138847676D02*
X80071428Y-138752438D01*
X80071428Y-138752438D02*
X79928571Y-138704819D01*
X79928571Y-138704819D02*
X79833333Y-138704819D01*
X79833333Y-138704819D02*
X79690476Y-138752438D01*
X79690476Y-138752438D02*
X79642857Y-138800057D01*
X78690476Y-139704819D02*
X79261904Y-139704819D01*
X78976190Y-139704819D02*
X78976190Y-138704819D01*
X78976190Y-138704819D02*
X79071428Y-138847676D01*
X79071428Y-138847676D02*
X79166666Y-138942914D01*
X79166666Y-138942914D02*
X79261904Y-138990533D01*
X77785714Y-138704819D02*
X78261904Y-138704819D01*
X78261904Y-138704819D02*
X78309523Y-139181009D01*
X78309523Y-139181009D02*
X78261904Y-139133390D01*
X78261904Y-139133390D02*
X78166666Y-139085771D01*
X78166666Y-139085771D02*
X77928571Y-139085771D01*
X77928571Y-139085771D02*
X77833333Y-139133390D01*
X77833333Y-139133390D02*
X77785714Y-139181009D01*
X77785714Y-139181009D02*
X77738095Y-139276247D01*
X77738095Y-139276247D02*
X77738095Y-139514342D01*
X77738095Y-139514342D02*
X77785714Y-139609580D01*
X77785714Y-139609580D02*
X77833333Y-139657200D01*
X77833333Y-139657200D02*
X77928571Y-139704819D01*
X77928571Y-139704819D02*
X78166666Y-139704819D01*
X78166666Y-139704819D02*
X78261904Y-139657200D01*
X78261904Y-139657200D02*
X78309523Y-139609580D01*
X78609580Y-141607142D02*
X78657200Y-141559523D01*
X78657200Y-141559523D02*
X78704819Y-141416666D01*
X78704819Y-141416666D02*
X78704819Y-141321428D01*
X78704819Y-141321428D02*
X78657200Y-141178571D01*
X78657200Y-141178571D02*
X78561961Y-141083333D01*
X78561961Y-141083333D02*
X78466723Y-141035714D01*
X78466723Y-141035714D02*
X78276247Y-140988095D01*
X78276247Y-140988095D02*
X78133390Y-140988095D01*
X78133390Y-140988095D02*
X77942914Y-141035714D01*
X77942914Y-141035714D02*
X77847676Y-141083333D01*
X77847676Y-141083333D02*
X77752438Y-141178571D01*
X77752438Y-141178571D02*
X77704819Y-141321428D01*
X77704819Y-141321428D02*
X77704819Y-141416666D01*
X77704819Y-141416666D02*
X77752438Y-141559523D01*
X77752438Y-141559523D02*
X77800057Y-141607142D01*
X77800057Y-141988095D02*
X77752438Y-142035714D01*
X77752438Y-142035714D02*
X77704819Y-142130952D01*
X77704819Y-142130952D02*
X77704819Y-142369047D01*
X77704819Y-142369047D02*
X77752438Y-142464285D01*
X77752438Y-142464285D02*
X77800057Y-142511904D01*
X77800057Y-142511904D02*
X77895295Y-142559523D01*
X77895295Y-142559523D02*
X77990533Y-142559523D01*
X77990533Y-142559523D02*
X78133390Y-142511904D01*
X78133390Y-142511904D02*
X78704819Y-141940476D01*
X78704819Y-141940476D02*
X78704819Y-142559523D01*
X77704819Y-143178571D02*
X77704819Y-143273809D01*
X77704819Y-143273809D02*
X77752438Y-143369047D01*
X77752438Y-143369047D02*
X77800057Y-143416666D01*
X77800057Y-143416666D02*
X77895295Y-143464285D01*
X77895295Y-143464285D02*
X78085771Y-143511904D01*
X78085771Y-143511904D02*
X78323866Y-143511904D01*
X78323866Y-143511904D02*
X78514342Y-143464285D01*
X78514342Y-143464285D02*
X78609580Y-143416666D01*
X78609580Y-143416666D02*
X78657200Y-143369047D01*
X78657200Y-143369047D02*
X78704819Y-143273809D01*
X78704819Y-143273809D02*
X78704819Y-143178571D01*
X78704819Y-143178571D02*
X78657200Y-143083333D01*
X78657200Y-143083333D02*
X78609580Y-143035714D01*
X78609580Y-143035714D02*
X78514342Y-142988095D01*
X78514342Y-142988095D02*
X78323866Y-142940476D01*
X78323866Y-142940476D02*
X78085771Y-142940476D01*
X78085771Y-142940476D02*
X77895295Y-142988095D01*
X77895295Y-142988095D02*
X77800057Y-143035714D01*
X77800057Y-143035714D02*
X77752438Y-143083333D01*
X77752438Y-143083333D02*
X77704819Y-143178571D01*
X98954819Y-136041666D02*
X99669104Y-136041666D01*
X99669104Y-136041666D02*
X99811961Y-135994047D01*
X99811961Y-135994047D02*
X99907200Y-135898809D01*
X99907200Y-135898809D02*
X99954819Y-135755952D01*
X99954819Y-135755952D02*
X99954819Y-135660714D01*
X99050057Y-136470238D02*
X99002438Y-136517857D01*
X99002438Y-136517857D02*
X98954819Y-136613095D01*
X98954819Y-136613095D02*
X98954819Y-136851190D01*
X98954819Y-136851190D02*
X99002438Y-136946428D01*
X99002438Y-136946428D02*
X99050057Y-136994047D01*
X99050057Y-136994047D02*
X99145295Y-137041666D01*
X99145295Y-137041666D02*
X99240533Y-137041666D01*
X99240533Y-137041666D02*
X99383390Y-136994047D01*
X99383390Y-136994047D02*
X99954819Y-136422619D01*
X99954819Y-136422619D02*
X99954819Y-137041666D01*
X89666666Y-130954819D02*
X89999999Y-130478628D01*
X90238094Y-130954819D02*
X90238094Y-129954819D01*
X90238094Y-129954819D02*
X89857142Y-129954819D01*
X89857142Y-129954819D02*
X89761904Y-130002438D01*
X89761904Y-130002438D02*
X89714285Y-130050057D01*
X89714285Y-130050057D02*
X89666666Y-130145295D01*
X89666666Y-130145295D02*
X89666666Y-130288152D01*
X89666666Y-130288152D02*
X89714285Y-130383390D01*
X89714285Y-130383390D02*
X89761904Y-130431009D01*
X89761904Y-130431009D02*
X89857142Y-130478628D01*
X89857142Y-130478628D02*
X90238094Y-130478628D01*
X88809523Y-129954819D02*
X88999999Y-129954819D01*
X88999999Y-129954819D02*
X89095237Y-130002438D01*
X89095237Y-130002438D02*
X89142856Y-130050057D01*
X89142856Y-130050057D02*
X89238094Y-130192914D01*
X89238094Y-130192914D02*
X89285713Y-130383390D01*
X89285713Y-130383390D02*
X89285713Y-130764342D01*
X89285713Y-130764342D02*
X89238094Y-130859580D01*
X89238094Y-130859580D02*
X89190475Y-130907200D01*
X89190475Y-130907200D02*
X89095237Y-130954819D01*
X89095237Y-130954819D02*
X88904761Y-130954819D01*
X88904761Y-130954819D02*
X88809523Y-130907200D01*
X88809523Y-130907200D02*
X88761904Y-130859580D01*
X88761904Y-130859580D02*
X88714285Y-130764342D01*
X88714285Y-130764342D02*
X88714285Y-130526247D01*
X88714285Y-130526247D02*
X88761904Y-130431009D01*
X88761904Y-130431009D02*
X88809523Y-130383390D01*
X88809523Y-130383390D02*
X88904761Y-130335771D01*
X88904761Y-130335771D02*
X89095237Y-130335771D01*
X89095237Y-130335771D02*
X89190475Y-130383390D01*
X89190475Y-130383390D02*
X89238094Y-130431009D01*
X89238094Y-130431009D02*
X89285713Y-130526247D01*
X92045180Y-140761904D02*
X91235657Y-140761904D01*
X91235657Y-140761904D02*
X91140419Y-140714285D01*
X91140419Y-140714285D02*
X91092800Y-140666666D01*
X91092800Y-140666666D02*
X91045180Y-140571428D01*
X91045180Y-140571428D02*
X91045180Y-140380952D01*
X91045180Y-140380952D02*
X91092800Y-140285714D01*
X91092800Y-140285714D02*
X91140419Y-140238095D01*
X91140419Y-140238095D02*
X91235657Y-140190476D01*
X91235657Y-140190476D02*
X92045180Y-140190476D01*
X92045180Y-139809523D02*
X92045180Y-139190476D01*
X92045180Y-139190476D02*
X91664228Y-139523809D01*
X91664228Y-139523809D02*
X91664228Y-139380952D01*
X91664228Y-139380952D02*
X91616609Y-139285714D01*
X91616609Y-139285714D02*
X91568990Y-139238095D01*
X91568990Y-139238095D02*
X91473752Y-139190476D01*
X91473752Y-139190476D02*
X91235657Y-139190476D01*
X91235657Y-139190476D02*
X91140419Y-139238095D01*
X91140419Y-139238095D02*
X91092800Y-139285714D01*
X91092800Y-139285714D02*
X91045180Y-139380952D01*
X91045180Y-139380952D02*
X91045180Y-139666666D01*
X91045180Y-139666666D02*
X91092800Y-139761904D01*
X91092800Y-139761904D02*
X91140419Y-139809523D01*
X93504619Y-142443400D02*
X93742714Y-142443400D01*
X93647476Y-142205305D02*
X93742714Y-142443400D01*
X93742714Y-142443400D02*
X93647476Y-142681495D01*
X93933190Y-142300543D02*
X93742714Y-142443400D01*
X93742714Y-142443400D02*
X93933190Y-142586257D01*
X94594980Y-142443399D02*
X94356885Y-142443399D01*
X94452123Y-142681494D02*
X94356885Y-142443399D01*
X94356885Y-142443399D02*
X94452123Y-142205304D01*
X94166409Y-142586256D02*
X94356885Y-142443399D01*
X94356885Y-142443399D02*
X94166409Y-142300542D01*
X92666666Y-135204819D02*
X92999999Y-134728628D01*
X93238094Y-135204819D02*
X93238094Y-134204819D01*
X93238094Y-134204819D02*
X92857142Y-134204819D01*
X92857142Y-134204819D02*
X92761904Y-134252438D01*
X92761904Y-134252438D02*
X92714285Y-134300057D01*
X92714285Y-134300057D02*
X92666666Y-134395295D01*
X92666666Y-134395295D02*
X92666666Y-134538152D01*
X92666666Y-134538152D02*
X92714285Y-134633390D01*
X92714285Y-134633390D02*
X92761904Y-134681009D01*
X92761904Y-134681009D02*
X92857142Y-134728628D01*
X92857142Y-134728628D02*
X93238094Y-134728628D01*
X91809523Y-134538152D02*
X91809523Y-135204819D01*
X92047618Y-134157200D02*
X92285713Y-134871485D01*
X92285713Y-134871485D02*
X91666666Y-134871485D01*
X81454819Y-143357142D02*
X80978628Y-143023809D01*
X81454819Y-142785714D02*
X80454819Y-142785714D01*
X80454819Y-142785714D02*
X80454819Y-143166666D01*
X80454819Y-143166666D02*
X80502438Y-143261904D01*
X80502438Y-143261904D02*
X80550057Y-143309523D01*
X80550057Y-143309523D02*
X80645295Y-143357142D01*
X80645295Y-143357142D02*
X80788152Y-143357142D01*
X80788152Y-143357142D02*
X80883390Y-143309523D01*
X80883390Y-143309523D02*
X80931009Y-143261904D01*
X80931009Y-143261904D02*
X80978628Y-143166666D01*
X80978628Y-143166666D02*
X80978628Y-142785714D01*
X80550057Y-143738095D02*
X80502438Y-143785714D01*
X80502438Y-143785714D02*
X80454819Y-143880952D01*
X80454819Y-143880952D02*
X80454819Y-144119047D01*
X80454819Y-144119047D02*
X80502438Y-144214285D01*
X80502438Y-144214285D02*
X80550057Y-144261904D01*
X80550057Y-144261904D02*
X80645295Y-144309523D01*
X80645295Y-144309523D02*
X80740533Y-144309523D01*
X80740533Y-144309523D02*
X80883390Y-144261904D01*
X80883390Y-144261904D02*
X81454819Y-143690476D01*
X81454819Y-143690476D02*
X81454819Y-144309523D01*
X80550057Y-144690476D02*
X80502438Y-144738095D01*
X80502438Y-144738095D02*
X80454819Y-144833333D01*
X80454819Y-144833333D02*
X80454819Y-145071428D01*
X80454819Y-145071428D02*
X80502438Y-145166666D01*
X80502438Y-145166666D02*
X80550057Y-145214285D01*
X80550057Y-145214285D02*
X80645295Y-145261904D01*
X80645295Y-145261904D02*
X80740533Y-145261904D01*
X80740533Y-145261904D02*
X80883390Y-145214285D01*
X80883390Y-145214285D02*
X81454819Y-144642857D01*
X81454819Y-144642857D02*
X81454819Y-145261904D01*
X94666666Y-129954819D02*
X94999999Y-129478628D01*
X95238094Y-129954819D02*
X95238094Y-128954819D01*
X95238094Y-128954819D02*
X94857142Y-128954819D01*
X94857142Y-128954819D02*
X94761904Y-129002438D01*
X94761904Y-129002438D02*
X94714285Y-129050057D01*
X94714285Y-129050057D02*
X94666666Y-129145295D01*
X94666666Y-129145295D02*
X94666666Y-129288152D01*
X94666666Y-129288152D02*
X94714285Y-129383390D01*
X94714285Y-129383390D02*
X94761904Y-129431009D01*
X94761904Y-129431009D02*
X94857142Y-129478628D01*
X94857142Y-129478628D02*
X95238094Y-129478628D01*
X93761904Y-128954819D02*
X94238094Y-128954819D01*
X94238094Y-128954819D02*
X94285713Y-129431009D01*
X94285713Y-129431009D02*
X94238094Y-129383390D01*
X94238094Y-129383390D02*
X94142856Y-129335771D01*
X94142856Y-129335771D02*
X93904761Y-129335771D01*
X93904761Y-129335771D02*
X93809523Y-129383390D01*
X93809523Y-129383390D02*
X93761904Y-129431009D01*
X93761904Y-129431009D02*
X93714285Y-129526247D01*
X93714285Y-129526247D02*
X93714285Y-129764342D01*
X93714285Y-129764342D02*
X93761904Y-129859580D01*
X93761904Y-129859580D02*
X93809523Y-129907200D01*
X93809523Y-129907200D02*
X93904761Y-129954819D01*
X93904761Y-129954819D02*
X94142856Y-129954819D01*
X94142856Y-129954819D02*
X94238094Y-129907200D01*
X94238094Y-129907200D02*
X94285713Y-129859580D01*
X92666666Y-131954819D02*
X92999999Y-131478628D01*
X93238094Y-131954819D02*
X93238094Y-130954819D01*
X93238094Y-130954819D02*
X92857142Y-130954819D01*
X92857142Y-130954819D02*
X92761904Y-131002438D01*
X92761904Y-131002438D02*
X92714285Y-131050057D01*
X92714285Y-131050057D02*
X92666666Y-131145295D01*
X92666666Y-131145295D02*
X92666666Y-131288152D01*
X92666666Y-131288152D02*
X92714285Y-131383390D01*
X92714285Y-131383390D02*
X92761904Y-131431009D01*
X92761904Y-131431009D02*
X92857142Y-131478628D01*
X92857142Y-131478628D02*
X93238094Y-131478628D01*
X92190475Y-131954819D02*
X91999999Y-131954819D01*
X91999999Y-131954819D02*
X91904761Y-131907200D01*
X91904761Y-131907200D02*
X91857142Y-131859580D01*
X91857142Y-131859580D02*
X91761904Y-131716723D01*
X91761904Y-131716723D02*
X91714285Y-131526247D01*
X91714285Y-131526247D02*
X91714285Y-131145295D01*
X91714285Y-131145295D02*
X91761904Y-131050057D01*
X91761904Y-131050057D02*
X91809523Y-131002438D01*
X91809523Y-131002438D02*
X91904761Y-130954819D01*
X91904761Y-130954819D02*
X92095237Y-130954819D01*
X92095237Y-130954819D02*
X92190475Y-131002438D01*
X92190475Y-131002438D02*
X92238094Y-131050057D01*
X92238094Y-131050057D02*
X92285713Y-131145295D01*
X92285713Y-131145295D02*
X92285713Y-131383390D01*
X92285713Y-131383390D02*
X92238094Y-131478628D01*
X92238094Y-131478628D02*
X92190475Y-131526247D01*
X92190475Y-131526247D02*
X92095237Y-131573866D01*
X92095237Y-131573866D02*
X91904761Y-131573866D01*
X91904761Y-131573866D02*
X91809523Y-131526247D01*
X91809523Y-131526247D02*
X91761904Y-131478628D01*
X91761904Y-131478628D02*
X91714285Y-131383390D01*
X79954819Y-143357142D02*
X79478628Y-143023809D01*
X79954819Y-142785714D02*
X78954819Y-142785714D01*
X78954819Y-142785714D02*
X78954819Y-143166666D01*
X78954819Y-143166666D02*
X79002438Y-143261904D01*
X79002438Y-143261904D02*
X79050057Y-143309523D01*
X79050057Y-143309523D02*
X79145295Y-143357142D01*
X79145295Y-143357142D02*
X79288152Y-143357142D01*
X79288152Y-143357142D02*
X79383390Y-143309523D01*
X79383390Y-143309523D02*
X79431009Y-143261904D01*
X79431009Y-143261904D02*
X79478628Y-143166666D01*
X79478628Y-143166666D02*
X79478628Y-142785714D01*
X79954819Y-144309523D02*
X79954819Y-143738095D01*
X79954819Y-144023809D02*
X78954819Y-144023809D01*
X78954819Y-144023809D02*
X79097676Y-143928571D01*
X79097676Y-143928571D02*
X79192914Y-143833333D01*
X79192914Y-143833333D02*
X79240533Y-143738095D01*
X78954819Y-145166666D02*
X78954819Y-144976190D01*
X78954819Y-144976190D02*
X79002438Y-144880952D01*
X79002438Y-144880952D02*
X79050057Y-144833333D01*
X79050057Y-144833333D02*
X79192914Y-144738095D01*
X79192914Y-144738095D02*
X79383390Y-144690476D01*
X79383390Y-144690476D02*
X79764342Y-144690476D01*
X79764342Y-144690476D02*
X79859580Y-144738095D01*
X79859580Y-144738095D02*
X79907200Y-144785714D01*
X79907200Y-144785714D02*
X79954819Y-144880952D01*
X79954819Y-144880952D02*
X79954819Y-145071428D01*
X79954819Y-145071428D02*
X79907200Y-145166666D01*
X79907200Y-145166666D02*
X79859580Y-145214285D01*
X79859580Y-145214285D02*
X79764342Y-145261904D01*
X79764342Y-145261904D02*
X79526247Y-145261904D01*
X79526247Y-145261904D02*
X79431009Y-145214285D01*
X79431009Y-145214285D02*
X79383390Y-145166666D01*
X79383390Y-145166666D02*
X79335771Y-145071428D01*
X79335771Y-145071428D02*
X79335771Y-144880952D01*
X79335771Y-144880952D02*
X79383390Y-144785714D01*
X79383390Y-144785714D02*
X79431009Y-144738095D01*
X79431009Y-144738095D02*
X79526247Y-144690476D01*
X90666666Y-129454819D02*
X90999999Y-128978628D01*
X91238094Y-129454819D02*
X91238094Y-128454819D01*
X91238094Y-128454819D02*
X90857142Y-128454819D01*
X90857142Y-128454819D02*
X90761904Y-128502438D01*
X90761904Y-128502438D02*
X90714285Y-128550057D01*
X90714285Y-128550057D02*
X90666666Y-128645295D01*
X90666666Y-128645295D02*
X90666666Y-128788152D01*
X90666666Y-128788152D02*
X90714285Y-128883390D01*
X90714285Y-128883390D02*
X90761904Y-128931009D01*
X90761904Y-128931009D02*
X90857142Y-128978628D01*
X90857142Y-128978628D02*
X91238094Y-128978628D01*
X90095237Y-128883390D02*
X90190475Y-128835771D01*
X90190475Y-128835771D02*
X90238094Y-128788152D01*
X90238094Y-128788152D02*
X90285713Y-128692914D01*
X90285713Y-128692914D02*
X90285713Y-128645295D01*
X90285713Y-128645295D02*
X90238094Y-128550057D01*
X90238094Y-128550057D02*
X90190475Y-128502438D01*
X90190475Y-128502438D02*
X90095237Y-128454819D01*
X90095237Y-128454819D02*
X89904761Y-128454819D01*
X89904761Y-128454819D02*
X89809523Y-128502438D01*
X89809523Y-128502438D02*
X89761904Y-128550057D01*
X89761904Y-128550057D02*
X89714285Y-128645295D01*
X89714285Y-128645295D02*
X89714285Y-128692914D01*
X89714285Y-128692914D02*
X89761904Y-128788152D01*
X89761904Y-128788152D02*
X89809523Y-128835771D01*
X89809523Y-128835771D02*
X89904761Y-128883390D01*
X89904761Y-128883390D02*
X90095237Y-128883390D01*
X90095237Y-128883390D02*
X90190475Y-128931009D01*
X90190475Y-128931009D02*
X90238094Y-128978628D01*
X90238094Y-128978628D02*
X90285713Y-129073866D01*
X90285713Y-129073866D02*
X90285713Y-129264342D01*
X90285713Y-129264342D02*
X90238094Y-129359580D01*
X90238094Y-129359580D02*
X90190475Y-129407200D01*
X90190475Y-129407200D02*
X90095237Y-129454819D01*
X90095237Y-129454819D02*
X89904761Y-129454819D01*
X89904761Y-129454819D02*
X89809523Y-129407200D01*
X89809523Y-129407200D02*
X89761904Y-129359580D01*
X89761904Y-129359580D02*
X89714285Y-129264342D01*
X89714285Y-129264342D02*
X89714285Y-129073866D01*
X89714285Y-129073866D02*
X89761904Y-128978628D01*
X89761904Y-128978628D02*
X89809523Y-128931009D01*
X89809523Y-128931009D02*
X89904761Y-128883390D01*
X92392857Y-144454819D02*
X92726190Y-143978628D01*
X92964285Y-144454819D02*
X92964285Y-143454819D01*
X92964285Y-143454819D02*
X92583333Y-143454819D01*
X92583333Y-143454819D02*
X92488095Y-143502438D01*
X92488095Y-143502438D02*
X92440476Y-143550057D01*
X92440476Y-143550057D02*
X92392857Y-143645295D01*
X92392857Y-143645295D02*
X92392857Y-143788152D01*
X92392857Y-143788152D02*
X92440476Y-143883390D01*
X92440476Y-143883390D02*
X92488095Y-143931009D01*
X92488095Y-143931009D02*
X92583333Y-143978628D01*
X92583333Y-143978628D02*
X92964285Y-143978628D01*
X91440476Y-144454819D02*
X92011904Y-144454819D01*
X91726190Y-144454819D02*
X91726190Y-143454819D01*
X91726190Y-143454819D02*
X91821428Y-143597676D01*
X91821428Y-143597676D02*
X91916666Y-143692914D01*
X91916666Y-143692914D02*
X92011904Y-143740533D01*
X90583333Y-143788152D02*
X90583333Y-144454819D01*
X90821428Y-143407200D02*
X91059523Y-144121485D01*
X91059523Y-144121485D02*
X90440476Y-144121485D01*
X83642857Y-143454819D02*
X83976190Y-142978628D01*
X84214285Y-143454819D02*
X84214285Y-142454819D01*
X84214285Y-142454819D02*
X83833333Y-142454819D01*
X83833333Y-142454819D02*
X83738095Y-142502438D01*
X83738095Y-142502438D02*
X83690476Y-142550057D01*
X83690476Y-142550057D02*
X83642857Y-142645295D01*
X83642857Y-142645295D02*
X83642857Y-142788152D01*
X83642857Y-142788152D02*
X83690476Y-142883390D01*
X83690476Y-142883390D02*
X83738095Y-142931009D01*
X83738095Y-142931009D02*
X83833333Y-142978628D01*
X83833333Y-142978628D02*
X84214285Y-142978628D01*
X82690476Y-143454819D02*
X83261904Y-143454819D01*
X82976190Y-143454819D02*
X82976190Y-142454819D01*
X82976190Y-142454819D02*
X83071428Y-142597676D01*
X83071428Y-142597676D02*
X83166666Y-142692914D01*
X83166666Y-142692914D02*
X83261904Y-142740533D01*
X82214285Y-143454819D02*
X82023809Y-143454819D01*
X82023809Y-143454819D02*
X81928571Y-143407200D01*
X81928571Y-143407200D02*
X81880952Y-143359580D01*
X81880952Y-143359580D02*
X81785714Y-143216723D01*
X81785714Y-143216723D02*
X81738095Y-143026247D01*
X81738095Y-143026247D02*
X81738095Y-142645295D01*
X81738095Y-142645295D02*
X81785714Y-142550057D01*
X81785714Y-142550057D02*
X81833333Y-142502438D01*
X81833333Y-142502438D02*
X81928571Y-142454819D01*
X81928571Y-142454819D02*
X82119047Y-142454819D01*
X82119047Y-142454819D02*
X82214285Y-142502438D01*
X82214285Y-142502438D02*
X82261904Y-142550057D01*
X82261904Y-142550057D02*
X82309523Y-142645295D01*
X82309523Y-142645295D02*
X82309523Y-142883390D01*
X82309523Y-142883390D02*
X82261904Y-142978628D01*
X82261904Y-142978628D02*
X82214285Y-143026247D01*
X82214285Y-143026247D02*
X82119047Y-143073866D01*
X82119047Y-143073866D02*
X81928571Y-143073866D01*
X81928571Y-143073866D02*
X81833333Y-143026247D01*
X81833333Y-143026247D02*
X81785714Y-142978628D01*
X81785714Y-142978628D02*
X81738095Y-142883390D01*
X89666666Y-134454819D02*
X89999999Y-133978628D01*
X90238094Y-134454819D02*
X90238094Y-133454819D01*
X90238094Y-133454819D02*
X89857142Y-133454819D01*
X89857142Y-133454819D02*
X89761904Y-133502438D01*
X89761904Y-133502438D02*
X89714285Y-133550057D01*
X89714285Y-133550057D02*
X89666666Y-133645295D01*
X89666666Y-133645295D02*
X89666666Y-133788152D01*
X89666666Y-133788152D02*
X89714285Y-133883390D01*
X89714285Y-133883390D02*
X89761904Y-133931009D01*
X89761904Y-133931009D02*
X89857142Y-133978628D01*
X89857142Y-133978628D02*
X90238094Y-133978628D01*
X89333332Y-133454819D02*
X88666666Y-133454819D01*
X88666666Y-133454819D02*
X89095237Y-134454819D01*
X73204819Y-130916666D02*
X73919104Y-130916666D01*
X73919104Y-130916666D02*
X74061961Y-130869047D01*
X74061961Y-130869047D02*
X74157200Y-130773809D01*
X74157200Y-130773809D02*
X74204819Y-130630952D01*
X74204819Y-130630952D02*
X74204819Y-130535714D01*
X73204819Y-131297619D02*
X73204819Y-131964285D01*
X73204819Y-131964285D02*
X74204819Y-131535714D01*
X88642857Y-143204819D02*
X88976190Y-142728628D01*
X89214285Y-143204819D02*
X89214285Y-142204819D01*
X89214285Y-142204819D02*
X88833333Y-142204819D01*
X88833333Y-142204819D02*
X88738095Y-142252438D01*
X88738095Y-142252438D02*
X88690476Y-142300057D01*
X88690476Y-142300057D02*
X88642857Y-142395295D01*
X88642857Y-142395295D02*
X88642857Y-142538152D01*
X88642857Y-142538152D02*
X88690476Y-142633390D01*
X88690476Y-142633390D02*
X88738095Y-142681009D01*
X88738095Y-142681009D02*
X88833333Y-142728628D01*
X88833333Y-142728628D02*
X89214285Y-142728628D01*
X87690476Y-143204819D02*
X88261904Y-143204819D01*
X87976190Y-143204819D02*
X87976190Y-142204819D01*
X87976190Y-142204819D02*
X88071428Y-142347676D01*
X88071428Y-142347676D02*
X88166666Y-142442914D01*
X88166666Y-142442914D02*
X88261904Y-142490533D01*
X86785714Y-142204819D02*
X87261904Y-142204819D01*
X87261904Y-142204819D02*
X87309523Y-142681009D01*
X87309523Y-142681009D02*
X87261904Y-142633390D01*
X87261904Y-142633390D02*
X87166666Y-142585771D01*
X87166666Y-142585771D02*
X86928571Y-142585771D01*
X86928571Y-142585771D02*
X86833333Y-142633390D01*
X86833333Y-142633390D02*
X86785714Y-142681009D01*
X86785714Y-142681009D02*
X86738095Y-142776247D01*
X86738095Y-142776247D02*
X86738095Y-143014342D01*
X86738095Y-143014342D02*
X86785714Y-143109580D01*
X86785714Y-143109580D02*
X86833333Y-143157200D01*
X86833333Y-143157200D02*
X86928571Y-143204819D01*
X86928571Y-143204819D02*
X87166666Y-143204819D01*
X87166666Y-143204819D02*
X87261904Y-143157200D01*
X87261904Y-143157200D02*
X87309523Y-143109580D01*
X85050057Y-140404761D02*
X85002438Y-140309523D01*
X85002438Y-140309523D02*
X84907200Y-140214285D01*
X84907200Y-140214285D02*
X84764342Y-140071428D01*
X84764342Y-140071428D02*
X84716723Y-139976190D01*
X84716723Y-139976190D02*
X84716723Y-139880952D01*
X84954819Y-139928571D02*
X84907200Y-139833333D01*
X84907200Y-139833333D02*
X84811961Y-139738095D01*
X84811961Y-139738095D02*
X84621485Y-139690476D01*
X84621485Y-139690476D02*
X84288152Y-139690476D01*
X84288152Y-139690476D02*
X84097676Y-139738095D01*
X84097676Y-139738095D02*
X84002438Y-139833333D01*
X84002438Y-139833333D02*
X83954819Y-139928571D01*
X83954819Y-139928571D02*
X83954819Y-140119047D01*
X83954819Y-140119047D02*
X84002438Y-140214285D01*
X84002438Y-140214285D02*
X84097676Y-140309523D01*
X84097676Y-140309523D02*
X84288152Y-140357142D01*
X84288152Y-140357142D02*
X84621485Y-140357142D01*
X84621485Y-140357142D02*
X84811961Y-140309523D01*
X84811961Y-140309523D02*
X84907200Y-140214285D01*
X84907200Y-140214285D02*
X84954819Y-140119047D01*
X84954819Y-140119047D02*
X84954819Y-139928571D01*
X84288152Y-141214285D02*
X84954819Y-141214285D01*
X83907200Y-140976190D02*
X84621485Y-140738095D01*
X84621485Y-140738095D02*
X84621485Y-141357142D01*
X86899901Y-131268250D02*
X86423710Y-130934917D01*
X86899901Y-130696822D02*
X85899901Y-130696822D01*
X85899901Y-130696822D02*
X85899901Y-131077774D01*
X85899901Y-131077774D02*
X85947520Y-131173012D01*
X85947520Y-131173012D02*
X85995139Y-131220631D01*
X85995139Y-131220631D02*
X86090377Y-131268250D01*
X86090377Y-131268250D02*
X86233234Y-131268250D01*
X86233234Y-131268250D02*
X86328472Y-131220631D01*
X86328472Y-131220631D02*
X86376091Y-131173012D01*
X86376091Y-131173012D02*
X86423710Y-131077774D01*
X86423710Y-131077774D02*
X86423710Y-130696822D01*
X86899901Y-132220631D02*
X86899901Y-131649203D01*
X86899901Y-131934917D02*
X85899901Y-131934917D01*
X85899901Y-131934917D02*
X86042758Y-131839679D01*
X86042758Y-131839679D02*
X86137996Y-131744441D01*
X86137996Y-131744441D02*
X86185615Y-131649203D01*
X86882395Y-135917898D02*
X86406204Y-135584565D01*
X86882395Y-135346470D02*
X85882395Y-135346470D01*
X85882395Y-135346470D02*
X85882395Y-135727422D01*
X85882395Y-135727422D02*
X85930014Y-135822660D01*
X85930014Y-135822660D02*
X85977633Y-135870279D01*
X85977633Y-135870279D02*
X86072871Y-135917898D01*
X86072871Y-135917898D02*
X86215728Y-135917898D01*
X86215728Y-135917898D02*
X86310966Y-135870279D01*
X86310966Y-135870279D02*
X86358585Y-135822660D01*
X86358585Y-135822660D02*
X86406204Y-135727422D01*
X86406204Y-135727422D02*
X86406204Y-135346470D01*
X85977633Y-136298851D02*
X85930014Y-136346470D01*
X85930014Y-136346470D02*
X85882395Y-136441708D01*
X85882395Y-136441708D02*
X85882395Y-136679803D01*
X85882395Y-136679803D02*
X85930014Y-136775041D01*
X85930014Y-136775041D02*
X85977633Y-136822660D01*
X85977633Y-136822660D02*
X86072871Y-136870279D01*
X86072871Y-136870279D02*
X86168109Y-136870279D01*
X86168109Y-136870279D02*
X86310966Y-136822660D01*
X86310966Y-136822660D02*
X86882395Y-136251232D01*
X86882395Y-136251232D02*
X86882395Y-136870279D01*
X73204819Y-139666666D02*
X73919104Y-139666666D01*
X73919104Y-139666666D02*
X74061961Y-139619047D01*
X74061961Y-139619047D02*
X74157200Y-139523809D01*
X74157200Y-139523809D02*
X74204819Y-139380952D01*
X74204819Y-139380952D02*
X74204819Y-139285714D01*
X73538152Y-140571428D02*
X74204819Y-140571428D01*
X73157200Y-140333333D02*
X73871485Y-140095238D01*
X73871485Y-140095238D02*
X73871485Y-140714285D01*
%TO.C,C19*%
D12*
X84905493Y-127259893D02*
X84905493Y-127541053D01*
X83885493Y-127259893D02*
X83885493Y-127541053D01*
%TO.C,C14*%
X87360000Y-127892164D02*
X87360000Y-128107836D01*
X86640000Y-127892164D02*
X86640000Y-128107836D01*
%TO.C,C16*%
X77360000Y-126642164D02*
X77360000Y-126857836D01*
X76640000Y-126642164D02*
X76640000Y-126857836D01*
%TO.C,U5*%
X82880342Y-125940000D02*
X82600342Y-125940000D01*
X82600342Y-125660000D01*
X82880342Y-125940000D01*
G36*
X82880342Y-125940000D02*
G01*
X82600342Y-125940000D01*
X82600342Y-125660000D01*
X82880342Y-125940000D01*
G37*
X82240342Y-125870000D02*
X80240342Y-125870000D01*
X82230342Y-128150000D02*
X80230342Y-128150000D01*
%TO.C,R23*%
X82328664Y-129315797D02*
X82021382Y-129315797D01*
X82328664Y-128555797D02*
X82021382Y-128555797D01*
%TO.C,JP2*%
X82500000Y-136739555D02*
G75*
G02*
X81800000Y-137439555I-700000J0D01*
G01*
X81800000Y-134639555D02*
G75*
G02*
X82500000Y-135339555I1J-699999D01*
G01*
X81200000Y-137439555D02*
G75*
G02*
X80500000Y-136739555I0J700000D01*
G01*
X80500000Y-135339555D02*
G75*
G02*
X81200000Y-134639555I699999J1D01*
G01*
X82500000Y-136739555D02*
X82500000Y-135339555D01*
X81800000Y-134639555D02*
X81200000Y-134639555D01*
X81200000Y-137439555D02*
X81800000Y-137439555D01*
X80500000Y-135339555D02*
X80500000Y-136739555D01*
%TO.C,JP1*%
X82500000Y-132050000D02*
G75*
G02*
X81800000Y-132750000I-700000J0D01*
G01*
X81800000Y-129950000D02*
G75*
G02*
X82500000Y-130650000I1J-699999D01*
G01*
X81200000Y-132750000D02*
G75*
G02*
X80500000Y-132050000I0J700000D01*
G01*
X80500000Y-130650000D02*
G75*
G02*
X81200000Y-129950000I699999J1D01*
G01*
X82500000Y-132050000D02*
X82500000Y-130650000D01*
X81800000Y-129950000D02*
X81200000Y-129950000D01*
X81200000Y-132750000D02*
X81800000Y-132750000D01*
X80500000Y-130650000D02*
X80500000Y-132050000D01*
%TO.C,C17*%
X80990000Y-140609420D02*
X80990000Y-140890580D01*
X82010000Y-140609420D02*
X82010000Y-140890580D01*
%TO.C,C15*%
X79140000Y-140857836D02*
X79140000Y-140642164D01*
X79860000Y-140857836D02*
X79860000Y-140642164D01*
%TO.C,C20*%
X79642164Y-141890000D02*
X79857836Y-141890000D01*
X79642164Y-142610000D02*
X79857836Y-142610000D01*
%TO.C,J2*%
X96890000Y-128390000D02*
X96890000Y-130190000D01*
X96890000Y-130190000D02*
X95900000Y-130190000D01*
X96890000Y-144360000D02*
X96890000Y-142560000D01*
X98340000Y-128390000D02*
X96890000Y-128390000D01*
X98340000Y-144360000D02*
X96890000Y-144360000D01*
X101160000Y-129660000D02*
X101160000Y-143090000D01*
%TO.C,R6*%
X89564636Y-131334577D02*
X89257354Y-131334577D01*
X89564636Y-132094577D02*
X89257354Y-132094577D01*
%TO.C,U3*%
D13*
X89823600Y-138399800D02*
X89976361Y-138399800D01*
X89823600Y-141600200D02*
X89823600Y-138399800D01*
X89976361Y-141600200D02*
X89823600Y-141600200D01*
X93023639Y-138399800D02*
X93176400Y-138399800D01*
X93176400Y-138399800D02*
X93176400Y-141600200D01*
X93176400Y-141600200D02*
X93023639Y-141600200D01*
%TO.C,R4*%
D12*
X92271573Y-133120000D02*
X92578855Y-133120000D01*
X92271573Y-133880000D02*
X92578855Y-133880000D01*
%TO.C,R22*%
X82346359Y-143870000D02*
X82653641Y-143870000D01*
X82346359Y-144630000D02*
X82653641Y-144630000D01*
%TO.C,R5*%
X92540512Y-129883017D02*
X92540512Y-129575735D01*
X93300512Y-129883017D02*
X93300512Y-129575735D01*
%TO.C,R9*%
X92271573Y-132120000D02*
X92578855Y-132120000D01*
X92271573Y-132880000D02*
X92578855Y-132880000D01*
%TO.C,R16*%
X78153641Y-143870000D02*
X77846359Y-143870000D01*
X78153641Y-144630000D02*
X77846359Y-144630000D01*
%TO.C,R8*%
X91525470Y-129884058D02*
X91525470Y-129576776D01*
X92285470Y-129884058D02*
X92285470Y-129576776D01*
%TO.C,R14*%
X94262742Y-143477500D02*
X94737258Y-143477500D01*
X94262742Y-144522500D02*
X94737258Y-144522500D01*
%TO.C,R19*%
X84370000Y-143596359D02*
X84370000Y-143903641D01*
X85130000Y-143596359D02*
X85130000Y-143903641D01*
%TO.C,R7*%
X89564636Y-132334577D02*
X89257354Y-132334577D01*
X89564636Y-133094577D02*
X89257354Y-133094577D01*
%TO.C,J7*%
X72392914Y-133024049D02*
X72392914Y-129594049D01*
X75212914Y-128324049D02*
X76662914Y-128324049D01*
X75212914Y-134294049D02*
X76662914Y-134294049D01*
X76662914Y-128324049D02*
X76662914Y-130124049D01*
X76662914Y-132494049D02*
X77652914Y-132494049D01*
X76662914Y-134294049D02*
X76662914Y-132494049D01*
%TO.C,R15*%
X87846359Y-143620000D02*
X88153641Y-143620000D01*
X87846359Y-144380000D02*
X88153641Y-144380000D01*
%TO.C,Q4*%
X83765000Y-140335000D02*
X83765000Y-140665000D01*
X83765000Y-141635000D02*
X85235000Y-141635000D01*
X85235000Y-139365000D02*
X83765000Y-139365000D01*
X85235000Y-140015000D02*
X85235000Y-139365000D01*
X85235000Y-141635000D02*
X85235000Y-140985000D01*
X83320000Y-140660000D02*
X83180000Y-140470000D01*
X83460000Y-140470000D01*
X83320000Y-140660000D01*
G36*
X83320000Y-140660000D02*
G01*
X83180000Y-140470000D01*
X83460000Y-140470000D01*
X83320000Y-140660000D01*
G37*
%TO.C,R1*%
X84492582Y-131672175D02*
X84492582Y-131197659D01*
X85537582Y-131672175D02*
X85537582Y-131197659D01*
%TO.C,R2*%
X84475076Y-136321823D02*
X84475076Y-135847307D01*
X85520076Y-136321823D02*
X85520076Y-135847307D01*
%TO.C,J4*%
X72366329Y-143105082D02*
X72366329Y-137175082D01*
X75186329Y-135905082D02*
X76636329Y-135905082D01*
X75186329Y-144375082D02*
X76636329Y-144375082D01*
X76636329Y-135905082D02*
X76636329Y-137705082D01*
X76636329Y-142575082D02*
X77626329Y-142575082D01*
X76636329Y-144375082D02*
X76636329Y-142575082D01*
%TD*%
%LPC*%
%TO.C,JP2*%
G36*
X80750000Y-135889555D02*
G01*
X82250000Y-135889555D01*
X82250000Y-136189555D01*
X80750000Y-136189555D01*
X80750000Y-135889555D01*
G37*
%TO.C,JP1*%
G36*
X80750000Y-131200000D02*
G01*
X82250000Y-131200000D01*
X82250000Y-131500000D01*
X80750000Y-131500000D01*
X80750000Y-131200000D01*
G37*
%TD*%
D14*
%TO.C,C19*%
X84395493Y-128175473D03*
X84395493Y-126625473D03*
%TD*%
D15*
%TO.C,C14*%
X87000000Y-128480000D03*
X87000000Y-127520000D03*
%TD*%
%TO.C,C16*%
X77000000Y-127230000D03*
X77000000Y-126270000D03*
%TD*%
D16*
%TO.C,U5*%
X81230342Y-127010000D03*
D17*
X80280342Y-126260000D03*
X80280342Y-126760000D03*
X80280342Y-127260000D03*
X80280342Y-127760000D03*
X82180342Y-127760000D03*
X82180342Y-127260000D03*
X82180342Y-126760000D03*
X82180342Y-126260000D03*
%TD*%
D18*
%TO.C,R23*%
X81665023Y-128935797D03*
X82685023Y-128935797D03*
%TD*%
D19*
%TO.C,JP2*%
X81500000Y-136689555D03*
D20*
X81500000Y-135389555D03*
%TD*%
D19*
%TO.C,JP1*%
X81500000Y-132000000D03*
D20*
X81500000Y-130700000D03*
%TD*%
D14*
%TO.C,C17*%
X81500000Y-139975000D03*
X81500000Y-141525000D03*
%TD*%
D21*
%TO.C,C15*%
X79500000Y-141230000D03*
X79500000Y-140270000D03*
%TD*%
D22*
%TO.C,C20*%
X79270000Y-142250000D03*
X80230000Y-142250000D03*
%TD*%
D23*
%TO.C,J5*%
X86115000Y-143770000D03*
X85099000Y-138690000D03*
X87131000Y-138690000D03*
%TD*%
D24*
%TO.C,J2*%
X96750000Y-130750000D03*
X96750000Y-132000000D03*
X96750000Y-133250000D03*
X96750000Y-134500000D03*
X96750000Y-135750000D03*
X96750000Y-137000000D03*
X96750000Y-138250000D03*
X96750000Y-139500000D03*
X96750000Y-140750000D03*
X96750000Y-142000000D03*
D25*
X99950000Y-128900000D03*
X99950000Y-143850000D03*
%TD*%
D18*
%TO.C,R6*%
X89920995Y-131714577D03*
X88900995Y-131714577D03*
%TD*%
D26*
%TO.C,U3*%
X92474999Y-142189401D03*
X91825001Y-142189401D03*
X91174999Y-142189401D03*
X90525001Y-142189401D03*
X90525001Y-137810599D03*
X91174999Y-137810599D03*
X91825001Y-137810599D03*
X92474999Y-137810599D03*
%TD*%
D27*
%TO.C,R4*%
X91915214Y-133500000D03*
X92935214Y-133500000D03*
%TD*%
%TO.C,R22*%
X81990000Y-144250000D03*
X83010000Y-144250000D03*
%TD*%
D28*
%TO.C,R5*%
X92920512Y-130239376D03*
X92920512Y-129219376D03*
%TD*%
D27*
%TO.C,R9*%
X91915214Y-132500000D03*
X92935214Y-132500000D03*
%TD*%
D18*
%TO.C,R16*%
X78510000Y-144250000D03*
X77490000Y-144250000D03*
%TD*%
D28*
%TO.C,R8*%
X91905470Y-130240417D03*
X91905470Y-129220417D03*
%TD*%
D29*
%TO.C,R14*%
X93675000Y-144000000D03*
X95325000Y-144000000D03*
%TD*%
D30*
%TO.C,R19*%
X84750000Y-143240000D03*
X84750000Y-144260000D03*
%TD*%
D18*
%TO.C,R7*%
X89920995Y-132714577D03*
X88900995Y-132714577D03*
%TD*%
D31*
%TO.C,J7*%
X76802914Y-131934049D03*
X76802914Y-130684049D03*
D32*
X73602914Y-133784049D03*
X73602914Y-128834049D03*
%TD*%
D27*
%TO.C,R15*%
X87490000Y-144000000D03*
X88510000Y-144000000D03*
%TD*%
D33*
%TO.C,Q4*%
X83612500Y-141150000D03*
X83612500Y-139850000D03*
X85387500Y-140500000D03*
%TD*%
D34*
%TO.C,R1*%
X85015082Y-132259917D03*
X85015082Y-130609917D03*
%TD*%
%TO.C,R2*%
X84997576Y-136909565D03*
X84997576Y-135259565D03*
%TD*%
D31*
%TO.C,J4*%
X76776329Y-142015082D03*
X76776329Y-140765082D03*
X76776329Y-139515082D03*
X76776329Y-138265082D03*
D32*
X73576329Y-143865082D03*
X73576329Y-136415082D03*
%TD*%
%LPD*%
M02*
