M48
; DRILL file KiCad 10.0.1 date 2026-08-10T20:24:20
; FORMAT={-:-/ absolute / metric / decimal}
; #@! TF.CreationDate,2026-08-10T20:24:20+01:00
; #@! TF.GenerationSoftware,Kicad,Pcbnew,10.0.1
; #@! TF.FileFunction,Plated,1,4,PTH
FMAT,2
METRIC
; #@! TA.AperFunction,Plated,PTH,ViaDrill
T1C0.300
; #@! TA.AperFunction,Plated,PTH,ViaDrill
T2C0.400
%
G90
G05
T1
X75.1Y-132.0
X75.476Y-139.5
X75.476Y-142.0
X75.478Y-135.59
X75.5Y-137.0
X76.3Y-128.25
X77.0Y-142.75
X77.845Y-140.14
X78.0Y-134.0
X78.103Y-131.518
X78.264Y-143.236
X78.5Y-141.0
X78.586Y-136.808
X78.653Y-132.7
X78.677Y-140.27
X79.48Y-143.085
X79.487Y-137.995
X79.706Y-128.905
X79.8Y-130.5
X79.8Y-132.2
X80.389Y-141.235
X80.425Y-139.997
X80.497Y-133.839
X80.499Y-143.8
X80.644Y-138.05
X81.25Y-143.8
X82.315Y-138.042
X82.425Y-141.5
X82.505Y-139.95
X83.5Y-129.0
X83.75Y-144.35
X84.666Y-142.276
X87.224Y-130.465
X87.376Y-140.75
X87.75Y-142.425
X87.887Y-131.791
X88.35Y-131.039
X88.49Y-140.25
X90.399Y-134.38
X90.433Y-130.933
X91.038Y-131.908
X92.25Y-144.0
X93.096Y-134.281
X93.75Y-129.035
X95.25Y-139.0
X95.45Y-140.743
X95.45Y-141.993
X98.25Y-137.25
X98.25Y-142.0
T2
X75.0Y-138.25
X75.0Y-140.75
X80.93Y-128.41
X83.0Y-136.015
X83.25Y-131.325
X83.33Y-132.272
X83.371Y-126.885
X83.371Y-127.85
X83.658Y-136.7
X85.625Y-133.575
X87.0Y-126.25
X87.911Y-133.465
X90.25Y-144.0
X90.5Y-136.25
X90.921Y-132.75
X90.921Y-133.71
X91.033Y-128.278
X91.25Y-144.0
X91.5Y-139.5
X93.5Y-142.25
X93.75Y-138.0
X93.992Y-130.411
X93.996Y-131.891
X94.5Y-140.0
X98.25Y-138.25
M30
