%TF.GenerationSoftware,KiCad,Pcbnew,10.0.1*%
%TF.CreationDate,2026-08-13T13:53:40+01:00*%
%TF.ProjectId,floating_hub,666c6f61-7469-46e6-975f-6875622e6b69,rev?*%
%TF.SameCoordinates,Original*%
%TF.FileFunction,Soldermask,Top*%
%TF.FilePolarity,Negative*%
%FSLAX46Y46*%
G04 Gerber Fmt 4.6, Leading zero omitted, Abs format (unit mm)*
G04 Created by KiCad (PCBNEW 10.0.1) date 2026-08-13 13:53:40*
%MOMM*%
%LPD*%
G01*
G04 APERTURE LIST*
G04 Aperture macros list*
%AMRoundRect*
0 Rectangle with rounded corners*
0 $1 Rounding radius*
0 $2 $3 $4 $5 $6 $7 $8 $9 X,Y pos of 4 corners*
0 Add a 4 corners polygon primitive as box body*
4,1,4,$2,$3,$4,$5,$6,$7,$8,$9,$2,$3,0*
0 Add four circle primitives for the rounded corners*
1,1,$1+$1,$2,$3*
1,1,$1+$1,$4,$5*
1,1,$1+$1,$6,$7*
1,1,$1+$1,$8,$9*
0 Add four rect primitives between the rounded corners*
20,1,$1+$1,$2,$3,$4,$5,0*
20,1,$1+$1,$4,$5,$6,$7,0*
20,1,$1+$1,$6,$7,$8,$9,0*
20,1,$1+$1,$8,$9,$2,$3,0*%
G04 Aperture macros list end*
%ADD10RoundRect,0.147500X0.147500X0.172500X-0.147500X0.172500X-0.147500X-0.172500X0.147500X-0.172500X0*%
%ADD11RoundRect,0.225000X-0.225000X-0.250000X0.225000X-0.250000X0.225000X0.250000X-0.225000X0.250000X0*%
%ADD12R,0.508000X0.508000*%
%ADD13RoundRect,0.140000X-0.140000X-0.170000X0.140000X-0.170000X0.140000X0.170000X-0.140000X0.170000X0*%
%ADD14RoundRect,0.250000X-0.250000X-1.500000X0.250000X-1.500000X0.250000X1.500000X-0.250000X1.500000X0*%
%ADD15RoundRect,0.250001X-0.499999X-1.449999X0.499999X-1.449999X0.499999X1.449999X-0.499999X1.449999X0*%
%ADD16C,0.787400*%
%ADD17RoundRect,0.150000X-0.150000X-0.425000X0.150000X-0.425000X0.150000X0.425000X-0.150000X0.425000X0*%
%ADD18RoundRect,0.075000X-0.075000X-0.500000X0.075000X-0.500000X0.075000X0.500000X-0.075000X0.500000X0*%
%ADD19RoundRect,0.250000X-0.840000X-0.750000X0.840000X-0.750000X0.840000X0.750000X-0.840000X0.750000X0*%
G04 APERTURE END LIST*
D10*
%TO.C,D2*%
X63599153Y-50730469D03*
X62629153Y-50730469D03*
%TD*%
%TO.C,D3*%
X65584573Y-50740471D03*
X64614573Y-50740471D03*
%TD*%
D11*
%TO.C,C2*%
X63803110Y-53648085D03*
X65353110Y-53648085D03*
%TD*%
%TO.C,C6*%
X63803110Y-52095257D03*
X65353110Y-52095257D03*
%TD*%
D12*
%TO.C,U1*%
X48277323Y-59722234D03*
X48827323Y-58822234D03*
X49377323Y-59722234D03*
X49927323Y-58822234D03*
X50477323Y-59722234D03*
X51027323Y-58822234D03*
X51577323Y-59722234D03*
X52127323Y-58822234D03*
X52677323Y-59722234D03*
X53227323Y-58822234D03*
X53777323Y-59722234D03*
X54327323Y-58822234D03*
X54877323Y-59722234D03*
X55427323Y-58822234D03*
X55977323Y-59722234D03*
X57077323Y-59722234D03*
X57077323Y-58622234D03*
X56177323Y-58072234D03*
X57077323Y-57522234D03*
X56177323Y-56972234D03*
X57077323Y-56422234D03*
X56177323Y-55872234D03*
X56177323Y-53672234D03*
X57077323Y-53122234D03*
X56177323Y-52572234D03*
X57077323Y-52022234D03*
X57077323Y-50922234D03*
X55977323Y-50921134D03*
X55427323Y-51821134D03*
X54877323Y-50921134D03*
X54327323Y-51821134D03*
X53777323Y-50921134D03*
X53227323Y-51821134D03*
X52677323Y-50921134D03*
X52127323Y-51821134D03*
X51577323Y-50921134D03*
X51027323Y-51821134D03*
X50477323Y-50921134D03*
X49927323Y-51821134D03*
X49377323Y-50921134D03*
X48827323Y-51821134D03*
X48277323Y-50921134D03*
X48277323Y-53671684D03*
X48277323Y-56971684D03*
X49377323Y-57922234D03*
X50477323Y-57922234D03*
X51577323Y-57922234D03*
X52677323Y-57922234D03*
X53777323Y-57922234D03*
X55277323Y-56422234D03*
X55277323Y-55321684D03*
X55277323Y-54222234D03*
X53777323Y-52721134D03*
X52677323Y-52721134D03*
X51577323Y-52721134D03*
X50477323Y-52721134D03*
X49377323Y-52721134D03*
X57977323Y-59172234D03*
X57977323Y-58072234D03*
X57977323Y-56972234D03*
X57977323Y-55872234D03*
X57977323Y-54772234D03*
X57977323Y-53672234D03*
X57977323Y-52572234D03*
X57977323Y-51472234D03*
%TD*%
D13*
%TO.C,C7*%
X60039979Y-54885555D03*
X60999979Y-54885555D03*
%TD*%
D11*
%TO.C,C4*%
X59667313Y-52102189D03*
X61217313Y-52102189D03*
%TD*%
D14*
%TO.C,P1*%
X60500000Y-61750000D03*
X62500000Y-61750000D03*
D15*
X58150000Y-67500000D03*
X64850000Y-67500000D03*
%TD*%
D16*
%TO.C,J2*%
X63750000Y-56730000D03*
X63750000Y-58000000D03*
X62480000Y-56730000D03*
X62480000Y-58000000D03*
X61210000Y-56730000D03*
X61210000Y-58000000D03*
%TD*%
D17*
%TO.C,J3*%
X46800000Y-61995000D03*
X47600000Y-61995000D03*
D18*
X48750000Y-61995000D03*
X49750000Y-61995000D03*
X50250000Y-61995000D03*
X51250000Y-61995000D03*
D17*
X52400000Y-61995000D03*
X53200000Y-61995000D03*
X53200000Y-61995000D03*
X52400000Y-61995000D03*
D18*
X51750000Y-61995000D03*
X50750000Y-61995000D03*
X49250000Y-61995000D03*
X48250000Y-61995000D03*
D17*
X47600000Y-61995000D03*
X46800000Y-61995000D03*
D19*
X44890000Y-62570000D03*
X44890000Y-66500000D03*
X55110000Y-62570000D03*
X55110000Y-66500000D03*
%TD*%
D11*
%TO.C,C3*%
X59663979Y-53642514D03*
X61213979Y-53642514D03*
%TD*%
D10*
%TO.C,D1*%
X61637386Y-50729636D03*
X60667386Y-50729636D03*
%TD*%
M02*
