%TF.GenerationSoftware,KiCad,Pcbnew,10.0.1*%
%TF.CreationDate,2026-08-13T13:53:40+01:00*%
%TF.ProjectId,floating_hub,666c6f61-7469-46e6-975f-6875622e6b69,rev?*%
%TF.SameCoordinates,Original*%
%TF.FileFunction,Copper,L2,Inr*%
%TF.FilePolarity,Positive*%
%FSLAX46Y46*%
G04 Gerber Fmt 4.6, Leading zero omitted, Abs format (unit mm)*
G04 Created by KiCad (PCBNEW 10.0.1) date 2026-08-13 13:53:40*
%MOMM*%
%LPD*%
G01*
G04 APERTURE LIST*
%TA.AperFunction,ViaPad*%
%ADD10C,0.250000*%
%TD*%
%TA.AperFunction,ViaPad*%
%ADD11C,0.300000*%
%TD*%
%TA.AperFunction,ViaPad*%
%ADD12C,0.450000*%
%TD*%
%TA.AperFunction,ViaPad*%
%ADD13C,0.600000*%
%TD*%
%TA.AperFunction,Conductor*%
%ADD14C,0.300000*%
%TD*%
%TA.AperFunction,Conductor*%
%ADD15C,0.150000*%
%TD*%
%TA.AperFunction,Conductor*%
%ADD16C,0.500000*%
%TD*%
%TA.AperFunction,Conductor*%
%ADD17C,0.200000*%
%TD*%
G04 APERTURE END LIST*
D10*
%TO.N,Net-(D2-K)*%
X63119982Y-51635555D03*
%TO.N,+3V3*%
X62157566Y-50113194D03*
D11*
X62782843Y-65782843D03*
D10*
X61519979Y-52895443D03*
D11*
X56750000Y-54500000D03*
X63549671Y-56580000D03*
D12*
X61577617Y-54984597D03*
D11*
X58125000Y-64650000D03*
X60019979Y-51060555D03*
X63750000Y-58750000D03*
X57250000Y-59169797D03*
D10*
%TO.N,Net-(D3-K)*%
X63519979Y-51385555D03*
%TO.N,/LiPo+*%
X63853582Y-52885555D03*
%TO.N,GND*%
X61085000Y-56882804D03*
X47500000Y-67250000D03*
X47503670Y-64506744D03*
D13*
X54400349Y-64223192D03*
D10*
X45513589Y-63355171D03*
D12*
X62269979Y-51718495D03*
D10*
X46830577Y-61850191D03*
D13*
X56500000Y-64250000D03*
D11*
X63185204Y-54165037D03*
D13*
X61005299Y-59750000D03*
D10*
X48250000Y-50250000D03*
D11*
X55772354Y-54185481D03*
D13*
X51842653Y-64199300D03*
X65484769Y-51738722D03*
D11*
X60513979Y-53717155D03*
X65500000Y-60000000D03*
X54750000Y-57750000D03*
X48750000Y-58000000D03*
X53750000Y-61500000D03*
D10*
X45342826Y-64920236D03*
D11*
X50500000Y-61000000D03*
X56515166Y-51515166D03*
X59269979Y-54385555D03*
D10*
X50477323Y-59722234D03*
%TO.N,/VBUS_OUT*%
X64480892Y-54514834D03*
X57523646Y-54296730D03*
X60500000Y-57750000D03*
X62688979Y-52885555D03*
D11*
%TO.N,/IMU_INT1*%
X52682042Y-59259099D03*
X51571064Y-59154021D03*
D10*
%TO.N,/PMIC_INT*%
X54250000Y-59750000D03*
X56250000Y-54750000D03*
%TO.N,/HOST_SDA*%
X43200000Y-64497969D03*
X56000000Y-51500000D03*
X52750000Y-54750000D03*
X61888979Y-53885555D03*
%TO.N,/HOST_SCL*%
X55372488Y-52622488D03*
X43599999Y-64514314D03*
X52275000Y-55775000D03*
%TO.N,/RS485_DIR*%
X54250000Y-56500000D03*
D11*
X54690156Y-55505842D03*
%TO.N,/SYNC_DIR*%
X54250000Y-55250000D03*
%TO.N,/RS485_RX*%
X53772376Y-51494409D03*
%TO.N,/RS485_TX*%
X52676282Y-51464100D03*
D10*
%TO.N,Net-(J2-~{RESET})*%
X60500000Y-55500000D03*
X51500000Y-49825000D03*
%TO.N,Net-(J2-SWCLK)*%
X49500000Y-50250000D03*
X61000000Y-55899988D03*
%TO.N,Net-(J2-SWDIO)*%
X62000000Y-58750000D03*
X48824731Y-50574731D03*
D11*
%TO.N,/SYNC_TX*%
X55217157Y-57282843D03*
D10*
%TO.N,/USB_D-*%
X56750000Y-52572237D03*
X49948321Y-59750000D03*
%TO.N,/USB_D+*%
X57720721Y-51245555D03*
X51006325Y-59721525D03*
%TO.N,/VLOAD*%
X63107979Y-52885555D03*
D13*
X55625000Y-64650000D03*
X59180102Y-55073496D03*
D12*
X60769979Y-52885555D03*
D13*
X53125000Y-64650000D03*
X58250000Y-62250000D03*
%TO.N,Net-(C1-Pad1)*%
X61500000Y-62250000D03*
X52010086Y-63350000D03*
D10*
%TO.N,/USB_CC1*%
X49400000Y-60251236D03*
X61884578Y-53326065D03*
%TO.N,/USB_CC2*%
X62686756Y-52450000D03*
%TO.N,Net-(D1-K)*%
X62769979Y-51635555D03*
D11*
%TO.N,Net-(U4-A)*%
X54349157Y-61270001D03*
X57500000Y-62500000D03*
%TO.N,Net-(U3-A)*%
X63750000Y-63500000D03*
X61500000Y-61000000D03*
D10*
%TO.N,Net-(U6-CAP)*%
X48250000Y-68775000D03*
X45500000Y-68750000D03*
%TO.N,Net-(U2-NTC)*%
X62751615Y-53297627D03*
X64642034Y-51726011D03*
%TD*%
%TO.N,+3V3*%
D14*
X63750000Y-56780329D02*
X63549671Y-56580000D01*
D15*
X61019979Y-51250781D02*
X62157566Y-50113194D01*
D14*
X60019979Y-51395443D02*
X61519979Y-52895443D01*
X63750000Y-58750000D02*
X63750000Y-56780329D01*
D15*
X61519979Y-52895443D02*
X61019979Y-52395443D01*
D14*
X61269979Y-54156607D02*
X61269979Y-53145443D01*
X57000000Y-59000000D02*
X57080203Y-59000000D01*
X56750000Y-54500000D02*
X56750000Y-58750000D01*
X61545478Y-54432106D02*
X61269979Y-54156607D01*
X61577617Y-54984597D02*
X61545478Y-54952458D01*
X60019979Y-51060555D02*
X60019979Y-51395443D01*
X61545478Y-54952458D02*
X61545478Y-54432106D01*
X56750000Y-58750000D02*
X57000000Y-59000000D01*
X57080203Y-59000000D02*
X57250000Y-59169797D01*
D15*
X61019979Y-52395443D02*
X61019979Y-51250781D01*
D14*
X61269979Y-53145443D02*
X61519979Y-52895443D01*
%TO.N,/VBUS_OUT*%
D15*
X59210700Y-57710700D02*
X60460700Y-57710700D01*
X57750000Y-56250000D02*
X59210700Y-57710700D01*
X57523646Y-54581380D02*
X57750000Y-54807734D01*
X57523646Y-54296730D02*
X57523646Y-54581380D01*
X60460700Y-57710700D02*
X60500000Y-57750000D01*
X57750000Y-54807734D02*
X57750000Y-56250000D01*
%TO.N,/IMU_INT1*%
X51576721Y-59154021D02*
X51571064Y-59154021D01*
X52681528Y-59258585D02*
X51681285Y-59258585D01*
X51681285Y-59258585D02*
X51576721Y-59154021D01*
X52682042Y-59259099D02*
X52681528Y-59258585D01*
%TO.N,/PMIC_INT*%
X56250000Y-57750000D02*
X54250000Y-59750000D01*
X56250000Y-54750000D02*
X56250000Y-57750000D01*
%TO.N,/HOST_SDA*%
X56500000Y-50675000D02*
X56500000Y-51000000D01*
X43200000Y-63800000D02*
X46000000Y-61000000D01*
X61888979Y-53885555D02*
X61977617Y-53974193D01*
X62144975Y-59100000D02*
X59711053Y-59100000D01*
X58425000Y-50675000D02*
X56500000Y-50675000D01*
X61977617Y-55227617D02*
X62350000Y-55600000D01*
X57173646Y-56562593D02*
X57173646Y-53738782D01*
X62350000Y-58894975D02*
X62144975Y-59100000D01*
X43200000Y-64497969D02*
X43200000Y-63800000D01*
X58500000Y-50750000D02*
X58425000Y-50675000D01*
X62350000Y-55600000D02*
X62350000Y-58894975D01*
X57173646Y-53738782D02*
X58500000Y-52412428D01*
X59711053Y-59100000D02*
X57173646Y-56562593D01*
X46000000Y-61000000D02*
X48750000Y-61000000D01*
X52750000Y-54750000D02*
X56000000Y-51500000D01*
X48750000Y-61000000D02*
X48750000Y-58750000D01*
X48750000Y-58750000D02*
X52750000Y-54750000D01*
X56500000Y-51000000D02*
X56000000Y-51500000D01*
X61977617Y-53974193D02*
X61977617Y-55227617D01*
X58500000Y-52412428D02*
X58500000Y-50750000D01*
%TO.N,/HOST_SCL*%
X46200000Y-61300000D02*
X48874264Y-61300000D01*
X55372488Y-52677512D02*
X55372488Y-52622488D01*
X49050000Y-61124264D02*
X49050000Y-59000000D01*
X52275000Y-55775000D02*
X55372488Y-52677512D01*
X43599999Y-64514314D02*
X43599999Y-63900001D01*
X49050000Y-59000000D02*
X52275000Y-55775000D01*
X43599999Y-63900001D02*
X46200000Y-61300000D01*
X48874264Y-61300000D02*
X49050000Y-61124264D01*
%TO.N,Net-(J2-~{RESET})*%
X59500000Y-49775000D02*
X59500000Y-53000000D01*
X58962639Y-55598497D02*
X60401503Y-55598497D01*
X58655102Y-54197174D02*
X58655102Y-55290960D01*
X51925000Y-49825000D02*
X51975000Y-49775000D01*
X51500000Y-49825000D02*
X51925000Y-49825000D01*
X58655102Y-55290960D02*
X58962639Y-55598497D01*
X60401503Y-55598497D02*
X60500000Y-55500000D01*
X59676138Y-53176138D02*
X58655102Y-54197174D01*
X51975000Y-49775000D02*
X59500000Y-49775000D01*
X59500000Y-53000000D02*
X59676138Y-53176138D01*
%TO.N,Net-(J2-SWCLK)*%
X58355102Y-53844898D02*
X59200000Y-53000000D01*
X59200000Y-50075000D02*
X52250000Y-50075000D01*
X60217647Y-57019300D02*
X59662353Y-57019300D01*
X59662353Y-57019300D02*
X58355102Y-55712049D01*
X61000000Y-55899988D02*
X61000000Y-56236947D01*
X52250000Y-50075000D02*
X52075000Y-50250000D01*
X59200000Y-53000000D02*
X59200000Y-50075000D01*
X61000000Y-56236947D02*
X60217647Y-57019300D01*
X58355102Y-55712049D02*
X58355102Y-53844898D01*
X52075000Y-50250000D02*
X49500000Y-50250000D01*
%TO.N,Net-(J2-SWDIO)*%
X58900000Y-52750000D02*
X58055102Y-53594898D01*
X58900000Y-50375000D02*
X58900000Y-52750000D01*
X60500000Y-57250000D02*
X62000000Y-58750000D01*
X60341911Y-57319300D02*
X60411211Y-57250000D01*
X53000000Y-50375000D02*
X58900000Y-50375000D01*
X59538089Y-57319300D02*
X60341911Y-57319300D01*
X58055102Y-53594898D02*
X58055102Y-55836313D01*
X58055102Y-55836313D02*
X59538089Y-57319300D01*
X52775000Y-50600000D02*
X53000000Y-50375000D01*
X48850000Y-50600000D02*
X52775000Y-50600000D01*
X60411211Y-57250000D02*
X60500000Y-57250000D01*
X48824731Y-50574731D02*
X48850000Y-50600000D01*
%TO.N,/USB_D-*%
X49798584Y-59171085D02*
X56397432Y-52572237D01*
X49948321Y-59750000D02*
X49798584Y-59600263D01*
X56397432Y-52572237D02*
X56750000Y-52572237D01*
X49798584Y-59600263D02*
X49798584Y-59171085D01*
%TO.N,/USB_D+*%
X58000000Y-51524834D02*
X57720721Y-51245555D01*
X55065156Y-55423008D02*
X58000000Y-52488164D01*
X58000000Y-52488164D02*
X58000000Y-51524834D01*
X54845487Y-55880842D02*
X55065156Y-55661173D01*
X50997158Y-58502842D02*
X53619158Y-55880842D01*
X50997158Y-59712358D02*
X50997158Y-58502842D01*
X53619158Y-55880842D02*
X54845487Y-55880842D01*
X51006325Y-59721525D02*
X50997158Y-59712358D01*
X55065156Y-55661173D02*
X55065156Y-55423008D01*
%TO.N,/VLOAD*%
D16*
X59186191Y-55079586D02*
X60013979Y-55079586D01*
X55025000Y-65250000D02*
X53725000Y-65250000D01*
X59180102Y-55073496D02*
X59186191Y-55079586D01*
X56225000Y-65250000D02*
X55625000Y-64650000D01*
X60013979Y-53510048D02*
X60638472Y-52885555D01*
X53725000Y-65250000D02*
X53125000Y-64650000D01*
X60638472Y-52885555D02*
X60769979Y-52885555D01*
X55625000Y-64650000D02*
X55025000Y-65250000D01*
X58250000Y-62250000D02*
X58250000Y-63500000D01*
X56500000Y-65250000D02*
X56225000Y-65250000D01*
X58250000Y-63500000D02*
X56500000Y-65250000D01*
X60013979Y-55079586D02*
X60013979Y-53510048D01*
%TO.N,Net-(C1-Pad1)*%
D14*
X52010086Y-63350000D02*
X52525000Y-63864914D01*
X53971657Y-66345186D02*
X57404814Y-66345186D01*
X57404814Y-66345186D02*
X61500000Y-62250000D01*
X52525000Y-64898529D02*
X53971657Y-66345186D01*
X52525000Y-63864914D02*
X52525000Y-64898529D01*
%TO.N,/USB_CC1*%
D15*
X49466608Y-60595898D02*
X62904102Y-60595898D01*
X49400000Y-60529290D02*
X49466608Y-60595898D01*
X64468527Y-56968527D02*
X62227617Y-54727617D01*
X64500000Y-59000000D02*
X64349700Y-58849700D01*
X62227617Y-53718193D02*
X61884578Y-53375154D01*
X64349700Y-58849700D02*
X64349700Y-57087353D01*
X61884578Y-53375154D02*
X61884578Y-53326065D01*
X62227617Y-54727617D02*
X62227617Y-53718193D01*
X64349700Y-57087353D02*
X64468527Y-56968527D01*
X49400000Y-60251236D02*
X49400000Y-60529290D01*
X62904102Y-60595898D02*
X64500000Y-59000000D01*
%TO.N,Net-(U4-A)*%
D17*
X56750000Y-62500000D02*
X55520001Y-61270001D01*
X57500000Y-62500000D02*
X56750000Y-62500000D01*
X55520001Y-61270001D02*
X54349157Y-61270001D01*
%TO.N,Net-(U3-A)*%
X61500000Y-61250000D02*
X63750000Y-63500000D01*
X61500000Y-61000000D02*
X61500000Y-61250000D01*
%TO.N,Net-(U2-NTC)*%
D15*
X63750000Y-51750000D02*
X63500000Y-51750000D01*
X64642034Y-51726011D02*
X64618045Y-51750000D01*
X63000000Y-52000000D02*
X63000000Y-52250000D01*
X63407979Y-53009820D02*
X63120172Y-53297627D01*
X63120172Y-53297627D02*
X62751615Y-53297627D01*
X63250000Y-52000000D02*
X63000000Y-52000000D01*
X64000000Y-51500000D02*
X63750000Y-51750000D01*
X64618045Y-51750000D02*
X64250000Y-51750000D01*
X63407979Y-52657979D02*
X63407979Y-53009820D01*
X63000000Y-52250000D02*
X63407979Y-52657979D01*
X63500000Y-51750000D02*
X63250000Y-52000000D01*
X64250000Y-51750000D02*
X64000000Y-51500000D01*
%TD*%
M02*
