%TF.GenerationSoftware,KiCad,Pcbnew,10.0.1*%
%TF.CreationDate,2026-08-13T13:53:40+01:00*%
%TF.ProjectId,floating_hub,666c6f61-7469-46e6-975f-6875622e6b69,rev?*%
%TF.SameCoordinates,Original*%
%TF.FileFunction,Copper,L3,Inr*%
%TF.FilePolarity,Positive*%
%FSLAX46Y46*%
G04 Gerber Fmt 4.6, Leading zero omitted, Abs format (unit mm)*
G04 Created by KiCad (PCBNEW 10.0.1) date 2026-08-13 13:53:40*
%MOMM*%
%LPD*%
G01*
G04 APERTURE LIST*
%TA.AperFunction,ViaPad*%
%ADD10C,0.250000*%
%TD*%
%TA.AperFunction,ViaPad*%
%ADD11C,0.300000*%
%TD*%
%TA.AperFunction,ViaPad*%
%ADD12C,0.450000*%
%TD*%
%TA.AperFunction,ViaPad*%
%ADD13C,0.600000*%
%TD*%
G04 APERTURE END LIST*
D10*
%TO.N,Net-(D2-K)*%
X63119982Y-51635555D03*
%TO.N,+3V3*%
X62157566Y-50113194D03*
D11*
X62782843Y-65782843D03*
D10*
X61519979Y-52895443D03*
D11*
X56750000Y-54500000D03*
X63549671Y-56580000D03*
D12*
X61577617Y-54984597D03*
D11*
X58125000Y-64650000D03*
X60019979Y-51060555D03*
X63750000Y-58750000D03*
X57250000Y-59169797D03*
D10*
%TO.N,Net-(D3-K)*%
X63519979Y-51385555D03*
%TO.N,/LiPo+*%
X63853582Y-52885555D03*
%TO.N,GND*%
X61085000Y-56882804D03*
X47500000Y-67250000D03*
X47503670Y-64506744D03*
D13*
X54400349Y-64223192D03*
D10*
X45513589Y-63355171D03*
D12*
X62269979Y-51718495D03*
D10*
X46830577Y-61850191D03*
D13*
X56500000Y-64250000D03*
D11*
X63185204Y-54165037D03*
D13*
X61005299Y-59750000D03*
D10*
X48250000Y-50250000D03*
D11*
X55772354Y-54185481D03*
D13*
X51842653Y-64199300D03*
X65484769Y-51738722D03*
D11*
X60513979Y-53717155D03*
X65500000Y-60000000D03*
X54750000Y-57750000D03*
X48750000Y-58000000D03*
X53750000Y-61500000D03*
D10*
X45342826Y-64920236D03*
D11*
X50500000Y-61000000D03*
X56515166Y-51515166D03*
X59269979Y-54385555D03*
D10*
X50477323Y-59722234D03*
%TO.N,/VBUS_OUT*%
X64480892Y-54514834D03*
X57523646Y-54296730D03*
X60500000Y-57750000D03*
X62688979Y-52885555D03*
D11*
%TO.N,/IMU_INT1*%
X52682042Y-59259099D03*
X51571064Y-59154021D03*
D10*
%TO.N,/PMIC_INT*%
X54250000Y-59750000D03*
X56250000Y-54750000D03*
%TO.N,/HOST_SDA*%
X43200000Y-64497969D03*
X56000000Y-51500000D03*
X52750000Y-54750000D03*
X61888979Y-53885555D03*
%TO.N,/HOST_SCL*%
X55372488Y-52622488D03*
X43599999Y-64514314D03*
X52275000Y-55775000D03*
%TO.N,/RS485_DIR*%
X54250000Y-56500000D03*
D11*
X54690156Y-55505842D03*
%TO.N,/SYNC_DIR*%
X54250000Y-55250000D03*
%TO.N,/RS485_RX*%
X53772376Y-51494409D03*
%TO.N,/RS485_TX*%
X52676282Y-51464100D03*
D10*
%TO.N,Net-(J2-~{RESET})*%
X60500000Y-55500000D03*
X51500000Y-49825000D03*
%TO.N,Net-(J2-SWCLK)*%
X49500000Y-50250000D03*
X61000000Y-55899988D03*
%TO.N,Net-(J2-SWDIO)*%
X62000000Y-58750000D03*
X48824731Y-50574731D03*
D11*
%TO.N,/SYNC_TX*%
X55217157Y-57282843D03*
D10*
%TO.N,/USB_D-*%
X56750000Y-52572237D03*
X49948321Y-59750000D03*
%TO.N,/USB_D+*%
X57720721Y-51245555D03*
X51006325Y-59721525D03*
%TO.N,/VLOAD*%
X63107979Y-52885555D03*
D13*
X55625000Y-64650000D03*
X59180102Y-55073496D03*
D12*
X60769979Y-52885555D03*
D13*
X53125000Y-64650000D03*
X58250000Y-62250000D03*
%TO.N,Net-(C1-Pad1)*%
X61500000Y-62250000D03*
X52010086Y-63350000D03*
D10*
%TO.N,/USB_CC1*%
X49400000Y-60251236D03*
X61884578Y-53326065D03*
%TO.N,/USB_CC2*%
X62686756Y-52450000D03*
%TO.N,Net-(D1-K)*%
X62769979Y-51635555D03*
D11*
%TO.N,Net-(U4-A)*%
X54349157Y-61270001D03*
X57500000Y-62500000D03*
%TO.N,Net-(U3-A)*%
X63750000Y-63500000D03*
X61500000Y-61000000D03*
D10*
%TO.N,Net-(U6-CAP)*%
X48250000Y-68775000D03*
X45500000Y-68750000D03*
%TO.N,Net-(U2-NTC)*%
X62751615Y-53297627D03*
X64642034Y-51726011D03*
%TD*%
%TA.AperFunction,Conductor*%
%TO.N,GND*%
G36*
X51217539Y-49720185D02*
G01*
X51263294Y-49772989D01*
X51274500Y-49824500D01*
X51274500Y-49869853D01*
X51274501Y-49869858D01*
X51308827Y-49952733D01*
X51372266Y-50016172D01*
X51436365Y-50042721D01*
X51455145Y-50050500D01*
X51455147Y-50050500D01*
X51544853Y-50050500D01*
X51544855Y-50050500D01*
X51586295Y-50033335D01*
X51627733Y-50016172D01*
X51627734Y-50016170D01*
X51627736Y-50016170D01*
X51691170Y-49952736D01*
X51691170Y-49952734D01*
X51691172Y-49952733D01*
X51723792Y-49873978D01*
X51725500Y-49869855D01*
X51725500Y-49824500D01*
X51745185Y-49757461D01*
X51797989Y-49711706D01*
X51849500Y-49700500D01*
X61952591Y-49700500D01*
X62019630Y-49720185D01*
X62065385Y-49772989D01*
X62075329Y-49842147D01*
X62046304Y-49905703D01*
X62038057Y-49912979D01*
X62038466Y-49913388D01*
X61966395Y-49985458D01*
X61966393Y-49985460D01*
X61932067Y-50068335D01*
X61932066Y-50068340D01*
X61932066Y-50158047D01*
X61932067Y-50158052D01*
X61966393Y-50240927D01*
X62029832Y-50304366D01*
X62093931Y-50330915D01*
X62112711Y-50338694D01*
X62112713Y-50338694D01*
X62202419Y-50338694D01*
X62202421Y-50338694D01*
X62243861Y-50321529D01*
X62285299Y-50304366D01*
X62285300Y-50304364D01*
X62285302Y-50304364D01*
X62348736Y-50240930D01*
X62348736Y-50240928D01*
X62348738Y-50240927D01*
X62365901Y-50199489D01*
X62383066Y-50158049D01*
X62383066Y-50068339D01*
X62364908Y-50024500D01*
X62348738Y-49985460D01*
X62276666Y-49913388D01*
X62279446Y-49910607D01*
X62248840Y-49873978D01*
X62240140Y-49804652D01*
X62270301Y-49741628D01*
X62329748Y-49704915D01*
X62362541Y-49700500D01*
X66175500Y-49700500D01*
X66242539Y-49720185D01*
X66288294Y-49772989D01*
X66299500Y-49824500D01*
X66299500Y-69425500D01*
X66279815Y-69492539D01*
X66227011Y-69538294D01*
X66175500Y-69549500D01*
X43074500Y-69549500D01*
X43007461Y-69529815D01*
X42961706Y-69477011D01*
X42950500Y-69425500D01*
X42950500Y-68705146D01*
X45274500Y-68705146D01*
X45274500Y-68794853D01*
X45274501Y-68794858D01*
X45308827Y-68877733D01*
X45372266Y-68941172D01*
X45432620Y-68966170D01*
X45455145Y-68975500D01*
X45455147Y-68975500D01*
X45544853Y-68975500D01*
X45544855Y-68975500D01*
X45586295Y-68958335D01*
X45627733Y-68941172D01*
X45627734Y-68941170D01*
X45627736Y-68941170D01*
X45691170Y-68877736D01*
X45691170Y-68877734D01*
X45691172Y-68877733D01*
X45708335Y-68836295D01*
X45725500Y-68794855D01*
X45725500Y-68730146D01*
X48024500Y-68730146D01*
X48024500Y-68819853D01*
X48024501Y-68819858D01*
X48058827Y-68902733D01*
X48122266Y-68966172D01*
X48186365Y-68992721D01*
X48205145Y-69000500D01*
X48205147Y-69000500D01*
X48294853Y-69000500D01*
X48294855Y-69000500D01*
X48336295Y-68983335D01*
X48377733Y-68966172D01*
X48377734Y-68966170D01*
X48377736Y-68966170D01*
X48441170Y-68902736D01*
X48441170Y-68902734D01*
X48441172Y-68902733D01*
X48458335Y-68861295D01*
X48475500Y-68819855D01*
X48475500Y-68730145D01*
X48465143Y-68705141D01*
X48441172Y-68647266D01*
X48377733Y-68583827D01*
X48294858Y-68549501D01*
X48294856Y-68549500D01*
X48294855Y-68549500D01*
X48205145Y-68549500D01*
X48205143Y-68549500D01*
X48205141Y-68549501D01*
X48122266Y-68583827D01*
X48058827Y-68647266D01*
X48024501Y-68730141D01*
X48024500Y-68730146D01*
X45725500Y-68730146D01*
X45725500Y-68705145D01*
X45717721Y-68686365D01*
X45691172Y-68622266D01*
X45627733Y-68558827D01*
X45544858Y-68524501D01*
X45544856Y-68524500D01*
X45544855Y-68524500D01*
X45455145Y-68524500D01*
X45455143Y-68524500D01*
X45455141Y-68524501D01*
X45372266Y-68558827D01*
X45308827Y-68622266D01*
X45274501Y-68705141D01*
X45274500Y-68705146D01*
X42950500Y-68705146D01*
X42950500Y-65733013D01*
X62532343Y-65733013D01*
X62532343Y-65733015D01*
X62532343Y-65832671D01*
X62570479Y-65924740D01*
X62640946Y-65995207D01*
X62733015Y-66033343D01*
X62733017Y-66033343D01*
X62832669Y-66033343D01*
X62832671Y-66033343D01*
X62924740Y-65995207D01*
X62995207Y-65924740D01*
X63033343Y-65832671D01*
X63033343Y-65733015D01*
X62995207Y-65640946D01*
X62924740Y-65570479D01*
X62832672Y-65532343D01*
X62832671Y-65532343D01*
X62733015Y-65532343D01*
X62733013Y-65532343D01*
X62640945Y-65570479D01*
X62570479Y-65640945D01*
X62532343Y-65733013D01*
X42950500Y-65733013D01*
X42950500Y-64824281D01*
X42970185Y-64757242D01*
X43022989Y-64711487D01*
X43092147Y-64701543D01*
X43121946Y-64709718D01*
X43155145Y-64723469D01*
X43155147Y-64723469D01*
X43244853Y-64723469D01*
X43244855Y-64723469D01*
X43288275Y-64705484D01*
X43339020Y-64684466D01*
X43340452Y-64687923D01*
X43386576Y-64673456D01*
X43453966Y-64691907D01*
X43464980Y-64700618D01*
X43472265Y-64705486D01*
X43536364Y-64732035D01*
X43555144Y-64739814D01*
X43555146Y-64739814D01*
X43644852Y-64739814D01*
X43644854Y-64739814D01*
X43686294Y-64722649D01*
X43727732Y-64705486D01*
X43727733Y-64705484D01*
X43727735Y-64705484D01*
X43791169Y-64642050D01*
X43791169Y-64642048D01*
X43791171Y-64642047D01*
X43809717Y-64597273D01*
X52724500Y-64597273D01*
X52724500Y-64702727D01*
X52751793Y-64804587D01*
X52804520Y-64895913D01*
X52879087Y-64970480D01*
X52970413Y-65023207D01*
X53072273Y-65050500D01*
X53072275Y-65050500D01*
X53177725Y-65050500D01*
X53177727Y-65050500D01*
X53279587Y-65023207D01*
X53370913Y-64970480D01*
X53445480Y-64895913D01*
X53498207Y-64804587D01*
X53525500Y-64702727D01*
X53525500Y-64597273D01*
X55224500Y-64597273D01*
X55224500Y-64702727D01*
X55251793Y-64804587D01*
X55304520Y-64895913D01*
X55379087Y-64970480D01*
X55470413Y-65023207D01*
X55572273Y-65050500D01*
X55572275Y-65050500D01*
X55677725Y-65050500D01*
X55677727Y-65050500D01*
X55779587Y-65023207D01*
X55870913Y-64970480D01*
X55945480Y-64895913D01*
X55998207Y-64804587D01*
X56025500Y-64702727D01*
X56025500Y-64600170D01*
X57874500Y-64600170D01*
X57874500Y-64699829D01*
X57912636Y-64791897D01*
X57983103Y-64862364D01*
X58075172Y-64900500D01*
X58075174Y-64900500D01*
X58174826Y-64900500D01*
X58174828Y-64900500D01*
X58266897Y-64862364D01*
X58337364Y-64791897D01*
X58375500Y-64699828D01*
X58375500Y-64600172D01*
X58337364Y-64508103D01*
X58266897Y-64437636D01*
X58174829Y-64399500D01*
X58174828Y-64399500D01*
X58075172Y-64399500D01*
X58075170Y-64399500D01*
X57983102Y-64437636D01*
X57912636Y-64508102D01*
X57874500Y-64600170D01*
X56025500Y-64600170D01*
X56025500Y-64597273D01*
X55998207Y-64495413D01*
X55945480Y-64404087D01*
X55870913Y-64329520D01*
X55779587Y-64276793D01*
X55677727Y-64249500D01*
X55572273Y-64249500D01*
X55470413Y-64276793D01*
X55470410Y-64276794D01*
X55379085Y-64329521D01*
X55304521Y-64404085D01*
X55251794Y-64495410D01*
X55251793Y-64495413D01*
X55224500Y-64597273D01*
X53525500Y-64597273D01*
X53498207Y-64495413D01*
X53445480Y-64404087D01*
X53370913Y-64329520D01*
X53279587Y-64276793D01*
X53177727Y-64249500D01*
X53072273Y-64249500D01*
X52970413Y-64276793D01*
X52970410Y-64276794D01*
X52879085Y-64329521D01*
X52804521Y-64404085D01*
X52751794Y-64495410D01*
X52751793Y-64495413D01*
X52724500Y-64597273D01*
X43809717Y-64597273D01*
X43825499Y-64559170D01*
X43825499Y-64469460D01*
X43825497Y-64469455D01*
X43791171Y-64386580D01*
X43727732Y-64323141D01*
X43644857Y-64288815D01*
X43644855Y-64288814D01*
X43644854Y-64288814D01*
X43555144Y-64288814D01*
X43555142Y-64288814D01*
X43555140Y-64288815D01*
X43460979Y-64327817D01*
X43459548Y-64324364D01*
X43413362Y-64338827D01*
X43345981Y-64320344D01*
X43334980Y-64311640D01*
X43327733Y-64306796D01*
X43244858Y-64272470D01*
X43244856Y-64272469D01*
X43244855Y-64272469D01*
X43155145Y-64272469D01*
X43144704Y-64276794D01*
X43121952Y-64286218D01*
X43052482Y-64293686D01*
X42990003Y-64262410D01*
X42954351Y-64202321D01*
X42950500Y-64171656D01*
X42950500Y-63013982D01*
X46684500Y-63013982D01*
X46684500Y-63126018D01*
X46713497Y-63234237D01*
X46769515Y-63331263D01*
X46848737Y-63410485D01*
X46945763Y-63466503D01*
X47053982Y-63495500D01*
X47053984Y-63495500D01*
X47166016Y-63495500D01*
X47166018Y-63495500D01*
X47274237Y-63466503D01*
X47371263Y-63410485D01*
X47450485Y-63331263D01*
X47470109Y-63297273D01*
X51609586Y-63297273D01*
X51609586Y-63402727D01*
X51636879Y-63504587D01*
X51689606Y-63595913D01*
X51764173Y-63670480D01*
X51855499Y-63723207D01*
X51957359Y-63750500D01*
X51957361Y-63750500D01*
X52062811Y-63750500D01*
X52062813Y-63750500D01*
X52164673Y-63723207D01*
X52255999Y-63670480D01*
X52330566Y-63595913D01*
X52383293Y-63504587D01*
X52399459Y-63444250D01*
X52435823Y-63384591D01*
X52498670Y-63354061D01*
X52568046Y-63362355D01*
X52606915Y-63388663D01*
X52628737Y-63410485D01*
X52725763Y-63466503D01*
X52833982Y-63495500D01*
X52833984Y-63495500D01*
X52946016Y-63495500D01*
X52946018Y-63495500D01*
X53054237Y-63466503D01*
X53082527Y-63450170D01*
X63499500Y-63450170D01*
X63499500Y-63450172D01*
X63499500Y-63549828D01*
X63537636Y-63641897D01*
X63608103Y-63712364D01*
X63700172Y-63750500D01*
X63700174Y-63750500D01*
X63799826Y-63750500D01*
X63799828Y-63750500D01*
X63891897Y-63712364D01*
X63962364Y-63641897D01*
X64000500Y-63549828D01*
X64000500Y-63450172D01*
X63962364Y-63358103D01*
X63891897Y-63287636D01*
X63799829Y-63249500D01*
X63799828Y-63249500D01*
X63700172Y-63249500D01*
X63700170Y-63249500D01*
X63608102Y-63287636D01*
X63537636Y-63358102D01*
X63499500Y-63450170D01*
X53082527Y-63450170D01*
X53151263Y-63410485D01*
X53230485Y-63331263D01*
X53286503Y-63234237D01*
X53315500Y-63126018D01*
X53315500Y-63013982D01*
X53286503Y-62905763D01*
X53230485Y-62808737D01*
X53151263Y-62729515D01*
X53054237Y-62673497D01*
X52946018Y-62644500D01*
X52833982Y-62644500D01*
X52725763Y-62673497D01*
X52725760Y-62673498D01*
X52628740Y-62729513D01*
X52628734Y-62729517D01*
X52549517Y-62808734D01*
X52549513Y-62808740D01*
X52493498Y-62905760D01*
X52493495Y-62905767D01*
X52472741Y-62983221D01*
X52436376Y-63042881D01*
X52373529Y-63073409D01*
X52304153Y-63065114D01*
X52265286Y-63038807D01*
X52256000Y-63029521D01*
X52255999Y-63029520D01*
X52164673Y-62976793D01*
X52062813Y-62949500D01*
X51957359Y-62949500D01*
X51855499Y-62976793D01*
X51855496Y-62976794D01*
X51764171Y-63029521D01*
X51689607Y-63104085D01*
X51636880Y-63195410D01*
X51636879Y-63195413D01*
X51609586Y-63297273D01*
X47470109Y-63297273D01*
X47506503Y-63234237D01*
X47535500Y-63126018D01*
X47535500Y-63013982D01*
X47506503Y-62905763D01*
X47450485Y-62808737D01*
X47371263Y-62729515D01*
X47274237Y-62673497D01*
X47166018Y-62644500D01*
X47053982Y-62644500D01*
X46945763Y-62673497D01*
X46945760Y-62673498D01*
X46848740Y-62729513D01*
X46848734Y-62729517D01*
X46769517Y-62808734D01*
X46769513Y-62808740D01*
X46713498Y-62905760D01*
X46713497Y-62905763D01*
X46684500Y-63013982D01*
X42950500Y-63013982D01*
X42950500Y-62450170D01*
X57249500Y-62450170D01*
X57249500Y-62549829D01*
X57279894Y-62623206D01*
X57287636Y-62641897D01*
X57358103Y-62712364D01*
X57450172Y-62750500D01*
X57450174Y-62750500D01*
X57549826Y-62750500D01*
X57549828Y-62750500D01*
X57641897Y-62712364D01*
X57712364Y-62641897D01*
X57747707Y-62556569D01*
X57791548Y-62502167D01*
X57857842Y-62480102D01*
X57925541Y-62497381D01*
X57949949Y-62516342D01*
X58004087Y-62570480D01*
X58095413Y-62623207D01*
X58197273Y-62650500D01*
X58197275Y-62650500D01*
X58302725Y-62650500D01*
X58302727Y-62650500D01*
X58404587Y-62623207D01*
X58495913Y-62570480D01*
X58570480Y-62495913D01*
X58623207Y-62404587D01*
X58650500Y-62302727D01*
X58650500Y-62197273D01*
X61099500Y-62197273D01*
X61099500Y-62302727D01*
X61126793Y-62404587D01*
X61179520Y-62495913D01*
X61254087Y-62570480D01*
X61345413Y-62623207D01*
X61447273Y-62650500D01*
X61447275Y-62650500D01*
X61552725Y-62650500D01*
X61552727Y-62650500D01*
X61654587Y-62623207D01*
X61745913Y-62570480D01*
X61820480Y-62495913D01*
X61873207Y-62404587D01*
X61900500Y-62302727D01*
X61900500Y-62197273D01*
X61873207Y-62095413D01*
X61820480Y-62004087D01*
X61745913Y-61929520D01*
X61654587Y-61876793D01*
X61552727Y-61849500D01*
X61447273Y-61849500D01*
X61345413Y-61876793D01*
X61345410Y-61876794D01*
X61254085Y-61929521D01*
X61179521Y-62004085D01*
X61126794Y-62095410D01*
X61126793Y-62095413D01*
X61099500Y-62197273D01*
X58650500Y-62197273D01*
X58623207Y-62095413D01*
X58570480Y-62004087D01*
X58495913Y-61929520D01*
X58404587Y-61876793D01*
X58302727Y-61849500D01*
X58197273Y-61849500D01*
X58095413Y-61876793D01*
X58095410Y-61876794D01*
X58004085Y-61929521D01*
X57929521Y-62004085D01*
X57876794Y-62095410D01*
X57876793Y-62095413D01*
X57849500Y-62197273D01*
X57848439Y-62205333D01*
X57846787Y-62205115D01*
X57829815Y-62262916D01*
X57777011Y-62308671D01*
X57707853Y-62318615D01*
X57652711Y-62293432D01*
X57652051Y-62294421D01*
X57645952Y-62290345D01*
X57644297Y-62289590D01*
X57642965Y-62288350D01*
X57641897Y-62287636D01*
X57549829Y-62249500D01*
X57549828Y-62249500D01*
X57450172Y-62249500D01*
X57450170Y-62249500D01*
X57358102Y-62287636D01*
X57287636Y-62358102D01*
X57249500Y-62450170D01*
X42950500Y-62450170D01*
X42950500Y-61220171D01*
X54098657Y-61220171D01*
X54098657Y-61220173D01*
X54098657Y-61319829D01*
X54136793Y-61411898D01*
X54207260Y-61482365D01*
X54299329Y-61520501D01*
X54299331Y-61520501D01*
X54398983Y-61520501D01*
X54398985Y-61520501D01*
X54491054Y-61482365D01*
X54561521Y-61411898D01*
X54599657Y-61319829D01*
X54599657Y-61220173D01*
X54561521Y-61128104D01*
X54491054Y-61057637D01*
X54439224Y-61036168D01*
X54398986Y-61019501D01*
X54398985Y-61019501D01*
X54299329Y-61019501D01*
X54299327Y-61019501D01*
X54207259Y-61057637D01*
X54136793Y-61128103D01*
X54098657Y-61220171D01*
X42950500Y-61220171D01*
X42950500Y-60950170D01*
X61249500Y-60950170D01*
X61249500Y-61049829D01*
X61252735Y-61057638D01*
X61287636Y-61141897D01*
X61358103Y-61212364D01*
X61450172Y-61250500D01*
X61450174Y-61250500D01*
X61549826Y-61250500D01*
X61549828Y-61250500D01*
X61641897Y-61212364D01*
X61712364Y-61141897D01*
X61750500Y-61049828D01*
X61750500Y-60950172D01*
X61712364Y-60858103D01*
X61641897Y-60787636D01*
X61549829Y-60749500D01*
X61549828Y-60749500D01*
X61450172Y-60749500D01*
X61450170Y-60749500D01*
X61358102Y-60787636D01*
X61287636Y-60858102D01*
X61249500Y-60950170D01*
X42950500Y-60950170D01*
X42950500Y-60874000D01*
X42970185Y-60806961D01*
X43022989Y-60761206D01*
X43074500Y-60750000D01*
X47853720Y-60750000D01*
X47853720Y-60206382D01*
X49174500Y-60206382D01*
X49174500Y-60296089D01*
X49174501Y-60296094D01*
X49208827Y-60378969D01*
X49272266Y-60442408D01*
X49336365Y-60468957D01*
X49355145Y-60476736D01*
X49355147Y-60476736D01*
X49444853Y-60476736D01*
X49444855Y-60476736D01*
X49486295Y-60459571D01*
X49527733Y-60442408D01*
X49527734Y-60442406D01*
X49527736Y-60442406D01*
X49591170Y-60378972D01*
X49591170Y-60378970D01*
X49591172Y-60378969D01*
X49608335Y-60337531D01*
X49625500Y-60296091D01*
X49625500Y-60206381D01*
X49617721Y-60187601D01*
X49591172Y-60123502D01*
X49527733Y-60060063D01*
X49444858Y-60025737D01*
X49444856Y-60025736D01*
X49444855Y-60025736D01*
X49355145Y-60025736D01*
X49355143Y-60025736D01*
X49355141Y-60025737D01*
X49272266Y-60060063D01*
X49208827Y-60123502D01*
X49174501Y-60206377D01*
X49174500Y-60206382D01*
X47853720Y-60206382D01*
X47853720Y-59705146D01*
X49722821Y-59705146D01*
X49722821Y-59794853D01*
X49722822Y-59794858D01*
X49757148Y-59877733D01*
X49820587Y-59941172D01*
X49884686Y-59967721D01*
X49903466Y-59975500D01*
X49903468Y-59975500D01*
X49993174Y-59975500D01*
X49993176Y-59975500D01*
X50034616Y-59958335D01*
X50076054Y-59941172D01*
X50076055Y-59941170D01*
X50076057Y-59941170D01*
X50139491Y-59877736D01*
X50139491Y-59877734D01*
X50139493Y-59877733D01*
X50156656Y-59836295D01*
X50173821Y-59794855D01*
X50173821Y-59705145D01*
X50162027Y-59676671D01*
X50780825Y-59676671D01*
X50780825Y-59766378D01*
X50780826Y-59766383D01*
X50815152Y-59849258D01*
X50878591Y-59912697D01*
X50942690Y-59939246D01*
X50961470Y-59947025D01*
X50961472Y-59947025D01*
X51051178Y-59947025D01*
X51051180Y-59947025D01*
X51092620Y-59929860D01*
X51134058Y-59912697D01*
X51134059Y-59912695D01*
X51134061Y-59912695D01*
X51197495Y-59849261D01*
X51197495Y-59849259D01*
X51197497Y-59849258D01*
X51220031Y-59794853D01*
X51231825Y-59766380D01*
X51231825Y-59705146D01*
X54024500Y-59705146D01*
X54024500Y-59794853D01*
X54024501Y-59794858D01*
X54058827Y-59877733D01*
X54122266Y-59941172D01*
X54186365Y-59967721D01*
X54205145Y-59975500D01*
X54205147Y-59975500D01*
X54294853Y-59975500D01*
X54294855Y-59975500D01*
X54336295Y-59958335D01*
X54377733Y-59941172D01*
X54377734Y-59941170D01*
X54377736Y-59941170D01*
X54441170Y-59877736D01*
X54441170Y-59877734D01*
X54441172Y-59877733D01*
X54458335Y-59836295D01*
X54475500Y-59794855D01*
X54475500Y-59705145D01*
X54463706Y-59676671D01*
X54441172Y-59622266D01*
X54377733Y-59558827D01*
X54294858Y-59524501D01*
X54294856Y-59524500D01*
X54294855Y-59524500D01*
X54205145Y-59524500D01*
X54205143Y-59524500D01*
X54205141Y-59524501D01*
X54122266Y-59558827D01*
X54058827Y-59622266D01*
X54024501Y-59705141D01*
X54024500Y-59705146D01*
X51231825Y-59705146D01*
X51231825Y-59676670D01*
X51224046Y-59657890D01*
X51197497Y-59593791D01*
X51134058Y-59530352D01*
X51051183Y-59496026D01*
X51051181Y-59496025D01*
X51051180Y-59496025D01*
X50961470Y-59496025D01*
X50961468Y-59496025D01*
X50961466Y-59496026D01*
X50878591Y-59530352D01*
X50815152Y-59593791D01*
X50780826Y-59676666D01*
X50780825Y-59676671D01*
X50162027Y-59676671D01*
X50139491Y-59622264D01*
X50076057Y-59558830D01*
X50076054Y-59558827D01*
X49993179Y-59524501D01*
X49993177Y-59524500D01*
X49993176Y-59524500D01*
X49903466Y-59524500D01*
X49903464Y-59524500D01*
X49903462Y-59524501D01*
X49820587Y-59558827D01*
X49757148Y-59622266D01*
X49722822Y-59705141D01*
X49722821Y-59705146D01*
X47853720Y-59705146D01*
X47853720Y-59104191D01*
X51320564Y-59104191D01*
X51320564Y-59203850D01*
X51327099Y-59219626D01*
X51358700Y-59295918D01*
X51429167Y-59366385D01*
X51521236Y-59404521D01*
X51521238Y-59404521D01*
X51620890Y-59404521D01*
X51620892Y-59404521D01*
X51712961Y-59366385D01*
X51783428Y-59295918D01*
X51819319Y-59209269D01*
X52431542Y-59209269D01*
X52431542Y-59209271D01*
X52431542Y-59308927D01*
X52469678Y-59400996D01*
X52540145Y-59471463D01*
X52632214Y-59509599D01*
X52632216Y-59509599D01*
X52731868Y-59509599D01*
X52731870Y-59509599D01*
X52823939Y-59471463D01*
X52894406Y-59400996D01*
X52932542Y-59308927D01*
X52932542Y-59209271D01*
X52895551Y-59119967D01*
X56999500Y-59119967D01*
X56999500Y-59119969D01*
X56999500Y-59219625D01*
X57037636Y-59311694D01*
X57108103Y-59382161D01*
X57200172Y-59420297D01*
X57200174Y-59420297D01*
X57299826Y-59420297D01*
X57299828Y-59420297D01*
X57391897Y-59382161D01*
X57462364Y-59311694D01*
X57500500Y-59219625D01*
X57500500Y-59119969D01*
X57462364Y-59027900D01*
X57391897Y-58957433D01*
X57299829Y-58919297D01*
X57299828Y-58919297D01*
X57200172Y-58919297D01*
X57200170Y-58919297D01*
X57108102Y-58957433D01*
X57037636Y-59027899D01*
X56999500Y-59119967D01*
X52895551Y-59119967D01*
X52894406Y-59117202D01*
X52823939Y-59046735D01*
X52731871Y-59008599D01*
X52731870Y-59008599D01*
X52632214Y-59008599D01*
X52632212Y-59008599D01*
X52540144Y-59046735D01*
X52469678Y-59117201D01*
X52431542Y-59209269D01*
X51819319Y-59209269D01*
X51821564Y-59203849D01*
X51821564Y-59104193D01*
X51783428Y-59012124D01*
X51712961Y-58941657D01*
X51658979Y-58919297D01*
X51620893Y-58903521D01*
X51620892Y-58903521D01*
X51521236Y-58903521D01*
X51521234Y-58903521D01*
X51429166Y-58941657D01*
X51358700Y-59012123D01*
X51320564Y-59104191D01*
X47853720Y-59104191D01*
X47853720Y-58302561D01*
X59344200Y-58302561D01*
X59344200Y-58459439D01*
X59384803Y-58610970D01*
X59463241Y-58746830D01*
X59574170Y-58857759D01*
X59710030Y-58936197D01*
X59861561Y-58976800D01*
X59861564Y-58976800D01*
X60018436Y-58976800D01*
X60018439Y-58976800D01*
X60169970Y-58936197D01*
X60305830Y-58857759D01*
X60416759Y-58746830D01*
X60440825Y-58705146D01*
X61774500Y-58705146D01*
X61774500Y-58794853D01*
X61774501Y-58794858D01*
X61808827Y-58877733D01*
X61872266Y-58941172D01*
X61923429Y-58962363D01*
X61955145Y-58975500D01*
X61955147Y-58975500D01*
X62044853Y-58975500D01*
X62044855Y-58975500D01*
X62088473Y-58957433D01*
X62127733Y-58941172D01*
X62127734Y-58941170D01*
X62127736Y-58941170D01*
X62191170Y-58877736D01*
X62191170Y-58877734D01*
X62191172Y-58877733D01*
X62208335Y-58836295D01*
X62225500Y-58794855D01*
X62225500Y-58705145D01*
X62225500Y-58705143D01*
X62223440Y-58700170D01*
X63499500Y-58700170D01*
X63499500Y-58700172D01*
X63499500Y-58799828D01*
X63537636Y-58891897D01*
X63608103Y-58962364D01*
X63700172Y-59000500D01*
X63700174Y-59000500D01*
X63799826Y-59000500D01*
X63799828Y-59000500D01*
X63891897Y-58962364D01*
X63962364Y-58891897D01*
X64000500Y-58799828D01*
X64000500Y-58700172D01*
X63962364Y-58608103D01*
X63891897Y-58537636D01*
X63860184Y-58524500D01*
X63799829Y-58499500D01*
X63799828Y-58499500D01*
X63700172Y-58499500D01*
X63700170Y-58499500D01*
X63608102Y-58537636D01*
X63537636Y-58608102D01*
X63499500Y-58700170D01*
X62223440Y-58700170D01*
X62191172Y-58622266D01*
X62127733Y-58558827D01*
X62044858Y-58524501D01*
X62044856Y-58524500D01*
X62044855Y-58524500D01*
X61955145Y-58524500D01*
X61955143Y-58524500D01*
X61955141Y-58524501D01*
X61872266Y-58558827D01*
X61808827Y-58622266D01*
X61774501Y-58705141D01*
X61774500Y-58705146D01*
X60440825Y-58705146D01*
X60495197Y-58610970D01*
X60535800Y-58459439D01*
X60535800Y-58302561D01*
X60495197Y-58151030D01*
X60493694Y-58148428D01*
X60493095Y-58145956D01*
X60492086Y-58143520D01*
X60492465Y-58143362D01*
X60477221Y-58080529D01*
X60500073Y-58014501D01*
X60553629Y-57971865D01*
X60627736Y-57941170D01*
X60691170Y-57877736D01*
X60691170Y-57877734D01*
X60691172Y-57877733D01*
X60712681Y-57825803D01*
X60725500Y-57794855D01*
X60725500Y-57705145D01*
X60717721Y-57686365D01*
X60691172Y-57622266D01*
X60627733Y-57558827D01*
X60544858Y-57524501D01*
X60544856Y-57524500D01*
X60544855Y-57524500D01*
X60455145Y-57524500D01*
X60455143Y-57524500D01*
X60455141Y-57524501D01*
X60372266Y-57558827D01*
X60308827Y-57622266D01*
X60274498Y-57705147D01*
X60272251Y-57716444D01*
X60239864Y-57778354D01*
X60179147Y-57812926D01*
X60118542Y-57812023D01*
X60018439Y-57785200D01*
X59861561Y-57785200D01*
X59758087Y-57812926D01*
X59710029Y-57825803D01*
X59574171Y-57904240D01*
X59574168Y-57904242D01*
X59463242Y-58015168D01*
X59463240Y-58015171D01*
X59384803Y-58151029D01*
X59384803Y-58151030D01*
X59344200Y-58302561D01*
X47853720Y-58302561D01*
X47853720Y-57233013D01*
X54966657Y-57233013D01*
X54966657Y-57233015D01*
X54966657Y-57332671D01*
X55004793Y-57424740D01*
X55075260Y-57495207D01*
X55167329Y-57533343D01*
X55167331Y-57533343D01*
X55266983Y-57533343D01*
X55266985Y-57533343D01*
X55359054Y-57495207D01*
X55429521Y-57424740D01*
X55467657Y-57332671D01*
X55467657Y-57286561D01*
X64424200Y-57286561D01*
X64424200Y-57443439D01*
X64464803Y-57594970D01*
X64543241Y-57730830D01*
X64654170Y-57841759D01*
X64790030Y-57920197D01*
X64941561Y-57960800D01*
X64941564Y-57960800D01*
X65098436Y-57960800D01*
X65098439Y-57960800D01*
X65249970Y-57920197D01*
X65385830Y-57841759D01*
X65496759Y-57730830D01*
X65575197Y-57594970D01*
X65615800Y-57443439D01*
X65615800Y-57286561D01*
X65575197Y-57135030D01*
X65496759Y-56999170D01*
X65385830Y-56888241D01*
X65249970Y-56809803D01*
X65249971Y-56809803D01*
X65184887Y-56792364D01*
X65098439Y-56769200D01*
X64941561Y-56769200D01*
X64855113Y-56792364D01*
X64790029Y-56809803D01*
X64654171Y-56888240D01*
X64654168Y-56888242D01*
X64543242Y-56999168D01*
X64543240Y-56999171D01*
X64464803Y-57135029D01*
X64464803Y-57135030D01*
X64424200Y-57286561D01*
X55467657Y-57286561D01*
X55467657Y-57233015D01*
X55429521Y-57140946D01*
X55359054Y-57070479D01*
X55266986Y-57032343D01*
X55266985Y-57032343D01*
X55167329Y-57032343D01*
X55167327Y-57032343D01*
X55075259Y-57070479D01*
X55004793Y-57140945D01*
X54966657Y-57233013D01*
X47853720Y-57233013D01*
X47853720Y-56455146D01*
X54024500Y-56455146D01*
X54024500Y-56544853D01*
X54024501Y-56544858D01*
X54058827Y-56627733D01*
X54122266Y-56691172D01*
X54179380Y-56714828D01*
X54205145Y-56725500D01*
X54205147Y-56725500D01*
X54294853Y-56725500D01*
X54294855Y-56725500D01*
X54336295Y-56708335D01*
X54377733Y-56691172D01*
X54377734Y-56691170D01*
X54377736Y-56691170D01*
X54441170Y-56627736D01*
X54441170Y-56627734D01*
X54441172Y-56627733D01*
X54461369Y-56578970D01*
X54475500Y-56544855D01*
X54475500Y-56455145D01*
X54464023Y-56427436D01*
X54441172Y-56372266D01*
X54377733Y-56308827D01*
X54294858Y-56274501D01*
X54294856Y-56274500D01*
X54294855Y-56274500D01*
X54205145Y-56274500D01*
X54205143Y-56274500D01*
X54205141Y-56274501D01*
X54122266Y-56308827D01*
X54058827Y-56372266D01*
X54024501Y-56455141D01*
X54024500Y-56455146D01*
X47853720Y-56455146D01*
X47853720Y-56270561D01*
X59344200Y-56270561D01*
X59344200Y-56427439D01*
X59384803Y-56578970D01*
X59463241Y-56714830D01*
X59574170Y-56825759D01*
X59710030Y-56904197D01*
X59861561Y-56944800D01*
X59861564Y-56944800D01*
X60018436Y-56944800D01*
X60018439Y-56944800D01*
X60169970Y-56904197D01*
X60305830Y-56825759D01*
X60416759Y-56714830D01*
X60495197Y-56578970D01*
X60508273Y-56530170D01*
X63299171Y-56530170D01*
X63299171Y-56629829D01*
X63324580Y-56691172D01*
X63337307Y-56721897D01*
X63407774Y-56792364D01*
X63499843Y-56830500D01*
X63499845Y-56830500D01*
X63599497Y-56830500D01*
X63599499Y-56830500D01*
X63691568Y-56792364D01*
X63762035Y-56721897D01*
X63800171Y-56629828D01*
X63800171Y-56530172D01*
X63762035Y-56438103D01*
X63691568Y-56367636D01*
X63599500Y-56329500D01*
X63599499Y-56329500D01*
X63499843Y-56329500D01*
X63499841Y-56329500D01*
X63407773Y-56367636D01*
X63337307Y-56438102D01*
X63299171Y-56530170D01*
X60508273Y-56530170D01*
X60535800Y-56427439D01*
X60535800Y-56270561D01*
X60495197Y-56119030D01*
X60416759Y-55983170D01*
X60370770Y-55937181D01*
X60337285Y-55875858D01*
X60342269Y-55806166D01*
X60384141Y-55750233D01*
X60436085Y-55727534D01*
X60452699Y-55724487D01*
X60455145Y-55725500D01*
X60544855Y-55725500D01*
X60622454Y-55693357D01*
X60635388Y-55690986D01*
X60657581Y-55693307D01*
X60679770Y-55690922D01*
X60691656Y-55696871D01*
X60704878Y-55698255D01*
X60722295Y-55712208D01*
X60742249Y-55722197D01*
X60749032Y-55733629D01*
X60759407Y-55741941D01*
X60766514Y-55763093D01*
X60777902Y-55782285D01*
X60777427Y-55795569D01*
X60781662Y-55808171D01*
X60776205Y-55829809D01*
X60775736Y-55842926D01*
X60776883Y-55843154D01*
X60775476Y-55850226D01*
X60775409Y-55852111D01*
X60774749Y-55853877D01*
X60774500Y-55855134D01*
X60774500Y-55944841D01*
X60774501Y-55944846D01*
X60808827Y-56027721D01*
X60872266Y-56091160D01*
X60936365Y-56117709D01*
X60955145Y-56125488D01*
X60955147Y-56125488D01*
X61044853Y-56125488D01*
X61044855Y-56125488D01*
X61086295Y-56108323D01*
X61127733Y-56091160D01*
X61127734Y-56091158D01*
X61127736Y-56091158D01*
X61191170Y-56027724D01*
X61191170Y-56027722D01*
X61191172Y-56027721D01*
X61216666Y-55966170D01*
X61225500Y-55944843D01*
X61225500Y-55855133D01*
X61206048Y-55808171D01*
X61191172Y-55772254D01*
X61127733Y-55708815D01*
X61044858Y-55674489D01*
X61044856Y-55674488D01*
X61044855Y-55674488D01*
X60955145Y-55674488D01*
X60955143Y-55674488D01*
X60889696Y-55701597D01*
X60820227Y-55709065D01*
X60757748Y-55677789D01*
X60722096Y-55617700D01*
X60724262Y-55557061D01*
X60723117Y-55556834D01*
X60724523Y-55549762D01*
X60724591Y-55547875D01*
X60725250Y-55546105D01*
X60725499Y-55544856D01*
X60725500Y-55544855D01*
X60725500Y-55455145D01*
X60717721Y-55436365D01*
X60691172Y-55372266D01*
X60627733Y-55308827D01*
X60544858Y-55274501D01*
X60544856Y-55274500D01*
X60544855Y-55274500D01*
X60455145Y-55274500D01*
X60455143Y-55274500D01*
X60455141Y-55274501D01*
X60372266Y-55308827D01*
X60308827Y-55372266D01*
X60274501Y-55455141D01*
X60274500Y-55455146D01*
X60274500Y-55544856D01*
X60307316Y-55624083D01*
X60314783Y-55693552D01*
X60283508Y-55756031D01*
X60223418Y-55791683D01*
X60160662Y-55791309D01*
X60018439Y-55753200D01*
X59861561Y-55753200D01*
X59753015Y-55782285D01*
X59710029Y-55793803D01*
X59574171Y-55872240D01*
X59574168Y-55872242D01*
X59463242Y-55983168D01*
X59463240Y-55983171D01*
X59384803Y-56119029D01*
X59371268Y-56169540D01*
X59344200Y-56270561D01*
X47853720Y-56270561D01*
X47853720Y-55730146D01*
X52049500Y-55730146D01*
X52049500Y-55819853D01*
X52049501Y-55819858D01*
X52083827Y-55902733D01*
X52147266Y-55966172D01*
X52211365Y-55992721D01*
X52230145Y-56000500D01*
X52230147Y-56000500D01*
X52319853Y-56000500D01*
X52319855Y-56000500D01*
X52361699Y-55983168D01*
X52402733Y-55966172D01*
X52402734Y-55966170D01*
X52402736Y-55966170D01*
X52466170Y-55902736D01*
X52466170Y-55902734D01*
X52466172Y-55902733D01*
X52485887Y-55855134D01*
X52500500Y-55819855D01*
X52500500Y-55730145D01*
X52492721Y-55711365D01*
X52466172Y-55647266D01*
X52402733Y-55583827D01*
X52319858Y-55549501D01*
X52319856Y-55549500D01*
X52319855Y-55549500D01*
X52230145Y-55549500D01*
X52230143Y-55549500D01*
X52230141Y-55549501D01*
X52147266Y-55583827D01*
X52083827Y-55647266D01*
X52049501Y-55730141D01*
X52049500Y-55730146D01*
X47853720Y-55730146D01*
X47853720Y-55200170D01*
X53999500Y-55200170D01*
X53999500Y-55299829D01*
X54026058Y-55363945D01*
X54037636Y-55391897D01*
X54108103Y-55462364D01*
X54200172Y-55500500D01*
X54200174Y-55500500D01*
X54299828Y-55500500D01*
X54308086Y-55498857D01*
X54377678Y-55505081D01*
X54432857Y-55547942D01*
X54446841Y-55573016D01*
X54477792Y-55647739D01*
X54548259Y-55718206D01*
X54640328Y-55756342D01*
X54640330Y-55756342D01*
X54739982Y-55756342D01*
X54739984Y-55756342D01*
X54832053Y-55718206D01*
X54902520Y-55647739D01*
X54940656Y-55555670D01*
X54940656Y-55456014D01*
X54902520Y-55363945D01*
X54832053Y-55293478D01*
X54818613Y-55287911D01*
X54739985Y-55255342D01*
X54739984Y-55255342D01*
X54640328Y-55255342D01*
X54632062Y-55256986D01*
X54562471Y-55250757D01*
X54507294Y-55207893D01*
X54493314Y-55182824D01*
X54462364Y-55108103D01*
X54391897Y-55037636D01*
X54367306Y-55027450D01*
X54351177Y-55020769D01*
X58779602Y-55020769D01*
X58779602Y-55126223D01*
X58806895Y-55228083D01*
X58859622Y-55319409D01*
X58934189Y-55393976D01*
X59025515Y-55446703D01*
X59127375Y-55473996D01*
X59127377Y-55473996D01*
X59232827Y-55473996D01*
X59232829Y-55473996D01*
X59334689Y-55446703D01*
X59426015Y-55393976D01*
X59500582Y-55319409D01*
X59553309Y-55228083D01*
X59580602Y-55126223D01*
X59580602Y-55020769D01*
X59559428Y-54941744D01*
X61252117Y-54941744D01*
X61252117Y-55027450D01*
X61273728Y-55108102D01*
X61274299Y-55110234D01*
X61274302Y-55110241D01*
X61317147Y-55184452D01*
X61317151Y-55184457D01*
X61317152Y-55184459D01*
X61377755Y-55245062D01*
X61377757Y-55245063D01*
X61377761Y-55245066D01*
X61428743Y-55274500D01*
X61451979Y-55287915D01*
X61534764Y-55310097D01*
X61534766Y-55310097D01*
X61620468Y-55310097D01*
X61620470Y-55310097D01*
X61703255Y-55287915D01*
X61777479Y-55245062D01*
X61838082Y-55184459D01*
X61880935Y-55110235D01*
X61903117Y-55027450D01*
X61903117Y-54941744D01*
X61880935Y-54858959D01*
X61862819Y-54827581D01*
X61838086Y-54784741D01*
X61838080Y-54784733D01*
X61777480Y-54724133D01*
X61777472Y-54724127D01*
X61703261Y-54681282D01*
X61703257Y-54681280D01*
X61703255Y-54681279D01*
X61620470Y-54659097D01*
X61534764Y-54659097D01*
X61451979Y-54681279D01*
X61451972Y-54681282D01*
X61377761Y-54724127D01*
X61377753Y-54724133D01*
X61317153Y-54784733D01*
X61317147Y-54784741D01*
X61274302Y-54858952D01*
X61274299Y-54858959D01*
X61252117Y-54941744D01*
X59559428Y-54941744D01*
X59553309Y-54918909D01*
X59500582Y-54827583D01*
X59426015Y-54753016D01*
X59334689Y-54700289D01*
X59232829Y-54672996D01*
X59127375Y-54672996D01*
X59025515Y-54700289D01*
X59025512Y-54700290D01*
X58934187Y-54753017D01*
X58859623Y-54827581D01*
X58806896Y-54918906D01*
X58806896Y-54918907D01*
X58806895Y-54918909D01*
X58779602Y-55020769D01*
X54351177Y-55020769D01*
X54299829Y-54999500D01*
X54299828Y-54999500D01*
X54200172Y-54999500D01*
X54200170Y-54999500D01*
X54108102Y-55037636D01*
X54037636Y-55108102D01*
X53999500Y-55200170D01*
X47853720Y-55200170D01*
X47853720Y-54705146D01*
X52524500Y-54705146D01*
X52524500Y-54794853D01*
X52524501Y-54794858D01*
X52558827Y-54877733D01*
X52622266Y-54941172D01*
X52686365Y-54967721D01*
X52705145Y-54975500D01*
X52705147Y-54975500D01*
X52794853Y-54975500D01*
X52794855Y-54975500D01*
X52836295Y-54958335D01*
X52877733Y-54941172D01*
X52877734Y-54941170D01*
X52877736Y-54941170D01*
X52941170Y-54877736D01*
X52941170Y-54877734D01*
X52941172Y-54877733D01*
X52961944Y-54827583D01*
X52975500Y-54794855D01*
X52975500Y-54705146D01*
X56024500Y-54705146D01*
X56024500Y-54794853D01*
X56024501Y-54794858D01*
X56058827Y-54877733D01*
X56122266Y-54941172D01*
X56186365Y-54967721D01*
X56205145Y-54975500D01*
X56205147Y-54975500D01*
X56294853Y-54975500D01*
X56294855Y-54975500D01*
X56336295Y-54958335D01*
X56377733Y-54941172D01*
X56377734Y-54941170D01*
X56377736Y-54941170D01*
X56441170Y-54877736D01*
X56475500Y-54794855D01*
X56475500Y-54790500D01*
X56486423Y-54773247D01*
X56504973Y-54756950D01*
X56520470Y-54737720D01*
X56530764Y-54734293D01*
X56538914Y-54727134D01*
X56563331Y-54723453D01*
X56586764Y-54715654D01*
X56599650Y-54717978D01*
X56608003Y-54716720D01*
X56618320Y-54721347D01*
X56638640Y-54725013D01*
X56700172Y-54750500D01*
X56700174Y-54750500D01*
X56799826Y-54750500D01*
X56799828Y-54750500D01*
X56891897Y-54712364D01*
X56962364Y-54641897D01*
X57000500Y-54549828D01*
X57000500Y-54450172D01*
X56962364Y-54358103D01*
X56891897Y-54287636D01*
X56805560Y-54251874D01*
X57298146Y-54251874D01*
X57298146Y-54251875D01*
X57298146Y-54341585D01*
X57298146Y-54341586D01*
X57298147Y-54341588D01*
X57332473Y-54424463D01*
X57395912Y-54487902D01*
X57460011Y-54514451D01*
X57478791Y-54522230D01*
X57478793Y-54522230D01*
X57568499Y-54522230D01*
X57568501Y-54522230D01*
X57609941Y-54505065D01*
X57651379Y-54487902D01*
X57651380Y-54487900D01*
X57651382Y-54487900D01*
X57669302Y-54469980D01*
X64255392Y-54469980D01*
X64255392Y-54559687D01*
X64255393Y-54559692D01*
X64289719Y-54642567D01*
X64353158Y-54706006D01*
X64417257Y-54732555D01*
X64436037Y-54740334D01*
X64436039Y-54740334D01*
X64525745Y-54740334D01*
X64525747Y-54740334D01*
X64579720Y-54717978D01*
X64608625Y-54706006D01*
X64608626Y-54706004D01*
X64608628Y-54706004D01*
X64672062Y-54642570D01*
X64672062Y-54642568D01*
X64672064Y-54642567D01*
X64689227Y-54601129D01*
X64706392Y-54559689D01*
X64706392Y-54469979D01*
X64698187Y-54450170D01*
X64672064Y-54387100D01*
X64608625Y-54323661D01*
X64525750Y-54289335D01*
X64525748Y-54289334D01*
X64525747Y-54289334D01*
X64436037Y-54289334D01*
X64436035Y-54289334D01*
X64436033Y-54289335D01*
X64353158Y-54323661D01*
X64289719Y-54387100D01*
X64255393Y-54469975D01*
X64255392Y-54469980D01*
X57669302Y-54469980D01*
X57714816Y-54424466D01*
X57714817Y-54424463D01*
X57720679Y-54410313D01*
X57742304Y-54358103D01*
X57749146Y-54341585D01*
X57749146Y-54251875D01*
X57741367Y-54233095D01*
X57714818Y-54168996D01*
X57651379Y-54105557D01*
X57568504Y-54071231D01*
X57568502Y-54071230D01*
X57568501Y-54071230D01*
X57478791Y-54071230D01*
X57478789Y-54071230D01*
X57478787Y-54071231D01*
X57395912Y-54105557D01*
X57332473Y-54168996D01*
X57298147Y-54251871D01*
X57298146Y-54251874D01*
X56805560Y-54251874D01*
X56799829Y-54249500D01*
X56799828Y-54249500D01*
X56700172Y-54249500D01*
X56700170Y-54249500D01*
X56608102Y-54287636D01*
X56537636Y-54358102D01*
X56494826Y-54461456D01*
X56493495Y-54460904D01*
X56467349Y-54510881D01*
X56406631Y-54545451D01*
X56336862Y-54541707D01*
X56330671Y-54539335D01*
X56294856Y-54524500D01*
X56294855Y-54524500D01*
X56205145Y-54524500D01*
X56205143Y-54524500D01*
X56205141Y-54524501D01*
X56122266Y-54558827D01*
X56058827Y-54622266D01*
X56024501Y-54705141D01*
X56024500Y-54705146D01*
X52975500Y-54705146D01*
X52975500Y-54705145D01*
X52956427Y-54659097D01*
X52941172Y-54622266D01*
X52877733Y-54558827D01*
X52794858Y-54524501D01*
X52794856Y-54524500D01*
X52794855Y-54524500D01*
X52705145Y-54524500D01*
X52705143Y-54524500D01*
X52705141Y-54524501D01*
X52622266Y-54558827D01*
X52558827Y-54622266D01*
X52524501Y-54705141D01*
X52524500Y-54705146D01*
X47853720Y-54705146D01*
X47853720Y-52577634D01*
X55146988Y-52577634D01*
X55146988Y-52667341D01*
X55146989Y-52667346D01*
X55181315Y-52750221D01*
X55244754Y-52813660D01*
X55308853Y-52840209D01*
X55327633Y-52847988D01*
X55327635Y-52847988D01*
X55417341Y-52847988D01*
X55417343Y-52847988D01*
X55430105Y-52842702D01*
X60444479Y-52842702D01*
X60444479Y-52928408D01*
X60455366Y-52969037D01*
X60466661Y-53011192D01*
X60466664Y-53011199D01*
X60509509Y-53085410D01*
X60509513Y-53085415D01*
X60509514Y-53085417D01*
X60570117Y-53146020D01*
X60570119Y-53146021D01*
X60570123Y-53146024D01*
X60611463Y-53169891D01*
X60644341Y-53188873D01*
X60727126Y-53211055D01*
X60727128Y-53211055D01*
X60812830Y-53211055D01*
X60812832Y-53211055D01*
X60895617Y-53188873D01*
X60969841Y-53146020D01*
X61030444Y-53085417D01*
X61073297Y-53011193D01*
X61077166Y-52996752D01*
X61113528Y-52937095D01*
X61176374Y-52906564D01*
X61245750Y-52914858D01*
X61299629Y-52959342D01*
X61311501Y-52981395D01*
X61328806Y-53023176D01*
X61392245Y-53086615D01*
X61456344Y-53113164D01*
X61475124Y-53120943D01*
X61475126Y-53120943D01*
X61539884Y-53120943D01*
X61606923Y-53140628D01*
X61652678Y-53193432D01*
X61662622Y-53262590D01*
X61660822Y-53269103D01*
X61661461Y-53269231D01*
X61659078Y-53281211D01*
X61659078Y-53370918D01*
X61659079Y-53370923D01*
X61693405Y-53453798D01*
X61759936Y-53520329D01*
X61793421Y-53581652D01*
X61788437Y-53651344D01*
X61759937Y-53695691D01*
X61697806Y-53757822D01*
X61663480Y-53840696D01*
X61663479Y-53840701D01*
X61663479Y-53930408D01*
X61663480Y-53930413D01*
X61697806Y-54013288D01*
X61761245Y-54076727D01*
X61825344Y-54103276D01*
X61844124Y-54111055D01*
X61844126Y-54111055D01*
X61933832Y-54111055D01*
X61933834Y-54111055D01*
X61975274Y-54093890D01*
X62016712Y-54076727D01*
X62016713Y-54076725D01*
X62016715Y-54076725D01*
X62080149Y-54013291D01*
X62080149Y-54013289D01*
X62080151Y-54013288D01*
X62097314Y-53971850D01*
X62114479Y-53930410D01*
X62114479Y-53840700D01*
X62106700Y-53821920D01*
X62080151Y-53757821D01*
X62013620Y-53691290D01*
X61980135Y-53629967D01*
X61985119Y-53560275D01*
X62013616Y-53515932D01*
X62075748Y-53453801D01*
X62110078Y-53370920D01*
X62110078Y-53281210D01*
X62093240Y-53240559D01*
X62075750Y-53198331D01*
X62012311Y-53134892D01*
X61929436Y-53100566D01*
X61929434Y-53100565D01*
X61929433Y-53100565D01*
X61864673Y-53100565D01*
X61797634Y-53080880D01*
X61751879Y-53028076D01*
X61741935Y-52958918D01*
X61743734Y-52952404D01*
X61743096Y-52952277D01*
X61745479Y-52940296D01*
X61745479Y-52850589D01*
X61745477Y-52850584D01*
X61742212Y-52842702D01*
X61730183Y-52813660D01*
X61711151Y-52767709D01*
X61647712Y-52704270D01*
X61564837Y-52669944D01*
X61564835Y-52669943D01*
X61564834Y-52669943D01*
X61475124Y-52669943D01*
X61475122Y-52669943D01*
X61475120Y-52669944D01*
X61392245Y-52704270D01*
X61328808Y-52767707D01*
X61314718Y-52801724D01*
X61270876Y-52856127D01*
X61204582Y-52878191D01*
X61136882Y-52860911D01*
X61089273Y-52809773D01*
X61080386Y-52786375D01*
X61073297Y-52759917D01*
X61065778Y-52746894D01*
X61030448Y-52685699D01*
X61030442Y-52685691D01*
X60969842Y-52625091D01*
X60969834Y-52625085D01*
X60895623Y-52582240D01*
X60895619Y-52582238D01*
X60895617Y-52582237D01*
X60812832Y-52560055D01*
X60727126Y-52560055D01*
X60644341Y-52582237D01*
X60644334Y-52582240D01*
X60570123Y-52625085D01*
X60570115Y-52625091D01*
X60509515Y-52685691D01*
X60509509Y-52685699D01*
X60466664Y-52759910D01*
X60466661Y-52759917D01*
X60444479Y-52842702D01*
X55430105Y-52842702D01*
X55458783Y-52830823D01*
X55500221Y-52813660D01*
X55500222Y-52813658D01*
X55500224Y-52813658D01*
X55563658Y-52750224D01*
X55563658Y-52750222D01*
X55563660Y-52750221D01*
X55582691Y-52704273D01*
X55597988Y-52667343D01*
X55597988Y-52577633D01*
X55597986Y-52577628D01*
X55591770Y-52562619D01*
X55591769Y-52562618D01*
X55577175Y-52527383D01*
X56524500Y-52527383D01*
X56524500Y-52617090D01*
X56524501Y-52617095D01*
X56558827Y-52699970D01*
X56622266Y-52763409D01*
X56686365Y-52789958D01*
X56705145Y-52797737D01*
X56705147Y-52797737D01*
X56794853Y-52797737D01*
X56794855Y-52797737D01*
X56836295Y-52780572D01*
X56877733Y-52763409D01*
X56877734Y-52763407D01*
X56877736Y-52763407D01*
X56941170Y-52699973D01*
X56941170Y-52699971D01*
X56941172Y-52699970D01*
X56964963Y-52642530D01*
X56975500Y-52617092D01*
X56975500Y-52527382D01*
X56941170Y-52444501D01*
X56901815Y-52405146D01*
X62461256Y-52405146D01*
X62461256Y-52494853D01*
X62461257Y-52494858D01*
X62495583Y-52577733D01*
X62499057Y-52581207D01*
X62532542Y-52642530D01*
X62527558Y-52712222D01*
X62499066Y-52756560D01*
X62497812Y-52757814D01*
X62497806Y-52757821D01*
X62463480Y-52840696D01*
X62463479Y-52840701D01*
X62463479Y-52930408D01*
X62463480Y-52930413D01*
X62497806Y-53013288D01*
X62529379Y-53044861D01*
X62562864Y-53106184D01*
X62557880Y-53175876D01*
X62556260Y-53179993D01*
X62526115Y-53252770D01*
X62526115Y-53342480D01*
X62526116Y-53342485D01*
X62560442Y-53425360D01*
X62623881Y-53488799D01*
X62687980Y-53515348D01*
X62706760Y-53523127D01*
X62706762Y-53523127D01*
X62796468Y-53523127D01*
X62796470Y-53523127D01*
X62837910Y-53505962D01*
X62879348Y-53488799D01*
X62879349Y-53488797D01*
X62879351Y-53488797D01*
X62942785Y-53425363D01*
X62942785Y-53425361D01*
X62942787Y-53425360D01*
X62959950Y-53383922D01*
X62977115Y-53342482D01*
X62977115Y-53252772D01*
X62977115Y-53240559D01*
X62980075Y-53240559D01*
X62984629Y-53189658D01*
X63027490Y-53134480D01*
X63093379Y-53111233D01*
X63100020Y-53111055D01*
X63152832Y-53111055D01*
X63152834Y-53111055D01*
X63194274Y-53093890D01*
X63235712Y-53076727D01*
X63235713Y-53076725D01*
X63235715Y-53076725D01*
X63299149Y-53013291D01*
X63299149Y-53013289D01*
X63299151Y-53013288D01*
X63324369Y-52952404D01*
X63333479Y-52930410D01*
X63333479Y-52840701D01*
X63628082Y-52840701D01*
X63628082Y-52930408D01*
X63628083Y-52930413D01*
X63662409Y-53013288D01*
X63725848Y-53076727D01*
X63783404Y-53100566D01*
X63808727Y-53111055D01*
X63808729Y-53111055D01*
X63898435Y-53111055D01*
X63898437Y-53111055D01*
X63939877Y-53093890D01*
X63981315Y-53076727D01*
X63981316Y-53076725D01*
X63981318Y-53076725D01*
X64044752Y-53013291D01*
X64044752Y-53013289D01*
X64044754Y-53013288D01*
X64069972Y-52952404D01*
X64079082Y-52930410D01*
X64079082Y-52840700D01*
X64062938Y-52801724D01*
X64044754Y-52757821D01*
X63981315Y-52694382D01*
X63898440Y-52660056D01*
X63898438Y-52660055D01*
X63898437Y-52660055D01*
X63808727Y-52660055D01*
X63808725Y-52660055D01*
X63808723Y-52660056D01*
X63725848Y-52694382D01*
X63662409Y-52757821D01*
X63628083Y-52840696D01*
X63628082Y-52840701D01*
X63333479Y-52840701D01*
X63333479Y-52840700D01*
X63317335Y-52801724D01*
X63299151Y-52757821D01*
X63235712Y-52694382D01*
X63152837Y-52660056D01*
X63152835Y-52660055D01*
X63152834Y-52660055D01*
X63063124Y-52660055D01*
X63051665Y-52662334D01*
X62982073Y-52656105D01*
X62926897Y-52613241D01*
X62903654Y-52547350D01*
X62910568Y-52506972D01*
X62909873Y-52506834D01*
X62912256Y-52494853D01*
X62912256Y-52405146D01*
X62912254Y-52405141D01*
X62877928Y-52322266D01*
X62814489Y-52258827D01*
X62731614Y-52224501D01*
X62731612Y-52224500D01*
X62731611Y-52224500D01*
X62641901Y-52224500D01*
X62641899Y-52224500D01*
X62641897Y-52224501D01*
X62559022Y-52258827D01*
X62495583Y-52322266D01*
X62461257Y-52405141D01*
X62461256Y-52405146D01*
X56901815Y-52405146D01*
X56877736Y-52381067D01*
X56877733Y-52381064D01*
X56794858Y-52346738D01*
X56794856Y-52346737D01*
X56794855Y-52346737D01*
X56705145Y-52346737D01*
X56705143Y-52346737D01*
X56705141Y-52346738D01*
X56622266Y-52381064D01*
X56558827Y-52444503D01*
X56524501Y-52527378D01*
X56524500Y-52527383D01*
X55577175Y-52527383D01*
X55563660Y-52494755D01*
X55563658Y-52494752D01*
X55500221Y-52431315D01*
X55417346Y-52396989D01*
X55417344Y-52396988D01*
X55417343Y-52396988D01*
X55327633Y-52396988D01*
X55327631Y-52396988D01*
X55327629Y-52396989D01*
X55244754Y-52431315D01*
X55181315Y-52494754D01*
X55146989Y-52577629D01*
X55146988Y-52577634D01*
X47853720Y-52577634D01*
X47853720Y-51414270D01*
X52425782Y-51414270D01*
X52425782Y-51513929D01*
X52451793Y-51576725D01*
X52463918Y-51605997D01*
X52534385Y-51676464D01*
X52626454Y-51714600D01*
X52626456Y-51714600D01*
X52726108Y-51714600D01*
X52726110Y-51714600D01*
X52818179Y-51676464D01*
X52888646Y-51605997D01*
X52926782Y-51513928D01*
X52926782Y-51444579D01*
X53521876Y-51444579D01*
X53521876Y-51544238D01*
X53541120Y-51590696D01*
X53560012Y-51636306D01*
X53630479Y-51706773D01*
X53722548Y-51744909D01*
X53722550Y-51744909D01*
X53822202Y-51744909D01*
X53822204Y-51744909D01*
X53914273Y-51706773D01*
X53984740Y-51636306D01*
X54022876Y-51544237D01*
X54022876Y-51455146D01*
X55774500Y-51455146D01*
X55774500Y-51544853D01*
X55774501Y-51544858D01*
X55808827Y-51627733D01*
X55872266Y-51691172D01*
X55936365Y-51717721D01*
X55955145Y-51725500D01*
X55955147Y-51725500D01*
X56044853Y-51725500D01*
X56044855Y-51725500D01*
X56090069Y-51706772D01*
X56127733Y-51691172D01*
X56127734Y-51691170D01*
X56127736Y-51691170D01*
X56191170Y-51627736D01*
X56191170Y-51627734D01*
X56191172Y-51627733D01*
X56206510Y-51590701D01*
X62544479Y-51590701D01*
X62544479Y-51680408D01*
X62544480Y-51680413D01*
X62578806Y-51763288D01*
X62642245Y-51826727D01*
X62706344Y-51853276D01*
X62725124Y-51861055D01*
X62725126Y-51861055D01*
X62814832Y-51861055D01*
X62814834Y-51861055D01*
X62897530Y-51826801D01*
X62966995Y-51819333D01*
X62992431Y-51826802D01*
X63035413Y-51844605D01*
X63075127Y-51861055D01*
X63075129Y-51861055D01*
X63164835Y-51861055D01*
X63164837Y-51861055D01*
X63206277Y-51843890D01*
X63247715Y-51826727D01*
X63247716Y-51826725D01*
X63247718Y-51826725D01*
X63311152Y-51763291D01*
X63342947Y-51686527D01*
X63347275Y-51681157D01*
X64416534Y-51681157D01*
X64416534Y-51770864D01*
X64416535Y-51770869D01*
X64450861Y-51853744D01*
X64514300Y-51917183D01*
X64578399Y-51943732D01*
X64597179Y-51951511D01*
X64597181Y-51951511D01*
X64686887Y-51951511D01*
X64686889Y-51951511D01*
X64728329Y-51934346D01*
X64769767Y-51917183D01*
X64769768Y-51917181D01*
X64769770Y-51917181D01*
X64833204Y-51853747D01*
X64833204Y-51853745D01*
X64833206Y-51853744D01*
X64850369Y-51812306D01*
X64867534Y-51770866D01*
X64867534Y-51681156D01*
X64848957Y-51636306D01*
X64833206Y-51598277D01*
X64769767Y-51534838D01*
X64686892Y-51500512D01*
X64686890Y-51500511D01*
X64686889Y-51500511D01*
X64597179Y-51500511D01*
X64597177Y-51500511D01*
X64597175Y-51500512D01*
X64514300Y-51534838D01*
X64450861Y-51598277D01*
X64416535Y-51681152D01*
X64416534Y-51681157D01*
X63347275Y-51681157D01*
X63386788Y-51632125D01*
X63453082Y-51610059D01*
X63465447Y-51611055D01*
X63475124Y-51611055D01*
X63564832Y-51611055D01*
X63564834Y-51611055D01*
X63613986Y-51590696D01*
X63647712Y-51576727D01*
X63647713Y-51576725D01*
X63647715Y-51576725D01*
X63711149Y-51513291D01*
X63711149Y-51513289D01*
X63711151Y-51513288D01*
X63728314Y-51471850D01*
X63745479Y-51430410D01*
X63745479Y-51340700D01*
X63733200Y-51311055D01*
X63711151Y-51257821D01*
X63647712Y-51194382D01*
X63564837Y-51160056D01*
X63564835Y-51160055D01*
X63564834Y-51160055D01*
X63475124Y-51160055D01*
X63475122Y-51160055D01*
X63475120Y-51160056D01*
X63392245Y-51194382D01*
X63328807Y-51257820D01*
X63297012Y-51334582D01*
X63253171Y-51388985D01*
X63204354Y-51409179D01*
X63175307Y-51414391D01*
X63164837Y-51410055D01*
X63075127Y-51410055D01*
X62992246Y-51444385D01*
X62988761Y-51447869D01*
X62966883Y-51451796D01*
X62944924Y-51449414D01*
X62922962Y-51451776D01*
X62897528Y-51444307D01*
X62897422Y-51444263D01*
X62897421Y-51444263D01*
X62897420Y-51444262D01*
X62814837Y-51410056D01*
X62814835Y-51410055D01*
X62814834Y-51410055D01*
X62725124Y-51410055D01*
X62725122Y-51410055D01*
X62725120Y-51410056D01*
X62642245Y-51444382D01*
X62578806Y-51507821D01*
X62544480Y-51590696D01*
X62544479Y-51590701D01*
X56206510Y-51590701D01*
X56212299Y-51576725D01*
X56225500Y-51544855D01*
X56225500Y-51455145D01*
X56215254Y-51430408D01*
X56191172Y-51372266D01*
X56127733Y-51308827D01*
X56113779Y-51303048D01*
X56044858Y-51274501D01*
X56044856Y-51274500D01*
X56044855Y-51274500D01*
X55955145Y-51274500D01*
X55955143Y-51274500D01*
X55955141Y-51274501D01*
X55872266Y-51308827D01*
X55808827Y-51372266D01*
X55774501Y-51455141D01*
X55774500Y-51455146D01*
X54022876Y-51455146D01*
X54022876Y-51444581D01*
X53984740Y-51352512D01*
X53914273Y-51282045D01*
X53892241Y-51272919D01*
X53822205Y-51243909D01*
X53822204Y-51243909D01*
X53722548Y-51243909D01*
X53722546Y-51243909D01*
X53630478Y-51282045D01*
X53560012Y-51352511D01*
X53521876Y-51444579D01*
X52926782Y-51444579D01*
X52926782Y-51414272D01*
X52888646Y-51322203D01*
X52818179Y-51251736D01*
X52799283Y-51243909D01*
X52726111Y-51213600D01*
X52726110Y-51213600D01*
X52626454Y-51213600D01*
X52626452Y-51213600D01*
X52534384Y-51251736D01*
X52463918Y-51322202D01*
X52425782Y-51414270D01*
X47853720Y-51414270D01*
X47853720Y-51200701D01*
X57495221Y-51200701D01*
X57495221Y-51290408D01*
X57495222Y-51290413D01*
X57529548Y-51373288D01*
X57592987Y-51436727D01*
X57657086Y-51463276D01*
X57675866Y-51471055D01*
X57675868Y-51471055D01*
X57765574Y-51471055D01*
X57765576Y-51471055D01*
X57782792Y-51463924D01*
X57848454Y-51436727D01*
X57848455Y-51436725D01*
X57848457Y-51436725D01*
X57911891Y-51373291D01*
X57911891Y-51373289D01*
X57911893Y-51373288D01*
X57933052Y-51322202D01*
X57946221Y-51290410D01*
X57946221Y-51200700D01*
X57929386Y-51160055D01*
X57911893Y-51117821D01*
X57848454Y-51054382D01*
X57765579Y-51020056D01*
X57765577Y-51020055D01*
X57765576Y-51020055D01*
X57675866Y-51020055D01*
X57675864Y-51020055D01*
X57675862Y-51020056D01*
X57592987Y-51054382D01*
X57529548Y-51117821D01*
X57495222Y-51200696D01*
X57495221Y-51200701D01*
X47853720Y-51200701D01*
X47853720Y-51010725D01*
X59769479Y-51010725D01*
X59769479Y-51010727D01*
X59769479Y-51110383D01*
X59807615Y-51202452D01*
X59878082Y-51272919D01*
X59970151Y-51311055D01*
X59970153Y-51311055D01*
X60069805Y-51311055D01*
X60069807Y-51311055D01*
X60161876Y-51272919D01*
X60232343Y-51202452D01*
X60270479Y-51110383D01*
X60270479Y-51010727D01*
X60232343Y-50918658D01*
X60161876Y-50848191D01*
X60069808Y-50810055D01*
X60069807Y-50810055D01*
X59970151Y-50810055D01*
X59970149Y-50810055D01*
X59878081Y-50848191D01*
X59807615Y-50918657D01*
X59769479Y-51010725D01*
X47853720Y-51010725D01*
X47853720Y-50529877D01*
X48599231Y-50529877D01*
X48599231Y-50619584D01*
X48599232Y-50619589D01*
X48633558Y-50702464D01*
X48696997Y-50765903D01*
X48761096Y-50792452D01*
X48779876Y-50800231D01*
X48779878Y-50800231D01*
X48869584Y-50800231D01*
X48869586Y-50800231D01*
X48911026Y-50783066D01*
X48952464Y-50765903D01*
X48952465Y-50765901D01*
X48952467Y-50765901D01*
X49015901Y-50702467D01*
X49015901Y-50702465D01*
X49015903Y-50702464D01*
X49033066Y-50661026D01*
X49050231Y-50619586D01*
X49050231Y-50529876D01*
X49042452Y-50511096D01*
X49015903Y-50446997D01*
X48952464Y-50383558D01*
X48869589Y-50349232D01*
X48869587Y-50349231D01*
X48869586Y-50349231D01*
X48779876Y-50349231D01*
X48779874Y-50349231D01*
X48779872Y-50349232D01*
X48696997Y-50383558D01*
X48633558Y-50446997D01*
X48599232Y-50529872D01*
X48599231Y-50529877D01*
X47853720Y-50529877D01*
X47853720Y-50205146D01*
X49274500Y-50205146D01*
X49274500Y-50294853D01*
X49274501Y-50294858D01*
X49308827Y-50377733D01*
X49372266Y-50441172D01*
X49436365Y-50467721D01*
X49455145Y-50475500D01*
X49455147Y-50475500D01*
X49544853Y-50475500D01*
X49544855Y-50475500D01*
X49586295Y-50458335D01*
X49627733Y-50441172D01*
X49627734Y-50441170D01*
X49627736Y-50441170D01*
X49691170Y-50377736D01*
X49691170Y-50377734D01*
X49691172Y-50377733D01*
X49721561Y-50304364D01*
X49725500Y-50294855D01*
X49725500Y-50205145D01*
X49705994Y-50158052D01*
X49691172Y-50122266D01*
X49627733Y-50058827D01*
X49544858Y-50024501D01*
X49544856Y-50024500D01*
X49544855Y-50024500D01*
X49455145Y-50024500D01*
X49455143Y-50024500D01*
X49455141Y-50024501D01*
X49372266Y-50058827D01*
X49308827Y-50122266D01*
X49274501Y-50205141D01*
X49274500Y-50205146D01*
X47853720Y-50205146D01*
X47853720Y-49824500D01*
X47873405Y-49757461D01*
X47926209Y-49711706D01*
X47977720Y-49700500D01*
X51150500Y-49700500D01*
X51217539Y-49720185D01*
G37*
%TD.AperFunction*%
%TD*%
M02*
