M48
; DRILL file KiCad 10.0.1 date 2026-08-13T13:53:41
; FORMAT={-:-/ absolute / inch / decimal}
; #@! TF.CreationDate,2026-08-13T13:53:41+01:00
; #@! TF.GenerationSoftware,Kicad,Pcbnew,10.0.1
; #@! TF.FileFunction,Plated,1,4,PTH
FMAT,2
INCH
; #@! TA.AperFunction,Plated,PTH,ViaDrill
T1C0.0059
; #@! TA.AperFunction,Plated,PTH,ViaDrill
T2C0.0079
; #@! TA.AperFunction,Plated,PTH,ViaDrill
T3C0.0118
%
G90
G05
T1
X1.7008Y-2.5393
X1.7165Y-2.5399
X1.7852Y-2.5559
X1.7913Y-2.7067
X1.7919Y-2.4943
X1.8437Y-2.435
X1.8701Y-2.6476
X1.8702Y-2.5396
X1.8996Y-1.9783
X1.8996Y-2.7077
X1.9222Y-1.9911
X1.9449Y-2.3721
X1.9488Y-1.9783
X1.9665Y-2.3524
X1.9873Y-2.3513
X2.0081Y-2.3512
X2.0276Y-1.9616
X2.0581Y-2.1959
X2.0768Y-2.1555
X2.1358Y-2.2244
X2.1358Y-2.3524
X2.18Y-2.0718
X2.2047Y-2.0276
X2.2146Y-2.1555
X2.2343Y-2.0698
X2.2647Y-2.1377
X2.2725Y-2.0175
X2.3819Y-2.185
X2.3819Y-2.2736
X2.4016Y-2.2008
X2.4049Y-2.2395
X2.422Y-2.0825
X2.4364Y-2.0995
X2.4366Y-2.1215
X2.4409Y-2.313
X2.4471Y-1.973
X2.468Y-2.065
X2.4681Y-2.0821
X2.4705Y-2.0983
X2.4713Y-2.0329
X2.4846Y-2.0821
X2.485Y-2.0329
X2.5008Y-2.0231
X2.5139Y-2.0821
X2.5386Y-2.1463
X2.545Y-2.0365
T2
X1.9193Y-2.2835
X1.9882Y-2.4016
X2.0304Y-2.3289
X2.0739Y-2.0261
X2.0741Y-2.333
X2.1161Y-2.4213
X2.117Y-2.0273
X2.1358Y-2.1752
X2.1397Y-2.4122
X2.1532Y-2.1853
X2.1555Y-2.2736
X2.1739Y-2.2552
X2.1958Y-2.1333
X2.225Y-2.0282
X2.2343Y-2.1457
X2.2539Y-2.3295
X2.2638Y-2.4606
X2.2884Y-2.5453
X2.3335Y-2.1412
X2.363Y-2.0103
X2.3824Y-2.1148
X2.3925Y-2.0821
X2.4213Y-2.4016
X2.4243Y-2.1647
X2.4516Y-2.0362
X2.4718Y-2.5899
X2.4876Y-2.1325
X2.502Y-2.2276
X2.5098Y-2.313
X2.5098Y-2.5
X2.5787Y-2.3622
T3
X2.041Y-2.5275
X2.0476Y-2.4941
X2.0915Y-2.5453
X2.1417Y-2.5285
X2.19Y-2.5453
X2.2244Y-2.5295
X2.2933Y-2.4508
X2.3299Y-2.1682
X2.4018Y-2.3524
X2.4213Y-2.4508
X2.5781Y-2.037
M30
