%TF.GenerationSoftware,KiCad,Pcbnew,10.0.1*%
%TF.CreationDate,2026-08-13T13:53:40+01:00*%
%TF.ProjectId,floating_hub,666c6f61-7469-46e6-975f-6875622e6b69,rev?*%
%TF.SameCoordinates,Original*%
%TF.FileFunction,Paste,Bot*%
%TF.FilePolarity,Positive*%
%FSLAX46Y46*%
G04 Gerber Fmt 4.6, Leading zero omitted, Abs format (unit mm)*
G04 Created by KiCad (PCBNEW 10.0.1) date 2026-08-13 13:53:40*
%MOMM*%
%LPD*%
G01*
G04 APERTURE LIST*
G04 Aperture macros list*
%AMRoundRect*
0 Rectangle with rounded corners*
0 $1 Rounding radius*
0 $2 $3 $4 $5 $6 $7 $8 $9 X,Y pos of 4 corners*
0 Add a 4 corners polygon primitive as box body*
4,1,4,$2,$3,$4,$5,$6,$7,$8,$9,$2,$3,0*
0 Add four circle primitives for the rounded corners*
1,1,$1+$1,$2,$3*
1,1,$1+$1,$4,$5*
1,1,$1+$1,$6,$7*
1,1,$1+$1,$8,$9*
0 Add four rect primitives between the rounded corners*
20,1,$1+$1,$2,$3,$4,$5,0*
20,1,$1+$1,$4,$5,$6,$7,0*
20,1,$1+$1,$6,$7,$8,$9,0*
20,1,$1+$1,$8,$9,$2,$3,0*%
G04 Aperture macros list end*
%ADD10R,1.333500X0.431800*%
%ADD11RoundRect,0.135000X0.185000X-0.135000X0.185000X0.135000X-0.185000X0.135000X-0.185000X-0.135000X0*%
%ADD12R,0.300000X0.450000*%
%ADD13R,0.450000X0.300000*%
%ADD14RoundRect,0.150000X0.150000X0.700000X-0.150000X0.700000X-0.150000X-0.700000X0.150000X-0.700000X0*%
%ADD15RoundRect,0.250000X0.250000X1.100000X-0.250000X1.100000X-0.250000X-1.100000X0.250000X-1.100000X0*%
%ADD16C,0.203200*%
%ADD17RoundRect,0.225000X-0.225000X-0.250000X0.225000X-0.250000X0.225000X0.250000X-0.225000X0.250000X0*%
%ADD18RoundRect,0.140000X-0.170000X0.140000X-0.170000X-0.140000X0.170000X-0.140000X0.170000X0.140000X0*%
%ADD19RoundRect,0.140000X0.170000X-0.140000X0.170000X0.140000X-0.170000X0.140000X-0.170000X-0.140000X0*%
%ADD20RoundRect,0.135000X-0.185000X0.135000X-0.185000X-0.135000X0.185000X-0.135000X0.185000X0.135000X0*%
%ADD21RoundRect,0.225000X0.250000X-0.225000X0.250000X0.225000X-0.250000X0.225000X-0.250000X-0.225000X0*%
%ADD22RoundRect,0.140000X-0.140000X-0.170000X0.140000X-0.170000X0.140000X0.170000X-0.140000X0.170000X0*%
%ADD23RoundRect,0.140000X0.140000X0.170000X-0.140000X0.170000X-0.140000X-0.170000X0.140000X-0.170000X0*%
%ADD24RoundRect,0.087500X-0.087500X0.225000X-0.087500X-0.225000X0.087500X-0.225000X0.087500X0.225000X0*%
%ADD25RoundRect,0.087500X-0.225000X0.087500X-0.225000X-0.087500X0.225000X-0.087500X0.225000X0.087500X0*%
%ADD26RoundRect,0.135000X-0.135000X-0.185000X0.135000X-0.185000X0.135000X0.185000X-0.135000X0.185000X0*%
%ADD27RoundRect,0.218750X0.381250X-0.218750X0.381250X0.218750X-0.381250X0.218750X-0.381250X-0.218750X0*%
G04 APERTURE END LIST*
D10*
%TO.C,U4*%
X57216150Y-59775001D03*
X57216150Y-60424999D03*
X57216150Y-61075001D03*
X57216150Y-61724999D03*
X52783850Y-61724999D03*
X52783850Y-61075001D03*
X52783850Y-60424999D03*
X52783850Y-59775001D03*
%TD*%
D11*
%TO.C,R7*%
X49376850Y-63718105D03*
X49376850Y-62698105D03*
%TD*%
D12*
%TO.C,U6*%
X44500000Y-66725000D03*
X45000000Y-66725000D03*
X45500000Y-66725000D03*
X46000000Y-66725000D03*
D13*
X46525000Y-67250000D03*
X46525000Y-67750000D03*
X46525000Y-68250000D03*
X46525000Y-68750000D03*
D12*
X46000000Y-69275000D03*
X45500000Y-69275000D03*
X45000000Y-69275000D03*
X44500000Y-69275000D03*
D13*
X43975000Y-68750000D03*
X43975000Y-68250000D03*
X43975000Y-67750000D03*
X43975000Y-67250000D03*
%TD*%
D11*
%TO.C,R6*%
X51750000Y-56260000D03*
X51750000Y-55240000D03*
%TD*%
D14*
%TO.C,J1*%
X63125000Y-64650000D03*
X61875000Y-64650000D03*
X60625000Y-64650000D03*
X59375000Y-64650000D03*
X58125000Y-64650000D03*
X56875000Y-64650000D03*
X55625000Y-64650000D03*
X54375000Y-64650000D03*
X53125000Y-64650000D03*
X51875000Y-64650000D03*
D15*
X64975000Y-67850000D03*
X50025000Y-67850000D03*
%TD*%
D16*
%TO.C,U2*%
X63526979Y-52005555D03*
X63107979Y-52005555D03*
X62688979Y-52005555D03*
X62269979Y-52005555D03*
X61850979Y-52005555D03*
X61431979Y-52005555D03*
X61012979Y-52005555D03*
X63526979Y-52445555D03*
X63107979Y-52445555D03*
X62688979Y-52445555D03*
X62269979Y-52445555D03*
X61850979Y-52445555D03*
X61431979Y-52445555D03*
X61012979Y-52445555D03*
X63526979Y-52885555D03*
X63107979Y-52885555D03*
X62688979Y-52885555D03*
X62269979Y-52885555D03*
X61850979Y-52885555D03*
X61431979Y-52885555D03*
X61012979Y-52885555D03*
X63526979Y-53325555D03*
X63107979Y-53325555D03*
X62688979Y-53325555D03*
X62269979Y-53325555D03*
X61850979Y-53325555D03*
X61431979Y-53325555D03*
X61012979Y-53325555D03*
X63526979Y-53765555D03*
X63107979Y-53765555D03*
X62688979Y-53765555D03*
X62269979Y-53765555D03*
X61850979Y-53765555D03*
X61431979Y-53765555D03*
X61012979Y-53765555D03*
%TD*%
D17*
%TO.C,C1*%
X61360528Y-50389287D03*
X62910528Y-50389287D03*
%TD*%
D18*
%TO.C,C8*%
X65504699Y-60661235D03*
X65504699Y-61621235D03*
%TD*%
D19*
%TO.C,C9*%
X51250000Y-61230000D03*
X51250000Y-60270000D03*
%TD*%
D20*
%TO.C,R4*%
X54000000Y-57240000D03*
X54000000Y-58260000D03*
%TD*%
D10*
%TO.C,U3*%
X59538549Y-62116234D03*
X59538549Y-61466236D03*
X59538549Y-60816234D03*
X59538549Y-60166236D03*
X63970849Y-60166236D03*
X63970849Y-60816234D03*
X63970849Y-61466236D03*
X63970849Y-62116234D03*
%TD*%
D21*
%TO.C,C5*%
X57409921Y-53571730D03*
X57409921Y-52021730D03*
%TD*%
D17*
%TO.C,C13*%
X44475000Y-65382478D03*
X46025000Y-65382478D03*
%TD*%
D11*
%TO.C,R5*%
X52750000Y-58270000D03*
X52750000Y-57250000D03*
%TD*%
D20*
%TO.C,R8*%
X50389749Y-62713681D03*
X50389749Y-63733681D03*
%TD*%
D22*
%TO.C,C12*%
X47139270Y-63987566D03*
X48099270Y-63987566D03*
%TD*%
D23*
%TO.C,C11*%
X48082565Y-61750000D03*
X47122565Y-61750000D03*
%TD*%
D11*
%TO.C,R3*%
X64762635Y-51355312D03*
X64762635Y-50335312D03*
%TD*%
D21*
%TO.C,C10*%
X48250000Y-68775000D03*
X48250000Y-67225000D03*
%TD*%
D20*
%TO.C,R2*%
X64798626Y-52839217D03*
X64798626Y-53859217D03*
%TD*%
D24*
%TO.C,U5*%
X44250000Y-61587500D03*
X44750000Y-61587500D03*
X45250000Y-61587500D03*
X45750000Y-61587500D03*
D25*
X45912500Y-62250000D03*
X45912500Y-62750000D03*
X45912500Y-63250000D03*
D24*
X45750000Y-63912500D03*
X45250000Y-63912500D03*
X44750000Y-63912500D03*
X44250000Y-63912500D03*
D25*
X44087500Y-63250000D03*
X44087500Y-62750000D03*
X44087500Y-62250000D03*
%TD*%
D26*
%TO.C,R1*%
X58744500Y-53885607D03*
X59764500Y-53885607D03*
%TD*%
D27*
%TO.C,L1*%
X59269979Y-52448055D03*
X59269979Y-50323055D03*
%TD*%
D11*
%TO.C,R9*%
X52750000Y-56260000D03*
X52750000Y-55240000D03*
%TD*%
M02*
