%TF.GenerationSoftware,KiCad,Pcbnew,10.0.1*%
%TF.CreationDate,2026-08-13T13:53:40+01:00*%
%TF.ProjectId,floating_hub,666c6f61-7469-46e6-975f-6875622e6b69,rev?*%
%TF.SameCoordinates,Original*%
%TF.FileFunction,Legend,Bot*%
%TF.FilePolarity,Positive*%
%FSLAX46Y46*%
G04 Gerber Fmt 4.6, Leading zero omitted, Abs format (unit mm)*
G04 Created by KiCad (PCBNEW 10.0.1) date 2026-08-13 13:53:40*
%MOMM*%
%LPD*%
G01*
G04 APERTURE LIST*
G04 Aperture macros list*
%AMRoundRect*
0 Rectangle with rounded corners*
0 $1 Rounding radius*
0 $2 $3 $4 $5 $6 $7 $8 $9 X,Y pos of 4 corners*
0 Add a 4 corners polygon primitive as box body*
4,1,4,$2,$3,$4,$5,$6,$7,$8,$9,$2,$3,0*
0 Add four circle primitives for the rounded corners*
1,1,$1+$1,$2,$3*
1,1,$1+$1,$4,$5*
1,1,$1+$1,$6,$7*
1,1,$1+$1,$8,$9*
0 Add four rect primitives between the rounded corners*
20,1,$1+$1,$2,$3,$4,$5,0*
20,1,$1+$1,$4,$5,$6,$7,0*
20,1,$1+$1,$6,$7,$8,$9,0*
20,1,$1+$1,$8,$9,$2,$3,0*%
G04 Aperture macros list end*
%ADD10C,0.150000*%
%ADD11C,0.200000*%
%ADD12C,0.152400*%
%ADD13C,0.120000*%
%ADD14C,0.100000*%
%ADD15C,0.990600*%
%ADD16C,0.650000*%
%ADD17R,1.333500X0.431800*%
%ADD18RoundRect,0.135000X0.185000X-0.135000X0.185000X0.135000X-0.185000X0.135000X-0.185000X-0.135000X0*%
%ADD19R,0.300000X0.450000*%
%ADD20R,0.450000X0.300000*%
%ADD21RoundRect,0.150000X0.150000X0.700000X-0.150000X0.700000X-0.150000X-0.700000X0.150000X-0.700000X0*%
%ADD22RoundRect,0.250000X0.250000X1.100000X-0.250000X1.100000X-0.250000X-1.100000X0.250000X-1.100000X0*%
%ADD23C,0.203200*%
%ADD24RoundRect,0.225000X-0.225000X-0.250000X0.225000X-0.250000X0.225000X0.250000X-0.225000X0.250000X0*%
%ADD25RoundRect,0.140000X-0.170000X0.140000X-0.170000X-0.140000X0.170000X-0.140000X0.170000X0.140000X0*%
%ADD26RoundRect,0.140000X0.170000X-0.140000X0.170000X0.140000X-0.170000X0.140000X-0.170000X-0.140000X0*%
%ADD27RoundRect,0.135000X-0.185000X0.135000X-0.185000X-0.135000X0.185000X-0.135000X0.185000X0.135000X0*%
%ADD28RoundRect,0.225000X0.250000X-0.225000X0.250000X0.225000X-0.250000X0.225000X-0.250000X-0.225000X0*%
%ADD29RoundRect,0.140000X-0.140000X-0.170000X0.140000X-0.170000X0.140000X0.170000X-0.140000X0.170000X0*%
%ADD30RoundRect,0.140000X0.140000X0.170000X-0.140000X0.170000X-0.140000X-0.170000X0.140000X-0.170000X0*%
%ADD31RoundRect,0.087500X-0.087500X0.225000X-0.087500X-0.225000X0.087500X-0.225000X0.087500X0.225000X0*%
%ADD32RoundRect,0.087500X-0.225000X0.087500X-0.225000X-0.087500X0.225000X-0.087500X0.225000X0.087500X0*%
%ADD33RoundRect,0.135000X-0.135000X-0.185000X0.135000X-0.185000X0.135000X0.185000X-0.135000X0.185000X0*%
%ADD34RoundRect,0.218750X0.381250X-0.218750X0.381250X0.218750X-0.381250X0.218750X-0.381250X-0.218750X0*%
G04 APERTURE END LIST*
D10*
X56140629Y-59954548D02*
X56140629Y-60764071D01*
X56140629Y-60764071D02*
X56093010Y-60859309D01*
X56093010Y-60859309D02*
X56045391Y-60906929D01*
X56045391Y-60906929D02*
X55950153Y-60954548D01*
X55950153Y-60954548D02*
X55759677Y-60954548D01*
X55759677Y-60954548D02*
X55664439Y-60906929D01*
X55664439Y-60906929D02*
X55616820Y-60859309D01*
X55616820Y-60859309D02*
X55569201Y-60764071D01*
X55569201Y-60764071D02*
X55569201Y-59954548D01*
X54664439Y-60287881D02*
X54664439Y-60954548D01*
X54902534Y-59906929D02*
X55140629Y-60621214D01*
X55140629Y-60621214D02*
X54521582Y-60621214D01*
D11*
G36*
X47682208Y-59377263D02*
G01*
X46350146Y-59377263D01*
X46350146Y-59100677D01*
X46461257Y-59100677D01*
X46461257Y-59266152D01*
X47571097Y-59266152D01*
X47571097Y-58986311D01*
X46975327Y-58986311D01*
X46859181Y-58984181D01*
X46821515Y-58980266D01*
X46799519Y-58969315D01*
X46783047Y-58947232D01*
X46774271Y-58911715D01*
X46769980Y-58824988D01*
X46769980Y-58795679D01*
X46638455Y-58795679D01*
X46616339Y-58875760D01*
X46587326Y-58945112D01*
X46551813Y-59005050D01*
X46509874Y-59056643D01*
X46461257Y-59100677D01*
X46350146Y-59100677D01*
X46350146Y-58353600D01*
X46461257Y-58353600D01*
X46902541Y-58399948D01*
X47239720Y-58426995D01*
X46926378Y-58449303D01*
X46668802Y-58472180D01*
X46461257Y-58492146D01*
X46461257Y-58799465D01*
X47571097Y-58652736D01*
X47571097Y-58212794D01*
X46461257Y-58046281D01*
X46461257Y-58353600D01*
X46350146Y-58353600D01*
X46350146Y-57935170D01*
X47682208Y-57935170D01*
X47682208Y-59377263D01*
G37*
G36*
X45300742Y-58204614D02*
G01*
X45295005Y-58240548D01*
X45280469Y-58260362D01*
X45250182Y-58273924D01*
X45162073Y-58296022D01*
X45114172Y-58303127D01*
X45090387Y-58301884D01*
X45073336Y-58294483D01*
X45065047Y-58283810D01*
X45061358Y-58267054D01*
X45059124Y-58229160D01*
X45301352Y-58178846D01*
X45300742Y-58204614D01*
G37*
G36*
X45779173Y-58129509D02*
G01*
X45767123Y-58154300D01*
X45743023Y-58170157D01*
X45683287Y-58187700D01*
X45579117Y-58209315D01*
X45515011Y-58217760D01*
X45493755Y-58213040D01*
X45483816Y-58195224D01*
X45477329Y-58142210D01*
X45785930Y-58078096D01*
X45779173Y-58129509D01*
G37*
G36*
X43620742Y-56130015D02*
G01*
X43615005Y-56165949D01*
X43600469Y-56185764D01*
X43570182Y-56199325D01*
X43482073Y-56221423D01*
X43434172Y-56228529D01*
X43410387Y-56227285D01*
X43393336Y-56219884D01*
X43385047Y-56209211D01*
X43381358Y-56192456D01*
X43379124Y-56154562D01*
X43621352Y-56104248D01*
X43620742Y-56130015D01*
G37*
G36*
X44099173Y-56054910D02*
G01*
X44087123Y-56079701D01*
X44063023Y-56095558D01*
X44003287Y-56113101D01*
X43899117Y-56134717D01*
X43835011Y-56143161D01*
X43813755Y-56138442D01*
X43803816Y-56120625D01*
X43797329Y-56067611D01*
X44105930Y-56003497D01*
X44099173Y-56054910D01*
G37*
G36*
X43898873Y-55387517D02*
G01*
X43700809Y-55408960D01*
X43432980Y-55443815D01*
X43732862Y-55345777D01*
X43898873Y-55295621D01*
X43898873Y-55387517D01*
G37*
G36*
X43617653Y-53712735D02*
G01*
X43608468Y-53737229D01*
X43597102Y-53748237D01*
X43571522Y-53760447D01*
X43523106Y-53773499D01*
X43462228Y-53786200D01*
X43415461Y-53790316D01*
X43394878Y-53782597D01*
X43383948Y-53763426D01*
X43379124Y-53721903D01*
X43621413Y-53671528D01*
X43617653Y-53712735D01*
G37*
G36*
X45297653Y-52535973D02*
G01*
X45288468Y-52560467D01*
X45277102Y-52571475D01*
X45251522Y-52583685D01*
X45203106Y-52596737D01*
X45142228Y-52609438D01*
X45095461Y-52613554D01*
X45074878Y-52605835D01*
X45063948Y-52586664D01*
X45059124Y-52545141D01*
X45301413Y-52494766D01*
X45297653Y-52535973D01*
G37*
G36*
X46112036Y-59418237D02*
G01*
X43076527Y-59418237D01*
X43076527Y-59307126D01*
X45239925Y-59307126D01*
X45437396Y-59266093D01*
X45481289Y-59198649D01*
X45508909Y-59142420D01*
X45523618Y-59095443D01*
X45528071Y-59055861D01*
X45523158Y-59018170D01*
X45505707Y-58966296D01*
X45470674Y-58895760D01*
X45444676Y-58840665D01*
X45438189Y-58808626D01*
X45443103Y-58776096D01*
X45460494Y-58732322D01*
X45495518Y-58673548D01*
X45554632Y-58595586D01*
X45356979Y-58636679D01*
X45314103Y-58699608D01*
X45286337Y-58755335D01*
X45271037Y-58805114D01*
X45266242Y-58850209D01*
X45270733Y-58887468D01*
X45286118Y-58935117D01*
X45316007Y-58996022D01*
X45348333Y-59063147D01*
X45356124Y-59099459D01*
X45351896Y-59130286D01*
X45337622Y-59168091D01*
X45310196Y-59213024D01*
X45239925Y-59307126D01*
X43076527Y-59307126D01*
X43076527Y-58701892D01*
X43559925Y-58701892D01*
X43757396Y-58660860D01*
X43801289Y-58593416D01*
X43828909Y-58537186D01*
X43843618Y-58490209D01*
X43848071Y-58450628D01*
X43843158Y-58412937D01*
X43825707Y-58361062D01*
X43790674Y-58290526D01*
X43764676Y-58235432D01*
X43758189Y-58203393D01*
X43763103Y-58170863D01*
X43780494Y-58127088D01*
X43815518Y-58068315D01*
X43874632Y-57990352D01*
X43676979Y-58031446D01*
X43634103Y-58094375D01*
X43606337Y-58150102D01*
X43591037Y-58199880D01*
X43586242Y-58244975D01*
X43590733Y-58282235D01*
X43606118Y-58329884D01*
X43636007Y-58390788D01*
X43668333Y-58457913D01*
X43676124Y-58494225D01*
X43671896Y-58525052D01*
X43657622Y-58562857D01*
X43630196Y-58607790D01*
X43559925Y-58701892D01*
X43076527Y-58701892D01*
X43076527Y-57983696D01*
X44867638Y-57983696D01*
X44867638Y-58142210D01*
X44867638Y-58229160D01*
X44867638Y-58265980D01*
X44870586Y-58355713D01*
X44878206Y-58419765D01*
X44888887Y-58463817D01*
X44907874Y-58502936D01*
X44936129Y-58533831D01*
X44974983Y-58557545D01*
X45019474Y-58569490D01*
X45086111Y-58570923D01*
X45183200Y-58556812D01*
X45246991Y-58539435D01*
X45290447Y-58519742D01*
X45318632Y-58498621D01*
X45340357Y-58470918D01*
X45359620Y-58431295D01*
X45375724Y-58376439D01*
X45395032Y-58430196D01*
X45419886Y-58465212D01*
X45449913Y-58486226D01*
X45486328Y-58496436D01*
X45538576Y-58498113D01*
X45612212Y-58487691D01*
X45715161Y-58466320D01*
X45790163Y-58447340D01*
X45844568Y-58427081D01*
X45882711Y-58406236D01*
X45915640Y-58378963D01*
X45940298Y-58347159D01*
X45957450Y-58310188D01*
X45967037Y-58268604D01*
X45974444Y-58196327D01*
X45977478Y-58080722D01*
X45977478Y-57752948D01*
X44867638Y-57983696D01*
X43076527Y-57983696D01*
X43076527Y-57967210D01*
X43559925Y-57967210D01*
X43757396Y-57926177D01*
X43801289Y-57858733D01*
X43828909Y-57802504D01*
X43843618Y-57755527D01*
X43848071Y-57715945D01*
X43843158Y-57678254D01*
X43825707Y-57626379D01*
X43790674Y-57555844D01*
X43764676Y-57500749D01*
X43758189Y-57468710D01*
X43763103Y-57436180D01*
X43780494Y-57392405D01*
X43815518Y-57333632D01*
X43874632Y-57255670D01*
X43676979Y-57296763D01*
X43634103Y-57359692D01*
X43606337Y-57415419D01*
X43591037Y-57465198D01*
X43586242Y-57510293D01*
X43590733Y-57547552D01*
X43606118Y-57595201D01*
X43636007Y-57656106D01*
X43668333Y-57723231D01*
X43676124Y-57759542D01*
X43671896Y-57790370D01*
X43657622Y-57828175D01*
X43630196Y-57873108D01*
X43559925Y-57967210D01*
X43076527Y-57967210D01*
X43076527Y-57232527D01*
X43559925Y-57232527D01*
X43645435Y-57214759D01*
X44867638Y-57214759D01*
X44867638Y-57500034D01*
X45699102Y-57327171D01*
X45765025Y-57315946D01*
X45790326Y-57315509D01*
X45804487Y-57323207D01*
X45809438Y-57340605D01*
X45803996Y-57362817D01*
X45787884Y-57378035D01*
X45758567Y-57389137D01*
X45683959Y-57407100D01*
X44867638Y-57576849D01*
X44867638Y-57862124D01*
X45609281Y-57707885D01*
X45725478Y-57681298D01*
X45786296Y-57663066D01*
X45836001Y-57637759D01*
X45891382Y-57593518D01*
X45924363Y-57557495D01*
X45951545Y-57517149D01*
X45973142Y-57472007D01*
X45993723Y-57398547D01*
X46000925Y-57313555D01*
X45996916Y-57249348D01*
X45985633Y-57194792D01*
X45967891Y-57148386D01*
X45942416Y-57106126D01*
X45913752Y-57075447D01*
X45881734Y-57054413D01*
X45845540Y-57040539D01*
X45808434Y-57033741D01*
X45769810Y-57033897D01*
X45695490Y-57044807D01*
X45523674Y-57078349D01*
X44867638Y-57214759D01*
X43645435Y-57214759D01*
X43757396Y-57191495D01*
X43801289Y-57124051D01*
X43828909Y-57067821D01*
X43843618Y-57020844D01*
X43848071Y-56981263D01*
X43843158Y-56943572D01*
X43825707Y-56891697D01*
X43790674Y-56821161D01*
X43764676Y-56766067D01*
X43758189Y-56734028D01*
X43763103Y-56701498D01*
X43780494Y-56657723D01*
X43815518Y-56598950D01*
X43874632Y-56520987D01*
X43676979Y-56562081D01*
X43634103Y-56625010D01*
X43606337Y-56680737D01*
X43591037Y-56730515D01*
X43586242Y-56775610D01*
X43590733Y-56812870D01*
X43606118Y-56860519D01*
X43636007Y-56921423D01*
X43668333Y-56988548D01*
X43676124Y-57024860D01*
X43671896Y-57055687D01*
X43657622Y-57093492D01*
X43630196Y-57138425D01*
X43559925Y-57232527D01*
X43076527Y-57232527D01*
X43076527Y-55909098D01*
X43187638Y-55909098D01*
X43187638Y-56067611D01*
X43187638Y-56154562D01*
X43187638Y-56191381D01*
X43190586Y-56281115D01*
X43198206Y-56345166D01*
X43208887Y-56389218D01*
X43227874Y-56428337D01*
X43256129Y-56459233D01*
X43294983Y-56482946D01*
X43339474Y-56494891D01*
X43406111Y-56496325D01*
X43503200Y-56482213D01*
X43566991Y-56464837D01*
X43610447Y-56445143D01*
X43614595Y-56442035D01*
X44867638Y-56442035D01*
X44867638Y-56727311D01*
X45262334Y-56645245D01*
X45262334Y-56725479D01*
X44867638Y-56807545D01*
X44867638Y-57092820D01*
X45977478Y-56862072D01*
X45977478Y-56576796D01*
X45512439Y-56673455D01*
X45512439Y-56593222D01*
X45977478Y-56496563D01*
X45977478Y-56211287D01*
X44867638Y-56442035D01*
X43614595Y-56442035D01*
X43638632Y-56424023D01*
X43660357Y-56396319D01*
X43679620Y-56356696D01*
X43695724Y-56301840D01*
X43715032Y-56355598D01*
X43739886Y-56390614D01*
X43769913Y-56411627D01*
X43806328Y-56421838D01*
X43858576Y-56423514D01*
X43932212Y-56413093D01*
X44035161Y-56391721D01*
X44110163Y-56372741D01*
X44164568Y-56352483D01*
X44202711Y-56331638D01*
X44235640Y-56304364D01*
X44260298Y-56272561D01*
X44277450Y-56235589D01*
X44287037Y-56194005D01*
X44294444Y-56121728D01*
X44297478Y-56006123D01*
X44297478Y-55760292D01*
X44844191Y-55760292D01*
X44848765Y-55833063D01*
X44861403Y-55892387D01*
X44880888Y-55940605D01*
X44909289Y-55983331D01*
X44939932Y-56010220D01*
X44973395Y-56024563D01*
X45011366Y-56029028D01*
X45071529Y-56025773D01*
X45162195Y-56010641D01*
X45207624Y-56001177D01*
X45207624Y-55735990D01*
X45122689Y-55753637D01*
X45070452Y-55761292D01*
X45050637Y-55759132D01*
X45039751Y-55749472D01*
X45035677Y-55730739D01*
X45040673Y-55708310D01*
X45056071Y-55689279D01*
X45079858Y-55675235D01*
X45118536Y-55663572D01*
X45169445Y-55657276D01*
X45199930Y-55661130D01*
X45226164Y-55677599D01*
X45266792Y-55725732D01*
X45350309Y-55833308D01*
X45411722Y-55894408D01*
X45456446Y-55923752D01*
X45492351Y-55935185D01*
X45541221Y-55940482D01*
X45606794Y-55937558D01*
X45693362Y-55923630D01*
X45772057Y-55903606D01*
X45828802Y-55882145D01*
X45868301Y-55860005D01*
X45902157Y-55830639D01*
X45933698Y-55789821D01*
X45962823Y-55735135D01*
X45983751Y-55676855D01*
X45996544Y-55614081D01*
X46000925Y-55546030D01*
X45995488Y-55471442D01*
X45980416Y-55410681D01*
X45956961Y-55361200D01*
X45923534Y-55318930D01*
X45886551Y-55292358D01*
X45844976Y-55278951D01*
X45799412Y-55275768D01*
X45736779Y-55279909D01*
X45652573Y-55294033D01*
X45578873Y-55309359D01*
X45578873Y-55574546D01*
X45714855Y-55546275D01*
X45770757Y-55538157D01*
X45792708Y-55540535D01*
X45804773Y-55551568D01*
X45809438Y-55574363D01*
X45804017Y-55599094D01*
X45787518Y-55619425D01*
X45762024Y-55634347D01*
X45721572Y-55646536D01*
X45655414Y-55656269D01*
X45616615Y-55654906D01*
X45595543Y-55647269D01*
X45562508Y-55616982D01*
X45495403Y-55536871D01*
X45427706Y-55455429D01*
X45391722Y-55419024D01*
X45354920Y-55396415D01*
X45302207Y-55380678D01*
X45241448Y-55377072D01*
X45156516Y-55388433D01*
X45072091Y-55410307D01*
X45011669Y-55434201D01*
X44969976Y-55459202D01*
X44934099Y-55491716D01*
X44903309Y-55532124D01*
X44877530Y-55581568D01*
X44859407Y-55634611D01*
X44848119Y-55693861D01*
X44844191Y-55760292D01*
X44297478Y-55760292D01*
X44297478Y-55678349D01*
X43187638Y-55909098D01*
X43076527Y-55909098D01*
X43076527Y-55277913D01*
X43187638Y-55277913D01*
X43187638Y-55443815D01*
X43187638Y-55688302D01*
X44297478Y-55619120D01*
X44297478Y-55327006D01*
X44098175Y-55354483D01*
X44098175Y-55257275D01*
X44297478Y-55199145D01*
X44297478Y-55036357D01*
X44844191Y-55036357D01*
X44848765Y-55109127D01*
X44861403Y-55168451D01*
X44880888Y-55216669D01*
X44909289Y-55259395D01*
X44939932Y-55286285D01*
X44973395Y-55300627D01*
X45011366Y-55305092D01*
X45071529Y-55301837D01*
X45162195Y-55286706D01*
X45207624Y-55277241D01*
X45207624Y-55012054D01*
X45122689Y-55029701D01*
X45070452Y-55037357D01*
X45050637Y-55035196D01*
X45039751Y-55025536D01*
X45035677Y-55006803D01*
X45040673Y-54984374D01*
X45056071Y-54965343D01*
X45079858Y-54951299D01*
X45118536Y-54939636D01*
X45169445Y-54933340D01*
X45199930Y-54937194D01*
X45226164Y-54953663D01*
X45266792Y-55001796D01*
X45350309Y-55109372D01*
X45411722Y-55170472D01*
X45456446Y-55199816D01*
X45492351Y-55211249D01*
X45541221Y-55216546D01*
X45606794Y-55213623D01*
X45693362Y-55199694D01*
X45772057Y-55179671D01*
X45828802Y-55158209D01*
X45868301Y-55136069D01*
X45902157Y-55106704D01*
X45933698Y-55065886D01*
X45962823Y-55011200D01*
X45983751Y-54952919D01*
X45996544Y-54890145D01*
X46000925Y-54822095D01*
X45995488Y-54747506D01*
X45980416Y-54686745D01*
X45956961Y-54637264D01*
X45923534Y-54594994D01*
X45886551Y-54568422D01*
X45844976Y-54555015D01*
X45799412Y-54551833D01*
X45736779Y-54555974D01*
X45652573Y-54570097D01*
X45578873Y-54585423D01*
X45578873Y-54850610D01*
X45714855Y-54822339D01*
X45770757Y-54814222D01*
X45792708Y-54816599D01*
X45804773Y-54827633D01*
X45809438Y-54850427D01*
X45804017Y-54875158D01*
X45787518Y-54895490D01*
X45762024Y-54910411D01*
X45721572Y-54922601D01*
X45655414Y-54932333D01*
X45616615Y-54930970D01*
X45595543Y-54923333D01*
X45562508Y-54893047D01*
X45495403Y-54812936D01*
X45427706Y-54731493D01*
X45391722Y-54695088D01*
X45354920Y-54672479D01*
X45302207Y-54656742D01*
X45241448Y-54653136D01*
X45156516Y-54664497D01*
X45072091Y-54686371D01*
X45011669Y-54710265D01*
X44969976Y-54735266D01*
X44934099Y-54767780D01*
X44903309Y-54808188D01*
X44877530Y-54857632D01*
X44859407Y-54910675D01*
X44848119Y-54969925D01*
X44844191Y-55036357D01*
X44297478Y-55036357D01*
X44297478Y-54903611D01*
X43187638Y-55277913D01*
X43076527Y-55277913D01*
X43076527Y-54632196D01*
X43187638Y-54632196D01*
X43187638Y-54917472D01*
X44070820Y-54733801D01*
X44070820Y-54904893D01*
X44297478Y-54857815D01*
X44297478Y-54401448D01*
X43187638Y-54632196D01*
X43076527Y-54632196D01*
X43076527Y-54229684D01*
X43187638Y-54229684D01*
X43187638Y-54514959D01*
X44297478Y-54284211D01*
X44297478Y-54166669D01*
X44867638Y-54166669D01*
X44867638Y-54639706D01*
X45094295Y-54592567D01*
X45094295Y-54404806D01*
X45297505Y-54362552D01*
X45297505Y-54538284D01*
X45512439Y-54493588D01*
X45512439Y-54317855D01*
X45750820Y-54268274D01*
X45750820Y-54474781D01*
X45977478Y-54427703D01*
X45977478Y-53935921D01*
X44867638Y-54166669D01*
X44297478Y-54166669D01*
X44297478Y-53998935D01*
X43187638Y-54229684D01*
X43076527Y-54229684D01*
X43076527Y-53476439D01*
X43187638Y-53476439D01*
X43187638Y-53677206D01*
X43188867Y-53721903D01*
X43192672Y-53860263D01*
X43203453Y-53944286D01*
X43219461Y-53985457D01*
X43245948Y-54018065D01*
X43284358Y-54043449D01*
X43329137Y-54056654D01*
X43395377Y-54058967D01*
X43491110Y-54045403D01*
X43577159Y-54022963D01*
X43632280Y-54000021D01*
X43665133Y-53977503D01*
X43689737Y-53947251D01*
X43707562Y-53906542D01*
X43717767Y-53852451D01*
X43733808Y-53896984D01*
X43752240Y-53925996D01*
X43772600Y-53943553D01*
X43808688Y-53960487D01*
X43838912Y-53966024D01*
X43881256Y-53961868D01*
X44003531Y-53938913D01*
X44297478Y-53877791D01*
X44297478Y-53634220D01*
X44867638Y-53634220D01*
X44867638Y-53919495D01*
X45750820Y-53735825D01*
X45750820Y-53906917D01*
X45977478Y-53859839D01*
X45977478Y-53403471D01*
X44867638Y-53634220D01*
X44297478Y-53634220D01*
X44297478Y-53612543D01*
X43926473Y-53689663D01*
X43845866Y-53701846D01*
X43817662Y-53699127D01*
X43807842Y-53690504D01*
X43800454Y-53671394D01*
X43797268Y-53634952D01*
X44297478Y-53530966D01*
X44297478Y-53245690D01*
X43187638Y-53476439D01*
X43076527Y-53476439D01*
X43076527Y-52783522D01*
X43187638Y-52783522D01*
X43187638Y-53402250D01*
X43414295Y-53355111D01*
X43414295Y-53188049D01*
X44064273Y-53052922D01*
X44867638Y-53052922D01*
X44867638Y-53525959D01*
X45094295Y-53478820D01*
X45094295Y-53291058D01*
X45297505Y-53248804D01*
X45297505Y-53424537D01*
X45512439Y-53379841D01*
X45512439Y-53204108D01*
X45750820Y-53154527D01*
X45750820Y-53361034D01*
X45977478Y-53313956D01*
X45977478Y-52822173D01*
X44867638Y-53052922D01*
X44064273Y-53052922D01*
X44297478Y-53004440D01*
X44297478Y-52719164D01*
X43414295Y-52902773D01*
X43414295Y-52736383D01*
X43187638Y-52783522D01*
X43076527Y-52783522D01*
X43076527Y-52647601D01*
X43559925Y-52647601D01*
X43757396Y-52606568D01*
X43801289Y-52539124D01*
X43828909Y-52482895D01*
X43843618Y-52435917D01*
X43848071Y-52396336D01*
X43843158Y-52358645D01*
X43825707Y-52306770D01*
X43822184Y-52299677D01*
X44867638Y-52299677D01*
X44867638Y-52500444D01*
X44868867Y-52545141D01*
X44872672Y-52683500D01*
X44883453Y-52767524D01*
X44899461Y-52808695D01*
X44925948Y-52841303D01*
X44964358Y-52866686D01*
X45009137Y-52879892D01*
X45075377Y-52882205D01*
X45171110Y-52868640D01*
X45257159Y-52846201D01*
X45312280Y-52823259D01*
X45345133Y-52800741D01*
X45369737Y-52770489D01*
X45387562Y-52729779D01*
X45397767Y-52675688D01*
X45413808Y-52720222D01*
X45432240Y-52749234D01*
X45452600Y-52766791D01*
X45488688Y-52783725D01*
X45518912Y-52789261D01*
X45561256Y-52785106D01*
X45683531Y-52762150D01*
X45977478Y-52701029D01*
X45977478Y-52435781D01*
X45606473Y-52512901D01*
X45525866Y-52525083D01*
X45497662Y-52522365D01*
X45487842Y-52513741D01*
X45480454Y-52494631D01*
X45477268Y-52458190D01*
X45977478Y-52354204D01*
X45977478Y-52068928D01*
X44867638Y-52299677D01*
X43822184Y-52299677D01*
X43790674Y-52236235D01*
X43764676Y-52181140D01*
X43758189Y-52149101D01*
X43763103Y-52116571D01*
X43780494Y-52072796D01*
X43815518Y-52014023D01*
X43874632Y-51936060D01*
X43676979Y-51977154D01*
X43634103Y-52040083D01*
X43606337Y-52095810D01*
X43591037Y-52145588D01*
X43586242Y-52190683D01*
X43590733Y-52227943D01*
X43606118Y-52275592D01*
X43636007Y-52336496D01*
X43668333Y-52403621D01*
X43676124Y-52439933D01*
X43671896Y-52470760D01*
X43657622Y-52508566D01*
X43630196Y-52553498D01*
X43559925Y-52647601D01*
X43076527Y-52647601D01*
X43076527Y-51912918D01*
X43559925Y-51912918D01*
X43635741Y-51897164D01*
X44867638Y-51897164D01*
X44867638Y-52182440D01*
X45977478Y-51951692D01*
X45977478Y-51666416D01*
X44867638Y-51897164D01*
X43635741Y-51897164D01*
X43757396Y-51871885D01*
X43801289Y-51804442D01*
X43828909Y-51748212D01*
X43843618Y-51701235D01*
X43848071Y-51661653D01*
X43843158Y-51623962D01*
X43825707Y-51572088D01*
X43790674Y-51501552D01*
X43764676Y-51446458D01*
X43758189Y-51414419D01*
X43763103Y-51381889D01*
X43780494Y-51338114D01*
X43815518Y-51279341D01*
X43874632Y-51201378D01*
X43676979Y-51242472D01*
X43634103Y-51305401D01*
X43606337Y-51361128D01*
X43591037Y-51410906D01*
X43586242Y-51456001D01*
X43590733Y-51493260D01*
X43606118Y-51540910D01*
X43636007Y-51601814D01*
X43668333Y-51668939D01*
X43676124Y-51705251D01*
X43671896Y-51736078D01*
X43657622Y-51773883D01*
X43630196Y-51818816D01*
X43559925Y-51912918D01*
X43076527Y-51912918D01*
X43076527Y-51178236D01*
X43559925Y-51178236D01*
X43757396Y-51137203D01*
X43801289Y-51069759D01*
X43828909Y-51013530D01*
X43843618Y-50966552D01*
X43848071Y-50926971D01*
X43843158Y-50889280D01*
X43825707Y-50837405D01*
X43790674Y-50766870D01*
X43764676Y-50711775D01*
X43762442Y-50700741D01*
X44867638Y-50700741D01*
X44867638Y-50978079D01*
X45255679Y-50926238D01*
X45631019Y-50875619D01*
X45317116Y-50964205D01*
X44867638Y-51110031D01*
X44867638Y-51406236D01*
X45234796Y-51360929D01*
X45658374Y-51301578D01*
X45389273Y-51375597D01*
X45125745Y-51455868D01*
X44867638Y-51542341D01*
X44867638Y-51819739D01*
X45977478Y-51463572D01*
X45977478Y-51108626D01*
X45711675Y-51120166D01*
X45392333Y-51147034D01*
X45571191Y-51088439D01*
X45977478Y-50949014D01*
X45977478Y-50596022D01*
X44867638Y-50700741D01*
X43762442Y-50700741D01*
X43758189Y-50679736D01*
X43763103Y-50647206D01*
X43780494Y-50603431D01*
X43798627Y-50573002D01*
X45239925Y-50573002D01*
X45437396Y-50531969D01*
X45481289Y-50464525D01*
X45508909Y-50408296D01*
X45523618Y-50361318D01*
X45528071Y-50321737D01*
X45523158Y-50284046D01*
X45505707Y-50232171D01*
X45470674Y-50161636D01*
X45444676Y-50106541D01*
X45438189Y-50074502D01*
X45443103Y-50041972D01*
X45460494Y-49998197D01*
X45495518Y-49939424D01*
X45554632Y-49861461D01*
X45356979Y-49902555D01*
X45314103Y-49965484D01*
X45286337Y-50021211D01*
X45271037Y-50070989D01*
X45266242Y-50116084D01*
X45270733Y-50153344D01*
X45286118Y-50200993D01*
X45316007Y-50261897D01*
X45348333Y-50329022D01*
X45356124Y-50365334D01*
X45351896Y-50396161D01*
X45337622Y-50433967D01*
X45310196Y-50478899D01*
X45239925Y-50573002D01*
X43798627Y-50573002D01*
X43815518Y-50544658D01*
X43874632Y-50466695D01*
X43676979Y-50507789D01*
X43634103Y-50570718D01*
X43606337Y-50626445D01*
X43591037Y-50676223D01*
X43586242Y-50721318D01*
X43590733Y-50758578D01*
X43606118Y-50806227D01*
X43636007Y-50867131D01*
X43668333Y-50934256D01*
X43676124Y-50970568D01*
X43671896Y-51001395D01*
X43657622Y-51039201D01*
X43630196Y-51084133D01*
X43559925Y-51178236D01*
X43076527Y-51178236D01*
X43076527Y-49750350D01*
X46112036Y-49750350D01*
X46112036Y-59418237D01*
G37*
D10*
X57177002Y-58363010D02*
X57177002Y-58601105D01*
X57415097Y-58505867D02*
X57177002Y-58601105D01*
X57177002Y-58601105D02*
X56938907Y-58505867D01*
X57319859Y-58791581D02*
X57177002Y-58601105D01*
X57177002Y-58601105D02*
X57034145Y-58791581D01*
X57945694Y-58351184D02*
X57945694Y-58589279D01*
X58183789Y-58494041D02*
X57945694Y-58589279D01*
X57945694Y-58589279D02*
X57707599Y-58494041D01*
X58088551Y-58779755D02*
X57945694Y-58589279D01*
X57945694Y-58589279D02*
X57802837Y-58779755D01*
X46011904Y-67454819D02*
X46011904Y-68264342D01*
X46011904Y-68264342D02*
X45964285Y-68359580D01*
X45964285Y-68359580D02*
X45916666Y-68407200D01*
X45916666Y-68407200D02*
X45821428Y-68454819D01*
X45821428Y-68454819D02*
X45630952Y-68454819D01*
X45630952Y-68454819D02*
X45535714Y-68407200D01*
X45535714Y-68407200D02*
X45488095Y-68359580D01*
X45488095Y-68359580D02*
X45440476Y-68264342D01*
X45440476Y-68264342D02*
X45440476Y-67454819D01*
X44535714Y-67454819D02*
X44726190Y-67454819D01*
X44726190Y-67454819D02*
X44821428Y-67502438D01*
X44821428Y-67502438D02*
X44869047Y-67550057D01*
X44869047Y-67550057D02*
X44964285Y-67692914D01*
X44964285Y-67692914D02*
X45011904Y-67883390D01*
X45011904Y-67883390D02*
X45011904Y-68264342D01*
X45011904Y-68264342D02*
X44964285Y-68359580D01*
X44964285Y-68359580D02*
X44916666Y-68407200D01*
X44916666Y-68407200D02*
X44821428Y-68454819D01*
X44821428Y-68454819D02*
X44630952Y-68454819D01*
X44630952Y-68454819D02*
X44535714Y-68407200D01*
X44535714Y-68407200D02*
X44488095Y-68359580D01*
X44488095Y-68359580D02*
X44440476Y-68264342D01*
X44440476Y-68264342D02*
X44440476Y-68026247D01*
X44440476Y-68026247D02*
X44488095Y-67931009D01*
X44488095Y-67931009D02*
X44535714Y-67883390D01*
X44535714Y-67883390D02*
X44630952Y-67835771D01*
X44630952Y-67835771D02*
X44821428Y-67835771D01*
X44821428Y-67835771D02*
X44916666Y-67883390D01*
X44916666Y-67883390D02*
X44964285Y-67931009D01*
X44964285Y-67931009D02*
X45011904Y-68026247D01*
X57583333Y-67204819D02*
X57583333Y-67919104D01*
X57583333Y-67919104D02*
X57630952Y-68061961D01*
X57630952Y-68061961D02*
X57726190Y-68157200D01*
X57726190Y-68157200D02*
X57869047Y-68204819D01*
X57869047Y-68204819D02*
X57964285Y-68204819D01*
X56583333Y-68204819D02*
X57154761Y-68204819D01*
X56869047Y-68204819D02*
X56869047Y-67204819D01*
X56869047Y-67204819D02*
X56964285Y-67347676D01*
X56964285Y-67347676D02*
X57059523Y-67442914D01*
X57059523Y-67442914D02*
X57154761Y-67490533D01*
X61379893Y-54615502D02*
X60713227Y-54615502D01*
X60713227Y-54615502D02*
X61141798Y-55615502D01*
X63777438Y-55145350D02*
X63444105Y-55145350D01*
X63301248Y-55669160D02*
X63777438Y-55669160D01*
X63777438Y-55669160D02*
X63777438Y-54669160D01*
X63777438Y-54669160D02*
X63301248Y-54669160D01*
X62516603Y-60596054D02*
X62516603Y-61405577D01*
X62516603Y-61405577D02*
X62468984Y-61500815D01*
X62468984Y-61500815D02*
X62421365Y-61548435D01*
X62421365Y-61548435D02*
X62326127Y-61596054D01*
X62326127Y-61596054D02*
X62135651Y-61596054D01*
X62135651Y-61596054D02*
X62040413Y-61548435D01*
X62040413Y-61548435D02*
X61992794Y-61500815D01*
X61992794Y-61500815D02*
X61945175Y-61405577D01*
X61945175Y-61405577D02*
X61945175Y-60596054D01*
X61564222Y-60596054D02*
X60945175Y-60596054D01*
X60945175Y-60596054D02*
X61278508Y-60977006D01*
X61278508Y-60977006D02*
X61135651Y-60977006D01*
X61135651Y-60977006D02*
X61040413Y-61024625D01*
X61040413Y-61024625D02*
X60992794Y-61072244D01*
X60992794Y-61072244D02*
X60945175Y-61167482D01*
X60945175Y-61167482D02*
X60945175Y-61405577D01*
X60945175Y-61405577D02*
X60992794Y-61500815D01*
X60992794Y-61500815D02*
X61040413Y-61548435D01*
X61040413Y-61548435D02*
X61135651Y-61596054D01*
X61135651Y-61596054D02*
X61421365Y-61596054D01*
X61421365Y-61596054D02*
X61516603Y-61548435D01*
X61516603Y-61548435D02*
X61564222Y-61500815D01*
X58879952Y-63202224D02*
X58879952Y-62964129D01*
X58641857Y-63059367D02*
X58879952Y-62964129D01*
X58879952Y-62964129D02*
X59118047Y-63059367D01*
X58737095Y-62773653D02*
X58879952Y-62964129D01*
X58879952Y-62964129D02*
X59022809Y-62773653D01*
X59499999Y-62704819D02*
X59499999Y-62942914D01*
X59738094Y-62847676D02*
X59499999Y-62942914D01*
X59499999Y-62942914D02*
X59261904Y-62847676D01*
X59642856Y-63133390D02*
X59499999Y-62942914D01*
X59499999Y-62942914D02*
X59357142Y-63133390D01*
X46261904Y-59704819D02*
X46261904Y-60514342D01*
X46261904Y-60514342D02*
X46214285Y-60609580D01*
X46214285Y-60609580D02*
X46166666Y-60657200D01*
X46166666Y-60657200D02*
X46071428Y-60704819D01*
X46071428Y-60704819D02*
X45880952Y-60704819D01*
X45880952Y-60704819D02*
X45785714Y-60657200D01*
X45785714Y-60657200D02*
X45738095Y-60609580D01*
X45738095Y-60609580D02*
X45690476Y-60514342D01*
X45690476Y-60514342D02*
X45690476Y-59704819D01*
X44738095Y-59704819D02*
X45214285Y-59704819D01*
X45214285Y-59704819D02*
X45261904Y-60181009D01*
X45261904Y-60181009D02*
X45214285Y-60133390D01*
X45214285Y-60133390D02*
X45119047Y-60085771D01*
X45119047Y-60085771D02*
X44880952Y-60085771D01*
X44880952Y-60085771D02*
X44785714Y-60133390D01*
X44785714Y-60133390D02*
X44738095Y-60181009D01*
X44738095Y-60181009D02*
X44690476Y-60276247D01*
X44690476Y-60276247D02*
X44690476Y-60514342D01*
X44690476Y-60514342D02*
X44738095Y-60609580D01*
X44738095Y-60609580D02*
X44785714Y-60657200D01*
X44785714Y-60657200D02*
X44880952Y-60704819D01*
X44880952Y-60704819D02*
X45119047Y-60704819D01*
X45119047Y-60704819D02*
X45214285Y-60657200D01*
X45214285Y-60657200D02*
X45261904Y-60609580D01*
%TO.C,U4*%
D12*
X53323600Y-59073600D02*
X56676400Y-59073600D01*
X56676400Y-62426400D02*
X53323600Y-62426400D01*
%TO.C,R7*%
D13*
X48996850Y-63361746D02*
X48996850Y-63054464D01*
X49756850Y-63361746D02*
X49756850Y-63054464D01*
%TO.C,U6*%
D14*
X43650000Y-66400000D02*
X43650000Y-66900000D01*
X43650000Y-66400000D02*
X44150000Y-66400000D01*
X43650000Y-69100000D02*
X43650000Y-69600000D01*
X43650000Y-69600000D02*
X44150000Y-69600000D01*
X46850000Y-66400000D02*
X46350000Y-66400000D01*
X46850000Y-66400000D02*
X46850000Y-66900000D01*
X46850000Y-69600000D02*
X46350000Y-69600000D01*
X46850000Y-69600000D02*
X46850000Y-69100000D01*
D13*
X44500000Y-66325000D02*
X44260000Y-65989000D01*
X44740000Y-65989000D01*
X44500000Y-66325000D01*
G36*
X44500000Y-66325000D02*
G01*
X44260000Y-65989000D01*
X44740000Y-65989000D01*
X44500000Y-66325000D01*
G37*
%TO.C,R6*%
X51370000Y-55903641D02*
X51370000Y-55596359D01*
X52130000Y-55903641D02*
X52130000Y-55596359D01*
%TO.C,J1*%
X49515000Y-64790000D02*
X51315000Y-64790000D01*
X49515000Y-66240000D02*
X49515000Y-64790000D01*
X63685000Y-64790000D02*
X63685000Y-63800000D01*
X64215000Y-69060000D02*
X50785000Y-69060000D01*
X65485000Y-64790000D02*
X63685000Y-64790000D01*
X65485000Y-66240000D02*
X65485000Y-64790000D01*
%TO.C,U2*%
D12*
X60606279Y-51564755D02*
X63933679Y-51564755D01*
X60606279Y-51853088D02*
X60606279Y-51564755D01*
X60606279Y-54206355D02*
X60606279Y-53918022D01*
X63933679Y-51564755D02*
X63933679Y-51853088D01*
X63933679Y-53918022D02*
X63933679Y-54206355D01*
X63933679Y-54206355D02*
X60606279Y-54206355D01*
D14*
X63791457Y-51753357D02*
G75*
G02*
X63710459Y-51753357I-40499J0D01*
G01*
X63710459Y-51753357D02*
G75*
G02*
X63791457Y-51753357I40499J0D01*
G01*
%TO.C,C1*%
D13*
X61994948Y-49879287D02*
X62276108Y-49879287D01*
X61994948Y-50899287D02*
X62276108Y-50899287D01*
%TO.C,C8*%
X65144699Y-61033399D02*
X65144699Y-61249071D01*
X65864699Y-61033399D02*
X65864699Y-61249071D01*
%TO.C,C9*%
X50890000Y-60857836D02*
X50890000Y-60642164D01*
X51610000Y-60857836D02*
X51610000Y-60642164D01*
%TO.C,R4*%
X53620000Y-57596359D02*
X53620000Y-57903641D01*
X54380000Y-57596359D02*
X54380000Y-57903641D01*
%TO.C,U3*%
D12*
X60078299Y-59464835D02*
X63431099Y-59464835D01*
X63431099Y-62817635D02*
X60078299Y-62817635D01*
%TO.C,C5*%
D13*
X56899921Y-52937310D02*
X56899921Y-52656150D01*
X57919921Y-52937310D02*
X57919921Y-52656150D01*
%TO.C,C13*%
X45109420Y-64872478D02*
X45390580Y-64872478D01*
X45109420Y-65892478D02*
X45390580Y-65892478D01*
%TO.C,R5*%
X52370000Y-57913641D02*
X52370000Y-57606359D01*
X53130000Y-57913641D02*
X53130000Y-57606359D01*
%TO.C,R8*%
X50009749Y-63070040D02*
X50009749Y-63377322D01*
X50769749Y-63070040D02*
X50769749Y-63377322D01*
%TO.C,C12*%
X47511434Y-63627566D02*
X47727106Y-63627566D01*
X47511434Y-64347566D02*
X47727106Y-64347566D01*
%TO.C,C11*%
X47710401Y-61390000D02*
X47494729Y-61390000D01*
X47710401Y-62110000D02*
X47494729Y-62110000D01*
%TO.C,R3*%
X64382635Y-50998953D02*
X64382635Y-50691671D01*
X65142635Y-50998953D02*
X65142635Y-50691671D01*
%TO.C,C10*%
X47740000Y-68140580D02*
X47740000Y-67859420D01*
X48760000Y-68140580D02*
X48760000Y-67859420D01*
%TO.C,R2*%
X64418626Y-53195576D02*
X64418626Y-53502858D01*
X65178626Y-53195576D02*
X65178626Y-53502858D01*
%TO.C,U5*%
X43640000Y-61140000D02*
X43640000Y-61815000D01*
X43640000Y-63685000D02*
X43640000Y-64360000D01*
X43640000Y-64360000D02*
X43815000Y-64360000D01*
X43815000Y-61140000D02*
X43640000Y-61140000D01*
X46185000Y-64360000D02*
X46360000Y-64360000D01*
X46360000Y-61140000D02*
X46185000Y-61140000D01*
X46360000Y-61815000D02*
X46360000Y-61140000D01*
X46360000Y-64360000D02*
X46360000Y-63685000D01*
X44250000Y-61010000D02*
X44010000Y-60680000D01*
X44490000Y-60680000D01*
X44250000Y-61010000D01*
G36*
X44250000Y-61010000D02*
G01*
X44010000Y-60680000D01*
X44490000Y-60680000D01*
X44250000Y-61010000D01*
G37*
%TO.C,R1*%
X59100859Y-53505607D02*
X59408141Y-53505607D01*
X59100859Y-54265607D02*
X59408141Y-54265607D01*
%TO.C,L1*%
X58709979Y-51785177D02*
X58709979Y-50985933D01*
X59829979Y-51785177D02*
X59829979Y-50985933D01*
%TO.C,R9*%
X52370000Y-55903641D02*
X52370000Y-55596359D01*
X53130000Y-55903641D02*
X53130000Y-55596359D01*
%TD*%
%LPC*%
D15*
%TO.C,J2*%
X65020000Y-57365000D03*
X59940000Y-58381000D03*
X59940000Y-56349000D03*
%TD*%
D16*
%TO.C,J3*%
X47110000Y-63070000D03*
X52890000Y-63070000D03*
%TD*%
D17*
%TO.C,U4*%
X57216150Y-59775001D03*
X57216150Y-60424999D03*
X57216150Y-61075001D03*
X57216150Y-61724999D03*
X52783850Y-61724999D03*
X52783850Y-61075001D03*
X52783850Y-60424999D03*
X52783850Y-59775001D03*
%TD*%
D18*
%TO.C,R7*%
X49376850Y-63718105D03*
X49376850Y-62698105D03*
%TD*%
D19*
%TO.C,U6*%
X44500000Y-66725000D03*
X45000000Y-66725000D03*
X45500000Y-66725000D03*
X46000000Y-66725000D03*
D20*
X46525000Y-67250000D03*
X46525000Y-67750000D03*
X46525000Y-68250000D03*
X46525000Y-68750000D03*
D19*
X46000000Y-69275000D03*
X45500000Y-69275000D03*
X45000000Y-69275000D03*
X44500000Y-69275000D03*
D20*
X43975000Y-68750000D03*
X43975000Y-68250000D03*
X43975000Y-67750000D03*
X43975000Y-67250000D03*
%TD*%
D18*
%TO.C,R6*%
X51750000Y-56260000D03*
X51750000Y-55240000D03*
%TD*%
D21*
%TO.C,J1*%
X63125000Y-64650000D03*
X61875000Y-64650000D03*
X60625000Y-64650000D03*
X59375000Y-64650000D03*
X58125000Y-64650000D03*
X56875000Y-64650000D03*
X55625000Y-64650000D03*
X54375000Y-64650000D03*
X53125000Y-64650000D03*
X51875000Y-64650000D03*
D22*
X64975000Y-67850000D03*
X50025000Y-67850000D03*
%TD*%
D23*
%TO.C,U2*%
X63526979Y-52005555D03*
X63107979Y-52005555D03*
X62688979Y-52005555D03*
X62269979Y-52005555D03*
X61850979Y-52005555D03*
X61431979Y-52005555D03*
X61012979Y-52005555D03*
X63526979Y-52445555D03*
X63107979Y-52445555D03*
X62688979Y-52445555D03*
X62269979Y-52445555D03*
X61850979Y-52445555D03*
X61431979Y-52445555D03*
X61012979Y-52445555D03*
X63526979Y-52885555D03*
X63107979Y-52885555D03*
X62688979Y-52885555D03*
X62269979Y-52885555D03*
X61850979Y-52885555D03*
X61431979Y-52885555D03*
X61012979Y-52885555D03*
X63526979Y-53325555D03*
X63107979Y-53325555D03*
X62688979Y-53325555D03*
X62269979Y-53325555D03*
X61850979Y-53325555D03*
X61431979Y-53325555D03*
X61012979Y-53325555D03*
X63526979Y-53765555D03*
X63107979Y-53765555D03*
X62688979Y-53765555D03*
X62269979Y-53765555D03*
X61850979Y-53765555D03*
X61431979Y-53765555D03*
X61012979Y-53765555D03*
%TD*%
D24*
%TO.C,C1*%
X61360528Y-50389287D03*
X62910528Y-50389287D03*
%TD*%
D25*
%TO.C,C8*%
X65504699Y-60661235D03*
X65504699Y-61621235D03*
%TD*%
D26*
%TO.C,C9*%
X51250000Y-61230000D03*
X51250000Y-60270000D03*
%TD*%
D27*
%TO.C,R4*%
X54000000Y-57240000D03*
X54000000Y-58260000D03*
%TD*%
D17*
%TO.C,U3*%
X59538549Y-62116234D03*
X59538549Y-61466236D03*
X59538549Y-60816234D03*
X59538549Y-60166236D03*
X63970849Y-60166236D03*
X63970849Y-60816234D03*
X63970849Y-61466236D03*
X63970849Y-62116234D03*
%TD*%
D28*
%TO.C,C5*%
X57409921Y-53571730D03*
X57409921Y-52021730D03*
%TD*%
D24*
%TO.C,C13*%
X44475000Y-65382478D03*
X46025000Y-65382478D03*
%TD*%
D18*
%TO.C,R5*%
X52750000Y-58270000D03*
X52750000Y-57250000D03*
%TD*%
D27*
%TO.C,R8*%
X50389749Y-62713681D03*
X50389749Y-63733681D03*
%TD*%
D29*
%TO.C,C12*%
X47139270Y-63987566D03*
X48099270Y-63987566D03*
%TD*%
D30*
%TO.C,C11*%
X48082565Y-61750000D03*
X47122565Y-61750000D03*
%TD*%
D18*
%TO.C,R3*%
X64762635Y-51355312D03*
X64762635Y-50335312D03*
%TD*%
D28*
%TO.C,C10*%
X48250000Y-68775000D03*
X48250000Y-67225000D03*
%TD*%
D27*
%TO.C,R2*%
X64798626Y-52839217D03*
X64798626Y-53859217D03*
%TD*%
D31*
%TO.C,U5*%
X44250000Y-61587500D03*
X44750000Y-61587500D03*
X45250000Y-61587500D03*
X45750000Y-61587500D03*
D32*
X45912500Y-62250000D03*
X45912500Y-62750000D03*
X45912500Y-63250000D03*
D31*
X45750000Y-63912500D03*
X45250000Y-63912500D03*
X44750000Y-63912500D03*
X44250000Y-63912500D03*
D32*
X44087500Y-63250000D03*
X44087500Y-62750000D03*
X44087500Y-62250000D03*
%TD*%
D33*
%TO.C,R1*%
X58744500Y-53885607D03*
X59764500Y-53885607D03*
%TD*%
D34*
%TO.C,L1*%
X59269979Y-52448055D03*
X59269979Y-50323055D03*
%TD*%
D18*
%TO.C,R9*%
X52750000Y-56260000D03*
X52750000Y-55240000D03*
%TD*%
%LPD*%
M02*
