%TF.GenerationSoftware,KiCad,Pcbnew,10.0.1*%
%TF.CreationDate,2026-08-13T13:53:40+01:00*%
%TF.ProjectId,floating_hub,666c6f61-7469-46e6-975f-6875622e6b69,rev?*%
%TF.SameCoordinates,Original*%
%TF.FileFunction,Copper,L4,Bot*%
%TF.FilePolarity,Positive*%
%FSLAX46Y46*%
G04 Gerber Fmt 4.6, Leading zero omitted, Abs format (unit mm)*
G04 Created by KiCad (PCBNEW 10.0.1) date 2026-08-13 13:53:40*
%MOMM*%
%LPD*%
G01*
G04 APERTURE LIST*
G04 Aperture macros list*
%AMRoundRect*
0 Rectangle with rounded corners*
0 $1 Rounding radius*
0 $2 $3 $4 $5 $6 $7 $8 $9 X,Y pos of 4 corners*
0 Add a 4 corners polygon primitive as box body*
4,1,4,$2,$3,$4,$5,$6,$7,$8,$9,$2,$3,0*
0 Add four circle primitives for the rounded corners*
1,1,$1+$1,$2,$3*
1,1,$1+$1,$4,$5*
1,1,$1+$1,$6,$7*
1,1,$1+$1,$8,$9*
0 Add four rect primitives between the rounded corners*
20,1,$1+$1,$2,$3,$4,$5,0*
20,1,$1+$1,$4,$5,$6,$7,0*
20,1,$1+$1,$6,$7,$8,$9,0*
20,1,$1+$1,$8,$9,$2,$3,0*%
G04 Aperture macros list end*
%TA.AperFunction,SMDPad,CuDef*%
%ADD10R,1.333500X0.431800*%
%TD*%
%TA.AperFunction,SMDPad,CuDef*%
%ADD11RoundRect,0.135000X0.185000X-0.135000X0.185000X0.135000X-0.185000X0.135000X-0.185000X-0.135000X0*%
%TD*%
%TA.AperFunction,SMDPad,CuDef*%
%ADD12R,0.300000X0.450000*%
%TD*%
%TA.AperFunction,SMDPad,CuDef*%
%ADD13R,0.450000X0.300000*%
%TD*%
%TA.AperFunction,SMDPad,CuDef*%
%ADD14RoundRect,0.150000X0.150000X0.700000X-0.150000X0.700000X-0.150000X-0.700000X0.150000X-0.700000X0*%
%TD*%
%TA.AperFunction,SMDPad,CuDef*%
%ADD15RoundRect,0.250000X0.250000X1.100000X-0.250000X1.100000X-0.250000X-1.100000X0.250000X-1.100000X0*%
%TD*%
%TA.AperFunction,SMDPad,CuDef*%
%ADD16C,0.203200*%
%TD*%
%TA.AperFunction,SMDPad,CuDef*%
%ADD17RoundRect,0.225000X-0.225000X-0.250000X0.225000X-0.250000X0.225000X0.250000X-0.225000X0.250000X0*%
%TD*%
%TA.AperFunction,SMDPad,CuDef*%
%ADD18RoundRect,0.140000X-0.170000X0.140000X-0.170000X-0.140000X0.170000X-0.140000X0.170000X0.140000X0*%
%TD*%
%TA.AperFunction,SMDPad,CuDef*%
%ADD19RoundRect,0.140000X0.170000X-0.140000X0.170000X0.140000X-0.170000X0.140000X-0.170000X-0.140000X0*%
%TD*%
%TA.AperFunction,SMDPad,CuDef*%
%ADD20RoundRect,0.135000X-0.185000X0.135000X-0.185000X-0.135000X0.185000X-0.135000X0.185000X0.135000X0*%
%TD*%
%TA.AperFunction,SMDPad,CuDef*%
%ADD21RoundRect,0.225000X0.250000X-0.225000X0.250000X0.225000X-0.250000X0.225000X-0.250000X-0.225000X0*%
%TD*%
%TA.AperFunction,SMDPad,CuDef*%
%ADD22RoundRect,0.140000X-0.140000X-0.170000X0.140000X-0.170000X0.140000X0.170000X-0.140000X0.170000X0*%
%TD*%
%TA.AperFunction,SMDPad,CuDef*%
%ADD23RoundRect,0.140000X0.140000X0.170000X-0.140000X0.170000X-0.140000X-0.170000X0.140000X-0.170000X0*%
%TD*%
%TA.AperFunction,SMDPad,CuDef*%
%ADD24RoundRect,0.087500X-0.087500X0.225000X-0.087500X-0.225000X0.087500X-0.225000X0.087500X0.225000X0*%
%TD*%
%TA.AperFunction,SMDPad,CuDef*%
%ADD25RoundRect,0.087500X-0.225000X0.087500X-0.225000X-0.087500X0.225000X-0.087500X0.225000X0.087500X0*%
%TD*%
%TA.AperFunction,SMDPad,CuDef*%
%ADD26RoundRect,0.135000X-0.135000X-0.185000X0.135000X-0.185000X0.135000X0.185000X-0.135000X0.185000X0*%
%TD*%
%TA.AperFunction,SMDPad,CuDef*%
%ADD27RoundRect,0.218750X0.381250X-0.218750X0.381250X0.218750X-0.381250X0.218750X-0.381250X-0.218750X0*%
%TD*%
%TA.AperFunction,ViaPad*%
%ADD28C,0.250000*%
%TD*%
%TA.AperFunction,ViaPad*%
%ADD29C,0.300000*%
%TD*%
%TA.AperFunction,ViaPad*%
%ADD30C,0.450000*%
%TD*%
%TA.AperFunction,ViaPad*%
%ADD31C,0.600000*%
%TD*%
%TA.AperFunction,Conductor*%
%ADD32C,0.150000*%
%TD*%
%TA.AperFunction,Conductor*%
%ADD33C,0.300000*%
%TD*%
%TA.AperFunction,Conductor*%
%ADD34C,0.200000*%
%TD*%
%TA.AperFunction,Conductor*%
%ADD35C,0.500000*%
%TD*%
G04 APERTURE END LIST*
D10*
%TO.P,U4,1,R_1*%
%TO.N,unconnected-(U4-R-Pad1)*%
X57216150Y-59775001D03*
%TO.P,U4,2,\u002ARE_2*%
%TO.N,/SYNC_DIR*%
X57216150Y-60424999D03*
%TO.P,U4,3,DE_3*%
X57216150Y-61075001D03*
%TO.P,U4,4,D_4*%
%TO.N,/SYNC_TX*%
X57216150Y-61724999D03*
%TO.P,U4,5,GND_5*%
%TO.N,GND*%
X52783850Y-61724999D03*
%TO.P,U4,6,A_6*%
%TO.N,Net-(U4-A)*%
X52783850Y-61075001D03*
%TO.P,U4,7,B_7*%
%TO.N,Net-(U4-B)*%
X52783850Y-60424999D03*
%TO.P,U4,8,VCC_8*%
%TO.N,+3V3*%
X52783850Y-59775001D03*
%TD*%
D11*
%TO.P,R7,1*%
%TO.N,Net-(U3-B)*%
X49376850Y-63718105D03*
%TO.P,R7,2*%
%TO.N,Net-(U3-A)*%
X49376850Y-62698105D03*
%TD*%
D12*
%TO.P,U6,1,SCL/SPI_SCK_1*%
%TO.N,/HOST_SCL*%
X44500000Y-66725000D03*
%TO.P,U6,2,VDD_2*%
%TO.N,+3V3*%
X45000000Y-66725000D03*
%TO.P,U6,3,NC_3*%
%TO.N,unconnected-(U6-NC-Pad3)*%
X45500000Y-66725000D03*
%TO.P,U6,4,SPI_CS_4*%
%TO.N,+3V3*%
X46000000Y-66725000D03*
D13*
%TO.P,U6,5,SPI_SDO_5*%
%TO.N,unconnected-(U6-SPI_SDO-Pad5)*%
X46525000Y-67250000D03*
%TO.P,U6,6,NC_6*%
%TO.N,unconnected-(U6-NC-Pad6)*%
X46525000Y-67750000D03*
%TO.P,U6,7,NC_7*%
%TO.N,unconnected-(U6-NC-Pad7)*%
X46525000Y-68250000D03*
%TO.P,U6,8,NC_8*%
%TO.N,unconnected-(U6-NC-Pad8)*%
X46525000Y-68750000D03*
D12*
%TO.P,U6,9,GND_9*%
%TO.N,GND*%
X46000000Y-69275000D03*
%TO.P,U6,10,CAP_10*%
%TO.N,Net-(U6-CAP)*%
X45500000Y-69275000D03*
%TO.P,U6,11,GND_11*%
%TO.N,GND*%
X45000000Y-69275000D03*
%TO.P,U6,12,NC_12*%
%TO.N,unconnected-(U6-NC-Pad12)*%
X44500000Y-69275000D03*
D13*
%TO.P,U6,13,VDDIO_13*%
%TO.N,+3V3*%
X43975000Y-68750000D03*
%TO.P,U6,14,NC_14*%
%TO.N,unconnected-(U6-NC-Pad14)*%
X43975000Y-68250000D03*
%TO.P,U6,15,INT_15*%
%TO.N,unconnected-(U6-INT-Pad15)*%
X43975000Y-67750000D03*
%TO.P,U6,16,SDA/SPI_SDI_16*%
%TO.N,/HOST_SDA*%
X43975000Y-67250000D03*
%TD*%
D11*
%TO.P,R6,1*%
%TO.N,+3V3*%
X51750000Y-56260000D03*
%TO.P,R6,2*%
%TO.N,/HOST_SCL*%
X51750000Y-55240000D03*
%TD*%
D14*
%TO.P,J1,1,1_1*%
%TO.N,Net-(U3-A)*%
X63125000Y-64650000D03*
%TO.P,J1,2,2_2*%
%TO.N,Net-(U3-B)*%
X61875000Y-64650000D03*
%TO.P,J1,3,3_3*%
%TO.N,Net-(U4-A)*%
X60625000Y-64650000D03*
%TO.P,J1,4,4_4*%
%TO.N,Net-(U4-B)*%
X59375000Y-64650000D03*
%TO.P,J1,5,5_5*%
%TO.N,+3V3*%
X58125000Y-64650000D03*
%TO.P,J1,6,6_6*%
%TO.N,GND*%
X56875000Y-64650000D03*
%TO.P,J1,7,7_7*%
%TO.N,/VLOAD*%
X55625000Y-64650000D03*
%TO.P,J1,8,8_8*%
%TO.N,GND*%
X54375000Y-64650000D03*
%TO.P,J1,9,9_9*%
%TO.N,/VLOAD*%
X53125000Y-64650000D03*
%TO.P,J1,10,10_10*%
%TO.N,GND*%
X51875000Y-64650000D03*
D15*
%TO.P,J1,MP*%
%TO.N,N/C*%
X64975000Y-67850000D03*
X50025000Y-67850000D03*
%TD*%
D16*
%TO.P,U2,A1,LED0_A1*%
%TO.N,Net-(D3-K)*%
X63526979Y-52005555D03*
%TO.P,U2,A2,LED1_A2*%
%TO.N,Net-(D2-K)*%
X63107979Y-52005555D03*
%TO.P,U2,A3,LED2_A3*%
%TO.N,Net-(D1-K)*%
X62688979Y-52005555D03*
%TO.P,U2,A4,LSOUT1/VOUTLDO1_A4*%
%TO.N,GND*%
X62269979Y-52005555D03*
%TO.P,U2,A5,LSOUT2/VOUTLDO2_A5*%
X61850979Y-52005555D03*
%TO.P,U2,A6,AVSS_A6*%
X61431979Y-52005555D03*
%TO.P,U2,A7,PVSS1_A7*%
X61012979Y-52005555D03*
%TO.P,U2,B1,VBUS_B1*%
%TO.N,Net-(C1-Pad1)*%
X63526979Y-52445555D03*
%TO.P,U2,B2,VBUS_B2*%
X63107979Y-52445555D03*
%TO.P,U2,B3,CC2_B3*%
%TO.N,/USB_CC2*%
X62688979Y-52445555D03*
%TO.P,U2,B4,LSIN1/VINLDO1_B4*%
%TO.N,GND*%
X62269979Y-52445555D03*
%TO.P,U2,B5,LSIN2/VINLDO2_B5*%
X61850979Y-52445555D03*
%TO.P,U2,B6,VOUT1_B6*%
%TO.N,/VLOAD*%
X61431979Y-52445555D03*
%TO.P,U2,B7,SW1_B7*%
%TO.N,unconnected-(U2-SW1-PadB7)*%
X61012979Y-52445555D03*
%TO.P,U2,C1,VSYS_C1*%
%TO.N,/VLOAD*%
X63526979Y-52885555D03*
%TO.P,U2,C2,VSYS_C2*%
X63107979Y-52885555D03*
%TO.P,U2,C3,VBUSOUT_C3*%
%TO.N,/VBUS_OUT*%
X62688979Y-52885555D03*
%TO.P,U2,C4,GPIO3_C4*%
%TO.N,GND*%
X62269979Y-52885555D03*
%TO.P,U2,C5,GPIO2_C5*%
X61850979Y-52885555D03*
%TO.P,U2,C6,VOUT2_C6*%
%TO.N,+3V3*%
X61431979Y-52885555D03*
%TO.P,U2,C7,PVDD_C7*%
%TO.N,/VLOAD*%
X61012979Y-52885555D03*
%TO.P,U2,D1,VBAT_D1*%
%TO.N,/LiPo+*%
X63526979Y-53325555D03*
%TO.P,U2,D2,VBAT_D2*%
X63107979Y-53325555D03*
%TO.P,U2,D3,NTC_D3*%
%TO.N,Net-(U2-NTC)*%
X62688979Y-53325555D03*
%TO.P,U2,D4,SHPHLD_D4*%
%TO.N,unconnected-(U2-SHPHLD-PadD4)*%
X62269979Y-53325555D03*
%TO.P,U2,D5,CC1_D5*%
%TO.N,/USB_CC1*%
X61850979Y-53325555D03*
%TO.P,U2,D6,GPIO0_D6*%
%TO.N,unconnected-(U2-GPIO0-PadD6)*%
X61431979Y-53325555D03*
%TO.P,U2,D7,SW2_D7*%
%TO.N,Net-(U2-SW2)*%
X61012979Y-53325555D03*
%TO.P,U2,E1,VSET2_E1*%
%TO.N,Net-(U2-VSET2)*%
X63526979Y-53765555D03*
%TO.P,U2,E2,VSET1_E2*%
%TO.N,GND*%
X63107979Y-53765555D03*
%TO.P,U2,E3,SCL_E3*%
%TO.N,/HOST_SCL*%
X62688979Y-53765555D03*
%TO.P,U2,E4,VDDIO_E4*%
%TO.N,+3V3*%
X62269979Y-53765555D03*
%TO.P,U2,E5,SDA_E5*%
%TO.N,/HOST_SDA*%
X61850979Y-53765555D03*
%TO.P,U2,E6,GPIO1_E6*%
%TO.N,/PMIC_INT*%
X61431979Y-53765555D03*
%TO.P,U2,E7,PVSS2_E7*%
%TO.N,GND*%
X61012979Y-53765555D03*
%TD*%
D17*
%TO.P,C1,1*%
%TO.N,Net-(C1-Pad1)*%
X61360528Y-50389287D03*
%TO.P,C1,2*%
%TO.N,GND*%
X62910528Y-50389287D03*
%TD*%
D18*
%TO.P,C8,1*%
%TO.N,GND*%
X65504699Y-60661235D03*
%TO.P,C8,2*%
%TO.N,+3V3*%
X65504699Y-61621235D03*
%TD*%
D19*
%TO.P,C9,1*%
%TO.N,GND*%
X51250000Y-61230000D03*
%TO.P,C9,2*%
%TO.N,+3V3*%
X51250000Y-60270000D03*
%TD*%
D20*
%TO.P,R4,1*%
%TO.N,/RS485_DIR*%
X54000000Y-57240000D03*
%TO.P,R4,2*%
%TO.N,GND*%
X54000000Y-58260000D03*
%TD*%
D10*
%TO.P,U3,1,R_1*%
%TO.N,/RS485_RX*%
X59538549Y-62116234D03*
%TO.P,U3,2,\u002ARE_2*%
%TO.N,/RS485_DIR*%
X59538549Y-61466236D03*
%TO.P,U3,3,DE_3*%
X59538549Y-60816234D03*
%TO.P,U3,4,D_4*%
%TO.N,/RS485_TX*%
X59538549Y-60166236D03*
%TO.P,U3,5,GND_5*%
%TO.N,GND*%
X63970849Y-60166236D03*
%TO.P,U3,6,A_6*%
%TO.N,Net-(U3-A)*%
X63970849Y-60816234D03*
%TO.P,U3,7,B_7*%
%TO.N,Net-(U3-B)*%
X63970849Y-61466236D03*
%TO.P,U3,8,VCC_8*%
%TO.N,+3V3*%
X63970849Y-62116234D03*
%TD*%
D21*
%TO.P,C5,1*%
%TO.N,GND*%
X57409921Y-53571730D03*
%TO.P,C5,2*%
%TO.N,+3V3*%
X57409921Y-52021730D03*
%TD*%
D17*
%TO.P,C13,1*%
%TO.N,GND*%
X44475000Y-65382478D03*
%TO.P,C13,2*%
%TO.N,+3V3*%
X46025000Y-65382478D03*
%TD*%
D11*
%TO.P,R5,1*%
%TO.N,GND*%
X52750000Y-58270000D03*
%TO.P,R5,2*%
%TO.N,/SYNC_DIR*%
X52750000Y-57250000D03*
%TD*%
D20*
%TO.P,R8,1*%
%TO.N,Net-(U4-B)*%
X50389749Y-62713681D03*
%TO.P,R8,2*%
%TO.N,Net-(U4-A)*%
X50389749Y-63733681D03*
%TD*%
D22*
%TO.P,C12,1*%
%TO.N,+3V3*%
X47139270Y-63987566D03*
%TO.P,C12,2*%
%TO.N,GND*%
X48099270Y-63987566D03*
%TD*%
D23*
%TO.P,C11,1*%
%TO.N,+3V3*%
X48082565Y-61750000D03*
%TO.P,C11,2*%
%TO.N,GND*%
X47122565Y-61750000D03*
%TD*%
D11*
%TO.P,R3,1*%
%TO.N,Net-(U2-NTC)*%
X64762635Y-51355312D03*
%TO.P,R3,2*%
%TO.N,GND*%
X64762635Y-50335312D03*
%TD*%
D21*
%TO.P,C10,1*%
%TO.N,Net-(U6-CAP)*%
X48250000Y-68775000D03*
%TO.P,C10,2*%
%TO.N,GND*%
X48250000Y-67225000D03*
%TD*%
D20*
%TO.P,R2,1*%
%TO.N,Net-(U2-VSET2)*%
X64798626Y-52839217D03*
%TO.P,R2,2*%
%TO.N,GND*%
X64798626Y-53859217D03*
%TD*%
D24*
%TO.P,U5,1,SDO/SA0_1*%
%TO.N,GND*%
X44250000Y-61587500D03*
%TO.P,U5,2,SDX/AH1/QVAR1_2*%
X44750000Y-61587500D03*
%TO.P,U5,3,SCX/AH2/QVAR2_3*%
X45250000Y-61587500D03*
%TO.P,U5,4,INT1_4*%
%TO.N,/IMU_INT1*%
X45750000Y-61587500D03*
D25*
%TO.P,U5,5,VDD_IO_5*%
%TO.N,+3V3*%
X45912500Y-62250000D03*
%TO.P,U5,6,GND_6*%
%TO.N,GND*%
X45912500Y-62750000D03*
%TO.P,U5,7,GND_7*%
X45912500Y-63250000D03*
D24*
%TO.P,U5,8,VDD_8*%
%TO.N,+3V3*%
X45750000Y-63912500D03*
%TO.P,U5,9,INT2_9*%
%TO.N,unconnected-(U5-INT2-Pad9)*%
X45250000Y-63912500D03*
%TO.P,U5,10,OCS_AUX_10*%
%TO.N,unconnected-(U5-OCS_AUX-Pad10)*%
X44750000Y-63912500D03*
%TO.P,U5,11,SDO_AUX_11*%
%TO.N,unconnected-(U5-SDO_AUX-Pad11)*%
X44250000Y-63912500D03*
D25*
%TO.P,U5,12,CS_12*%
%TO.N,+3V3*%
X44087500Y-63250000D03*
%TO.P,U5,13,SCL_13*%
%TO.N,/HOST_SCL*%
X44087500Y-62750000D03*
%TO.P,U5,14,SDA_14*%
%TO.N,/HOST_SDA*%
X44087500Y-62250000D03*
%TD*%
D26*
%TO.P,R1,1*%
%TO.N,+3V3*%
X58744500Y-53885607D03*
%TO.P,R1,2*%
%TO.N,/PMIC_INT*%
X59764500Y-53885607D03*
%TD*%
D27*
%TO.P,L1,1,1_1*%
%TO.N,Net-(U2-SW2)*%
X59269979Y-52448055D03*
%TO.P,L1,2,2_2*%
%TO.N,+3V3*%
X59269979Y-50323055D03*
%TD*%
D11*
%TO.P,R9,1*%
%TO.N,+3V3*%
X52750000Y-56260000D03*
%TO.P,R9,2*%
%TO.N,/HOST_SDA*%
X52750000Y-55240000D03*
%TD*%
D28*
%TO.N,Net-(D2-K)*%
X63119982Y-51635555D03*
%TO.N,+3V3*%
X62157566Y-50113194D03*
D29*
X62782843Y-65782843D03*
D28*
X61519979Y-52895443D03*
D29*
X56750000Y-54500000D03*
X63549671Y-56580000D03*
D30*
X61577617Y-54984597D03*
D29*
X58125000Y-64650000D03*
X60019979Y-51060555D03*
X63750000Y-58750000D03*
X57250000Y-59169797D03*
D28*
%TO.N,Net-(D3-K)*%
X63519979Y-51385555D03*
%TO.N,/LiPo+*%
X63853582Y-52885555D03*
%TO.N,GND*%
X61085000Y-56882804D03*
X47500000Y-67250000D03*
X47503670Y-64506744D03*
D31*
X54400349Y-64223192D03*
D28*
X45513589Y-63355171D03*
D30*
X62269979Y-51718495D03*
D28*
X46830577Y-61850191D03*
D31*
X56500000Y-64250000D03*
D29*
X63185204Y-54165037D03*
D31*
X61005299Y-59750000D03*
D28*
X48250000Y-50250000D03*
D29*
X55772354Y-54185481D03*
D31*
X51842653Y-64199300D03*
X65484769Y-51738722D03*
D29*
X60513979Y-53717155D03*
X65500000Y-60000000D03*
X54750000Y-57750000D03*
X48750000Y-58000000D03*
X53750000Y-61500000D03*
D28*
X45342826Y-64920236D03*
D29*
X50500000Y-61000000D03*
X56515166Y-51515166D03*
X59269979Y-54385555D03*
D28*
X50477323Y-59722234D03*
%TO.N,/VBUS_OUT*%
X64480892Y-54514834D03*
X57523646Y-54296730D03*
X60500000Y-57750000D03*
X62688979Y-52885555D03*
D29*
%TO.N,/IMU_INT1*%
X52682042Y-59259099D03*
X51571064Y-59154021D03*
D28*
%TO.N,/PMIC_INT*%
X54250000Y-59750000D03*
X56250000Y-54750000D03*
%TO.N,/HOST_SDA*%
X43200000Y-64497969D03*
X56000000Y-51500000D03*
X52750000Y-54750000D03*
X61888979Y-53885555D03*
%TO.N,/HOST_SCL*%
X55372488Y-52622488D03*
X43599999Y-64514314D03*
X52275000Y-55775000D03*
%TO.N,/RS485_DIR*%
X54250000Y-56500000D03*
D29*
X54690156Y-55505842D03*
%TO.N,/SYNC_DIR*%
X54250000Y-55250000D03*
%TO.N,/RS485_RX*%
X53772376Y-51494409D03*
%TO.N,/RS485_TX*%
X52676282Y-51464100D03*
D28*
%TO.N,Net-(J2-~{RESET})*%
X60500000Y-55500000D03*
X51500000Y-49825000D03*
%TO.N,Net-(J2-SWCLK)*%
X49500000Y-50250000D03*
X61000000Y-55899988D03*
%TO.N,Net-(J2-SWDIO)*%
X62000000Y-58750000D03*
X48824731Y-50574731D03*
D29*
%TO.N,/SYNC_TX*%
X55217157Y-57282843D03*
D28*
%TO.N,/USB_D-*%
X56750000Y-52572237D03*
X49948321Y-59750000D03*
%TO.N,/USB_D+*%
X57720721Y-51245555D03*
X51006325Y-59721525D03*
%TO.N,/VLOAD*%
X63107979Y-52885555D03*
D31*
X55625000Y-64650000D03*
X59180102Y-55073496D03*
D30*
X60769979Y-52885555D03*
D31*
X53125000Y-64650000D03*
X58250000Y-62250000D03*
%TO.N,Net-(C1-Pad1)*%
X61500000Y-62250000D03*
X52010086Y-63350000D03*
D28*
%TO.N,/USB_CC1*%
X49400000Y-60251236D03*
X61884578Y-53326065D03*
%TO.N,/USB_CC2*%
X62686756Y-52450000D03*
%TO.N,Net-(D1-K)*%
X62769979Y-51635555D03*
D29*
%TO.N,Net-(U4-A)*%
X54349157Y-61270001D03*
X57500000Y-62500000D03*
%TO.N,Net-(U3-A)*%
X63750000Y-63500000D03*
X61500000Y-61000000D03*
D28*
%TO.N,Net-(U6-CAP)*%
X48250000Y-68775000D03*
X45500000Y-68750000D03*
%TO.N,Net-(U2-NTC)*%
X62751615Y-53297627D03*
X64642034Y-51726011D03*
%TD*%
%TO.N,Net-(D2-K)*%
D32*
X63107979Y-52005555D02*
X63107979Y-51647558D01*
X63107979Y-51647558D02*
X63119982Y-51635555D01*
%TO.N,+3V3*%
D33*
X46686431Y-62250000D02*
X46796431Y-62360000D01*
X57438979Y-51670555D02*
X57922479Y-51670555D01*
X56254002Y-54004002D02*
X56254002Y-52396196D01*
X59282479Y-50323055D02*
X60019979Y-51060555D01*
X45912500Y-62250000D02*
X46686431Y-62250000D01*
D32*
X51750000Y-56260000D02*
X52000000Y-56510000D01*
D33*
X58369979Y-52601555D02*
X57438979Y-51670555D01*
D32*
X45000000Y-66725000D02*
X45000000Y-68050000D01*
D33*
X50313603Y-60550000D02*
X50686397Y-60550000D01*
D32*
X46224999Y-62250000D02*
X45912500Y-62250000D01*
D33*
X52071201Y-62495000D02*
X55529448Y-62495000D01*
X46796431Y-62360000D02*
X47110000Y-62360000D01*
X61577617Y-54984597D02*
X61577617Y-54827917D01*
X47756431Y-62601254D02*
X48408699Y-62601254D01*
D32*
X45955262Y-65382478D02*
X45000000Y-66337740D01*
X52000000Y-56510000D02*
X52000000Y-59520000D01*
D33*
X50050000Y-61450000D02*
X50181802Y-61318198D01*
D34*
X65504699Y-61621235D02*
X65504699Y-63690143D01*
D33*
X57215552Y-63500000D02*
X58125000Y-64409448D01*
X66114699Y-59978302D02*
X64886397Y-58750000D01*
X51701200Y-62124999D02*
X52071201Y-62495000D01*
X56254002Y-52396196D02*
X56589375Y-52060823D01*
D32*
X51750000Y-56260000D02*
X52750000Y-56260000D01*
X45500000Y-64500000D02*
X45750000Y-64250000D01*
X46006866Y-63912500D02*
X46450000Y-63469366D01*
D33*
X50500000Y-62124999D02*
X51701200Y-62124999D01*
X48408699Y-62601254D02*
X48884954Y-62124999D01*
X50050000Y-61674999D02*
X50050000Y-61450000D01*
D32*
X45750000Y-64250000D02*
X45750000Y-63912500D01*
D33*
X50050000Y-61186397D02*
X50050000Y-60813603D01*
D32*
X46450000Y-63469366D02*
X46450000Y-62475001D01*
D33*
X58744500Y-53885607D02*
X58369979Y-53511086D01*
D32*
X46025000Y-65382478D02*
X46025000Y-64187500D01*
D33*
X47655177Y-62500000D02*
X47756431Y-62601254D01*
X62269979Y-54135555D02*
X62269979Y-53765555D01*
D32*
X61432115Y-52895443D02*
X61431979Y-52895307D01*
D33*
X47110000Y-62360000D02*
X47250000Y-62500000D01*
D32*
X44300000Y-68750000D02*
X43975000Y-68750000D01*
D34*
X63970849Y-62116234D02*
X65009700Y-62116234D01*
D33*
X58125000Y-64409448D02*
X58125000Y-64650000D01*
X47756431Y-62601254D02*
X48082565Y-62275120D01*
X59269979Y-50323055D02*
X59282479Y-50323055D01*
D32*
X47139270Y-63987566D02*
X45825066Y-63987566D01*
X46025000Y-64187500D02*
X45750000Y-63912500D01*
D33*
X47250000Y-62500000D02*
X47655177Y-62500000D01*
D34*
X65009700Y-62116234D02*
X65504699Y-61621235D01*
D33*
X58369979Y-53511086D02*
X58369979Y-52601555D01*
X50050000Y-60813603D02*
X50313603Y-60550000D01*
D32*
X61519979Y-52895443D02*
X61432115Y-52895443D01*
X45955262Y-65382478D02*
X45955262Y-66680262D01*
D33*
X56589375Y-52060823D02*
X57410030Y-52060823D01*
D32*
X44080634Y-64500000D02*
X45500000Y-64500000D01*
D33*
X55529448Y-62495000D02*
X56534448Y-63500000D01*
X51230000Y-60270000D02*
X51250000Y-60270000D01*
D32*
X43850000Y-64269366D02*
X44080634Y-64500000D01*
D33*
X56534448Y-63500000D02*
X57215552Y-63500000D01*
D34*
X51744999Y-59775001D02*
X52783850Y-59775001D01*
X51250000Y-60270000D02*
X51744999Y-59775001D01*
D33*
X50181802Y-61318198D02*
X50050000Y-61186397D01*
X57922479Y-51670555D02*
X59269979Y-50323055D01*
D32*
X45000000Y-68050000D02*
X44300000Y-68750000D01*
D33*
X65504699Y-61621235D02*
X66114699Y-61011235D01*
D34*
X65504699Y-63690143D02*
X63411999Y-65782843D01*
D32*
X45955262Y-66680262D02*
X46000000Y-66725000D01*
X45000000Y-66337740D02*
X45000000Y-66725000D01*
D33*
X50818199Y-60681801D02*
X51230000Y-60270000D01*
X50500000Y-62124999D02*
X50050000Y-61674999D01*
D32*
X61431979Y-52895307D02*
X61431979Y-52885555D01*
D34*
X63411999Y-65782843D02*
X62782843Y-65782843D01*
D32*
X45750000Y-63912500D02*
X46006866Y-63912500D01*
X43850000Y-63487500D02*
X43850000Y-64269366D01*
D33*
X64886397Y-58750000D02*
X63750000Y-58750000D01*
D32*
X45825066Y-63987566D02*
X45750000Y-63912500D01*
X44087500Y-63250000D02*
X43850000Y-63487500D01*
D33*
X61577617Y-54827917D02*
X62269979Y-54135555D01*
X48082565Y-62275120D02*
X48082565Y-61750000D01*
X48884954Y-62124999D02*
X50500000Y-62124999D01*
D32*
X52000000Y-59520000D02*
X51744999Y-59775001D01*
D33*
X66114699Y-61011235D02*
X66114699Y-59978302D01*
X56750000Y-54500000D02*
X56254002Y-54004002D01*
D32*
X46450000Y-62475001D02*
X46224999Y-62250000D01*
D33*
X50686397Y-60550000D02*
X50818199Y-60681801D01*
%TO.N,Net-(D3-K)*%
D32*
X63526979Y-52005555D02*
X63526979Y-51392555D01*
X63526979Y-51392555D02*
X63519979Y-51385555D01*
%TO.N,/LiPo+*%
X63526979Y-53325555D02*
X63853582Y-52998952D01*
X63853582Y-52998952D02*
X63853582Y-52885555D01*
X63526979Y-53325555D02*
X63107979Y-53325555D01*
%TO.N,GND*%
D34*
X57438979Y-53670555D02*
X58224031Y-54455607D01*
D32*
X53990000Y-58270000D02*
X54000000Y-58260000D01*
X62269979Y-52005555D02*
X62269979Y-52445555D01*
X62269979Y-52005555D02*
X62269979Y-51718495D01*
X48099270Y-63987566D02*
X48022848Y-63987566D01*
D34*
X51250000Y-61230000D02*
X50730000Y-61230000D01*
D32*
X62269979Y-52885555D02*
X61850979Y-52885555D01*
X44880584Y-65382478D02*
X45342826Y-64920236D01*
X54000000Y-58260000D02*
X54240000Y-58260000D01*
D34*
X51744999Y-61724999D02*
X52783850Y-61724999D01*
D32*
X45355025Y-68400000D02*
X45650000Y-68400000D01*
X45912500Y-63250000D02*
X45912500Y-62750000D01*
D35*
X56875000Y-64625000D02*
X56500000Y-64250000D01*
D34*
X61012979Y-53765555D02*
X60562379Y-53765555D01*
D32*
X64708660Y-50389287D02*
X64762635Y-50335312D01*
D35*
X54375000Y-64650000D02*
X54375000Y-64248541D01*
D32*
X65484769Y-51738722D02*
X65473871Y-51727824D01*
X45912500Y-62750000D02*
X45500000Y-62750000D01*
X48250000Y-64138296D02*
X48099270Y-63987566D01*
X44250000Y-61587500D02*
X45250000Y-61587500D01*
X46930768Y-61750000D02*
X46830577Y-61850191D01*
X45250000Y-62500000D02*
X45250000Y-61587500D01*
D35*
X54375000Y-64248541D02*
X54400349Y-64223192D01*
D34*
X63970849Y-60166236D02*
X65009700Y-60166236D01*
X51250000Y-61230000D02*
X51744999Y-61724999D01*
D32*
X48250000Y-67225000D02*
X48250000Y-64138296D01*
X44475000Y-65382478D02*
X44880584Y-65382478D01*
X45500000Y-62750000D02*
X45250000Y-62500000D01*
D34*
X65504699Y-60004699D02*
X65500000Y-60000000D01*
D32*
X63107979Y-53765555D02*
X63107979Y-54087812D01*
X47250000Y-68850000D02*
X47250000Y-68225000D01*
X47250000Y-68225000D02*
X48250000Y-67225000D01*
X61850979Y-52445555D02*
X61850979Y-52005555D01*
D34*
X62875979Y-50445555D02*
X62875979Y-50301276D01*
D32*
X48250000Y-67225000D02*
X47525000Y-67225000D01*
X45618760Y-63250000D02*
X45513589Y-63355171D01*
D35*
X56875000Y-64650000D02*
X56875000Y-64625000D01*
D34*
X50730000Y-61230000D02*
X50500000Y-61000000D01*
D32*
X65473871Y-51046548D02*
X64762635Y-50335312D01*
X47122565Y-61750000D02*
X46930768Y-61750000D01*
D34*
X65009700Y-60166236D02*
X65504699Y-60661235D01*
D32*
X61850979Y-52445555D02*
X61850979Y-52885555D01*
D34*
X60562379Y-53765555D02*
X60513979Y-53717155D01*
D32*
X65473871Y-51727824D02*
X65473871Y-51046548D01*
X64492806Y-54165037D02*
X64798626Y-53859217D01*
X63107979Y-54087812D02*
X63185204Y-54165037D01*
X47525000Y-67225000D02*
X47500000Y-67250000D01*
X52750000Y-58270000D02*
X53990000Y-58270000D01*
X46000000Y-68750000D02*
X46000000Y-69275000D01*
X45912500Y-63250000D02*
X45618760Y-63250000D01*
D34*
X59199927Y-54455607D02*
X59269979Y-54385555D01*
D32*
X54240000Y-58260000D02*
X54750000Y-57750000D01*
D35*
X51875000Y-64650000D02*
X51875000Y-64231647D01*
X51875000Y-64231647D02*
X51842653Y-64199300D01*
D32*
X45650000Y-68400000D02*
X46000000Y-68750000D01*
X46000000Y-69275000D02*
X46825000Y-69275000D01*
X48022848Y-63987566D02*
X47503670Y-64506744D01*
D34*
X58224031Y-54455607D02*
X59199927Y-54455607D01*
X57438979Y-53220555D02*
X57438979Y-53670555D01*
X65504699Y-60661235D02*
X65504699Y-60004699D01*
D32*
X46825000Y-69275000D02*
X47250000Y-68850000D01*
X61012979Y-52005555D02*
X62269979Y-52005555D01*
X62910528Y-50389287D02*
X64708660Y-50389287D01*
X63185204Y-54165037D02*
X64492806Y-54165037D01*
X45000000Y-69275000D02*
X45000000Y-68755025D01*
X45000000Y-68755025D02*
X45355025Y-68400000D01*
%TO.N,/VBUS_OUT*%
X61245726Y-57750000D02*
X60500000Y-57750000D01*
X64480892Y-54514834D02*
X61245726Y-57750000D01*
%TO.N,/IMU_INT1*%
X49830203Y-59169797D02*
X49000000Y-60000000D01*
X48750000Y-61250000D02*
X46087500Y-61250000D01*
X49000000Y-60000000D02*
X49000000Y-60750000D01*
X51571064Y-59154021D02*
X51555288Y-59169797D01*
X49000000Y-60750000D02*
X48750000Y-61000000D01*
X48750000Y-61000000D02*
X48750000Y-61250000D01*
X46087500Y-61250000D02*
X45750000Y-61587500D01*
X51555288Y-59169797D02*
X49830203Y-59169797D01*
%TO.N,/PMIC_INT*%
X61155379Y-54042155D02*
X59921048Y-54042155D01*
X61431979Y-53765555D02*
X61155379Y-54042155D01*
X57421548Y-55921548D02*
X59074514Y-55921548D01*
X59074514Y-55921548D02*
X59764500Y-55231562D01*
X59921048Y-54042155D02*
X59764500Y-53885607D01*
X56250000Y-54750000D02*
X57421548Y-55921548D01*
X59764500Y-55231562D02*
X59764500Y-53885607D01*
%TO.N,/HOST_SDA*%
X43250000Y-64500000D02*
X43202031Y-64500000D01*
X43250000Y-66525000D02*
X43250000Y-64500000D01*
X43830634Y-62250000D02*
X44087500Y-62250000D01*
X61850979Y-53847555D02*
X61850979Y-53765555D01*
X43250000Y-64500000D02*
X43250000Y-62830634D01*
X43250000Y-62830634D02*
X43830634Y-62250000D01*
X61888979Y-53885555D02*
X61850979Y-53847555D01*
X43202031Y-64500000D02*
X43200000Y-64497969D01*
X43975000Y-67250000D02*
X43250000Y-66525000D01*
X52750000Y-55240000D02*
X52750000Y-54750000D01*
%TO.N,/HOST_SCL*%
X43550000Y-62975001D02*
X43550000Y-64464315D01*
X43775001Y-62750000D02*
X43550000Y-62975001D01*
X62688979Y-53765555D02*
X62688979Y-55688979D01*
X43550000Y-65775000D02*
X43550000Y-64500000D01*
X44500000Y-66725000D02*
X43550000Y-65775000D01*
X43550000Y-64464315D02*
X43599999Y-64514314D01*
X62688979Y-55688979D02*
X61783850Y-55688979D01*
X51750000Y-55250000D02*
X52275000Y-55775000D01*
X44087500Y-62750000D02*
X43775001Y-62750000D01*
X51750000Y-55240000D02*
X51750000Y-55250000D01*
X43550000Y-64500000D02*
X43585685Y-64500000D01*
X55372488Y-54383910D02*
X55372488Y-52622488D01*
X61783850Y-55688979D02*
X60453529Y-57019300D01*
X60453529Y-57019300D02*
X58007878Y-57019300D01*
X58007878Y-57019300D02*
X55372488Y-54383910D01*
X43585685Y-64500000D02*
X43599999Y-64514314D01*
%TO.N,/RS485_DIR*%
D34*
X58500000Y-59244974D02*
X58500000Y-60510337D01*
X55235884Y-55980858D02*
X58500000Y-59244974D01*
X55165172Y-55980858D02*
X55235884Y-55980858D01*
D32*
X54000000Y-56750000D02*
X54250000Y-56500000D01*
D34*
X54690156Y-55505842D02*
X55165172Y-55980858D01*
D32*
X54000000Y-57240000D02*
X54000000Y-56750000D01*
D34*
X58805897Y-60816234D02*
X59538549Y-60816234D01*
X59538549Y-61466236D02*
X59538549Y-60816234D01*
X58500000Y-60510337D02*
X58805897Y-60816234D01*
%TO.N,/SYNC_DIR*%
X57216150Y-61075001D02*
X57216150Y-60424999D01*
X56250000Y-57750000D02*
X54250000Y-55750000D01*
X56250000Y-60325599D02*
X56250000Y-57750000D01*
D32*
X52750000Y-57250000D02*
X54250000Y-55750000D01*
D34*
X54250000Y-55750000D02*
X54250000Y-55250000D01*
X56349400Y-60424999D02*
X56250000Y-60325599D01*
X57216150Y-60424999D02*
X56349400Y-60424999D01*
%TO.N,/RS485_RX*%
X60455299Y-59700336D02*
X60455299Y-61932136D01*
X60455299Y-61932136D02*
X60271201Y-62116234D01*
X60271201Y-62116234D02*
X59538549Y-62116234D01*
X60016022Y-59700336D02*
X60455299Y-59700336D01*
X53750000Y-51516785D02*
X53750000Y-53434314D01*
X53772376Y-51494409D02*
X53750000Y-51516785D01*
X53750000Y-53434314D02*
X60016022Y-59700336D01*
%TO.N,/RS485_TX*%
X59538549Y-60166236D02*
X59538549Y-59788549D01*
X59538549Y-59788549D02*
X52676282Y-52926282D01*
X52676282Y-52926282D02*
X52676282Y-51464100D01*
%TO.N,/SYNC_TX*%
X56349400Y-61724999D02*
X55217157Y-60592756D01*
X55217157Y-60592756D02*
X55217157Y-57282843D01*
X57216150Y-61724999D02*
X56349400Y-61724999D01*
%TO.N,/VLOAD*%
D32*
X61012979Y-52885555D02*
X60769979Y-52885555D01*
X61012979Y-52864555D02*
X61431979Y-52445555D01*
X63107979Y-52885555D02*
X63526979Y-52885555D01*
X61012979Y-52885555D02*
X61012979Y-52864555D01*
%TO.N,Net-(C1-Pad1)*%
X63819979Y-52152555D02*
X63819979Y-51261290D01*
X63625704Y-51067015D02*
X63301439Y-51067015D01*
X63526979Y-52445555D02*
X63107979Y-52445555D01*
X63819979Y-51261290D02*
X63625704Y-51067015D01*
D33*
X65418626Y-54178141D02*
X65418626Y-52520293D01*
X61500000Y-62250000D02*
X61050000Y-61800000D01*
D32*
X61975979Y-51095555D02*
X61325979Y-50445555D01*
D33*
X61050000Y-60553828D02*
X64000000Y-57603828D01*
X65418626Y-52520293D02*
X65079507Y-52181174D01*
D32*
X63526979Y-52445555D02*
X63819979Y-52152555D01*
X63272899Y-51095555D02*
X61975979Y-51095555D01*
D33*
X61050000Y-61800000D02*
X61050000Y-60553828D01*
X64000000Y-57603828D02*
X64000000Y-55596767D01*
D32*
X63301439Y-51067015D02*
X63272899Y-51095555D01*
D33*
X65079507Y-52181174D02*
X63848598Y-52181174D01*
X64000000Y-55596767D02*
X65418626Y-54178141D01*
%TO.N,/USB_CC1*%
D32*
X61884068Y-53325555D02*
X61850979Y-53325555D01*
X61884578Y-53326065D02*
X61884068Y-53325555D01*
%TO.N,/USB_CC2*%
X62688979Y-52445555D02*
X62688979Y-52447777D01*
X62688979Y-52447777D02*
X62686756Y-52450000D01*
%TO.N,Net-(D1-K)*%
X62688979Y-52005555D02*
X62688979Y-51716555D01*
X62688979Y-51716555D02*
X62769979Y-51635555D01*
%TO.N,Net-(U4-A)*%
D34*
X60625000Y-63800001D02*
X60625000Y-64650000D01*
X58000000Y-63000000D02*
X59824999Y-63000000D01*
X59824999Y-63000000D02*
X60625000Y-63800001D01*
X50389749Y-63733681D02*
X50389749Y-65134723D01*
X52783850Y-61075001D02*
X54154157Y-61075001D01*
X59344842Y-66100000D02*
X60625000Y-64819842D01*
X50389749Y-65134723D02*
X51355025Y-66100000D01*
X60625000Y-64819842D02*
X60625000Y-64650000D01*
X51355025Y-66100000D02*
X59344842Y-66100000D01*
X57500000Y-62500000D02*
X58000000Y-63000000D01*
X54154157Y-61075001D02*
X54349157Y-61270001D01*
%TO.N,Net-(U4-B)*%
X54069841Y-60424999D02*
X56644842Y-63000000D01*
X57500000Y-63000000D02*
X58050000Y-63550000D01*
X58050000Y-63550000D02*
X58444842Y-63550000D01*
X50959749Y-63283681D02*
X50959749Y-65209749D01*
X56644842Y-63000000D02*
X57500000Y-63000000D01*
X51500000Y-65750000D02*
X58444842Y-65750000D01*
X52783850Y-60424999D02*
X54069841Y-60424999D01*
X59375000Y-64819842D02*
X59375000Y-64650000D01*
X50959749Y-65209749D02*
X51500000Y-65750000D01*
X50389749Y-62713681D02*
X50959749Y-63283681D01*
X58444842Y-63550000D02*
X59375000Y-64480158D01*
X58444842Y-65750000D02*
X59375000Y-64819842D01*
X59375000Y-64480158D02*
X59375000Y-64650000D01*
%TO.N,Net-(U3-B)*%
X63970849Y-61466236D02*
X63238197Y-61466236D01*
X49156669Y-64396619D02*
X51210050Y-66450000D01*
X60244842Y-66450000D02*
X61875000Y-64819842D01*
X61875000Y-64819842D02*
X61875000Y-64650000D01*
X49156669Y-63723656D02*
X49156669Y-64396619D01*
X51210050Y-66450000D02*
X60244842Y-66450000D01*
X63238197Y-61466236D02*
X61875000Y-62829433D01*
X61875000Y-62829433D02*
X61875000Y-64650000D01*
%TO.N,Net-(U3-A)*%
X61200000Y-66800000D02*
X63125000Y-64875000D01*
X63970849Y-60816234D02*
X61683766Y-60816234D01*
X48806669Y-64541593D02*
X51065076Y-66800000D01*
X63750000Y-64025000D02*
X63125000Y-64650000D01*
X48806850Y-63578500D02*
X48806669Y-63578681D01*
X63125000Y-64875000D02*
X63125000Y-64650000D01*
X61683766Y-60816234D02*
X61500000Y-61000000D01*
X49000000Y-63226741D02*
X48806850Y-63419891D01*
X48806850Y-63419891D02*
X48806850Y-63578500D01*
X48806669Y-63578681D02*
X48806669Y-64541593D01*
X49156669Y-62703656D02*
X49000000Y-62860325D01*
X63750000Y-63500000D02*
X63750000Y-64025000D01*
X49000000Y-62860325D02*
X49000000Y-63226741D01*
X51065076Y-66800000D02*
X61200000Y-66800000D01*
%TO.N,Net-(U6-CAP)*%
D32*
X45500000Y-69275000D02*
X45500000Y-68750000D01*
%TO.N,Net-(U2-NTC)*%
X64762635Y-51605410D02*
X64762635Y-51355312D01*
X64642034Y-51726011D02*
X64762635Y-51605410D01*
%TO.N,Net-(U2-SW2)*%
X60035031Y-53325555D02*
X61012979Y-53325555D01*
X59269979Y-52448055D02*
X59269979Y-52885555D01*
X60019979Y-53340607D02*
X60035031Y-53325555D01*
X59269979Y-52885555D02*
X59725031Y-53340607D01*
X59725031Y-53340607D02*
X60019979Y-53340607D01*
%TO.N,Net-(U2-VSET2)*%
X63526979Y-53765555D02*
X63872288Y-53765555D01*
X63872288Y-53765555D02*
X64798626Y-52839217D01*
%TD*%
M02*
