%TF.GenerationSoftware,KiCad,Pcbnew,10.0.1*%
%TF.CreationDate,2026-08-13T13:53:40+01:00*%
%TF.ProjectId,floating_hub,666c6f61-7469-46e6-975f-6875622e6b69,rev?*%
%TF.SameCoordinates,Original*%
%TF.FileFunction,Legend,Top*%
%TF.FilePolarity,Positive*%
%FSLAX46Y46*%
G04 Gerber Fmt 4.6, Leading zero omitted, Abs format (unit mm)*
G04 Created by KiCad (PCBNEW 10.0.1) date 2026-08-13 13:53:40*
%MOMM*%
%LPD*%
G01*
G04 APERTURE LIST*
G04 Aperture macros list*
%AMRoundRect*
0 Rectangle with rounded corners*
0 $1 Rounding radius*
0 $2 $3 $4 $5 $6 $7 $8 $9 X,Y pos of 4 corners*
0 Add a 4 corners polygon primitive as box body*
4,1,4,$2,$3,$4,$5,$6,$7,$8,$9,$2,$3,0*
0 Add four circle primitives for the rounded corners*
1,1,$1+$1,$2,$3*
1,1,$1+$1,$4,$5*
1,1,$1+$1,$6,$7*
1,1,$1+$1,$8,$9*
0 Add four rect primitives between the rounded corners*
20,1,$1+$1,$2,$3,$4,$5,0*
20,1,$1+$1,$4,$5,$6,$7,0*
20,1,$1+$1,$6,$7,$8,$9,0*
20,1,$1+$1,$8,$9,$2,$3,0*%
G04 Aperture macros list end*
%ADD10C,0.100000*%
%ADD11C,0.150000*%
%ADD12C,0.120000*%
%ADD13C,0.152400*%
%ADD14RoundRect,0.147500X0.147500X0.172500X-0.147500X0.172500X-0.147500X-0.172500X0.147500X-0.172500X0*%
%ADD15RoundRect,0.225000X-0.225000X-0.250000X0.225000X-0.250000X0.225000X0.250000X-0.225000X0.250000X0*%
%ADD16R,0.508000X0.508000*%
%ADD17RoundRect,0.140000X-0.140000X-0.170000X0.140000X-0.170000X0.140000X0.170000X-0.140000X0.170000X0*%
%ADD18RoundRect,0.250000X-0.250000X-1.500000X0.250000X-1.500000X0.250000X1.500000X-0.250000X1.500000X0*%
%ADD19RoundRect,0.250001X-0.499999X-1.449999X0.499999X-1.449999X0.499999X1.449999X-0.499999X1.449999X0*%
%ADD20C,0.990600*%
%ADD21C,0.787400*%
%ADD22C,0.650000*%
%ADD23RoundRect,0.150000X-0.150000X-0.425000X0.150000X-0.425000X0.150000X0.425000X-0.150000X0.425000X0*%
%ADD24RoundRect,0.075000X-0.075000X-0.500000X0.075000X-0.500000X0.075000X0.500000X-0.075000X0.500000X0*%
%ADD25RoundRect,0.250000X-0.840000X-0.750000X0.840000X-0.750000X0.840000X0.750000X-0.840000X0.750000X0*%
G04 APERTURE END LIST*
D10*
X43477368Y-59355548D02*
X47750000Y-55082916D01*
X43500323Y-50094684D02*
X44600323Y-50094684D01*
X45000323Y-50094684D02*
X46100323Y-50094684D01*
X46500323Y-50094684D02*
X47600323Y-50094684D01*
X47750000Y-50094684D02*
X47750000Y-51194684D01*
X47750000Y-51594684D02*
X47750000Y-52694684D01*
X47750000Y-53094684D02*
X47750000Y-54194684D01*
X47750000Y-54594684D02*
X47750000Y-55694684D01*
X47750000Y-56094684D02*
X47750000Y-57194684D01*
X47750000Y-57594684D02*
X47750000Y-58694684D01*
X47750000Y-59094684D02*
X47750000Y-60194684D01*
X47750000Y-60500000D02*
X46650000Y-60500000D01*
X46250000Y-60500000D02*
X45150000Y-60500000D01*
X44750000Y-60500000D02*
X43650000Y-60500000D01*
X43500323Y-60500000D02*
X43500323Y-59400000D01*
X43500323Y-59000000D02*
X43500323Y-57900000D01*
X43500323Y-57500000D02*
X43500323Y-56400000D01*
X43500323Y-56000000D02*
X43500323Y-54900000D01*
X43500323Y-54500000D02*
X43500323Y-53400000D01*
X43500323Y-53000000D02*
X43500323Y-51900000D01*
X43500323Y-51500000D02*
X43500323Y-50400000D01*
X43501020Y-51893320D02*
X45251020Y-50143320D01*
X43512846Y-56694690D02*
X47750000Y-52457536D01*
X43524672Y-54270353D02*
X47700341Y-50094684D01*
X43536498Y-53123227D02*
X46565041Y-50094684D01*
X43536498Y-55405652D02*
X47750000Y-51192150D01*
X43536498Y-57995554D02*
X47750000Y-53782052D01*
X43536498Y-60526325D02*
X47750000Y-56312823D01*
X44742753Y-60490847D02*
X47750000Y-57483600D01*
X46000000Y-60500000D02*
X47750000Y-58750000D01*
D11*
X50204819Y-56083588D02*
X51014342Y-56083588D01*
X51014342Y-56083588D02*
X51109580Y-56035969D01*
X51109580Y-56035969D02*
X51157200Y-55988350D01*
X51157200Y-55988350D02*
X51204819Y-55893112D01*
X51204819Y-55893112D02*
X51204819Y-55702636D01*
X51204819Y-55702636D02*
X51157200Y-55607398D01*
X51157200Y-55607398D02*
X51109580Y-55559779D01*
X51109580Y-55559779D02*
X51014342Y-55512160D01*
X51014342Y-55512160D02*
X50204819Y-55512160D01*
X51204819Y-54512160D02*
X51204819Y-55083588D01*
X51204819Y-54797874D02*
X50204819Y-54797874D01*
X50204819Y-54797874D02*
X50347676Y-54893112D01*
X50347676Y-54893112D02*
X50442914Y-54988350D01*
X50442914Y-54988350D02*
X50490533Y-55083588D01*
X60761905Y-65454819D02*
X60761905Y-64454819D01*
X60761905Y-64454819D02*
X61142857Y-64454819D01*
X61142857Y-64454819D02*
X61238095Y-64502438D01*
X61238095Y-64502438D02*
X61285714Y-64550057D01*
X61285714Y-64550057D02*
X61333333Y-64645295D01*
X61333333Y-64645295D02*
X61333333Y-64788152D01*
X61333333Y-64788152D02*
X61285714Y-64883390D01*
X61285714Y-64883390D02*
X61238095Y-64931009D01*
X61238095Y-64931009D02*
X61142857Y-64978628D01*
X61142857Y-64978628D02*
X60761905Y-64978628D01*
X62285714Y-65454819D02*
X61714286Y-65454819D01*
X62000000Y-65454819D02*
X62000000Y-64454819D01*
X62000000Y-64454819D02*
X61904762Y-64597676D01*
X61904762Y-64597676D02*
X61809524Y-64692914D01*
X61809524Y-64692914D02*
X61714286Y-64740533D01*
X49666666Y-64954819D02*
X49666666Y-65669104D01*
X49666666Y-65669104D02*
X49619047Y-65811961D01*
X49619047Y-65811961D02*
X49523809Y-65907200D01*
X49523809Y-65907200D02*
X49380952Y-65954819D01*
X49380952Y-65954819D02*
X49285714Y-65954819D01*
X50047619Y-64954819D02*
X50666666Y-64954819D01*
X50666666Y-64954819D02*
X50333333Y-65335771D01*
X50333333Y-65335771D02*
X50476190Y-65335771D01*
X50476190Y-65335771D02*
X50571428Y-65383390D01*
X50571428Y-65383390D02*
X50619047Y-65431009D01*
X50619047Y-65431009D02*
X50666666Y-65526247D01*
X50666666Y-65526247D02*
X50666666Y-65764342D01*
X50666666Y-65764342D02*
X50619047Y-65859580D01*
X50619047Y-65859580D02*
X50571428Y-65907200D01*
X50571428Y-65907200D02*
X50476190Y-65954819D01*
X50476190Y-65954819D02*
X50190476Y-65954819D01*
X50190476Y-65954819D02*
X50095238Y-65907200D01*
X50095238Y-65907200D02*
X50047619Y-65859580D01*
%TO.C,D2*%
D10*
X63664153Y-50116173D02*
G75*
G02*
X63564153Y-50116173I-50000J0D01*
G01*
X63564153Y-50116173D02*
G75*
G02*
X63664153Y-50116173I50000J0D01*
G01*
%TO.C,D3*%
X65649573Y-50240471D02*
G75*
G02*
X65549573Y-50240471I-50000J0D01*
G01*
X65549573Y-50240471D02*
G75*
G02*
X65649573Y-50240471I50000J0D01*
G01*
%TO.C,C2*%
D12*
X64437530Y-53138085D02*
X64718690Y-53138085D01*
X64437530Y-54158085D02*
X64718690Y-54158085D01*
%TO.C,C6*%
X64437530Y-51585257D02*
X64718690Y-51585257D01*
X64437530Y-52605257D02*
X64718690Y-52605257D01*
%TO.C,U1*%
D13*
X43500323Y-50094684D02*
X58754323Y-50094684D01*
X43500323Y-60548684D02*
X43500323Y-50094684D01*
X58754323Y-50094684D02*
X58754323Y-60548684D01*
X58754323Y-60548684D02*
X43500323Y-60548684D01*
%TO.C,C7*%
D12*
X60412143Y-54525555D02*
X60627815Y-54525555D01*
X60412143Y-55245555D02*
X60627815Y-55245555D01*
%TO.C,C4*%
X60301733Y-51592189D02*
X60582893Y-51592189D01*
X60301733Y-52612189D02*
X60582893Y-52612189D01*
%TO.C,P1*%
X57440000Y-61290000D02*
X58460000Y-61290000D01*
X57440000Y-65540000D02*
X57440000Y-61290000D01*
X58460000Y-61290000D02*
X58460000Y-62890000D01*
X58460000Y-62890000D02*
X59740000Y-62890000D01*
X59160000Y-69110000D02*
X63840000Y-69110000D01*
X59740000Y-62890000D02*
X59740000Y-60000000D01*
X64540000Y-61290000D02*
X64540000Y-62890000D01*
X64540000Y-62890000D02*
X63260000Y-62890000D01*
X65560000Y-61290000D02*
X64540000Y-61290000D01*
X65560000Y-65540000D02*
X65560000Y-61290000D01*
%TO.C,J2*%
X63750000Y-56095000D02*
X64385000Y-56095000D01*
X64385000Y-56095000D02*
X64385000Y-56730000D01*
%TO.C,J3*%
X45420000Y-65240000D02*
X45420000Y-63830000D01*
X46240000Y-61160000D02*
X46240000Y-61310000D01*
X47040000Y-61160000D02*
X46240000Y-61160000D01*
X54580000Y-65240000D02*
X54580000Y-63830000D01*
%TO.C,C3*%
X60298399Y-53132514D02*
X60579559Y-53132514D01*
X60298399Y-54152514D02*
X60579559Y-54152514D01*
%TO.C,D1*%
D10*
X61694448Y-50084251D02*
G75*
G02*
X61594448Y-50084251I-50000J0D01*
G01*
X61594448Y-50084251D02*
G75*
G02*
X61694448Y-50084251I50000J0D01*
G01*
%TD*%
%LPC*%
D14*
%TO.C,D2*%
X63599153Y-50730469D03*
X62629153Y-50730469D03*
%TD*%
%TO.C,D3*%
X65584573Y-50740471D03*
X64614573Y-50740471D03*
%TD*%
D15*
%TO.C,C2*%
X63803110Y-53648085D03*
X65353110Y-53648085D03*
%TD*%
%TO.C,C6*%
X63803110Y-52095257D03*
X65353110Y-52095257D03*
%TD*%
D16*
%TO.C,U1*%
X48277323Y-59722234D03*
X48827323Y-58822234D03*
X49377323Y-59722234D03*
X49927323Y-58822234D03*
X50477323Y-59722234D03*
X51027323Y-58822234D03*
X51577323Y-59722234D03*
X52127323Y-58822234D03*
X52677323Y-59722234D03*
X53227323Y-58822234D03*
X53777323Y-59722234D03*
X54327323Y-58822234D03*
X54877323Y-59722234D03*
X55427323Y-58822234D03*
X55977323Y-59722234D03*
X57077323Y-59722234D03*
X57077323Y-58622234D03*
X56177323Y-58072234D03*
X57077323Y-57522234D03*
X56177323Y-56972234D03*
X57077323Y-56422234D03*
X56177323Y-55872234D03*
X56177323Y-53672234D03*
X57077323Y-53122234D03*
X56177323Y-52572234D03*
X57077323Y-52022234D03*
X57077323Y-50922234D03*
X55977323Y-50921134D03*
X55427323Y-51821134D03*
X54877323Y-50921134D03*
X54327323Y-51821134D03*
X53777323Y-50921134D03*
X53227323Y-51821134D03*
X52677323Y-50921134D03*
X52127323Y-51821134D03*
X51577323Y-50921134D03*
X51027323Y-51821134D03*
X50477323Y-50921134D03*
X49927323Y-51821134D03*
X49377323Y-50921134D03*
X48827323Y-51821134D03*
X48277323Y-50921134D03*
X48277323Y-53671684D03*
X48277323Y-56971684D03*
X49377323Y-57922234D03*
X50477323Y-57922234D03*
X51577323Y-57922234D03*
X52677323Y-57922234D03*
X53777323Y-57922234D03*
X55277323Y-56422234D03*
X55277323Y-55321684D03*
X55277323Y-54222234D03*
X53777323Y-52721134D03*
X52677323Y-52721134D03*
X51577323Y-52721134D03*
X50477323Y-52721134D03*
X49377323Y-52721134D03*
X57977323Y-59172234D03*
X57977323Y-58072234D03*
X57977323Y-56972234D03*
X57977323Y-55872234D03*
X57977323Y-54772234D03*
X57977323Y-53672234D03*
X57977323Y-52572234D03*
X57977323Y-51472234D03*
%TD*%
D17*
%TO.C,C7*%
X60039979Y-54885555D03*
X60999979Y-54885555D03*
%TD*%
D15*
%TO.C,C4*%
X59667313Y-52102189D03*
X61217313Y-52102189D03*
%TD*%
D18*
%TO.C,P1*%
X60500000Y-61750000D03*
X62500000Y-61750000D03*
D19*
X58150000Y-67500000D03*
X64850000Y-67500000D03*
%TD*%
D20*
%TO.C,J2*%
X65020000Y-57365000D03*
X59940000Y-58381000D03*
X59940000Y-56349000D03*
D21*
X63750000Y-56730000D03*
X63750000Y-58000000D03*
X62480000Y-56730000D03*
X62480000Y-58000000D03*
X61210000Y-56730000D03*
X61210000Y-58000000D03*
%TD*%
D22*
%TO.C,J3*%
X47110000Y-63070000D03*
X52890000Y-63070000D03*
D23*
X46800000Y-61995000D03*
X47600000Y-61995000D03*
D24*
X48750000Y-61995000D03*
X49750000Y-61995000D03*
X50250000Y-61995000D03*
X51250000Y-61995000D03*
D23*
X52400000Y-61995000D03*
X53200000Y-61995000D03*
X53200000Y-61995000D03*
X52400000Y-61995000D03*
D24*
X51750000Y-61995000D03*
X50750000Y-61995000D03*
X49250000Y-61995000D03*
X48250000Y-61995000D03*
D23*
X47600000Y-61995000D03*
X46800000Y-61995000D03*
D25*
X44890000Y-62570000D03*
X44890000Y-66500000D03*
X55110000Y-62570000D03*
X55110000Y-66500000D03*
%TD*%
D15*
%TO.C,C3*%
X59663979Y-53642514D03*
X61213979Y-53642514D03*
%TD*%
D14*
%TO.C,D1*%
X61637386Y-50729636D03*
X60667386Y-50729636D03*
%TD*%
%LPD*%
M02*
