%TF.GenerationSoftware,KiCad,Pcbnew,10.0.1*%
%TF.CreationDate,2026-08-13T13:53:40+01:00*%
%TF.ProjectId,floating_hub,666c6f61-7469-46e6-975f-6875622e6b69,rev?*%
%TF.SameCoordinates,Original*%
%TF.FileFunction,Copper,L1,Top*%
%TF.FilePolarity,Positive*%
%FSLAX46Y46*%
G04 Gerber Fmt 4.6, Leading zero omitted, Abs format (unit mm)*
G04 Created by KiCad (PCBNEW 10.0.1) date 2026-08-13 13:53:40*
%MOMM*%
%LPD*%
G01*
G04 APERTURE LIST*
G04 Aperture macros list*
%AMRoundRect*
0 Rectangle with rounded corners*
0 $1 Rounding radius*
0 $2 $3 $4 $5 $6 $7 $8 $9 X,Y pos of 4 corners*
0 Add a 4 corners polygon primitive as box body*
4,1,4,$2,$3,$4,$5,$6,$7,$8,$9,$2,$3,0*
0 Add four circle primitives for the rounded corners*
1,1,$1+$1,$2,$3*
1,1,$1+$1,$4,$5*
1,1,$1+$1,$6,$7*
1,1,$1+$1,$8,$9*
0 Add four rect primitives between the rounded corners*
20,1,$1+$1,$2,$3,$4,$5,0*
20,1,$1+$1,$4,$5,$6,$7,0*
20,1,$1+$1,$6,$7,$8,$9,0*
20,1,$1+$1,$8,$9,$2,$3,0*%
G04 Aperture macros list end*
%TA.AperFunction,SMDPad,CuDef*%
%ADD10RoundRect,0.147500X0.147500X0.172500X-0.147500X0.172500X-0.147500X-0.172500X0.147500X-0.172500X0*%
%TD*%
%TA.AperFunction,SMDPad,CuDef*%
%ADD11RoundRect,0.225000X-0.225000X-0.250000X0.225000X-0.250000X0.225000X0.250000X-0.225000X0.250000X0*%
%TD*%
%TA.AperFunction,SMDPad,CuDef*%
%ADD12R,0.508000X0.508000*%
%TD*%
%TA.AperFunction,SMDPad,CuDef*%
%ADD13RoundRect,0.140000X-0.140000X-0.170000X0.140000X-0.170000X0.140000X0.170000X-0.140000X0.170000X0*%
%TD*%
%TA.AperFunction,SMDPad,CuDef*%
%ADD14RoundRect,0.250000X-0.250000X-1.500000X0.250000X-1.500000X0.250000X1.500000X-0.250000X1.500000X0*%
%TD*%
%TA.AperFunction,SMDPad,CuDef*%
%ADD15RoundRect,0.250001X-0.499999X-1.449999X0.499999X-1.449999X0.499999X1.449999X-0.499999X1.449999X0*%
%TD*%
%TA.AperFunction,ConnectorPad*%
%ADD16C,0.787400*%
%TD*%
%TA.AperFunction,SMDPad,CuDef*%
%ADD17RoundRect,0.150000X-0.150000X-0.425000X0.150000X-0.425000X0.150000X0.425000X-0.150000X0.425000X0*%
%TD*%
%TA.AperFunction,SMDPad,CuDef*%
%ADD18RoundRect,0.075000X-0.075000X-0.500000X0.075000X-0.500000X0.075000X0.500000X-0.075000X0.500000X0*%
%TD*%
%TA.AperFunction,SMDPad,CuDef*%
%ADD19RoundRect,0.250000X-0.840000X-0.750000X0.840000X-0.750000X0.840000X0.750000X-0.840000X0.750000X0*%
%TD*%
%TA.AperFunction,ViaPad*%
%ADD20C,0.250000*%
%TD*%
%TA.AperFunction,ViaPad*%
%ADD21C,0.300000*%
%TD*%
%TA.AperFunction,ViaPad*%
%ADD22C,0.450000*%
%TD*%
%TA.AperFunction,ViaPad*%
%ADD23C,0.600000*%
%TD*%
%TA.AperFunction,Conductor*%
%ADD24C,0.150000*%
%TD*%
%TA.AperFunction,Conductor*%
%ADD25C,0.200000*%
%TD*%
%TA.AperFunction,Conductor*%
%ADD26C,0.300000*%
%TD*%
%TA.AperFunction,Conductor*%
%ADD27C,0.500000*%
%TD*%
G04 APERTURE END LIST*
D10*
%TO.P,D2,1,K_1*%
%TO.N,Net-(D2-K)*%
X63599153Y-50730469D03*
%TO.P,D2,2,A_2*%
%TO.N,+3V3*%
X62629153Y-50730469D03*
%TD*%
%TO.P,D3,1,K_1*%
%TO.N,Net-(D3-K)*%
X65584573Y-50740471D03*
%TO.P,D3,2,A_2*%
%TO.N,+3V3*%
X64614573Y-50740471D03*
%TD*%
D11*
%TO.P,C2,1*%
%TO.N,/LiPo+*%
X63803110Y-53648085D03*
%TO.P,C2,2*%
%TO.N,GND*%
X65353110Y-53648085D03*
%TD*%
%TO.P,C6,1*%
%TO.N,/VBUS_OUT*%
X63803110Y-52095257D03*
%TO.P,C6,2*%
%TO.N,GND*%
X65353110Y-52095257D03*
%TD*%
D12*
%TO.P,U1,1,GND_1*%
%TO.N,GND*%
X48277323Y-59722234D03*
%TO.P,U1,2,GND_2*%
X48827323Y-58822234D03*
%TO.P,U1,3,GND_3*%
X49377323Y-59722234D03*
%TO.P,U1,4,GND_4*%
X49927323Y-58822234D03*
%TO.P,U1,5,GND_5*%
X50477323Y-59722234D03*
%TO.P,U1,6,P0.25_6*%
%TO.N,unconnected-(U1-P0.25-Pad6)*%
X51027323Y-58822234D03*
%TO.P,U1,7,P0.26_7*%
%TO.N,unconnected-(U1-P0.26-Pad7)*%
X51577323Y-59722234D03*
%TO.P,U1,8,P0.27_8*%
%TO.N,unconnected-(U1-P0.27-Pad8)*%
X52127323Y-58822234D03*
%TO.P,U1,9,P0.28_9*%
%TO.N,/IMU_INT1*%
X52677323Y-59722234D03*
%TO.P,U1,10,P0.29_10*%
%TO.N,unconnected-(U1-P0.29-Pad10)*%
X53227323Y-58822234D03*
%TO.P,U1,11,P0.30_11*%
%TO.N,/PMIC_INT*%
X53777323Y-59722234D03*
%TO.P,U1,12,P0.31_12*%
%TO.N,unconnected-(U1-P0.31-Pad12)*%
X54327323Y-58822234D03*
%TO.P,U1,13,P0.00_13*%
%TO.N,unconnected-(U1-P0.00-Pad13)*%
X54877323Y-59722234D03*
%TO.P,U1,14,P0.01_14*%
%TO.N,unconnected-(U1-P0.01-Pad14)*%
X55427323Y-58822234D03*
%TO.P,U1,15,P0.02_15*%
%TO.N,unconnected-(U1-P0.02-Pad15)*%
X55977323Y-59722234D03*
%TO.P,U1,16,GND_16*%
%TO.N,GND*%
X57077323Y-59722234D03*
%TO.P,U1,17,VCC_17*%
%TO.N,+3V3*%
X57077323Y-58622234D03*
%TO.P,U1,18,GND_18*%
%TO.N,GND*%
X56177323Y-58072234D03*
%TO.P,U1,19,P0.03_19*%
%TO.N,unconnected-(U1-P0.03-Pad19)*%
X57077323Y-57522234D03*
%TO.P,U1,20,P0.04_20*%
%TO.N,unconnected-(U1-P0.04-Pad20)*%
X56177323Y-56972234D03*
%TO.P,U1,21,P0.05_21*%
%TO.N,unconnected-(U1-P0.05-Pad21)*%
X57077323Y-56422234D03*
%TO.P,U1,22,P0.06_22*%
%TO.N,unconnected-(U1-P0.06-Pad22)*%
X56177323Y-55872234D03*
%TO.P,U1,26,P0.10_26*%
%TO.N,unconnected-(U1-P0.10-Pad26)*%
X56177323Y-53672234D03*
%TO.P,U1,27,P0.11_27*%
%TO.N,unconnected-(U1-P0.11-Pad27)*%
X57077323Y-53122234D03*
%TO.P,U1,28,P0.12_28*%
%TO.N,unconnected-(U1-P0.12-Pad28)*%
X56177323Y-52572234D03*
%TO.P,U1,29,GND_29*%
%TO.N,GND*%
X57077323Y-52022234D03*
%TO.P,U1,30,GND_30*%
X57077323Y-50922234D03*
%TO.P,U1,31,P0.13_31*%
%TO.N,/HOST_SDA*%
X55977323Y-50921134D03*
%TO.P,U1,32,P0.14_32*%
%TO.N,/HOST_SCL*%
X55427323Y-51821134D03*
%TO.P,U1,33,P0.15_33*%
%TO.N,/RS485_DIR*%
X54877323Y-50921134D03*
%TO.P,U1,34,P0.16_34*%
%TO.N,/SYNC_DIR*%
X54327323Y-51821134D03*
%TO.P,U1,35,P0.17_35*%
%TO.N,/RS485_RX*%
X53777323Y-50921134D03*
%TO.P,U1,36,P0.21_36*%
%TO.N,unconnected-(U1-P0.21-Pad36)*%
X53227323Y-51821134D03*
%TO.P,U1,37,P0.19_37*%
%TO.N,/RS485_TX*%
X52677323Y-50921134D03*
%TO.P,U1,38,P0.20_38*%
%TO.N,unconnected-(U1-P0.20-Pad38)*%
X52127323Y-51821134D03*
%TO.P,U1,39,P0.18_39*%
%TO.N,Net-(J2-~{RESET})*%
X51577323Y-50921134D03*
%TO.P,U1,40,P0.22_40*%
%TO.N,unconnected-(U1-P0.22-Pad40)*%
X51027323Y-51821134D03*
%TO.P,U1,41,P0.23_41*%
%TO.N,unconnected-(U1-P0.23-Pad41)*%
X50477323Y-50921134D03*
%TO.P,U1,42,P0.24_42*%
%TO.N,unconnected-(U1-P0.24-Pad42)*%
X49927323Y-51821134D03*
%TO.P,U1,43,SWCLK_43*%
%TO.N,Net-(J2-SWCLK)*%
X49377323Y-50921134D03*
%TO.P,U1,44,SWDIO_44*%
%TO.N,Net-(J2-SWDIO)*%
X48827323Y-51821134D03*
%TO.P,U1,45,GND_45*%
%TO.N,GND*%
X48277323Y-50921134D03*
%TO.P,U1,46,GND_46*%
X48277323Y-53671684D03*
%TO.P,U1,47,GND_47*%
X48277323Y-56971684D03*
%TO.P,U1,48,P1.05_48*%
%TO.N,unconnected-(U1-P1.05-Pad48)*%
X49377323Y-57922234D03*
%TO.P,U1,49,P1.06_49*%
%TO.N,unconnected-(U1-P1.06-Pad49)*%
X50477323Y-57922234D03*
%TO.P,U1,50,P1.07_50*%
%TO.N,unconnected-(U1-P1.07-Pad50)*%
X51577323Y-57922234D03*
%TO.P,U1,51,P1.08_51*%
%TO.N,unconnected-(U1-P1.08-Pad51)*%
X52677323Y-57922234D03*
%TO.P,U1,52,P1.09_52*%
%TO.N,unconnected-(U1-P1.09-Pad52)*%
X53777323Y-57922234D03*
%TO.P,U1,53,P1.10_53*%
%TO.N,/SYNC_TX*%
X55277323Y-56422234D03*
%TO.P,U1,54,P1.11_54*%
%TO.N,unconnected-(U1-P1.11-Pad54)*%
X55277323Y-55321684D03*
%TO.P,U1,55,GND_55*%
%TO.N,GND*%
X55277323Y-54222234D03*
%TO.P,U1,56,P1.00_56*%
%TO.N,unconnected-(U1-P1.00-Pad56)*%
X53777323Y-52721134D03*
%TO.P,U1,57,P1.01_57*%
%TO.N,unconnected-(U1-P1.01-Pad57)*%
X52677323Y-52721134D03*
%TO.P,U1,58,P1.02_58*%
%TO.N,unconnected-(U1-P1.02-Pad58)*%
X51577323Y-52721134D03*
%TO.P,U1,59,P1.03_59*%
%TO.N,unconnected-(U1-P1.03-Pad59)*%
X50477323Y-52721134D03*
%TO.P,U1,60,P1.04_60*%
%TO.N,unconnected-(U1-P1.04-Pad60)*%
X49377323Y-52721134D03*
%TO.P,U1,61,P1.12_61*%
%TO.N,unconnected-(U1-P1.12-Pad61)*%
X57977323Y-59172234D03*
%TO.P,U1,62,P1.13_62*%
%TO.N,unconnected-(U1-P1.13-Pad62)*%
X57977323Y-58072234D03*
%TO.P,U1,63,P1.14_63*%
%TO.N,unconnected-(U1-P1.14-Pad63)*%
X57977323Y-56972234D03*
%TO.P,U1,64,P1.15_64*%
%TO.N,unconnected-(U1-P1.15-Pad64)*%
X57977323Y-55872234D03*
%TO.P,U1,65,VCCH_65*%
%TO.N,+3V3*%
X57977323Y-54772234D03*
%TO.P,U1,66,VBUS_66*%
%TO.N,/VBUS_OUT*%
X57977323Y-53672234D03*
%TO.P,U1,67,USB-D-_67*%
%TO.N,/USB_D-*%
X57977323Y-52572234D03*
%TO.P,U1,68,USB-D+_68*%
%TO.N,/USB_D+*%
X57977323Y-51472234D03*
%TD*%
D13*
%TO.P,C7,1*%
%TO.N,GND*%
X60039979Y-54885555D03*
%TO.P,C7,2*%
%TO.N,+3V3*%
X60999979Y-54885555D03*
%TD*%
D11*
%TO.P,C4,1*%
%TO.N,GND*%
X59667313Y-52102189D03*
%TO.P,C4,2*%
%TO.N,/VLOAD*%
X61217313Y-52102189D03*
%TD*%
D14*
%TO.P,P1,1,1_1*%
%TO.N,GND*%
X60500000Y-61750000D03*
%TO.P,P1,2,2_2*%
%TO.N,/LiPo+*%
X62500000Y-61750000D03*
D15*
%TO.P,P1,MP*%
%TO.N,N/C*%
X58150000Y-67500000D03*
X64850000Y-67500000D03*
%TD*%
D16*
%TO.P,J2,1,VCC_1*%
%TO.N,+3V3*%
X63750000Y-56730000D03*
%TO.P,J2,2,SWDIO_2*%
%TO.N,Net-(J2-SWDIO)*%
X63750000Y-58000000D03*
%TO.P,J2,3,~{RESET}_3*%
%TO.N,Net-(J2-~{RESET})*%
X62480000Y-56730000D03*
%TO.P,J2,4,SWCLK_4*%
%TO.N,Net-(J2-SWCLK)*%
X62480000Y-58000000D03*
%TO.P,J2,5,GND_5*%
%TO.N,GND*%
X61210000Y-56730000D03*
%TO.P,J2,6,SWO_6*%
%TO.N,unconnected-(J2-SWO-Pad6)*%
X61210000Y-58000000D03*
%TD*%
D17*
%TO.P,J3,A1,GND_A1*%
%TO.N,GND*%
X46800000Y-61995000D03*
%TO.P,J3,A4,VBUS_A4*%
%TO.N,Net-(C1-Pad1)*%
X47600000Y-61995000D03*
D18*
%TO.P,J3,A5,CC1_A5*%
%TO.N,/USB_CC1*%
X48750000Y-61995000D03*
%TO.P,J3,A6,D+_A6*%
%TO.N,/USB_D+*%
X49750000Y-61995000D03*
%TO.P,J3,A7,D-_A7*%
%TO.N,/USB_D-*%
X50250000Y-61995000D03*
%TO.P,J3,A8,SBU1_A8*%
%TO.N,unconnected-(J3-SBU1-PadA8)*%
X51250000Y-61995000D03*
D17*
%TO.P,J3,A9,VBUS_A9*%
%TO.N,Net-(C1-Pad1)*%
X52400000Y-61995000D03*
%TO.P,J3,A12,GND_A12*%
%TO.N,GND*%
X53200000Y-61995000D03*
%TO.P,J3,B1,GND_B1*%
X53200000Y-61995000D03*
%TO.P,J3,B4,VBUS_B4*%
%TO.N,Net-(C1-Pad1)*%
X52400000Y-61995000D03*
D18*
%TO.P,J3,B5,CC2_B5*%
%TO.N,/USB_CC2*%
X51750000Y-61995000D03*
%TO.P,J3,B6,D+_B6*%
%TO.N,/USB_D+*%
X50750000Y-61995000D03*
%TO.P,J3,B7,D-_B7*%
%TO.N,/USB_D-*%
X49250000Y-61995000D03*
%TO.P,J3,B8,SBU2_B8*%
%TO.N,unconnected-(J3-SBU2-PadB8)*%
X48250000Y-61995000D03*
D17*
%TO.P,J3,B9,VBUS_B9*%
%TO.N,Net-(C1-Pad1)*%
X47600000Y-61995000D03*
%TO.P,J3,B12,GND_B12*%
%TO.N,GND*%
X46800000Y-61995000D03*
D19*
%TO.P,J3,SH,SHIELD_SH*%
X44890000Y-62570000D03*
X44890000Y-66500000D03*
X55110000Y-62570000D03*
X55110000Y-66500000D03*
%TD*%
D11*
%TO.P,C3,1*%
%TO.N,GND*%
X59663979Y-53642514D03*
%TO.P,C3,2*%
%TO.N,/VLOAD*%
X61213979Y-53642514D03*
%TD*%
D10*
%TO.P,D1,1,K_1*%
%TO.N,Net-(D1-K)*%
X61637386Y-50729636D03*
%TO.P,D1,2,A_2*%
%TO.N,+3V3*%
X60667386Y-50729636D03*
%TD*%
D20*
%TO.N,Net-(D2-K)*%
X63119982Y-51635555D03*
%TO.N,+3V3*%
X62157566Y-50113194D03*
D21*
X62782843Y-65782843D03*
D20*
X61519979Y-52895443D03*
D21*
X56750000Y-54500000D03*
X63549671Y-56580000D03*
D22*
X61577617Y-54984597D03*
D21*
X58125000Y-64650000D03*
X60019979Y-51060555D03*
X63750000Y-58750000D03*
X57250000Y-59169797D03*
D20*
%TO.N,Net-(D3-K)*%
X63519979Y-51385555D03*
%TO.N,/LiPo+*%
X63853582Y-52885555D03*
%TO.N,GND*%
X61085000Y-56882804D03*
X47500000Y-67250000D03*
X47503670Y-64506744D03*
D23*
X54400349Y-64223192D03*
D20*
X45513589Y-63355171D03*
D22*
X62269979Y-51718495D03*
D20*
X46830577Y-61850191D03*
D23*
X56500000Y-64250000D03*
D21*
X63185204Y-54165037D03*
D23*
X61005299Y-59750000D03*
D20*
X48250000Y-50250000D03*
D21*
X55772354Y-54185481D03*
D23*
X51842653Y-64199300D03*
X65484769Y-51738722D03*
D21*
X60513979Y-53717155D03*
X65500000Y-60000000D03*
X54750000Y-57750000D03*
X48750000Y-58000000D03*
X53750000Y-61500000D03*
D20*
X45342826Y-64920236D03*
D21*
X50500000Y-61000000D03*
X56515166Y-51515166D03*
X59269979Y-54385555D03*
D20*
X50477323Y-59722234D03*
%TO.N,/VBUS_OUT*%
X64480892Y-54514834D03*
X57523646Y-54296730D03*
X60500000Y-57750000D03*
X62688979Y-52885555D03*
D21*
%TO.N,/IMU_INT1*%
X52682042Y-59259099D03*
X51571064Y-59154021D03*
D20*
%TO.N,/PMIC_INT*%
X54250000Y-59750000D03*
X56250000Y-54750000D03*
%TO.N,/HOST_SDA*%
X43200000Y-64497969D03*
X56000000Y-51500000D03*
X52750000Y-54750000D03*
X61888979Y-53885555D03*
%TO.N,/HOST_SCL*%
X55372488Y-52622488D03*
X43599999Y-64514314D03*
X52275000Y-55775000D03*
%TO.N,/RS485_DIR*%
X54250000Y-56500000D03*
D21*
X54690156Y-55505842D03*
%TO.N,/SYNC_DIR*%
X54250000Y-55250000D03*
%TO.N,/RS485_RX*%
X53772376Y-51494409D03*
%TO.N,/RS485_TX*%
X52676282Y-51464100D03*
D20*
%TO.N,Net-(J2-~{RESET})*%
X60500000Y-55500000D03*
X51500000Y-49825000D03*
%TO.N,Net-(J2-SWCLK)*%
X49500000Y-50250000D03*
X61000000Y-55899988D03*
%TO.N,Net-(J2-SWDIO)*%
X62000000Y-58750000D03*
X48824731Y-50574731D03*
D21*
%TO.N,/SYNC_TX*%
X55217157Y-57282843D03*
D20*
%TO.N,/USB_D-*%
X56750000Y-52572237D03*
X49948321Y-59750000D03*
%TO.N,/USB_D+*%
X57720721Y-51245555D03*
X51006325Y-59721525D03*
%TO.N,/VLOAD*%
X63107979Y-52885555D03*
D23*
X55625000Y-64650000D03*
X59180102Y-55073496D03*
D22*
X60769979Y-52885555D03*
D23*
X53125000Y-64650000D03*
X58250000Y-62250000D03*
%TO.N,Net-(C1-Pad1)*%
X61500000Y-62250000D03*
X52010086Y-63350000D03*
D20*
%TO.N,/USB_CC1*%
X49400000Y-60251236D03*
X61884578Y-53326065D03*
%TO.N,/USB_CC2*%
X62686756Y-52450000D03*
%TO.N,Net-(D1-K)*%
X62769979Y-51635555D03*
D21*
%TO.N,Net-(U4-A)*%
X54349157Y-61270001D03*
X57500000Y-62500000D03*
%TO.N,Net-(U3-A)*%
X63750000Y-63500000D03*
X61500000Y-61000000D03*
D20*
%TO.N,Net-(U6-CAP)*%
X48250000Y-68775000D03*
X45500000Y-68750000D03*
%TO.N,Net-(U2-NTC)*%
X62751615Y-53297627D03*
X64642034Y-51726011D03*
%TD*%
%TO.N,Net-(D2-K)*%
D24*
X63119982Y-51635555D02*
X63119982Y-51209640D01*
X63119982Y-51209640D02*
X63599153Y-50730469D01*
%TO.N,+3V3*%
X63987296Y-50113194D02*
X64614573Y-50740471D01*
D25*
X62619597Y-54984597D02*
X61577617Y-54984597D01*
X63750000Y-56115000D02*
X62619597Y-54984597D01*
D24*
X62157566Y-50113194D02*
X62157566Y-50258882D01*
D25*
X62782843Y-65782843D02*
X59257843Y-65782843D01*
X59257843Y-65782843D02*
X58125000Y-64650000D01*
D26*
X57250000Y-58791757D02*
X57082042Y-58623799D01*
D25*
X63750000Y-56730000D02*
X63750000Y-56115000D01*
D26*
X57982042Y-54773799D02*
X57023799Y-54773799D01*
D24*
X62157566Y-50113194D02*
X63987296Y-50113194D01*
D26*
X61577617Y-54984597D02*
X61099021Y-54984597D01*
X57250000Y-59169797D02*
X57250000Y-58791757D01*
D24*
X61283828Y-50113194D02*
X60667386Y-50729636D01*
D26*
X61099021Y-54984597D02*
X60999979Y-54885555D01*
D24*
X62157566Y-50113194D02*
X61283828Y-50113194D01*
X62157566Y-50258882D02*
X62629153Y-50730469D01*
D26*
X57023799Y-54773799D02*
X56750000Y-54500000D01*
%TO.N,Net-(D3-K)*%
D24*
X65584573Y-50860684D02*
X65584573Y-50740471D01*
X63519979Y-51385555D02*
X64940298Y-51385555D01*
X65584573Y-50740471D02*
X65584573Y-50741280D01*
X65584573Y-50741280D02*
X64940298Y-51385555D01*
%TO.N,/LiPo+*%
D27*
X64350435Y-55500000D02*
X63856220Y-55500000D01*
X65865300Y-57014865D02*
X64350435Y-55500000D01*
D24*
X63853582Y-53597613D02*
X63803110Y-53648085D01*
D27*
X62500000Y-61750000D02*
X65865300Y-58384700D01*
D24*
X63853582Y-52885555D02*
X63853582Y-53597613D01*
D27*
X63856220Y-55500000D02*
X63803110Y-55446890D01*
X63803110Y-55446890D02*
X63803110Y-53648085D01*
X65865300Y-58384700D02*
X65865300Y-57014865D01*
%TO.N,GND*%
D24*
X49699557Y-59400000D02*
X49377323Y-59722234D01*
X48277323Y-57527323D02*
X48750000Y-58000000D01*
X54750000Y-57750000D02*
X55617157Y-57750000D01*
X55617157Y-57750000D02*
X55939391Y-58072234D01*
X48827323Y-58077323D02*
X48750000Y-58000000D01*
X61210000Y-56730000D02*
X61210000Y-56757804D01*
X57077323Y-52022234D02*
X57022234Y-52022234D01*
D26*
X53775000Y-62570000D02*
X53200000Y-61995000D01*
D24*
X48277323Y-59722234D02*
X48277323Y-59372234D01*
D25*
X61005299Y-61244701D02*
X61005299Y-59750000D01*
D24*
X57077323Y-50953009D02*
X56515166Y-51515166D01*
X48277323Y-61195000D02*
X47025001Y-61195000D01*
D25*
X60500000Y-61750000D02*
X61005299Y-61244701D01*
D24*
X56177323Y-58072234D02*
X56177323Y-58822234D01*
X47025001Y-61195000D02*
X46800000Y-61420001D01*
X53200000Y-61995000D02*
X53255000Y-61995000D01*
X48277323Y-59722234D02*
X48277323Y-61195000D01*
D25*
X59269979Y-54385555D02*
X59269979Y-54036514D01*
X65353110Y-52095257D02*
X65353110Y-53648085D01*
D26*
X44890000Y-62570000D02*
X46225000Y-62570000D01*
X55110000Y-62570000D02*
X53775000Y-62570000D01*
D24*
X55939391Y-58072234D02*
X56177323Y-58072234D01*
X57022234Y-52022234D02*
X56515166Y-51515166D01*
D26*
X55025000Y-62655000D02*
X55110000Y-62570000D01*
D25*
X59663979Y-52105523D02*
X59667313Y-52102189D01*
D24*
X48277323Y-59372234D02*
X48827323Y-58822234D01*
X61210000Y-56757804D02*
X61085000Y-56882804D01*
X56177323Y-58822234D02*
X57077323Y-59722234D01*
X48277323Y-56971684D02*
X48277323Y-57527323D01*
D25*
X60039979Y-54885555D02*
X59769979Y-54885555D01*
D26*
X46225000Y-62570000D02*
X46800000Y-61995000D01*
D24*
X50477323Y-59722234D02*
X50155089Y-59400000D01*
X55277323Y-54222234D02*
X55735601Y-54222234D01*
D26*
X44890000Y-66500000D02*
X44890000Y-62570000D01*
D24*
X48827323Y-58822234D02*
X48827323Y-58077323D01*
D25*
X59663979Y-53642514D02*
X59663979Y-52105523D01*
D24*
X49377323Y-59722234D02*
X48277323Y-59722234D01*
X48827323Y-58822234D02*
X49927323Y-58822234D01*
X57077323Y-50922234D02*
X57077323Y-50953009D01*
X53255000Y-61995000D02*
X53750000Y-61500000D01*
X50155089Y-59400000D02*
X49699557Y-59400000D01*
X55735601Y-54222234D02*
X55772354Y-54185481D01*
D26*
X55110000Y-66500000D02*
X55025000Y-66415000D01*
X55025000Y-66415000D02*
X55025000Y-62655000D01*
D24*
X46800000Y-61420001D02*
X46800000Y-61995000D01*
X48250000Y-50949450D02*
X48250000Y-50250000D01*
X48250000Y-53700000D02*
X48250000Y-50949450D01*
D25*
X59269979Y-54036514D02*
X59663979Y-53642514D01*
X59769979Y-54885555D02*
X59269979Y-54385555D01*
%TO.N,/VBUS_OUT*%
D24*
X63465764Y-52095257D02*
X63803110Y-52095257D01*
X62688979Y-52750000D02*
X62811021Y-52750000D01*
X64428110Y-54462052D02*
X64480892Y-54514834D01*
X57940113Y-53673799D02*
X57982042Y-53673799D01*
X62688979Y-52885555D02*
X62688979Y-52750000D01*
X63803110Y-52095257D02*
X64428110Y-52720257D01*
X62811021Y-52750000D02*
X63465764Y-52095257D01*
X64428110Y-52720257D02*
X64428110Y-54462052D01*
X57523646Y-54090266D02*
X57940113Y-53673799D01*
X57523646Y-54296730D02*
X57523646Y-54090266D01*
%TO.N,/IMU_INT1*%
X52682042Y-59259099D02*
X52682042Y-59723799D01*
%TO.N,/PMIC_INT*%
X54250000Y-59750000D02*
X53750550Y-59750000D01*
X53750550Y-59750000D02*
X53750000Y-59750550D01*
%TO.N,/HOST_SDA*%
X56000000Y-50999450D02*
X55950000Y-50949450D01*
X56000000Y-51500000D02*
X56000000Y-50999450D01*
%TO.N,/HOST_SCL*%
X55372488Y-52622488D02*
X55372488Y-51876962D01*
X55372488Y-51876962D02*
X55400000Y-51849450D01*
%TO.N,/RS485_DIR*%
D25*
X54746000Y-52503450D02*
X54850000Y-52399450D01*
X54746000Y-55449998D02*
X54746000Y-52503450D01*
X54690156Y-55505842D02*
X54746000Y-55449998D01*
X54850000Y-52399450D02*
X54850000Y-50949450D01*
D24*
X54250000Y-56500000D02*
X54250000Y-55945998D01*
X54250000Y-55945998D02*
X54690156Y-55505842D01*
%TO.N,/SYNC_DIR*%
D25*
X54250000Y-55250000D02*
X54300000Y-55200000D01*
X54300000Y-55200000D02*
X54300000Y-51849450D01*
%TO.N,/RS485_RX*%
X53772376Y-51494409D02*
X53750000Y-51472033D01*
X53750000Y-51472033D02*
X53750000Y-50949450D01*
%TO.N,/RS485_TX*%
X52676282Y-50975732D02*
X52650000Y-50949450D01*
X52676282Y-51464100D02*
X52676282Y-50975732D01*
%TO.N,Net-(J2-~{RESET})*%
D24*
X62480000Y-56480000D02*
X61500000Y-55500000D01*
X51500000Y-49825000D02*
X51500000Y-50899450D01*
X51500000Y-50899450D02*
X51550000Y-50949450D01*
X61500000Y-55500000D02*
X60500000Y-55500000D01*
X62480000Y-56730000D02*
X62480000Y-56480000D01*
%TO.N,Net-(J2-SWCLK)*%
X61828700Y-57348700D02*
X62480000Y-58000000D01*
X61828700Y-56473726D02*
X61828700Y-57348700D01*
X49500000Y-50799450D02*
X49350000Y-50949450D01*
X61000000Y-55899988D02*
X61254962Y-55899988D01*
X61254962Y-55899988D02*
X61828700Y-56473726D01*
X49500000Y-50250000D02*
X49500000Y-50799450D01*
%TO.N,Net-(J2-SWDIO)*%
X48824731Y-51824719D02*
X48800000Y-51849450D01*
X63750000Y-58000000D02*
X63000000Y-58750000D01*
X63000000Y-58750000D02*
X62000000Y-58750000D01*
X48824731Y-50574731D02*
X48824731Y-51824719D01*
%TO.N,/SYNC_TX*%
D25*
X55217157Y-57282843D02*
X55217157Y-56483393D01*
X55217157Y-56483393D02*
X55250000Y-56450550D01*
%TO.N,/USB_D-*%
D24*
X49475001Y-62795000D02*
X50024999Y-62795000D01*
X57921687Y-52572237D02*
X57950000Y-52600550D01*
X56750000Y-52572237D02*
X57921687Y-52572237D01*
X49575000Y-60849264D02*
X49575000Y-61168656D01*
X49908980Y-60135502D02*
X49750000Y-60294482D01*
X49575000Y-61168656D02*
X49250000Y-61493656D01*
X49908980Y-59789341D02*
X49908980Y-60135502D01*
X49948321Y-59750000D02*
X49908980Y-59789341D01*
X49250000Y-61493656D02*
X49250000Y-61995000D01*
X49250000Y-61995000D02*
X49250000Y-62569999D01*
X50024999Y-62795000D02*
X50250000Y-62569999D01*
X49750000Y-60294482D02*
X49750000Y-60674264D01*
X50250000Y-62569999D02*
X50250000Y-61995000D01*
X49250000Y-62569999D02*
X49475001Y-62795000D01*
X49750000Y-60674264D02*
X49575000Y-60849264D01*
%TO.N,/USB_D+*%
X49875000Y-61870000D02*
X49875000Y-61094669D01*
X51006325Y-59721525D02*
X51004665Y-59721525D01*
X49875000Y-61094669D02*
X50344669Y-60625000D01*
X51004665Y-59721525D02*
X51000000Y-59726190D01*
X51000000Y-60280331D02*
X50655331Y-60625000D01*
X51000000Y-59726190D02*
X51000000Y-60280331D01*
X50875000Y-61870000D02*
X50750000Y-61995000D01*
X50875000Y-60844669D02*
X50875000Y-61870000D01*
X57950000Y-51474834D02*
X57950000Y-51500550D01*
X57720721Y-51245555D02*
X57950000Y-51474834D01*
X50344669Y-60625000D02*
X50655331Y-60625000D01*
X49750000Y-61995000D02*
X49875000Y-61870000D01*
X50655331Y-60625000D02*
X50875000Y-60844669D01*
%TO.N,/VLOAD*%
D25*
X63136645Y-52914221D02*
X63136645Y-53718621D01*
X63107979Y-52885555D02*
X63136645Y-52914221D01*
X61213979Y-54117514D02*
X61213979Y-53642514D01*
D27*
X61217313Y-52102189D02*
X61217313Y-52438221D01*
X59180102Y-55073496D02*
X59000000Y-55253599D01*
X59000000Y-55253599D02*
X59000000Y-61500000D01*
X60769979Y-53198514D02*
X61213979Y-53642514D01*
D25*
X63136645Y-53718621D02*
X62644711Y-54210555D01*
D27*
X60769979Y-52885555D02*
X60769979Y-53198514D01*
X61217313Y-52438221D02*
X60769979Y-52885555D01*
D25*
X61307020Y-54210555D02*
X61213979Y-54117514D01*
X62644711Y-54210555D02*
X61307020Y-54210555D01*
D27*
X59000000Y-61500000D02*
X58250000Y-62250000D01*
%TO.N,Net-(C1-Pad1)*%
D24*
X52400000Y-62346344D02*
X51651344Y-63095000D01*
X51651344Y-63095000D02*
X48125001Y-63095000D01*
D26*
X52400000Y-61995000D02*
X52400000Y-62452410D01*
X52400000Y-62452410D02*
X52010086Y-62842324D01*
D24*
X48125001Y-63095000D02*
X47600000Y-62569999D01*
X47600000Y-62569999D02*
X47600000Y-61995000D01*
D26*
X52010086Y-62842324D02*
X52010086Y-63350000D01*
D24*
X52400000Y-61995000D02*
X52400000Y-62346344D01*
%TO.N,/USB_CC1*%
X49400000Y-60251236D02*
X49400000Y-60600000D01*
X48750000Y-61493656D02*
X48750000Y-61995000D01*
X49243656Y-60756344D02*
X49243656Y-61000000D01*
X49243656Y-61000000D02*
X48750000Y-61493656D01*
X49400000Y-60600000D02*
X49243656Y-60756344D01*
%TO.N,/USB_CC2*%
X61842313Y-51680269D02*
X61842313Y-51957889D01*
X62334424Y-52450000D02*
X62686756Y-52450000D01*
X58525000Y-51630534D02*
X58769979Y-51385555D01*
X58525000Y-59583550D02*
X58525000Y-51630534D01*
X51750000Y-61995000D02*
X51750000Y-61500000D01*
X58769979Y-51385555D02*
X61547599Y-51385555D01*
X51750000Y-61500000D02*
X52500000Y-60750000D01*
X52500000Y-60750000D02*
X57358550Y-60750000D01*
X57358550Y-60750000D02*
X58525000Y-59583550D01*
X61547599Y-51385555D02*
X61842313Y-51680269D01*
X61842313Y-51957889D02*
X62334424Y-52450000D01*
%TO.N,Net-(D1-K)*%
X62769979Y-51635555D02*
X62769979Y-51569869D01*
X62435665Y-51235555D02*
X62143305Y-51235555D01*
X62769979Y-51569869D02*
X62435665Y-51235555D01*
X62143305Y-51235555D02*
X61637386Y-50729636D01*
%TO.N,Net-(U6-CAP)*%
X45775000Y-68775000D02*
X48250000Y-68775000D01*
X45500000Y-68750000D02*
X45750000Y-68750000D01*
X45750000Y-68750000D02*
X45775000Y-68775000D01*
%TD*%
M02*
