M48
; DRILL file KiCad 10.0.4 date 2026-08-06T18:29:04
; FORMAT={-:-/ absolute / metric / decimal}
; #@! TF.CreationDate,2026-08-06T18:29:04+01:00
; #@! TF.GenerationSoftware,Kicad,Pcbnew,10.0.4
; #@! TF.FileFunction,Plated,1,4,PTH
FMAT,2
METRIC
; #@! TA.AperFunction,Plated,PTH,ViaDrill
T1C0.300
%
G90
G05
T1
X143.7Y-88.7
X146.7Y-98.8
X146.9Y-108.7
X147.3Y-95.2
X147.3Y-97.7
X147.8Y-86.5
X148.6Y-105.3
X148.7Y-94.9
X149.472Y-94.4
X149.7Y-98.986
X149.7Y-110.8
X149.8Y-84.6
X150.091Y-99.626
X150.177Y-94.658
X150.25Y-104.565
X150.3Y-88.1
X150.6Y-93.3
X150.6Y-95.3
X151.159Y-92.54
X151.839Y-98.161
X154.0Y-109.8
X154.2Y-89.6
X154.7Y-97.1
X154.7Y-108.9
X155.5Y-101.7
X155.8Y-94.7
X156.688Y-95.512
X156.9Y-93.6
X157.2Y-83.9
X157.3Y-86.6
X157.3Y-87.7
X157.75Y-117.25
X158.0Y-87.2
X158.05Y-94.15
X158.25Y-112.75
X158.5Y-87.8
X158.725Y-99.7
X159.0Y-114.5
X159.275Y-100.7
X159.512Y-113.345
X159.72Y-83.292
X159.9Y-109.8
X159.976Y-89.981
X160.0Y-88.49
X160.0Y-93.7
X160.4Y-90.6
X160.4Y-95.54
X160.46Y-109.123
X160.5Y-102.1
X160.596Y-89.04
X160.878Y-99.222
X161.2Y-109.0
X161.5Y-95.802
X161.8Y-102.1
X162.018Y-82.097
X162.9Y-92.3
X163.6Y-110.1
X163.7Y-103.8
X163.7Y-108.8
X163.8Y-106.4
X164.6Y-99.4
X165.1Y-84.1
M30
