%TF.GenerationSoftware,KiCad,Pcbnew,10.0.4*%
%TF.CreationDate,2026-08-06T18:29:07+01:00*%
%TF.ProjectId,reward_port,72657761-7264-45f7-906f-72742e6b6963,rev?*%
%TF.SameCoordinates,Original*%
%TF.FileFunction,Copper,L2,Inr*%
%TF.FilePolarity,Positive*%
%FSLAX46Y46*%
G04 Gerber Fmt 4.6, Leading zero omitted, Abs format (unit mm)*
G04 Created by KiCad (PCBNEW 10.0.4) date 2026-08-06 18:29:07*
%MOMM*%
%LPD*%
G01*
G04 APERTURE LIST*
%TA.AperFunction,ViaPad*%
%ADD10C,0.600000*%
%TD*%
G04 APERTURE END LIST*
D10*
%TO.N,/IR_E*%
X150300000Y-88100000D03*
X158000000Y-87200000D03*
%TO.N,GND*%
X165100000Y-84100000D03*
X151838909Y-98161091D03*
X163700000Y-103800000D03*
X160000000Y-93700000D03*
X163700000Y-108800000D03*
X150600000Y-95300000D03*
X163800000Y-106400000D03*
X143700000Y-88700000D03*
X157200000Y-83900000D03*
X149700000Y-110800000D03*
X150600000Y-93300000D03*
X160400000Y-95540132D03*
X160400000Y-90600000D03*
X147300000Y-95200000D03*
%TO.N,/3V3*%
X162900000Y-92300000D03*
X159900000Y-109800000D03*
X149472182Y-94400000D03*
X146900000Y-108700000D03*
X154000000Y-109800000D03*
X163600000Y-110100000D03*
%TO.N,/ADC_IN6*%
X157300000Y-86600000D03*
X147800000Y-86500000D03*
%TO.N,/AMPL_SD*%
X158500000Y-87800000D03*
X158050000Y-94150000D03*
X156687740Y-95512260D03*
%TO.N,/TIM2_CH1*%
X160595555Y-89040000D03*
X155500000Y-101700000D03*
%TO.N,/VALVE_OUT1*%
X147300000Y-97700000D03*
X149700000Y-98986001D03*
%TO.N,/VALVE_OUT2*%
X146700000Y-98800000D03*
X150090996Y-99626022D03*
%TO.N,/TIM1_CH1*%
X150176532Y-94657671D03*
X148700000Y-94900000D03*
X154200000Y-89600000D03*
%TO.N,/NRST*%
X159976484Y-89981019D03*
X151159476Y-92539685D03*
%TO.N,/RS485_P*%
X160460203Y-109123300D03*
X150250000Y-104565000D03*
X159000000Y-114500000D03*
%TO.N,/RS485_N*%
X148600000Y-105300000D03*
X159511955Y-113345338D03*
X161200000Y-109000000D03*
%TO.N,/SYNC_P*%
X154700000Y-108900000D03*
X157750000Y-117250000D03*
X158250000Y-112750000D03*
%TO.N,/TIM2_CH2*%
X160000000Y-88490000D03*
X149800000Y-84600000D03*
%TO.N,/DAC_OUT1*%
X154700000Y-97100000D03*
X157300000Y-87700000D03*
%TO.N,/USART1_DE*%
X159274998Y-100700000D03*
X160500000Y-102100000D03*
%TO.N,/TIM3_CH1*%
X162018056Y-82097338D03*
X155800000Y-94700000D03*
%TO.N,/TIM3_CH2*%
X159720194Y-83291919D03*
X156900000Y-93600000D03*
%TO.N,/USART1_RX*%
X161500000Y-95802446D03*
X161800000Y-102100000D03*
%TO.N,Net-(U3-VO+)*%
X160877818Y-99222182D03*
X158724998Y-99700000D03*
X164600000Y-99400000D03*
%TD*%
%TA.AperFunction,Conductor*%
%TO.N,GND*%
G36*
X169642539Y-80320185D02*
G01*
X169688294Y-80372989D01*
X169699500Y-80424500D01*
X169699500Y-119575500D01*
X169679815Y-119642539D01*
X169627011Y-119688294D01*
X169575500Y-119699500D01*
X140424500Y-119699500D01*
X140357461Y-119679815D01*
X140311706Y-119627011D01*
X140300500Y-119575500D01*
X140300500Y-117171153D01*
X156949500Y-117171153D01*
X156949500Y-117328846D01*
X156980261Y-117483489D01*
X156980264Y-117483501D01*
X157040602Y-117629172D01*
X157040609Y-117629185D01*
X157128210Y-117760288D01*
X157128213Y-117760292D01*
X157239707Y-117871786D01*
X157239711Y-117871789D01*
X157370814Y-117959390D01*
X157370827Y-117959397D01*
X157516498Y-118019735D01*
X157516503Y-118019737D01*
X157671153Y-118050499D01*
X157671156Y-118050500D01*
X157671158Y-118050500D01*
X157828844Y-118050500D01*
X157828845Y-118050499D01*
X157983497Y-118019737D01*
X158129179Y-117959394D01*
X158260289Y-117871789D01*
X158371789Y-117760289D01*
X158459394Y-117629179D01*
X158519737Y-117483497D01*
X158550500Y-117328842D01*
X158550500Y-117171158D01*
X158550500Y-117171155D01*
X158550499Y-117171153D01*
X158519738Y-117016510D01*
X158519737Y-117016503D01*
X158519735Y-117016498D01*
X158459397Y-116870827D01*
X158459390Y-116870814D01*
X158371789Y-116739711D01*
X158371786Y-116739707D01*
X158260292Y-116628213D01*
X158260288Y-116628210D01*
X158129185Y-116540609D01*
X158129172Y-116540602D01*
X157983501Y-116480264D01*
X157983489Y-116480261D01*
X157828845Y-116449500D01*
X157828842Y-116449500D01*
X157671158Y-116449500D01*
X157671155Y-116449500D01*
X157516510Y-116480261D01*
X157516498Y-116480264D01*
X157370827Y-116540602D01*
X157370814Y-116540609D01*
X157239711Y-116628210D01*
X157239707Y-116628213D01*
X157128213Y-116739707D01*
X157128210Y-116739711D01*
X157040609Y-116870814D01*
X157040602Y-116870827D01*
X156980264Y-117016498D01*
X156980261Y-117016510D01*
X156949500Y-117171153D01*
X140300500Y-117171153D01*
X140300500Y-112671153D01*
X157449500Y-112671153D01*
X157449500Y-112828846D01*
X157480261Y-112983489D01*
X157480264Y-112983501D01*
X157540602Y-113129172D01*
X157540609Y-113129185D01*
X157628210Y-113260288D01*
X157628213Y-113260292D01*
X157739707Y-113371786D01*
X157739711Y-113371789D01*
X157870814Y-113459390D01*
X157870827Y-113459397D01*
X158014724Y-113519000D01*
X158016503Y-113519737D01*
X158171153Y-113550499D01*
X158171156Y-113550500D01*
X158171158Y-113550500D01*
X158328844Y-113550500D01*
X158328845Y-113550499D01*
X158483497Y-113519737D01*
X158539073Y-113496717D01*
X158572071Y-113483049D01*
X158584951Y-113481664D01*
X158596489Y-113475768D01*
X158619024Y-113478000D01*
X158641540Y-113475580D01*
X158653126Y-113481379D01*
X158666018Y-113482657D01*
X158683767Y-113496717D01*
X158704019Y-113506855D01*
X158711896Y-113519000D01*
X158720785Y-113526042D01*
X158729268Y-113545785D01*
X158736846Y-113557470D01*
X158739526Y-113565305D01*
X158742218Y-113578835D01*
X158753352Y-113605716D01*
X158754621Y-113609424D01*
X158755994Y-113640578D01*
X158759327Y-113671584D01*
X158757520Y-113675193D01*
X158757698Y-113679226D01*
X158742012Y-113706172D01*
X158728051Y-113734062D01*
X158724235Y-113736711D01*
X158722548Y-113739610D01*
X158713121Y-113744427D01*
X158684751Y-113764125D01*
X158620824Y-113790604D01*
X158620814Y-113790609D01*
X158489711Y-113878210D01*
X158489707Y-113878213D01*
X158378213Y-113989707D01*
X158378210Y-113989711D01*
X158290609Y-114120814D01*
X158290602Y-114120827D01*
X158230264Y-114266498D01*
X158230261Y-114266510D01*
X158199500Y-114421153D01*
X158199500Y-114578846D01*
X158230261Y-114733489D01*
X158230264Y-114733501D01*
X158290602Y-114879172D01*
X158290609Y-114879185D01*
X158378210Y-115010288D01*
X158378213Y-115010292D01*
X158489707Y-115121786D01*
X158489711Y-115121789D01*
X158620814Y-115209390D01*
X158620827Y-115209397D01*
X158766498Y-115269735D01*
X158766503Y-115269737D01*
X158921153Y-115300499D01*
X158921156Y-115300500D01*
X158921158Y-115300500D01*
X159078844Y-115300500D01*
X159078845Y-115300499D01*
X159233497Y-115269737D01*
X159379179Y-115209394D01*
X159510289Y-115121789D01*
X159621789Y-115010289D01*
X159709394Y-114879179D01*
X159769737Y-114733497D01*
X159800500Y-114578842D01*
X159800500Y-114421158D01*
X159800500Y-114421155D01*
X159800499Y-114421153D01*
X159769738Y-114266510D01*
X159769737Y-114266503D01*
X159760094Y-114243224D01*
X159752626Y-114173757D01*
X159783901Y-114111278D01*
X159827201Y-114081213D01*
X159891134Y-114054732D01*
X160022244Y-113967127D01*
X160133744Y-113855627D01*
X160221349Y-113724517D01*
X160281692Y-113578835D01*
X160312455Y-113424180D01*
X160312455Y-113266496D01*
X160312455Y-113266493D01*
X160312454Y-113266491D01*
X160285142Y-113129185D01*
X160281692Y-113111841D01*
X160281690Y-113111836D01*
X160221352Y-112966165D01*
X160221345Y-112966152D01*
X160133744Y-112835049D01*
X160133741Y-112835045D01*
X160022247Y-112723551D01*
X160022243Y-112723548D01*
X159891140Y-112635947D01*
X159891127Y-112635940D01*
X159745456Y-112575602D01*
X159745444Y-112575599D01*
X159590800Y-112544838D01*
X159590797Y-112544838D01*
X159433113Y-112544838D01*
X159433110Y-112544838D01*
X159278465Y-112575599D01*
X159278458Y-112575601D01*
X159189882Y-112612289D01*
X159120412Y-112619756D01*
X159057934Y-112588481D01*
X159022282Y-112528391D01*
X159020819Y-112521945D01*
X159019737Y-112516503D01*
X159019735Y-112516498D01*
X158959397Y-112370827D01*
X158959390Y-112370814D01*
X158871789Y-112239711D01*
X158871786Y-112239707D01*
X158760292Y-112128213D01*
X158760288Y-112128210D01*
X158629185Y-112040609D01*
X158629172Y-112040602D01*
X158483501Y-111980264D01*
X158483489Y-111980261D01*
X158328845Y-111949500D01*
X158328842Y-111949500D01*
X158171158Y-111949500D01*
X158171155Y-111949500D01*
X158016510Y-111980261D01*
X158016498Y-111980264D01*
X157870827Y-112040602D01*
X157870814Y-112040609D01*
X157739711Y-112128210D01*
X157739707Y-112128213D01*
X157628213Y-112239707D01*
X157628210Y-112239711D01*
X157540609Y-112370814D01*
X157540602Y-112370827D01*
X157480264Y-112516498D01*
X157480261Y-112516510D01*
X157449500Y-112671153D01*
X140300500Y-112671153D01*
X140300500Y-109721153D01*
X153199500Y-109721153D01*
X153199500Y-109878846D01*
X153230261Y-110033489D01*
X153230264Y-110033501D01*
X153290602Y-110179172D01*
X153290609Y-110179185D01*
X153378210Y-110310288D01*
X153378213Y-110310292D01*
X153489707Y-110421786D01*
X153489711Y-110421789D01*
X153620814Y-110509390D01*
X153620827Y-110509397D01*
X153766498Y-110569735D01*
X153766503Y-110569737D01*
X153921153Y-110600499D01*
X153921156Y-110600500D01*
X153921158Y-110600500D01*
X154078844Y-110600500D01*
X154078845Y-110600499D01*
X154233497Y-110569737D01*
X154379179Y-110509394D01*
X154510289Y-110421789D01*
X154621789Y-110310289D01*
X154709394Y-110179179D01*
X154769737Y-110033497D01*
X154800500Y-109878842D01*
X154800500Y-109797955D01*
X154820185Y-109730916D01*
X154831452Y-109721153D01*
X159099500Y-109721153D01*
X159099500Y-109878846D01*
X159130261Y-110033489D01*
X159130264Y-110033501D01*
X159190602Y-110179172D01*
X159190609Y-110179185D01*
X159278210Y-110310288D01*
X159278213Y-110310292D01*
X159389707Y-110421786D01*
X159389711Y-110421789D01*
X159520814Y-110509390D01*
X159520827Y-110509397D01*
X159666498Y-110569735D01*
X159666503Y-110569737D01*
X159821153Y-110600499D01*
X159821156Y-110600500D01*
X159821158Y-110600500D01*
X159978844Y-110600500D01*
X159978845Y-110600499D01*
X160133497Y-110569737D01*
X160279179Y-110509394D01*
X160410289Y-110421789D01*
X160521789Y-110310289D01*
X160609394Y-110179179D01*
X160669737Y-110033497D01*
X160672192Y-110021153D01*
X162799500Y-110021153D01*
X162799500Y-110178846D01*
X162830261Y-110333489D01*
X162830264Y-110333501D01*
X162890602Y-110479172D01*
X162890609Y-110479185D01*
X162978210Y-110610288D01*
X162978213Y-110610292D01*
X163089707Y-110721786D01*
X163089711Y-110721789D01*
X163220814Y-110809390D01*
X163220827Y-110809397D01*
X163366498Y-110869735D01*
X163366503Y-110869737D01*
X163521153Y-110900499D01*
X163521156Y-110900500D01*
X163521158Y-110900500D01*
X163678844Y-110900500D01*
X163678845Y-110900499D01*
X163833497Y-110869737D01*
X163979179Y-110809394D01*
X164110289Y-110721789D01*
X164221789Y-110610289D01*
X164309394Y-110479179D01*
X164369737Y-110333497D01*
X164400500Y-110178842D01*
X164400500Y-110021158D01*
X164400500Y-110021155D01*
X164400499Y-110021153D01*
X164372192Y-109878846D01*
X164369737Y-109866503D01*
X164342398Y-109800500D01*
X164309397Y-109720827D01*
X164309390Y-109720814D01*
X164221789Y-109589711D01*
X164221786Y-109589707D01*
X164110292Y-109478213D01*
X164110288Y-109478210D01*
X163979185Y-109390609D01*
X163979172Y-109390602D01*
X163833501Y-109330264D01*
X163833489Y-109330261D01*
X163678845Y-109299500D01*
X163678842Y-109299500D01*
X163521158Y-109299500D01*
X163521155Y-109299500D01*
X163366510Y-109330261D01*
X163366498Y-109330264D01*
X163220827Y-109390602D01*
X163220814Y-109390609D01*
X163089711Y-109478210D01*
X163089707Y-109478213D01*
X162978213Y-109589707D01*
X162978210Y-109589711D01*
X162890609Y-109720814D01*
X162890602Y-109720827D01*
X162830264Y-109866498D01*
X162830261Y-109866510D01*
X162799500Y-110021153D01*
X160672192Y-110021153D01*
X160685102Y-109956246D01*
X160717485Y-109894339D01*
X160759264Y-109865879D01*
X160839382Y-109832694D01*
X160898444Y-109793229D01*
X160965119Y-109772351D01*
X160991522Y-109774713D01*
X161044908Y-109785332D01*
X161121155Y-109800500D01*
X161121158Y-109800500D01*
X161278844Y-109800500D01*
X161278845Y-109800499D01*
X161433497Y-109769737D01*
X161551592Y-109720821D01*
X161579172Y-109709397D01*
X161579172Y-109709396D01*
X161579179Y-109709394D01*
X161710289Y-109621789D01*
X161821789Y-109510289D01*
X161909394Y-109379179D01*
X161969737Y-109233497D01*
X162000500Y-109078842D01*
X162000500Y-108921158D01*
X162000500Y-108921155D01*
X162000499Y-108921153D01*
X161994262Y-108889798D01*
X161969737Y-108766503D01*
X161909534Y-108621158D01*
X161909397Y-108620827D01*
X161909390Y-108620814D01*
X161821789Y-108489711D01*
X161821786Y-108489707D01*
X161710292Y-108378213D01*
X161710288Y-108378210D01*
X161579185Y-108290609D01*
X161579172Y-108290602D01*
X161433501Y-108230264D01*
X161433489Y-108230261D01*
X161278845Y-108199500D01*
X161278842Y-108199500D01*
X161121158Y-108199500D01*
X161121155Y-108199500D01*
X160966510Y-108230261D01*
X160966498Y-108230264D01*
X160820828Y-108290602D01*
X160820815Y-108290609D01*
X160761759Y-108330070D01*
X160695081Y-108350948D01*
X160668677Y-108348585D01*
X160539048Y-108322800D01*
X160539045Y-108322800D01*
X160381361Y-108322800D01*
X160381358Y-108322800D01*
X160226713Y-108353561D01*
X160226701Y-108353564D01*
X160081030Y-108413902D01*
X160081017Y-108413909D01*
X159949914Y-108501510D01*
X159949910Y-108501513D01*
X159838416Y-108613007D01*
X159838413Y-108613011D01*
X159750812Y-108744114D01*
X159750805Y-108744127D01*
X159690467Y-108889798D01*
X159690464Y-108889807D01*
X159675099Y-108967052D01*
X159642713Y-109028962D01*
X159600936Y-109057419D01*
X159520829Y-109090601D01*
X159520814Y-109090609D01*
X159389711Y-109178210D01*
X159389707Y-109178213D01*
X159278213Y-109289707D01*
X159278210Y-109289711D01*
X159190609Y-109420814D01*
X159190602Y-109420827D01*
X159130264Y-109566498D01*
X159130261Y-109566510D01*
X159099500Y-109721153D01*
X154831452Y-109721153D01*
X154872989Y-109685161D01*
X154880733Y-109681936D01*
X154890286Y-109678332D01*
X154933497Y-109669737D01*
X155079179Y-109609394D01*
X155210289Y-109521789D01*
X155321789Y-109410289D01*
X155409394Y-109279179D01*
X155469737Y-109133497D01*
X155500500Y-108978842D01*
X155500500Y-108821158D01*
X155500500Y-108821155D01*
X155500499Y-108821153D01*
X155469737Y-108666503D01*
X155450955Y-108621158D01*
X155409397Y-108520827D01*
X155409390Y-108520814D01*
X155321789Y-108389711D01*
X155321786Y-108389707D01*
X155210292Y-108278213D01*
X155210288Y-108278210D01*
X155079185Y-108190609D01*
X155079172Y-108190602D01*
X154933501Y-108130264D01*
X154933489Y-108130261D01*
X154778845Y-108099500D01*
X154778842Y-108099500D01*
X154621158Y-108099500D01*
X154621155Y-108099500D01*
X154466510Y-108130261D01*
X154466498Y-108130264D01*
X154320827Y-108190602D01*
X154320814Y-108190609D01*
X154189711Y-108278210D01*
X154189707Y-108278213D01*
X154078213Y-108389707D01*
X154078210Y-108389711D01*
X153990609Y-108520814D01*
X153990602Y-108520827D01*
X153930264Y-108666498D01*
X153930261Y-108666510D01*
X153899500Y-108821153D01*
X153899500Y-108902043D01*
X153879815Y-108969082D01*
X153827011Y-109014837D01*
X153799694Y-109023660D01*
X153766506Y-109030262D01*
X153766498Y-109030264D01*
X153620827Y-109090602D01*
X153620814Y-109090609D01*
X153489711Y-109178210D01*
X153489707Y-109178213D01*
X153378213Y-109289707D01*
X153378210Y-109289711D01*
X153290609Y-109420814D01*
X153290602Y-109420827D01*
X153230264Y-109566498D01*
X153230261Y-109566510D01*
X153199500Y-109721153D01*
X140300500Y-109721153D01*
X140300500Y-108621153D01*
X146099500Y-108621153D01*
X146099500Y-108778846D01*
X146130261Y-108933489D01*
X146130264Y-108933501D01*
X146190602Y-109079172D01*
X146190609Y-109079185D01*
X146278210Y-109210288D01*
X146278213Y-109210292D01*
X146389707Y-109321786D01*
X146389711Y-109321789D01*
X146520814Y-109409390D01*
X146520827Y-109409397D01*
X146666498Y-109469735D01*
X146666503Y-109469737D01*
X146821153Y-109500499D01*
X146821156Y-109500500D01*
X146821158Y-109500500D01*
X146978844Y-109500500D01*
X146978845Y-109500499D01*
X147133497Y-109469737D01*
X147251592Y-109420821D01*
X147279172Y-109409397D01*
X147279172Y-109409396D01*
X147279179Y-109409394D01*
X147410289Y-109321789D01*
X147521789Y-109210289D01*
X147609394Y-109079179D01*
X147669737Y-108933497D01*
X147700500Y-108778842D01*
X147700500Y-108621158D01*
X147700500Y-108621155D01*
X147700499Y-108621153D01*
X147680543Y-108520827D01*
X147669737Y-108466503D01*
X147637929Y-108389711D01*
X147609397Y-108320827D01*
X147609390Y-108320814D01*
X147521789Y-108189711D01*
X147521786Y-108189707D01*
X147410292Y-108078213D01*
X147410288Y-108078210D01*
X147279185Y-107990609D01*
X147279172Y-107990602D01*
X147133501Y-107930264D01*
X147133489Y-107930261D01*
X146978845Y-107899500D01*
X146978842Y-107899500D01*
X146821158Y-107899500D01*
X146821155Y-107899500D01*
X146666510Y-107930261D01*
X146666498Y-107930264D01*
X146520827Y-107990602D01*
X146520814Y-107990609D01*
X146389711Y-108078210D01*
X146389707Y-108078213D01*
X146278213Y-108189707D01*
X146278210Y-108189711D01*
X146190609Y-108320814D01*
X146190602Y-108320827D01*
X146130264Y-108466498D01*
X146130261Y-108466510D01*
X146099500Y-108621153D01*
X140300500Y-108621153D01*
X140300500Y-105221153D01*
X147799500Y-105221153D01*
X147799500Y-105378846D01*
X147830261Y-105533489D01*
X147830264Y-105533501D01*
X147890602Y-105679172D01*
X147890609Y-105679185D01*
X147978210Y-105810288D01*
X147978213Y-105810292D01*
X148089707Y-105921786D01*
X148089711Y-105921789D01*
X148220814Y-106009390D01*
X148220827Y-106009397D01*
X148366498Y-106069735D01*
X148366503Y-106069737D01*
X148521153Y-106100499D01*
X148521156Y-106100500D01*
X148521158Y-106100500D01*
X148678844Y-106100500D01*
X148678845Y-106100499D01*
X148833497Y-106069737D01*
X148979179Y-106009394D01*
X149110289Y-105921789D01*
X149221789Y-105810289D01*
X149309394Y-105679179D01*
X149369737Y-105533497D01*
X149400500Y-105378842D01*
X149400500Y-105221158D01*
X149384281Y-105139621D01*
X149390508Y-105070031D01*
X149433370Y-105014853D01*
X149499260Y-104991608D01*
X149567257Y-105007675D01*
X149608999Y-105046538D01*
X149628208Y-105075286D01*
X149628213Y-105075292D01*
X149739707Y-105186786D01*
X149739711Y-105186789D01*
X149870814Y-105274390D01*
X149870827Y-105274397D01*
X150016498Y-105334735D01*
X150016503Y-105334737D01*
X150171153Y-105365499D01*
X150171156Y-105365500D01*
X150171158Y-105365500D01*
X150328844Y-105365500D01*
X150328845Y-105365499D01*
X150483497Y-105334737D01*
X150629179Y-105274394D01*
X150760289Y-105186789D01*
X150871789Y-105075289D01*
X150959394Y-104944179D01*
X151019737Y-104798497D01*
X151050500Y-104643842D01*
X151050500Y-104486158D01*
X151050500Y-104486155D01*
X151050499Y-104486153D01*
X151019738Y-104331510D01*
X151019737Y-104331503D01*
X151019735Y-104331498D01*
X150959397Y-104185827D01*
X150959390Y-104185814D01*
X150871789Y-104054711D01*
X150871786Y-104054707D01*
X150760292Y-103943213D01*
X150760288Y-103943210D01*
X150629185Y-103855609D01*
X150629172Y-103855602D01*
X150483501Y-103795264D01*
X150483489Y-103795261D01*
X150328845Y-103764500D01*
X150328842Y-103764500D01*
X150171158Y-103764500D01*
X150171155Y-103764500D01*
X150016510Y-103795261D01*
X150016498Y-103795264D01*
X149870827Y-103855602D01*
X149870814Y-103855609D01*
X149739711Y-103943210D01*
X149739707Y-103943213D01*
X149628213Y-104054707D01*
X149628210Y-104054711D01*
X149540609Y-104185814D01*
X149540602Y-104185827D01*
X149480264Y-104331498D01*
X149480261Y-104331510D01*
X149449500Y-104486153D01*
X149449500Y-104643846D01*
X149465718Y-104725378D01*
X149459491Y-104794969D01*
X149416628Y-104850147D01*
X149350738Y-104873391D01*
X149282741Y-104857323D01*
X149240999Y-104818460D01*
X149221789Y-104789711D01*
X149221786Y-104789707D01*
X149110292Y-104678213D01*
X149110288Y-104678210D01*
X148979185Y-104590609D01*
X148979172Y-104590602D01*
X148833501Y-104530264D01*
X148833489Y-104530261D01*
X148678845Y-104499500D01*
X148678842Y-104499500D01*
X148521158Y-104499500D01*
X148521155Y-104499500D01*
X148366510Y-104530261D01*
X148366498Y-104530264D01*
X148220827Y-104590602D01*
X148220814Y-104590609D01*
X148089711Y-104678210D01*
X148089707Y-104678213D01*
X147978213Y-104789707D01*
X147978210Y-104789711D01*
X147890609Y-104920814D01*
X147890602Y-104920827D01*
X147830264Y-105066498D01*
X147830261Y-105066510D01*
X147799500Y-105221153D01*
X140300500Y-105221153D01*
X140300500Y-101621153D01*
X154699500Y-101621153D01*
X154699500Y-101778846D01*
X154730261Y-101933489D01*
X154730264Y-101933501D01*
X154790602Y-102079172D01*
X154790609Y-102079185D01*
X154878210Y-102210288D01*
X154878213Y-102210292D01*
X154989707Y-102321786D01*
X154989711Y-102321789D01*
X155120814Y-102409390D01*
X155120827Y-102409397D01*
X155266498Y-102469735D01*
X155266503Y-102469737D01*
X155421153Y-102500499D01*
X155421156Y-102500500D01*
X155421158Y-102500500D01*
X155578844Y-102500500D01*
X155578845Y-102500499D01*
X155733497Y-102469737D01*
X155879179Y-102409394D01*
X156010289Y-102321789D01*
X156121789Y-102210289D01*
X156209394Y-102079179D01*
X156233429Y-102021153D01*
X159699500Y-102021153D01*
X159699500Y-102178846D01*
X159730261Y-102333489D01*
X159730264Y-102333501D01*
X159790602Y-102479172D01*
X159790609Y-102479185D01*
X159878210Y-102610288D01*
X159878213Y-102610292D01*
X159989707Y-102721786D01*
X159989711Y-102721789D01*
X160120814Y-102809390D01*
X160120827Y-102809397D01*
X160266498Y-102869735D01*
X160266503Y-102869737D01*
X160421153Y-102900499D01*
X160421156Y-102900500D01*
X160421158Y-102900500D01*
X160578844Y-102900500D01*
X160578845Y-102900499D01*
X160733497Y-102869737D01*
X160879179Y-102809394D01*
X161010289Y-102721789D01*
X161010292Y-102721786D01*
X161062319Y-102669760D01*
X161123642Y-102636275D01*
X161193334Y-102641259D01*
X161237681Y-102669760D01*
X161289707Y-102721786D01*
X161289711Y-102721789D01*
X161420814Y-102809390D01*
X161420827Y-102809397D01*
X161566498Y-102869735D01*
X161566503Y-102869737D01*
X161721153Y-102900499D01*
X161721156Y-102900500D01*
X161721158Y-102900500D01*
X161878844Y-102900500D01*
X161878845Y-102900499D01*
X162033497Y-102869737D01*
X162179179Y-102809394D01*
X162310289Y-102721789D01*
X162421789Y-102610289D01*
X162509394Y-102479179D01*
X162569737Y-102333497D01*
X162600500Y-102178842D01*
X162600500Y-102021158D01*
X162600500Y-102021155D01*
X162600499Y-102021153D01*
X162569738Y-101866510D01*
X162569737Y-101866503D01*
X162533427Y-101778842D01*
X162509397Y-101720827D01*
X162509390Y-101720814D01*
X162421789Y-101589711D01*
X162421786Y-101589707D01*
X162310292Y-101478213D01*
X162310288Y-101478210D01*
X162179185Y-101390609D01*
X162179172Y-101390602D01*
X162033501Y-101330264D01*
X162033489Y-101330261D01*
X161878845Y-101299500D01*
X161878842Y-101299500D01*
X161721158Y-101299500D01*
X161721155Y-101299500D01*
X161566510Y-101330261D01*
X161566498Y-101330264D01*
X161420827Y-101390602D01*
X161420814Y-101390609D01*
X161289711Y-101478210D01*
X161289707Y-101478213D01*
X161237681Y-101530240D01*
X161176358Y-101563725D01*
X161106666Y-101558741D01*
X161062319Y-101530240D01*
X161010292Y-101478213D01*
X161010288Y-101478210D01*
X160879185Y-101390609D01*
X160879172Y-101390602D01*
X160733501Y-101330264D01*
X160733489Y-101330261D01*
X160578845Y-101299500D01*
X160578842Y-101299500D01*
X160421158Y-101299500D01*
X160421155Y-101299500D01*
X160266510Y-101330261D01*
X160266498Y-101330264D01*
X160120827Y-101390602D01*
X160120814Y-101390609D01*
X159989711Y-101478210D01*
X159989707Y-101478213D01*
X159878213Y-101589707D01*
X159878210Y-101589711D01*
X159790609Y-101720814D01*
X159790602Y-101720827D01*
X159730264Y-101866498D01*
X159730261Y-101866510D01*
X159699500Y-102021153D01*
X156233429Y-102021153D01*
X156255603Y-101967621D01*
X156255605Y-101967614D01*
X156269737Y-101933497D01*
X156300500Y-101778842D01*
X156300500Y-101621158D01*
X156300500Y-101621155D01*
X156300499Y-101621153D01*
X156272066Y-101478211D01*
X156269737Y-101466503D01*
X156238298Y-101390602D01*
X156209397Y-101320827D01*
X156209390Y-101320814D01*
X156121789Y-101189711D01*
X156121786Y-101189707D01*
X156010292Y-101078213D01*
X156010288Y-101078210D01*
X155879185Y-100990609D01*
X155879172Y-100990602D01*
X155733501Y-100930264D01*
X155733489Y-100930261D01*
X155578845Y-100899500D01*
X155578842Y-100899500D01*
X155421158Y-100899500D01*
X155421155Y-100899500D01*
X155266510Y-100930261D01*
X155266498Y-100930264D01*
X155120827Y-100990602D01*
X155120814Y-100990609D01*
X154989711Y-101078210D01*
X154989707Y-101078213D01*
X154878213Y-101189707D01*
X154878210Y-101189711D01*
X154790609Y-101320814D01*
X154790602Y-101320827D01*
X154730264Y-101466498D01*
X154730261Y-101466510D01*
X154699500Y-101621153D01*
X140300500Y-101621153D01*
X140300500Y-98721153D01*
X145899500Y-98721153D01*
X145899500Y-98878846D01*
X145930261Y-99033489D01*
X145930264Y-99033501D01*
X145990602Y-99179172D01*
X145990609Y-99179185D01*
X146078210Y-99310288D01*
X146078213Y-99310292D01*
X146189707Y-99421786D01*
X146189711Y-99421789D01*
X146320814Y-99509390D01*
X146320827Y-99509397D01*
X146412045Y-99547180D01*
X146466503Y-99569737D01*
X146621153Y-99600499D01*
X146621156Y-99600500D01*
X146621158Y-99600500D01*
X146778844Y-99600500D01*
X146778845Y-99600499D01*
X146933497Y-99569737D01*
X147079179Y-99509394D01*
X147210289Y-99421789D01*
X147321789Y-99310289D01*
X147409394Y-99179179D01*
X147469737Y-99033497D01*
X147494868Y-98907154D01*
X148899500Y-98907154D01*
X148899500Y-99064847D01*
X148930261Y-99219490D01*
X148930264Y-99219502D01*
X148990602Y-99365173D01*
X148990609Y-99365186D01*
X149078210Y-99496289D01*
X149078213Y-99496293D01*
X149189708Y-99607788D01*
X149189711Y-99607790D01*
X149240969Y-99642039D01*
X149285773Y-99695650D01*
X149293695Y-99720949D01*
X149321257Y-99859513D01*
X149321260Y-99859523D01*
X149381598Y-100005194D01*
X149381605Y-100005207D01*
X149469206Y-100136310D01*
X149469209Y-100136314D01*
X149580703Y-100247808D01*
X149580707Y-100247811D01*
X149711810Y-100335412D01*
X149711823Y-100335419D01*
X149857494Y-100395757D01*
X149857499Y-100395759D01*
X150012149Y-100426521D01*
X150012152Y-100426522D01*
X150012154Y-100426522D01*
X150169840Y-100426522D01*
X150169841Y-100426521D01*
X150324493Y-100395759D01*
X150470175Y-100335416D01*
X150601285Y-100247811D01*
X150712785Y-100136311D01*
X150800390Y-100005201D01*
X150860733Y-99859519D01*
X150891496Y-99704864D01*
X150891496Y-99621153D01*
X157924498Y-99621153D01*
X157924498Y-99778846D01*
X157955259Y-99933489D01*
X157955262Y-99933501D01*
X158015600Y-100079172D01*
X158015607Y-100079185D01*
X158103208Y-100210288D01*
X158103211Y-100210292D01*
X158214705Y-100321786D01*
X158214709Y-100321789D01*
X158345812Y-100409390D01*
X158345825Y-100409397D01*
X158409600Y-100435813D01*
X158464004Y-100479653D01*
X158486069Y-100545947D01*
X158483766Y-100574564D01*
X158474498Y-100621159D01*
X158474498Y-100778846D01*
X158505259Y-100933489D01*
X158505262Y-100933501D01*
X158565600Y-101079172D01*
X158565607Y-101079185D01*
X158653208Y-101210288D01*
X158653211Y-101210292D01*
X158764705Y-101321786D01*
X158764709Y-101321789D01*
X158895812Y-101409390D01*
X158895825Y-101409397D01*
X159033681Y-101466498D01*
X159041501Y-101469737D01*
X159196151Y-101500499D01*
X159196154Y-101500500D01*
X159196156Y-101500500D01*
X159353842Y-101500500D01*
X159353843Y-101500499D01*
X159508495Y-101469737D01*
X159654177Y-101409394D01*
X159785287Y-101321789D01*
X159896787Y-101210289D01*
X159984392Y-101079179D01*
X160044735Y-100933497D01*
X160075498Y-100778842D01*
X160075498Y-100621158D01*
X160075498Y-100621155D01*
X160075497Y-100621153D01*
X160066230Y-100574564D01*
X160044735Y-100466503D01*
X160032023Y-100435813D01*
X159984395Y-100320827D01*
X159984388Y-100320814D01*
X159896787Y-100189711D01*
X159896784Y-100189707D01*
X159785290Y-100078213D01*
X159785286Y-100078210D01*
X159654183Y-99990609D01*
X159654174Y-99990604D01*
X159590394Y-99964186D01*
X159535991Y-99920345D01*
X159513926Y-99854051D01*
X159516230Y-99825432D01*
X159525498Y-99778842D01*
X159525498Y-99621155D01*
X159525497Y-99621153D01*
X159522839Y-99607790D01*
X159494735Y-99466503D01*
X159476213Y-99421786D01*
X159434395Y-99320827D01*
X159434388Y-99320814D01*
X159357764Y-99206139D01*
X159357763Y-99206138D01*
X159346785Y-99189708D01*
X159300412Y-99143335D01*
X160077318Y-99143335D01*
X160077318Y-99301028D01*
X160108079Y-99455671D01*
X160108082Y-99455683D01*
X160168420Y-99601354D01*
X160168427Y-99601367D01*
X160256028Y-99732470D01*
X160256031Y-99732474D01*
X160367525Y-99843968D01*
X160367529Y-99843971D01*
X160498632Y-99931572D01*
X160498645Y-99931579D01*
X160641146Y-99990604D01*
X160644321Y-99991919D01*
X160794472Y-100021786D01*
X160798971Y-100022681D01*
X160798974Y-100022682D01*
X160798976Y-100022682D01*
X160956662Y-100022682D01*
X160956663Y-100022681D01*
X161111315Y-99991919D01*
X161256997Y-99931576D01*
X161388107Y-99843971D01*
X161499607Y-99732471D01*
X161587212Y-99601361D01*
X161647555Y-99455679D01*
X161674314Y-99321153D01*
X163799500Y-99321153D01*
X163799500Y-99478846D01*
X163830261Y-99633489D01*
X163830264Y-99633501D01*
X163890602Y-99779172D01*
X163890609Y-99779185D01*
X163978210Y-99910288D01*
X163978213Y-99910292D01*
X164089707Y-100021786D01*
X164089711Y-100021789D01*
X164220814Y-100109390D01*
X164220827Y-100109397D01*
X164366498Y-100169735D01*
X164366503Y-100169737D01*
X164521153Y-100200499D01*
X164521156Y-100200500D01*
X164521158Y-100200500D01*
X164678844Y-100200500D01*
X164678845Y-100200499D01*
X164833497Y-100169737D01*
X164979179Y-100109394D01*
X165110289Y-100021789D01*
X165221789Y-99910289D01*
X165309394Y-99779179D01*
X165369737Y-99633497D01*
X165400500Y-99478842D01*
X165400500Y-99321158D01*
X165400500Y-99321155D01*
X165400499Y-99321153D01*
X165374353Y-99189711D01*
X165369737Y-99166503D01*
X165360143Y-99143340D01*
X165309397Y-99020827D01*
X165309390Y-99020814D01*
X165221789Y-98889711D01*
X165221786Y-98889707D01*
X165110292Y-98778213D01*
X165110288Y-98778210D01*
X164979185Y-98690609D01*
X164979172Y-98690602D01*
X164833501Y-98630264D01*
X164833489Y-98630261D01*
X164678845Y-98599500D01*
X164678842Y-98599500D01*
X164521158Y-98599500D01*
X164521155Y-98599500D01*
X164366510Y-98630261D01*
X164366498Y-98630264D01*
X164220827Y-98690602D01*
X164220814Y-98690609D01*
X164089711Y-98778210D01*
X164089707Y-98778213D01*
X163978213Y-98889707D01*
X163978210Y-98889711D01*
X163890609Y-99020814D01*
X163890602Y-99020827D01*
X163830264Y-99166498D01*
X163830261Y-99166510D01*
X163799500Y-99321153D01*
X161674314Y-99321153D01*
X161674380Y-99320821D01*
X161678317Y-99301031D01*
X161678318Y-99301023D01*
X161678318Y-99143337D01*
X161678317Y-99143335D01*
X161665363Y-99078210D01*
X161647555Y-98988685D01*
X161626101Y-98936890D01*
X161587215Y-98843009D01*
X161587208Y-98842996D01*
X161499607Y-98711893D01*
X161499604Y-98711889D01*
X161388110Y-98600395D01*
X161388106Y-98600392D01*
X161257003Y-98512791D01*
X161256990Y-98512784D01*
X161111319Y-98452446D01*
X161111307Y-98452443D01*
X160956663Y-98421682D01*
X160956660Y-98421682D01*
X160798976Y-98421682D01*
X160798973Y-98421682D01*
X160644328Y-98452443D01*
X160644316Y-98452446D01*
X160498645Y-98512784D01*
X160498632Y-98512791D01*
X160367529Y-98600392D01*
X160367525Y-98600395D01*
X160256031Y-98711889D01*
X160256028Y-98711893D01*
X160168427Y-98842996D01*
X160168420Y-98843009D01*
X160108082Y-98988680D01*
X160108079Y-98988692D01*
X160077318Y-99143335D01*
X159300412Y-99143335D01*
X159235290Y-99078213D01*
X159235286Y-99078210D01*
X159104183Y-98990609D01*
X159104170Y-98990602D01*
X158958499Y-98930264D01*
X158958487Y-98930261D01*
X158803843Y-98899500D01*
X158803840Y-98899500D01*
X158646156Y-98899500D01*
X158646153Y-98899500D01*
X158491508Y-98930261D01*
X158491496Y-98930264D01*
X158345825Y-98990602D01*
X158345812Y-98990609D01*
X158214709Y-99078210D01*
X158214705Y-99078213D01*
X158103211Y-99189707D01*
X158103208Y-99189711D01*
X158015607Y-99320814D01*
X158015600Y-99320827D01*
X157955262Y-99466498D01*
X157955259Y-99466510D01*
X157924498Y-99621153D01*
X150891496Y-99621153D01*
X150891496Y-99547180D01*
X150891496Y-99547177D01*
X150891495Y-99547175D01*
X150877903Y-99478844D01*
X150860733Y-99392525D01*
X150849409Y-99365186D01*
X150800393Y-99246849D01*
X150800386Y-99246836D01*
X150712785Y-99115733D01*
X150712782Y-99115729D01*
X150601288Y-99004235D01*
X150601284Y-99004232D01*
X150550026Y-98969982D01*
X150505221Y-98916369D01*
X150497300Y-98891071D01*
X150469738Y-98752511D01*
X150469737Y-98752504D01*
X150452914Y-98711889D01*
X150409397Y-98606828D01*
X150409390Y-98606815D01*
X150321789Y-98475712D01*
X150321786Y-98475708D01*
X150210292Y-98364214D01*
X150210288Y-98364211D01*
X150079185Y-98276610D01*
X150079172Y-98276603D01*
X149933501Y-98216265D01*
X149933489Y-98216262D01*
X149778845Y-98185501D01*
X149778842Y-98185501D01*
X149621158Y-98185501D01*
X149621155Y-98185501D01*
X149466510Y-98216262D01*
X149466498Y-98216265D01*
X149320827Y-98276603D01*
X149320814Y-98276610D01*
X149189711Y-98364211D01*
X149189707Y-98364214D01*
X149078213Y-98475708D01*
X149078210Y-98475712D01*
X148990609Y-98606815D01*
X148990602Y-98606828D01*
X148930264Y-98752499D01*
X148930261Y-98752511D01*
X148899500Y-98907154D01*
X147494868Y-98907154D01*
X147500500Y-98878842D01*
X147500500Y-98721158D01*
X147500500Y-98721155D01*
X147476661Y-98601311D01*
X147482888Y-98531719D01*
X147525751Y-98476542D01*
X147550814Y-98462563D01*
X147679179Y-98409394D01*
X147810289Y-98321789D01*
X147921789Y-98210289D01*
X148009394Y-98079179D01*
X148069737Y-97933497D01*
X148100500Y-97778842D01*
X148100500Y-97621158D01*
X148100500Y-97621155D01*
X148100499Y-97621153D01*
X148098338Y-97610288D01*
X148069737Y-97466503D01*
X148069735Y-97466498D01*
X148009397Y-97320827D01*
X148009390Y-97320814D01*
X147921789Y-97189711D01*
X147921786Y-97189707D01*
X147810292Y-97078213D01*
X147810288Y-97078210D01*
X147724897Y-97021153D01*
X153899500Y-97021153D01*
X153899500Y-97178846D01*
X153930261Y-97333489D01*
X153930264Y-97333501D01*
X153990602Y-97479172D01*
X153990609Y-97479185D01*
X154078210Y-97610288D01*
X154078213Y-97610292D01*
X154189707Y-97721786D01*
X154189711Y-97721789D01*
X154320814Y-97809390D01*
X154320827Y-97809397D01*
X154466498Y-97869735D01*
X154466503Y-97869737D01*
X154612049Y-97898688D01*
X154621153Y-97900499D01*
X154621156Y-97900500D01*
X154621158Y-97900500D01*
X154778844Y-97900500D01*
X154778845Y-97900499D01*
X154933497Y-97869737D01*
X155079179Y-97809394D01*
X155210289Y-97721789D01*
X155321789Y-97610289D01*
X155409394Y-97479179D01*
X155469737Y-97333497D01*
X155500500Y-97178842D01*
X155500500Y-97021158D01*
X155500500Y-97021155D01*
X155500499Y-97021153D01*
X155482419Y-96930261D01*
X155469737Y-96866503D01*
X155469735Y-96866498D01*
X155409397Y-96720827D01*
X155409390Y-96720814D01*
X155321789Y-96589711D01*
X155321786Y-96589707D01*
X155210292Y-96478213D01*
X155210288Y-96478210D01*
X155079185Y-96390609D01*
X155079172Y-96390602D01*
X154933501Y-96330264D01*
X154933489Y-96330261D01*
X154778845Y-96299500D01*
X154778842Y-96299500D01*
X154621158Y-96299500D01*
X154621155Y-96299500D01*
X154466510Y-96330261D01*
X154466498Y-96330264D01*
X154320827Y-96390602D01*
X154320814Y-96390609D01*
X154189711Y-96478210D01*
X154189707Y-96478213D01*
X154078213Y-96589707D01*
X154078210Y-96589711D01*
X153990609Y-96720814D01*
X153990602Y-96720827D01*
X153930264Y-96866498D01*
X153930261Y-96866510D01*
X153899500Y-97021153D01*
X147724897Y-97021153D01*
X147679185Y-96990609D01*
X147679172Y-96990602D01*
X147533501Y-96930264D01*
X147533489Y-96930261D01*
X147378845Y-96899500D01*
X147378842Y-96899500D01*
X147221158Y-96899500D01*
X147221155Y-96899500D01*
X147066510Y-96930261D01*
X147066498Y-96930264D01*
X146920827Y-96990602D01*
X146920814Y-96990609D01*
X146789711Y-97078210D01*
X146789707Y-97078213D01*
X146678213Y-97189707D01*
X146678210Y-97189711D01*
X146590609Y-97320814D01*
X146590602Y-97320827D01*
X146530264Y-97466498D01*
X146530261Y-97466510D01*
X146499500Y-97621153D01*
X146499500Y-97778846D01*
X146523338Y-97898688D01*
X146517111Y-97968280D01*
X146474248Y-98023457D01*
X146449174Y-98037440D01*
X146320824Y-98090604D01*
X146320814Y-98090609D01*
X146189711Y-98178210D01*
X146189707Y-98178213D01*
X146078213Y-98289707D01*
X146078210Y-98289711D01*
X145990609Y-98420814D01*
X145990602Y-98420827D01*
X145930264Y-98566498D01*
X145930261Y-98566510D01*
X145899500Y-98721153D01*
X140300500Y-98721153D01*
X140300500Y-94821153D01*
X147899500Y-94821153D01*
X147899500Y-94978846D01*
X147930261Y-95133489D01*
X147930264Y-95133501D01*
X147990602Y-95279172D01*
X147990609Y-95279185D01*
X148078210Y-95410288D01*
X148078213Y-95410292D01*
X148189707Y-95521786D01*
X148189711Y-95521789D01*
X148320814Y-95609390D01*
X148320827Y-95609397D01*
X148466498Y-95669735D01*
X148466503Y-95669737D01*
X148585057Y-95693319D01*
X148621153Y-95700499D01*
X148621156Y-95700500D01*
X148621158Y-95700500D01*
X148778844Y-95700500D01*
X148778845Y-95700499D01*
X148933497Y-95669737D01*
X149079179Y-95609394D01*
X149210289Y-95521789D01*
X149321789Y-95410289D01*
X149409394Y-95279179D01*
X149410275Y-95277049D01*
X149411035Y-95276106D01*
X149412264Y-95273809D01*
X149412699Y-95274041D01*
X149422819Y-95261483D01*
X149431125Y-95243297D01*
X149444293Y-95234833D01*
X149454115Y-95222646D01*
X149473084Y-95216331D01*
X149489903Y-95205523D01*
X149517457Y-95201561D01*
X149520408Y-95200579D01*
X149524838Y-95200500D01*
X149535921Y-95200500D01*
X149602960Y-95220185D01*
X149623603Y-95236820D01*
X149666239Y-95279457D01*
X149666243Y-95279460D01*
X149797346Y-95367061D01*
X149797359Y-95367068D01*
X149933052Y-95423273D01*
X149943035Y-95427408D01*
X150097685Y-95458170D01*
X150097688Y-95458171D01*
X150097690Y-95458171D01*
X150255376Y-95458171D01*
X150255377Y-95458170D01*
X150410029Y-95427408D01*
X150555711Y-95367065D01*
X150686821Y-95279460D01*
X150798321Y-95167960D01*
X150798323Y-95167956D01*
X150802628Y-95163652D01*
X150804179Y-95165203D01*
X150853766Y-95131423D01*
X150923611Y-95129550D01*
X150939331Y-95134860D01*
X151046038Y-95179059D01*
X151046043Y-95179061D01*
X151153825Y-95200500D01*
X151180465Y-95205799D01*
X151180469Y-95205800D01*
X151180470Y-95205800D01*
X151317531Y-95205800D01*
X151317532Y-95205799D01*
X151451957Y-95179061D01*
X151562980Y-95133074D01*
X151578578Y-95126613D01*
X151578578Y-95126612D01*
X151578585Y-95126610D01*
X151692547Y-95050463D01*
X151789463Y-94953547D01*
X151865610Y-94839585D01*
X151918061Y-94712957D01*
X151944800Y-94578530D01*
X151944800Y-94441470D01*
X151944799Y-94441465D01*
X152585200Y-94441465D01*
X152585200Y-94578534D01*
X152611937Y-94712949D01*
X152611940Y-94712961D01*
X152664386Y-94839578D01*
X152664393Y-94839591D01*
X152740536Y-94953546D01*
X152740539Y-94953550D01*
X152837449Y-95050460D01*
X152837453Y-95050463D01*
X152951408Y-95126606D01*
X152951421Y-95126613D01*
X153078038Y-95179059D01*
X153078043Y-95179061D01*
X153185825Y-95200500D01*
X153212465Y-95205799D01*
X153212469Y-95205800D01*
X153212470Y-95205800D01*
X153349531Y-95205800D01*
X153349532Y-95205799D01*
X153483957Y-95179061D01*
X153594980Y-95133074D01*
X153610578Y-95126613D01*
X153610578Y-95126612D01*
X153610585Y-95126610D01*
X153724547Y-95050463D01*
X153821463Y-94953547D01*
X153897610Y-94839585D01*
X153950061Y-94712957D01*
X153968322Y-94621153D01*
X154999500Y-94621153D01*
X154999500Y-94778846D01*
X155030261Y-94933489D01*
X155030264Y-94933501D01*
X155090602Y-95079172D01*
X155090609Y-95079185D01*
X155178210Y-95210288D01*
X155178213Y-95210292D01*
X155289707Y-95321786D01*
X155289711Y-95321789D01*
X155420814Y-95409390D01*
X155420827Y-95409397D01*
X155538580Y-95458171D01*
X155566503Y-95469737D01*
X155721153Y-95500499D01*
X155721156Y-95500500D01*
X155767454Y-95500500D01*
X155834493Y-95520185D01*
X155880248Y-95572989D01*
X155889071Y-95600309D01*
X155918001Y-95745749D01*
X155918004Y-95745761D01*
X155978342Y-95891432D01*
X155978349Y-95891445D01*
X156065950Y-96022548D01*
X156065953Y-96022552D01*
X156177447Y-96134046D01*
X156177451Y-96134049D01*
X156308554Y-96221650D01*
X156308567Y-96221657D01*
X156454238Y-96281995D01*
X156454243Y-96281997D01*
X156608767Y-96312734D01*
X156608893Y-96312759D01*
X156608896Y-96312760D01*
X156608898Y-96312760D01*
X156766584Y-96312760D01*
X156766585Y-96312759D01*
X156921237Y-96281997D01*
X157066919Y-96221654D01*
X157198029Y-96134049D01*
X157309529Y-96022549D01*
X157397134Y-95891439D01*
X157457477Y-95745757D01*
X157461885Y-95723599D01*
X160699500Y-95723599D01*
X160699500Y-95881292D01*
X160730261Y-96035935D01*
X160730264Y-96035947D01*
X160790602Y-96181618D01*
X160790609Y-96181631D01*
X160878210Y-96312734D01*
X160878213Y-96312738D01*
X160989707Y-96424232D01*
X160989711Y-96424235D01*
X161120814Y-96511836D01*
X161120827Y-96511843D01*
X161266498Y-96572181D01*
X161266503Y-96572183D01*
X161354602Y-96589707D01*
X161421153Y-96602945D01*
X161421156Y-96602946D01*
X161421158Y-96602946D01*
X161578844Y-96602946D01*
X161578845Y-96602945D01*
X161733497Y-96572183D01*
X161879179Y-96511840D01*
X162010289Y-96424235D01*
X162121789Y-96312735D01*
X162209394Y-96181625D01*
X162269737Y-96035943D01*
X162300500Y-95881288D01*
X162300500Y-95723604D01*
X162300500Y-95723601D01*
X162300499Y-95723599D01*
X162289785Y-95669735D01*
X162269737Y-95568949D01*
X162250202Y-95521786D01*
X162209397Y-95423273D01*
X162209390Y-95423260D01*
X162121789Y-95292157D01*
X162121786Y-95292153D01*
X162010292Y-95180659D01*
X162010288Y-95180656D01*
X161879185Y-95093055D01*
X161879172Y-95093048D01*
X161733501Y-95032710D01*
X161733489Y-95032707D01*
X161578845Y-95001946D01*
X161578842Y-95001946D01*
X161421158Y-95001946D01*
X161421155Y-95001946D01*
X161266510Y-95032707D01*
X161266498Y-95032710D01*
X161120827Y-95093048D01*
X161120814Y-95093055D01*
X160989711Y-95180656D01*
X160989707Y-95180659D01*
X160878213Y-95292153D01*
X160878210Y-95292157D01*
X160790609Y-95423260D01*
X160790602Y-95423273D01*
X160730264Y-95568944D01*
X160730261Y-95568956D01*
X160699500Y-95723599D01*
X157461885Y-95723599D01*
X157467908Y-95693320D01*
X157467908Y-95693319D01*
X157484602Y-95609390D01*
X157488240Y-95591102D01*
X157488240Y-95433418D01*
X157488240Y-95433415D01*
X157488239Y-95433413D01*
X157483461Y-95409394D01*
X157457477Y-95278763D01*
X157456768Y-95277051D01*
X157397137Y-95133087D01*
X157397130Y-95133074D01*
X157309529Y-95001971D01*
X157309526Y-95001967D01*
X157198032Y-94890473D01*
X157198028Y-94890470D01*
X157066925Y-94802869D01*
X157066912Y-94802862D01*
X156921241Y-94742524D01*
X156921229Y-94742521D01*
X156766585Y-94711760D01*
X156766582Y-94711760D01*
X156720286Y-94711760D01*
X156689824Y-94702815D01*
X156658926Y-94695514D01*
X156656540Y-94693042D01*
X156653247Y-94692075D01*
X156632465Y-94668092D01*
X156610410Y-94645235D01*
X156608865Y-94640855D01*
X156607492Y-94639271D01*
X156598669Y-94611951D01*
X156581915Y-94527723D01*
X156588142Y-94458132D01*
X156631005Y-94402954D01*
X156696895Y-94379710D01*
X156727724Y-94381915D01*
X156821155Y-94400500D01*
X156821158Y-94400500D01*
X156978844Y-94400500D01*
X156978845Y-94400499D01*
X157133497Y-94369737D01*
X157139341Y-94367315D01*
X157208810Y-94359846D01*
X157271290Y-94391119D01*
X157301357Y-94434424D01*
X157340602Y-94529172D01*
X157340609Y-94529185D01*
X157428210Y-94660288D01*
X157428213Y-94660292D01*
X157539707Y-94771786D01*
X157539711Y-94771789D01*
X157670814Y-94859390D01*
X157670827Y-94859397D01*
X157816498Y-94919735D01*
X157816503Y-94919737D01*
X157971153Y-94950499D01*
X157971156Y-94950500D01*
X157971158Y-94950500D01*
X158128844Y-94950500D01*
X158128845Y-94950499D01*
X158283497Y-94919737D01*
X158429179Y-94859394D01*
X158560289Y-94771789D01*
X158671789Y-94660289D01*
X158759394Y-94529179D01*
X158762854Y-94520827D01*
X158795726Y-94441465D01*
X158819737Y-94383497D01*
X158850500Y-94228842D01*
X158850500Y-94071158D01*
X158850500Y-94071155D01*
X158850499Y-94071153D01*
X158841098Y-94023893D01*
X158819737Y-93916503D01*
X158810162Y-93893386D01*
X158759397Y-93770827D01*
X158759390Y-93770814D01*
X158671789Y-93639711D01*
X158671786Y-93639707D01*
X158560292Y-93528213D01*
X158560288Y-93528210D01*
X158429185Y-93440609D01*
X158429172Y-93440602D01*
X158283501Y-93380264D01*
X158283489Y-93380261D01*
X158128845Y-93349500D01*
X158128842Y-93349500D01*
X157971158Y-93349500D01*
X157971155Y-93349500D01*
X157816511Y-93380260D01*
X157816502Y-93380263D01*
X157810651Y-93382687D01*
X157741182Y-93390153D01*
X157678704Y-93358876D01*
X157648643Y-93315578D01*
X157609394Y-93220821D01*
X157609390Y-93220814D01*
X157521789Y-93089711D01*
X157521786Y-93089707D01*
X157410292Y-92978213D01*
X157410288Y-92978210D01*
X157279185Y-92890609D01*
X157279172Y-92890602D01*
X157133501Y-92830264D01*
X157133489Y-92830261D01*
X156978845Y-92799500D01*
X156978842Y-92799500D01*
X156821158Y-92799500D01*
X156821155Y-92799500D01*
X156666510Y-92830261D01*
X156666498Y-92830264D01*
X156520827Y-92890602D01*
X156520814Y-92890609D01*
X156389711Y-92978210D01*
X156389707Y-92978213D01*
X156278213Y-93089707D01*
X156278210Y-93089711D01*
X156190609Y-93220814D01*
X156190602Y-93220827D01*
X156130264Y-93366498D01*
X156130261Y-93366510D01*
X156099500Y-93521153D01*
X156099500Y-93678846D01*
X156118084Y-93772276D01*
X156111857Y-93841868D01*
X156068993Y-93897045D01*
X156003103Y-93920289D01*
X155972276Y-93918084D01*
X155878846Y-93899500D01*
X155878842Y-93899500D01*
X155721158Y-93899500D01*
X155721155Y-93899500D01*
X155566510Y-93930261D01*
X155566498Y-93930264D01*
X155420827Y-93990602D01*
X155420814Y-93990609D01*
X155289711Y-94078210D01*
X155289707Y-94078213D01*
X155178213Y-94189707D01*
X155178210Y-94189711D01*
X155090609Y-94320814D01*
X155090602Y-94320827D01*
X155030264Y-94466498D01*
X155030261Y-94466510D01*
X154999500Y-94621153D01*
X153968322Y-94621153D01*
X153974345Y-94590875D01*
X153976799Y-94578534D01*
X153976800Y-94578531D01*
X153976800Y-94441469D01*
X153976799Y-94441465D01*
X153969139Y-94402954D01*
X153950061Y-94307043D01*
X153938119Y-94278213D01*
X153897613Y-94180421D01*
X153897606Y-94180408D01*
X153821463Y-94066453D01*
X153821460Y-94066449D01*
X153724550Y-93969539D01*
X153724546Y-93969536D01*
X153610591Y-93893393D01*
X153610578Y-93893386D01*
X153483961Y-93840940D01*
X153483949Y-93840937D01*
X153349534Y-93814200D01*
X153349530Y-93814200D01*
X153212470Y-93814200D01*
X153212465Y-93814200D01*
X153078050Y-93840937D01*
X153078038Y-93840940D01*
X152951421Y-93893386D01*
X152951408Y-93893393D01*
X152837453Y-93969536D01*
X152837449Y-93969539D01*
X152740539Y-94066449D01*
X152740536Y-94066453D01*
X152664393Y-94180408D01*
X152664386Y-94180421D01*
X152611940Y-94307038D01*
X152611937Y-94307050D01*
X152585200Y-94441465D01*
X151944799Y-94441465D01*
X151918061Y-94307043D01*
X151906119Y-94278213D01*
X151865613Y-94180421D01*
X151865606Y-94180408D01*
X151789463Y-94066453D01*
X151789460Y-94066449D01*
X151692550Y-93969539D01*
X151692546Y-93969536D01*
X151578591Y-93893393D01*
X151578578Y-93893386D01*
X151451961Y-93840940D01*
X151451949Y-93840937D01*
X151317534Y-93814200D01*
X151317530Y-93814200D01*
X151180470Y-93814200D01*
X151180465Y-93814200D01*
X151046050Y-93840937D01*
X151046038Y-93840940D01*
X150919421Y-93893386D01*
X150919408Y-93893393D01*
X150805456Y-93969534D01*
X150805455Y-93969535D01*
X150790118Y-93984871D01*
X150728793Y-94018353D01*
X150659102Y-94013365D01*
X150633550Y-94000287D01*
X150555717Y-93948280D01*
X150555704Y-93948273D01*
X150410033Y-93887935D01*
X150410021Y-93887932D01*
X150255377Y-93857171D01*
X150255374Y-93857171D01*
X150112793Y-93857171D01*
X150045754Y-93837486D01*
X150025111Y-93820851D01*
X149982474Y-93778213D01*
X149982470Y-93778210D01*
X149851367Y-93690609D01*
X149851354Y-93690602D01*
X149705683Y-93630264D01*
X149705671Y-93630261D01*
X149551027Y-93599500D01*
X149551024Y-93599500D01*
X149393340Y-93599500D01*
X149393337Y-93599500D01*
X149238692Y-93630261D01*
X149238680Y-93630264D01*
X149093009Y-93690602D01*
X149092996Y-93690609D01*
X148961893Y-93778210D01*
X148961889Y-93778213D01*
X148850395Y-93889707D01*
X148850392Y-93889711D01*
X148762791Y-94020814D01*
X148762789Y-94020819D01*
X148761907Y-94022949D01*
X148761146Y-94023893D01*
X148759918Y-94026191D01*
X148759482Y-94025958D01*
X148718067Y-94077354D01*
X148651774Y-94099421D01*
X148647344Y-94099500D01*
X148621155Y-94099500D01*
X148466510Y-94130261D01*
X148466498Y-94130264D01*
X148320827Y-94190602D01*
X148320814Y-94190609D01*
X148189711Y-94278210D01*
X148189707Y-94278213D01*
X148078213Y-94389707D01*
X148078210Y-94389711D01*
X147990609Y-94520814D01*
X147990602Y-94520827D01*
X147930264Y-94666498D01*
X147930261Y-94666510D01*
X147899500Y-94821153D01*
X140300500Y-94821153D01*
X140300500Y-92460838D01*
X150358976Y-92460838D01*
X150358976Y-92618531D01*
X150389737Y-92773174D01*
X150389740Y-92773186D01*
X150450078Y-92918857D01*
X150450085Y-92918870D01*
X150537686Y-93049973D01*
X150537689Y-93049977D01*
X150649183Y-93161471D01*
X150649187Y-93161474D01*
X150780290Y-93249075D01*
X150780303Y-93249082D01*
X150925974Y-93309420D01*
X150925979Y-93309422D01*
X151080629Y-93340184D01*
X151080632Y-93340185D01*
X151080634Y-93340185D01*
X151238320Y-93340185D01*
X151238321Y-93340184D01*
X151392973Y-93309422D01*
X151538655Y-93249079D01*
X151669765Y-93161474D01*
X151781265Y-93049974D01*
X151868870Y-92918864D01*
X151929213Y-92773182D01*
X151959976Y-92618527D01*
X151959976Y-92460843D01*
X151959976Y-92460840D01*
X151959975Y-92460838D01*
X151929213Y-92306188D01*
X151929211Y-92306183D01*
X151911125Y-92262518D01*
X151893991Y-92221153D01*
X162099500Y-92221153D01*
X162099500Y-92378846D01*
X162130261Y-92533489D01*
X162130264Y-92533501D01*
X162190602Y-92679172D01*
X162190609Y-92679185D01*
X162278210Y-92810288D01*
X162278213Y-92810292D01*
X162389707Y-92921786D01*
X162389711Y-92921789D01*
X162520814Y-93009390D01*
X162520827Y-93009397D01*
X162666498Y-93069735D01*
X162666503Y-93069737D01*
X162821153Y-93100499D01*
X162821156Y-93100500D01*
X162821158Y-93100500D01*
X162978844Y-93100500D01*
X162978845Y-93100499D01*
X163133497Y-93069737D01*
X163279179Y-93009394D01*
X163410289Y-92921789D01*
X163521789Y-92810289D01*
X163609394Y-92679179D01*
X163669737Y-92533497D01*
X163700500Y-92378842D01*
X163700500Y-92221158D01*
X163700500Y-92221155D01*
X163700499Y-92221153D01*
X163669738Y-92066510D01*
X163669737Y-92066503D01*
X163654365Y-92029392D01*
X163609397Y-91920827D01*
X163609390Y-91920814D01*
X163521789Y-91789711D01*
X163521786Y-91789707D01*
X163410292Y-91678213D01*
X163410288Y-91678210D01*
X163279185Y-91590609D01*
X163279172Y-91590602D01*
X163133501Y-91530264D01*
X163133489Y-91530261D01*
X162978845Y-91499500D01*
X162978842Y-91499500D01*
X162821158Y-91499500D01*
X162821155Y-91499500D01*
X162666510Y-91530261D01*
X162666498Y-91530264D01*
X162520827Y-91590602D01*
X162520814Y-91590609D01*
X162389711Y-91678210D01*
X162389707Y-91678213D01*
X162278213Y-91789707D01*
X162278210Y-91789711D01*
X162190609Y-91920814D01*
X162190602Y-91920827D01*
X162130264Y-92066498D01*
X162130261Y-92066510D01*
X162099500Y-92221153D01*
X151893991Y-92221153D01*
X151868873Y-92160512D01*
X151868866Y-92160499D01*
X151781265Y-92029396D01*
X151781262Y-92029392D01*
X151669768Y-91917898D01*
X151669764Y-91917895D01*
X151538661Y-91830294D01*
X151538648Y-91830287D01*
X151392977Y-91769949D01*
X151392965Y-91769946D01*
X151238321Y-91739185D01*
X151238318Y-91739185D01*
X151080634Y-91739185D01*
X151080631Y-91739185D01*
X150925986Y-91769946D01*
X150925974Y-91769949D01*
X150780303Y-91830287D01*
X150780290Y-91830294D01*
X150649187Y-91917895D01*
X150649183Y-91917898D01*
X150537689Y-92029392D01*
X150537686Y-92029396D01*
X150450085Y-92160499D01*
X150450078Y-92160512D01*
X150389740Y-92306183D01*
X150389737Y-92306195D01*
X150358976Y-92460838D01*
X140300500Y-92460838D01*
X140300500Y-89361465D01*
X151569200Y-89361465D01*
X151569200Y-89498534D01*
X151595937Y-89632949D01*
X151595940Y-89632961D01*
X151648386Y-89759578D01*
X151648393Y-89759591D01*
X151724536Y-89873546D01*
X151724539Y-89873550D01*
X151821449Y-89970460D01*
X151821453Y-89970463D01*
X151935408Y-90046606D01*
X151935421Y-90046613D01*
X152062038Y-90099059D01*
X152062043Y-90099061D01*
X152196465Y-90125799D01*
X152196469Y-90125800D01*
X152196470Y-90125800D01*
X152333531Y-90125800D01*
X152333532Y-90125799D01*
X152467957Y-90099061D01*
X152594585Y-90046610D01*
X152708547Y-89970463D01*
X152805463Y-89873547D01*
X152881610Y-89759585D01*
X152934061Y-89632957D01*
X152956300Y-89521153D01*
X153399500Y-89521153D01*
X153399500Y-89678846D01*
X153430261Y-89833489D01*
X153430264Y-89833501D01*
X153490602Y-89979172D01*
X153490609Y-89979185D01*
X153578210Y-90110288D01*
X153578213Y-90110292D01*
X153689707Y-90221786D01*
X153689711Y-90221789D01*
X153820814Y-90309390D01*
X153820827Y-90309397D01*
X153943488Y-90360204D01*
X153966503Y-90369737D01*
X154121153Y-90400499D01*
X154121156Y-90400500D01*
X154121158Y-90400500D01*
X154278844Y-90400500D01*
X154278845Y-90400499D01*
X154433497Y-90369737D01*
X154579179Y-90309394D01*
X154710289Y-90221789D01*
X154821789Y-90110289D01*
X154909394Y-89979179D01*
X154969737Y-89833497D01*
X155000500Y-89678842D01*
X155000500Y-89521158D01*
X155000500Y-89521155D01*
X155000499Y-89521153D01*
X154980215Y-89419179D01*
X154969737Y-89366503D01*
X154966725Y-89359232D01*
X154909397Y-89220827D01*
X154909390Y-89220814D01*
X154821789Y-89089711D01*
X154821786Y-89089707D01*
X154710292Y-88978213D01*
X154710288Y-88978210D01*
X154579185Y-88890609D01*
X154579172Y-88890602D01*
X154433501Y-88830264D01*
X154433489Y-88830261D01*
X154278845Y-88799500D01*
X154278842Y-88799500D01*
X154121158Y-88799500D01*
X154121155Y-88799500D01*
X153966510Y-88830261D01*
X153966498Y-88830264D01*
X153820827Y-88890602D01*
X153820814Y-88890609D01*
X153689711Y-88978210D01*
X153689707Y-88978213D01*
X153578213Y-89089707D01*
X153578210Y-89089711D01*
X153490609Y-89220814D01*
X153490602Y-89220827D01*
X153430264Y-89366498D01*
X153430261Y-89366510D01*
X153399500Y-89521153D01*
X152956300Y-89521153D01*
X152960800Y-89498532D01*
X152960800Y-89361469D01*
X152960799Y-89361465D01*
X152943301Y-89273497D01*
X152934061Y-89227043D01*
X152931481Y-89220814D01*
X152881613Y-89100421D01*
X152881606Y-89100408D01*
X152805463Y-88986453D01*
X152805460Y-88986449D01*
X152708550Y-88889539D01*
X152708546Y-88889536D01*
X152594591Y-88813393D01*
X152594578Y-88813386D01*
X152467961Y-88760940D01*
X152467949Y-88760937D01*
X152333534Y-88734200D01*
X152333530Y-88734200D01*
X152196470Y-88734200D01*
X152196465Y-88734200D01*
X152062050Y-88760937D01*
X152062038Y-88760940D01*
X151935421Y-88813386D01*
X151935408Y-88813393D01*
X151821453Y-88889536D01*
X151821449Y-88889539D01*
X151724539Y-88986449D01*
X151724536Y-88986453D01*
X151648393Y-89100408D01*
X151648386Y-89100421D01*
X151595940Y-89227038D01*
X151595937Y-89227050D01*
X151569200Y-89361465D01*
X140300500Y-89361465D01*
X140300500Y-88021153D01*
X149499500Y-88021153D01*
X149499500Y-88178846D01*
X149530261Y-88333489D01*
X149530264Y-88333501D01*
X149590602Y-88479172D01*
X149590609Y-88479185D01*
X149678210Y-88610288D01*
X149678213Y-88610292D01*
X149789707Y-88721786D01*
X149789711Y-88721789D01*
X149920814Y-88809390D01*
X149920827Y-88809397D01*
X150065139Y-88869172D01*
X150066503Y-88869737D01*
X150221153Y-88900499D01*
X150221156Y-88900500D01*
X150221158Y-88900500D01*
X150378844Y-88900500D01*
X150378845Y-88900499D01*
X150533497Y-88869737D01*
X150646166Y-88823067D01*
X150679172Y-88809397D01*
X150679172Y-88809396D01*
X150679179Y-88809394D01*
X150810289Y-88721789D01*
X150921789Y-88610289D01*
X151009394Y-88479179D01*
X151069737Y-88333497D01*
X151100500Y-88178842D01*
X151100500Y-88021158D01*
X151100500Y-88021155D01*
X151100499Y-88021153D01*
X151070077Y-87868213D01*
X151069737Y-87866503D01*
X151069426Y-87865751D01*
X151009397Y-87720827D01*
X151009390Y-87720814D01*
X150921789Y-87589711D01*
X150921786Y-87589707D01*
X150810292Y-87478213D01*
X150810288Y-87478210D01*
X150679185Y-87390609D01*
X150679172Y-87390602D01*
X150533501Y-87330264D01*
X150533489Y-87330261D01*
X150378845Y-87299500D01*
X150378842Y-87299500D01*
X150221158Y-87299500D01*
X150221155Y-87299500D01*
X150066510Y-87330261D01*
X150066498Y-87330264D01*
X149920827Y-87390602D01*
X149920814Y-87390609D01*
X149789711Y-87478210D01*
X149789707Y-87478213D01*
X149678213Y-87589707D01*
X149678210Y-87589711D01*
X149590609Y-87720814D01*
X149590602Y-87720827D01*
X149530264Y-87866498D01*
X149530261Y-87866510D01*
X149499500Y-88021153D01*
X140300500Y-88021153D01*
X140300500Y-86421153D01*
X146999500Y-86421153D01*
X146999500Y-86578846D01*
X147030261Y-86733489D01*
X147030264Y-86733501D01*
X147090602Y-86879172D01*
X147090609Y-86879185D01*
X147178210Y-87010288D01*
X147178213Y-87010292D01*
X147289707Y-87121786D01*
X147289711Y-87121789D01*
X147420814Y-87209390D01*
X147420827Y-87209397D01*
X147566498Y-87269735D01*
X147566503Y-87269737D01*
X147716131Y-87299500D01*
X147721153Y-87300499D01*
X147721156Y-87300500D01*
X147721158Y-87300500D01*
X147878844Y-87300500D01*
X147878845Y-87300499D01*
X148033497Y-87269737D01*
X148179179Y-87209394D01*
X148310289Y-87121789D01*
X148421789Y-87010289D01*
X148509394Y-86879179D01*
X148569737Y-86733497D01*
X148600500Y-86578842D01*
X148600500Y-86521153D01*
X156499500Y-86521153D01*
X156499500Y-86678846D01*
X156530261Y-86833489D01*
X156530264Y-86833501D01*
X156590602Y-86979172D01*
X156590609Y-86979185D01*
X156658713Y-87081109D01*
X156679591Y-87147787D01*
X156661107Y-87215167D01*
X156658713Y-87218891D01*
X156590609Y-87320814D01*
X156590602Y-87320827D01*
X156530264Y-87466498D01*
X156530261Y-87466510D01*
X156499500Y-87621153D01*
X156499500Y-87778846D01*
X156530261Y-87933489D01*
X156530264Y-87933501D01*
X156590602Y-88079172D01*
X156590609Y-88079185D01*
X156678210Y-88210288D01*
X156678213Y-88210292D01*
X156789707Y-88321786D01*
X156789711Y-88321789D01*
X156920814Y-88409390D01*
X156920827Y-88409397D01*
X157066498Y-88469735D01*
X157066503Y-88469737D01*
X157221153Y-88500499D01*
X157221156Y-88500500D01*
X157221158Y-88500500D01*
X157378844Y-88500500D01*
X157378845Y-88500499D01*
X157533497Y-88469737D01*
X157657895Y-88418210D01*
X157679172Y-88409397D01*
X157679172Y-88409396D01*
X157679179Y-88409394D01*
X157679184Y-88409390D01*
X157679187Y-88409389D01*
X157750206Y-88361935D01*
X157773284Y-88346514D01*
X157839960Y-88325636D01*
X157907341Y-88344120D01*
X157929856Y-88361935D01*
X157989707Y-88421786D01*
X157989711Y-88421789D01*
X158120814Y-88509390D01*
X158120827Y-88509397D01*
X158264342Y-88568842D01*
X158266503Y-88569737D01*
X158421153Y-88600499D01*
X158421156Y-88600500D01*
X158421158Y-88600500D01*
X158578844Y-88600500D01*
X158578845Y-88600499D01*
X158733497Y-88569737D01*
X158879179Y-88509394D01*
X159006609Y-88424248D01*
X159073286Y-88403370D01*
X159140666Y-88421854D01*
X159187357Y-88473833D01*
X159199500Y-88527350D01*
X159199500Y-88568846D01*
X159230261Y-88723489D01*
X159230264Y-88723501D01*
X159290602Y-88869172D01*
X159290609Y-88869185D01*
X159378210Y-89000288D01*
X159378213Y-89000292D01*
X159489707Y-89111786D01*
X159489711Y-89111789D01*
X159508810Y-89124551D01*
X159553615Y-89178163D01*
X159562322Y-89247488D01*
X159532167Y-89310516D01*
X159508810Y-89330755D01*
X159466195Y-89359229D01*
X159466191Y-89359232D01*
X159354697Y-89470726D01*
X159354694Y-89470730D01*
X159267093Y-89601833D01*
X159267086Y-89601846D01*
X159206748Y-89747517D01*
X159206745Y-89747529D01*
X159175984Y-89902172D01*
X159175984Y-90059865D01*
X159206745Y-90214508D01*
X159206748Y-90214520D01*
X159267086Y-90360191D01*
X159267093Y-90360204D01*
X159354694Y-90491307D01*
X159354697Y-90491311D01*
X159466191Y-90602805D01*
X159466195Y-90602808D01*
X159597298Y-90690409D01*
X159597311Y-90690416D01*
X159742982Y-90750754D01*
X159742987Y-90750756D01*
X159897637Y-90781518D01*
X159897640Y-90781519D01*
X159897642Y-90781519D01*
X160055328Y-90781519D01*
X160055329Y-90781518D01*
X160209981Y-90750756D01*
X160355663Y-90690413D01*
X160486773Y-90602808D01*
X160598273Y-90491308D01*
X160685878Y-90360198D01*
X160746221Y-90214516D01*
X160776984Y-90059861D01*
X160776984Y-89914158D01*
X160796669Y-89847119D01*
X160849473Y-89801364D01*
X160853532Y-89799597D01*
X160974727Y-89749397D01*
X160974727Y-89749396D01*
X160974734Y-89749394D01*
X161105844Y-89661789D01*
X161217344Y-89550289D01*
X161304949Y-89419179D01*
X161365292Y-89273497D01*
X161396055Y-89118842D01*
X161396055Y-88961158D01*
X161396055Y-88961155D01*
X161396054Y-88961153D01*
X161381809Y-88889539D01*
X161365292Y-88806503D01*
X161362391Y-88799500D01*
X161304952Y-88660827D01*
X161304945Y-88660814D01*
X161217344Y-88529711D01*
X161217341Y-88529707D01*
X161105847Y-88418213D01*
X161105843Y-88418210D01*
X160974740Y-88330609D01*
X160974727Y-88330602D01*
X160829056Y-88270264D01*
X160823847Y-88268684D01*
X160765410Y-88230383D01*
X160745288Y-88197477D01*
X160709397Y-88110827D01*
X160709390Y-88110814D01*
X160621789Y-87979711D01*
X160621786Y-87979707D01*
X160510292Y-87868213D01*
X160510288Y-87868210D01*
X160379185Y-87780609D01*
X160379172Y-87780602D01*
X160233501Y-87720264D01*
X160233489Y-87720261D01*
X160078845Y-87689500D01*
X160078842Y-87689500D01*
X159921158Y-87689500D01*
X159921155Y-87689500D01*
X159766510Y-87720261D01*
X159766498Y-87720264D01*
X159620827Y-87780602D01*
X159620814Y-87780609D01*
X159493391Y-87865751D01*
X159426713Y-87886629D01*
X159359333Y-87868144D01*
X159312643Y-87816165D01*
X159300500Y-87762649D01*
X159300500Y-87721155D01*
X159300499Y-87721153D01*
X159294203Y-87689500D01*
X159269737Y-87566503D01*
X159269735Y-87566498D01*
X159209397Y-87420827D01*
X159209390Y-87420814D01*
X159121789Y-87289711D01*
X159121786Y-87289707D01*
X159010292Y-87178213D01*
X159010288Y-87178210D01*
X158879185Y-87090609D01*
X158879175Y-87090604D01*
X158848046Y-87077710D01*
X158793643Y-87033869D01*
X158773881Y-86987339D01*
X158769737Y-86966503D01*
X158733569Y-86879185D01*
X158709397Y-86820827D01*
X158709390Y-86820814D01*
X158621789Y-86689711D01*
X158621786Y-86689707D01*
X158510292Y-86578213D01*
X158510288Y-86578210D01*
X158379185Y-86490609D01*
X158379172Y-86490602D01*
X158233501Y-86430264D01*
X158233489Y-86430261D01*
X158148820Y-86413419D01*
X158086909Y-86381034D01*
X158058450Y-86339254D01*
X158009397Y-86220826D01*
X158009390Y-86220814D01*
X157921789Y-86089711D01*
X157921786Y-86089707D01*
X157810292Y-85978213D01*
X157810288Y-85978210D01*
X157679185Y-85890609D01*
X157679172Y-85890602D01*
X157533501Y-85830264D01*
X157533489Y-85830261D01*
X157378845Y-85799500D01*
X157378842Y-85799500D01*
X157221158Y-85799500D01*
X157221155Y-85799500D01*
X157066510Y-85830261D01*
X157066498Y-85830264D01*
X156920827Y-85890602D01*
X156920814Y-85890609D01*
X156789711Y-85978210D01*
X156789707Y-85978213D01*
X156678213Y-86089707D01*
X156678210Y-86089711D01*
X156590609Y-86220814D01*
X156590602Y-86220827D01*
X156530264Y-86366498D01*
X156530261Y-86366510D01*
X156499500Y-86521153D01*
X148600500Y-86521153D01*
X148600500Y-86421158D01*
X148600500Y-86421155D01*
X148600499Y-86421153D01*
X148569738Y-86266510D01*
X148569737Y-86266503D01*
X148550812Y-86220814D01*
X148509397Y-86120827D01*
X148509390Y-86120814D01*
X148421789Y-85989711D01*
X148421786Y-85989707D01*
X148310292Y-85878213D01*
X148310288Y-85878210D01*
X148179185Y-85790609D01*
X148179172Y-85790602D01*
X148033501Y-85730264D01*
X148033489Y-85730261D01*
X147878845Y-85699500D01*
X147878842Y-85699500D01*
X147721158Y-85699500D01*
X147721155Y-85699500D01*
X147566510Y-85730261D01*
X147566498Y-85730264D01*
X147420827Y-85790602D01*
X147420814Y-85790609D01*
X147289711Y-85878210D01*
X147289707Y-85878213D01*
X147178213Y-85989707D01*
X147178210Y-85989711D01*
X147090609Y-86120814D01*
X147090602Y-86120827D01*
X147030264Y-86266498D01*
X147030261Y-86266510D01*
X146999500Y-86421153D01*
X140300500Y-86421153D01*
X140300500Y-84521153D01*
X148999500Y-84521153D01*
X148999500Y-84678846D01*
X149030261Y-84833489D01*
X149030264Y-84833501D01*
X149090602Y-84979172D01*
X149090609Y-84979185D01*
X149178210Y-85110288D01*
X149178213Y-85110292D01*
X149289707Y-85221786D01*
X149289711Y-85221789D01*
X149420814Y-85309390D01*
X149420827Y-85309397D01*
X149566498Y-85369735D01*
X149566503Y-85369737D01*
X149721153Y-85400499D01*
X149721156Y-85400500D01*
X149721158Y-85400500D01*
X149878844Y-85400500D01*
X149878845Y-85400499D01*
X150033497Y-85369737D01*
X150179179Y-85309394D01*
X150310289Y-85221789D01*
X150421789Y-85110289D01*
X150509394Y-84979179D01*
X150569737Y-84833497D01*
X150600500Y-84678842D01*
X150600500Y-84521158D01*
X150600500Y-84521155D01*
X150600499Y-84521153D01*
X150569738Y-84366510D01*
X150569737Y-84366503D01*
X150569735Y-84366498D01*
X150509397Y-84220827D01*
X150509390Y-84220814D01*
X150421789Y-84089711D01*
X150421786Y-84089707D01*
X150310292Y-83978213D01*
X150310288Y-83978210D01*
X150179185Y-83890609D01*
X150179172Y-83890602D01*
X150033501Y-83830264D01*
X150033489Y-83830261D01*
X149878845Y-83799500D01*
X149878842Y-83799500D01*
X149721158Y-83799500D01*
X149721155Y-83799500D01*
X149566510Y-83830261D01*
X149566498Y-83830264D01*
X149420827Y-83890602D01*
X149420814Y-83890609D01*
X149289711Y-83978210D01*
X149289707Y-83978213D01*
X149178213Y-84089707D01*
X149178210Y-84089711D01*
X149090609Y-84220814D01*
X149090602Y-84220827D01*
X149030264Y-84366498D01*
X149030261Y-84366510D01*
X148999500Y-84521153D01*
X140300500Y-84521153D01*
X140300500Y-83213072D01*
X158919694Y-83213072D01*
X158919694Y-83370765D01*
X158950455Y-83525408D01*
X158950458Y-83525420D01*
X159010796Y-83671091D01*
X159010803Y-83671104D01*
X159098404Y-83802207D01*
X159098407Y-83802211D01*
X159209901Y-83913705D01*
X159209905Y-83913708D01*
X159341008Y-84001309D01*
X159341021Y-84001316D01*
X159486692Y-84061654D01*
X159486697Y-84061656D01*
X159627718Y-84089707D01*
X159641347Y-84092418D01*
X159641350Y-84092419D01*
X159641352Y-84092419D01*
X159799038Y-84092419D01*
X159799039Y-84092418D01*
X159953691Y-84061656D01*
X160099373Y-84001313D01*
X160230483Y-83913708D01*
X160341983Y-83802208D01*
X160429588Y-83671098D01*
X160489931Y-83525416D01*
X160520694Y-83370761D01*
X160520694Y-83213077D01*
X160520694Y-83213074D01*
X160520693Y-83213072D01*
X160489932Y-83058429D01*
X160489931Y-83058422D01*
X160489929Y-83058417D01*
X160429591Y-82912746D01*
X160429584Y-82912733D01*
X160341983Y-82781630D01*
X160341980Y-82781626D01*
X160230486Y-82670132D01*
X160230482Y-82670129D01*
X160099379Y-82582528D01*
X160099366Y-82582521D01*
X159953695Y-82522183D01*
X159953683Y-82522180D01*
X159799039Y-82491419D01*
X159799036Y-82491419D01*
X159641352Y-82491419D01*
X159641349Y-82491419D01*
X159486704Y-82522180D01*
X159486692Y-82522183D01*
X159341021Y-82582521D01*
X159341008Y-82582528D01*
X159209905Y-82670129D01*
X159209901Y-82670132D01*
X159098407Y-82781626D01*
X159098404Y-82781630D01*
X159010803Y-82912733D01*
X159010796Y-82912746D01*
X158950458Y-83058417D01*
X158950455Y-83058429D01*
X158919694Y-83213072D01*
X140300500Y-83213072D01*
X140300500Y-82018491D01*
X161217556Y-82018491D01*
X161217556Y-82176184D01*
X161248317Y-82330827D01*
X161248320Y-82330839D01*
X161308658Y-82476510D01*
X161308665Y-82476523D01*
X161396266Y-82607626D01*
X161396269Y-82607630D01*
X161507763Y-82719124D01*
X161507767Y-82719127D01*
X161638870Y-82806728D01*
X161638883Y-82806735D01*
X161784554Y-82867073D01*
X161784559Y-82867075D01*
X161939209Y-82897837D01*
X161939212Y-82897838D01*
X161939214Y-82897838D01*
X162096900Y-82897838D01*
X162096901Y-82897837D01*
X162251553Y-82867075D01*
X162397235Y-82806732D01*
X162528345Y-82719127D01*
X162639845Y-82607627D01*
X162727450Y-82476517D01*
X162787793Y-82330835D01*
X162818556Y-82176180D01*
X162818556Y-82018496D01*
X162818556Y-82018493D01*
X162818555Y-82018491D01*
X162787794Y-81863848D01*
X162787793Y-81863841D01*
X162787791Y-81863836D01*
X162727453Y-81718165D01*
X162727446Y-81718152D01*
X162639845Y-81587049D01*
X162639842Y-81587045D01*
X162528348Y-81475551D01*
X162528344Y-81475548D01*
X162397241Y-81387947D01*
X162397228Y-81387940D01*
X162251557Y-81327602D01*
X162251545Y-81327599D01*
X162096901Y-81296838D01*
X162096898Y-81296838D01*
X161939214Y-81296838D01*
X161939211Y-81296838D01*
X161784566Y-81327599D01*
X161784554Y-81327602D01*
X161638883Y-81387940D01*
X161638870Y-81387947D01*
X161507767Y-81475548D01*
X161507763Y-81475551D01*
X161396269Y-81587045D01*
X161396266Y-81587049D01*
X161308665Y-81718152D01*
X161308658Y-81718165D01*
X161248320Y-81863836D01*
X161248317Y-81863848D01*
X161217556Y-82018491D01*
X140300500Y-82018491D01*
X140300500Y-80424500D01*
X140320185Y-80357461D01*
X140372989Y-80311706D01*
X140424500Y-80300500D01*
X169575500Y-80300500D01*
X169642539Y-80320185D01*
G37*
%TD.AperFunction*%
%TD*%
M02*
