%TF.GenerationSoftware,KiCad,Pcbnew,10.0.4*%
%TF.CreationDate,2026-08-05T16:17:44+01:00*%
%TF.ProjectId,reward_port,72657761-7264-45f7-906f-72742e6b6963,rev?*%
%TF.SameCoordinates,Original*%
%TF.FileFunction,Copper,L3,Inr*%
%TF.FilePolarity,Positive*%
%FSLAX46Y46*%
G04 Gerber Fmt 4.6, Leading zero omitted, Abs format (unit mm)*
G04 Created by KiCad (PCBNEW 10.0.4) date 2026-08-05 16:17:44*
%MOMM*%
%LPD*%
G01*
G04 APERTURE LIST*
%TA.AperFunction,ViaPad*%
%ADD10C,0.600000*%
%TD*%
%TA.AperFunction,Conductor*%
%ADD11C,0.200000*%
%TD*%
G04 APERTURE END LIST*
D10*
%TO.N,/IR_E*%
X150300000Y-88100000D03*
X158000000Y-87200000D03*
%TO.N,GND*%
X165100000Y-84100000D03*
X151838909Y-98161091D03*
X163700000Y-103800000D03*
X160000000Y-93700000D03*
X163700000Y-108800000D03*
X150600000Y-95300000D03*
X163800000Y-106400000D03*
X143700000Y-88700000D03*
X157200000Y-83900000D03*
X149700000Y-110800000D03*
X150600000Y-93300000D03*
X160400000Y-95540132D03*
X160400000Y-90600000D03*
X147300000Y-95200000D03*
%TO.N,/3V3*%
X162900000Y-92300000D03*
X159900000Y-109800000D03*
X149472182Y-94400000D03*
X146900000Y-108700000D03*
X154000000Y-109800000D03*
X163600000Y-110100000D03*
%TO.N,/ADC_IN6*%
X157300000Y-86600000D03*
X147800000Y-86500000D03*
%TO.N,/AMPL_SD*%
X158500000Y-87800000D03*
X158050000Y-94150000D03*
X156687740Y-95512260D03*
%TO.N,/TIM2_CH1*%
X160595555Y-89040000D03*
X155500000Y-101700000D03*
%TO.N,/VALVE_OUT1*%
X147300000Y-97700000D03*
X149700000Y-98986001D03*
%TO.N,/VALVE_OUT2*%
X146700000Y-98800000D03*
X150090996Y-99626022D03*
%TO.N,/TIM1_CH1*%
X150176532Y-94657671D03*
X148700000Y-94900000D03*
X154200000Y-89600000D03*
%TO.N,/NRST*%
X159976484Y-89981019D03*
X151159476Y-92539685D03*
%TO.N,/RS485_P*%
X160460203Y-109123300D03*
X150250000Y-104565000D03*
X159000000Y-114500000D03*
%TO.N,/RS485_N*%
X148600000Y-105300000D03*
X159511955Y-113345338D03*
X161200000Y-109000000D03*
%TO.N,/SYNC_P*%
X154700000Y-108900000D03*
X157750000Y-117250000D03*
X158250000Y-112750000D03*
%TO.N,/TIM2_CH2*%
X160000000Y-88490000D03*
X149800000Y-84600000D03*
%TO.N,/DAC_OUT1*%
X154700000Y-97100000D03*
X157300000Y-87700000D03*
%TO.N,/USART1_DE*%
X159274998Y-100700000D03*
X160500000Y-102100000D03*
%TO.N,/TIM3_CH1*%
X162018056Y-82097338D03*
X155800000Y-94700000D03*
%TO.N,/TIM3_CH2*%
X159720194Y-83291919D03*
X156900000Y-93600000D03*
%TO.N,/USART1_RX*%
X161500000Y-95802446D03*
X161800000Y-102100000D03*
%TO.N,Net-(U3-VO+)*%
X160877818Y-99222182D03*
X158724998Y-99700000D03*
X164600000Y-99400000D03*
%TD*%
%TO.N,/AMPL_SD*%
D11*
X158500000Y-93700000D02*
X158500000Y-87800000D01*
X157200000Y-95000000D02*
X158500000Y-93700000D01*
X156687740Y-95512260D02*
X157200000Y-95000000D01*
%TO.N,/RS485_P*%
X151065000Y-103750000D02*
X154750000Y-103750000D01*
X150250000Y-104565000D02*
X151065000Y-103750000D01*
X155750000Y-104750000D02*
X154750000Y-103750000D01*
X155750000Y-111250000D02*
X155750000Y-104750000D01*
X159000000Y-114500000D02*
X155750000Y-111250000D01*
%TO.N,/RS485_N*%
X158627207Y-115400000D02*
X148600000Y-105372793D01*
X159900000Y-113733383D02*
X159900000Y-114872793D01*
X159511955Y-113345338D02*
X159511955Y-113163426D01*
X159900000Y-114872793D02*
X159372792Y-115400000D01*
X159372792Y-115400000D02*
X158627207Y-115400000D01*
X159511955Y-113345338D02*
X159900000Y-113733383D01*
X148600000Y-105372793D02*
X148600000Y-105300000D01*
%TO.N,/SYNC_P*%
X158772182Y-115050000D02*
X159227818Y-115050000D01*
X159227818Y-115050000D02*
X159550000Y-114727818D01*
X158250000Y-112972182D02*
X158250000Y-112750000D01*
X154700000Y-110977818D02*
X158772182Y-115050000D01*
X159550000Y-114727818D02*
X159550000Y-114272182D01*
X159550000Y-114272182D02*
X158250000Y-112972182D01*
X154700000Y-108900000D02*
X154700000Y-110977818D01*
%TO.N,/DAC_OUT1*%
X154700000Y-96600000D02*
X157500000Y-93800000D01*
X154700000Y-97100000D02*
X154700000Y-96600000D01*
X157500000Y-87900000D02*
X157300000Y-87700000D01*
X157500000Y-93800000D02*
X157500000Y-87900000D01*
%TO.N,/TIM3_CH1*%
X162000000Y-82100000D02*
X160116854Y-82100000D01*
X160116854Y-82100000D02*
X155800000Y-86416854D01*
X155800000Y-86416854D02*
X155800000Y-94700000D01*
%TO.N,/TIM3_CH2*%
X156750000Y-86244672D02*
X156750000Y-93450000D01*
X159705812Y-83288860D02*
X156750000Y-86244672D01*
X156750000Y-93450000D02*
X156900000Y-93600000D01*
%TO.N,Net-(U3-VO+)*%
X159202816Y-99222182D02*
X158724998Y-99700000D01*
X160877818Y-99222182D02*
X159202816Y-99222182D01*
%TD*%
M02*
