%TF.GenerationSoftware,KiCad,Pcbnew,10.0.4*%
%TF.CreationDate,2026-08-06T18:29:07+01:00*%
%TF.ProjectId,reward_port,72657761-7264-45f7-906f-72742e6b6963,rev?*%
%TF.SameCoordinates,Original*%
%TF.FileFunction,Copper,L4,Bot*%
%TF.FilePolarity,Positive*%
%FSLAX46Y46*%
G04 Gerber Fmt 4.6, Leading zero omitted, Abs format (unit mm)*
G04 Created by KiCad (PCBNEW 10.0.4) date 2026-08-06 18:29:07*
%MOMM*%
%LPD*%
G01*
G04 APERTURE LIST*
%TA.AperFunction,ViaPad*%
%ADD10C,0.600000*%
%TD*%
%TA.AperFunction,Conductor*%
%ADD11C,0.200000*%
%TD*%
G04 APERTURE END LIST*
D10*
%TO.N,/IR_E*%
X150300000Y-88100000D03*
X158000000Y-87200000D03*
%TO.N,GND*%
X165100000Y-84100000D03*
X151838909Y-98161091D03*
X163700000Y-103800000D03*
X160000000Y-93700000D03*
X163700000Y-108800000D03*
X150600000Y-95300000D03*
X163800000Y-106400000D03*
X143700000Y-88700000D03*
X157200000Y-83900000D03*
X149700000Y-110800000D03*
X150600000Y-93300000D03*
X160400000Y-95540132D03*
X160400000Y-90600000D03*
X147300000Y-95200000D03*
%TO.N,/3V3*%
X162900000Y-92300000D03*
X159900000Y-109800000D03*
X149472182Y-94400000D03*
X146900000Y-108700000D03*
X154000000Y-109800000D03*
X163600000Y-110100000D03*
%TO.N,/ADC_IN6*%
X157300000Y-86600000D03*
X147800000Y-86500000D03*
%TO.N,/AMPL_SD*%
X158500000Y-87800000D03*
X158050000Y-94150000D03*
X156687740Y-95512260D03*
%TO.N,/TIM2_CH1*%
X160595555Y-89040000D03*
X155500000Y-101700000D03*
%TO.N,/VALVE_OUT1*%
X147300000Y-97700000D03*
X149700000Y-98986001D03*
%TO.N,/VALVE_OUT2*%
X146700000Y-98800000D03*
X150090996Y-99626022D03*
%TO.N,/TIM1_CH1*%
X150176532Y-94657671D03*
X148700000Y-94900000D03*
X154200000Y-89600000D03*
%TO.N,/NRST*%
X159976484Y-89981019D03*
X151159476Y-92539685D03*
%TO.N,/RS485_P*%
X160460203Y-109123300D03*
X150250000Y-104565000D03*
X159000000Y-114500000D03*
%TO.N,/RS485_N*%
X148600000Y-105300000D03*
X159511955Y-113345338D03*
X161200000Y-109000000D03*
%TO.N,/SYNC_P*%
X154700000Y-108900000D03*
X157750000Y-117250000D03*
X158250000Y-112750000D03*
%TO.N,/TIM2_CH2*%
X160000000Y-88490000D03*
X149800000Y-84600000D03*
%TO.N,/DAC_OUT1*%
X154700000Y-97100000D03*
X157300000Y-87700000D03*
%TO.N,/USART1_DE*%
X159274998Y-100700000D03*
X160500000Y-102100000D03*
%TO.N,/TIM3_CH1*%
X162018056Y-82097338D03*
X155800000Y-94700000D03*
%TO.N,/TIM3_CH2*%
X159720194Y-83291919D03*
X156900000Y-93600000D03*
%TO.N,/USART1_RX*%
X161500000Y-95802446D03*
X161800000Y-102100000D03*
%TO.N,Net-(U3-VO+)*%
X160877818Y-99222182D03*
X158724998Y-99700000D03*
X164600000Y-99400000D03*
%TD*%
%TO.N,/IR_E*%
D11*
X157950000Y-87150000D02*
X158000000Y-87200000D01*
X150300000Y-88100000D02*
X151250000Y-87150000D01*
X151250000Y-87150000D02*
X157950000Y-87150000D01*
%TO.N,GND*%
X143700000Y-92420000D02*
X143700000Y-88700000D01*
X147300000Y-96020000D02*
X147300000Y-95200000D01*
X148100000Y-96820000D02*
X147300000Y-96020000D01*
X148100000Y-96820000D02*
X143700000Y-92420000D01*
X163700000Y-103600000D02*
X163700000Y-103800000D01*
%TO.N,/3V3*%
X150800000Y-96277818D02*
X149472182Y-94950000D01*
X165150000Y-94550000D02*
X165150000Y-108550000D01*
X146900000Y-108700000D02*
X148000000Y-109800000D01*
X165150000Y-108550000D02*
X163600000Y-110100000D01*
X149472182Y-94950000D02*
X149472182Y-94400000D01*
X146900000Y-108700000D02*
X150800000Y-104800000D01*
X148000000Y-109800000D02*
X154000000Y-109800000D01*
X162900000Y-92300000D02*
X165150000Y-94550000D01*
X150800000Y-104800000D02*
X150800000Y-96277818D01*
X154000000Y-109800000D02*
X159900000Y-109800000D01*
%TO.N,/ADC_IN6*%
X147800000Y-86500000D02*
X147900000Y-86600000D01*
X147900000Y-86600000D02*
X157300000Y-86600000D01*
%TO.N,/TIM2_CH1*%
X155500000Y-101700000D02*
X160950000Y-96250000D01*
X160950000Y-96250000D02*
X160950000Y-89394445D01*
X160950000Y-89394445D02*
X160595555Y-89040000D01*
%TO.N,/VALVE_OUT1*%
X148586001Y-98986001D02*
X147300000Y-97700000D01*
X149700000Y-98986001D02*
X148586001Y-98986001D01*
%TO.N,/VALVE_OUT2*%
X147436001Y-99536001D02*
X146700000Y-98800000D01*
X150047500Y-99536001D02*
X147436001Y-99536001D01*
%TO.N,/TIM1_CH1*%
X148700000Y-94394364D02*
X148700000Y-94900000D01*
X149244364Y-93850000D02*
X148700000Y-94394364D01*
X150176532Y-94657671D02*
X150050000Y-94531139D01*
X150050000Y-94531139D02*
X150050000Y-92850000D01*
X150050000Y-92850000D02*
X153300000Y-89600000D01*
X153300000Y-89600000D02*
X154200000Y-89600000D01*
X149700000Y-93850000D02*
X149244364Y-93850000D01*
X150176532Y-94657671D02*
X150176532Y-94326532D01*
X150176532Y-94326532D02*
X149700000Y-93850000D01*
%TO.N,/NRST*%
X158957503Y-91000000D02*
X159976484Y-89981019D01*
X152699161Y-91000000D02*
X151159476Y-92539685D01*
X158957503Y-91000000D02*
X152699161Y-91000000D01*
%TO.N,/RS485_P*%
X158961955Y-112565863D02*
X160460203Y-111067615D01*
X158961955Y-114461955D02*
X158961955Y-112565863D01*
X160460203Y-111067615D02*
X160460203Y-109123300D01*
X159000000Y-114500000D02*
X158961955Y-114461955D01*
%TO.N,/RS485_N*%
X161200000Y-111657293D02*
X161200000Y-109000000D01*
X159511955Y-113345338D02*
X161200000Y-111657293D01*
%TO.N,/SYNC_P*%
X158250000Y-112750000D02*
X157750000Y-113250000D01*
X157750000Y-113250000D02*
X157750000Y-117250000D01*
%TO.N,/TIM2_CH2*%
X160000000Y-88422182D02*
X160000000Y-88490000D01*
X156177818Y-84600000D02*
X160000000Y-88422182D01*
X149800000Y-84600000D02*
X156177818Y-84600000D01*
%TO.N,/USART1_DE*%
X159274998Y-100700000D02*
X159674998Y-100700000D01*
X160500000Y-102100000D02*
X160374998Y-101974998D01*
X160374998Y-101974998D02*
X160374998Y-101400000D01*
X159674998Y-100700000D02*
X160374998Y-101400000D01*
%TO.N,/USART1_RX*%
X161800000Y-102100000D02*
X159700000Y-100000000D01*
X161500000Y-96200000D02*
X161500000Y-95802446D01*
X159700000Y-100000000D02*
X159700000Y-98000000D01*
X159700000Y-98000000D02*
X161500000Y-96200000D01*
%TO.N,Net-(U3-VO+)*%
X163460000Y-100540000D02*
X164600000Y-99400000D01*
X160877818Y-99222182D02*
X162195636Y-100540000D01*
X163200000Y-100540000D02*
X163460000Y-100540000D01*
X162195636Y-100540000D02*
X163200000Y-100540000D01*
%TD*%
M02*
